<svg width="24" height="24" viewBox="0 0 24 24" fill="none" xmlns="http://www.w3.org/2000/svg">
<path d="M22.002 9.75C21.592 9.75 21.252 9.41 21.252 9V7C21.252 4.42 19.582 2.75 17.002 2.75H7.00195C4.42195 2.75 2.75195 4.42 2.75195 7V9C2.75195 9.41 2.41195 9.75 2.00195 9.75C1.59195 9.75 1.25195 9.41 1.25195 9V7C1.25195 3.56 3.56195 1.25 7.00195 1.25H17.002C20.442 1.25 22.752 3.56 22.752 7V9C22.752 9.41 22.412 9.75 22.002 9.75Z" fill="#171717"/>
<path d="M17.002 22.75H7.00195C3.56195 22.75 1.25195 20.44 1.25195 17V15C1.25195 14.59 1.59195 14.25 2.00195 14.25C2.41195 14.25 2.75195 14.59 2.75195 15V17C2.75195 19.58 4.42195 21.25 7.00195 21.25H17.002C19.582 21.25 21.252 19.58 21.252 17V15C21.252 14.59 21.592 14.25 22.002 14.25C22.412 14.25 22.752 14.59 22.752 15V17C22.752 20.44 20.442 22.75 17.002 22.75Z" fill="#171717"/>
<path d="M12.0021 13.08C11.8721 13.08 11.7421 13.0499 11.6221 12.9799L6.32207 9.91992C5.96207 9.70992 5.84206 9.24995 6.05206 8.88995C6.26206 8.52995 6.72207 8.40993 7.07207 8.61993L11.9921 11.4699L16.8821 8.63995C17.2421 8.42995 17.7021 8.55991 17.9021 8.90991C18.1121 9.26991 17.9821 9.72994 17.6321 9.93994L12.3721 12.9799C12.2621 13.0399 12.1321 13.08 12.0021 13.08Z" fill="#171717"/>
<path d="M12.002 18.52C11.592 18.52 11.252 18.18 11.252 17.77V12.33C11.252 11.92 11.592 11.58 12.002 11.58C12.412 11.58 12.752 11.92 12.752 12.33V17.77C12.752 18.18 12.412 18.52 12.002 18.52Z" fill="#171717"/>
<path d="M12.0022 18.7501C11.4222 18.7501 10.8522 18.62 10.3922 18.37L7.19218 16.5901C6.23218 16.0601 5.49219 14.7901 5.49219 13.6901V10.3C5.49219 9.21004 6.24218 7.94008 7.19218 7.40008L10.3922 5.62005C11.3122 5.11005 12.6922 5.11005 13.6122 5.62005L16.8122 7.40008C17.7722 7.93008 18.5122 9.20004 18.5122 10.3V13.6901C18.5122 14.7801 17.7622 16.0501 16.8122 16.5901L13.6122 18.37C13.1522 18.62 12.5822 18.7501 12.0022 18.7501ZM11.1222 6.94006L7.92218 8.72002C7.43218 8.99002 6.99219 9.75004 6.99219 10.3V13.6901C6.99219 14.2501 7.43218 15.0001 7.92218 15.2701L11.1222 17.05C11.5822 17.3 12.4222 17.3 12.8822 17.05L16.0822 15.2701C16.5722 15.0001 17.0122 14.2401 17.0122 13.6901V10.3C17.0122 9.74004 16.5722 8.99002 16.0822 8.72002L12.8822 6.94006C12.4222 6.69006 11.5822 6.69006 11.1222 6.94006Z" fill="#171717"/>
</svg>
