<svg width="24" height="24" viewBox="0 0 24 24" fill="none" xmlns="http://www.w3.org/2000/svg">
<path opacity="0.4" d="M22.001 9.75C21.591 9.75 21.251 9.41 21.251 9V7C21.251 4.42 19.581 2.75 17.001 2.75H7.00098C4.42098 2.75 2.75098 4.42 2.75098 7V9C2.75098 9.41 2.41098 9.75 2.00098 9.75C1.59098 9.75 1.25098 9.41 1.25098 9V7C1.25098 3.56 3.56098 1.25 7.00098 1.25H17.001C20.441 1.25 22.751 3.56 22.751 7V9C22.751 9.41 22.411 9.75 22.001 9.75Z" fill="#171717"/>
<path opacity="0.4" d="M17.001 22.75H7.00098C3.56098 22.75 1.25098 20.44 1.25098 17V15C1.25098 14.59 1.59098 14.25 2.00098 14.25C2.41098 14.25 2.75098 14.59 2.75098 15V17C2.75098 19.58 4.42098 21.25 7.00098 21.25H17.001C19.581 21.25 21.251 19.58 21.251 17V15C21.251 14.59 21.591 14.25 22.001 14.25C22.411 14.25 22.751 14.59 22.751 15V17C22.751 20.44 20.441 22.75 17.001 22.75Z" fill="#171717"/>
<path d="M16.4009 8.20999L12.6409 6.17996C12.2409 5.96996 11.7709 5.96996 11.3709 6.17996L7.6109 8.20999C7.3409 8.35999 7.1709 8.64995 7.1709 8.97995C7.1709 9.30995 7.3409 9.59997 7.6109 9.74997L11.3709 11.78C11.5709 11.89 11.7909 11.94 12.0109 11.94C12.2309 11.94 12.4509 11.89 12.6509 11.78L16.4109 9.74997C16.6809 9.59997 16.8509 9.30995 16.8509 8.97995C16.8409 8.64995 16.6709 8.35999 16.4009 8.20999Z" fill="#171717"/>
<path d="M10.7412 12.4699L7.24121 10.7199C6.97121 10.5899 6.6612 10.6 6.4012 10.76C6.1412 10.92 5.99121 11.1899 5.99121 11.4899V14.7999C5.99121 15.3699 6.31121 15.89 6.82121 16.14L10.3212 17.89C10.4412 17.95 10.5712 17.9799 10.7112 17.9799C10.8712 17.9799 11.0212 17.9399 11.1612 17.8499C11.4212 17.6899 11.5712 17.4199 11.5712 17.1199V13.8099C11.5712 13.2399 11.2612 12.7299 10.7412 12.4699Z" fill="#171717"/>
<path d="M17.5909 10.76C17.3309 10.6 17.0209 10.5899 16.7509 10.7199L13.2509 12.4699C12.7409 12.7299 12.4209 13.2399 12.4209 13.8099V17.1199C12.4209 17.4199 12.5709 17.6899 12.8309 17.8499C12.9709 17.9399 13.1209 17.9799 13.2809 17.9799C13.4109 17.9799 13.5409 17.95 13.6709 17.89L17.1709 16.14C17.6809 15.88 18.0009 15.3699 18.0009 14.7999V11.4899C18.0009 11.1899 17.8509 10.92 17.5909 10.76Z" fill="#171717"/>
</svg>
