<svg width="25" height="24" viewBox="0 0 25 24" fill="none" xmlns="http://www.w3.org/2000/svg">
<path d="M6.71558 9.26001L12.0156 12.33L17.2756 9.28001" stroke="#171717" stroke-width="1.5" stroke-linecap="round" stroke-linejoin="round"/>
<path d="M12.0156 17.7701V12.3201" stroke="#171717" stroke-width="1.5" stroke-linecap="round" stroke-linejoin="round"/>
<path d="M6.24561 10.3C6.24561 9.47 6.83558 8.45999 7.56558 8.05999L10.7656 6.28C11.4456 5.9 12.5656 5.9 13.2556 6.28L16.4556 8.05999C17.1756 8.45999 17.7756 9.47 17.7756 10.3V13.69C17.7756 14.52 17.1856 15.53 16.4556 15.93L13.2556 17.71C12.5756 18.09 11.4556 18.09 10.7656 17.71L7.56558 15.93C7.20558 15.73 6.87559 15.38 6.63559 14.97" stroke="#171717" stroke-width="1.5" stroke-linecap="round" stroke-linejoin="round"/>
<path d="M22.0156 15C22.0156 18.87 18.8856 22 15.0156 22L16.0656 20.25" stroke="#171717" stroke-width="1.5" stroke-linecap="round" stroke-linejoin="round"/>
<path d="M2.01562 9C2.01562 5.13 5.14563 2 9.01562 2L7.96564 3.75" stroke="#171717" stroke-width="1.5" stroke-linecap="round" stroke-linejoin="round"/>
</svg>
