<svg width="25" height="24" viewBox="0 0 25 24" fill="none" xmlns="http://www.w3.org/2000/svg">
<path d="M12.0157 13.0799C11.8857 13.0799 11.7557 13.0499 11.6357 12.9799L6.33575 9.91994C5.97575 9.70994 5.85573 9.24995 6.06573 8.89995C6.27573 8.53995 6.72573 8.41994 7.09573 8.62994L12.0157 11.4799L16.9058 8.64995C17.2658 8.43995 17.7258 8.56994 17.9358 8.91994C18.1458 9.27994 18.0157 9.73995 17.6657 9.93995L12.4058 12.9799C12.2758 13.0399 12.1457 13.0799 12.0157 13.0799Z" fill="#171717"/>
<path d="M12.0156 18.52C11.6056 18.52 11.2656 18.18 11.2656 17.77V12.33C11.2656 11.92 11.6056 11.58 12.0156 11.58C12.4256 11.58 12.7656 11.92 12.7656 12.33V17.77C12.7656 18.18 12.4256 18.52 12.0156 18.52Z" fill="#171717"/>
<path d="M12.0159 18.75C11.4359 18.75 10.8659 18.62 10.4059 18.37L7.20587 16.59C6.24587 16.06 5.50586 14.79 5.50586 13.69V10.3C5.50586 9.21005 6.25587 7.93005 7.20587 7.40005L10.4059 5.62005C11.3259 5.11005 12.7059 5.11005 13.6259 5.62005L16.8259 7.40005C17.7859 7.93005 18.5259 9.20005 18.5259 10.3V13.69C18.5259 14.78 17.7759 16.06 16.8259 16.59L13.6259 18.37C13.1659 18.62 12.5959 18.75 12.0159 18.75ZM12.0159 6.75005C11.6859 6.75005 11.3659 6.81005 11.1359 6.94005L7.93588 8.72005C7.44588 8.99005 7.00586 9.75005 7.00586 10.3V13.69C7.00586 14.25 7.44588 15 7.93588 15.27L11.1359 17.05C11.5959 17.31 12.4359 17.31 12.8959 17.05L16.0959 15.27C16.5859 15 17.0259 14.24 17.0259 13.69V10.3C17.0259 9.74005 16.5859 8.99005 16.0959 8.72005L12.8959 6.94005C12.6659 6.81005 12.3459 6.75005 12.0159 6.75005Z" fill="#171717"/>
<path d="M15.0158 22.75C14.7458 22.75 14.4958 22.6 14.3658 22.37C14.2358 22.13 14.2358 21.85 14.3758 21.61L15.4258 19.86C15.6358 19.51 16.0958 19.39 16.4558 19.6C16.8158 19.81 16.9258 20.27 16.7158 20.63L16.4458 21.08C19.2058 20.43 21.2758 17.95 21.2758 14.99C21.2758 14.58 21.6158 14.24 22.0258 14.24C22.4358 14.24 22.7758 14.58 22.7758 14.99C22.7658 19.27 19.2858 22.75 15.0158 22.75Z" fill="#171717"/>
<path d="M2.01562 9.75C1.60563 9.75 1.26562 9.41 1.26562 9C1.26562 4.73 4.74563 1.25 9.01562 1.25C9.28563 1.25 9.53562 1.4 9.66562 1.63C9.79562 1.87 9.79564 2.15 9.65564 2.39L8.60562 4.14C8.39562 4.49 7.93562 4.61 7.57562 4.4C7.21562 4.19 7.10561 3.73 7.31561 3.37L7.58563 2.92C4.82563 3.57 2.75562 6.05 2.75562 9.01C2.76562 9.41 2.42562 9.75 2.01562 9.75Z" fill="#171717"/>
</svg>
