<svg width="25" height="24" viewBox="0 0 25 24" fill="none" xmlns="http://www.w3.org/2000/svg">
<path fill-rule="evenodd" clip-rule="evenodd" d="M7.59285 2.91194C4.82375 3.55436 2.76465 6.03342 2.76465 9C2.76465 9.41421 2.42886 9.75 2.01465 9.75C1.60043 9.75 1.26465 9.41421 1.26465 9C1.26465 4.71579 4.73043 1.25 9.01465 1.25C9.28485 1.25 9.53417 1.39534 9.6673 1.63047C9.80043 1.8656 9.79679 2.15417 9.65777 2.38587L8.60778 4.13587C8.39467 4.49105 7.93398 4.60623 7.57879 4.39312C7.22361 4.18001 7.10843 3.71932 7.32154 3.36413L7.59285 2.91194ZM22.0146 14.25C22.4289 14.25 22.7646 14.5858 22.7646 15C22.7646 19.2842 19.2989 22.75 15.0146 22.75C14.7444 22.75 14.4951 22.6047 14.362 22.3695C14.2289 22.1344 14.2325 21.8458 14.3715 21.6141L15.4215 19.8641C15.6346 19.5089 16.0953 19.3938 16.4505 19.6069C16.8057 19.82 16.9209 20.2807 16.7078 20.6359L16.4364 21.0881C19.2055 20.4456 21.2646 17.9666 21.2646 15C21.2646 14.5858 21.6004 14.25 22.0146 14.25Z" fill="#171717"/>
<path d="M16.4146 8.20996L12.6546 6.17996C12.2546 5.96996 11.7846 5.96996 11.3846 6.17996L7.62454 8.20996C7.35454 8.35996 7.18457 8.64996 7.18457 8.97996C7.18457 9.30996 7.35454 9.59996 7.62454 9.74996L11.3846 11.78C11.5846 11.89 11.8046 11.94 12.0246 11.94C12.2446 11.94 12.4646 11.89 12.6646 11.78L16.4246 9.74996C16.6946 9.59996 16.8646 9.30996 16.8646 8.97996C16.8546 8.64996 16.6846 8.35996 16.4146 8.20996Z" fill="#171717"/>
<path opacity="0.4" d="M10.7546 12.4699L7.25464 10.7199C6.98464 10.5899 6.67464 10.5999 6.41464 10.7599C6.15464 10.9199 6.00464 11.1899 6.00464 11.4899V14.7999C6.00464 15.3699 6.32466 15.8899 6.83466 16.1399L10.3347 17.8899C10.4547 17.9499 10.5846 17.9799 10.7246 17.9799C10.8846 17.9799 11.0347 17.9399 11.1747 17.8499C11.4347 17.6899 11.5847 17.4199 11.5847 17.1199V13.8099C11.5847 13.2399 11.2746 12.7299 10.7546 12.4699Z" fill="#171717"/>
<path opacity="0.4" d="M17.6046 10.7599C17.3446 10.5999 17.0346 10.5899 16.7646 10.7199L13.2646 12.4699C12.7546 12.7299 12.4346 13.2399 12.4346 13.8099V17.1199C12.4346 17.4199 12.5845 17.6899 12.8445 17.8499C12.9845 17.9399 13.1346 17.9799 13.2946 17.9799C13.4246 17.9799 13.5546 17.9499 13.6846 17.8899L17.1846 16.1399C17.6946 15.8799 18.0146 15.3699 18.0146 14.7999V11.4899C18.0146 11.1899 17.8646 10.9199 17.6046 10.7599Z" fill="#171717"/>
</svg>
