<svg width="25" height="24" viewBox="0 0 25 24" fill="none" xmlns="http://www.w3.org/2000/svg">
<path d="M15.0146 22.75H9.01465C3.58465 22.75 1.26465 20.43 1.26465 15V9C1.26465 3.57 3.58465 1.25 9.01465 1.25H15.0146C20.4446 1.25 22.7646 3.57 22.7646 9V15C22.7646 20.43 20.4446 22.75 15.0146 22.75ZM9.01465 2.75C4.40465 2.75 2.76465 4.39 2.76465 9V15C2.76465 19.61 4.40465 21.25 9.01465 21.25H15.0146C19.6246 21.25 21.2646 19.61 21.2646 15V9C21.2646 4.39 19.6246 2.75 15.0146 2.75H9.01465Z" fill="#171717"/>
<path d="M12.0148 13.0799C11.8848 13.0799 11.7548 13.0499 11.6348 12.9799L6.33477 9.91994C5.97477 9.70994 5.85475 9.24995 6.06475 8.89995C6.27475 8.53995 6.73477 8.41994 7.08477 8.62994L12.0048 11.4799L16.8948 8.64995C17.2548 8.43995 17.7148 8.56994 17.9148 8.91994C18.1148 9.26994 17.9948 9.73995 17.6448 9.93995L12.3848 12.9799C12.2748 13.0399 12.1448 13.0799 12.0148 13.0799Z" fill="#171717"/>
<path d="M12.0146 18.52C11.6046 18.52 11.2646 18.18 11.2646 17.77V12.33C11.2646 11.92 11.6046 11.58 12.0146 11.58C12.4246 11.58 12.7646 11.92 12.7646 12.33V17.77C12.7646 18.18 12.4246 18.52 12.0146 18.52Z" fill="#171717"/>
<path d="M12.0149 18.75C11.4349 18.75 10.8649 18.62 10.4049 18.37L7.2049 16.59C6.2449 16.06 5.50488 14.79 5.50488 13.69V10.3C5.50488 9.21005 6.2549 7.94005 7.2049 7.40005L10.4049 5.62005C11.3249 5.11005 12.7049 5.11005 13.6249 5.62005L16.8249 7.40005C17.7849 7.93005 18.5249 9.20005 18.5249 10.3V13.69C18.5249 14.78 17.7749 16.05 16.8249 16.59L13.6249 18.37C13.1649 18.63 12.5949 18.75 12.0149 18.75ZM12.0149 6.75005C11.6849 6.75005 11.3649 6.81005 11.1349 6.94005L7.93491 8.72005C7.44491 8.99005 7.00488 9.75005 7.00488 10.3V13.69C7.00488 14.25 7.44491 15 7.93491 15.27L11.1349 17.05C11.5949 17.31 12.4349 17.31 12.8949 17.05L16.0949 15.27C16.5849 15 17.0249 14.24 17.0249 13.69V10.3C17.0249 9.74005 16.5849 8.99005 16.0949 8.72005L12.8949 6.94005C12.6649 6.81005 12.3449 6.75005 12.0149 6.75005Z" fill="#171717"/>
</svg>
