<svg width="25" height="24" viewBox="0 0 25 24" fill="none" xmlns="http://www.w3.org/2000/svg">
<path opacity="0.4" d="M16.2037 2.32996H7.83368C4.19368 2.32996 2.02368 4.49996 2.02368 8.13996V16.51C2.02368 20.15 4.19368 22.32 7.83368 22.32H16.2037C19.8437 22.32 22.0137 20.15 22.0137 16.51V8.14996C22.0137 4.50996 19.8437 2.32996 16.2037 2.32996Z" fill="#171717"/>
<path d="M16.4136 8.20996L12.6536 6.17996C12.2536 5.96996 11.7836 5.96996 11.3836 6.17996L7.62357 8.20996C7.35357 8.35996 7.18359 8.64996 7.18359 8.97996C7.18359 9.30996 7.35357 9.59996 7.62357 9.74996L11.3836 11.78C11.5836 11.89 11.8036 11.94 12.0236 11.94C12.2436 11.94 12.4636 11.89 12.6636 11.78L16.4236 9.74996C16.6936 9.59996 16.8636 9.30996 16.8636 8.97996C16.8536 8.64996 16.6836 8.35996 16.4136 8.20996Z" fill="#171717"/>
<path d="M10.7537 12.4701L7.25366 10.7201C6.98366 10.5901 6.67367 10.6001 6.41367 10.7601C6.15367 10.9201 6.00366 11.1901 6.00366 11.4901V14.8001C6.00366 15.3701 6.32368 15.8901 6.83368 16.1401L10.3337 17.8901C10.4537 17.9501 10.5837 17.9801 10.7237 17.9801C10.8837 17.9801 11.0337 17.9401 11.1737 17.8501C11.4337 17.6901 11.5837 17.4201 11.5837 17.1201V13.8101C11.5837 13.2401 11.2737 12.7301 10.7537 12.4701Z" fill="#171717"/>
<path d="M17.6036 10.7601C17.3436 10.6001 17.0336 10.5901 16.7636 10.7201L13.2636 12.4701C12.7536 12.7301 12.4336 13.2401 12.4336 13.8101V17.1201C12.4336 17.4201 12.5836 17.6901 12.8436 17.8501C12.9836 17.9401 13.1336 17.9801 13.2936 17.9801C13.4236 17.9801 13.5536 17.9501 13.6836 17.8901L17.1836 16.1401C17.6936 15.8801 18.0136 15.3701 18.0136 14.8001V11.4901C18.0136 11.1901 17.8636 10.9201 17.6036 10.7601Z" fill="#171717"/>
</svg>
