<svg width="25" height="24" viewBox="0 0 25 24" fill="none" xmlns="http://www.w3.org/2000/svg">
<path d="M9.01465 22H15.0146C20.0146 22 22.0146 20 22.0146 15V9C22.0146 4 20.0146 2 15.0146 2H9.01465C4.01465 2 2.01465 4 2.01465 9V15C2.01465 20 4.01465 22 9.01465 22Z" stroke="#171717" stroke-width="1.5" stroke-linecap="round" stroke-linejoin="round"/>
<path d="M6.71484 9.26001L12.0148 12.33L17.2748 9.28001" stroke="#171717" stroke-width="1.5" stroke-linecap="round" stroke-linejoin="round"/>
<path d="M12.0146 17.7701V12.3201" stroke="#171717" stroke-width="1.5" stroke-linecap="round" stroke-linejoin="round"/>
<path d="M10.7749 6.28998L7.57489 8.06998C6.85489 8.46998 6.25488 9.47998 6.25488 10.31V13.7C6.25488 14.53 6.84489 15.54 7.57489 15.94L10.7749 17.72C11.4549 18.1 12.5749 18.1 13.2649 17.72L16.4649 15.94C17.1849 15.54 17.7849 14.53 17.7849 13.7V10.3C17.7849 9.46998 17.1949 8.45998 16.4649 8.05998L13.2649 6.27998C12.5749 5.89998 11.4549 5.89998 10.7749 6.28998Z" stroke="#171717" stroke-width="1.5" stroke-linecap="round" stroke-linejoin="round"/>
</svg>
