<svg width="24" height="24" viewBox="0 0 24 24" fill="none" xmlns="http://www.w3.org/2000/svg">
<path d="M19.0041 22.75C17.6041 22.75 16.2941 22.14 15.3941 21.07C15.3841 21.05 15.3241 21 15.2741 20.92C15.1641 20.81 15.0341 20.61 14.9241 20.42C14.4841 19.71 14.2441 18.87 14.2441 17.99C14.2441 16.53 14.8941 15.18 16.0241 14.28C16.8641 13.61 17.9241 13.24 18.9941 13.24C20.1541 13.24 21.2241 13.64 22.0841 14.39C22.2041 14.47 22.3441 14.62 22.4741 14.76C23.2841 15.65 23.7341 16.79 23.7341 17.98C23.7341 18.85 23.4941 19.7 23.0441 20.43C22.8041 20.85 22.4741 21.23 22.0941 21.55C21.2841 22.33 20.1741 22.75 19.0041 22.75ZM19.0041 14.75C18.2641 14.75 17.5641 15 16.9741 15.47C16.2041 16.08 15.7541 17.01 15.7541 18C15.7541 18.59 15.9141 19.17 16.2241 19.67C16.3041 19.81 16.3841 19.92 16.4741 20.03C16.4941 20.05 16.5541 20.11 16.6041 20.19C17.1541 20.84 18.0541 21.26 19.0041 21.26C19.7941 21.26 20.5541 20.97 21.1341 20.45C21.3941 20.23 21.6141 19.97 21.7741 19.69C22.0941 19.18 22.2541 18.6 22.2541 18.01C22.2541 17.2 21.9441 16.41 21.3841 15.8C21.3141 15.72 21.2341 15.64 21.1541 15.58C20.5241 15.02 19.7941 14.75 19.0041 14.75Z" fill="#171717"/>
<path d="M20.4939 18.73H17.5039C17.0939 18.73 16.7539 18.39 16.7539 17.98C16.7539 17.57 17.0939 17.23 17.5039 17.23H20.4939C20.9039 17.23 21.2439 17.57 21.2439 17.98C21.2439 18.39 20.9139 18.73 20.4939 18.73Z" fill="#171717"/>
<path d="M19.0039 20.26C18.5939 20.26 18.2539 19.92 18.2539 19.51V16.52C18.2539 16.11 18.5939 15.77 19.0039 15.77C19.4139 15.77 19.7539 16.11 19.7539 16.52V19.51C19.7539 19.93 19.4139 20.26 19.0039 20.26Z" fill="#171717"/>
<path d="M12.0037 13.2999C11.8737 13.2999 11.7437 13.2699 11.6237 13.1999L2.79374 8.0899C2.43374 7.8799 2.31375 7.41987 2.52375 7.05987C2.73375 6.69987 3.19374 6.57985 3.54374 6.78985L11.9937 11.6799L20.3937 6.81988C20.7537 6.60988 21.2137 6.7399 21.4137 7.0899C21.6237 7.4499 21.4937 7.90987 21.1437 8.11987L12.3737 13.1999C12.2637 13.2599 12.1337 13.2999 12.0037 13.2999Z" fill="#171717"/>
<path d="M12.0039 22.3598C11.5939 22.3598 11.2539 22.0198 11.2539 21.6098V12.5398C11.2539 12.1298 11.5939 11.7898 12.0039 11.7898C12.4139 11.7898 12.7539 12.1298 12.7539 12.5398V21.6098C12.7539 22.0198 12.4139 22.3598 12.0039 22.3598Z" fill="#171717"/>
<path d="M12.0038 22.7499C11.1238 22.7499 10.2438 22.5599 9.56378 22.1699L4.22379 19.2099C2.77379 18.4099 1.63379 16.4799 1.63379 14.8199V9.1599C1.63379 7.4999 2.77379 5.57994 4.22379 4.76994L9.56378 1.80992C10.9238 1.03992 13.0638 1.03992 14.4338 1.80992L19.7738 4.76994C21.2238 5.56994 22.3638 7.4999 22.3638 9.1599V14.8199C22.3638 14.9199 22.3638 14.9999 22.3438 15.0999C22.2938 15.3599 22.1038 15.5799 21.8538 15.6599C21.6038 15.7499 21.3238 15.6899 21.1138 15.5199C19.9638 14.5199 18.1838 14.4799 16.9738 15.4499C16.2038 16.0599 15.7538 16.9899 15.7538 17.9799C15.7538 18.5699 15.9138 19.1499 16.2238 19.6499C16.3038 19.7899 16.3838 19.8999 16.4738 20.0099C16.6238 20.1799 16.6838 20.4099 16.6438 20.6299C16.6038 20.8499 16.4638 21.0399 16.2638 21.1499L14.4338 22.1599C13.7538 22.5599 12.8838 22.7499 12.0038 22.7499ZM12.0038 2.74992C11.3838 2.74992 10.7538 2.87993 10.3038 3.12993L4.96379 6.08995C3.99379 6.61995 3.15378 8.0599 3.15378 9.1599V14.8199C3.15378 15.9199 4.00379 17.3599 4.96379 17.8899L10.3038 20.8499C11.2138 21.3599 12.8038 21.3599 13.7138 20.8499L14.8338 20.2299C14.4638 19.5599 14.2638 18.7799 14.2638 17.9799C14.2638 16.5199 14.9138 15.1699 16.0438 14.2699C17.4038 13.1799 19.3538 12.9499 20.8738 13.5999V9.13994C20.8738 8.03994 20.0238 6.59993 19.0638 6.06993L13.7238 3.10991C13.2538 2.87991 12.6238 2.74992 12.0038 2.74992Z" fill="#171717"/>
</svg>
