<svg width="24" height="24" viewBox="0 0 24 24" fill="none" xmlns="http://www.w3.org/2000/svg">
<path opacity="0.4" d="M19.3558 5.65995L13.0658 2.27C12.4058 1.91 11.6058 1.91 10.9358 2.27L4.64578 5.65995C4.18578 5.90995 3.90576 6.39998 3.90576 6.93998C3.90576 7.47998 4.18578 7.96995 4.64578 8.21995L10.9358 11.61C11.2658 11.79 11.6358 11.88 11.9958 11.88C12.3658 11.88 12.7258 11.79 13.0558 11.61L19.3458 8.21995C19.8058 7.96995 20.0858 7.47998 20.0858 6.93998C20.0958 6.39998 19.8158 5.90995 19.3558 5.65995Z" fill="#171717"/>
<path opacity="0.4" d="M9.90607 12.79L4.05606 9.86001C3.60606 9.63001 3.08607 9.66001 2.65607 9.92001C2.22607 10.18 1.97607 10.64 1.97607 11.14V16.67C1.97607 17.63 2.50606 18.49 3.36606 18.92L9.21606 21.8401C9.41606 21.9401 9.63608 21.99 9.85608 21.99C10.1161 21.99 10.3761 21.92 10.6061 21.77C11.0361 21.51 11.2861 21.05 11.2861 20.55V15.02C11.2961 14.08 10.7661 13.22 9.90607 12.79Z" fill="#171717"/>
<path opacity="0.4" d="M22.0358 11.15V15.74C22.0258 15.73 22.0158 15.71 22.0058 15.7C22.0058 15.69 21.9958 15.68 21.9858 15.67C21.9458 15.61 21.8958 15.55 21.8458 15.5C21.8358 15.49 21.8258 15.47 21.8158 15.46C21.0058 14.56 19.8158 14 18.5058 14C17.2458 14 16.0958 14.52 15.2758 15.36C14.4858 16.17 14.0058 17.28 14.0058 18.5C14.0058 19.34 14.2458 20.14 14.6558 20.82C14.8258 21.11 15.0358 21.37 15.2658 21.61L14.7958 21.85C14.5958 21.95 14.3758 22 14.1558 22C13.8958 22 13.6358 21.93 13.3958 21.78C12.9758 21.52 12.7158 21.06 12.7158 20.56V15.04C12.7158 14.08 13.2458 13.22 14.1058 12.79L19.9558 9.87C20.4058 9.64 20.9258 9.66 21.3558 9.93C21.7758 10.19 22.0358 10.65 22.0358 11.15Z" fill="#171717"/>
<path d="M21.9859 15.65C21.1659 14.64 19.9159 14 18.5059 14C17.4459 14 16.4659 14.37 15.6959 14.99C14.6559 15.81 14.0059 17.08 14.0059 18.5C14.0059 19.91 14.6459 21.16 15.6559 21.98C16.4259 22.62 17.4259 23 18.5059 23C19.6459 23 20.6759 22.57 21.4759 21.88C22.4059 21.05 23.0059 19.85 23.0059 18.5C23.0059 17.42 22.6259 16.42 21.9859 15.65ZM19.5359 18.78C19.5359 19.04 19.3959 19.29 19.1759 19.42L17.7659 20.26C17.6459 20.33 17.5159 20.37 17.3759 20.37C17.1259 20.37 16.8759 20.24 16.7359 20.01C16.5259 19.65 16.6358 19.19 16.9958 18.98L18.0359 18.36V17.1C18.0359 16.69 18.3759 16.35 18.7859 16.35C19.1959 16.35 19.5359 16.69 19.5359 17.1V18.78Z" fill="#171717"/>
</svg>
