<svg width="24" height="24" viewBox="0 0 24 24" fill="none" xmlns="http://www.w3.org/2000/svg">
<path d="M12.0086 13.3C11.8786 13.3 11.7486 13.27 11.6286 13.2L2.79864 8.09002C2.43864 7.88002 2.31862 7.41999 2.52862 7.05999C2.73862 6.69999 3.18862 6.57997 3.55862 6.78997L12.0086 11.68L20.4086 6.82C20.7686 6.61 21.2286 6.74002 21.4386 7.09002C21.6486 7.45002 21.5186 7.90999 21.1686 8.11999L12.3986 13.2C12.2686 13.26 12.1386 13.3 12.0086 13.3Z" fill="#171717"/>
<path d="M12.0088 22.36C11.5988 22.36 11.2588 22.02 11.2588 21.61V12.54C11.2588 12.13 11.5988 11.79 12.0088 11.79C12.4188 11.79 12.7588 12.13 12.7588 12.54V21.61C12.7588 22.02 12.4188 22.36 12.0088 22.36Z" fill="#171717"/>
<path d="M12.0087 22.75C11.0987 22.75 10.2287 22.54 9.56866 22.17L4.22867 19.21C2.77867 18.41 1.63867 16.48 1.63867 14.82V9.15997C1.63867 7.49997 2.77867 5.58001 4.22867 4.77001L9.56866 1.80999C10.9287 1.04999 13.0687 1.04999 14.4387 1.80999L19.7787 4.77001C21.2287 5.57001 22.3687 7.49997 22.3687 9.15997V12.82C22.3687 13.23 22.0287 13.57 21.6187 13.57C21.2087 13.57 20.8687 13.23 20.8687 12.82V9.15997C20.8687 8.05997 20.0187 6.62002 19.0587 6.09002L13.7187 3.13C12.8087 2.62 11.2187 2.62 10.3087 3.13L4.96866 6.09002C3.99866 6.63002 3.15866 8.05997 3.15866 9.15997V14.82C3.15866 15.92 4.00866 17.36 4.96866 17.89L10.3087 20.85C11.1887 21.34 12.8487 21.34 13.7187 20.85C14.0787 20.65 14.5387 20.78 14.7387 21.14C14.9387 21.5 14.8087 21.96 14.4487 22.16C13.7887 22.54 12.9187 22.75 12.0087 22.75Z" fill="#171717"/>
<path d="M19.2088 22.15C17.0288 22.15 15.2588 20.38 15.2588 18.2C15.2588 16.02 17.0288 14.25 19.2088 14.25C21.3888 14.25 23.1588 16.02 23.1588 18.2C23.1588 20.38 21.3888 22.15 19.2088 22.15ZM19.2088 15.75C17.8588 15.75 16.7588 16.85 16.7588 18.2C16.7588 19.55 17.8588 20.65 19.2088 20.65C20.5588 20.65 21.6588 19.55 21.6588 18.2C21.6588 16.85 20.5588 15.75 19.2088 15.75Z" fill="#171717"/>
<path d="M23.0087 22.75C22.8187 22.75 22.6287 22.68 22.4787 22.53L21.4787 21.53C21.1887 21.24 21.1887 20.7599 21.4787 20.4699C21.7687 20.1799 22.2487 20.1799 22.5387 20.4699L23.5387 21.4699C23.8287 21.7599 23.8287 22.24 23.5387 22.53C23.3887 22.68 23.1987 22.75 23.0087 22.75Z" fill="#171717"/>
</svg>
