<svg width="24" height="24" viewBox="0 0 24 24" fill="none" xmlns="http://www.w3.org/2000/svg">
<path d="M21.6838 15.32C20.7938 14.43 19.6138 13.98 18.4438 14C17.3138 14.01 16.1838 14.46 15.3238 15.32C14.7238 15.91 14.3338 16.65 14.1438 17.42C14.0338 17.84 13.9938 18.27 14.0238 18.7V18.75C14.0238 18.82 14.0338 18.8801 14.0438 18.9601C14.0438 18.9601 14.0438 18.96 14.0538 18.97V19C14.1438 19.98 14.5638 20.93 15.3238 21.68C16.4838 22.84 18.1138 23.23 19.5838 22.86C20.0238 22.75 20.4538 22.57 20.8538 22.33C21.1538 22.16 21.4338 21.94 21.6838 21.68C22.4338 20.93 22.8638 19.98 22.9538 18.99C22.9638 18.99 22.9638 18.9701 22.9638 18.9601C22.9838 18.89 22.9838 18.81 22.9838 18.74C22.9838 18.73 22.9938 18.71 22.9938 18.69C23.0538 17.48 22.6138 16.24 21.6838 15.32ZM20.2338 20.2101C19.9438 20.5001 19.4738 20.5001 19.1738 20.2101L18.5138 19.55L17.8338 20.23C17.5338 20.53 17.0638 20.53 16.7738 20.23C16.4738 19.94 16.4738 19.47 16.7738 19.17L17.4538 18.49L16.7938 17.83C16.5038 17.53 16.5038 17.06 16.7938 16.77C17.0938 16.47 17.5638 16.47 17.8638 16.77L18.5138 17.43L19.1438 16.79C19.4438 16.5 19.9138 16.5 20.2138 16.79C20.5038 17.09 20.5038 17.56 20.2138 17.86L19.5738 18.49L20.2338 19.14C20.5338 19.44 20.5338 19.91 20.2338 20.2101Z" fill="#171717"/>
<path opacity="0.4" d="M19.3538 5.65995L13.0638 2.27C12.4038 1.91 11.6038 1.91 10.9338 2.27L4.64383 5.65995C4.18383 5.90995 3.90381 6.39998 3.90381 6.93998C3.90381 7.47998 4.18383 7.96995 4.64383 8.21995L10.9338 11.61C11.2638 11.79 11.6338 11.88 11.9938 11.88C12.3538 11.88 12.7238 11.79 13.0538 11.61L19.3438 8.21995C19.8038 7.96995 20.0838 7.47998 20.0838 6.93998C20.1038 6.39998 19.8138 5.90995 19.3538 5.65995Z" fill="#171717"/>
<path opacity="0.4" d="M9.90411 12.79L4.05411 9.86001C3.60411 9.63001 3.08411 9.66001 2.65411 9.92001C2.22411 10.18 1.97412 10.64 1.97412 11.14V16.67C1.97412 17.63 2.50411 18.49 3.36411 18.92L9.21411 21.8401C9.41411 21.9401 9.63413 21.99 9.85413 21.99C10.1141 21.99 10.3741 21.92 10.6041 21.77C11.0341 21.51 11.2841 21.05 11.2841 20.55V15.02C11.2941 14.08 10.7641 13.22 9.90411 12.79Z" fill="#171717"/>
<path opacity="0.4" d="M22.0339 11.15V15.74C22.0239 15.73 22.0139 15.71 22.0039 15.7C22.0039 15.69 21.9939 15.68 21.9839 15.67C21.9439 15.61 21.8939 15.55 21.8439 15.5C21.8339 15.49 21.8239 15.47 21.8139 15.46C21.0039 14.56 19.8139 14 18.5039 14C17.2439 14 16.0939 14.52 15.2739 15.36C14.4839 16.17 14.0039 17.28 14.0039 18.5C14.0039 19.34 14.2439 20.14 14.6539 20.82C14.8239 21.11 15.0339 21.37 15.2639 21.61L14.7939 21.85C14.5939 21.95 14.3739 22 14.1539 22C13.8939 22 13.6339 21.93 13.3939 21.78C12.9739 21.52 12.7139 21.06 12.7139 20.56V15.04C12.7139 14.08 13.2439 13.22 14.1039 12.79L19.9539 9.87C20.4039 9.64 20.9239 9.66 21.3539 9.93C21.7739 10.19 22.0339 10.65 22.0339 11.15Z" fill="#171717"/>
</svg>
