<svg width="24" height="24" viewBox="0 0 24 24" fill="none" xmlns="http://www.w3.org/2000/svg">
<path d="M12.0047 13.2999C11.8747 13.2999 11.7447 13.2699 11.6247 13.1999L2.79473 8.0899C2.43473 7.8799 2.31471 7.41987 2.52471 7.05987C2.73471 6.69987 3.19473 6.57985 3.54473 6.78985L11.9947 11.6799L20.3947 6.81988C20.7547 6.60988 21.2147 6.7399 21.4147 7.0899C21.6247 7.4499 21.4947 7.90987 21.1447 8.11987L12.3747 13.1999C12.2647 13.2599 12.1347 13.2999 12.0047 13.2999Z" fill="#171717"/>
<path d="M12.0049 22.3598C11.5949 22.3598 11.2549 22.0198 11.2549 21.6098V12.5398C11.2549 12.1298 11.5949 11.7898 12.0049 11.7898C12.4149 11.7898 12.7549 12.1298 12.7549 12.5398V21.6098C12.7549 22.0198 12.4149 22.3598 12.0049 22.3598Z" fill="#171717"/>
<path d="M12.0048 22.7499C11.1248 22.7499 10.2448 22.5599 9.56476 22.1699L4.22476 19.2099C2.77476 18.4099 1.63477 16.4799 1.63477 14.8199V9.1599C1.63477 7.4999 2.77476 5.57994 4.22476 4.76994L9.56476 1.80992C10.9248 1.03992 13.0648 1.03992 14.4348 1.80992L19.7747 4.76994C21.2248 5.56994 22.3647 7.4999 22.3647 9.1599V14.8199C22.3647 14.9199 22.3648 14.9999 22.3448 15.0999C22.2948 15.3599 22.1048 15.5799 21.8548 15.6599C21.6048 15.7499 21.3247 15.6899 21.1147 15.5199C19.9647 14.5199 18.1848 14.4799 16.9748 15.4499C16.2048 16.0599 15.7548 16.9899 15.7548 17.9799C15.7548 18.5699 15.9148 19.1499 16.2248 19.6499C16.3048 19.7899 16.3848 19.8999 16.4748 20.0099C16.6248 20.1799 16.6848 20.4099 16.6448 20.6299C16.6048 20.8499 16.4648 21.0399 16.2648 21.1499L14.4348 22.1599C13.7548 22.5599 12.8848 22.7499 12.0048 22.7499ZM12.0048 2.74992C11.3848 2.74992 10.7547 2.87993 10.3047 3.12993L4.96475 6.08995C3.99475 6.61995 3.15475 8.0599 3.15475 9.1599V14.8199C3.15475 15.9199 4.00475 17.3599 4.96475 17.8899L10.3047 20.8499C11.2147 21.3599 12.8048 21.3599 13.7148 20.8499L14.8347 20.2299C14.4647 19.5599 14.2648 18.7799 14.2648 17.9799C14.2648 16.5199 14.9148 15.1699 16.0448 14.2699C17.4048 13.1799 19.3548 12.9499 20.8748 13.5999V9.13994C20.8748 8.03994 20.0248 6.59993 19.0648 6.06993L13.7248 3.10991C13.2548 2.87991 12.6248 2.74992 12.0048 2.74992Z" fill="#171717"/>
<path d="M19.0049 22.75C17.3449 22.75 15.7849 21.87 14.9449 20.44C14.4949 19.72 14.2549 18.87 14.2549 18C14.2549 16.54 14.9049 15.19 16.0349 14.29C16.8749 13.62 17.9349 13.25 19.0049 13.25C21.6249 13.25 23.7549 15.38 23.7549 18C23.7549 18.87 23.5149 19.72 23.0649 20.45C22.8249 20.87 22.4949 21.25 22.1149 21.57C21.2849 22.33 20.1749 22.75 19.0049 22.75ZM19.0049 14.75C18.2649 14.75 17.5649 15 16.9749 15.47C16.2049 16.08 15.7549 17.01 15.7549 18C15.7549 18.59 15.9149 19.17 16.2249 19.67C16.8149 20.67 17.8549 21.25 19.0049 21.25C19.7949 21.25 20.5549 20.96 21.1349 20.44C21.3949 20.22 21.6149 19.96 21.7749 19.68C22.0949 19.17 22.2549 18.59 22.2549 18C22.2549 16.21 20.7949 14.75 19.0049 14.75Z" fill="#171717"/>
<path d="M20.0748 19.7899C19.8848 19.7899 19.6948 19.72 19.5448 19.57L17.4348 17.46C17.1448 17.17 17.1448 16.69 17.4348 16.4C17.7248 16.11 18.2048 16.11 18.4948 16.4L20.6048 18.51C20.8948 18.8 20.8948 19.28 20.6048 19.57C20.4548 19.72 20.2648 19.7899 20.0748 19.7899Z" fill="#171717"/>
<path d="M17.935 19.8199C17.745 19.8199 17.555 19.7499 17.405 19.5999C17.115 19.3099 17.115 18.8299 17.405 18.5399L19.515 16.4299C19.805 16.1399 20.285 16.1399 20.575 16.4299C20.865 16.7199 20.865 17.1999 20.575 17.4899L18.465 19.5999C18.315 19.7499 18.125 19.8199 17.935 19.8199Z" fill="#171717"/>
</svg>
