<svg width="24" height="24" viewBox="0 0 24 24" fill="none" xmlns="http://www.w3.org/2000/svg">
<path d="M22.0029 15.7C22.0029 15.69 21.9929 15.68 21.9829 15.67C21.9429 15.61 21.8929 15.55 21.8429 15.5C21.8329 15.49 21.8229 15.47 21.8129 15.46C21.0029 14.56 19.8129 14 18.5029 14C17.2429 14 16.0929 14.52 15.2729 15.36C14.4829 16.17 14.0029 17.28 14.0029 18.5C14.0029 19.34 14.2429 20.14 14.6529 20.82C14.8729 21.19 15.1529 21.53 15.4729 21.81C15.4929 21.82 15.5029 21.83 15.5129 21.84C15.5629 21.89 15.6129 21.93 15.6729 21.98C15.6729 21.98 15.6729 21.98 15.6829 21.98C15.6929 21.99 15.7029 22 15.7129 22C16.4629 22.63 17.4329 23 18.5029 23C20.1429 23 21.5729 22.12 22.3529 20.82C22.5829 20.43 22.7629 20 22.8729 19.55C22.9629 19.21 23.0029 18.86 23.0029 18.5C23.0029 17.44 22.6329 16.46 22.0029 15.7ZM20.1829 19.23H19.2529V20.2C19.2529 20.61 18.9129 20.95 18.5029 20.95C18.0929 20.95 17.7529 20.61 17.7529 20.2V19.23H16.8229C16.4129 19.23 16.0729 18.89 16.0729 18.48C16.0729 18.07 16.4129 17.73 16.8229 17.73H17.7529V16.84C17.7529 16.43 18.0929 16.09 18.5029 16.09C18.9129 16.09 19.2529 16.43 19.2529 16.84V17.73H20.1829C20.5929 17.73 20.9329 18.07 20.9329 18.48C20.9329 18.89 20.6029 19.23 20.1829 19.23Z" fill="#171717"/>
<path opacity="0.4" d="M19.3528 5.65995L13.0628 2.27C12.4028 1.91 11.6028 1.91 10.9328 2.27L4.64284 5.65995C4.18284 5.90995 3.90283 6.39998 3.90283 6.93998C3.90283 7.47998 4.18284 7.96995 4.64284 8.21995L10.9328 11.61C11.2628 11.79 11.6328 11.88 11.9928 11.88C12.3528 11.88 12.7228 11.79 13.0528 11.61L19.3428 8.21995C19.8028 7.96995 20.0828 7.47998 20.0828 6.93998C20.1028 6.39998 19.8128 5.90995 19.3528 5.65995Z" fill="#171717"/>
<path opacity="0.4" d="M9.90314 12.79L4.05315 9.86001C3.60315 9.63001 3.08314 9.66001 2.65314 9.92001C2.22314 10.18 1.97314 10.64 1.97314 11.14V16.67C1.97314 17.63 2.50314 18.49 3.36314 18.92L9.21315 21.8401C9.41315 21.9401 9.63315 21.99 9.85315 21.99C10.1131 21.99 10.3731 21.92 10.6031 21.77C11.0331 21.51 11.2831 21.05 11.2831 20.55V15.02C11.2931 14.08 10.7631 13.22 9.90314 12.79Z" fill="#171717"/>
<path opacity="0.4" d="M22.0329 11.15V15.74C22.0229 15.73 22.0129 15.71 22.0029 15.7C22.0029 15.69 21.9929 15.68 21.9829 15.67C21.9429 15.61 21.8929 15.55 21.8429 15.5C21.8329 15.49 21.8229 15.47 21.8129 15.46C21.0029 14.56 19.8129 14 18.5029 14C17.2429 14 16.0929 14.52 15.2729 15.36C14.4829 16.17 14.0029 17.28 14.0029 18.5C14.0029 19.34 14.2429 20.14 14.6529 20.82C14.8229 21.11 15.0329 21.37 15.2629 21.61L14.7929 21.85C14.5929 21.95 14.3729 22 14.1529 22C13.8929 22 13.6329 21.93 13.3929 21.78C12.9729 21.52 12.7129 21.06 12.7129 20.56V15.04C12.7129 14.08 13.2429 13.22 14.1029 12.79L19.9529 9.87C20.4029 9.64 20.9229 9.66 21.3529 9.93C21.7729 10.19 22.0329 10.65 22.0329 11.15Z" fill="#171717"/>
</svg>
