<svg width="24" height="24" viewBox="0 0 24 24" fill="none" xmlns="http://www.w3.org/2000/svg">
<path d="M12.0067 13.3C11.8767 13.3 11.7467 13.27 11.6267 13.2L2.79669 8.09002C2.43669 7.88002 2.31667 7.41999 2.52667 7.05999C2.73667 6.69999 3.18667 6.57997 3.55667 6.78997L12.0067 11.68L20.4067 6.82C20.7667 6.61 21.2267 6.74002 21.4367 7.09002C21.6467 7.45002 21.5167 7.90999 21.1667 8.11999L12.3967 13.2C12.2667 13.26 12.1367 13.3 12.0067 13.3Z" fill="#171717"/>
<path d="M12.0068 22.36C11.5968 22.36 11.2568 22.02 11.2568 21.61V12.54C11.2568 12.13 11.5968 11.79 12.0068 11.79C12.4168 11.79 12.7568 12.13 12.7568 12.54V21.61C12.7568 22.02 12.4168 22.36 12.0068 22.36Z" fill="#171717"/>
<path d="M12.0067 22.75C11.1267 22.75 10.2467 22.56 9.56671 22.17L4.22672 19.21C2.77672 18.41 1.63672 16.48 1.63672 14.82V9.15997C1.63672 7.49997 2.77672 5.58001 4.22672 4.77001L9.56671 1.80999C10.9267 1.04999 13.0667 1.04999 14.4367 1.80999L19.7767 4.77001C21.2267 5.57001 22.3667 7.49997 22.3667 9.15997V14.82C22.3667 14.89 22.3667 14.99 22.3367 15.12C22.2767 15.38 22.0867 15.59 21.8367 15.67C21.5867 15.75 21.3067 15.7 21.1067 15.52C19.9667 14.52 18.1867 14.48 16.9667 15.45C16.1967 16.06 15.7467 16.99 15.7467 17.98C15.7467 18.57 15.9067 19.15 16.2167 19.65C16.2967 19.79 16.3767 19.9 16.4667 20C16.6167 20.17 16.6767 20.4 16.6367 20.62C16.5967 20.84 16.4567 21.04 16.2567 21.14L14.4267 22.15C13.7567 22.56 12.8867 22.75 12.0067 22.75ZM12.0067 2.74999C11.3867 2.74999 10.7567 2.88 10.3067 3.13L4.96671 6.09002C3.99671 6.63002 3.15671 8.05997 3.15671 9.15997V14.82C3.15671 15.92 4.00671 17.36 4.96671 17.89L10.3067 20.85C11.2167 21.36 12.8067 21.36 13.7167 20.85L14.8367 20.23C14.4667 19.56 14.2667 18.78 14.2667 17.98C14.2667 16.52 14.9167 15.17 16.0467 14.27C17.4167 13.18 19.3567 12.95 20.8767 13.61V9.15002C20.8767 8.05002 20.0267 6.61001 19.0667 6.08001L13.7267 3.11999C13.2567 2.87999 12.6267 2.74999 12.0067 2.74999Z" fill="#171717"/>
<path d="M19.0068 22.75C16.3868 22.75 14.2568 20.62 14.2568 18C14.2568 16.54 14.9068 15.19 16.0368 14.29C16.8768 13.62 17.9368 13.25 19.0068 13.25C21.6268 13.25 23.7568 15.38 23.7568 18C23.7568 19.36 23.1668 20.66 22.1368 21.56C21.2668 22.33 20.1568 22.75 19.0068 22.75ZM19.0068 14.75C18.2668 14.75 17.5668 15 16.9768 15.47C16.2068 16.08 15.7568 17.01 15.7568 18C15.7568 19.79 17.2168 21.25 19.0068 21.25C19.7868 21.25 20.5468 20.96 21.1568 20.44C21.8568 19.82 22.2568 18.94 22.2568 18C22.2568 16.21 20.7968 14.75 19.0068 14.75Z" fill="#171717"/>
<path d="M18.0067 19.75C17.7567 19.75 17.5067 19.62 17.3667 19.39C17.1567 19.03 17.2667 18.57 17.6267 18.36L18.5167 17.83V16.75C18.5167 16.34 18.8567 16 19.2667 16C19.6767 16 20.0167 16.34 20.0167 16.75V18.25C20.0167 18.51 19.8767 18.76 19.6567 18.89L18.4067 19.64C18.2667 19.72 18.1367 19.75 18.0067 19.75Z" fill="#171717"/>
</svg>
