<svg width="24" height="24" viewBox="0 0 24 24" fill="none" xmlns="http://www.w3.org/2000/svg">
<path d="M19.0059 22.7499C17.3859 22.7499 15.8559 21.9099 14.9959 20.5299C14.5359 19.8199 14.2759 18.9699 14.2559 18.0999C14.2259 16.6399 14.8459 15.2799 15.9559 14.3599C16.7859 13.6699 17.8259 13.2799 18.8959 13.2499C20.1959 13.2399 21.3659 13.6899 22.2859 14.5699C23.2059 15.4499 23.7259 16.6299 23.7459 17.8999C23.7659 18.7699 23.5459 19.6199 23.1059 20.3699C22.8659 20.7899 22.5559 21.1799 22.1859 21.5099C21.3659 22.2799 20.2659 22.7299 19.0959 22.7499C19.0759 22.7499 19.0459 22.7499 19.0059 22.7499ZM19.0059 14.7499C18.9859 14.7499 18.9559 14.7499 18.9359 14.7499C18.1959 14.7699 17.4959 15.0299 16.9159 15.5099C16.1559 16.1399 15.7359 17.0699 15.7559 18.0699C15.7659 18.6599 15.9459 19.2399 16.2559 19.7299C16.8659 20.7099 17.9259 21.3099 19.0659 21.2499C19.8559 21.2299 20.6059 20.9299 21.1759 20.3999C21.4359 20.1699 21.6459 19.9099 21.8059 19.6299C22.1059 19.1099 22.2559 18.5299 22.2459 17.9399C22.2259 17.0699 21.8759 16.2599 21.2459 15.6599C20.6459 15.0699 19.8459 14.7499 19.0059 14.7499Z" fill="#171717"/>
<path d="M18.4557 19.7499C18.2657 19.7499 18.0857 19.6799 17.9357 19.5399L16.9257 18.5799C16.6257 18.2899 16.6157 17.8199 16.9057 17.5199C17.1957 17.2199 17.6657 17.2099 17.9657 17.4999L18.4557 17.9699L20.0257 16.4499C20.3257 16.1599 20.7957 16.1699 21.0857 16.4699C21.3757 16.7699 21.3657 17.24 21.0657 17.53L18.9757 19.5499C18.8257 19.6799 18.6357 19.7499 18.4557 19.7499Z" fill="#171717"/>
<path d="M12.0057 13.2999C11.8757 13.2999 11.7457 13.2699 11.6257 13.1999L2.79571 8.0899C2.43571 7.8799 2.31569 7.41987 2.52569 7.05987C2.73569 6.69987 3.19571 6.57985 3.54571 6.78985L11.9957 11.6799L20.3957 6.81988C20.7557 6.60988 21.2157 6.7399 21.4157 7.0899C21.6257 7.4499 21.4957 7.90987 21.1457 8.11987L12.3757 13.1999C12.2657 13.2599 12.1357 13.2999 12.0057 13.2999Z" fill="#171717"/>
<path d="M12.0059 22.3598C11.5959 22.3598 11.2559 22.0198 11.2559 21.6098V12.5398C11.2559 12.1298 11.5959 11.7898 12.0059 11.7898C12.4159 11.7898 12.7559 12.1298 12.7559 12.5398V21.6098C12.7559 22.0198 12.4159 22.3598 12.0059 22.3598Z" fill="#171717"/>
<path d="M12.0057 22.7499C11.1257 22.7499 10.2457 22.5599 9.56573 22.1699L4.22574 19.2099C2.77574 18.4099 1.63574 16.4799 1.63574 14.8199V9.1599C1.63574 7.4999 2.77574 5.57994 4.22574 4.76994L9.56573 1.80992C10.9257 1.03992 13.0657 1.03992 14.4357 1.80992L19.7757 4.76994C21.2257 5.56994 22.3657 7.4999 22.3657 9.1599V14.8199C22.3657 14.9199 22.3657 14.9999 22.3457 15.0999C22.2957 15.3599 22.1057 15.5799 21.8557 15.6599C21.6057 15.7499 21.3257 15.6899 21.1157 15.5199C19.9657 14.5199 18.1857 14.4799 16.9757 15.4499C16.2057 16.0599 15.7557 16.9899 15.7557 17.9799C15.7557 18.5699 15.9157 19.1499 16.2257 19.6499C16.3057 19.7899 16.3857 19.8999 16.4757 20.0099C16.6257 20.1799 16.6858 20.4099 16.6458 20.6299C16.6058 20.8499 16.4657 21.0399 16.2657 21.1499L14.4357 22.1599C13.7557 22.5599 12.8857 22.7499 12.0057 22.7499ZM12.0057 2.74992C11.3857 2.74992 10.7557 2.87993 10.3057 3.12993L4.96573 6.08995C3.99573 6.61995 3.15573 8.0599 3.15573 9.1599V14.8199C3.15573 15.9199 4.00573 17.3599 4.96573 17.8899L10.3057 20.8499C11.2157 21.3599 12.8057 21.3599 13.7157 20.8499L14.8357 20.2299C14.4657 19.5599 14.2657 18.7799 14.2657 17.9799C14.2657 16.5199 14.9157 15.1699 16.0457 14.2699C17.4057 13.1799 19.3457 12.9499 20.8757 13.5999V9.13994C20.8757 8.03994 20.0257 6.59993 19.0657 6.06993L13.7257 3.10991C13.2557 2.87991 12.6257 2.74992 12.0057 2.74992Z" fill="#171717"/>
</svg>
