<svg width="24" height="24" viewBox="0 0 24 24" fill="none" xmlns="http://www.w3.org/2000/svg">
<path opacity="0.4" d="M19.3548 5.65995L13.0648 2.27C12.4048 1.91 11.6048 1.91 10.9348 2.27L4.64481 5.65995C4.18481 5.90995 3.90479 6.39998 3.90479 6.93998C3.90479 7.47998 4.18481 7.96995 4.64481 8.21995L10.9348 11.61C11.2648 11.79 11.6348 11.88 11.9948 11.88C12.3548 11.88 12.7248 11.79 13.0548 11.61L19.3448 8.21995C19.8048 7.96995 20.0848 7.47998 20.0848 6.93998C20.1048 6.39998 19.8148 5.90995 19.3548 5.65995Z" fill="#171717"/>
<path opacity="0.4" d="M9.90509 12.79L4.05508 9.86001C3.60508 9.63001 3.08509 9.66001 2.65509 9.92001C2.22509 10.18 1.9751 10.64 1.9751 11.14V16.67C1.9751 17.63 2.50508 18.49 3.36508 18.92L9.21509 21.8401C9.41509 21.9401 9.6351 21.99 9.8551 21.99C10.1151 21.99 10.3751 21.92 10.6051 21.77C11.0351 21.51 11.2851 21.05 11.2851 20.55V15.02C11.2951 14.08 10.7651 13.22 9.90509 12.79Z" fill="#171717"/>
<path opacity="0.4" d="M22.0349 11.15V15.74C22.0249 15.73 22.0149 15.71 22.0049 15.7C22.0049 15.69 21.9949 15.68 21.9849 15.67C21.9449 15.61 21.8948 15.55 21.8448 15.5C21.8348 15.49 21.8249 15.47 21.8148 15.46C21.0048 14.56 19.8149 14 18.5049 14C17.2449 14 16.0948 14.52 15.2748 15.36C14.4848 16.17 14.0049 17.28 14.0049 18.5C14.0049 19.34 14.2448 20.14 14.6548 20.82C14.8248 21.11 15.0349 21.37 15.2649 21.61L14.7949 21.85C14.5949 21.95 14.3748 22 14.1548 22C13.8948 22 13.6349 21.93 13.3949 21.78C12.9749 21.52 12.7148 21.06 12.7148 20.56V15.04C12.7148 14.08 13.2449 13.22 14.1049 12.79L19.9549 9.87C20.4049 9.64 20.9249 9.66 21.3549 9.93C21.7749 10.19 22.0349 10.65 22.0349 11.15Z" fill="#171717"/>
<path d="M21.9849 15.67C21.1649 14.66 19.9149 14.02 18.5049 14.02C17.4449 14.02 16.4649 14.39 15.6949 15.01C14.6549 15.83 14.0049 17.1 14.0049 18.52C14.0049 19.36 14.2449 20.16 14.6549 20.84C14.9249 21.29 15.2649 21.68 15.6649 22H15.6749C16.4449 22.64 17.4349 23.02 18.5049 23.02C19.6449 23.02 20.6749 22.6 21.4649 21.9C21.8149 21.6 22.1149 21.24 22.3549 20.84C22.7649 20.16 23.0049 19.36 23.0049 18.52C23.0049 17.44 22.6249 16.44 21.9849 15.67ZM20.7649 17.96L18.3649 20.18C18.2249 20.31 18.0349 20.38 17.8549 20.38C17.6649 20.38 17.4749 20.31 17.3249 20.16L16.2149 19.05C15.9249 18.76 15.9249 18.28 16.2149 17.99C16.5049 17.7 16.9849 17.7 17.2749 17.99L17.8749 18.59L19.7449 16.86C20.0449 16.58 20.5249 16.6 20.8049 16.9C21.0949 17.21 21.0749 17.68 20.7649 17.96Z" fill="#171717"/>
</svg>
