<svg width="24" height="24" viewBox="0 0 24 24" fill="none" xmlns="http://www.w3.org/2000/svg">
<path opacity="0.4" d="M20.1077 6.93998C20.1077 7.47998 19.8177 7.96995 19.3577 8.21995L17.6177 9.15995L16.1377 9.94999L13.0677 11.61C12.7377 11.79 12.3777 11.88 12.0077 11.88C11.6377 11.88 11.2777 11.79 10.9477 11.61L4.65771 8.21995C4.19771 7.96995 3.90771 7.47998 3.90771 6.93998C3.90771 6.39998 4.19771 5.90995 4.65771 5.65995L6.62772 4.59996L8.19772 3.74998L10.9477 2.27C11.6077 1.91 12.4077 1.91 13.0677 2.27L19.3577 5.65995C19.8177 5.90995 20.1077 6.39998 20.1077 6.93998Z" fill="#171717"/>
<path opacity="0.4" d="M9.90802 12.79L4.05801 9.86001C3.60801 9.63001 3.08802 9.66001 2.65802 9.92001C2.22802 10.18 1.97803 10.64 1.97803 11.14V16.67C1.97803 17.63 2.50801 18.49 3.36801 18.92L9.21802 21.8401C9.41802 21.9401 9.63803 21.99 9.85803 21.99C10.118 21.99 10.378 21.92 10.608 21.77C11.038 21.51 11.288 21.05 11.288 20.55V15.02C11.298 14.08 10.768 13.22 9.90802 12.79Z" fill="#171717"/>
<path opacity="0.4" d="M22.0378 11.15V16.68C22.0378 17.63 21.5078 18.49 20.6478 18.92L14.7978 21.85C14.5978 21.95 14.3778 22 14.1578 22C13.8978 22 13.6378 21.93 13.3978 21.78C12.9778 21.52 12.7178 21.06 12.7178 20.56V15.04C12.7178 14.08 13.2478 13.22 14.1078 12.79L16.2578 11.72L17.7578 10.97L19.9578 9.87C20.4078 9.64 20.9278 9.66 21.3578 9.93C21.7778 10.19 22.0378 10.65 22.0378 11.15Z" fill="#171717"/>
<path d="M22.6079 21.64L21.8479 20.88C22.2479 20.28 22.4779 19.56 22.4779 18.79C22.4779 16.68 20.7679 14.97 18.6579 14.97C16.5479 14.97 14.8379 16.68 14.8379 18.79C14.8379 20.9 16.5479 22.61 18.6579 22.61C19.4279 22.61 20.1479 22.38 20.7479 21.98L21.5079 22.74C21.6579 22.89 21.8579 22.97 22.0579 22.97C22.2579 22.97 22.4579 22.89 22.6079 22.74C22.9079 22.43 22.9079 21.94 22.6079 21.64Z" fill="#171717"/>
</svg>
