<svg width="24" height="24" viewBox="0 0 24 24" fill="none" xmlns="http://www.w3.org/2000/svg">
<path opacity="0.4" d="M20.1068 6.93998C20.1068 7.47998 19.8168 7.96995 19.3568 8.21995L17.6167 9.15995L16.1367 9.94999L13.0667 11.61C12.7367 11.79 12.3767 11.88 12.0067 11.88C11.6367 11.88 11.2767 11.79 10.9467 11.61L4.65674 8.21995C4.19674 7.96995 3.90674 7.47998 3.90674 6.93998C3.90674 6.39998 4.19674 5.90995 4.65674 5.65995L6.62674 4.59996L8.19675 3.74998L10.9467 2.27C11.6067 1.91 12.4067 1.91 13.0667 2.27L19.3568 5.65995C19.8168 5.90995 20.1068 6.39998 20.1068 6.93998Z" fill="#171717"/>
<path opacity="0.4" d="M9.90704 12.79L4.05704 9.86001C3.60704 9.63001 3.08704 9.66001 2.65704 9.92001C2.22704 10.18 1.97705 10.64 1.97705 11.14V16.67C1.97705 17.63 2.50703 18.49 3.36703 18.92L9.21704 21.8401C9.41704 21.9401 9.63706 21.99 9.85706 21.99C10.1171 21.99 10.3771 21.92 10.6071 21.77C11.0371 21.51 11.287 21.05 11.287 20.55V15.02C11.297 14.08 10.767 13.22 9.90704 12.79Z" fill="#171717"/>
<path opacity="0.4" d="M22.0368 11.15V16.68C22.0368 17.63 21.5068 18.49 20.6468 18.92L14.7968 21.85C14.5968 21.95 14.3768 22 14.1568 22C13.8968 22 13.6368 21.93 13.3968 21.78C12.9768 21.52 12.7168 21.06 12.7168 20.56V15.04C12.7168 14.08 13.2468 13.22 14.1068 12.79L16.2568 11.72L17.7568 10.97L19.9568 9.87C20.4068 9.64 20.9268 9.66 21.3568 9.93C21.7768 10.19 22.0368 10.65 22.0368 11.15Z" fill="#171717"/>
<path d="M17.6169 9.15997L16.137 9.95001L6.62695 4.59998L8.19696 3.75L17.377 8.92999C17.477 8.98999 17.5569 9.06997 17.6169 9.15997Z" fill="#171717"/>
<path d="M17.7568 10.97V13.24C17.7568 13.65 17.4168 13.99 17.0068 13.99C16.5968 13.99 16.2568 13.65 16.2568 13.24V11.72L17.7568 10.97Z" fill="#171717"/>
</svg>
