<svg width="24" height="24" viewBox="0 0 24 24" fill="none" xmlns="http://www.w3.org/2000/svg">
<path d="M12.0077 13.3C11.8777 13.3 11.7477 13.27 11.6277 13.2L2.79766 8.09002C2.43766 7.88002 2.31764 7.41999 2.52764 7.05999C2.73764 6.69999 3.18764 6.57997 3.55764 6.78997L12.0077 11.68L20.4076 6.82C20.7677 6.61 21.2276 6.74002 21.4376 7.09002C21.6476 7.45002 21.5177 7.90999 21.1677 8.11999L12.3977 13.2C12.2677 13.26 12.1377 13.3 12.0077 13.3Z" fill="#171717"/>
<path d="M12.0078 22.36C11.5978 22.36 11.2578 22.02 11.2578 21.61V12.54C11.2578 12.13 11.5978 11.79 12.0078 11.79C12.4178 11.79 12.7578 12.13 12.7578 12.54V21.61C12.7578 22.02 12.4178 22.36 12.0078 22.36Z" fill="#171717"/>
<path d="M12.0079 22.75C11.1279 22.75 10.2579 22.56 9.56793 22.18L4.22794 19.21C2.77794 18.41 1.64795 16.48 1.64795 14.82V9.16998C1.64795 7.50998 2.77794 5.59002 4.22794 4.78002L9.56793 1.82C10.9379 1.06 13.0779 1.06 14.4479 1.82L19.7879 4.78997C21.2379 5.58997 22.3679 7.51999 22.3679 9.17999V14.83C22.3679 16.49 21.2379 18.41 19.7879 19.22L14.4479 22.18C13.7579 22.56 12.8879 22.75 12.0079 22.75ZM12.0079 2.74999C11.3779 2.74999 10.7579 2.88 10.2979 3.13L4.95795 6.09997C3.99795 6.63997 3.14795 8.06999 3.14795 9.17999V14.83C3.14795 15.93 3.99795 17.37 4.95795 17.91L10.2979 20.88C11.2079 21.39 12.8079 21.39 13.7179 20.88L19.0579 17.91C20.0179 17.37 20.8679 15.94 20.8679 14.83V9.17999C20.8679 8.07999 20.0179 6.63997 19.0579 6.09997L13.7179 3.13C13.2579 2.88 12.6379 2.74999 12.0079 2.74999Z" fill="#171717"/>
<path d="M17.008 13.99C16.598 13.99 16.258 13.65 16.258 13.24V10.0201L7.138 4.76007C6.778 4.55007 6.65798 4.09005 6.86798 3.74005C7.07798 3.38005 7.528 3.26003 7.888 3.47003L17.378 8.95007C17.608 9.08007 17.758 9.33003 17.758 9.60003V13.2601C17.758 13.6501 17.418 13.99 17.008 13.99Z" fill="#171717"/>
</svg>
