<svg width="24" height="24" viewBox="0 0 24 24" fill="none" xmlns="http://www.w3.org/2000/svg">
<path d="M3.17773 7.44006L12.0077 12.55L20.7777 7.47003" stroke="#171717" stroke-width="1.5" stroke-linecap="round" stroke-linejoin="round"/>
<path d="M12.0078 21.61V12.54" stroke="#171717" stroke-width="1.5" stroke-linecap="round" stroke-linejoin="round"/>
<path d="M2.39795 9.17007C2.39795 7.79007 3.38793 6.11009 4.59793 5.44009L9.93793 2.47006C11.0779 1.84006 12.9479 1.84006 14.0879 2.47006L19.4279 5.44009C20.6379 6.11009 21.6279 7.79007 21.6279 9.17007V14.8201C21.6279 16.2001 20.6379 17.8801 19.4279 18.5501L14.0879 21.5201C12.9479 22.1501 11.0779 22.1501 9.93793 21.5201L4.59793 18.5501C3.38793 17.8801 2.39795 16.2001 2.39795 14.8201V14.0001" stroke="#171717" stroke-width="1.5" stroke-linecap="round" stroke-linejoin="round"/>
<path d="M17.0076 13.24V9.58002L10.9376 6.07001L9.88757 5.46997L7.51758 4.09998" stroke="#171717" stroke-width="1.5" stroke-linecap="round" stroke-linejoin="round"/>
</svg>
