<svg width="24" height="24" viewBox="0 0 24 24" fill="none" xmlns="http://www.w3.org/2000/svg">
<path d="M15.0031 22.75C14.7331 22.75 14.4831 22.6 14.3531 22.37C14.2231 22.14 14.2231 21.85 14.3631 21.62L15.4131 19.87C15.6231 19.51 16.0831 19.4 16.4431 19.61C16.8031 19.82 16.9131 20.28 16.7031 20.64L16.4331 21.09C19.1931 20.44 21.2631 17.96 21.2631 15C21.2631 14.59 21.6031 14.25 22.0131 14.25C22.4231 14.25 22.7631 14.59 22.7631 15C22.7531 19.27 19.2731 22.75 15.0031 22.75Z" fill="#171717"/>
<path d="M2.00293 9.75C1.59293 9.75 1.25293 9.41 1.25293 9C1.25293 4.73 4.73293 1.25 9.00293 1.25C9.27293 1.25 9.52292 1.4 9.65292 1.63C9.78292 1.86 9.78293 2.15 9.64293 2.38L8.59293 4.13C8.38293 4.49001 7.92293 4.60001 7.56293 4.39001C7.20293 4.18001 7.09293 3.71999 7.30293 3.35999L7.57294 2.90997C4.81294 3.55997 2.74294 6.04 2.74294 9C2.75294 9.41 2.41293 9.75 2.00293 9.75Z" fill="#171717"/>
<path d="M17.6828 7.49987C17.5528 7.49987 17.4228 7.4699 17.3028 7.3999L13.3328 5.09985C12.9728 4.88985 12.8528 4.42988 13.0628 4.06988C13.2728 3.70988 13.7328 3.58986 14.0828 3.79986L17.6828 5.87988L21.2528 3.80987C21.6128 3.59987 22.0728 3.72989 22.2728 4.07989C22.4828 4.43989 22.3528 4.89986 22.0028 5.10986L18.0528 7.38989C17.9428 7.45989 17.8128 7.49987 17.6828 7.49987Z" fill="#171717"/>
<path d="M17.6831 11.5699C17.2731 11.5699 16.9331 11.2299 16.9331 10.8199V6.73987C16.9331 6.32987 17.2731 5.98987 17.6831 5.98987C18.0931 5.98987 18.4331 6.32987 18.4331 6.73987V10.8199C18.4331 11.2399 18.0931 11.5699 17.6831 11.5699Z" fill="#171717"/>
<path d="M17.6828 11.7499C17.2228 11.7499 16.7528 11.6499 16.3828 11.4399L13.9828 10.1099C13.2028 9.67993 12.6128 8.66997 12.6128 7.77997V5.23993C12.6128 4.33993 13.2028 3.33997 13.9928 2.89997L16.3928 1.56995C17.1328 1.15995 18.2428 1.15995 18.9928 1.56995L21.3928 2.89997C22.1728 3.32997 22.7628 4.33992 22.7628 5.22992V7.76996C22.7628 8.66996 22.1728 9.66992 21.3928 10.0999L18.9928 11.4299C18.6028 11.6499 18.1428 11.7499 17.6828 11.7499ZM17.1128 2.86994L14.7128 4.19996C14.4128 4.36996 14.1128 4.87991 14.1128 5.21991V7.75995C14.1128 8.10995 14.4128 8.61997 14.7128 8.77997L17.1128 10.1199C17.4028 10.2799 17.9628 10.2799 18.2528 10.1199L20.6528 8.78992C20.9528 8.61992 21.2528 8.10996 21.2528 7.76996V5.22992C21.2528 4.87992 20.9528 4.36997 20.6528 4.20997L18.2528 2.87995C17.9628 2.70995 17.3928 2.70994 17.1128 2.86994Z" fill="#171717"/>
<path d="M6.32295 18.4999C6.19295 18.4999 6.06295 18.4699 5.94295 18.3999L1.97295 16.0998C1.61295 15.8898 1.49294 15.4299 1.70294 15.0699C1.91294 14.7099 2.37295 14.5899 2.72295 14.7999L6.32295 16.8799L9.89294 14.8099C10.2529 14.5999 10.7129 14.7299 10.9129 15.0799C11.1229 15.4399 10.9929 15.8999 10.6429 16.1099L6.69295 18.3899C6.58295 18.4599 6.45295 18.4999 6.32295 18.4999Z" fill="#171717"/>
<path d="M6.32275 22.5699C5.91275 22.5699 5.57275 22.2299 5.57275 21.8199V17.7399C5.57275 17.3299 5.91275 16.9899 6.32275 16.9899C6.73275 16.9899 7.07275 17.3299 7.07275 17.7399V21.8199C7.07275 22.2399 6.74275 22.5699 6.32275 22.5699Z" fill="#171717"/>
<path d="M6.32294 22.7499C5.86294 22.7499 5.39293 22.6499 5.02293 22.4399L2.62292 21.1099C1.84292 20.6799 1.25293 19.67 1.25293 18.78V16.2399C1.25293 15.3399 1.84292 14.3399 2.62292 13.9099L5.02293 12.58C5.76293 12.17 6.88293 12.17 7.62292 12.58L10.0229 13.9099C10.8029 14.3399 11.3929 15.3499 11.3929 16.2399V18.78C11.3929 19.68 10.8029 20.6799 10.0129 21.1199L7.61293 22.45C7.25293 22.65 6.79294 22.7499 6.32294 22.7499ZM5.75293 13.8699L3.35294 15.2C3.05294 15.37 2.75293 15.8799 2.75293 16.2199V18.76C2.75293 19.11 3.05294 19.62 3.35294 19.78L5.75293 21.1099C6.04293 21.2699 6.60293 21.2699 6.89293 21.1099L9.29292 19.78C9.59292 19.61 9.89293 19.1 9.89293 18.76V16.2199C9.89293 15.8699 9.59292 15.36 9.29292 15.2L6.89293 13.8599C6.61293 13.7099 6.04293 13.7099 5.75293 13.8699Z" fill="#171717"/>
</svg>
