<svg width="24" height="24" viewBox="0 0 24 24" fill="none" xmlns="http://www.w3.org/2000/svg">
<path opacity="0.4" d="M15.0021 22.75C14.7321 22.75 14.4821 22.6 14.3521 22.37C14.2221 22.14 14.2221 21.85 14.3621 21.62L15.4121 19.87C15.6221 19.51 16.0821 19.4 16.4421 19.61C16.8021 19.82 16.9121 20.28 16.7021 20.64L16.4321 21.09C19.1921 20.44 21.2621 17.96 21.2621 15C21.2621 14.59 21.6021 14.25 22.0121 14.25C22.4221 14.25 22.7621 14.59 22.7621 15C22.7521 19.27 19.2721 22.75 15.0021 22.75Z" fill="#171717"/>
<path opacity="0.4" d="M2.00195 9.75C1.59195 9.75 1.25195 9.41 1.25195 9C1.25195 4.73 4.73195 1.25 9.00195 1.25C9.27195 1.25 9.52195 1.4 9.65195 1.63C9.78195 1.86 9.78195 2.15 9.64195 2.38L8.59195 4.13C8.38195 4.49001 7.92195 4.60001 7.56195 4.39001C7.20195 4.18001 7.09196 3.71999 7.30196 3.35999L7.57196 2.90997C4.81196 3.55997 2.74196 6.04 2.74196 9C2.75196 9.41 2.41195 9.75 2.00195 9.75Z" fill="#171717"/>
<path d="M10.6724 13.8499L7.53239 12.1599C7.20239 11.9799 6.8024 11.9799 6.4724 12.1599L3.3324 13.8499C3.1024 13.9699 2.9624 14.2199 2.9624 14.4899C2.9624 14.7599 3.1024 15.0099 3.3324 15.1299L6.4724 16.8199C6.6424 16.9099 6.8224 16.9499 7.0024 16.9499C7.1824 16.9499 7.36239 16.9099 7.53239 16.8199L10.6724 15.1299C10.9024 15.0099 11.0424 14.7599 11.0424 14.4899C11.0424 14.2199 10.8924 13.9799 10.6724 13.8499Z" fill="#171717"/>
<path d="M5.95218 17.4099L3.03218 15.9499C2.81218 15.8399 2.55218 15.8499 2.33218 15.9799C2.12218 16.1099 1.99219 16.3399 1.99219 16.5899V19.3499C1.99219 19.8299 2.25217 20.2599 2.68217 20.4699L5.60219 21.9299C5.70219 21.9799 5.81218 22.0099 5.92218 22.0099C6.05218 22.0099 6.18219 21.9699 6.30219 21.8999C6.51219 21.7699 6.64218 21.5399 6.64218 21.2899V18.5299C6.65218 18.0499 6.38218 17.6199 5.95218 17.4099Z" fill="#171717"/>
<path d="M11.662 15.9799C11.452 15.8499 11.1921 15.8399 10.9621 15.9499L8.04204 17.4099C7.61204 17.6199 7.35205 18.0499 7.35205 18.5299V21.2899C7.35205 21.5399 7.48205 21.7699 7.69205 21.8999C7.81205 21.9699 7.94205 22.0099 8.07205 22.0099C8.18205 22.0099 8.29204 21.9799 8.39204 21.9299L11.312 20.4699C11.742 20.2599 12.002 19.8299 12.002 19.3499V16.5899C12.002 16.3399 11.872 16.1099 11.662 15.9799Z" fill="#171717"/>
<path d="M20.6724 3.83001L17.5324 2.14C17.2024 1.96 16.8024 1.96 16.4724 2.14L13.3324 3.83001C13.1024 3.95001 12.9624 4.19996 12.9624 4.46996C12.9624 4.73996 13.1024 4.98998 13.3324 5.10998L16.4724 6.79998C16.6424 6.88998 16.8224 6.92998 17.0024 6.92998C17.1824 6.92998 17.3624 6.88998 17.5324 6.79998L20.6724 5.10998C20.9024 4.98998 21.0424 4.73996 21.0424 4.46996C21.0424 4.18996 20.8924 3.95001 20.6724 3.83001Z" fill="#171717"/>
<path d="M15.9522 7.37999L13.0322 5.91997C12.8122 5.80997 12.5522 5.82 12.3322 5.95C12.1222 6.08 11.9922 6.30999 11.9922 6.55999V9.32C11.9922 9.8 12.2522 10.23 12.6822 10.44L15.6022 11.9C15.7022 11.95 15.8122 11.98 15.9222 11.98C16.0522 11.98 16.1822 11.94 16.3022 11.87C16.5122 11.74 16.6422 11.51 16.6422 11.26V8.49999C16.6522 8.01999 16.3822 7.58999 15.9522 7.37999Z" fill="#171717"/>
<path d="M21.662 5.95C21.452 5.82 21.1921 5.80997 20.9621 5.91997L18.042 7.37999C17.612 7.58999 17.3521 8.01999 17.3521 8.49999V11.26C17.3521 11.51 17.482 11.74 17.692 11.87C17.812 11.94 17.9421 11.98 18.0721 11.98C18.1821 11.98 18.292 11.95 18.392 11.9L21.312 10.44C21.742 10.23 22.002 9.8 22.002 9.32V6.55999C22.002 6.30999 21.872 6.08 21.662 5.95Z" fill="#171717"/>
</svg>
