<svg width="25" height="24" viewBox="0 0 25 24" fill="none" xmlns="http://www.w3.org/2000/svg">
<path d="M5.0127 1C4.0727 1 3.2027 1.33 2.5127 1.88C1.5927 2.61 1.0127 3.74 1.0127 5C1.0127 5.75 1.22271 6.46 1.59271 7.06C2.28271 8.22 3.5527 9 5.0127 9C6.0227 9 6.9427 8.63 7.6427 8C7.9527 7.74 8.22268 7.42 8.43268 7.06C8.80268 6.46 9.0127 5.75 9.0127 5C9.0127 2.79 7.2227 1 5.0127 1ZM6.61267 6.58002C6.46267 6.73002 6.2727 6.79999 6.0827 6.79999C5.8927 6.79999 5.70267 6.73002 5.55267 6.58002L5.02271 6.04999L4.47272 6.59998C4.32272 6.74998 4.13269 6.82001 3.94269 6.82001C3.75269 6.82001 3.56272 6.74998 3.41272 6.59998C3.12272 6.30998 3.12272 5.82998 3.41272 5.53998L3.96271 4.98999L3.43268 4.46002C3.14268 4.17002 3.14268 3.69002 3.43268 3.40002C3.72268 3.11002 4.20268 3.11002 4.49268 3.40002L5.02271 3.92999L5.52271 3.42999C5.81271 3.13999 6.2927 3.13999 6.5827 3.42999C6.8727 3.71999 6.8727 4.19999 6.5827 4.48999L6.0827 4.98999L6.61267 5.52002C6.90267 5.81002 6.90267 6.28002 6.61267 6.58002Z" fill="#171717"/>
<path opacity="0.4" d="M15.0127 3V12C15.0127 13.1 14.1127 14 13.0127 14H2.0127V7.62C2.7427 8.49 3.86272 9.03 5.10272 9C6.11272 8.98 7.0227 8.59 7.7027 7.94C8.0127 7.68 8.27272 7.34999 8.47272 6.98999C8.83272 6.37999 9.0327 5.65997 9.0127 4.90997C8.9827 3.73997 8.46271 2.71 7.65271 2H14.0127C14.5627 2 15.0127 2.45 15.0127 3Z" fill="#171717"/>
<path d="M22.0127 14V17C22.0127 18.66 20.6727 20 19.0127 20H18.0127C18.0127 18.9 17.1127 18 16.0127 18C14.9127 18 14.0127 18.9 14.0127 20H10.0127C10.0127 18.9 9.1127 18 8.0127 18C6.9127 18 6.0127 18.9 6.0127 20H5.0127C3.3527 20 2.0127 18.66 2.0127 17V14H13.0127C14.1127 14 15.0127 13.1 15.0127 12V5H16.8527C17.5727 5 18.2327 5.39001 18.5927 6.01001L20.3027 9H19.0127C18.4627 9 18.0127 9.45 18.0127 10V13C18.0127 13.55 18.4627 14 19.0127 14H22.0127Z" fill="#171717"/>
<path opacity="0.4" d="M8.0127 22C9.11726 22 10.0127 21.1046 10.0127 20C10.0127 18.8954 9.11726 18 8.0127 18C6.90813 18 6.0127 18.8954 6.0127 20C6.0127 21.1046 6.90813 22 8.0127 22Z" fill="#171717"/>
<path opacity="0.4" d="M16.0127 22C17.1173 22 18.0127 21.1046 18.0127 20C18.0127 18.8954 17.1173 18 16.0127 18C14.9081 18 14.0127 18.8954 14.0127 20C14.0127 21.1046 14.9081 22 16.0127 22Z" fill="#171717"/>
<path opacity="0.4" d="M22.0127 12.53V14H19.0127C18.4627 14 18.0127 13.55 18.0127 13V10C18.0127 9.45 18.4627 9 19.0127 9H20.3027L21.7527 11.54C21.9227 11.84 22.0127 12.18 22.0127 12.53Z" fill="#171717"/>
</svg>
