<svg width="25" height="24" viewBox="0 0 25 24" fill="none" xmlns="http://www.w3.org/2000/svg">
<path opacity="0.4" d="M12.0105 14H13.0105C14.1105 14 15.0105 13.1 15.0105 12V2H6.0105C4.5105 2 3.20051 2.82999 2.52051 4.04999" stroke="#171717" stroke-width="1.5" stroke-linecap="round" stroke-linejoin="round"/>
<path d="M2.01074 17C2.01074 18.66 3.35074 20 5.01074 20H6.01074C6.01074 18.9 6.91074 18 8.01074 18C9.11074 18 10.0107 18.9 10.0107 20H14.0107C14.0107 18.9 14.9107 18 16.0107 18C17.1107 18 18.0107 18.9 18.0107 20H19.0107C20.6707 20 22.0107 18.66 22.0107 17V14H19.0107C18.4607 14 18.0107 13.55 18.0107 13V10C18.0107 9.45 18.4607 9 19.0107 9H20.3007L18.5908 6.01001C18.2308 5.39001 17.5708 5 16.8508 5H15.0107V12C15.0107 13.1 14.1107 14 13.0107 14H12.0107" stroke="#171717" stroke-width="1.5" stroke-linecap="round" stroke-linejoin="round"/>
<path d="M8.01074 22C9.11531 22 10.0107 21.1046 10.0107 20C10.0107 18.8954 9.11531 18 8.01074 18C6.90617 18 6.01074 18.8954 6.01074 20C6.01074 21.1046 6.90617 22 8.01074 22Z" stroke="#171717" stroke-width="1.5" stroke-linecap="round" stroke-linejoin="round"/>
<path d="M16.0107 22C17.1153 22 18.0107 21.1046 18.0107 20C18.0107 18.8954 17.1153 18 16.0107 18C14.9062 18 14.0107 18.8954 14.0107 20C14.0107 21.1046 14.9062 22 16.0107 22Z" stroke="#171717" stroke-width="1.5" stroke-linecap="round" stroke-linejoin="round"/>
<path d="M22.0107 12V14H19.0107C18.4607 14 18.0107 13.55 18.0107 13V10C18.0107 9.45 18.4607 9 19.0107 9H20.3007L22.0107 12Z" stroke="#171717" stroke-width="1.5" stroke-linecap="round" stroke-linejoin="round"/>
<path d="M2.01074 8H8.01074" stroke="#171717" stroke-width="1.5" stroke-linecap="round" stroke-linejoin="round"/>
<path d="M2.01074 11H6.01074" stroke="#171717" stroke-width="1.5" stroke-linecap="round" stroke-linejoin="round"/>
<path d="M2.01074 14H4.01074" stroke="#171717" stroke-width="1.5" stroke-linecap="round" stroke-linejoin="round"/>
</svg>
