<svg width="24" height="24" viewBox="0 0 24 24" fill="none" xmlns="http://www.w3.org/2000/svg">
<path d="M13.0098 14.75H2.00977C1.59977 14.75 1.25977 14.41 1.25977 14V6C1.25977 3.38 3.38977 1.25 6.00977 1.25H15.0098C15.4198 1.25 15.7598 1.59 15.7598 2V12C15.7598 13.52 14.5298 14.75 13.0098 14.75ZM2.75977 13.25H13.0098C13.6998 13.25 14.2598 12.69 14.2598 12V2.75H6.00977C4.21977 2.75 2.75977 4.21 2.75977 6V13.25Z" fill="#171717"/>
<path d="M19.0098 20.75H18.0098C17.5998 20.75 17.2598 20.41 17.2598 20C17.2598 19.31 16.6998 18.75 16.0098 18.75C15.3198 18.75 14.7598 19.31 14.7598 20C14.7598 20.41 14.4198 20.75 14.0098 20.75H10.0098C9.59977 20.75 9.25977 20.41 9.25977 20C9.25977 19.31 8.69977 18.75 8.00977 18.75C7.31977 18.75 6.75977 19.31 6.75977 20C6.75977 20.41 6.41977 20.75 6.00977 20.75H5.00977C2.93977 20.75 1.25977 19.07 1.25977 17V14C1.25977 13.59 1.59977 13.25 2.00977 13.25H13.0098C13.6998 13.25 14.2598 12.69 14.2598 12V5C14.2598 4.59 14.5998 4.25 15.0098 4.25H16.8498C17.8398 4.25 18.7498 4.78001 19.2398 5.64001L20.9498 8.63C21.0798 8.86 21.0798 9.15 20.9498 9.38C20.8198 9.61 20.5698 9.75 20.2998 9.75H19.0098C18.8698 9.75 18.7598 9.86 18.7598 10V13C18.7598 13.14 18.8698 13.25 19.0098 13.25H22.0098C22.4198 13.25 22.7598 13.59 22.7598 14V17C22.7598 19.07 21.0798 20.75 19.0098 20.75ZM18.6598 19.25H19.0098C20.2498 19.25 21.2598 18.24 21.2598 17V14.75H19.0098C18.0498 14.75 17.2598 13.96 17.2598 13V10C17.2598 9.04 18.0398 8.25 19.0098 8.25L17.9398 6.38C17.7198 5.99 17.2998 5.75 16.8498 5.75H15.7598V12C15.7598 13.52 14.5298 14.75 13.0098 14.75H2.75977V17C2.75977 18.24 3.76977 19.25 5.00977 19.25H5.35977C5.68977 18.1 6.74977 17.25 8.00977 17.25C9.26977 17.25 10.3298 18.1 10.6598 19.25H13.3698C13.6998 18.1 14.7598 17.25 16.0198 17.25C17.2798 17.25 18.3298 18.1 18.6598 19.25Z" fill="#171717"/>
<path d="M8.00977 22.75C6.48977 22.75 5.25977 21.52 5.25977 20C5.25977 18.48 6.48977 17.25 8.00977 17.25C9.52977 17.25 10.7598 18.48 10.7598 20C10.7598 21.52 9.52977 22.75 8.00977 22.75ZM8.00977 18.75C7.31977 18.75 6.75977 19.31 6.75977 20C6.75977 20.69 7.31977 21.25 8.00977 21.25C8.69977 21.25 9.25977 20.69 9.25977 20C9.25977 19.31 8.69977 18.75 8.00977 18.75Z" fill="#171717"/>
<path d="M16.0098 22.75C14.4898 22.75 13.2598 21.52 13.2598 20C13.2598 18.48 14.4898 17.25 16.0098 17.25C17.5298 17.25 18.7598 18.48 18.7598 20C18.7598 21.52 17.5298 22.75 16.0098 22.75ZM16.0098 18.75C15.3198 18.75 14.7598 19.31 14.7598 20C14.7598 20.69 15.3198 21.25 16.0098 21.25C16.6998 21.25 17.2598 20.69 17.2598 20C17.2598 19.31 16.6998 18.75 16.0098 18.75Z" fill="#171717"/>
<path d="M22.0098 14.75H19.0098C18.0498 14.75 17.2598 13.96 17.2598 13V10C17.2598 9.04 18.0498 8.25 19.0098 8.25H20.2998C20.5698 8.25 20.8198 8.39 20.9498 8.63L22.6598 11.63C22.7198 11.74 22.7598 11.87 22.7598 12V14C22.7598 14.41 22.4198 14.75 22.0098 14.75ZM19.0098 9.75C18.8698 9.75 18.7598 9.86 18.7598 10V13C18.7598 13.14 18.8698 13.25 19.0098 13.25H21.2598V12.2L19.8598 9.75H19.0098Z" fill="#171717"/>
</svg>
