<svg width="25" height="24" viewBox="0 0 25 24" fill="none" xmlns="http://www.w3.org/2000/svg">
<path d="M13.0117 14.75H2.01172C1.60172 14.75 1.26172 14.41 1.26172 14V7.62C1.26172 7.29999 1.46171 7.01997 1.75171 6.90997C2.05171 6.79997 2.38173 6.89001 2.58173 7.13C3.19173 7.86 4.14173 8.26999 5.08173 8.23999C5.88173 8.21999 6.6217 7.92001 7.1817 7.39001C7.4417 7.17001 7.65171 6.91 7.81171 6.62C8.12171 6.09 8.27172 5.50998 8.26172 4.91998C8.24172 3.99998 7.84174 3.15999 7.16174 2.54999C6.92174 2.33999 6.84172 2.00997 6.95172 1.71997C7.06172 1.42997 7.34173 1.22998 7.65173 1.22998H15.0117C15.4217 1.22998 15.7617 1.56998 15.7617 1.97998V11.98C15.7617 13.52 14.5317 14.75 13.0117 14.75ZM2.76172 13.25H13.0117C13.7017 13.25 14.2617 12.69 14.2617 12V2.75H9.20172C9.55172 3.4 9.74172 4.13001 9.76172 4.89001C9.78172 5.76001 9.5617 6.62 9.1217 7.37C8.8817 7.79999 8.55171 8.21001 8.19171 8.51001C7.39171 9.27001 6.2917 9.72 5.1217 9.75C4.2817 9.78 3.47173 9.57 2.77173 9.19V13.25H2.76172Z" fill="#171717"/>
<path d="M19.0117 20.75H18.0117C17.6017 20.75 17.2617 20.41 17.2617 20C17.2617 19.31 16.7017 18.75 16.0117 18.75C15.3217 18.75 14.7617 19.31 14.7617 20C14.7617 20.41 14.4217 20.75 14.0117 20.75H10.0117C9.60172 20.75 9.26172 20.41 9.26172 20C9.26172 19.31 8.70172 18.75 8.01172 18.75C7.32172 18.75 6.76172 19.31 6.76172 20C6.76172 20.41 6.42172 20.75 6.01172 20.75H5.01172C2.94172 20.75 1.26172 19.07 1.26172 17V14C1.26172 13.59 1.60172 13.25 2.01172 13.25H13.0117C13.7017 13.25 14.2617 12.69 14.2617 12V5C14.2617 4.59 14.6017 4.25 15.0117 4.25H16.8517C17.8417 4.25 18.7517 4.78001 19.2417 5.64001L20.9517 8.63C21.0817 8.86 21.0817 9.15 20.9517 9.38C20.8217 9.61 20.5717 9.75 20.3017 9.75H19.0117C18.8717 9.75 18.7617 9.86 18.7617 10V13C18.7617 13.14 18.8717 13.25 19.0117 13.25H22.0117C22.4217 13.25 22.7617 13.59 22.7617 14V17C22.7617 19.07 21.0817 20.75 19.0117 20.75ZM18.6617 19.25H19.0117C20.2517 19.25 21.2617 18.24 21.2617 17V14.75H19.0117C18.0517 14.75 17.2617 13.96 17.2617 13V10C17.2617 9.04 18.0417 8.25 19.0117 8.25L17.9417 6.38C17.7217 5.99 17.3017 5.75 16.8517 5.75H15.7617V12C15.7617 13.52 14.5317 14.75 13.0117 14.75H2.76172V17C2.76172 18.24 3.77172 19.25 5.01172 19.25H5.36169C5.69169 18.1 6.75172 17.25 8.01172 17.25C9.27172 17.25 10.3317 18.1 10.6617 19.25H13.3717C13.7017 18.1 14.7617 17.25 16.0217 17.25C17.2817 17.25 18.3317 18.1 18.6617 19.25Z" fill="#171717"/>
<path d="M8.01172 22.75C6.49172 22.75 5.26172 21.52 5.26172 20C5.26172 18.48 6.49172 17.25 8.01172 17.25C9.53172 17.25 10.7617 18.48 10.7617 20C10.7617 21.52 9.53172 22.75 8.01172 22.75ZM8.01172 18.75C7.32172 18.75 6.76172 19.31 6.76172 20C6.76172 20.69 7.32172 21.25 8.01172 21.25C8.70172 21.25 9.26172 20.69 9.26172 20C9.26172 19.31 8.70172 18.75 8.01172 18.75Z" fill="#171717"/>
<path d="M16.0117 22.75C14.4917 22.75 13.2617 21.52 13.2617 20C13.2617 18.48 14.4917 17.25 16.0117 17.25C17.5317 17.25 18.7617 18.48 18.7617 20C18.7617 21.52 17.5317 22.75 16.0117 22.75ZM16.0117 18.75C15.3217 18.75 14.7617 19.31 14.7617 20C14.7617 20.69 15.3217 21.25 16.0117 21.25C16.7017 21.25 17.2617 20.69 17.2617 20C17.2617 19.31 16.7017 18.75 16.0117 18.75Z" fill="#171717"/>
<path d="M22.0117 14.75H19.0117C18.0517 14.75 17.2617 13.96 17.2617 13V10C17.2617 9.04 18.0517 8.25 19.0117 8.25H20.3017C20.5717 8.25 20.8217 8.39 20.9517 8.63L22.6617 11.63C22.7217 11.74 22.7617 11.87 22.7617 12V14C22.7617 14.41 22.4217 14.75 22.0117 14.75ZM19.0117 9.75C18.8717 9.75 18.7617 9.86 18.7617 10V13C18.7617 13.14 18.8717 13.25 19.0117 13.25H21.2617V12.2L19.8617 9.75H19.0117Z" fill="#171717"/>
<path d="M5.00182 9.75C3.62182 9.75 2.32183 9.14998 1.44183 8.09998C1.30183 7.94998 1.15184 7.73998 1.02184 7.53998C0.551842 6.82998 0.291842 5.98999 0.271842 5.10999C0.231842 3.64999 0.851854 2.27998 1.97185 1.34998C2.82185 0.649976 3.84181 0.27 4.92181 0.25C6.10181 0.26 7.28186 0.650002 8.16186 1.44C9.16186 2.32 9.74184 3.55001 9.77184 4.89001C9.79184 5.76001 9.57183 6.62 9.13183 7.37C8.89183 7.79999 8.56183 8.21001 8.20183 8.51001C7.40183 9.27001 6.30183 9.72 5.13183 9.75C5.08183 9.75 5.04182 9.75 5.00182 9.75ZM5.00182 1.75C4.98182 1.75 4.96182 1.75 4.94182 1.75C4.21182 1.76 3.51181 2.03001 2.92181 2.51001C2.16181 3.14001 1.74183 4.08001 1.76183 5.07001C1.78183 5.67001 1.95184 6.24002 2.27184 6.71002C2.36184 6.85002 2.45182 6.97998 2.56182 7.09998C3.20182 7.85998 4.15184 8.25999 5.08184 8.23999C5.88184 8.21999 6.62182 7.92001 7.18182 7.39001C7.44182 7.17001 7.65182 6.91 7.81182 6.62C8.12182 6.09 8.27183 5.50998 8.26183 4.91998C8.24183 3.99998 7.84186 3.15999 7.16186 2.54999C6.56186 2.03999 5.80182 1.75 5.00182 1.75Z" fill="#171717"/>
<path d="M4.4616 6.74993C4.2716 6.74993 4.09158 6.6799 3.94158 6.5399L2.93157 5.57994C2.63157 5.28994 2.62161 4.81995 2.91161 4.51995C3.20161 4.21995 3.67161 4.20993 3.97161 4.49993L4.4616 4.9699L6.0316 3.44994C6.3316 3.15994 6.8016 3.1699 7.0916 3.4699C7.3816 3.7699 7.37158 4.23996 7.07158 4.52996L4.98155 6.54991C4.83155 6.67991 4.6416 6.74993 4.4616 6.74993Z" fill="#171717"/>
</svg>
