<svg width="25" height="24" viewBox="0 0 25 24" fill="none" xmlns="http://www.w3.org/2000/svg">
<path d="M13.0105 14.75H12.0105C11.6005 14.75 11.2605 14.41 11.2605 14C11.2605 13.59 11.6005 13.25 12.0105 13.25H13.0105C13.7005 13.25 14.2605 12.69 14.2605 12V2.75H6.01052C4.83052 2.75 3.75049 3.38998 3.17049 4.41998C2.97049 4.77998 2.51053 4.91002 2.15053 4.71002C1.79053 4.51002 1.6605 4.05 1.8605 3.69C2.7005 2.19 4.29052 1.25 6.01052 1.25H15.0105C15.4205 1.25 15.7605 1.59 15.7605 2V12C15.7605 13.52 14.5305 14.75 13.0105 14.75Z" fill="#171717"/>
<path d="M19.0107 20.75H18.0107C17.6007 20.75 17.2607 20.41 17.2607 20C17.2607 19.31 16.7007 18.75 16.0107 18.75C15.3207 18.75 14.7607 19.31 14.7607 20C14.7607 20.41 14.4207 20.75 14.0107 20.75H10.0107C9.60074 20.75 9.26074 20.41 9.26074 20C9.26074 19.31 8.70074 18.75 8.01074 18.75C7.32074 18.75 6.76074 19.31 6.76074 20C6.76074 20.41 6.42074 20.75 6.01074 20.75H5.01074C2.94074 20.75 1.26074 19.07 1.26074 17C1.26074 16.59 1.60074 16.25 2.01074 16.25C2.42074 16.25 2.76074 16.59 2.76074 17C2.76074 18.24 3.77074 19.25 5.01074 19.25H5.36072C5.69072 18.1 6.75074 17.25 8.01074 17.25C9.27074 17.25 10.3308 18.1 10.6608 19.25H13.3707C13.7007 18.1 14.7608 17.25 16.0208 17.25C17.2808 17.25 18.3407 18.1 18.6707 19.25H19.0107C20.2507 19.25 21.2607 18.24 21.2607 17V14.75H19.0107C18.0507 14.75 17.2607 13.96 17.2607 13V10C17.2607 9.04 18.0407 8.25 19.0107 8.25L17.9407 6.38C17.7207 5.99 17.3008 5.75 16.8508 5.75H15.7607V12C15.7607 13.52 14.5307 14.75 13.0107 14.75H12.0107C11.6007 14.75 11.2607 14.41 11.2607 14C11.2607 13.59 11.6007 13.25 12.0107 13.25H13.0107C13.7007 13.25 14.2607 12.69 14.2607 12V5C14.2607 4.59 14.6007 4.25 15.0107 4.25H16.8508C17.8408 4.25 18.7507 4.78001 19.2407 5.64001L20.9507 8.63C21.0807 8.86 21.0807 9.15 20.9507 9.38C20.8207 9.61 20.5707 9.75 20.3007 9.75H19.0107C18.8707 9.75 18.7607 9.86 18.7607 10V13C18.7607 13.14 18.8707 13.25 19.0107 13.25H22.0107C22.4207 13.25 22.7607 13.59 22.7607 14V17C22.7607 19.07 21.0807 20.75 19.0107 20.75Z" fill="#171717"/>
<path d="M8.01074 22.75C6.49074 22.75 5.26074 21.52 5.26074 20C5.26074 18.48 6.49074 17.25 8.01074 17.25C9.53074 17.25 10.7607 18.48 10.7607 20C10.7607 21.52 9.53074 22.75 8.01074 22.75ZM8.01074 18.75C7.32074 18.75 6.76074 19.31 6.76074 20C6.76074 20.69 7.32074 21.25 8.01074 21.25C8.70074 21.25 9.26074 20.69 9.26074 20C9.26074 19.31 8.70074 18.75 8.01074 18.75Z" fill="#171717"/>
<path d="M16.0107 22.75C14.4907 22.75 13.2607 21.52 13.2607 20C13.2607 18.48 14.4907 17.25 16.0107 17.25C17.5307 17.25 18.7607 18.48 18.7607 20C18.7607 21.52 17.5307 22.75 16.0107 22.75ZM16.0107 18.75C15.3207 18.75 14.7607 19.31 14.7607 20C14.7607 20.69 15.3207 21.25 16.0107 21.25C16.7007 21.25 17.2607 20.69 17.2607 20C17.2607 19.31 16.7007 18.75 16.0107 18.75Z" fill="#171717"/>
<path d="M22.0107 14.75H19.0107C18.0507 14.75 17.2607 13.96 17.2607 13V10C17.2607 9.04 18.0507 8.25 19.0107 8.25H20.3007C20.5707 8.25 20.8207 8.39 20.9507 8.63L22.6608 11.63C22.7208 11.74 22.7607 11.87 22.7607 12V14C22.7607 14.41 22.4207 14.75 22.0107 14.75ZM19.0107 9.75C18.8707 9.75 18.7607 9.86 18.7607 10V13C18.7607 13.14 18.8707 13.25 19.0107 13.25H21.2607V12.2L19.8607 9.75H19.0107Z" fill="#171717"/>
<path d="M8.01074 8.75H2.01074C1.60074 8.75 1.26074 8.41 1.26074 8C1.26074 7.59 1.60074 7.25 2.01074 7.25H8.01074C8.42074 7.25 8.76074 7.59 8.76074 8C8.76074 8.41 8.42074 8.75 8.01074 8.75Z" fill="#171717"/>
<path d="M6.01074 11.75H2.01074C1.60074 11.75 1.26074 11.41 1.26074 11C1.26074 10.59 1.60074 10.25 2.01074 10.25H6.01074C6.42074 10.25 6.76074 10.59 6.76074 11C6.76074 11.41 6.42074 11.75 6.01074 11.75Z" fill="#171717"/>
<path d="M4.01074 14.75H2.01074C1.60074 14.75 1.26074 14.41 1.26074 14C1.26074 13.59 1.60074 13.25 2.01074 13.25H4.01074C4.42074 13.25 4.76074 13.59 4.76074 14C4.76074 14.41 4.42074 14.75 4.01074 14.75Z" fill="#171717"/>
</svg>
