<svg width="25" height="24" viewBox="0 0 25 24" fill="none" xmlns="http://www.w3.org/2000/svg">
<path d="M5.01172 1C4.07172 1 3.20172 1.33 2.51172 1.88C1.59172 2.61 1.01172 3.74 1.01172 5C1.01172 7.21 2.80172 9 5.01172 9C6.02172 9 6.94173 8.62 7.65173 8C8.48173 7.27 9.01172 6.2 9.01172 5C9.01172 2.79 7.22172 1 5.01172 1ZM6.01172 5.25C6.01172 5.51 5.87173 5.76001 5.65173 5.89001L4.40173 6.64001C4.28173 6.71001 4.15173 6.75 4.02173 6.75C3.77173 6.75 3.52171 6.62001 3.38171 6.39001C3.17171 6.03001 3.28172 5.56999 3.64172 5.35999L4.53174 4.83002V3.75C4.53174 3.34 4.87174 3 5.28174 3C5.69174 3 6.03174 3.34 6.03174 3.75V5.25H6.01172Z" fill="#171717"/>
<path opacity="0.4" d="M15.0117 3V12C15.0117 13.1 14.1117 14 13.0117 14H2.01172V7.62C2.74172 8.49 3.86175 9.03 5.10175 9C6.11175 8.98 7.02172 8.59 7.70172 7.94C8.01172 7.68 8.27174 7.34999 8.47174 6.98999C8.83174 6.37999 9.03172 5.65997 9.01172 4.90997C8.98172 3.73997 8.46173 2.71 7.65173 2H14.0117C14.5617 2 15.0117 2.45 15.0117 3Z" fill="#171717"/>
<path d="M22.0117 14V17C22.0117 18.66 20.6717 20 19.0117 20H18.0117C18.0117 18.9 17.1117 18 16.0117 18C14.9117 18 14.0117 18.9 14.0117 20H10.0117C10.0117 18.9 9.11172 18 8.01172 18C6.91172 18 6.01172 18.9 6.01172 20H5.01172C3.35172 20 2.01172 18.66 2.01172 17V14H13.0117C14.1117 14 15.0117 13.1 15.0117 12V5H16.8517C17.5717 5 18.2317 5.39001 18.5917 6.01001L20.3017 9H19.0117C18.4617 9 18.0117 9.45 18.0117 10V13C18.0117 13.55 18.4617 14 19.0117 14H22.0117Z" fill="#171717"/>
<path opacity="0.4" d="M8.01172 22C9.11629 22 10.0117 21.1046 10.0117 20C10.0117 18.8954 9.11629 18 8.01172 18C6.90715 18 6.01172 18.8954 6.01172 20C6.01172 21.1046 6.90715 22 8.01172 22Z" fill="#171717"/>
<path opacity="0.4" d="M16.0117 22C17.1163 22 18.0117 21.1046 18.0117 20C18.0117 18.8954 17.1163 18 16.0117 18C14.9071 18 14.0117 18.8954 14.0117 20C14.0117 21.1046 14.9071 22 16.0117 22Z" fill="#171717"/>
<path opacity="0.4" d="M22.0117 12.53V14H19.0117C18.4617 14 18.0117 13.55 18.0117 13V10C18.0117 9.45 18.4617 9 19.0117 9H20.3017L21.7517 11.54C21.9217 11.84 22.0117 12.18 22.0117 12.53Z" fill="#171717"/>
</svg>
