<svg width="24" height="24" viewBox="0 0 24 24" fill="none" xmlns="http://www.w3.org/2000/svg">
<path opacity="0.4" d="M22.0098 14V17C22.0098 18.66 20.6698 20 19.0098 20H18.0098C18.0098 18.9 17.1098 18 16.0098 18C14.9098 18 14.0098 18.9 14.0098 20H10.0098C10.0098 18.9 9.10977 18 8.00977 18C6.90977 18 6.00977 18.9 6.00977 20H5.00977C3.34977 20 2.00977 18.66 2.00977 17V14H13.0098C14.1098 14 15.0098 13.1 15.0098 12V5H16.8498C17.5698 5 18.2298 5.39001 18.5898 6.01001L20.2997 9H19.0098C18.4598 9 18.0098 9.45 18.0098 10V13C18.0098 13.55 18.4598 14 19.0098 14H22.0098Z" fill="#171717"/>
<path d="M8.00977 22C9.11434 22 10.0098 21.1046 10.0098 20C10.0098 18.8954 9.11434 18 8.00977 18C6.9052 18 6.00977 18.8954 6.00977 20C6.00977 21.1046 6.9052 22 8.00977 22Z" fill="#171717"/>
<path d="M16.0098 22C17.1143 22 18.0098 21.1046 18.0098 20C18.0098 18.8954 17.1143 18 16.0098 18C14.9052 18 14.0098 18.8954 14.0098 20C14.0098 21.1046 14.9052 22 16.0098 22Z" fill="#171717"/>
<path d="M22.0098 12.53V14H19.0098C18.4598 14 18.0098 13.55 18.0098 13V10C18.0098 9.45 18.4598 9 19.0098 9H20.2997L21.7498 11.54C21.9198 11.84 22.0098 12.18 22.0098 12.53Z" fill="#171717"/>
<path d="M14.0098 2H6.00977C4.05977 2 2.43978 3.4 2.08978 5.25H7.00977C7.41977 5.25 7.75977 5.59 7.75977 6C7.75977 6.41 7.41977 6.75 7.00977 6.75H2.00977V8.25H5.00977C5.41977 8.25 5.75977 8.59 5.75977 9C5.75977 9.41 5.41977 9.75 5.00977 9.75H2.00977V11.25H3.00977C3.41977 11.25 3.75977 11.59 3.75977 12C3.75977 12.41 3.41977 12.75 3.00977 12.75H2.00977V14H13.0098C14.1098 14 15.0098 13.1 15.0098 12V3C15.0098 2.45 14.5598 2 14.0098 2Z" fill="#171717"/>
<path d="M2.08978 5.25H1.00977C0.599766 5.25 0.259766 5.59 0.259766 6C0.259766 6.41 0.599766 6.75 1.00977 6.75H2.00977V6C2.00977 5.74 2.03978 5.49 2.08978 5.25Z" fill="#171717"/>
<path d="M1.00977 8.25C0.599766 8.25 0.259766 8.59 0.259766 9C0.259766 9.41 0.599766 9.75 1.00977 9.75H2.00977V8.25H1.00977Z" fill="#171717"/>
<path d="M1.00977 11.25C0.599766 11.25 0.259766 11.59 0.259766 12C0.259766 12.41 0.599766 12.75 1.00977 12.75H2.00977V11.25H1.00977Z" fill="#171717"/>
</svg>
