<svg width="25" height="24" viewBox="0 0 25 24" fill="none" xmlns="http://www.w3.org/2000/svg">
<path d="M13.0137 14.75H2.01367C1.60367 14.75 1.26367 14.41 1.26367 14V7.62C1.26367 7.29999 1.46366 7.01997 1.75366 6.90997C2.05366 6.79997 2.38368 6.89001 2.58368 7.13C3.18368 7.84 4.05366 8.23999 5.00366 8.23999C5.03366 8.23999 5.05368 8.23999 5.08368 8.23999C5.88368 8.21999 6.62365 7.92001 7.18365 7.39001C7.44366 7.17001 7.65366 6.91 7.81366 6.62C8.12366 6.09 8.27367 5.50998 8.26367 4.91998C8.24367 3.99998 7.8437 3.15999 7.1637 2.54999C6.9237 2.33999 6.84367 2.00997 6.95367 1.71997C7.06367 1.42997 7.34369 1.22998 7.65369 1.22998H15.0137C15.4237 1.22998 15.7637 1.56998 15.7637 1.97998V11.98C15.7637 13.52 14.5337 14.75 13.0137 14.75ZM2.76367 13.25H13.0137C13.7037 13.25 14.2637 12.69 14.2637 12V2.75H9.20367C9.55367 3.4 9.74367 4.13001 9.76367 4.89001C9.78367 5.76001 9.56366 6.62 9.12366 7.37C8.88366 7.79999 8.55366 8.21001 8.19366 8.51001C7.39366 9.27001 6.29366 9.72 5.12366 9.75C4.29366 9.78 3.47368 9.57 2.77368 9.19V13.25H2.76367Z" fill="#171717"/>
<path d="M19.0137 20.75H18.0137C17.6037 20.75 17.2637 20.41 17.2637 20C17.2637 19.31 16.7037 18.75 16.0137 18.75C15.3237 18.75 14.7637 19.31 14.7637 20C14.7637 20.41 14.4237 20.75 14.0137 20.75H10.0137C9.60367 20.75 9.26367 20.41 9.26367 20C9.26367 19.31 8.70367 18.75 8.01367 18.75C7.32367 18.75 6.76367 19.31 6.76367 20C6.76367 20.41 6.42367 20.75 6.01367 20.75H5.01367C2.94367 20.75 1.26367 19.07 1.26367 17V14C1.26367 13.59 1.60367 13.25 2.01367 13.25H13.0137C13.7037 13.25 14.2637 12.69 14.2637 12V5C14.2637 4.59 14.6037 4.25 15.0137 4.25H16.8537C17.8437 4.25 18.7537 4.78001 19.2437 5.64001L20.9537 8.63C21.0837 8.86 21.0837 9.15 20.9537 9.38C20.8237 9.61 20.5737 9.75 20.3036 9.75H19.0137C18.8737 9.75 18.7637 9.86 18.7637 10V13C18.7637 13.14 18.8737 13.25 19.0137 13.25H22.0137C22.4237 13.25 22.7637 13.59 22.7637 14V17C22.7637 19.07 21.0837 20.75 19.0137 20.75ZM18.6637 19.25H19.0137C20.2537 19.25 21.2637 18.24 21.2637 17V14.75H19.0137C18.0537 14.75 17.2637 13.96 17.2637 13V10C17.2637 9.04 18.0437 8.25 19.0137 8.25L17.9437 6.38C17.7237 5.99 17.3037 5.75 16.8537 5.75H15.7637V12C15.7637 13.52 14.5337 14.75 13.0137 14.75H2.76367V17C2.76367 18.24 3.77367 19.25 5.01367 19.25H5.36365C5.69365 18.1 6.75367 17.25 8.01367 17.25C9.27367 17.25 10.3337 18.1 10.6637 19.25H13.3737C13.7037 18.1 14.7637 17.25 16.0237 17.25C17.2837 17.25 18.3337 18.1 18.6637 19.25Z" fill="#171717"/>
<path d="M8.01367 22.75C6.49367 22.75 5.26367 21.52 5.26367 20C5.26367 18.48 6.49367 17.25 8.01367 17.25C9.53367 17.25 10.7637 18.48 10.7637 20C10.7637 21.52 9.53367 22.75 8.01367 22.75ZM8.01367 18.75C7.32367 18.75 6.76367 19.31 6.76367 20C6.76367 20.69 7.32367 21.25 8.01367 21.25C8.70367 21.25 9.26367 20.69 9.26367 20C9.26367 19.31 8.70367 18.75 8.01367 18.75Z" fill="#171717"/>
<path d="M16.0137 22.75C14.4937 22.75 13.2637 21.52 13.2637 20C13.2637 18.48 14.4937 17.25 16.0137 17.25C17.5337 17.25 18.7637 18.48 18.7637 20C18.7637 21.52 17.5337 22.75 16.0137 22.75ZM16.0137 18.75C15.3237 18.75 14.7637 19.31 14.7637 20C14.7637 20.69 15.3237 21.25 16.0137 21.25C16.7037 21.25 17.2637 20.69 17.2637 20C17.2637 19.31 16.7037 18.75 16.0137 18.75Z" fill="#171717"/>
<path d="M22.0137 14.75H19.0137C18.0537 14.75 17.2637 13.96 17.2637 13V10C17.2637 9.04 18.0537 8.25 19.0137 8.25H20.3036C20.5736 8.25 20.8237 8.39 20.9537 8.63L22.6637 11.63C22.7237 11.74 22.7637 11.87 22.7637 12V14C22.7637 14.41 22.4237 14.75 22.0137 14.75ZM19.0137 9.75C18.8737 9.75 18.7637 9.86 18.7637 10V13C18.7637 13.14 18.8737 13.25 19.0137 13.25H21.2637V12.2L19.8636 9.75H19.0137Z" fill="#171717"/>
<path d="M5.01367 9.75C3.35367 9.75 1.79367 8.87 0.953674 7.44C0.503674 6.72 0.263672 5.87 0.263672 5C0.263672 3.54 0.913701 2.18998 2.0437 1.28998C2.8837 0.619978 3.94367 0.25 5.01367 0.25C7.63367 0.25 9.76367 2.38 9.76367 5C9.76367 5.87 9.52367 6.72001 9.07367 7.45001C8.82367 7.87001 8.50366 8.25001 8.12366 8.57001C7.29366 9.33001 6.18367 9.75 5.01367 9.75ZM5.01367 1.75C4.27367 1.75 3.57364 1.99997 2.98364 2.46997C2.21364 3.07997 1.76367 4.01 1.76367 5C1.76367 5.59 1.92364 6.16998 2.23364 6.66998C2.81364 7.64998 3.88367 8.25 5.01367 8.25C5.80367 8.25 6.56368 7.96 7.14368 7.44C7.40368 7.22 7.62369 6.95999 7.78369 6.67999C8.10369 6.16999 8.26367 5.59 8.26367 5C8.26367 3.21 6.80367 1.75 5.01367 1.75Z" fill="#171717"/>
<path d="M6.08359 6.78995C5.89359 6.78995 5.70356 6.71998 5.55356 6.56998L3.44357 4.45999C3.15357 4.16999 3.15357 3.69 3.44357 3.4C3.73357 3.11 4.21357 3.11 4.50357 3.4L6.61356 5.50998C6.90356 5.79998 6.90356 6.27998 6.61356 6.56998C6.46356 6.71998 6.27359 6.78995 6.08359 6.78995Z" fill="#171717"/>
<path d="M3.94376 6.81992C3.75376 6.81992 3.56379 6.74989 3.41379 6.59989C3.12379 6.30989 3.12379 5.82989 3.41379 5.53989L5.52377 3.4299C5.81377 3.1399 6.29377 3.1399 6.58377 3.4299C6.87377 3.7199 6.87377 4.1999 6.58377 4.4899L4.47379 6.59989C4.32379 6.74989 4.13376 6.81992 3.94376 6.81992Z" fill="#171717"/>
</svg>
