<svg width="24" height="24" viewBox="0 0 24 24" fill="none" xmlns="http://www.w3.org/2000/svg">
<path d="M15.0088 3V12C15.0088 13.1 14.1088 14 13.0088 14H2.00879V6C2.00879 3.79 3.79879 2 6.00879 2H14.0088C14.5588 2 15.0088 2.45 15.0088 3Z" fill="#171717"/>
<path opacity="0.4" d="M22.0088 14V17C22.0088 18.66 20.6688 20 19.0088 20H18.0088C18.0088 18.9 17.1088 18 16.0088 18C14.9088 18 14.0088 18.9 14.0088 20H10.0088C10.0088 18.9 9.10879 18 8.00879 18C6.90879 18 6.00879 18.9 6.00879 20H5.00879C3.34879 20 2.00879 18.66 2.00879 17V14H13.0088C14.1088 14 15.0088 13.1 15.0088 12V5H16.8488C17.5688 5 18.2288 5.39001 18.5888 6.01001L20.2988 9H19.0088C18.4588 9 18.0088 9.45 18.0088 10V13C18.0088 13.55 18.4588 14 19.0088 14H22.0088Z" fill="#171717"/>
<path d="M8.00879 22C9.11336 22 10.0088 21.1046 10.0088 20C10.0088 18.8954 9.11336 18 8.00879 18C6.90422 18 6.00879 18.8954 6.00879 20C6.00879 21.1046 6.90422 22 8.00879 22Z" fill="#171717"/>
<path d="M16.0088 22C17.1134 22 18.0088 21.1046 18.0088 20C18.0088 18.8954 17.1134 18 16.0088 18C14.9042 18 14.0088 18.8954 14.0088 20C14.0088 21.1046 14.9042 22 16.0088 22Z" fill="#171717"/>
<path d="M22.0088 12.53V14H19.0088C18.4588 14 18.0088 13.55 18.0088 13V10C18.0088 9.45 18.4588 9 19.0088 9H20.2988L21.7488 11.54C21.9188 11.84 22.0088 12.18 22.0088 12.53Z" fill="#171717"/>
</svg>
