<svg width="25" height="24" viewBox="0 0 25 24" fill="none" xmlns="http://www.w3.org/2000/svg">
<path d="M13.0127 14.75H2.0127C1.6027 14.75 1.2627 14.41 1.2627 14V7.62C1.2627 7.29999 1.46269 7.01997 1.75269 6.90997C2.05269 6.79997 2.3827 6.89001 2.5827 7.13C3.1927 7.86 4.1427 8.26999 5.0827 8.23999C5.8827 8.21999 6.62268 7.92001 7.18268 7.39001C7.44268 7.17001 7.65268 6.91 7.81268 6.62C8.12268 6.09 8.2727 5.50998 8.2627 4.91998C8.2427 3.99998 7.84272 3.15999 7.16272 2.54999C6.92272 2.33999 6.8427 2.00997 6.9527 1.71997C7.0627 1.42997 7.34271 1.22998 7.65271 1.22998H15.0127C15.4227 1.22998 15.7627 1.56998 15.7627 1.97998V11.98C15.7627 13.52 14.5327 14.75 13.0127 14.75ZM2.7627 13.25H13.0127C13.7027 13.25 14.2627 12.69 14.2627 12V2.75H9.2027C9.5527 3.4 9.74269 4.13001 9.7627 4.89001C9.7827 5.76001 9.56268 6.62 9.12268 7.37C8.88268 7.79999 8.55269 8.21001 8.19269 8.51001C7.39269 9.27001 6.29268 9.72 5.12268 9.75C4.29268 9.78 3.47271 9.57 2.77271 9.19V13.25H2.7627Z" fill="#171717"/>
<path d="M19.0127 20.75H18.0127C17.6027 20.75 17.2627 20.41 17.2627 20C17.2627 19.31 16.7027 18.75 16.0127 18.75C15.3227 18.75 14.7627 19.31 14.7627 20C14.7627 20.41 14.4227 20.75 14.0127 20.75H10.0127C9.6027 20.75 9.2627 20.41 9.2627 20C9.2627 19.31 8.7027 18.75 8.0127 18.75C7.3227 18.75 6.7627 19.31 6.7627 20C6.7627 20.41 6.4227 20.75 6.0127 20.75H5.0127C2.9427 20.75 1.2627 19.07 1.2627 17V14C1.2627 13.59 1.6027 13.25 2.0127 13.25H13.0127C13.7027 13.25 14.2627 12.69 14.2627 12V5C14.2627 4.59 14.6027 4.25 15.0127 4.25H16.8527C17.8427 4.25 18.7527 4.78001 19.2427 5.64001L20.9527 8.63C21.0827 8.86 21.0827 9.15 20.9527 9.38C20.8227 9.61 20.5727 9.75 20.3027 9.75H19.0127C18.8727 9.75 18.7627 9.86 18.7627 10V13C18.7627 13.14 18.8727 13.25 19.0127 13.25H22.0127C22.4227 13.25 22.7627 13.59 22.7627 14V17C22.7627 19.07 21.0827 20.75 19.0127 20.75ZM18.6627 19.25H19.0127C20.2527 19.25 21.2627 18.24 21.2627 17V14.75H19.0127C18.0527 14.75 17.2627 13.96 17.2627 13V10C17.2627 9.04 18.0427 8.25 19.0127 8.25L17.9427 6.38C17.7227 5.99 17.3027 5.75 16.8527 5.75H15.7627V12C15.7627 13.52 14.5327 14.75 13.0127 14.75H2.7627V17C2.7627 18.24 3.7727 19.25 5.0127 19.25H5.36267C5.69267 18.1 6.7527 17.25 8.0127 17.25C9.2727 17.25 10.3327 18.1 10.6627 19.25H13.3727C13.7027 18.1 14.7627 17.25 16.0227 17.25C17.2827 17.25 18.3327 18.1 18.6627 19.25Z" fill="#171717"/>
<path d="M8.0127 22.75C6.4927 22.75 5.2627 21.52 5.2627 20C5.2627 18.48 6.4927 17.25 8.0127 17.25C9.5327 17.25 10.7627 18.48 10.7627 20C10.7627 21.52 9.5327 22.75 8.0127 22.75ZM8.0127 18.75C7.3227 18.75 6.7627 19.31 6.7627 20C6.7627 20.69 7.3227 21.25 8.0127 21.25C8.7027 21.25 9.2627 20.69 9.2627 20C9.2627 19.31 8.7027 18.75 8.0127 18.75Z" fill="#171717"/>
<path d="M16.0127 22.75C14.4927 22.75 13.2627 21.52 13.2627 20C13.2627 18.48 14.4927 17.25 16.0127 17.25C17.5327 17.25 18.7627 18.48 18.7627 20C18.7627 21.52 17.5327 22.75 16.0127 22.75ZM16.0127 18.75C15.3227 18.75 14.7627 19.31 14.7627 20C14.7627 20.69 15.3227 21.25 16.0127 21.25C16.7027 21.25 17.2627 20.69 17.2627 20C17.2627 19.31 16.7027 18.75 16.0127 18.75Z" fill="#171717"/>
<path d="M22.0127 14.75H19.0127C18.0527 14.75 17.2627 13.96 17.2627 13V10C17.2627 9.04 18.0527 8.25 19.0127 8.25H20.3027C20.5727 8.25 20.8227 8.39 20.9527 8.63L22.6627 11.63C22.7227 11.74 22.7627 11.87 22.7627 12V14C22.7627 14.41 22.4227 14.75 22.0127 14.75ZM19.0127 9.75C18.8727 9.75 18.7627 9.86 18.7627 10V13C18.7627 13.14 18.8727 13.25 19.0127 13.25H21.2627V12.2L19.8627 9.75H19.0127Z" fill="#171717"/>
<path d="M5.0127 9.75C2.3927 9.75 0.262695 7.62 0.262695 5C0.262695 3.54 0.912725 2.18998 2.04272 1.28998C2.88272 0.619978 3.9427 0.25 5.0127 0.25C7.6327 0.25 9.7627 2.38 9.7627 5C9.7627 6.36 9.1727 7.66 8.1427 8.56C7.2727 9.33 6.1627 9.75 5.0127 9.75ZM5.0127 1.75C4.2727 1.75 3.57267 1.99997 2.98267 2.46997C2.21267 3.07997 1.7627 4.01 1.7627 5C1.7627 6.79 3.2227 8.25 5.0127 8.25C5.7927 8.25 6.55272 7.96 7.16272 7.44C7.86272 6.82 8.2627 5.94 8.2627 5C8.2627 3.21 6.8027 1.75 5.0127 1.75Z" fill="#171717"/>
<path d="M4.01259 6.75C3.76259 6.75 3.51257 6.62001 3.37257 6.39001C3.16257 6.03001 3.27258 5.56999 3.63258 5.35999L4.5226 4.83002V3.75C4.5226 3.34 4.8626 3 5.2726 3C5.6826 3 6.0226 3.34 6.0226 3.75V5.25C6.0226 5.51 5.88261 5.76001 5.66261 5.89001L4.41261 6.64001C4.27261 6.72001 4.14259 6.75 4.01259 6.75Z" fill="#171717"/>
</svg>
