<svg width="25" height="24" viewBox="0 0 25 24" fill="none" xmlns="http://www.w3.org/2000/svg">
<path opacity="0.4" d="M15.0107 3V12C15.0107 13.1 14.1107 14 13.0107 14H2.01074V7.62C2.74074 8.49 3.86077 9.03 5.10077 9C6.11077 8.98 7.02074 8.59 7.70074 7.94C8.01074 7.68 8.27076 7.34999 8.47076 6.98999C8.83076 6.37999 9.03074 5.65997 9.01074 4.90997C8.98074 3.73997 8.46076 2.71 7.65076 2H14.0107C14.5607 2 15.0107 2.45 15.0107 3Z" fill="#171717"/>
<path d="M22.0107 14V17C22.0107 18.66 20.6707 20 19.0107 20H18.0107C18.0107 18.9 17.1107 18 16.0107 18C14.9107 18 14.0107 18.9 14.0107 20H10.0107C10.0107 18.9 9.11074 18 8.01074 18C6.91074 18 6.01074 18.9 6.01074 20H5.01074C3.35074 20 2.01074 18.66 2.01074 17V14H13.0107C14.1107 14 15.0107 13.1 15.0107 12V5H16.8508C17.5708 5 18.2308 5.39001 18.5908 6.01001L20.3007 9H19.0107C18.4607 9 18.0107 9.45 18.0107 10V13C18.0107 13.55 18.4607 14 19.0107 14H22.0107Z" fill="#171717"/>
<path opacity="0.4" d="M8.01074 22C9.11531 22 10.0107 21.1046 10.0107 20C10.0107 18.8954 9.11531 18 8.01074 18C6.90617 18 6.01074 18.8954 6.01074 20C6.01074 21.1046 6.90617 22 8.01074 22Z" fill="#171717"/>
<path opacity="0.4" d="M16.0107 22C17.1153 22 18.0107 21.1046 18.0107 20C18.0107 18.8954 17.1153 18 16.0107 18C14.9062 18 14.0107 18.8954 14.0107 20C14.0107 21.1046 14.9062 22 16.0107 22Z" fill="#171717"/>
<path opacity="0.4" d="M22.0107 12.53V14H19.0107C18.4607 14 18.0107 13.55 18.0107 13V10C18.0107 9.45 18.4607 9 19.0107 9H20.3007L21.7507 11.54C21.9207 11.84 22.0107 12.18 22.0107 12.53Z" fill="#171717"/>
<path d="M7.65093 2.00002C6.93093 1.36002 5.97089 0.98002 4.92089 1.00002C3.98089 1.02002 3.12091 1.37001 2.44091 1.93001C1.54091 2.68001 0.980914 3.83005 1.01091 5.09005C1.03091 5.84005 1.25092 6.54002 1.64092 7.13002C1.75092 7.30002 1.87091 7.47001 2.01091 7.62001C2.74091 8.49001 3.86094 9.03002 5.10094 9.00002C6.11094 8.98002 7.02092 8.59002 7.70092 7.94002C8.01092 7.68002 8.27094 7.35001 8.47094 6.99001C8.83094 6.38001 9.03091 5.65999 9.01091 4.90999C8.98091 3.73999 8.46093 2.71002 7.65093 2.00002ZM7.07091 4.52004L4.98088 6.54C4.83088 6.68 4.65093 6.75002 4.46093 6.75002C4.27093 6.75002 4.09091 6.68 3.94091 6.54L2.9309 5.58004C2.6309 5.29004 2.62094 4.82004 2.91094 4.52004C3.20094 4.22004 3.67094 4.21002 3.97094 4.50002L4.46093 4.96999L6.03093 3.45003C6.33093 3.16003 6.80093 3.16999 7.09093 3.46999C7.38093 3.75999 7.37091 4.23004 7.07091 4.52004Z" fill="#171717"/>
</svg>
