<svg width="24" height="24" viewBox="0 0 24 24" fill="none" xmlns="http://www.w3.org/2000/svg">
<path d="M17.4511 22.75C16.3211 22.75 15.1311 22.48 13.9011 21.96C12.7011 21.45 11.4911 20.75 10.3111 19.9L9.87109 19.57C9.54109 19.32 9.48109 18.85 9.73109 18.52C9.98109 18.19 10.4511 18.13 10.7811 18.38L11.2011 18.69C12.2811 19.48 13.3911 20.12 14.4911 20.58C16.2011 21.31 17.8011 21.48 19.1211 20.93C19.6311 20.72 20.0811 20.4 20.4911 19.94C20.7211 19.69 20.9011 19.42 21.0511 19.1C21.1711 18.85 21.2311 18.59 21.2311 18.33C21.2311 18.17 21.2011 18.01 21.1211 17.83C21.1011 17.78 21.0311 17.66 20.8411 17.53L17.5211 15.17C17.3211 15.03 17.1411 14.93 16.9711 14.86C16.7111 14.76 16.5411 14.75 16.3211 14.89C16.1211 14.99 15.9411 15.14 15.7411 15.34L14.9811 16.09C14.5911 16.47 13.9911 16.56 13.5311 16.39C13.5111 16.38 13.4111 16.34 13.3911 16.33C13.3811 16.32 13.2711 16.28 13.2611 16.27C13.0411 16.16 12.8011 16 12.5211 15.8C12.1911 15.56 12.1111 15.09 12.3511 14.75C12.5911 14.41 13.0611 14.34 13.4011 14.58C13.6111 14.73 13.8011 14.85 13.9611 14.94L13.9511 15L14.6811 14.27C14.9911 13.96 15.2911 13.73 15.5811 13.58C16.1311 13.24 16.8311 13.18 17.5311 13.47C17.7911 13.58 18.0711 13.73 18.3711 13.94L21.6911 16.3C22.0511 16.55 22.3311 16.87 22.4911 17.25C22.6411 17.63 22.7111 17.98 22.7111 18.33C22.7111 18.81 22.6011 19.29 22.3911 19.74C22.1811 20.19 21.9211 20.58 21.5911 20.94C21.0211 21.57 20.4011 22.02 19.6811 22.31C18.9911 22.6 18.2411 22.75 17.4511 22.75ZM13.9511 15.01L13.7911 15.69L14.0611 14.99C14.0211 14.98 13.9711 14.99 13.9511 15.01Z" fill="#171717"/>
<path d="M7.47098 17.24C7.28098 17.24 7.08098 17.17 6.94098 17.02C5.89098 15.96 4.92098 14.83 4.08098 13.66C3.22098 12.46 2.53098 11.27 2.04098 10.1C1.51098 8.87 1.25098 7.67 1.25098 6.54C1.25098 5.76 1.39098 5.02 1.66098 4.33C1.95098 3.61 2.39098 2.96 3.00098 2.39C3.77098 1.64 4.65098 1.25 5.59098 1.25C5.98098 1.25 6.38098 1.34 6.72098 1.5C7.11098 1.68 7.44098 1.95 7.68098 2.31L10.001 5.58C10.211 5.87 10.371 6.15 10.481 6.43C10.611 6.73 10.681 7.03 10.681 7.32C10.681 7.7 10.571 8.07 10.361 8.42C10.211 8.69 9.98098 8.98 9.69098 9.27L9.01098 9.98C9.02098 10.01 9.03098 10.03 9.04098 10.05C9.16098 10.26 9.40098 10.62 9.86098 11.16C10.341 11.72 10.811 12.22 11.271 12.7C11.561 13 11.561 13.47 11.261 13.76C10.961 14.05 10.491 14.05 10.201 13.75C9.71098 13.25 9.23098 12.72 8.72098 12.13C8.25098 11.58 7.91098 11.11 7.70098 10.72C7.68098 10.68 7.66098 10.64 7.65098 10.6L7.58098 10.43C7.52098 10.21 7.50098 10.08 7.50098 9.94C7.50098 9.58 7.63098 9.26 7.88098 9.01L8.63098 8.23C8.83098 8.03 8.98098 7.84 9.08098 7.67C9.16098 7.54 9.19098 7.43 9.19098 7.33C9.19098 7.25 9.16098 7.13 9.11098 7.01C9.03098 6.82 8.92098 6.65 8.78098 6.45L6.46098 3.17C6.36098 3.03 6.24098 2.93 6.09098 2.86C5.94098 2.79 5.77098 2.75 5.59098 2.75C5.04098 2.75 4.53098 2.99 4.04098 3.47C3.59098 3.9 3.26098 4.37 3.06098 4.88C2.85098 5.4 2.75098 5.95 2.75098 6.54C2.75098 7.47 2.97098 8.48 3.41098 9.52C3.86098 10.58 4.49098 11.68 5.29098 12.78C6.09098 13.88 7.00098 14.95 8.00098 15.96C8.29098 16.25 8.29098 16.73 8.00098 17.02C7.85098 17.17 7.66098 17.24 7.47098 17.24Z" fill="#171717"/>
<path d="M2.00092 22.75C1.81092 22.75 1.62092 22.68 1.47092 22.53C1.18092 22.24 1.18092 21.76 1.47092 21.47L21.4709 1.47C21.7609 1.18 22.2409 1.18 22.5309 1.47C22.8209 1.76 22.8209 2.24 22.5309 2.53L2.53092 22.53C2.38092 22.68 2.19092 22.75 2.00092 22.75Z" fill="#171717"/>
</svg>
