<svg width="24" height="24" viewBox="0 0 24 24" fill="none" xmlns="http://www.w3.org/2000/svg">
<path d="M17.451 22.75C16.321 22.75 15.131 22.48 13.901 21.96C12.701 21.45 11.491 20.75 10.311 19.9C9.13098 19.04 8.00098 18.07 6.94098 17.02C5.88098 15.95 4.92098 14.82 4.07098 13.66C3.21098 12.46 2.52098 11.27 2.03098 10.1C1.51098 8.87 1.25098 7.67 1.25098 6.54C1.25098 5.76 1.39098 5.02 1.66098 4.33C1.95098 3.61 2.39098 2.96 3.00098 2.39C3.77098 1.64 4.65098 1.25 5.59098 1.25C5.98098 1.25 6.38098 1.34 6.72098 1.5C7.11098 1.68 7.44098 1.95 7.68098 2.31L10.001 5.58C10.211 5.87 10.371 6.15 10.481 6.43C10.611 6.73 10.681 7.03 10.681 7.32C10.681 7.7 10.571 8.07 10.361 8.42C10.211 8.69 9.98098 8.98 9.69098 9.27L9.01098 9.98C9.02098 10.01 9.03098 10.03 9.04098 10.05C9.16098 10.26 9.40098 10.62 9.86098 11.16C10.341 11.72 10.811 12.22 11.271 12.7C11.871 13.29 12.351 13.74 12.811 14.12C13.381 14.6 13.751 14.84 13.971 14.95L13.951 15L14.681 14.28C14.991 13.97 15.291 13.74 15.581 13.59C16.131 13.25 16.831 13.19 17.531 13.48C17.791 13.59 18.071 13.74 18.371 13.95L21.691 16.31C22.051 16.56 22.331 16.88 22.491 17.26C22.641 17.64 22.711 17.99 22.711 18.34C22.711 18.82 22.601 19.3 22.391 19.75C22.181 20.2 21.921 20.59 21.591 20.95C21.021 21.58 20.401 22.03 19.681 22.32C18.991 22.6 18.241 22.75 17.451 22.75ZM5.59098 2.75C5.04098 2.75 4.53098 2.99 4.04098 3.47C3.59098 3.9 3.26098 4.37 3.06098 4.88C2.85098 5.4 2.75098 5.95 2.75098 6.54C2.75098 7.47 2.97098 8.48 3.41098 9.52C3.86098 10.58 4.49098 11.68 5.29098 12.78C6.09098 13.88 7.00098 14.95 8.00098 15.96C9.00098 16.95 10.081 17.87 11.191 18.68C12.271 19.47 13.381 20.11 14.481 20.57C16.191 21.3 17.791 21.47 19.111 20.92C19.621 20.71 20.071 20.39 20.481 19.93C20.711 19.68 20.891 19.41 21.041 19.09C21.161 18.84 21.221 18.58 21.221 18.32C21.221 18.16 21.191 18 21.111 17.82C21.091 17.77 21.021 17.65 20.831 17.52L17.511 15.16C17.311 15.02 17.131 14.92 16.961 14.85C16.701 14.75 16.531 14.74 16.311 14.88C16.111 14.98 15.931 15.13 15.731 15.33L14.971 16.08C14.581 16.46 13.981 16.55 13.521 16.38L13.251 16.26C12.841 16.04 12.361 15.7 11.831 15.25C11.341 14.84 10.841 14.37 10.201 13.74C9.70098 13.23 9.22098 12.7 8.71098 12.12C8.24098 11.57 7.90098 11.1 7.69098 10.71L7.56098 10.41C7.50098 10.19 7.48098 10.06 7.48098 9.92C7.48098 9.56 7.61098 9.24 7.86098 8.99L8.61098 8.21C8.81098 8.01 8.96098 7.82 9.06098 7.65C9.14098 7.52 9.17098 7.41 9.17098 7.31C9.17098 7.23 9.14098 7.11 9.09098 6.99C9.03098 6.82 8.92098 6.65 8.78098 6.45L6.46098 3.17C6.36098 3.03 6.24098 2.93 6.09098 2.86C5.93098 2.79 5.76098 2.75 5.59098 2.75ZM13.951 15.01L13.791 15.69L14.061 14.99C14.021 14.98 13.981 14.99 13.951 15.01Z" fill="#171717"/>
<path d="M16.2309 8.52C16.0409 8.52 15.8509 8.45 15.7009 8.3C15.4109 8.01 15.4109 7.53 15.7009 7.24L19.2409 3.7C19.5309 3.41 20.0109 3.41 20.3009 3.7C20.5909 3.99 20.5909 4.47 20.3009 4.76L16.7609 8.3C16.6209 8.44 16.4209 8.52 16.2309 8.52Z" fill="#171717"/>
<path d="M19.7709 8.52C19.5809 8.52 19.3909 8.45 19.2409 8.3L15.7009 4.76C15.4109 4.47 15.4109 3.99 15.7009 3.7C15.9909 3.41 16.4709 3.41 16.7609 3.7L20.3009 7.24C20.5909 7.53 20.5909 8.01 20.3009 8.3C20.1509 8.44 19.9609 8.52 19.7709 8.52Z" fill="#171717"/>
</svg>
