<svg width="24" height="24" viewBox="0 0 24 24" fill="none" xmlns="http://www.w3.org/2000/svg">
<path d="M16.6698 20.83C16.6498 20.83 16.6398 20.83 16.6298 20.83H5.53979C2.59979 20.62 1.27979 18.35 1.27979 16.34C1.27979 14.54 2.32979 12.54 4.60979 11.99C3.60979 8.15001 5.50979 5.46001 7.74979 4.19001C10.3498 2.71001 14.2198 2.70001 16.5698 5.55001C16.5898 5.58001 16.6098 5.61001 16.6298 5.64001C17.3298 6.53001 17.8198 7.60001 18.0998 8.84001C19.3298 9.11001 20.3898 9.77001 21.2198 10.75C23.1098 12.98 23.4698 16.86 20.7698 19.24C19.6498 20.27 18.1998 20.83 16.6698 20.83ZM11.4898 4.70001C10.4298 4.70001 9.37979 4.99001 8.49979 5.49001C6.07979 6.87001 5.25979 9.43001 6.29979 12.35C6.37979 12.58 6.34979 12.84 6.20979 13.03C6.06979 13.22 5.83978 13.35 5.59978 13.35C3.65978 13.49 2.78979 14.95 2.78979 16.34C2.78979 17.73 3.65978 19.19 5.59978 19.34H16.6398C17.7998 19.35 18.9198 18.92 19.7698 18.14L19.7798 18.13C21.8098 16.35 21.5098 13.42 20.0798 11.73C19.3798 10.9 18.4498 10.39 17.3798 10.25C17.0498 10.21 16.7898 9.96001 16.7398 9.63001C16.5298 8.39001 16.0898 7.35001 15.4298 6.53001C15.4098 6.51001 15.3998 6.48001 15.3798 6.46001C14.3198 5.22001 12.8998 4.70001 11.4898 4.70001Z" fill="#171717"/>
<path d="M7.25984 13.76C7.14984 13.76 7.02984 13.73 6.92984 13.68C6.50984 13.47 6.04984 13.36 5.57984 13.35C5.16984 13.34 4.83984 13 4.83984 12.59C4.84984 12.18 5.23984 11.84 5.59984 11.85C6.28984 11.86 6.97984 12.03 7.58984 12.34C7.95984 12.52 8.10984 12.98 7.92984 13.35C7.79984 13.61 7.53984 13.76 7.25984 13.76Z" fill="#171717"/>
<path d="M15.85 10.67C15.57 10.67 15.31 10.52 15.18 10.25C14.99 9.87998 15.15 9.42998 15.52 9.23998C16.14 8.92998 16.83 8.75998 17.51 8.74998C17.91 8.73998 18.27 9.06998 18.27 9.48998C18.28 9.89998 17.95 10.25 17.53 10.25C17.07 10.26 16.6 10.37 16.18 10.58C16.07 10.64 15.96 10.67 15.85 10.67Z" fill="#171717"/>
<path d="M20.65 11.98C20.44 11.98 20.22 11.89 20.07 11.71C19.38 10.88 18.44 10.37 17.37 10.23C17.04 10.19 16.78 9.94 16.73 9.61C16.52 8.37 16.08 7.33 15.42 6.51C15.31 6.38 15.25 6.21 15.25 6.04C15.25 5.84 15.33 5.64 15.47 5.5C16.27 4.69 17.33 4.25 18.47 4.25C20.81 4.25 22.72 6.16 22.72 8.5C22.72 9.8 22.14 11.01 21.12 11.82C20.98 11.93 20.82 11.98 20.65 11.98ZM18.11 8.84C19.07 9.05 19.94 9.5 20.66 10.16C21.02 9.69 21.22 9.11 21.22 8.5C21.22 6.98 19.99 5.75 18.47 5.75C17.95 5.75 17.45 5.89 17.02 6.17C17.53 6.94 17.89 7.84 18.11 8.84Z" fill="#171717"/>
</svg>
