<svg width="24" height="24" viewBox="0 0 24 24" fill="none" xmlns="http://www.w3.org/2000/svg">
<path d="M16.75 3.56V2C16.75 1.59 16.41 1.25 16 1.25C15.59 1.25 15.25 1.59 15.25 2V3.5H8.74998V2C8.74998 1.59 8.40998 1.25 7.99998 1.25C7.58998 1.25 7.24998 1.59 7.24998 2V3.56C4.54998 3.81 3.23999 5.42 3.03999 7.81C3.01999 8.1 3.25999 8.34 3.53999 8.34H20.46C20.75 8.34 20.99 8.09 20.96 7.81C20.76 5.42 19.45 3.81 16.75 3.56Z" fill="#171717"/>
<path opacity="0.4" d="M20 9.83997C20.55 9.83997 21 10.29 21 10.84V17C21 20 19.5 22 16 22H8C4.5 22 3 20 3 17V10.84C3 10.29 3.45 9.83997 4 9.83997H20Z" fill="#171717"/>
<path d="M14.8399 14.9899L14.3399 15.4999H14.3299L11.2999 18.5299C11.1699 18.6599 10.8999 18.7999 10.7099 18.8199L9.35993 19.0199C8.86993 19.0899 8.52995 18.7399 8.59995 18.2599L8.78996 16.8999C8.81996 16.7099 8.94993 16.4499 9.07993 16.3099L12.1199 13.2799L12.6199 12.7699C12.9499 12.4399 13.3199 12.2 13.7199 12.2C14.0599 12.2 14.4299 12.3599 14.8399 12.7699C15.7399 13.6699 15.4499 14.3799 14.8399 14.9899Z" fill="#171717"/>
</svg>
