<svg width="24" height="24" viewBox="0 0 24 24" fill="none" xmlns="http://www.w3.org/2000/svg">
<path opacity="0.4" d="M12 22C17.5228 22 22 17.5228 22 12C22 6.47715 17.5228 2 12 2C6.47715 2 2 6.47715 2 12C2 17.5228 6.47715 22 12 22Z" fill="#171717"/>
<path d="M17.15 9.43997C16.73 8.46997 15.9401 7.71997 14.8501 7.37997V6.58997C14.8501 6.17997 14.5101 5.83997 14.1001 5.83997C13.6901 5.83997 13.3501 6.17997 13.3501 6.58997V7.17996H10.6401V6.58997C10.6401 6.17997 10.3001 5.83997 9.89007 5.83997C9.48007 5.83997 9.14007 6.17997 9.14007 6.58997V7.37997C8.05007 7.71997 7.26005 8.46997 6.84005 9.43997C6.70005 9.76997 6.94004 10.15 7.30004 10.15H16.6701C17.0501 10.14 17.29 9.76997 17.15 9.43997Z" fill="#171717"/>
<path d="M17 11.14C17.28 11.14 17.5 11.36 17.5 11.64V14.17C17.5 16.37 16 18.17 13.5 18.17H10.5C8 18.17 6.5 16.37 6.5 14.17V11.64C6.5 11.36 6.72 11.14 7 11.14H17Z" fill="#171717"/>
</svg>
