<svg width="24" height="24" viewBox="0 0 24 24" fill="none" xmlns="http://www.w3.org/2000/svg">
<path d="M12 8.25C10.21 8.25 8.75 9.71 8.75 11.5C8.75 13.29 10.21 14.75 12 14.75C13.79 14.75 15.25 13.29 15.25 11.5C15.25 9.71 13.79 8.25 12 8.25ZM13 11.18C13 11.79 12.67 12.37 12.15 12.68L11.38 13.14C11.26 13.21 11.13 13.25 10.99 13.25C10.74 13.25 10.49 13.12 10.35 12.89C10.14 12.53 10.25 12.07 10.61 11.86L11.37 11.4C11.45 11.35 11.49 11.27 11.49 11.19V10.26C11.49 9.85 11.83 9.51 12.24 9.51C12.65 9.51 13 9.84 13 10.25V11.18Z" fill="#171717"/>
<path d="M18.5398 4.17001L13.0398 2.11001C12.4698 1.90001 11.5398 1.90001 10.9698 2.11001L5.4698 4.17001C4.4098 4.57001 3.5498 5.81001 3.5498 6.94001V15.04C3.5498 15.85 4.0798 16.92 4.7298 17.4L10.2298 21.51C11.1998 22.24 12.7898 22.24 13.7598 21.51L19.2598 17.4C19.9098 16.91 20.4398 15.85 20.4398 15.04V6.94001C20.4498 5.81001 19.5898 4.57001 18.5398 4.17001ZM11.9998 16.25C9.3798 16.25 7.2498 14.12 7.2498 11.5C7.2498 8.88001 9.3798 6.75001 11.9998 6.75001C14.6198 6.75001 16.7498 8.88001 16.7498 11.5C16.7498 14.12 14.6198 16.25 11.9998 16.25Z" fill="#171717"/>
</svg>
