<svg width="24" height="24" viewBox="0 0 24 24" fill="none" xmlns="http://www.w3.org/2000/svg">
<path d="M14.8901 3.45H9.11014C8.71014 3.45 8.39014 3.13 8.39014 2.73C8.39014 2.33 8.71014 2 9.11014 2H14.8901C15.2901 2 15.6101 2.32 15.6101 2.72C15.6101 3.12 15.2901 3.45 14.8901 3.45Z" fill="#171717"/>
<path d="M14.0001 19.97V17.03C14.0001 15.22 15.2201 14 17.0301 14H19.9701C20.2001 14 20.4201 14.02 20.6301 14.06C20.6501 13.82 20.6701 13.58 20.6701 13.33C20.6701 8.54002 16.7801 4.65002 12.0001 4.65002C7.22008 4.65002 3.33008 8.54002 3.33008 13.33C3.33008 18.11 7.22008 22 12.0001 22C12.8501 22 13.6601 21.86 14.4401 21.64C14.1601 21.17 14.0001 20.61 14.0001 19.97ZM12.7501 13C12.7501 13.41 12.4101 13.75 12.0001 13.75C11.5901 13.75 11.2501 13.41 11.2501 13V8.00002C11.2501 7.59002 11.5901 7.25002 12.0001 7.25002C12.4101 7.25002 12.7501 7.59002 12.7501 8.00002V13Z" fill="#171717"/>
<path d="M19.97 15H17.04C15.76 15 15 15.76 15 17.03V19.97C15 21.24 15.76 22 17.04 22H19.97C21.24 22 22 21.24 22 19.97V17.03C22 15.76 21.24 15 19.97 15ZM17.92 20.06C17.92 20.38 17.66 20.64 17.33 20.64C17.01 20.64 16.75 20.38 16.75 20.06V16.94C16.75 16.62 17.01 16.36 17.33 16.36C17.66 16.36 17.92 16.62 17.92 16.94V20.06ZM20.25 20.06C20.25 20.38 19.99 20.64 19.67 20.64C19.35 20.64 19.08 20.38 19.08 20.06V16.94C19.08 16.62 19.35 16.36 19.67 16.36C19.99 16.36 20.25 16.62 20.25 16.94V20.06Z" fill="#171717"/>
</svg>
