<svg width="25" height="24" viewBox="0 0 25 24" fill="none" xmlns="http://www.w3.org/2000/svg">
<path opacity="0.4" d="M18.0156 18.86H17.2556C16.4556 18.86 15.6956 19.17 15.1356 19.73L13.4256 21.42C12.6456 22.19 11.3756 22.19 10.5956 21.42L8.88562 19.73C8.32562 19.17 7.55562 18.86 6.76562 18.86H6.01562C4.35563 18.86 3.01562 17.53 3.01562 15.89V4.97998C3.01562 3.33998 4.35563 2.01001 6.01562 2.01001H18.0156C19.6756 2.01001 21.0156 3.33998 21.0156 4.97998V15.89C21.0156 17.52 19.6756 18.86 18.0156 18.86Z" fill="#171717"/>
<path d="M10.3956 14.5099H7.71562C7.27562 14.5099 6.86562 14.2999 6.60562 13.9399C6.35562 13.5999 6.29562 13.18 6.41562 12.78C6.76562 11.71 7.62562 11.1299 8.38562 10.6099C9.18562 10.0699 9.63562 9.72996 9.63562 9.14996C9.63562 8.62996 9.21562 8.20996 8.69562 8.20996C8.17562 8.20996 7.75563 8.62996 7.75563 9.14996C7.75563 9.55996 7.41563 9.89996 7.00563 9.89996C6.59563 9.89996 6.25563 9.55996 6.25563 9.14996C6.25563 7.80996 7.34562 6.70996 8.69562 6.70996C10.0456 6.70996 11.1356 7.79996 11.1356 9.14996C11.1356 10.56 10.0756 11.2799 9.22563 11.8599C8.69563 12.2199 8.19562 12.5599 7.94562 13.0099H10.3856C10.7956 13.0099 11.1356 13.3499 11.1356 13.7599C11.1356 14.1699 10.8056 14.5099 10.3956 14.5099Z" fill="#171717"/>
<path d="M16.0556 14.5099C15.6456 14.5099 15.3056 14.1699 15.3056 13.7599V13.0699H13.3456C13.3456 13.0699 13.3456 13.0699 13.3356 13.0699C12.8456 13.0699 12.3956 12.81 12.1456 12.39C11.8956 11.96 11.8956 11.4299 12.1456 11.0099C12.8256 9.83995 13.6156 8.50991 14.3356 7.34991C14.6556 6.83991 15.2656 6.60996 15.8356 6.76996C16.4056 6.93996 16.8056 7.45993 16.7956 8.05993V11.58H17.0156C17.4256 11.58 17.7656 11.92 17.7656 12.33C17.7656 12.74 17.4256 13.08 17.0156 13.08H16.8056V13.77C16.8056 14.18 16.4756 14.5099 16.0556 14.5099ZM15.3056 8.63995C14.7156 9.59995 14.1056 10.6299 13.5556 11.5699H15.3056V8.63995Z" fill="#171717"/>
</svg>
