<svg width="25" height="24" viewBox="0 0 25 24" fill="none" xmlns="http://www.w3.org/2000/svg">
<path d="M3.01562 4.96997C3.01562 3.32997 4.35563 2 6.01562 2H18.0156C19.6756 2 21.0156 3.32997 21.0156 4.96997V15.88C21.0156 17.52 19.6756 18.85 18.0156 18.85H17.2556C16.4556 18.85 15.6956 19.16 15.1356 19.72L13.4256 21.41C12.6456 22.18 11.3756 22.18 10.5956 21.41L8.88562 19.72C8.32562 19.16 7.55563 18.85 6.76562 18.85H6.01562C4.35563 18.85 3.01562 17.52 3.01562 15.88V9.06995" stroke="#171717" stroke-width="1.5" stroke-miterlimit="10" stroke-linecap="round" stroke-linejoin="round"/>
<path d="M7.01562 9.16003C7.01562 8.23003 7.77563 7.46997 8.70563 7.46997C9.63563 7.46997 10.3956 8.23003 10.3956 9.16003C10.3956 11.04 7.72562 11.24 7.13562 13.03C7.01562 13.4 7.32562 13.77 7.71562 13.77H10.3956" stroke="#171717" stroke-width="1.5" stroke-linecap="round" stroke-linejoin="round"/>
<path d="M16.0556 13.76V8.05003C16.0556 7.79003 15.8856 7.55997 15.6356 7.48997C15.3856 7.41997 15.1156 7.51997 14.9756 7.73997C14.2556 8.89997 13.4756 10.22 12.7956 11.38C12.6856 11.57 12.6856 11.82 12.7956 12.01C12.9056 12.2 13.1156 12.3199 13.3456 12.3199H17.0156" stroke="#171717" stroke-width="1.5" stroke-linecap="round" stroke-linejoin="round"/>
</svg>
