<svg width="25" height="24" viewBox="0 0 25 24" fill="none" xmlns="http://www.w3.org/2000/svg">
<path d="M12.0156 22.75C11.3156 22.75 10.6056 22.48 10.0756 21.95L8.36563 20.26C7.93563 19.84 7.37562 19.61 6.77562 19.61H6.01562C3.94563 19.61 2.26562 17.94 2.26562 15.89V4.97998C2.26562 2.92998 3.94563 1.26001 6.01562 1.26001H18.0156C20.0856 1.26001 21.7656 2.92998 21.7656 4.97998V15.89C21.7656 17.94 20.0856 19.61 18.0156 19.61H17.2556C16.6556 19.61 16.0856 19.84 15.6656 20.26L13.9556 21.95C13.4256 22.48 12.7156 22.75 12.0156 22.75ZM6.01562 2.75C4.77562 2.75 3.76562 3.74997 3.76562 4.96997V15.88C3.76562 17.11 4.77562 18.1 6.01562 18.1H6.77562C7.77562 18.1 8.71563 18.4899 9.42563 19.1899L11.1356 20.88C11.6256 21.36 12.4156 21.36 12.9056 20.88L14.6156 19.1899C15.3256 18.4899 16.2656 18.1 17.2656 18.1H18.0156C19.2556 18.1 20.2656 17.1 20.2656 15.88V4.96997C20.2656 3.73997 19.2556 2.75 18.0156 2.75H6.01562Z" fill="#171717"/>
<path d="M10.3959 14.51H7.71585C7.27585 14.51 6.86585 14.2999 6.60585 13.9399C6.35585 13.5999 6.29585 13.18 6.41585 12.78C6.76585 11.71 7.62585 11.13 8.38585 10.61C9.18585 10.07 9.63585 9.73002 9.63585 9.15002C9.63585 8.63002 9.21585 8.20996 8.69585 8.20996C8.17585 8.20996 7.75586 8.63002 7.75586 9.15002C7.75586 9.56002 7.41586 9.90002 7.00586 9.90002C6.59586 9.90002 6.25586 9.56002 6.25586 9.15002C6.25586 7.81002 7.34585 6.70996 8.69585 6.70996C10.0458 6.70996 11.1358 7.80002 11.1358 9.15002C11.1358 10.56 10.0759 11.28 9.22586 11.86C8.69586 12.22 8.19585 12.56 7.94585 13.01H10.3858C10.7958 13.01 11.1358 13.35 11.1358 13.76C11.1358 14.17 10.8059 14.51 10.3959 14.51Z" fill="#171717"/>
<path d="M16.0555 14.5101C15.6455 14.5101 15.3055 14.1701 15.3055 13.7601V13.07H13.3455C13.3455 13.07 13.3455 13.07 13.3355 13.07C12.8455 13.07 12.3955 12.8101 12.1455 12.3901C11.8955 11.9601 11.8955 11.4301 12.1455 11.0101C12.8255 9.84007 13.6155 8.51003 14.3355 7.35003C14.6555 6.84003 15.2655 6.61008 15.8355 6.77008C16.4055 6.94008 16.8055 7.46012 16.7955 8.06012V11.58H17.0155C17.4255 11.58 17.7655 11.92 17.7655 12.33C17.7655 12.74 17.4255 13.08 17.0155 13.08H16.8055V13.7701C16.8055 14.1801 16.4755 14.5101 16.0555 14.5101ZM15.3055 8.64007C14.7155 9.60007 14.1055 10.63 13.5555 11.57H15.3055V8.64007Z" fill="#171717"/>
</svg>
