<svg width="25" height="24" viewBox="0 0 25 24" fill="none" xmlns="http://www.w3.org/2000/svg">
<path opacity="0.4" d="M2.36564 13.96C2.75564 14.52 3.44564 14.84 4.23564 14.84H8.33564C8.60564 14.84 8.85564 14.95 9.02564 15.15C9.20564 15.35 9.27564 15.63 9.23564 15.92L8.72564 19.2C8.50564 20.18 9.15564 21.28 10.1356 21.61C11.0456 21.95 12.1156 21.49 12.5456 20.84L16.7556 14.57L16.8756 14.37V5.53003L16.7256 5.38003L13.5556 2.93003C13.1356 2.51003 12.1856 2.28003 11.5156 2.28003H7.61564C6.27564 2.28003 4.92564 3.29003 4.62564 4.52003L2.16564 12.01C1.91564 12.72 1.98564 13.42 2.36564 13.96Z" fill="#171717"/>
<path d="M18.8056 17.61H19.8356C21.3856 17.61 22.0156 17.01 22.0156 15.53V5.48002C22.0156 4.00002 21.3856 3.40002 19.8356 3.40002H18.8056C17.2556 3.40002 16.6256 4.00002 16.6256 5.48002V15.54C16.6256 17.01 17.2556 17.61 18.8056 17.61Z" fill="#171717"/>
</svg>
