<svg width="25" height="24" viewBox="0 0 25 24" fill="none" xmlns="http://www.w3.org/2000/svg">
<path opacity="0.4" d="M16.5354 5.65039L13.4354 3.25039C13.0354 2.85039 12.1354 2.65039 11.5354 2.65039H7.73536C6.53536 2.65039 5.23536 3.55039 4.93536 4.75039L2.53536 12.0504C2.03536 13.4504 2.93536 14.6504 4.43536 14.6504H8.43536C9.03536 14.6504 9.53536 15.1504 9.43536 15.8504L8.93536 19.0504C8.73536 19.9504 9.33536 20.9504 10.2354 21.2504C11.0354 21.5504 12.0354 21.1504 12.4354 20.5504L16.5354 14.4504" stroke="#171717" stroke-width="1.5" stroke-miterlimit="10"/>
<path d="M21.6354 5.65037V15.4504C21.6354 16.8504 21.0354 17.3504 19.6354 17.3504H18.6354C17.2354 17.3504 16.6354 16.8504 16.6354 15.4504V5.65037C16.6354 4.25037 17.2354 3.75037 18.6354 3.75037H19.6354C21.0354 3.75037 21.6354 4.25037 21.6354 5.65037Z" stroke="#171717" stroke-width="1.5" stroke-linecap="round" stroke-linejoin="round"/>
</svg>
