<svg width="25" height="24" viewBox="0 0 25 24" fill="none" xmlns="http://www.w3.org/2000/svg">
<path d="M10.8157 22.1C10.5257 22.1 10.2357 22.05 9.96566 21.95C8.71566 21.54 7.91566 20.16 8.19566 18.88L8.68566 15.73C8.69566 15.66 8.69566 15.56 8.62566 15.48C8.57566 15.43 8.50566 15.4 8.42566 15.4H4.42566C3.44566 15.4 2.59566 14.99 2.09566 14.28C1.60566 13.59 1.50566 12.68 1.82566 11.8L4.21566 4.52002C4.58566 3.07002 6.13566 1.90002 7.73566 1.90002H11.5357C12.0957 1.90002 13.3157 2.07002 13.9657 2.72002L16.9957 5.06002L16.0757 6.25002L12.9757 3.85002C12.7257 3.60002 12.0957 3.40002 11.5357 3.40002H7.73566C6.83566 3.40002 5.86566 4.12002 5.66566 4.93002L3.24566 12.28C3.08566 12.72 3.11566 13.12 3.32566 13.41C3.54566 13.72 3.94566 13.9 4.43566 13.9H8.43566C8.95566 13.9 9.43566 14.12 9.76566 14.5C10.1057 14.89 10.2557 15.41 10.1757 15.95L9.67566 19.16C9.55566 19.72 9.93566 20.35 10.4757 20.53C10.9557 20.71 11.5957 20.45 11.8157 20.13L15.9157 14.03L17.1557 14.87L13.0557 20.97C12.5857 21.67 11.6957 22.1 10.8157 22.1Z" fill="#171717"/>
<path d="M19.6356 18.1H18.6356C16.7856 18.1 15.8856 17.23 15.8856 15.45V5.65C15.8856 3.87 16.7856 3 18.6356 3H19.6356C21.4856 3 22.3856 3.87 22.3856 5.65V15.45C22.3856 17.23 21.4856 18.1 19.6356 18.1ZM18.6356 4.5C17.5456 4.5 17.3856 4.76 17.3856 5.65V15.45C17.3856 16.34 17.5456 16.6 18.6356 16.6H19.6356C20.7256 16.6 20.8856 16.34 20.8856 15.45V5.65C20.8856 4.76 20.7256 4.5 19.6356 4.5H18.6356Z" fill="#171717"/>
</svg>
