<svg width="25" height="24" viewBox="0 0 25 24" fill="none" xmlns="http://www.w3.org/2000/svg">
<path d="M17.2156 12.4C14.5656 12.4 12.4156 14.55 12.4156 17.2C12.4156 18.1 12.6656 18.95 13.1156 19.67C13.9456 21.06 15.4656 22 17.2156 22C18.9656 22 20.4957 21.06 21.3157 19.67C21.7557 18.95 22.0156 18.1 22.0156 17.2C22.0156 14.55 19.8656 12.4 17.2156 12.4ZM19.5956 16.57L17.0356 18.93C16.8956 19.06 16.7056 19.13 16.5256 19.13C16.3356 19.13 16.1456 19.06 15.9956 18.91L14.8156 17.73C14.5256 17.44 14.5256 16.96 14.8156 16.67C15.1056 16.38 15.5856 16.38 15.8756 16.67L16.5456 17.34L18.5756 15.46C18.8756 15.18 19.3556 15.2 19.6356 15.5C19.9156 15.81 19.8956 16.29 19.5956 16.57Z" fill="#171717"/>
<path opacity="0.4" d="M22.0156 8.68997C22.0156 9.87997 21.8256 10.98 21.4956 12C21.2856 12.67 21.0156 13.31 20.6956 13.9C19.8156 12.97 18.5856 12.4 17.2156 12.4C14.5656 12.4 12.4156 14.55 12.4156 17.2C12.4156 18.43 12.8856 19.55 13.6456 20.4C13.2756 20.57 12.9356 20.71 12.6356 20.81C12.2956 20.93 11.7356 20.93 11.3956 20.81C8.98563 19.99 4.11563 17 2.53563 12C2.20563 10.98 2.01562 9.87997 2.01562 8.68997C2.01562 5.59997 4.50563 3.09998 7.57563 3.09998C9.38563 3.09998 11.0056 3.97996 12.0156 5.32996C13.0256 3.97996 14.6456 3.09998 16.4556 3.09998C19.5256 3.09998 22.0156 5.59997 22.0156 8.68997Z" fill="#171717"/>
</svg>
