<svg width="25" height="24" viewBox="0 0 25 24" fill="none" xmlns="http://www.w3.org/2000/svg">
<path d="M17.2155 22.75C15.2755 22.75 13.4555 21.72 12.4655 20.05C11.9455 19.21 11.6655 18.21 11.6655 17.2C11.6655 14.14 14.1555 11.65 17.2155 11.65C20.2755 11.65 22.7655 14.14 22.7655 17.2C22.7655 18.22 22.4855 19.21 21.9555 20.07C20.9755 21.72 19.1555 22.75 17.2155 22.75ZM17.2155 13.15C14.9855 13.15 13.1655 14.97 13.1655 17.2C13.1655 17.94 13.3655 18.66 13.7455 19.28C14.4855 20.52 15.7755 21.25 17.2155 21.25C18.6555 21.25 19.9455 20.52 20.6755 19.29C21.0655 18.66 21.2655 17.94 21.2655 17.2C21.2655 14.97 19.4455 13.15 17.2155 13.15Z" fill="#171717"/>
<path d="M16.5256 19.13C16.3356 19.13 16.1456 19.06 15.9956 18.91L14.8156 17.73C14.5256 17.44 14.5256 16.96 14.8156 16.67C15.1056 16.38 15.5856 16.38 15.8756 16.67L16.5456 17.3401L18.5756 15.4601C18.8856 15.1801 19.3556 15.2 19.6356 15.5C19.9156 15.8 19.8956 16.28 19.5956 16.56L17.0356 18.92C16.8956 19.07 16.7056 19.13 16.5256 19.13Z" fill="#171717"/>
<path d="M12.0156 21.65C11.7056 21.65 11.3956 21.61 11.1456 21.52C8.58563 20.65 1.26562 16.41 1.26562 8.69C1.26562 5.19 4.09563 2.34998 7.57563 2.34998C9.23563 2.34998 10.8456 3.02 12.0156 4.19C13.1856 3.02 14.7956 2.34998 16.4556 2.34998C19.9356 2.34998 22.7656 5.19 22.7656 8.69C22.7656 10.64 22.2956 12.51 21.3656 14.26C21.2556 14.47 21.0456 14.62 20.8056 14.65C20.5656 14.68 20.3256 14.6 20.1556 14.42C19.3756 13.6 18.3356 13.14 17.2156 13.14C14.9856 13.14 13.1656 14.96 13.1656 17.19C13.1656 18.18 13.5356 19.14 14.2056 19.89C14.3656 20.07 14.4256 20.31 14.3756 20.54C14.3256 20.77 14.1656 20.97 13.9556 21.07C13.5556 21.25 13.1956 21.4 12.8656 21.51C12.6256 21.61 12.3256 21.65 12.0156 21.65ZM7.57563 3.84998C4.92563 3.84998 2.76562 6.02 2.76562 8.69C2.76562 15.53 9.33562 19.31 11.6356 20.1C11.8256 20.17 12.2056 20.16 12.3856 20.1C12.4156 20.09 12.4456 20.08 12.4756 20.07C11.9456 19.21 11.6656 18.22 11.6656 17.2C11.6656 14.14 14.1556 11.65 17.2156 11.65C18.3756 11.65 19.5156 12.02 20.4556 12.7C20.9956 11.42 21.2656 10.08 21.2656 8.69C21.2656 6.02 19.1056 3.84998 16.4556 3.84998C14.9556 3.84998 13.5156 4.57003 12.6156 5.78003C12.3356 6.16003 11.6956 6.16003 11.4156 5.78003C10.5156 4.57003 9.07563 3.84998 7.57563 3.84998Z" fill="#171717"/>
</svg>
