<svg width="25" height="24" viewBox="0 0 25 24" fill="none" xmlns="http://www.w3.org/2000/svg">
<path d="M17.2155 22.75C15.6455 22.75 14.1455 22.08 13.0855 20.9C12.1655 19.87 11.6655 18.56 11.6655 17.2C11.6655 14.14 14.1555 11.65 17.2155 11.65C18.7555 11.65 20.1855 12.27 21.2555 13.39C21.2855 13.42 21.3155 13.46 21.3355 13.49C22.2755 14.55 22.7655 15.84 22.7655 17.19C22.7655 20.26 20.2755 22.75 17.2155 22.75ZM17.2155 13.15C14.9855 13.15 13.1655 14.97 13.1655 17.2C13.1655 18.19 13.5355 19.15 14.2055 19.9C14.9755 20.76 16.0755 21.25 17.2155 21.25C19.4455 21.25 21.2655 19.43 21.2655 17.2C21.2655 16.17 20.8755 15.19 20.1555 14.43C20.1355 14.41 20.1155 14.38 20.0955 14.36C19.3255 13.58 18.3055 13.15 17.2155 13.15Z" fill="#171717"/>
<path d="M18.4955 19.2899C18.3055 19.2899 18.1155 19.22 17.9655 19.07L15.4255 16.53C15.1355 16.24 15.1355 15.7599 15.4255 15.4699C15.7155 15.1799 16.1955 15.1799 16.4855 15.4699L19.0255 18.01C19.3155 18.3 19.3155 18.78 19.0255 19.07C18.8855 19.21 18.6855 19.2899 18.4955 19.2899Z" fill="#171717"/>
<path d="M15.9355 19.32C15.7455 19.32 15.5555 19.2499 15.4055 19.0999C15.1155 18.8099 15.1155 18.3299 15.4055 18.0399L17.9455 15.5C18.2355 15.21 18.7155 15.21 19.0055 15.5C19.2955 15.79 19.2955 16.27 19.0055 16.56L16.4655 19.0999C16.3155 19.2399 16.1255 19.32 15.9355 19.32Z" fill="#171717"/>
<path d="M12.0156 21.65C11.7056 21.65 11.3956 21.61 11.1456 21.52C8.58563 20.65 1.26562 16.41 1.26562 8.69C1.26562 5.19 4.09562 2.34998 7.57562 2.34998C9.24562 2.34998 10.8456 3.02 12.0156 4.19C13.1856 3.02 14.7956 2.34998 16.4556 2.34998C19.9356 2.34998 22.7656 5.19 22.7656 8.69C22.7656 10.64 22.2956 12.51 21.3656 14.26C21.2556 14.47 21.0456 14.62 20.8056 14.65C20.5656 14.68 20.3256 14.6 20.1556 14.42C19.3756 13.6 18.3256 13.14 17.2056 13.14C14.9756 13.14 13.1556 14.96 13.1556 17.19C13.1556 18.18 13.5256 19.14 14.1956 19.89C14.3556 20.07 14.4156 20.31 14.3656 20.54C14.3156 20.77 14.1556 20.97 13.9456 21.07C13.5456 21.25 13.1857 21.4 12.8557 21.51C12.6257 21.61 12.3256 21.65 12.0156 21.65ZM7.57562 3.84998C4.92562 3.84998 2.76562 6.02 2.76562 8.69C2.76562 15.53 9.33562 19.31 11.6356 20.1C11.8156 20.17 12.2056 20.16 12.3856 20.1C12.4156 20.09 12.4456 20.08 12.4756 20.07C11.9556 19.21 11.6656 18.22 11.6656 17.2C11.6656 14.14 14.1556 11.65 17.2156 11.65C18.3956 11.65 19.5156 12.02 20.4556 12.69C20.9956 11.41 21.2656 10.07 21.2656 8.69C21.2656 6.02 19.1056 3.84998 16.4556 3.84998C14.9556 3.84998 13.5156 4.57003 12.6156 5.78003C12.3356 6.16003 11.6956 6.16003 11.4156 5.78003C10.5156 4.57003 9.07562 3.84998 7.57562 3.84998Z" fill="#171717"/>
</svg>
