<svg width="25" height="24" viewBox="0 0 25 24" fill="none" xmlns="http://www.w3.org/2000/svg">
<path opacity="0.4" d="M22.0156 8.68997C22.0156 9.87997 21.8256 10.98 21.4956 12C21.2856 12.67 21.0156 13.31 20.6956 13.9C19.8156 12.97 18.5856 12.4 17.2156 12.4C14.5656 12.4 12.4156 14.55 12.4156 17.2C12.4156 18.43 12.8856 19.55 13.6456 20.4C13.2756 20.57 12.9356 20.71 12.6356 20.81C12.2956 20.93 11.7356 20.93 11.3956 20.81C8.98563 19.99 4.11564 17 2.53564 12C2.20564 10.98 2.01562 9.87997 2.01562 8.68997C2.01562 5.59997 4.50562 3.09998 7.57562 3.09998C9.38562 3.09998 11.0056 3.97996 12.0156 5.32996C13.0256 3.97996 14.6456 3.09998 16.4556 3.09998C19.5256 3.09998 22.0156 5.59997 22.0156 8.68997Z" fill="#171717"/>
<path d="M20.7056 13.92C20.6956 13.92 20.6956 13.91 20.6956 13.91V13.9C19.8156 12.98 18.5856 12.4 17.2156 12.4C14.5656 12.4 12.4156 14.55 12.4156 17.2C12.4156 18.43 12.8856 19.55 13.6456 20.4C14.5256 21.38 15.7956 22 17.2156 22C19.8656 22 22.0156 19.85 22.0156 17.2C22.0156 15.93 21.5156 14.78 20.7056 13.92ZM19.0256 19.07C18.8856 19.21 18.6856 19.29 18.4956 19.29C18.3056 19.29 18.1156 19.21 17.9656 19.07L17.2256 18.33L16.4656 19.1C16.3156 19.24 16.1256 19.32 15.9356 19.32C15.8356 19.32 15.7456 19.3 15.6556 19.26C15.5656 19.23 15.4756 19.17 15.4056 19.1C15.1056 18.8 15.1056 18.33 15.4056 18.04L16.1656 17.27L15.4356 16.53C15.1356 16.24 15.1356 15.76 15.4356 15.47C15.7256 15.18 16.1956 15.18 16.4956 15.47L17.2256 16.21L17.9356 15.5C18.2356 15.21 18.7056 15.21 18.9956 15.5C19.1656 15.67 19.2356 15.89 19.2056 16.11C19.1956 16.28 19.1256 16.44 18.9956 16.56L18.2856 17.27L19.0256 18.01C19.3256 18.3 19.3256 18.77 19.0256 19.07Z" fill="#171717"/>
</svg>
