<svg width="25" height="24" viewBox="0 0 25 24" fill="none" xmlns="http://www.w3.org/2000/svg">
<path opacity="0.4" d="M22.0156 8.69008C22.0156 9.88008 21.8256 10.9801 21.4956 12.0001C19.9156 17.0001 15.0456 19.9901 12.6356 20.8101C12.2956 20.9301 11.7356 20.9301 11.3956 20.8101C10.7556 20.5901 9.94562 20.2201 9.07562 19.7001C8.51562 19.3701 8.42562 18.5901 8.88562 18.1301L20.1657 6.85008C20.7057 6.31008 21.6556 6.54007 21.8456 7.28007C21.9556 7.73007 22.0156 8.20008 22.0156 8.69008Z" fill="#171717"/>
<path d="M22.5456 1.46994C22.2556 1.17994 21.7756 1.17994 21.4856 1.46994L19.1456 3.80994C18.3556 3.35994 17.4356 3.09995 16.4556 3.09995C14.6456 3.09995 13.0256 3.97993 12.0156 5.32993C11.0056 3.97993 9.38559 3.09995 7.57559 3.09995C4.50559 3.09995 2.0156 5.59994 2.0156 8.68994C2.0156 9.87994 2.20562 10.9799 2.53562 11.9999C3.18562 14.0699 4.40562 15.8 5.78562 17.17L1.48557 21.4699C1.19557 21.7599 1.19557 22.2399 1.48557 22.5299C1.63557 22.6799 1.8256 22.7499 2.0156 22.7499C2.2056 22.7499 2.39562 22.6799 2.54562 22.5299L22.5456 2.52994C22.8356 2.23994 22.8356 1.75994 22.5456 1.46994Z" fill="#171717"/>
</svg>
