<svg width="25" height="24" viewBox="0 0 25 24" fill="none" xmlns="http://www.w3.org/2000/svg">
<path d="M7.57562 3.09998C9.39562 3.09998 11.0056 3.98003 12.0156 5.34003C13.0256 3.98003 14.6456 3.09998 16.4556 3.09998C17.6056 3.09998 18.6756 3.45 19.5656 4.06" stroke="#171717" stroke-width="1.5" stroke-linecap="round" stroke-linejoin="round"/>
<path d="M6.12561 17.5C3.91561 15.43 2.01562 12.48 2.01562 8.67999C2.01562 7.13999 2.63563 5.73998 3.64563 4.72998" stroke="#171717" stroke-width="1.5" stroke-linecap="round" stroke-linejoin="round"/>
<path d="M21.7556 7C21.9256 7.53 22.0156 8.1 22.0156 8.69C22.0156 15.69 15.5356 19.82 12.6356 20.82C12.2956 20.94 11.7356 20.94 11.3956 20.82C10.7456 20.6 9.92564 20.22 9.03564 19.69" stroke="#171717" stroke-width="1.5" stroke-linecap="round" stroke-linejoin="round"/>
<path d="M22.0156 2L2.01562 22" stroke="#171717" stroke-width="1.5" stroke-linecap="round" stroke-linejoin="round"/>
</svg>
