<svg width="25" height="24" viewBox="0 0 25 24" fill="none" xmlns="http://www.w3.org/2000/svg">
<path opacity="0.4" d="M16.4556 3.09998C14.6456 3.09998 13.0256 3.97996 12.0156 5.32996C11.0056 3.97996 9.38562 3.09998 7.57562 3.09998C4.50563 3.09998 2.01562 5.59997 2.01562 8.68997C2.01562 9.87997 2.20562 10.98 2.53562 12C4.11562 17 8.98563 19.99 11.3956 20.81C11.7356 20.93 12.2956 20.93 12.6356 20.81C15.0456 19.99 19.9156 17 21.4956 12C21.8256 10.98 22.0156 9.87997 22.0156 8.68997C22.0156 5.59997 19.5256 3.09998 16.4556 3.09998Z" fill="#171717"/>
<path d="M14.8556 9.16C13.9556 8.26 13.2456 8.55 12.6356 9.16L9.09563 12.7C8.95563 12.84 8.82563 13.1 8.79563 13.29L8.60563 14.64C8.53563 15.13 8.87563 15.47 9.36563 15.4L10.7156 15.21C10.9056 15.18 11.1756 15.05 11.3056 14.91L14.8456 11.37C15.4656 10.77 15.7556 10.06 14.8556 9.16Z" fill="#171717"/>
</svg>
