<svg width="25" height="24" viewBox="0 0 25 24" fill="none" xmlns="http://www.w3.org/2000/svg">
<path d="M12.0156 21.65C11.7056 21.65 11.4056 21.61 11.1556 21.52C7.33563 20.21 1.26562 15.56 1.26562 8.68998C1.26562 5.18998 4.09562 2.34998 7.57562 2.34998C9.26562 2.34998 10.8456 3.00998 12.0156 4.18998C13.1856 3.00998 14.7656 2.34998 16.4556 2.34998C19.9356 2.34998 22.7656 5.19998 22.7656 8.68998C22.7656 15.57 16.6956 20.21 12.8756 21.52C12.6256 21.61 12.3256 21.65 12.0156 21.65ZM7.57562 3.84998C4.92562 3.84998 2.76562 6.01998 2.76562 8.68998C2.76562 15.52 9.33562 19.32 11.6456 20.11C11.8256 20.17 12.2156 20.17 12.3956 20.11C14.6956 19.32 21.2756 15.53 21.2756 8.68998C21.2756 6.01998 19.1156 3.84998 16.4656 3.84998C14.9456 3.84998 13.5356 4.55998 12.6256 5.78998C12.3456 6.16998 11.7056 6.16998 11.4256 5.78998C10.4956 4.54998 9.09562 3.84998 7.57562 3.84998Z" fill="#171717"/>
</svg>
