<svg width="25" height="24" viewBox="0 0 25 24" fill="none" xmlns="http://www.w3.org/2000/svg">
<path d="M17.2155 22.75C14.1555 22.75 11.6655 20.26 11.6655 17.2C11.6655 14.14 14.1555 11.65 17.2155 11.65C20.2755 11.65 22.7655 14.14 22.7655 17.2C22.7655 20.26 20.2755 22.75 17.2155 22.75ZM17.2155 13.15C14.9855 13.15 13.1655 14.97 13.1655 17.2C13.1655 19.43 14.9855 21.25 17.2155 21.25C19.4455 21.25 21.2655 19.43 21.2655 17.2C21.2655 14.97 19.4455 13.15 17.2155 13.15Z" fill="#171717"/>
<path d="M19.0055 18.01H15.4155C15.0055 18.01 14.6655 17.67 14.6655 17.26C14.6655 16.85 15.0055 16.51 15.4155 16.51H19.0055C19.4155 16.51 19.7555 16.85 19.7555 17.26C19.7555 17.67 19.4255 18.01 19.0055 18.01Z" fill="#171717"/>
<path d="M17.2158 19.85C16.8058 19.85 16.4658 19.51 16.4658 19.1V15.51C16.4658 15.1 16.8058 14.76 17.2158 14.76C17.6258 14.76 17.9658 15.1 17.9658 15.51V19.1C17.9658 19.51 17.6258 19.85 17.2158 19.85Z" fill="#171717"/>
<path d="M12.0156 21.65C11.7056 21.65 11.3956 21.61 11.1456 21.52C8.58563 20.65 1.26562 16.41 1.26562 8.69C1.26562 5.19 4.09562 2.34998 7.57562 2.34998C9.24562 2.34998 10.8456 3.02 12.0156 4.19C13.1856 3.02 14.7956 2.34998 16.4556 2.34998C19.9356 2.34998 22.7656 5.19 22.7656 8.69C22.7656 10.64 22.2956 12.51 21.3656 14.26C21.2556 14.47 21.0456 14.62 20.8056 14.65C20.5556 14.68 20.3256 14.6 20.1556 14.42C19.3756 13.6 18.3256 13.14 17.2056 13.14C14.9756 13.14 13.1556 14.96 13.1556 17.19C13.1556 18.18 13.5256 19.14 14.1956 19.89C14.3556 20.07 14.4156 20.31 14.3656 20.54C14.3156 20.77 14.1556 20.97 13.9456 21.07C13.5456 21.25 13.1857 21.4 12.8557 21.51C12.6257 21.61 12.3256 21.65 12.0156 21.65ZM7.57562 3.84998C4.92562 3.84998 2.76562 6.02 2.76562 8.69C2.76562 15.53 9.33562 19.31 11.6356 20.1C11.8156 20.17 12.2056 20.16 12.3856 20.1C12.4156 20.09 12.4456 20.08 12.4756 20.07C11.9556 19.21 11.6656 18.22 11.6656 17.2C11.6656 14.14 14.1556 11.65 17.2156 11.65C18.3956 11.65 19.5156 12.02 20.4556 12.69C20.9956 11.41 21.2656 10.07 21.2656 8.69C21.2656 6.02 19.1056 3.84998 16.4556 3.84998C14.9556 3.84998 13.5156 4.57003 12.6156 5.78003C12.3356 6.16003 11.6956 6.16003 11.4156 5.78003C10.5156 4.57003 9.07562 3.84998 7.57562 3.84998Z" fill="#171717"/>
</svg>
