<svg width="25" height="24" viewBox="0 0 25 24" fill="none" xmlns="http://www.w3.org/2000/svg">
<path d="M20.6956 13.91V13.9C19.8156 12.97 18.5856 12.4 17.2156 12.4C14.5656 12.4 12.4156 14.55 12.4156 17.2C12.4156 18.43 12.8856 19.55 13.6456 20.4C14.5256 21.38 15.7956 22 17.2156 22C19.8656 22 22.0156 19.85 22.0156 17.2C22.0156 15.93 21.5156 14.77 20.6956 13.91ZM19.0056 18.01H17.9656V19.1C17.9656 19.51 17.6256 19.85 17.2156 19.85C16.8056 19.85 16.4656 19.51 16.4656 19.1V18.01H15.4256C15.0056 18.01 14.6756 17.68 14.6756 17.26C14.6756 16.85 14.9956 16.52 15.4156 16.51H16.4656V15.51C16.4656 15.49 16.4656 15.47 16.4756 15.45C16.4956 15.07 16.8256 14.76 17.2156 14.76C17.6156 14.76 17.9456 15.08 17.9656 15.48V16.51H19.0056C19.4256 16.51 19.7556 16.85 19.7556 17.26C19.7556 17.68 19.4256 18.01 19.0056 18.01Z" fill="#171717"/>
<path opacity="0.4" d="M22.0156 8.68997C22.0156 9.87997 21.8256 10.98 21.4956 12C21.2856 12.67 21.0156 13.31 20.6956 13.9C19.8156 12.97 18.5856 12.4 17.2156 12.4C14.5656 12.4 12.4156 14.55 12.4156 17.2C12.4156 18.43 12.8856 19.55 13.6456 20.4C13.2756 20.57 12.9356 20.71 12.6356 20.81C12.2956 20.93 11.7356 20.93 11.3956 20.81C8.98563 19.99 4.11564 17 2.53564 12C2.20564 10.98 2.01562 9.87997 2.01562 8.68997C2.01562 5.59997 4.50562 3.09998 7.57562 3.09998C9.38562 3.09998 11.0056 3.97996 12.0156 5.32996C13.0256 3.97996 14.6456 3.09998 16.4556 3.09998C19.5256 3.09998 22.0156 5.59997 22.0156 8.68997Z" fill="#171717"/>
</svg>
