<svg width="25" height="24" viewBox="0 0 25 24" fill="none" xmlns="http://www.w3.org/2000/svg">
<path d="M12.0156 21.65C11.7956 21.65 11.4656 21.63 11.1556 21.52C7.33562 20.21 1.26562 15.57 1.26562 8.69C1.26562 5.19 4.09562 2.34998 7.57562 2.34998C9.26562 2.34998 10.8456 3.01 12.0156 4.19C13.1856 3.01 14.7656 2.34998 16.4556 2.34998C19.9356 2.34998 22.7656 5.19 22.7656 8.69C22.7656 9.9 22.5856 11.09 22.2256 12.23C22.1056 12.62 21.6756 12.85 21.2856 12.72C20.8856 12.6 20.6756 12.17 20.7956 11.78C21.1056 10.79 21.2656 9.75001 21.2656 8.70001C21.2656 6.03001 19.1056 3.85999 16.4556 3.85999C14.9356 3.85999 13.5256 4.56998 12.6156 5.78998C12.3356 6.16998 11.6956 6.16998 11.4156 5.78998C10.4956 4.55998 9.09562 3.85999 7.57562 3.85999C4.92562 3.85999 2.76562 6.03001 2.76562 8.70001C2.76562 15.54 9.33562 19.33 11.6456 20.12C11.7056 20.14 11.8456 20.17 12.0156 20.17C12.4256 20.17 12.7656 20.51 12.7656 20.92C12.7656 21.33 12.4256 21.65 12.0156 21.65Z" fill="#171717"/>
<path d="M17.7557 21.75C15.5757 21.75 13.8057 19.98 13.8057 17.8C13.8057 15.62 15.5757 13.85 17.7557 13.85C19.9357 13.85 21.7057 15.62 21.7057 17.8C21.7057 19.98 19.9357 21.75 17.7557 21.75ZM17.7557 15.35C16.4057 15.35 15.3057 16.45 15.3057 17.8C15.3057 19.15 16.4057 20.25 17.7557 20.25C19.1057 20.25 20.2057 19.15 20.2057 17.8C20.2057 16.45 19.1057 15.35 17.7557 15.35Z" fill="#171717"/>
<path d="M21.5556 22.35C21.3656 22.35 21.1756 22.28 21.0256 22.13L20.0256 21.13C19.7356 20.84 19.7356 20.36 20.0256 20.07C20.3156 19.78 20.7956 19.78 21.0856 20.07L22.0856 21.07C22.3756 21.36 22.3756 21.84 22.0856 22.13C21.9356 22.27 21.7456 22.35 21.5556 22.35Z" fill="#171717"/>
</svg>
