<svg width="25" height="24" viewBox="0 0 25 24" fill="none" xmlns="http://www.w3.org/2000/svg">
<path d="M6.12561 18.25C5.94561 18.25 5.7556 18.18 5.6156 18.05C3.6356 16.19 1.26562 13.06 1.26562 8.69C1.26562 5.19 4.09562 2.34998 7.57562 2.34998C9.26562 2.34998 10.8456 3.01 12.0156 4.19C13.1856 3.01 14.7656 2.34998 16.4556 2.34998C17.7156 2.34998 18.9356 2.72999 19.9856 3.42999C20.3256 3.65999 20.4156 4.12997 20.1856 4.46997C19.9556 4.80997 19.4856 4.89998 19.1456 4.66998C18.3556 4.12998 17.4256 3.84003 16.4656 3.84003C14.9456 3.84003 13.5356 4.55003 12.6256 5.78003C12.3456 6.16003 11.7056 6.16003 11.4256 5.78003C10.5056 4.55003 9.10563 3.84003 7.58563 3.84003C4.93563 3.84003 2.77563 6.00999 2.77563 8.67999C2.77563 12.52 4.88564 15.29 6.65564 16.95C6.95564 17.23 6.97562 17.71 6.69562 18.01C6.52562 18.17 6.32561 18.25 6.12561 18.25Z" fill="#171717"/>
<path d="M12.0155 21.6501C11.7055 21.6501 11.4055 21.6101 11.1555 21.5201C10.4055 21.2601 9.51553 20.8401 8.65553 20.3301C8.29553 20.1201 8.18552 19.66 8.39552 19.3C8.60552 18.95 9.06549 18.83 9.42549 19.04C10.2055 19.5 10.9955 19.88 11.6455 20.1C11.8255 20.16 12.2155 20.16 12.3955 20.1C14.6955 19.31 21.2755 15.52 21.2755 8.68005C21.2755 8.18005 21.1955 7.69002 21.0555 7.22002C20.9355 6.82002 21.1455 6.40008 21.5455 6.28008C21.9455 6.16008 22.3655 6.38007 22.4855 6.77007C22.6755 7.39007 22.7755 8.03005 22.7755 8.68005C22.7755 15.56 16.7055 20.2001 12.8855 21.5101C12.6255 21.6101 12.3255 21.6501 12.0155 21.6501Z" fill="#171717"/>
<path d="M2.0156 22.75C1.8256 22.75 1.63557 22.68 1.48557 22.53C1.19557 22.24 1.19557 21.7599 1.48557 21.4699L21.4856 1.46994C21.7756 1.17994 22.2556 1.17994 22.5456 1.46994C22.8356 1.75994 22.8356 2.24 22.5456 2.53L2.54562 22.53C2.39562 22.68 2.2056 22.75 2.0156 22.75Z" fill="#171717"/>
</svg>
