<svg width="25" height="24" viewBox="0 0 25 24" fill="none" xmlns="http://www.w3.org/2000/svg">
<path d="M22.0156 8.68998C22.0156 9.87998 21.8256 10.98 21.4956 12H2.53562C2.20562 10.98 2.01562 9.87998 2.01562 8.68998C2.01562 5.59998 4.50563 3.09998 7.57562 3.09998C9.38562 3.09998 11.0056 3.97998 12.0156 5.32998C13.0256 3.97998 14.6456 3.09998 16.4556 3.09998C19.5256 3.09998 22.0156 5.59998 22.0156 8.68998Z" fill="#171717"/>
<path opacity="0.4" d="M21.4956 12C19.9156 17 15.0456 19.99 12.6356 20.81C12.2956 20.93 11.7356 20.93 11.3956 20.81C8.98565 19.99 4.11564 17 2.53564 12H21.4956Z" fill="#171717"/>
</svg>
