<svg width="25" height="24" viewBox="0 0 25 24" fill="none" xmlns="http://www.w3.org/2000/svg">
<path opacity="0.4" d="M16.4556 3.09998C14.6456 3.09998 13.0256 3.97996 12.0156 5.32996C11.0056 3.97996 9.38562 3.09998 7.57562 3.09998C4.50562 3.09998 2.01562 5.59997 2.01562 8.68997C2.01562 9.87997 2.20562 10.98 2.53562 12C4.11562 17 8.98562 19.99 11.3956 20.81C11.7356 20.93 12.2956 20.93 12.6356 20.81C15.0456 19.99 19.9156 17 21.4956 12C21.8256 10.98 22.0156 9.87997 22.0156 8.68997C22.0156 5.59997 19.5256 3.09998 16.4556 3.09998Z" fill="#171717"/>
<path d="M21.7856 20.68L21.0256 19.92C21.4256 19.32 21.6556 18.6 21.6556 17.83C21.6556 15.72 19.9456 14.01 17.8356 14.01C15.7256 14.01 14.0156 15.72 14.0156 17.83C14.0156 19.94 15.7256 21.65 17.8356 21.65C18.6056 21.65 19.3256 21.42 19.9256 21.02L20.6856 21.78C20.8356 21.93 21.0356 22.01 21.2356 22.01C21.4356 22.01 21.6356 21.93 21.7856 21.78C22.0956 21.47 22.0956 20.98 21.7856 20.68Z" fill="#171717"/>
</svg>
