<svg width="25" height="24" viewBox="0 0 25 24" fill="none" xmlns="http://www.w3.org/2000/svg">
<path d="M12.0156 21.65C11.7956 21.65 11.4656 21.63 11.1556 21.52C7.33563 20.21 1.26562 15.57 1.26562 8.69C1.26562 5.19 4.09562 2.34998 7.57562 2.34998C9.26562 2.34998 10.8456 3.01 12.0156 4.19C13.1856 3.01 14.7656 2.34998 16.4556 2.34998C19.9356 2.34998 22.7656 5.19 22.7656 8.69C22.7656 9.9 22.5856 11.09 22.2256 12.23C22.1056 12.62 21.6756 12.85 21.2856 12.72C20.8856 12.6 20.6756 12.17 20.7956 11.78C21.1056 10.79 21.2656 9.75001 21.2656 8.70001C21.2656 6.03001 19.1056 3.85999 16.4556 3.85999C14.9356 3.85999 13.5256 4.56998 12.6156 5.78998C12.3356 6.16998 11.6956 6.16998 11.4156 5.78998C10.4956 4.55998 9.09562 3.85999 7.57562 3.85999C4.92562 3.85999 2.76562 6.03001 2.76562 8.70001C2.76562 15.54 9.33562 19.33 11.6456 20.12C11.7056 20.14 11.8456 20.17 12.0156 20.17C12.4256 20.17 12.7656 20.51 12.7656 20.92C12.7656 21.33 12.4256 21.65 12.0156 21.65Z" fill="#171717"/>
<path d="M15.8357 22.7501C15.4557 22.7501 15.0957 22.6101 14.8357 22.3501C14.5257 22.0401 14.3857 21.5901 14.4557 21.1201L14.6457 19.7701C14.6957 19.4201 14.9057 19.0001 15.1557 18.7501L18.6957 15.2101C19.1757 14.7301 19.6457 14.4801 20.1557 14.4301C20.7857 14.3701 21.3957 14.6301 21.9757 15.2101C22.5557 15.7901 22.8157 16.4001 22.7557 17.0301C22.7057 17.5301 22.4457 18.0101 21.9757 18.4901L18.4357 22.0301C18.1857 22.2801 17.7757 22.4901 17.4257 22.5401L16.0757 22.7301C15.9857 22.7401 15.9157 22.7501 15.8357 22.7501ZM20.3257 15.9201C20.3157 15.9201 20.3057 15.9201 20.2957 15.9201C20.1557 15.9301 19.9657 16.0501 19.7557 16.2701L16.2157 19.8101C16.1857 19.8401 16.1357 19.9401 16.1357 19.9801L15.9557 21.2301L17.2057 21.0501C17.2457 21.0401 17.3457 20.9901 17.3757 20.9601L20.9157 17.4201C21.1257 17.2101 21.2557 17.0201 21.2657 16.8801C21.2857 16.6801 21.0857 16.4401 20.9157 16.2701C20.7557 16.1101 20.5257 15.9201 20.3257 15.9201Z" fill="#171717"/>
<path d="M20.9357 19.2201C20.8657 19.2201 20.7957 19.2101 20.7357 19.1901C19.4157 18.8201 18.3657 17.7701 17.9957 16.4501C17.8857 16.0501 18.1157 15.6401 18.5157 15.5301C18.9157 15.4201 19.3257 15.6501 19.4457 16.0501C19.6757 16.8701 20.3257 17.5201 21.1457 17.7501C21.5457 17.8601 21.7757 18.2801 21.6657 18.6701C21.5657 19.0001 21.2657 19.2201 20.9357 19.2201Z" fill="#171717"/>
</svg>
