<svg width="25" height="24" viewBox="0 0 25 24" fill="none" xmlns="http://www.w3.org/2000/svg">
<path opacity="0.4" d="M12.0156 22C17.5385 22 22.0156 17.5228 22.0156 12C22.0156 6.47715 17.5385 2 12.0156 2C6.49278 2 2.01562 6.47715 2.01562 12C2.01562 17.5228 6.49278 22 12.0156 22Z" fill="#171717"/>
<path d="M12.3456 16.9999C12.1656 17.0599 11.8556 17.0599 11.6756 16.9999C10.1156 16.4699 6.6156 14.2399 6.6156 10.4599C6.6156 8.78993 7.9556 7.43994 9.6156 7.43994C10.5956 7.43994 11.4656 7.90993 12.0156 8.64993C12.5556 7.91993 13.4356 7.43994 14.4156 7.43994C16.0756 7.43994 17.4156 8.78993 17.4156 10.4599C17.4156 14.2399 13.9156 16.4699 12.3456 16.9999Z" fill="#171717"/>
</svg>
