<svg width="25" height="24" viewBox="0 0 25 24" fill="none" xmlns="http://www.w3.org/2000/svg">
<path d="M12.0156 22.75C6.08563 22.75 1.26562 17.93 1.26562 12C1.26562 6.07 6.08563 1.25 12.0156 1.25C17.9456 1.25 22.7656 6.07 22.7656 12C22.7656 17.93 17.9456 22.75 12.0156 22.75ZM12.0156 2.75C6.91563 2.75 2.76562 6.9 2.76562 12C2.76562 17.1 6.91563 21.25 12.0156 21.25C17.1156 21.25 21.2656 17.1 21.2656 12C21.2656 6.9 17.1156 2.75 12.0156 2.75Z" fill="#171717"/>
<path d="M12.0155 18.25C11.8055 18.25 11.6055 18.22 11.4355 18.16C9.28549 17.43 5.87549 14.81 5.87549 10.91C5.87549 8.83 7.55549 7.14001 9.62549 7.14001C10.5255 7.14001 11.3555 7.45001 12.0255 8.01001C12.6955 7.45001 13.5355 7.14001 14.4155 7.14001C16.4855 7.14001 18.1655 8.83 18.1655 10.91C18.1655 14.8 14.7555 17.42 12.5955 18.16C12.4255 18.22 12.2155 18.25 12.0155 18.25ZM9.61549 8.64999C8.37549 8.64999 7.36549 9.67001 7.36549 10.92C7.36549 14.41 10.7355 16.35 11.9155 16.75C11.9555 16.76 12.0555 16.76 12.0955 16.75C13.2755 16.35 16.6455 14.41 16.6455 10.92C16.6455 9.67001 15.6355 8.64999 14.3955 8.64999C13.6955 8.64999 13.0255 8.99 12.6055 9.56C12.3255 9.94 11.6855 9.94 11.4055 9.56C10.9855 8.98 10.3355 8.64999 9.61549 8.64999Z" fill="#171717"/>
</svg>
