<svg width="25" height="24" viewBox="0 0 25 24" fill="none" xmlns="http://www.w3.org/2000/svg">
<path opacity="0.4" d="M13.1656 15.37C12.9456 15.05 12.5556 14.87 12.1056 14.87H9.77563C9.62563 14.87 9.47563 14.81 9.38563 14.69C9.28563 14.57 9.24563 14.42 9.26562 14.25L9.55563 12.39C9.67563 11.84 9.30562 11.21 8.75562 11.02C8.23562 10.83 7.63563 11.09 7.38563 11.46L4.99563 15.01L4.92563 15.13V20.15L5.01562 20.24L6.81563 21.63C7.05563 21.87 7.59562 22 7.97562 22H10.1856C10.9456 22 11.7056 21.43 11.8856 20.73L13.2856 16.48C13.4256 16.07 13.3856 15.68 13.1656 15.37Z" fill="#171717"/>
<path d="M3.83562 13.3H3.25562C2.37562 13.3 2.01562 13.64 2.01562 14.48V20.1901C2.01562 21.0301 2.37562 21.3701 3.25562 21.3701H3.83562C4.71562 21.3701 5.07562 21.0301 5.07562 20.1901V14.48C5.07562 13.64 4.71562 13.3 3.83562 13.3Z" fill="#171717"/>
<path opacity="0.4" d="M11.2156 8.59998C11.4356 8.91998 11.8256 9.09998 12.2756 9.09998H14.6056C14.7556 9.09998 14.9056 9.16003 14.9956 9.28003C15.0956 9.40003 15.1356 9.54997 15.1156 9.71997L14.8256 11.58C14.7056 12.13 15.0756 12.76 15.6256 12.95C16.1456 13.14 16.7456 12.88 16.9956 12.51L19.3856 8.96002L19.4556 8.84003V3.82001L19.3656 3.72998L17.5656 2.34003C17.3256 2.10003 16.7856 1.96997 16.4056 1.96997H14.1956C13.4356 1.96997 12.6756 2.53999 12.4956 3.23999L11.0956 7.48999C10.9556 7.88999 10.9956 8.28998 11.2156 8.59998Z" fill="#171717"/>
<path d="M20.5456 10.67H21.1256C22.0056 10.67 22.3656 10.33 22.3656 9.48999V3.78003C22.3656 2.94003 22.0056 2.59998 21.1256 2.59998H20.5456C19.6656 2.59998 19.3056 2.94003 19.3056 3.78003V9.48999C19.3056 10.33 19.6656 10.67 20.5456 10.67Z" fill="#171717"/>
</svg>
