<svg width="25" height="24" viewBox="0 0 25 24" fill="none" xmlns="http://www.w3.org/2000/svg">
<path d="M12.0255 22.75C11.3955 22.75 10.7655 22.54 10.2755 22.12L8.69551 20.76C8.53551 20.62 8.13552 20.48 7.92552 20.48H6.19551C4.71551 20.48 3.51551 19.28 3.51551 17.8V16.09C3.51551 15.88 3.37551 15.49 3.23551 15.33L1.88551 13.74C1.06551 12.77 1.06551 11.24 1.88551 10.27L3.23551 8.68005C3.37551 8.52005 3.51551 8.13004 3.51551 7.92004V6.20996C3.51551 4.72996 4.71551 3.53002 6.19551 3.53002H7.92552C8.13552 3.53002 8.53551 3.38 8.69551 3.25L10.2755 1.89001C11.2555 1.05001 12.7855 1.05001 13.7655 1.89001L15.3455 3.25C15.5055 3.39 15.9055 3.53002 16.1155 3.53002H17.8155C19.2955 3.53002 20.4955 4.72996 20.4955 6.20996V7.91003C20.4955 8.12003 20.6455 8.52005 20.7855 8.68005L22.1355 10.26C22.9755 11.24 22.9755 12.77 22.1355 13.75L20.7855 15.33C20.6455 15.49 20.5055 15.89 20.5055 16.1V17.8C20.5055 19.28 19.3055 20.48 17.8255 20.48H16.1255C15.9155 20.48 15.5155 20.63 15.3555 20.76L13.7755 22.12C13.2755 22.54 12.6455 22.75 12.0255 22.75ZM6.19551 5.02001C5.54551 5.02001 5.01551 5.54995 5.01551 6.19995V7.91003C5.01551 8.48003 4.74551 9.21001 4.38551 9.64001L3.0355 11.23C2.6855 11.64 2.6855 12.35 3.0355 12.76L4.38551 14.35C4.75551 14.79 5.02552 15.52 5.02552 16.08V17.79C5.02552 18.44 5.55551 18.97 6.20551 18.97H7.93553C8.51553 18.97 9.24553 19.24 9.68553 19.62L11.2655 20.98C11.6755 21.33 12.3955 21.33 12.8055 20.98L14.3855 19.62C14.8255 19.25 15.5555 18.97 16.1355 18.97H17.8355C18.4855 18.97 19.0155 18.44 19.0155 17.79V16.09C19.0155 15.51 19.2855 14.78 19.6655 14.34L21.0155 12.76C21.3655 12.35 21.3655 11.63 21.0155 11.22L19.6655 9.64001C19.2955 9.20001 19.0155 8.47001 19.0155 7.89001V6.18994C19.0155 5.53994 18.4855 5.01 17.8355 5.01H16.1355C15.5655 5.01 14.8255 4.73998 14.3855 4.35998L12.8055 3C12.3955 2.65 11.6755 2.65 11.2655 3L9.68553 4.35998C9.24553 4.72998 8.51553 5.01 7.93553 5.01H6.19551V5.02001Z" fill="#171717"/>
<path d="M14.0154 16.97H12.2354C11.8154 16.97 11.1854 16.84 10.8154 16.47L9.43539 15.41L10.3554 14.22L11.8054 15.3399C11.9054 15.4099 12.0854 15.4599 12.2354 15.4599H14.0154C14.2554 15.4599 14.5454 15.25 14.5954 15.04L15.7354 11.5699C15.7654 11.4799 15.7654 11.42 15.7554 11.4C15.7354 11.37 15.6654 11.3399 15.5654 11.3399H13.6954C13.3354 11.3399 13.0054 11.19 12.7654 10.92C12.5354 10.65 12.4254 10.29 12.4754 9.92002L12.7154 8.41001C12.7354 8.33001 12.6754 8.22994 12.6154 8.20994C12.5554 8.19994 12.4654 8.21998 12.4354 8.24998L10.5254 11.0899L9.27539 10.25L11.1954 7.4C11.5954 6.8 12.4354 6.54002 13.1154 6.79002C13.8754 7.04002 14.3654 7.90003 14.1954 8.68003L14.0154 9.81993H15.5654C16.1554 9.81993 16.6754 10.07 16.9854 10.51C17.2854 10.94 17.3554 11.5 17.1654 12.03L16.0454 15.43C15.8354 16.29 14.9454 16.97 14.0154 16.97Z" fill="#171717"/>
<path d="M8.91586 16.46H8.44586C6.97586 16.46 6.75586 15.4299 6.75586 14.8199V10.24C6.75586 9.62999 6.97586 8.59998 8.44586 8.59998H8.91586C10.3859 8.59998 10.6059 9.62999 10.6059 10.24V14.8199C10.6059 15.4299 10.3859 16.46 8.91586 16.46ZM8.27588 14.95C8.31588 14.96 8.37587 14.96 8.45587 14.96H8.92587C9.00587 14.96 9.06587 14.96 9.10587 14.95C9.10587 14.92 9.11588 14.8799 9.11588 14.8199V10.24C9.11588 10.18 9.11587 10.14 9.10587 10.11C9.06587 10.1 9.00587 10.1 8.92587 10.1H8.45587C8.37587 10.1 8.31588 10.1 8.27588 10.11C8.27588 10.14 8.26587 10.18 8.26587 10.24V14.8199C8.26587 14.8799 8.26588 14.92 8.27588 14.95Z" fill="#171717"/>
</svg>
