<svg width="25" height="24" viewBox="0 0 25 24" fill="none" xmlns="http://www.w3.org/2000/svg">
<path opacity="0.4" d="M10.7656 2.45007C11.4556 1.86007 12.5856 1.86007 13.2856 2.45007L14.8656 3.81005C15.1656 4.07005 15.7256 4.28009 16.1256 4.28009H17.8256C18.8856 4.28009 19.7556 5.15008 19.7556 6.21008V7.91003C19.7556 8.30003 19.9656 8.87004 20.2256 9.17004L21.5856 10.7501C22.1756 11.4401 22.1756 12.5701 21.5856 13.2701L20.2256 14.85C19.9656 15.15 19.7556 15.71 19.7556 16.11V17.8101C19.7556 18.8701 18.8856 19.74 17.8256 19.74H16.1256C15.7356 19.74 15.1656 19.9501 14.8656 20.2101L13.2856 21.5701C12.5956 22.1601 11.4656 22.1601 10.7656 21.5701L9.18564 20.2101C8.88564 19.9501 8.32563 19.74 7.92563 19.74H6.19562C5.13562 19.74 4.26563 18.8701 4.26563 17.8101V16.1C4.26563 15.71 4.05564 15.15 3.80564 14.85L2.45563 13.2601C1.87563 12.5701 1.87563 11.4501 2.45563 10.7601L3.80564 9.17004C4.05564 8.87004 4.26563 8.31004 4.26563 7.92004V6.21008C4.26563 5.15008 5.13562 4.28009 6.19562 4.28009H7.92563C8.31563 4.28009 8.88564 4.07005 9.18564 3.81005L10.7656 2.45007Z" fill="#171717"/>
<path d="M16.5956 11.07C16.4056 10.8 16.0856 10.65 15.7056 10.65H13.7556C13.6256 10.65 13.5056 10.6 13.4256 10.5C13.3456 10.4 13.3056 10.27 13.3256 10.13L13.5656 8.56998C13.6656 8.10998 13.3556 7.57997 12.8956 7.42997C12.4656 7.26997 11.9556 7.48995 11.7556 7.78995L9.81561 10.67V10.31C9.81561 9.60997 9.51563 9.31998 8.77563 9.31998H8.28561C7.54561 9.31998 7.24564 9.60997 7.24564 10.31V15.09C7.24564 15.79 7.54561 16.08 8.28561 16.08H8.77563C9.47563 16.08 9.77563 15.81 9.80563 15.17L11.2756 16.3C11.4756 16.5 11.9256 16.61 12.2456 16.61H14.0956C14.7356 16.61 15.3756 16.13 15.5156 15.54L16.6856 11.98C16.8156 11.66 16.7856 11.33 16.5956 11.07Z" fill="#171717"/>
</svg>
