<svg width="25" height="24" viewBox="0 0 25 24" fill="none" xmlns="http://www.w3.org/2000/svg">
<path opacity="0.4" d="M18.0156 18.86H17.2556C16.4556 18.86 15.6956 19.17 15.1356 19.73L13.4256 21.42C12.6456 22.19 11.3756 22.19 10.5956 21.42L8.88562 19.73C8.32562 19.17 7.55562 18.86 6.76562 18.86H6.01562C4.35563 18.86 3.01562 17.53 3.01562 15.89V4.97998C3.01562 3.33998 4.35563 2.01001 6.01562 2.01001H18.0156C19.6756 2.01001 21.0156 3.33998 21.0156 4.97998V15.89C21.0156 17.52 19.6756 18.86 18.0156 18.86Z" fill="#171717"/>
<path d="M16.5956 9.56998C16.4056 9.29998 16.0856 9.15 15.7056 9.15H13.7556C13.6256 9.15 13.5056 9.09998 13.4256 8.99998C13.3456 8.89998 13.3056 8.76998 13.3256 8.62998L13.5656 7.06998C13.6656 6.60998 13.3556 6.07997 12.8956 5.92997C12.4656 5.76997 11.9556 5.98995 11.7556 6.28995L9.81561 9.16996V8.80997C9.81561 8.10997 9.5156 7.81998 8.7756 7.81998H8.28561C7.54561 7.81998 7.24561 8.10997 7.24561 8.80997V13.59C7.24561 14.29 7.54561 14.58 8.28561 14.58H8.7756C9.4756 14.58 9.7756 14.31 9.8056 13.67L11.2756 14.8C11.4756 15 11.9256 15.11 12.2456 15.11H14.0956C14.7356 15.11 15.3756 14.63 15.5156 14.04L16.6856 10.48C16.8156 10.16 16.7856 9.82998 16.5956 9.56998Z" fill="#171717"/>
</svg>
