<svg width="25" height="24" viewBox="0 0 25 24" fill="none" xmlns="http://www.w3.org/2000/svg">
<path d="M14.2454 16.11H12.2654C11.8054 16.11 11.1354 15.97 10.7454 15.58L9.20541 14.39L10.1254 13.2L11.7354 14.45C11.8554 14.54 12.0754 14.6 12.2654 14.6H14.2454C14.5454 14.6 14.9054 14.34 14.9754 14.08L16.2354 10.23C16.2654 10.15 16.2954 10.04 16.2454 9.95996C16.2054 9.89996 16.0954 9.85999 15.9654 9.85999H13.8854C13.5154 9.85999 13.1654 9.70005 12.9154 9.42005C12.6754 9.14005 12.5654 8.76001 12.6154 8.38001L12.8754 6.70996C12.9054 6.57996 12.8154 6.43002 12.7054 6.39002C12.6154 6.36002 12.4654 6.40996 12.4254 6.45996L10.2954 9.63001L9.04541 8.79004L11.1754 5.62C11.5954 4.99 12.4854 4.69997 13.2054 4.96997C14.0154 5.23997 14.5354 6.13998 14.3554 6.97998L14.1454 8.34998H15.9654C16.5954 8.34998 17.1454 8.61997 17.4754 9.08997C17.7954 9.54997 17.8654 10.14 17.6654 10.71L16.4254 14.49C16.1954 15.38 15.2354 16.11 14.2454 16.11Z" fill="#171717"/>
<path d="M8.57562 15.54H8.05562C6.49562 15.54 6.26562 14.45 6.26562 13.8V8.70996C6.26562 8.05996 6.49562 6.96997 8.05562 6.96997H8.57562C10.1356 6.96997 10.3656 8.05996 10.3656 8.70996V13.8C10.3656 14.45 10.1356 15.54 8.57562 15.54ZM7.79562 14.03C7.82562 14.03 7.90562 14.04 8.05562 14.04H8.57562C8.73562 14.04 8.82562 14.02 8.85562 14.01C8.85562 13.99 8.86563 13.93 8.86563 13.8V8.70996C8.86563 8.57996 8.85563 8.50999 8.84563 8.48999C8.82563 8.48999 8.74562 8.47998 8.57562 8.47998H8.05562C7.89562 8.47998 7.80562 8.50001 7.77562 8.51001C7.77562 8.53001 7.76562 8.58997 7.76562 8.71997V13.8101C7.76562 13.9401 7.77563 14.01 7.78563 14.04C7.78563 14.03 7.79562 14.03 7.79562 14.03Z" fill="#171717"/>
<path d="M12.0156 22.75C11.3156 22.75 10.6056 22.48 10.0756 21.95L8.36563 20.26C7.93563 19.84 7.37562 19.61 6.77562 19.61H6.01562C3.94563 19.61 2.26562 17.94 2.26562 15.89V4.97998C2.26562 2.92998 3.94563 1.26001 6.01562 1.26001H18.0156C20.0856 1.26001 21.7656 2.92998 21.7656 4.97998V15.89C21.7656 17.94 20.0856 19.61 18.0156 19.61H17.2556C16.6556 19.61 16.0856 19.84 15.6656 20.26L13.9556 21.95C13.4256 22.48 12.7156 22.75 12.0156 22.75ZM6.01562 2.75C4.77562 2.75 3.76562 3.74997 3.76562 4.96997V15.88C3.76562 17.11 4.77562 18.1 6.01562 18.1H6.77562C7.77562 18.1 8.71563 18.4899 9.42563 19.1899L11.1356 20.88C11.6256 21.36 12.4156 21.36 12.9056 20.88L14.6156 19.1899C15.3256 18.4899 16.2656 18.1 17.2656 18.1H18.0156C19.2556 18.1 20.2656 17.1 20.2656 15.88V4.96997C20.2656 3.73997 19.2556 2.75 18.0156 2.75H6.01562Z" fill="#171717"/>
</svg>
