<svg width="25" height="24" viewBox="0 0 25 24" fill="none" xmlns="http://www.w3.org/2000/svg">
<path d="M4.93561 20.28L6.70561 21.65C6.93561 21.88 7.44561 21.99 7.79561 21.99H9.96561C10.6556 21.99 11.3956 21.48 11.5656 20.79L12.9356 16.62C13.2256 15.82 12.7056 15.13 11.8456 15.13H9.55561C9.21561 15.13 8.92561 14.8399 8.98561 14.4399L9.27561 12.61C9.38561 12.1 9.04561 11.52 8.53561 11.35C8.07561 11.18 7.50561 11.41 7.27561 11.75L4.93561 15.24" stroke="#171717" stroke-width="1.5" stroke-miterlimit="10"/>
<path d="M2.01562 20.28V14.6801C2.01562 13.8801 2.35562 13.59 3.15562 13.59H3.72562C4.52562 13.59 4.86562 13.8801 4.86562 14.6801V20.28C4.86562 21.08 4.52562 21.37 3.72562 21.37H3.15562C2.35562 21.37 2.01562 21.09 2.01562 20.28Z" stroke="#171717" stroke-width="1.5" stroke-linecap="round" stroke-linejoin="round"/>
<g opacity="0.4">
<path d="M19.0955 3.71997L17.3254 2.34998C17.0954 2.11998 16.5854 2.01001 16.2354 2.01001H14.0655C13.3755 2.01001 12.6354 2.51996 12.4654 3.20996L11.0955 7.38C10.8055 8.18 11.3254 8.87 12.1854 8.87H14.4754C14.8154 8.87 15.1054 9.16006 15.0454 9.56006L14.7554 11.39C14.6454 11.9 14.9855 12.48 15.4955 12.65C15.9555 12.82 16.5254 12.59 16.7554 12.25L19.0955 8.76001" stroke="#171717" stroke-width="1.5" stroke-miterlimit="10"/>
<path d="M22.0155 3.71997V9.31995C22.0155 10.1199 21.6755 10.41 20.8755 10.41H20.3055C19.5055 10.41 19.1655 10.1199 19.1655 9.31995V3.71997C19.1655 2.91997 19.5055 2.63 20.3055 2.63H20.8755C21.6755 2.63 22.0155 2.90997 22.0155 3.71997Z" stroke="#171717" stroke-width="1.5" stroke-linecap="round" stroke-linejoin="round"/>
</g>
</svg>
