<svg width="25" height="24" viewBox="0 0 25 24" fill="none" xmlns="http://www.w3.org/2000/svg">
<path d="M12.0156 22.75C11.3156 22.75 10.6056 22.48 10.0756 21.95L8.36563 20.26C7.94563 19.84 7.36563 19.61 6.77563 19.61H6.01562C3.94563 19.61 2.26562 17.94 2.26562 15.89V4.97998C2.26562 2.92998 3.94563 1.26001 6.01562 1.26001H18.0156C20.0856 1.26001 21.7656 2.92998 21.7656 4.97998V15.89C21.7656 17.94 20.0856 19.61 18.0156 19.61H17.2556C16.6656 19.61 16.0856 19.85 15.6656 20.26L13.9556 21.95C13.4256 22.48 12.7156 22.75 12.0156 22.75ZM6.01562 2.75C4.77562 2.75 3.76562 3.74997 3.76562 4.96997V15.88C3.76562 17.11 4.77562 18.1 6.01562 18.1H6.77563C7.76563 18.1 8.72563 18.5 9.42563 19.19L11.1356 20.88C11.6256 21.36 12.4156 21.36 12.9056 20.88L14.6156 19.19C15.3156 18.5 16.2756 18.1 17.2656 18.1H18.0156C19.2556 18.1 20.2656 17.1 20.2656 15.88V4.96997C20.2656 3.73997 19.2556 2.75 18.0156 2.75H6.01562Z" fill="#171717"/>
<path d="M12.0154 15.75C11.8354 15.75 11.6554 15.72 11.4954 15.67C10.1754 15.22 6.77539 13.23 6.77539 9.51001C6.77539 7.71001 8.23539 6.25 10.0254 6.25C10.7554 6.25 11.4554 6.5 12.0254 6.94C12.5954 6.5 13.2954 6.25 14.0254 6.25C15.8154 6.25 17.2754 7.71001 17.2754 9.51001C17.2754 13.23 13.8654 15.22 12.5554 15.67C12.3754 15.72 12.1954 15.75 12.0154 15.75ZM10.0154 7.75C9.05538 7.75 8.26538 8.54001 8.26538 9.51001C8.26538 12.34 11.0154 13.92 11.9754 14.25C11.9854 14.25 12.0254 14.25 12.0554 14.25C13.0254 13.91 15.7554 12.33 15.7554 9.52002C15.7554 8.55002 14.9754 7.76001 14.0054 7.76001C13.4554 7.76001 12.9454 8.02002 12.6054 8.46002C12.3254 8.84002 11.6854 8.84002 11.4054 8.46002C11.0854 8.01002 10.5754 7.75 10.0154 7.75Z" fill="#171717"/>
</svg>
