<svg width="25" height="24" viewBox="0 0 25 24" fill="none" xmlns="http://www.w3.org/2000/svg">
<path d="M9.90564 14.82L11.3556 15.94C11.5456 16.13 11.9656 16.22 12.2456 16.22H14.0156C14.5756 16.22 15.1856 15.8 15.3256 15.24L16.4456 11.82C16.6756 11.17 16.2556 10.6 15.5556 10.6H13.6856C13.4056 10.6 13.1756 10.3701 13.2156 10.0401L13.4456 8.54008C13.5356 8.12008 13.2556 7.65005 12.8356 7.51005C12.4656 7.37005 11.9956 7.56 11.8056 7.84L9.88562 10.69" stroke="#171717" stroke-width="1.5" stroke-miterlimit="10"/>
<path d="M7.51562 14.8199V10.24C7.51562 9.57999 7.79563 9.34998 8.45563 9.34998H8.92563C9.57563 9.34998 9.86563 9.57999 9.86563 10.24V14.8199C9.86563 15.4699 9.58563 15.71 8.92563 15.71H8.45563C7.79563 15.71 7.51562 15.4799 7.51562 14.8199Z" stroke="#171717" stroke-width="1.5" stroke-linecap="round" stroke-linejoin="round"/>
<path d="M14.6756 20.01L13.1556 21.53C12.5356 22.15 11.5156 22.15 10.8956 21.53L9.37561 20.01C9.11561 19.75 8.60564 19.54 8.24564 19.54H6.09562C5.21562 19.54 4.49564 18.8199 4.49564 17.9399V15.79C4.49564 15.43 4.28564 14.92 4.02564 14.66L2.50562 13.14C1.88562 12.52 1.88562 11.5 2.50562 10.88L4.02564 9.35999C4.28564 9.09999 4.49564 8.58998 4.49564 8.22998V6.07996C4.49564 5.19996 5.21562 4.47998 6.09562 4.47998" stroke="#171717" stroke-width="1.5" stroke-linecap="round" stroke-linejoin="round"/>
<path d="M9.35562 3.99002L10.8756 2.47C11.4956 1.85 12.5156 1.85 13.1356 2.47L14.6556 3.99002C14.9156 4.25002 15.4256 4.46 15.7856 4.46H17.9356C18.8156 4.46 19.5356 5.18009 19.5356 6.06009V8.21C19.5356 8.57 19.7456 9.08 20.0056 9.34L21.5256 10.86C22.1456 11.48 22.1456 12.5 21.5256 13.12L20.0056 14.64C19.7456 14.9 19.5356 15.4101 19.5356 15.7701V17.9201C19.5356 18.8001 18.8156 19.5201 17.9356 19.5201" stroke="#171717" stroke-width="1.5" stroke-linecap="round" stroke-linejoin="round"/>
</svg>
