<svg width="25" height="24" viewBox="0 0 25 24" fill="none" xmlns="http://www.w3.org/2000/svg">
<path opacity="0.4" d="M19.8756 8.08997C19.8756 8.23997 19.8756 8.38997 19.8656 8.52997C18.3356 7.95997 16.5356 8.30997 15.3356 9.38997C14.5256 8.65997 13.4756 8.24997 12.3556 8.24997C9.89562 8.24997 7.89563 10.26 7.89563 12.74C7.89563 15.57 9.31563 17.64 10.6756 18.98C10.5656 18.97 10.4756 18.95 10.3956 18.92C7.80563 18.03 2.01562 14.35 2.01562 8.08997C2.01562 5.32997 4.23562 3.09998 6.97562 3.09998C8.60562 3.09998 10.0456 3.87997 10.9456 5.08997C11.8556 3.87997 13.2956 3.09998 14.9156 3.09998C17.6556 3.09998 19.8756 5.32997 19.8756 8.08997Z" fill="#171717"/>
<path d="M18.0156 9.58997C16.9456 9.58997 15.9756 10.11 15.3756 10.91C14.7756 10.11 13.8156 9.58997 12.7356 9.58997C10.9156 9.58997 9.43564 11.07 9.43564 12.91C9.43564 13.62 9.54564 14.27 9.74564 14.87C10.6856 17.84 13.5756 19.61 15.0056 20.1C15.2056 20.17 15.5356 20.17 15.7456 20.1C17.1756 19.61 20.0656 17.84 21.0056 14.87C21.2056 14.26 21.3156 13.61 21.3156 12.91C21.3156 11.07 19.8356 9.58997 18.0156 9.58997Z" fill="#171717"/>
</svg>
