<svg width="25" height="24" viewBox="0 0 25 24" fill="none" xmlns="http://www.w3.org/2000/svg">
<path d="M10.9356 19.75C10.6456 19.75 10.3656 19.71 10.1356 19.62C6.71562 18.45 1.26562 14.27 1.26562 8.08997C1.26562 4.91997 3.82562 2.34998 6.97562 2.34998C8.48562 2.34998 9.89562 2.92996 10.9456 3.95996C12.0056 2.92996 13.4056 2.34998 14.9156 2.34998C18.0656 2.34998 20.6256 4.91997 20.6256 8.08997C20.6256 8.51997 20.5956 8.95997 20.5356 9.40997C20.5056 9.63997 20.3656 9.84997 20.1656 9.96997C19.9656 10.09 19.7156 10.1 19.4956 10.01C18.2656 9.47998 16.7356 9.87998 15.9356 10.95C15.7956 11.14 15.5256 11.24 15.3356 11.25C15.0956 11.25 14.8756 11.14 14.7356 10.95C14.1656 10.19 13.2956 9.75998 12.3556 9.75998C10.7256 9.75998 9.39563 11.1 9.39563 12.75C9.39563 15.35 10.8856 17.2 12.1456 18.31C12.3256 18.47 12.4156 18.7 12.3956 18.94C12.3756 19.18 12.2456 19.39 12.0356 19.52C11.9256 19.58 11.8356 19.62 11.7856 19.63C11.5256 19.71 11.2356 19.75 10.9356 19.75ZM6.97562 3.84998C4.65562 3.84998 2.76562 5.74997 2.76562 8.08997C2.76562 13.32 7.11563 16.54 9.61563 17.78C8.66563 16.51 7.88562 14.83 7.88562 12.74C7.88562 10.26 9.88561 8.24997 12.3456 8.24997C13.4656 8.24997 14.5156 8.65998 15.3256 9.38998C16.3356 8.48998 17.7756 8.07996 19.1156 8.32996C19.1156 8.24996 19.1156 8.16998 19.1156 8.09998C19.1156 5.75998 17.2256 3.85995 14.9056 3.85995C13.5756 3.85995 12.3456 4.47996 11.5356 5.54996C11.3956 5.73996 11.1756 5.84998 10.9356 5.84998C10.6956 5.84998 10.4756 5.73996 10.3356 5.54996C9.54563 4.46996 8.31562 3.84998 6.97562 3.84998Z" fill="#171717"/>
<path d="M15.3358 21.65C15.1058 21.65 14.8658 21.62 14.6758 21.55C13.8158 21.26 12.4258 20.55 11.1558 19.42C9.67576 18.11 7.90576 15.89 7.90576 12.74C7.90576 10.26 9.90575 8.25 12.3658 8.25C13.4858 8.25 14.5357 8.66001 15.3457 9.39001C16.6057 8.26001 18.5257 7.94 20.1057 8.63C21.7257 9.35 22.7758 10.97 22.7758 12.75C22.7758 17.49 18.6158 20.67 15.9958 21.56C15.7958 21.62 15.5658 21.65 15.3358 21.65ZM12.3557 9.75C10.7257 9.75 9.39575 11.09 9.39575 12.74C9.39575 15.34 10.8858 17.19 12.1458 18.3C13.2558 19.28 14.4258 19.89 15.1558 20.13C15.2358 20.16 15.4258 20.16 15.4958 20.13C16.9958 19.62 21.2657 17.17 21.2657 12.74C21.2657 11.55 20.5658 10.47 19.4958 10C18.2858 9.47 16.7358 9.87 15.9358 10.94C15.7958 11.13 15.5258 11.23 15.3358 11.24C15.0958 11.24 14.8757 11.13 14.7357 10.94C14.1657 10.18 13.2957 9.75 12.3557 9.75Z" fill="#171717"/>
</svg>
