<svg width="25" height="24" viewBox="0 0 25 24" fill="none" xmlns="http://www.w3.org/2000/svg">
<path d="M4.28567 6.41999C3.69567 4.51999 4.75565 3.46998 6.64565 4.08998L9.59566 5.05998C10.0957 5.21998 10.8456 5.10997 11.2656 4.79997L14.3457 2.57997C16.0157 1.37997 17.3456 2.07998 17.3056 4.12998L17.2356 7.91999C17.2256 8.43999 17.5557 9.12998 17.9757 9.43998L20.4556 11.32C22.0456 12.52 21.7856 13.99 19.8856 14.59L16.6557 15.6C16.1157 15.77 15.5457 16.36 15.4057 16.91L14.6356 19.85C14.0256 22.17 12.5056 22.4 11.2456 20.36L9.48562 17.51C9.16562 16.99 8.40562 16.6 7.80562 16.63L4.46566 16.8C2.07566 16.92 1.39565 15.54 2.95565 13.72L4.93563 11.42C5.12563 11.2 5.25564 10.9 5.32564 10.58" stroke="#171717" stroke-width="1.5" stroke-linecap="round" stroke-linejoin="round"/>
<path d="M21.9256 22L18.8956 18.97" stroke="#171717" stroke-width="1.5" stroke-linecap="round" stroke-linejoin="round"/>
</svg>
