<svg width="25" height="24" viewBox="0 0 25 24" fill="none" xmlns="http://www.w3.org/2000/svg">
<path d="M17.3056 4.13998L17.2356 7.92998C17.2256 8.44998 17.5557 9.13998 17.9757 9.44998L20.4556 11.33C22.0456 12.53 21.7856 14 19.8856 14.6L16.6557 15.61C16.1157 15.78 15.5457 16.37 15.4057 16.92L14.6356 19.86C14.0256 22.18 12.5056 22.41 11.2456 20.37L9.48562 17.52C9.16562 17 8.40562 16.61 7.80562 16.64L4.46566 16.81C2.07566 16.93 1.39565 15.55 2.95565 13.73L4.93563 11.43C5.30563 11 5.47562 10.2 5.30562 9.65999L4.29568 6.42998C3.70568 4.52998 4.76566 3.47999 6.65566 4.09999L9.60567 5.06999C10.1057 5.22999 10.8557 5.11998 11.2757 4.80998L14.3557 2.58998C16.0157 1.38998 17.3456 2.08998 17.3056 4.13998Z" fill="#171717"/>
<path opacity="0.4" d="M21.4556 20.47L18.4256 17.44C18.1356 17.15 17.6556 17.15 17.3656 17.44C17.0756 17.73 17.0756 18.21 17.3656 18.5L20.3956 21.53C20.5456 21.68 20.7356 21.75 20.9256 21.75C21.1156 21.75 21.3056 21.68 21.4556 21.53C21.7456 21.24 21.7456 20.76 21.4556 20.47Z" fill="#171717"/>
</svg>
