<svg width="25" height="24" viewBox="0 0 25 24" fill="none" xmlns="http://www.w3.org/2000/svg">
<path d="M13.0259 22.5C12.4259 22.5 11.4959 22.21 10.6059 20.75L8.8459 17.9C8.6759 17.62 8.15589 17.35 7.83589 17.37L4.49586 17.54C2.49586 17.64 1.79591 16.81 1.54591 16.31C1.29591 15.81 1.07587 14.74 2.37587 13.22L4.35591 10.92C4.55591 10.68 4.66588 10.16 4.57588 9.86002L3.56587 6.63004C3.05587 5.01004 3.62587 4.14004 4.00587 3.76004C4.38587 3.38004 5.26588 2.83003 6.88588 3.37003L9.83589 4.34003C10.1059 4.43003 10.6059 4.35003 10.8359 4.19003L13.9159 1.97003C15.3259 0.950032 16.3459 1.22003 16.8159 1.47003C17.2859 1.72003 18.0859 2.40005 18.0559 4.14005L17.9859 7.93002C17.9759 8.21002 18.2059 8.67003 18.4259 8.84003L20.9059 10.72C22.2559 11.75 22.3059 12.78 22.2159 13.31C22.1259 13.84 21.7259 14.8 20.1059 15.3L16.8759 16.31C16.5759 16.4 16.2059 16.79 16.1259 17.09L15.3559 20.03C14.8459 21.96 13.8459 22.39 13.2859 22.47C13.2159 22.49 13.1259 22.5 13.0259 22.5ZM7.86586 15.87C8.72586 15.87 9.67586 16.39 10.1159 17.11L11.8759 19.96C12.3759 20.78 12.8259 21.03 13.0659 20.99C13.2959 20.96 13.6559 20.58 13.9059 19.66L14.6759 16.72C14.8859 15.92 15.6359 15.13 16.4259 14.89L19.6559 13.88C20.2759 13.69 20.6759 13.38 20.7359 13.06C20.7959 12.74 20.5159 12.32 19.9959 11.92L17.5159 10.04C16.9059 9.58004 16.4659 8.66002 16.4759 7.90002L16.5459 4.11002C16.5559 3.44002 16.3959 2.94004 16.1059 2.79004C15.8159 2.64004 15.3259 2.79002 14.7759 3.18002L11.6959 5.40002C11.0859 5.84002 10.0759 6.00004 9.3459 5.76004L6.39588 4.79004C5.77589 4.59004 5.27591 4.60002 5.04591 4.83002C4.81591 5.06002 4.79585 5.56002 4.98585 6.18002L5.99586 9.41003C6.24586 10.2 6.02585 11.27 5.48585 11.89L3.50587 14.19C2.87587 14.92 2.77588 15.43 2.88588 15.64C2.98588 15.85 3.4659 16.08 4.4159 16.03L7.75587 15.86C7.79587 15.87 7.83586 15.87 7.86586 15.87Z" fill="#171717"/>
<path d="M21.9254 22.75C21.7354 22.75 21.5455 22.68 21.3955 22.53L18.3654 19.5C18.0754 19.21 18.0754 18.73 18.3654 18.44C18.6554 18.15 19.1354 18.15 19.4254 18.44L22.4555 21.47C22.7455 21.76 22.7455 22.24 22.4555 22.53C22.3055 22.68 22.1154 22.75 21.9254 22.75Z" fill="#171717"/>
</svg>
