<svg width="25" height="24" viewBox="0 0 25 24" fill="none" xmlns="http://www.w3.org/2000/svg">
<path d="M12.0156 15.75C7.87563 15.75 4.51562 12.5 4.51562 8.5C4.51562 4.5 7.87563 1.25 12.0156 1.25C16.1556 1.25 19.5156 4.5 19.5156 8.5C19.5156 12.5 16.1556 15.75 12.0156 15.75ZM12.0156 2.75C8.70563 2.75 6.01562 5.33 6.01562 8.5C6.01562 11.67 8.70563 14.25 12.0156 14.25C15.3256 14.25 18.0156 11.67 18.0156 8.5C18.0156 5.33 15.3256 2.75 12.0156 2.75Z" fill="#171717"/>
<path d="M15.6356 22.75C15.3556 22.75 15.0756 22.68 14.7856 22.55L12.0956 21.28C12.0656 21.27 11.9556 21.27 11.9156 21.28L9.24564 22.54C8.65564 22.82 8.03564 22.81 7.55564 22.5C7.05564 22.18 6.76564 21.59 6.77564 20.89L6.78562 13.51C6.78562 13.1 7.10562 12.74 7.53562 12.76C7.94562 12.76 8.28562 13.1 8.28562 13.51L8.27564 20.89C8.27564 21.11 8.33564 21.22 8.36564 21.23C8.38564 21.24 8.47564 21.25 8.61564 21.18L11.2956 19.91C11.7256 19.71 12.3156 19.71 12.7456 19.91L15.4356 21.18C15.5756 21.25 15.6656 21.24 15.6856 21.23C15.7156 21.21 15.7756 21.1 15.7756 20.89V13.33C15.7756 12.92 16.1156 12.58 16.5256 12.58C16.9356 12.58 17.2756 12.92 17.2756 13.33V20.89C17.2756 21.6 16.9856 22.18 16.4856 22.5C16.2256 22.67 15.9356 22.75 15.6356 22.75Z" fill="#171717"/>
</svg>
