<svg width="25" height="24" viewBox="0 0 25 24" fill="none" xmlns="http://www.w3.org/2000/svg">
<path d="M12.0156 16.75C11.6156 16.75 11.2156 16.72 10.8356 16.65C8.71562 16.34 6.78563 15.12 5.56563 13.31C4.71563 12.03 4.26562 10.54 4.26562 9C4.26562 4.73 7.74563 1.25 12.0156 1.25C16.2856 1.25 19.7656 4.73 19.7656 9C19.7656 10.54 19.3156 12.03 18.4656 13.31C17.2356 15.13 15.3056 16.34 13.1656 16.66C12.8156 16.72 12.4156 16.75 12.0156 16.75ZM12.0156 2.75C8.56563 2.75 5.76562 5.55 5.76562 9C5.76562 10.25 6.12562 11.45 6.80562 12.47C7.79562 13.93 9.34562 14.91 11.0656 15.16C11.7056 15.27 12.3356 15.27 12.9256 15.16C14.6756 14.91 16.2256 13.92 17.2156 12.46C17.8956 11.44 18.2556 10.24 18.2556 8.98999C18.2656 5.54999 15.4656 2.75 12.0156 2.75Z" fill="#171717"/>
<path d="M6.48544 22.59C6.34544 22.59 6.21544 22.57 6.07544 22.54C5.42544 22.39 4.92544 21.89 4.77544 21.24L4.42544 19.77C4.40544 19.68 4.33544 19.61 4.23544 19.58L2.58544 19.19C1.96544 19.04 1.47544 18.58 1.30544 17.97C1.13544 17.36 1.30544 16.7 1.75544 16.25L5.65544 12.35C5.81544 12.19 6.03544 12.11 6.25544 12.13C6.47544 12.15 6.67544 12.27 6.80544 12.46C7.79544 13.92 9.34544 14.91 11.0754 15.16C11.7154 15.27 12.3454 15.27 12.9354 15.16C14.6854 14.91 16.2354 13.92 17.2254 12.46C17.3454 12.27 17.5554 12.15 17.7754 12.13C17.9954 12.11 18.2154 12.19 18.3754 12.35L22.2754 16.25C22.7254 16.7 22.8954 17.36 22.7254 17.97C22.5554 18.58 22.0554 19.05 21.4454 19.19L19.7954 19.58C19.7054 19.6 19.6354 19.67 19.6054 19.77L19.2554 21.24C19.1054 21.89 18.6054 22.39 17.9554 22.54C17.3054 22.7 16.6354 22.47 16.2154 21.96L12.0154 17.13L7.81544 21.97C7.47544 22.37 6.99544 22.59 6.48544 22.59ZM6.10544 14.03L2.81544 17.32C2.72544 17.41 2.73544 17.51 2.75544 17.57C2.76544 17.62 2.81544 17.72 2.93544 17.74L4.58544 18.13C5.23544 18.28 5.73544 18.78 5.88544 19.43L6.23544 20.9C6.26544 21.03 6.36544 21.07 6.42544 21.09C6.48544 21.1 6.58544 21.11 6.67544 21.01L10.5054 16.6C8.80544 16.27 7.24544 15.36 6.10544 14.03ZM13.5254 16.59L17.3554 20.99C17.4454 21.1 17.5554 21.1 17.6154 21.08C17.6754 21.07 17.7654 21.02 17.8054 20.89L18.1554 19.42C18.3054 18.77 18.8054 18.27 19.4554 18.12L21.1054 17.73C21.2254 17.7 21.2754 17.61 21.2854 17.56C21.3054 17.51 21.3154 17.4 21.2254 17.31L17.9354 14.02C16.7854 15.35 15.2354 16.26 13.5254 16.59Z" fill="#171717"/>
<path d="M13.9058 12.89C13.6458 12.89 13.3358 12.82 12.9658 12.6L12.0158 12.03L11.0658 12.59C10.1958 13.11 9.62577 12.81 9.41577 12.66C9.20577 12.51 8.75577 12.06 8.98577 11.07L9.22577 10.04L8.42577 9.29999C7.98577 8.85999 7.82577 8.33001 7.97577 7.85001C8.12577 7.37001 8.56577 7.02999 9.18577 6.92999L10.2558 6.75L10.7658 5.63C11.0558 5.06 11.5058 4.73999 12.0158 4.73999C12.5258 4.73999 12.9858 5.07001 13.2658 5.64001L13.8558 6.82001L14.8458 6.94C15.4558 7.04 15.8958 7.37999 16.0558 7.85999C16.2058 8.33999 16.0458 8.87 15.6058 9.31L14.7758 10.14L15.0358 11.07C15.2658 12.06 14.8158 12.51 14.6058 12.66C14.4958 12.75 14.2558 12.89 13.9058 12.89ZM9.62577 8.39001L10.3158 9.07999C10.6358 9.39999 10.7958 9.94 10.6958 10.38L10.5058 11.18L11.3058 10.71C11.7358 10.46 12.3158 10.46 12.7358 10.71L13.5358 11.18L13.3558 10.38C13.2558 9.93001 13.4058 9.39999 13.7258 9.07999L14.4158 8.39001L13.5458 8.23999C13.1258 8.16999 12.7058 7.86001 12.5158 7.48001L12.0158 6.5L11.5158 7.5C11.3358 7.87 10.9158 8.19001 10.4958 8.26001L9.62577 8.39001Z" fill="#171717"/>
</svg>
