<svg width="25" height="24" viewBox="0 0 25 24" fill="none" xmlns="http://www.w3.org/2000/svg">
<path opacity="0.4" d="M17.0156 18.4299H13.0156L8.56561 21.39C7.90561 21.83 7.01562 21.3599 7.01562 20.5599V18.4299C4.01562 18.4299 2.01562 16.4299 2.01562 13.4299V7.42993C2.01562 4.42993 4.01562 2.42993 7.01562 2.42993H17.0156C20.0156 2.42993 22.0156 4.42993 22.0156 7.42993V13.4299C22.0156 16.4299 20.0156 18.4299 17.0156 18.4299Z" fill="#171717"/>
<path d="M12.0156 12.11C11.6056 12.11 11.2656 11.77 11.2656 11.36V11.15C11.2656 9.99002 12.1156 9.42001 12.4356 9.20001C12.8056 8.95001 12.9256 8.78002 12.9256 8.52002C12.9256 8.02002 12.5156 7.60999 12.0156 7.60999C11.5156 7.60999 11.1057 8.02002 11.1057 8.52002C11.1057 8.93002 10.7657 9.27002 10.3557 9.27002C9.94565 9.27002 9.60565 8.93002 9.60565 8.52002C9.60565 7.19002 10.6856 6.10999 12.0156 6.10999C13.3456 6.10999 14.4256 7.19002 14.4256 8.52002C14.4256 9.66002 13.5856 10.23 13.2756 10.44C12.8856 10.7 12.7656 10.87 12.7656 11.15V11.36C12.7656 11.78 12.4256 12.11 12.0156 12.11Z" fill="#171717"/>
<path d="M12.0156 14.6C11.5956 14.6 11.2656 14.26 11.2656 13.85C11.2656 13.44 11.6056 13.1 12.0156 13.1C12.4256 13.1 12.7656 13.44 12.7656 13.85C12.7656 14.26 12.4356 14.6 12.0156 14.6Z" fill="#171717"/>
</svg>
