<svg width="25" height="24" viewBox="0 0 25 24" fill="none" xmlns="http://www.w3.org/2000/svg">
<path d="M16.0756 21.91C15.7656 21.87 15.4056 21.74 15.0056 21.5L12.7656 20.17C12.3556 19.93 11.6956 19.93 11.2856 20.17L9.04561 21.5C7.43561 22.45 6.46561 21.74 6.88561 19.92L7.41561 17.61C7.51561 17.18 7.33562 16.57 7.02562 16.25L5.16561 14.39C4.06561 13.29 4.42561 12.18 5.95561 11.93L8.3456 11.53C8.7456 11.46 9.22563 11.11 9.40563 10.75L10.7256 8.10998C11.4456 6.67998 12.6156 6.67998 13.3256 8.10998L14.6456 10.75C14.8256 11.11 15.3056 11.47 15.7056 11.53L18.0956 11.93C19.6256 12.19 19.9856 13.29 18.8856 14.39L17.0256 16.25C16.7156 16.56 16.5356 17.17 16.6356 17.61" stroke="#171717" stroke-width="1.5" stroke-linecap="round" stroke-linejoin="round"/>
<path d="M6.01562 9V2" stroke="#171717" stroke-width="1.5" stroke-linecap="round" stroke-linejoin="round"/>
<path d="M18.0156 9V2" stroke="#171717" stroke-width="1.5" stroke-linecap="round" stroke-linejoin="round"/>
<path d="M12.0156 4V2" stroke="#171717" stroke-width="1.5" stroke-linecap="round" stroke-linejoin="round"/>
</svg>
