<svg width="25" height="24" viewBox="0 0 25 24" fill="none" xmlns="http://www.w3.org/2000/svg">
<path d="M13.3156 8.10998L14.6356 10.75C14.8156 11.11 15.2956 11.47 15.6956 11.53L18.0856 11.93C19.6156 12.19 19.9756 13.29 18.8756 14.39L17.0156 16.25C16.7056 16.56 16.5256 17.17 16.6256 17.61L17.1556 19.92C17.5756 21.74 16.6056 22.45 14.9956 21.5L12.7556 20.17C12.3456 19.93 11.6856 19.93 11.2756 20.17L9.03558 21.5C7.42558 22.45 6.45558 21.74 6.87558 19.92L7.40561 17.61C7.50561 17.18 7.32559 16.57 7.01559 16.25L5.15561 14.39C4.05561 13.29 4.41558 12.18 5.94558 11.93L8.3356 11.53C8.7356 11.46 9.2156 11.11 9.3956 10.75L10.7156 8.10998C11.4256 6.67998 12.6056 6.67998 13.3156 8.10998Z" fill="#171717"/>
<path opacity="0.4" d="M6.01562 9.75C5.60563 9.75 5.26562 9.41 5.26562 9V2C5.26562 1.59 5.60563 1.25 6.01562 1.25C6.42562 1.25 6.76562 1.59 6.76562 2V9C6.76562 9.41 6.42562 9.75 6.01562 9.75Z" fill="#171717"/>
<path opacity="0.4" d="M18.0156 9.75C17.6056 9.75 17.2656 9.41 17.2656 9V2C17.2656 1.59 17.6056 1.25 18.0156 1.25C18.4256 1.25 18.7656 1.59 18.7656 2V9C18.7656 9.41 18.4256 9.75 18.0156 9.75Z" fill="#171717"/>
<path opacity="0.4" d="M12.0156 4.75C11.6056 4.75 11.2656 4.41 11.2656 4V2C11.2656 1.59 11.6056 1.25 12.0156 1.25C12.4256 1.25 12.7656 1.59 12.7656 2V4C12.7656 4.41 12.4256 4.75 12.0156 4.75Z" fill="#171717"/>
</svg>
