<svg width="25" height="24" viewBox="0 0 25 24" fill="none" xmlns="http://www.w3.org/2000/svg">
<path d="M16.2557 22.67C15.8257 22.67 15.2858 22.54 14.6158 22.14L12.3757 20.81C12.2057 20.71 11.8258 20.71 11.6558 20.81L9.41575 22.14C7.99575 22.98 7.13575 22.63 6.75575 22.35C6.37575 22.07 5.77576 21.35 6.14576 19.75L6.67576 17.44C6.71576 17.26 6.61576 16.92 6.48576 16.78L4.62574 14.92C3.62574 13.92 3.70574 13.05 3.84574 12.61C3.98574 12.17 4.42575 11.42 5.81575 11.18L8.20576 10.78C8.37576 10.75 8.64577 10.55 8.71577 10.4L10.0357 7.76001C10.6857 6.47001 11.5457 6.27002 12.0057 6.27002C12.4657 6.27002 13.3257 6.46001 13.9757 7.76001L15.2958 10.4C15.3758 10.55 15.6458 10.75 15.8058 10.78L18.1958 11.18C19.5858 11.41 20.0258 12.17 20.1658 12.61C20.3058 13.05 20.3858 13.92 19.3858 14.92L17.5258 16.78C17.3958 16.91 17.2958 17.26 17.3358 17.44L17.8658 19.74C18.2358 21.35 17.6457 22.06 17.2557 22.34C17.0757 22.5 16.7357 22.67 16.2557 22.67ZM12.0158 19.24C12.4158 19.24 12.8158 19.33 13.1358 19.52L15.3757 20.85C15.9657 21.2 16.3158 21.2 16.3858 21.14C16.4658 21.08 16.5658 20.75 16.4158 20.09L15.8858 17.79C15.7258 17.11 15.9857 16.23 16.4757 15.74L18.3358 13.88C18.7058 13.51 18.7858 13.22 18.7458 13.09C18.7058 12.96 18.4758 12.77 17.9558 12.69L15.5657 12.29C14.9257 12.18 14.2458 11.68 13.9558 11.1L12.6358 8.46002C12.4058 8.01002 12.1557 7.80002 12.0057 7.80002C11.8557 7.80002 11.6057 8.00002 11.3757 8.46002L10.0558 11.1C9.76577 11.68 9.08575 12.18 8.44575 12.29L6.05577 12.69C5.53577 12.78 5.30576 12.96 5.26576 13.09C5.22576 13.22 5.30576 13.51 5.67576 13.88L7.53575 15.74C8.02575 16.23 8.28574 17.12 8.12574 17.79L7.59574 20.1C7.44574 20.77 7.54574 21.1 7.62574 21.15C7.70574 21.21 8.05575 21.21 8.63575 20.86L10.8757 19.53C11.2157 19.34 11.6158 19.24 12.0158 19.24Z" fill="#171717"/>
<path d="M6.01562 9.75C5.60563 9.75 5.26562 9.41 5.26562 9V2C5.26562 1.59 5.60563 1.25 6.01562 1.25C6.42562 1.25 6.76562 1.59 6.76562 2V9C6.76562 9.41 6.42562 9.75 6.01562 9.75Z" fill="#171717"/>
<path d="M18.0156 9.75C17.6056 9.75 17.2656 9.41 17.2656 9V2C17.2656 1.59 17.6056 1.25 18.0156 1.25C18.4256 1.25 18.7656 1.59 18.7656 2V9C18.7656 9.41 18.4256 9.75 18.0156 9.75Z" fill="#171717"/>
<path d="M12.0156 4.75C11.6056 4.75 11.2656 4.41 11.2656 4V2C11.2656 1.59 11.6056 1.25 12.0156 1.25C12.4256 1.25 12.7656 1.59 12.7656 2V4C12.7656 4.41 12.4256 4.75 12.0156 4.75Z" fill="#171717"/>
</svg>
