<svg width="25" height="24" viewBox="0 0 25 24" fill="none" xmlns="http://www.w3.org/2000/svg">
<path d="M10.0156 14.75H6.21563C2.79563 14.75 1.26562 13.22 1.26562 9.80005V6.19995C1.26562 2.77995 2.79563 1.25 6.21563 1.25H9.81562C13.2356 1.25 14.7656 2.77995 14.7656 6.19995V10C14.7656 10.41 14.4356 10.74 14.0256 10.75C11.6256 10.79 10.8056 11.62 10.7656 14.01C10.7556 14.42 10.4256 14.75 10.0156 14.75ZM6.21563 2.75C3.63563 2.75 2.76562 3.61995 2.76562 6.19995V9.80005C2.76562 12.38 3.63563 13.25 6.21563 13.25H9.30563C9.54563 10.81 10.8256 9.54004 13.2656 9.29004V6.19995C13.2656 3.61995 12.3956 2.75 9.81562 2.75H6.21563Z" fill="#171717"/>
<path d="M5.21563 6.63002C4.98563 6.63002 4.74563 6.52007 4.60563 6.31007C4.36563 5.97007 4.44563 5.50002 4.78563 5.26002C5.56563 4.71002 6.61563 4.7 7.40563 5.24C7.74563 5.47 7.83563 5.94004 7.60563 6.28004C7.37563 6.62004 6.90563 6.70999 6.56563 6.47999C6.29563 6.29999 5.93563 6.3 5.66563 6.49C5.51563 6.59 5.36563 6.63002 5.21563 6.63002Z" fill="#171717"/>
<path d="M9.21563 6.63002C8.98563 6.63002 8.74563 6.52007 8.60563 6.31007C8.36563 5.97007 8.44563 5.50002 8.78563 5.26002C9.56563 4.71002 10.6156 4.7 11.4056 5.24C11.7456 5.47 11.8356 5.94004 11.6056 6.28004C11.3756 6.62004 10.9056 6.70999 10.5656 6.47999C10.2956 6.29999 9.93563 6.3 9.66563 6.49C9.51563 6.59 9.36563 6.63002 9.21563 6.63002Z" fill="#171717"/>
<path d="M8.17543 12.17H5.85543C5.14543 12.17 4.56543 11.59 4.56543 10.88C4.56543 8.98 6.11543 7.43005 8.01543 7.43005C8.79543 7.43005 9.56543 7.69994 10.1754 8.18994C10.4954 8.44994 10.5554 8.91999 10.2954 9.23999C10.0354 9.55999 9.56543 9.60999 9.24543 9.35999C8.89543 9.07999 8.47543 8.93005 8.02543 8.93005C7.02543 8.93005 6.19543 9.69004 6.08543 10.67H8.18543C8.59543 10.67 8.93543 11.01 8.93543 11.42C8.93543 11.83 8.58543 12.17 8.17543 12.17Z" fill="#171717"/>
<path d="M17.8156 22.75H14.2156C10.7956 22.75 9.26562 21.22 9.26562 17.8V14C9.32562 10.81 10.8256 9.31 14.0056 9.25H17.8156C21.2356 9.25 22.7656 10.78 22.7656 14.2V17.8C22.7656 21.22 21.2356 22.75 17.8156 22.75ZM14.0156 10.75C11.6356 10.79 10.8056 11.62 10.7656 14.01V17.8C10.7656 20.38 11.6356 21.25 14.2156 21.25H17.8156C20.3956 21.25 21.2656 20.38 21.2656 17.8V14.2C21.2656 11.62 20.3956 10.75 17.8156 10.75H14.0156Z" fill="#171717"/>
<path d="M14.1056 14.63C13.6356 14.63 13.1756 14.49 12.7856 14.21C12.4456 13.97 12.3656 13.5001 12.6056 13.1601C12.8456 12.8201 13.3156 12.74 13.6556 12.98C13.9256 13.17 14.2856 13.17 14.5556 12.99C14.8956 12.76 15.3656 12.84 15.5956 13.19C15.8256 13.53 15.7456 14 15.3956 14.23C15.0056 14.5 14.5556 14.63 14.1056 14.63Z" fill="#171717"/>
<path d="M18.1056 14.63C17.6356 14.63 17.1756 14.49 16.7856 14.21C16.4456 13.97 16.3656 13.5001 16.6056 13.1601C16.8456 12.8201 17.3156 12.74 17.6556 12.98C17.9256 13.17 18.2856 13.17 18.5556 12.99C18.8956 12.76 19.3656 12.84 19.5956 13.19C19.8256 13.53 19.7456 14 19.3956 14.23C19.0056 14.5 18.5556 14.63 18.1056 14.63Z" fill="#171717"/>
<path d="M16.0154 20.17C14.1154 20.17 12.5654 18.62 12.5654 16.72C12.5654 16.01 13.1454 15.4301 13.8554 15.4301H18.1754C18.8854 15.4301 19.4654 16.01 19.4654 16.72C19.4654 18.62 17.9154 20.17 16.0154 20.17ZM14.0754 16.9301C14.1754 17.9101 15.0054 18.67 16.0154 18.67C17.0254 18.67 17.8454 17.9101 17.9554 16.9301H14.0754Z" fill="#171717"/>
</svg>
