<svg width="25" height="24" viewBox="0 0 25 24" fill="none" xmlns="http://www.w3.org/2000/svg">
<path opacity="0.4" d="M14.0156 5V10H13.0156C11.3656 10 10.0156 11.35 10.0156 13V14H5.01562C3.35563 14 2.01562 12.66 2.01562 11V5C2.01562 3.34 3.35563 2 5.01562 2H11.0156C12.6756 2 14.0156 3.34 14.0156 5Z" fill="#171717"/>
<path d="M5.21563 6.63002C4.98563 6.63002 4.74563 6.52001 4.60563 6.31001C4.36563 5.97001 4.44563 5.50002 4.78563 5.26002C5.56563 4.71002 6.61563 4.7 7.40563 5.24C7.74563 5.47 7.83563 5.94004 7.60563 6.28004C7.37563 6.62004 6.90563 6.70999 6.56563 6.47999C6.29563 6.29999 5.93563 6.3 5.66563 6.49C5.51563 6.59 5.36563 6.63002 5.21563 6.63002Z" fill="#171717"/>
<path d="M9.21563 6.63002C8.98563 6.63002 8.74563 6.52001 8.60563 6.31001C8.36563 5.97001 8.44563 5.50002 8.78563 5.26002C9.56563 4.71002 10.6156 4.7 11.4056 5.24C11.7456 5.47 11.8356 5.94004 11.6056 6.28004C11.3756 6.62004 10.9056 6.70999 10.5656 6.47999C10.2956 6.29999 9.93563 6.3 9.66563 6.49C9.51563 6.59 9.36563 6.63002 9.21563 6.63002Z" fill="#171717"/>
<path d="M8.17561 12.1699H5.85561C5.14561 12.1699 4.56561 11.5899 4.56561 10.8799C4.56561 8.97994 6.11561 7.42993 8.01561 7.42993C8.79561 7.42993 9.56561 7.69994 10.1756 8.18994C10.4956 8.44994 10.5556 8.91993 10.2956 9.23993C10.0356 9.55993 9.56561 9.61992 9.24561 9.35992C8.89561 9.07992 8.47561 8.92993 8.02561 8.92993C7.02561 8.92993 6.19561 9.68992 6.08561 10.6699H8.18561C8.59561 10.6699 8.93561 11.0099 8.93561 11.4199C8.93561 11.8299 8.58561 12.1699 8.17561 12.1699Z" fill="#171717"/>
<path d="M18.2356 16.6801C18.1656 16.6001 18.0656 16.5601 17.9556 16.5601H14.0756C13.9656 16.5601 13.8656 16.6001 13.7956 16.6801C13.7256 16.7601 13.6856 16.87 13.7056 16.97C13.8356 18.15 14.8256 19.05 16.0156 19.05C17.2056 19.05 18.1956 18.16 18.3256 16.97C18.3356 16.86 18.3056 16.7601 18.2356 16.6801Z" fill="#171717"/>
<path d="M19.0156 10H13.0156C11.3656 10 10.0156 11.35 10.0156 13V19C10.0156 20.65 11.3656 22 13.0156 22H19.0156C20.6656 22 22.0156 20.65 22.0156 19V13C22.0156 11.35 20.6656 10 19.0156 10ZM12.6056 13.17C12.8456 12.83 13.3156 12.75 13.6556 12.99C13.9256 13.18 14.2856 13.18 14.5556 13C14.8956 12.76 15.3656 12.85 15.5956 13.2C15.8256 13.54 15.7456 14.01 15.3956 14.24C15.0056 14.5 14.5556 14.64 14.1056 14.64C13.6356 14.64 13.1756 14.5 12.7856 14.22C12.4456 13.97 12.3656 13.5 12.6056 13.17ZM16.0156 20.17C14.1156 20.17 12.5656 18.62 12.5656 16.72C12.5656 16.01 13.1456 15.43 13.8556 15.43H18.1756C18.8856 15.43 19.4656 16.01 19.4656 16.72C19.4656 18.62 17.9156 20.17 16.0156 20.17ZM19.3956 14.23C19.0056 14.49 18.5556 14.63 18.1056 14.63C17.6356 14.63 17.1756 14.49 16.7856 14.21C16.4456 13.97 16.3656 13.5 16.6056 13.16C16.8456 12.82 17.3156 12.74 17.6556 12.98C17.9256 13.17 18.2856 13.17 18.5556 12.99C18.8956 12.75 19.3656 12.84 19.5956 13.19C19.8256 13.54 19.7356 14 19.3956 14.23Z" fill="#171717"/>
</svg>
