<svg width="25" height="24" viewBox="0 0 25 24" fill="none" xmlns="http://www.w3.org/2000/svg">
<path d="M15.4056 5.21L16.8156 8.03C17.0056 8.42 17.5156 8.79 17.9456 8.87L20.4956 9.29C22.1256 9.56 22.5056 10.74 21.3356 11.92L19.3456 13.91C19.0156 14.24 18.8256 14.89 18.9356 15.36L19.5056 17.82C19.9556 19.76 18.9156 20.52 17.2056 19.5L14.8156 18.08C14.3856 17.82 13.6656 17.82 13.2356 18.08L10.8456 19.5C9.13556 20.51 8.09557 19.76 8.54557 17.82L9.11558 15.36C9.22558 14.9 9.03558 14.25 8.70558 13.91L6.71559 11.92C5.54559 10.75 5.92558 9.57 7.55558 9.29L10.1056 8.87C10.5356 8.8 11.0456 8.42 11.2356 8.03L12.6456 5.21C13.3956 3.68 14.6356 3.68 15.4056 5.21Z" fill="#171717"/>
<path opacity="0.4" d="M8.01562 5.75H2.01562C1.60563 5.75 1.26562 5.41 1.26562 5C1.26562 4.59 1.60563 4.25 2.01562 4.25H8.01562C8.42562 4.25 8.76562 4.59 8.76562 5C8.76562 5.41 8.42562 5.75 8.01562 5.75Z" fill="#171717"/>
<path opacity="0.4" d="M5.01562 19.75H2.01562C1.60563 19.75 1.26562 19.41 1.26562 19C1.26562 18.59 1.60563 18.25 2.01562 18.25H5.01562C5.42562 18.25 5.76562 18.59 5.76562 19C5.76562 19.41 5.42562 19.75 5.01562 19.75Z" fill="#171717"/>
<path opacity="0.4" d="M3.01562 12.75H2.01562C1.60563 12.75 1.26562 12.41 1.26562 12C1.26562 11.59 1.60563 11.25 2.01562 11.25H3.01562C3.42563 11.25 3.76562 11.59 3.76562 12C3.76562 12.41 3.42563 12.75 3.01562 12.75Z" fill="#171717"/>
</svg>
