<svg width="25" height="24" viewBox="0 0 25 24" fill="none" xmlns="http://www.w3.org/2000/svg">
<path d="M9.49582 20.6901C8.99582 20.6901 8.64582 20.5201 8.43582 20.3601C8.03582 20.0701 7.41582 19.3201 7.80582 17.6401L8.3758 15.1801C8.4258 14.9701 8.3158 14.5901 8.1658 14.4301L6.17581 12.4401C5.12581 11.3901 5.21581 10.4801 5.35581 10.0301C5.49581 9.58006 5.9558 8.79005 7.4158 8.54005L9.96582 8.12006C10.1558 8.09006 10.4658 7.86006 10.5458 7.69006L11.9558 4.87006C12.6358 3.51006 13.5358 3.31006 14.0158 3.31006C14.4958 3.31006 15.3958 3.51006 16.0758 4.87006L17.4858 7.69006C17.5758 7.86006 17.8758 8.09006 18.0658 8.12006L20.6158 8.54005C22.0758 8.78005 22.5358 9.58006 22.6758 10.0301C22.8158 10.4801 22.9058 11.3901 21.8558 12.4401L19.8658 14.4301C19.7158 14.5801 19.6058 14.9701 19.6558 15.1801L20.2258 17.6401C20.6158 19.3301 19.9958 20.0701 19.5958 20.3601C19.1958 20.6501 18.3058 21.0201 16.8058 20.1301L14.4158 18.7101C14.2158 18.5901 13.7958 18.5901 13.5958 18.7101L11.2058 20.1301C10.5158 20.5501 9.93582 20.6901 9.49582 20.6901ZM14.0158 4.81006C13.8558 4.81006 13.5658 5.00005 13.2958 5.54005L11.8858 8.36006C11.5858 8.97006 10.8758 9.49007 10.2058 9.60007L7.65583 10.0201C7.08583 10.1201 6.82582 10.3301 6.77582 10.4901C6.72582 10.6501 6.8158 10.9701 7.2258 11.3801L9.21582 13.3701C9.72582 13.8801 9.99582 14.8101 9.83582 15.5101L9.26581 17.9701C9.09581 18.6801 9.2058 19.0601 9.3158 19.1501C9.4258 19.2301 9.8258 19.2201 10.4458 18.8401L12.8458 17.4201C13.5158 17.0201 14.5258 17.0201 15.1858 17.4201L17.5758 18.8401C18.2058 19.2101 18.6058 19.2301 18.7158 19.1501C18.8258 19.0701 18.9358 18.6901 18.7658 17.9701L18.1958 15.5101C18.0358 14.8001 18.2958 13.8801 18.8158 13.3701L20.8058 11.3801C21.2158 10.9701 21.3058 10.6401 21.2558 10.4901C21.2058 10.3401 20.9458 10.1201 20.3758 10.0201L17.8258 9.60007C17.1558 9.49007 16.4458 8.97006 16.1458 8.36006L14.7358 5.54005C14.4658 5.00005 14.1758 4.81006 14.0158 4.81006Z" fill="#171717"/>
<path d="M8.01562 5.75H2.01562C1.60563 5.75 1.26562 5.41 1.26562 5C1.26562 4.59 1.60563 4.25 2.01562 4.25H8.01562C8.42562 4.25 8.76562 4.59 8.76562 5C8.76562 5.41 8.42562 5.75 8.01562 5.75Z" fill="#171717"/>
<path d="M5.01562 19.75H2.01562C1.60563 19.75 1.26562 19.41 1.26562 19C1.26562 18.59 1.60563 18.25 2.01562 18.25H5.01562C5.42562 18.25 5.76562 18.59 5.76562 19C5.76562 19.41 5.42562 19.75 5.01562 19.75Z" fill="#171717"/>
<path d="M3.01562 12.75H2.01562C1.60563 12.75 1.26562 12.41 1.26562 12C1.26562 11.59 1.60563 11.25 2.01562 11.25H3.01562C3.42563 11.25 3.76562 11.59 3.76562 12C3.76562 12.41 3.42563 12.75 3.01562 12.75Z" fill="#171717"/>
</svg>
