<svg width="25" height="24" viewBox="0 0 25 24" fill="none" xmlns="http://www.w3.org/2000/svg">
<path d="M16.0657 7.67001C15.8257 7.49001 15.6257 7.26001 15.5157 7.03001L13.7557 3.51001C12.8057 1.60001 11.2457 1.60001 10.2857 3.51001L8.51566 7.03001C8.39566 7.28001 8.17566 7.51001 7.92566 7.70001" stroke="#171717" stroke-width="1.5" stroke-linecap="round" stroke-linejoin="round"/>
<path d="M5.29566 18.65L5.86566 16.18C5.99566 15.6 5.76566 14.79 5.34566 14.37L2.86566 11.89C1.40566 10.43 1.87566 8.94999 3.91566 8.60999" stroke="#171717" stroke-width="1.5" stroke-linecap="round" stroke-linejoin="round"/>
<path d="M20.1156 8.60999C22.1556 8.94999 22.6356 10.43 21.1656 11.89L18.6856 14.37C18.2656 14.79 18.0356 15.6 18.1656 16.18L18.8756 19.25C19.4356 21.68 18.1456 22.62 15.9956 21.35L13.0056 19.58C12.4656 19.26 11.5756 19.26 11.0256 19.58L8.03564 21.35" stroke="#171717" stroke-width="1.5" stroke-linecap="round" stroke-linejoin="round"/>
<path d="M22.0156 2L2.01562 22" stroke="#171717" stroke-width="1.5" stroke-linecap="round" stroke-linejoin="round"/>
</svg>
