<svg width="25" height="24" viewBox="0 0 25 24" fill="none" xmlns="http://www.w3.org/2000/svg">
<path d="M5.29562 19.4C5.23562 19.4 5.18562 19.39 5.12562 19.38C4.72562 19.29 4.46562 18.88 4.56562 18.48L5.13562 16.02C5.21562 15.7 5.05562 15.15 4.81562 14.91L2.33562 12.43C1.09562 11.19 1.19562 10.13 1.36562 9.60996C1.53562 9.08996 2.07562 8.16996 3.79562 7.87996L6.98562 7.34996C7.28562 7.28996 7.71562 6.96996 7.84562 6.69996L9.61562 3.16996C10.4156 1.55996 11.4656 1.32996 12.0156 1.32996C12.5656 1.32996 13.6156 1.56996 14.4156 3.16996L16.1756 6.68996C16.2356 6.80996 16.3656 6.94996 16.5156 7.06996C16.8456 7.31996 16.9056 7.79996 16.6456 8.11996C16.3956 8.44996 15.9256 8.50996 15.5956 8.24996C15.3556 8.06996 15.0356 7.75996 14.8356 7.35996L13.0756 3.83996C12.7656 3.20996 12.3656 2.82996 12.0156 2.82996C11.6656 2.82996 11.2656 3.20996 10.9556 3.84996L9.18562 7.36996C8.83562 8.06996 7.99562 8.68996 7.22562 8.81996L4.04562 9.34996C3.36562 9.45996 2.90562 9.72996 2.79562 10.06C2.68562 10.39 2.91562 10.88 3.40562 11.36L5.88562 13.84C6.48562 14.44 6.79562 15.52 6.60562 16.35L6.03562 18.81C5.94562 19.16 5.64562 19.4 5.29562 19.4Z" fill="#171717"/>
<path d="M17.6756 22.67C17.1456 22.67 16.4656 22.5 15.6156 22L12.6256 20.23C12.3156 20.05 11.7156 20.05 11.4156 20.23L8.41557 22C8.06557 22.21 7.59557 22.09 7.38557 21.74C7.17557 21.38 7.29557 20.92 7.64557 20.71L10.6356 18.94C11.4156 18.48 12.5956 18.48 13.3756 18.94L16.3656 20.71C17.2356 21.23 17.7856 21.23 17.9956 21.08C18.2056 20.93 18.3556 20.4 18.1356 19.42L17.4256 16.35C17.2356 15.52 17.5456 14.45 18.1456 13.84L20.6256 11.36C21.1156 10.87 21.3356 10.39 21.2356 10.06C21.1256 9.73003 20.6656 9.46003 19.9856 9.35003C19.5756 9.28003 19.3056 8.90002 19.3656 8.49002C19.4356 8.08002 19.8156 7.81002 20.2256 7.87002C21.9556 8.16002 22.4956 9.08003 22.6556 9.60003C22.8156 10.12 22.9156 11.18 21.6856 12.42L19.2156 14.9C18.9756 15.14 18.8256 15.68 18.8956 16.01L19.6056 19.08C20.0656 21.08 19.3556 21.95 18.8956 22.29C18.6456 22.47 18.2456 22.67 17.6756 22.67Z" fill="#171717"/>
<path d="M2.01557 22.7499C1.82557 22.7499 1.63557 22.6799 1.48557 22.5299C1.19557 22.2399 1.19557 21.7599 1.48557 21.4699L21.4856 1.46994C21.7756 1.17994 22.2556 1.17994 22.5456 1.46994C22.8356 1.75994 22.8356 2.23994 22.5456 2.52994L2.54557 22.5299C2.39557 22.6799 2.20557 22.7499 2.01557 22.7499Z" fill="#171717"/>
</svg>
