<svg width="25" height="24" viewBox="0 0 25 24" fill="none" xmlns="http://www.w3.org/2000/svg">
<path d="M17.4659 17.2999C15.7859 17.2999 14.2359 16.5099 13.2259 15.1199C12.9859 14.7899 13.0559 14.3199 13.3859 14.0699C13.7159 13.8199 14.1859 13.8999 14.4359 14.2299C15.1659 15.2199 16.2659 15.7899 17.4659 15.7899C19.5559 15.7899 21.2659 14.0899 21.2659 11.9899C21.2659 9.88993 19.5659 8.18994 17.4659 8.18994C16.0459 8.18994 14.7059 8.94991 13.9759 10.1599L11.3259 14.5699C10.3259 16.2399 8.49588 17.27 6.55588 17.27C3.63588 17.27 1.25586 14.8899 1.25586 11.9699C1.25586 9.04991 3.63588 6.66992 6.55588 6.66992C8.23588 6.66992 9.78587 7.45991 10.7959 8.84991C11.0359 9.17991 10.9659 9.64996 10.6359 9.89996C10.2959 10.14 9.83588 10.0699 9.58588 9.73993C8.85588 8.74993 7.75588 8.17993 6.55588 8.17993C4.46588 8.17993 2.75586 9.87992 2.75586 11.9799C2.75586 14.0799 4.45588 15.78 6.55588 15.78C7.97588 15.78 9.31587 15.0199 10.0459 13.8099L12.6959 9.39996C13.6959 7.72996 15.5259 6.69995 17.4659 6.69995C20.3859 6.69995 22.7659 9.07994 22.7659 11.9999C22.7659 14.9199 20.3859 17.2999 17.4659 17.2999Z" fill="#171717"/>
</svg>
