<svg width="25" height="24" viewBox="0 0 25 24" fill="none" xmlns="http://www.w3.org/2000/svg">
<path opacity="0.4" d="M17.4656 17.3C15.7856 17.3 14.2356 16.51 13.2256 15.12C12.9856 14.79 13.0556 14.32 13.3856 14.07C13.7156 13.82 14.1856 13.9 14.4356 14.23C15.1656 15.22 16.2656 15.79 17.4656 15.79C19.5556 15.79 21.2656 14.09 21.2656 11.99C21.2656 9.89002 19.5656 8.19003 17.4656 8.19003C16.0456 8.19003 14.7056 8.95003 13.9756 10.16L11.3256 14.57C10.3256 16.24 8.49563 17.27 6.55563 17.27C3.63563 17.27 1.25562 14.89 1.25562 11.97C1.25562 9.05003 3.63563 6.67004 6.55563 6.67004C8.23563 6.67004 9.78562 7.46004 10.7956 8.85004C11.0356 9.18004 10.9656 9.65002 10.6356 9.90002C10.2956 10.15 9.83563 10.07 9.58563 9.74002C8.85563 8.75002 7.75563 8.18002 6.55563 8.18002C4.46563 8.18002 2.75562 9.88004 2.75562 11.98C2.75562 14.08 4.45563 15.78 6.55563 15.78C7.97563 15.78 9.31562 15.02 10.0456 13.81L12.6956 9.40002C13.6956 7.73002 15.5256 6.70004 17.4656 6.70004C20.3856 6.70004 22.7656 9.08003 22.7656 12C22.7656 14.92 20.3856 17.3 17.4656 17.3Z" fill="#171717"/>
<path d="M6.51562 14C7.62019 14 8.51562 13.1046 8.51562 12C8.51562 10.8954 7.62019 10 6.51562 10C5.41106 10 4.51562 10.8954 4.51562 12C4.51562 13.1046 5.41106 14 6.51562 14Z" fill="#171717"/>
<path d="M17.5156 14C18.6202 14 19.5156 13.1046 19.5156 12C19.5156 10.8954 18.6202 10 17.5156 10C16.4111 10 15.5156 10.8954 15.5156 12C15.5156 13.1046 16.4111 14 17.5156 14Z" fill="#171717"/>
</svg>
