<svg width="24" height="24" viewBox="0 0 24 24" fill="none" xmlns="http://www.w3.org/2000/svg">
<path d="M18.2902 22.75H5.71019C2.31019 22.75 2.13019 20.88 1.98019 19.37L1.58019 14.36C1.49019 13.39 1.77019 12.42 2.39019 11.64C3.13019 10.74 4.18019 10.25 5.31019 10.25H18.6902C19.8002 10.25 20.8502 10.74 21.5602 11.59L21.7302 11.82C22.2702 12.56 22.5102 13.46 22.4202 14.37L22.0202 19.36C21.8702 20.88 21.6902 22.75 18.2902 22.75ZM5.31019 11.75C4.64019 11.75 4.00019 12.05 3.58019 12.57L3.51019 12.64C3.19019 13.05 3.02019 13.63 3.08019 14.23L3.48019 19.24C3.62019 20.7 3.68019 21.25 5.71019 21.25H18.2902C20.3302 21.25 20.3802 20.7 20.5202 19.23L20.9202 14.22C20.9802 13.63 20.8102 13.04 20.4202 12.58L20.3202 12.46C19.8702 11.99 19.3002 11.75 18.6802 11.75H5.31019Z" fill="#171717"/>
<path d="M20.5002 12.22C20.0902 12.22 19.7502 11.88 19.7502 11.47V9.68C19.7502 6.7 19.2302 6.18 16.2502 6.18H13.7002C12.5702 6.18 12.1802 5.78 11.7502 5.21L10.4602 3.5C10.0202 2.92 9.92024 2.78 9.02024 2.78H7.75024C4.77024 2.78 4.25024 3.3 4.25024 6.28V11.43C4.25024 11.84 3.91024 12.18 3.50024 12.18C3.09024 12.18 2.75024 11.84 2.75024 11.43V6.28C2.75024 2.45 3.92024 1.28 7.75024 1.28H9.03024C10.5702 1.28 11.0502 1.78 11.6702 2.6L12.9502 4.3C13.2202 4.66 13.2402 4.68 13.7102 4.68H16.2602C20.0902 4.68 21.2602 5.85 21.2602 9.68V11.47C21.2502 11.88 20.9102 12.22 20.5002 12.22Z" fill="#171717"/>
<path d="M14.5702 17.75H9.43018C9.02018 17.75 8.68018 17.41 8.68018 17C8.68018 16.59 9.02018 16.25 9.43018 16.25H14.5702C14.9802 16.25 15.3202 16.59 15.3202 17C15.3202 17.41 14.9902 17.75 14.5702 17.75Z" fill="#171717"/>
</svg>
