<svg width="24" height="24" viewBox="0 0 24 24" fill="none" xmlns="http://www.w3.org/2000/svg">
<path d="M9.00049 22.75H7.00049C2.59049 22.75 1.25049 21.41 1.25049 17V7C1.25049 2.59 2.59049 1.25 7.00049 1.25H8.50049C10.2505 1.25 10.8005 1.82 11.5005 2.75L13.0005 4.75C13.3305 5.19 13.3805 5.25 14.0005 5.25H17.0005C21.4105 5.25 22.7505 6.59 22.7505 11V13C22.7505 13.41 22.4105 13.75 22.0005 13.75C21.5905 13.75 21.2505 13.41 21.2505 13V11C21.2505 7.43 20.5805 6.75 17.0005 6.75H14.0005C12.7205 6.75 12.3005 6.30999 11.8005 5.64999L10.3005 3.64999C9.78048 2.95999 9.62049 2.75 8.50049 2.75H7.00049C3.42049 2.75 2.75049 3.43 2.75049 7V17C2.75049 20.57 3.42049 21.25 7.00049 21.25H9.00049C9.41049 21.25 9.75049 21.59 9.75049 22C9.75049 22.41 9.41049 22.75 9.00049 22.75Z" fill="#171717"/>
<path d="M19.3408 22.81C19.3308 22.81 19.3207 22.81 19.3107 22.81H13.7507C12.0807 22.69 11.2407 21.41 11.2407 20.19C11.2407 19.21 11.7907 18.18 12.8507 17.76C12.6307 16.51 12.9508 15.35 13.7808 14.48C14.8008 13.41 16.4407 12.98 17.8607 13.41C19.1007 13.79 19.9907 14.77 20.3607 16.13C21.4107 16.45 22.2407 17.28 22.5807 18.41C22.9807 19.72 22.6107 21.06 21.6207 21.92C21.0207 22.49 20.2008 22.81 19.3408 22.81ZM13.7907 19.07C13.0307 19.14 12.7507 19.71 12.7507 20.19C12.7507 20.67 13.0307 21.25 13.8107 21.31H19.3207C19.8007 21.35 20.2807 21.13 20.6407 20.81C21.2907 20.24 21.3307 19.43 21.1607 18.85C20.9907 18.27 20.4908 17.62 19.6508 17.51C19.3208 17.47 19.0607 17.22 19.0007 16.89C18.7807 15.54 18.0207 15.04 17.4307 14.85C16.5507 14.58 15.5107 14.86 14.8807 15.52C14.4507 15.97 14.0307 16.78 14.5007 18.07C14.6407 18.46 14.4407 18.89 14.0507 19.03C13.9607 19.06 13.8707 19.07 13.7907 19.07Z" fill="#171717"/>
</svg>
