<svg width="24" height="24" viewBox="0 0 24 24" fill="none" xmlns="http://www.w3.org/2000/svg">
<path d="M21.3705 18.02L21.2705 19.3C21.1205 20.83 21.0005 22 18.2905 22H5.7105C3.0005 22 2.8805 20.83 2.7305 19.3L2.3305 14.3C2.2505 13.47 2.5105 12.7 2.9805 12.11C2.9905 12.1 2.9905 12.1 3.0005 12.09C3.5505 11.42 4.3805 11 5.3105 11H18.6905C19.6205 11 20.4405 11.42 20.9805 12.07C20.9905 12.08 21.0005 12.09 21.0005 12.1C21.4905 12.69 21.7605 13.46 21.6705 14.3" stroke="#171717" stroke-width="1.5" stroke-miterlimit="10" stroke-linecap="round" stroke-linejoin="round"/>
<path d="M3.50049 11.43V6.28C3.50049 2.88 4.35049 2.03 7.75049 2.03H9.02049C10.2905 2.03 10.5805 2.41 11.0605 3.05L12.3305 4.75C12.6505 5.17 12.8405 5.43 13.6905 5.43H16.2405C19.6405 5.43 20.4905 6.28 20.4905 9.68V11.47" stroke="#171717" stroke-width="1.5" stroke-miterlimit="10" stroke-linecap="round" stroke-linejoin="round"/>
<path d="M9.43042 17H14.5704" stroke="#171717" stroke-width="1.5" stroke-miterlimit="10" stroke-linecap="round" stroke-linejoin="round"/>
</svg>
