<svg width="24" height="24" viewBox="0 0 24 24" fill="none" xmlns="http://www.w3.org/2000/svg">
<path opacity="0.4" d="M21.9905 10.84C21.9705 10.36 21.8905 9.89 21.7405 9.44C21.0505 7.28 19.0305 5.72 16.6505 5.72H13.8605C13.2805 5.72 13.2405 5.66 12.9305 5.25L11.5305 3.39C10.8805 2.52 10.3705 1.99001 8.74048 1.99001H6.41046C3.97046 1.99001 1.99048 3.97 1.99048 6.41V9.42999V16.64C1.99048 19.59 4.39052 21.99 7.34052 21.99H16.6405C19.5905 21.99 21.9905 19.59 21.9905 16.64V11.06C22.0005 11 22.0005 10.91 21.9905 10.84Z" fill="#171717"/>
<path d="M15.5805 19.7C13.4705 19.85 13.4705 22.91 15.5805 23.06H20.5906C21.2006 23.06 21.7805 22.84 22.2305 22.43C23.7105 21.14 22.9205 18.54 20.9705 18.3C20.2705 14.08 14.1605 15.68 15.6105 19.7" fill="#171717"/>
</svg>
