<svg width="24" height="24" viewBox="0 0 24 24" fill="none" xmlns="http://www.w3.org/2000/svg">
<path d="M2.00073 7C2.00073 3 3.00073 2 7.00073 2H8.50073C10.0007 2 10.3308 2.44001 10.9008 3.20001L12.4008 5.20001C12.7808 5.70001 13.0007 6 14.0007 6H17.0007C21.0007 6 22.0007 7 22.0007 11V13" stroke="#171717" stroke-width="1.5" stroke-miterlimit="10" stroke-linecap="round" stroke-linejoin="round"/>
<path d="M9.00073 22H7.00073C3.00073 22 2.00073 21 2.00073 17V12.03" stroke="#171717" stroke-width="1.5" stroke-miterlimit="10" stroke-linecap="round" stroke-linejoin="round"/>
<path d="M13.7608 18.32C11.4108 18.49 11.4108 21.89 13.7608 22.06H19.3208C19.9908 22.06 20.6508 21.81 21.1408 21.36C22.7908 19.92 21.9108 17.04 19.7408 16.77C18.9608 12.08 12.1808 13.86 13.7808 18.33" stroke="#171717" stroke-width="1.5" stroke-miterlimit="10" stroke-linecap="round" stroke-linejoin="round"/>
</svg>
