<svg width="25" height="24" viewBox="0 0 25 24" fill="none" xmlns="http://www.w3.org/2000/svg">
<path d="M16.0161 9.75H8.01611C7.32611 9.75 6.76611 10.31 6.76611 11V12.05C6.79611 12.04 6.81611 12.03 6.84611 12.02C6.96611 11.96 7.09611 11.92 7.22611 11.88C7.28611 11.86 7.34611 11.84 7.41611 11.82C7.61611 11.78 7.81611 11.75 8.02611 11.75H16.0261C16.2361 11.75 16.4361 11.78 16.6361 11.82C16.6961 11.83 16.7561 11.86 16.8261 11.88C16.9561 11.92 17.0861 11.96 17.2061 12.02C17.2361 12.03 17.2661 12.04 17.2861 12.05V11C17.2661 10.31 16.7061 9.75 16.0161 9.75Z" fill="#171717"/>
<path d="M16.0161 13.25H8.01611C7.32611 13.25 6.76611 13.81 6.76611 14.5V15H9.51611C9.92611 15 10.2661 15.34 10.2661 15.75C10.2661 16.71 11.0561 17.5 12.0161 17.5C12.9761 17.5 13.7661 16.71 13.7661 15.75C13.7661 15.34 14.1061 15 14.5161 15H17.2661V14.5C17.2661 13.81 16.7061 13.25 16.0161 13.25Z" fill="#171717"/>
<path d="M16.0161 6.5H8.01611C7.32611 6.5 6.76611 7.06 6.76611 7.75V8.56C7.14611 8.37 7.56611 8.25 8.01611 8.25H16.0161C16.4661 8.25 16.8861 8.37 17.2661 8.56V7.75C17.2661 7.06 16.7061 6.5 16.0161 6.5Z" fill="#171717"/>
<path d="M16.2061 2H7.82611C4.18611 2 2.01611 4.17 2.01611 7.81V16.18C2.01611 19.83 4.18611 22 7.82611 22H16.1961C19.8361 22 22.0061 19.83 22.0061 16.19V7.81C22.0161 4.17 19.8461 2 16.2061 2ZM19.0161 16.5H18.0161H15.1761C14.8361 17.93 13.5461 19 12.0161 19C10.4861 19 9.19611 17.93 8.85611 16.5H6.01611H5.01611C4.60611 16.5 4.26611 16.16 4.26611 15.75C4.26611 15.34 4.60611 15 5.01611 15H5.26611V14.5V14V11V7.75C5.26611 6.23 6.49611 5 8.01611 5H16.0161C17.5361 5 18.7661 6.23 18.7661 7.75V11V14V14.5V15H19.0161C19.4261 15 19.7661 15.34 19.7661 15.75C19.7661 16.16 19.4261 16.5 19.0161 16.5Z" fill="#171717"/>
</svg>
