<svg width="25" height="24" viewBox="0 0 25 24" fill="none" xmlns="http://www.w3.org/2000/svg">
<path opacity="0.4" d="M16.2044 2H7.83441C4.19441 2 2.02441 4.17 2.02441 7.81V16.18C2.02441 19.82 4.19441 21.99 7.83441 21.99H16.2044C19.8444 21.99 22.0144 19.82 22.0144 16.18V7.81C22.0144 4.17 19.8444 2 16.2044 2Z" fill="#171717"/>
<path d="M19.0146 15H18.7646V14.5V14V11V7.75C18.7646 6.23 17.5346 5 16.0146 5H8.01465C6.49465 5 5.26465 6.23 5.26465 7.75V11V14V14.5V15H5.01465C4.60465 15 4.26465 15.34 4.26465 15.75C4.26465 16.16 4.60465 16.5 5.01465 16.5H6.01465H8.85468C9.19468 17.93 10.4846 19 12.0146 19C13.5446 19 14.8346 17.93 15.1746 16.5H18.0146H19.0146C19.4246 16.5 19.7646 16.16 19.7646 15.75C19.7646 15.34 19.4246 15 19.0146 15ZM16.8046 11.88C16.7446 11.86 16.6846 11.84 16.6146 11.82C16.4146 11.78 16.2146 11.75 16.0046 11.75H8.00464C7.79464 11.75 7.59465 11.78 7.39465 11.82C7.33465 11.83 7.27465 11.86 7.20465 11.88C7.07465 11.92 6.94465 11.96 6.82465 12.02C6.79465 12.03 6.76463 12.04 6.74463 12.05V11C6.74463 10.31 7.30463 9.75 7.99463 9.75H15.9946C16.6846 9.75 17.2446 10.31 17.2446 11V12.05C17.2146 12.04 17.1947 12.03 17.1647 12.02C17.0647 11.96 16.9346 11.92 16.8046 11.88ZM8.01465 6.5H16.0146C16.7046 6.5 17.2646 7.06 17.2646 7.75V8.56C16.8846 8.37 16.4646 8.25 16.0146 8.25H8.01465C7.56465 8.25 7.14465 8.37 6.76465 8.56V7.75C6.76465 7.06 7.32465 6.5 8.01465 6.5ZM14.5146 15C14.1046 15 13.7646 15.34 13.7646 15.75C13.7646 16.71 12.9746 17.5 12.0146 17.5C11.0546 17.5 10.2646 16.71 10.2646 15.75C10.2646 15.34 9.92465 15 9.51465 15H6.76465V14.5C6.76465 13.81 7.32465 13.25 8.01465 13.25H16.0146C16.7046 13.25 17.2646 13.81 17.2646 14.5V15H14.5146Z" fill="#171717"/>
</svg>
