<svg width="25" height="24" viewBox="0 0 25 24" fill="none" xmlns="http://www.w3.org/2000/svg">
<path d="M15.0146 22.75H9.01465C3.58465 22.75 1.26465 20.43 1.26465 15V9C1.26465 3.57 3.58465 1.25 9.01465 1.25H15.0146C20.4446 1.25 22.7646 3.57 22.7646 9V15C22.7646 20.43 20.4446 22.75 15.0146 22.75ZM9.01465 2.75C4.40465 2.75 2.76465 4.39 2.76465 9V15C2.76465 19.61 4.40465 21.25 9.01465 21.25H15.0146C19.6246 21.25 21.2646 19.61 21.2646 15V9C21.2646 4.39 19.6246 2.75 15.0146 2.75H9.01465Z" fill="#171717"/>
<path d="M18.0146 15.25C17.6046 15.25 17.2646 14.91 17.2646 14.5C17.2646 13.81 16.7046 13.25 16.0146 13.25H8.01465C7.32465 13.25 6.76465 13.81 6.76465 14.5C6.76465 14.91 6.42465 15.25 6.01465 15.25C5.60465 15.25 5.26465 14.91 5.26465 14.5V7.75C5.26465 6.23 6.49465 5 8.01465 5H16.0146C17.5346 5 18.7646 6.23 18.7646 7.75V14.5C18.7646 14.91 18.4246 15.25 18.0146 15.25ZM8.01465 11.75H16.0146C16.4646 11.75 16.8946 11.86 17.2646 12.05V7.75C17.2646 7.06 16.7046 6.5 16.0146 6.5H8.01465C7.32465 6.5 6.76465 7.06 6.76465 7.75V12.05C7.13465 11.86 7.56465 11.75 8.01465 11.75Z" fill="#171717"/>
<path d="M19.0146 16.5H18.0146C17.6046 16.5 17.2646 16.16 17.2646 15.75C17.2646 15.34 17.6046 15 18.0146 15H19.0146C19.4246 15 19.7646 15.34 19.7646 15.75C19.7646 16.16 19.4246 16.5 19.0146 16.5Z" fill="#171717"/>
<path d="M6.01465 16.5H5.01465C4.60465 16.5 4.26465 16.16 4.26465 15.75C4.26465 15.34 4.60465 15 5.01465 15H6.01465C6.42465 15 6.76465 15.34 6.76465 15.75C6.76465 16.16 6.42465 16.5 6.01465 16.5Z" fill="#171717"/>
<path d="M18.0146 14.75C17.6046 14.75 17.2646 14.41 17.2646 14V11C17.2646 10.31 16.7046 9.75 16.0146 9.75H8.01465C7.32465 9.75 6.76465 10.31 6.76465 11V14C6.76465 14.41 6.42465 14.75 6.01465 14.75C5.60465 14.75 5.26465 14.41 5.26465 14V11C5.26465 9.48 6.49465 8.25 8.01465 8.25H16.0146C17.5346 8.25 18.7646 9.48 18.7646 11V14C18.7646 14.41 18.4246 14.75 18.0146 14.75Z" fill="#171717"/>
<path d="M12.0146 19C10.4846 19 9.19468 17.93 8.85468 16.5H6.01465C5.60465 16.5 5.26465 16.16 5.26465 15.75V14.5C5.26465 12.98 6.49465 11.75 8.01465 11.75H16.0146C17.5346 11.75 18.7646 12.98 18.7646 14.5V15.75C18.7646 16.16 18.4246 16.5 18.0146 16.5H15.1746C14.8346 17.93 13.5446 19 12.0146 19ZM6.76465 15H9.51465C9.92465 15 10.2646 15.34 10.2646 15.75C10.2646 16.71 11.0546 17.5 12.0146 17.5C12.9746 17.5 13.7646 16.71 13.7646 15.75C13.7646 15.34 14.1046 15 14.5146 15H17.2646V14.5C17.2646 13.81 16.7046 13.25 16.0146 13.25H8.01465C7.32465 13.25 6.76465 13.81 6.76465 14.5V15Z" fill="#171717"/>
</svg>
