<svg width="25" height="24" viewBox="0 0 25 24" fill="none" xmlns="http://www.w3.org/2000/svg">
<path d="M9.01465 22H15.0146C20.0146 22 22.0146 20 22.0146 15V9C22.0146 4 20.0146 2 15.0146 2H9.01465C4.01465 2 2.01465 4 2.01465 9V15C2.01465 20 4.01465 22 9.01465 22Z" stroke="#171717" stroke-width="1.5" stroke-linecap="round" stroke-linejoin="round"/>
<g opacity="0.4">
<path d="M18.0146 7.75V14.5C18.0146 13.4 17.1146 12.5 16.0146 12.5H8.01465C6.91465 12.5 6.01465 13.4 6.01465 14.5V7.75C6.01465 6.65 6.91465 5.75 8.01465 5.75H16.0146C17.1146 5.75 18.0146 6.65 18.0146 7.75Z" stroke="#171717" stroke-width="1.5" stroke-linecap="round" stroke-linejoin="round"/>
<path d="M19.0146 15.75H18.0146" stroke="#171717" stroke-width="1.5" stroke-linecap="round" stroke-linejoin="round"/>
<path d="M6.01465 15.75H5.01465" stroke="#171717" stroke-width="1.5" stroke-linecap="round" stroke-linejoin="round"/>
<path d="M18.0146 14V11C18.0146 9.9 17.1146 9 16.0146 9H8.01465C6.91465 9 6.01465 9.9 6.01465 11V14" stroke="#171717" stroke-width="1.5" stroke-linecap="round" stroke-linejoin="round"/>
<path d="M18.0146 14.5V15.75H14.5146C14.5146 17.13 13.3946 18.25 12.0146 18.25C10.6346 18.25 9.51465 17.13 9.51465 15.75H6.01465V14.5C6.01465 13.4 6.91465 12.5 8.01465 12.5H16.0146C17.1146 12.5 18.0146 13.4 18.0146 14.5Z" stroke="#171717" stroke-width="1.5" stroke-linecap="round" stroke-linejoin="round"/>
</g>
</svg>
