<svg width="25" height="24" viewBox="0 0 25 24" fill="none" xmlns="http://www.w3.org/2000/svg">
<path d="M19.0537 15C16.8437 15 15.0537 16.79 15.0537 19C15.0537 19.75 15.2637 20.46 15.6337 21.06C16.3237 22.22 17.5937 23 19.0537 23C20.5137 23 21.7837 22.22 22.4737 21.06C22.8437 20.46 23.0537 19.75 23.0537 19C23.0537 16.79 21.2637 15 19.0537 15ZM21.1237 18.57L18.9937 20.54C18.8537 20.67 18.6637 20.74 18.4837 20.74C18.2937 20.74 18.1037 20.67 17.9537 20.52L16.9637 19.53C16.6737 19.24 16.6737 18.76 16.9637 18.47C17.2537 18.18 17.7337 18.18 18.0237 18.47L18.5037 18.95L20.1037 17.47C20.4037 17.19 20.8837 17.21 21.1637 17.51C21.4437 17.81 21.4237 18.28 21.1237 18.57Z" fill="#171717"/>
<path d="M22.0537 7.54002V9.00002H2.05371V7.54002C2.05371 5.25002 3.91374 3.40002 6.20374 3.40002H17.9037C20.1937 3.40002 22.0537 5.25002 22.0537 7.54002Z" fill="#171717"/>
<path opacity="0.4" d="M2.05371 9V16.46C2.05371 18.75 3.90373 20.6 6.19373 20.6H12.4537C13.0337 20.6 13.5337 20.11 13.4837 19.53C13.3437 18 13.8337 16.34 15.1937 15.02C15.7537 14.47 16.4437 14.05 17.1937 13.81C18.4437 13.41 19.6537 13.46 20.7237 13.82C21.3737 14.04 22.0537 13.57 22.0537 12.88V9H2.05371ZM8.05371 17.25H6.05371C5.64371 17.25 5.30371 16.91 5.30371 16.5C5.30371 16.09 5.64371 15.75 6.05371 15.75H8.05371C8.46371 15.75 8.80371 16.09 8.80371 16.5C8.80371 16.91 8.46371 17.25 8.05371 17.25Z" fill="#171717"/>
<path d="M8.80371 16.5C8.80371 16.91 8.46371 17.25 8.05371 17.25H6.05371C5.64371 17.25 5.30371 16.91 5.30371 16.5C5.30371 16.09 5.64371 15.75 6.05371 15.75H8.05371C8.46371 15.75 8.80371 16.09 8.80371 16.5Z" fill="#171717"/>
</svg>
