<svg width="25" height="24" viewBox="0 0 25 24" fill="none" xmlns="http://www.w3.org/2000/svg">
<path d="M2.03125 8.5H11.5312" stroke="#171717" stroke-width="1.5" stroke-miterlimit="10" stroke-linecap="round" stroke-linejoin="round"/>
<path opacity="0.4" d="M6.03125 16.5H8.03125" stroke="#171717" stroke-width="1.5" stroke-miterlimit="10" stroke-linecap="round" stroke-linejoin="round"/>
<path opacity="0.4" d="M10.5312 16.5H14.5312" stroke="#171717" stroke-width="1.5" stroke-miterlimit="10" stroke-linecap="round" stroke-linejoin="round"/>
<path d="M22.0312 12.03V16.11C22.0312 19.62 21.1412 20.5 17.5912 20.5H6.47125C2.92125 20.5 2.03125 19.62 2.03125 16.11V7.89C2.03125 4.38 2.92125 3.5 6.47125 3.5H14.5312" stroke="#171717" stroke-width="1.5" stroke-linecap="round" stroke-linejoin="round"/>
<g opacity="0.4">
<path d="M19.1115 4.13031L15.4015 7.84031C15.2615 7.98031 15.1215 8.26031 15.0915 8.46031L14.8915 9.88031C14.8215 10.3903 15.1815 10.7503 15.6915 10.6803L17.1115 10.4803C17.3115 10.4503 17.5915 10.3103 17.7315 10.1703L21.4415 6.46031C22.0815 5.82031 22.3815 5.08031 21.4415 4.14031C20.4915 3.19031 19.7515 3.49031 19.1115 4.13031Z" stroke="#171717" stroke-width="1.5" stroke-miterlimit="10" stroke-linecap="round" stroke-linejoin="round"/>
<path d="M18.582 4.66016C18.902 5.79016 19.782 6.67016 20.902 6.98016" stroke="#171717" stroke-width="1.5" stroke-miterlimit="10" stroke-linecap="round" stroke-linejoin="round"/>
</g>
</svg>
