<svg width="25" height="24" viewBox="0 0 25 24" fill="none" xmlns="http://www.w3.org/2000/svg">
<path opacity="0.4" d="M22.0303 9V16.46C22.0303 18.75 20.1703 20.6 17.8803 20.6H6.18027C3.89027 20.6 2.03027 18.75 2.03027 16.46V9H22.0303Z" fill="#171717"/>
<path d="M22.0303 7.54002V9.00002H2.03027V7.54002C2.03027 5.25002 3.89027 3.40002 6.18027 3.40002H17.8803C20.1703 3.40002 22.0303 5.25002 22.0303 7.54002Z" fill="#171717"/>
<path d="M8.03027 17.25H6.03027C5.62027 17.25 5.28027 16.91 5.28027 16.5C5.28027 16.09 5.62027 15.75 6.03027 15.75H8.03027C8.44027 15.75 8.78027 16.09 8.78027 16.5C8.78027 16.91 8.44027 17.25 8.03027 17.25Z" fill="#171717"/>
<path d="M14.5303 17.25H10.5303C10.1203 17.25 9.78027 16.91 9.78027 16.5C9.78027 16.09 10.1203 15.75 10.5303 15.75H14.5303C14.9403 15.75 15.2803 16.09 15.2803 16.5C15.2803 16.91 14.9403 17.25 14.5303 17.25Z" fill="#171717"/>
</svg>
