<svg width="25" height="24" viewBox="0 0 25 24" fill="none" xmlns="http://www.w3.org/2000/svg">
<path d="M2.05371 10H22.0537" stroke="#171717" stroke-width="1.5" stroke-miterlimit="10" stroke-linecap="round" stroke-linejoin="round"/>
<path d="M11.6037 20.5H6.49371C2.94371 20.5 2.0437 19.62 2.0437 16.11V7.89001C2.0437 4.71001 2.78373 3.69001 5.57373 3.53001C5.85373 3.52001 6.16371 3.51001 6.49371 3.51001H17.6037C21.1537 3.51001 22.0537 4.39001 22.0537 7.90001V12.31" stroke="#171717" stroke-width="1.5" stroke-linecap="round" stroke-linejoin="round"/>
<path opacity="0.4" d="M6.05371 16H10.0537" stroke="#171717" stroke-width="1.5" stroke-miterlimit="10" stroke-linecap="round" stroke-linejoin="round"/>
<path opacity="0.4" d="M22.0537 18C22.0537 18.75 21.8437 19.46 21.4737 20.06C20.7837 21.22 19.5137 22 18.0537 22C16.5937 22 15.3237 21.22 14.6337 20.06C14.2637 19.46 14.0537 18.75 14.0537 18C14.0537 15.79 15.8437 14 18.0537 14C20.2637 14 22.0537 15.79 22.0537 18Z" stroke="#171717" stroke-width="1.5" stroke-miterlimit="10" stroke-linecap="round" stroke-linejoin="round"/>
<path opacity="0.4" d="M16.4937 18L17.4836 18.99L19.6136 17.02" stroke="#171717" stroke-width="1.5" stroke-linecap="round" stroke-linejoin="round"/>
</svg>
