<svg width="25" height="24" viewBox="0 0 25 24" fill="none" xmlns="http://www.w3.org/2000/svg">
<path d="M3.95941 16.63C3.76941 16.63 3.57941 16.56 3.42941 16.41C3.13941 16.12 3.13941 15.64 3.42941 15.35L15.3794 3.4C15.6694 3.11 16.1494 3.11 16.4394 3.4C16.7294 3.69 16.7294 4.17 16.4394 4.46L4.48941 16.42C4.34941 16.56 4.14941 16.63 3.95941 16.63Z" fill="#171717"/>
<path d="M11.1293 19.03C10.9393 19.03 10.7493 18.96 10.5993 18.81C10.3093 18.52 10.3093 18.04 10.5993 17.75L11.7993 16.55C12.0893 16.26 12.5693 16.26 12.8593 16.55C13.1493 16.84 13.1493 17.32 12.8593 17.61L11.6593 18.81C11.5193 18.95 11.3293 19.03 11.1293 19.03Z" fill="#171717"/>
<path d="M13.8193 16.34C13.6293 16.34 13.4393 16.27 13.2893 16.12C12.9993 15.83 12.9993 15.35 13.2893 15.06L15.6793 12.67C15.9693 12.38 16.4493 12.38 16.7393 12.67C17.0293 12.96 17.0293 13.44 16.7393 13.73L14.3493 16.12C14.2093 16.26 14.0093 16.34 13.8193 16.34Z" fill="#171717"/>
<path d="M11.1292 22.75C10.1492 22.75 9.16921 22.15 7.97921 20.96L3.06921 16.05C0.679211 13.66 0.689211 12.12 3.09921 9.71004L9.73921 3.07004C12.1492 0.660036 13.6892 0.650036 16.0792 3.04004L20.9892 7.95004C23.3792 10.34 23.3692 11.88 20.9592 14.29L14.3192 20.93C13.1092 22.14 12.1192 22.75 11.1292 22.75ZM12.9292 2.75004C12.4092 2.75004 11.7492 3.18004 10.7992 4.13004L4.15921 10.77C3.20921 11.72 2.77921 12.38 2.77921 12.89C2.77921 13.41 3.17921 14.04 4.12921 14.99L9.03921 19.9C9.98921 20.85 10.6092 21.25 11.1292 21.25C11.1292 21.25 11.1292 21.25 11.1392 21.25C11.6592 21.25 12.3092 20.82 13.2592 19.87L19.8992 13.23C20.8492 12.28 21.2792 11.62 21.2792 11.11C21.2792 10.59 20.8792 9.96004 19.9292 9.01004L15.0192 4.10004C14.0792 3.15004 13.4492 2.75004 12.9292 2.75004Z" fill="#171717"/>
<path d="M22.0293 22.75H2.0293C1.6193 22.75 1.2793 22.41 1.2793 22C1.2793 21.59 1.6193 21.25 2.0293 21.25H22.0293C22.4393 21.25 22.7793 21.59 22.7793 22C22.7793 22.41 22.4393 22.75 22.0293 22.75Z" fill="#171717"/>
</svg>
