<svg width="25" height="24" viewBox="0 0 25 24" fill="none" xmlns="http://www.w3.org/2000/svg">
<path d="M15.2673 9.25H2.02734C1.61734 9.25 1.27734 8.91 1.27734 8.5C1.27734 8.09 1.61734 7.75 2.02734 7.75H15.2673C15.6773 7.75 16.0173 8.09 16.0173 8.5C16.0173 8.91 15.6773 9.25 15.2673 9.25Z" fill="#171717"/>
<path d="M7.31734 17.25H6.02734C5.61734 17.25 5.27734 16.91 5.27734 16.5C5.27734 16.09 5.61734 15.75 6.02734 15.75H7.31734C7.72734 15.75 8.06734 16.09 8.06734 16.5C8.06734 16.91 7.73734 17.25 7.31734 17.25Z" fill="#171717"/>
<path d="M14.5273 17.25H11.0273C10.6173 17.25 10.2773 16.91 10.2773 16.5C10.2773 16.09 10.6173 15.75 11.0273 15.75H14.5273C14.9373 15.75 15.2773 16.09 15.2773 16.5C15.2773 16.91 14.9373 17.25 14.5273 17.25Z" fill="#171717"/>
<path d="M17.5873 21.25H8.00732C7.59732 21.25 7.25732 20.91 7.25732 20.5C7.25732 20.09 7.59732 19.75 8.00732 19.75H17.5873C20.7273 19.75 21.2773 19.21 21.2773 16.11V6.89001C21.2773 6.48001 21.6173 6.14001 22.0273 6.14001C22.4373 6.14001 22.7773 6.48001 22.7773 6.89001V16.1C22.7773 20.05 21.5673 21.25 17.5873 21.25Z" fill="#171717"/>
<path d="M3.73734 20.89C3.64734 20.89 3.54734 20.87 3.45734 20.84C1.64734 20.12 1.27734 18.43 1.27734 16.11V7.89C1.27734 3.95 2.48734 2.75 6.46734 2.75H17.5773C18.7173 2.75 19.5573 2.84 20.2173 3.04C20.6173 3.16 20.8373 3.57 20.7273 3.97C20.6073 4.37 20.1873 4.59 19.7973 4.48C19.2773 4.33 18.5773 4.26 17.5773 4.26H6.46734C3.32734 4.26 2.77734 4.8 2.77734 7.9V16.11C2.77734 18.5 3.20734 19.13 4.01734 19.45C4.40734 19.6 4.58734 20.04 4.43734 20.42C4.31734 20.71 4.03734 20.89 3.73734 20.89Z" fill="#171717"/>
<path d="M2.02729 22.7499C1.83729 22.7499 1.64729 22.6799 1.49729 22.5299C1.20729 22.2399 1.20729 21.7599 1.49729 21.4699L21.4973 1.46994C21.7873 1.17994 22.2673 1.17994 22.5573 1.46994C22.8473 1.75994 22.8473 2.23994 22.5573 2.52994L2.55729 22.5299C2.40729 22.6799 2.21729 22.7499 2.02729 22.7499Z" fill="#171717"/>
</svg>
