<svg width="25" height="24" viewBox="0 0 25 24" fill="none" xmlns="http://www.w3.org/2000/svg">
<path d="M19.0486 13.36H2.04858C1.63858 13.36 1.29858 13.02 1.29858 12.61C1.29858 12.2 1.63858 11.86 2.04858 11.86H19.0486C19.4586 11.86 19.7986 12.2 19.7986 12.61C19.7986 13.02 19.4586 13.36 19.0486 13.36Z" fill="#171717"/>
<path d="M15.2686 21.75H5.82861C2.39861 21.75 1.29858 20.6601 1.29858 17.2701V10.28C1.29858 7.59005 1.90861 6.00005 5.00861 5.82005C5.26861 5.81005 5.53861 5.80005 5.82861 5.80005H15.2686C18.6986 5.80005 19.7986 6.89005 19.7986 10.28V17.43C19.7586 20.7001 18.6586 21.75 15.2686 21.75ZM5.82861 7.30005C5.55861 7.30005 5.30861 7.31005 5.07861 7.32005C3.28861 7.43005 2.79858 7.81005 2.79858 10.28V17.2701C2.79858 19.83 3.21861 20.25 5.82861 20.25H15.2686C17.8486 20.25 18.2686 19.85 18.2986 17.42V10.28C18.2986 7.72005 17.8786 7.30005 15.2686 7.30005H5.82861Z" fill="#171717"/>
<path d="M19.0486 18.18C18.8586 18.18 18.6686 18.11 18.5386 17.98C18.3886 17.84 18.2986 17.64 18.2986 17.43V10.28C18.2986 7.72 17.8786 7.3 15.2686 7.3H5.82861C5.55861 7.3 5.30861 7.31 5.07861 7.32C4.87861 7.33 4.67856 7.25 4.52856 7.11C4.37856 6.97 4.29858 6.77 4.29858 6.56C4.33858 3.3 5.43861 2.25 8.82861 2.25H18.2686C21.6986 2.25 22.7986 3.34 22.7986 6.73V13.72C22.7986 16.41 22.1886 18 19.0886 18.18C19.0786 18.18 19.0586 18.18 19.0486 18.18ZM5.82861 5.8H15.2686C18.6986 5.8 19.7986 6.89 19.7986 10.28V16.6C20.9586 16.39 21.2986 15.79 21.2986 13.72V6.73C21.2986 4.17 20.8786 3.75 18.2686 3.75H8.82861C6.54861 3.75 5.95861 4.06 5.82861 5.8Z" fill="#171717"/>
<path d="M7.00885 18.5601H5.28882C4.87882 18.5601 4.53882 18.2201 4.53882 17.8101C4.53882 17.4001 4.87882 17.0601 5.28882 17.0601H7.00885C7.41885 17.0601 7.75885 17.4001 7.75885 17.8101C7.75885 18.2201 7.42885 18.5601 7.00885 18.5601Z" fill="#171717"/>
<path d="M12.5984 18.5601H9.15845C8.74845 18.5601 8.40845 18.2201 8.40845 17.8101C8.40845 17.4001 8.74845 17.0601 9.15845 17.0601H12.5984C13.0084 17.0601 13.3484 17.4001 13.3484 17.8101C13.3484 18.2201 13.0184 18.5601 12.5984 18.5601Z" fill="#171717"/>
</svg>
