<svg width="25" height="24" viewBox="0 0 25 24" fill="none" xmlns="http://www.w3.org/2000/svg">
<path d="M21.2793 22H2.7793C2.3693 22 2.0293 21.66 2.0293 21.25C2.0293 20.84 2.3693 20.5 2.7793 20.5H21.2793C21.6893 20.5 22.0293 20.84 22.0293 21.25C22.0293 21.66 21.6893 22 21.2793 22Z" fill="#171717"/>
<path opacity="0.4" d="M20.6192 13.7L13.3892 20.93C11.9692 22.35 9.67918 22.35 8.26918 20.94L3.65918 16.33L16.0192 3.96997L20.6292 8.57997C22.0392 9.98997 22.0392 12.28 20.6192 13.7Z" fill="#171717"/>
<path d="M16.0194 3.97004L3.64936 16.33L2.73936 15.42C1.32936 14.01 1.32936 11.72 2.74936 10.3L9.97936 3.07004C11.3994 1.65004 13.6894 1.65004 15.0994 3.06004L16.0194 3.97004Z" fill="#171717"/>
<path d="M12.9191 17.6L11.5691 18.95C11.2891 19.23 10.8391 19.23 10.5591 18.95C10.2791 18.67 10.2791 18.22 10.5591 17.94L11.9091 16.59C12.1891 16.31 12.6391 16.31 12.9191 16.59C13.1991 16.87 13.1991 17.32 12.9191 17.6Z" fill="#171717"/>
<path d="M17.2992 13.22L14.6092 15.91C14.3292 16.19 13.8792 16.19 13.5992 15.91C13.3192 15.63 13.3192 15.18 13.5992 14.9L16.2892 12.21C16.5692 11.93 17.0192 11.93 17.2992 12.21C17.5692 12.49 17.5692 12.94 17.2992 13.22Z" fill="#171717"/>
</svg>
