<svg width="25" height="24" viewBox="0 0 25 24" fill="none" xmlns="http://www.w3.org/2000/svg">
<path opacity="0.4" d="M19.0486 10.28V17.43C19.0186 20.28 18.2386 21 15.2686 21H5.82861C2.80861 21 2.04858 20.25 2.04858 17.27V10.28C2.04858 7.58005 2.67858 6.71005 5.04858 6.57005C5.28858 6.56005 5.54861 6.55005 5.82861 6.55005H15.2686C18.2886 6.55005 19.0486 7.30005 19.0486 10.28Z" fill="#171717"/>
<path d="M22.0486 6.73V13.72C22.0486 16.42 21.4186 17.29 19.0486 17.43V10.28C19.0486 7.3 18.2886 6.55 15.2686 6.55H5.82861C5.54861 6.55 5.28858 6.56 5.04858 6.57C5.07858 3.72 5.85861 3 8.82861 3H18.2686C21.2886 3 22.0486 3.75 22.0486 6.73Z" fill="#171717"/>
<path d="M7.00861 18.5601H5.28857C4.87857 18.5601 4.53857 18.2201 4.53857 17.8101C4.53857 17.4001 4.87857 17.0601 5.28857 17.0601H7.00861C7.41861 17.0601 7.75861 17.4001 7.75861 17.8101C7.75861 18.2201 7.42861 18.5601 7.00861 18.5601Z" fill="#171717"/>
<path d="M12.5987 18.5601H9.15869C8.74869 18.5601 8.40869 18.2201 8.40869 17.8101C8.40869 17.4001 8.74869 17.0601 9.15869 17.0601H12.5987C13.0087 17.0601 13.3487 17.4001 13.3487 17.8101C13.3487 18.2201 13.0187 18.5601 12.5987 18.5601Z" fill="#171717"/>
<path d="M19.0486 11.86H2.04858V13.36H19.0486V11.86Z" fill="#171717"/>
</svg>
