<svg width="25" height="24" viewBox="0 0 25 24" fill="none" xmlns="http://www.w3.org/2000/svg">
<path d="M22.0537 10.75H2.05371C1.64371 10.75 1.30371 10.41 1.30371 10C1.30371 9.59 1.64371 9.25 2.05371 9.25H22.0537C22.4637 9.25 22.8037 9.59 22.8037 10C22.8037 10.41 22.4637 10.75 22.0537 10.75Z" fill="#171717"/>
<path d="M11.6039 21.25H6.49396C2.51396 21.25 1.29395 20.05 1.29395 16.11V7.89001C1.29395 4.74001 1.96394 2.99001 5.53394 2.78001C5.83394 2.77001 6.15396 2.76001 6.49396 2.76001H17.6039C21.5839 2.76001 22.804 3.96001 22.804 7.90001V12.31C22.804 12.72 22.464 13.06 22.054 13.06C21.644 13.06 21.304 12.72 21.304 12.31V7.90001C21.304 4.81001 20.7539 4.26001 17.6039 4.26001H6.49396C6.17396 4.26001 5.88394 4.27001 5.60394 4.28001C3.43394 4.41001 2.79395 4.90001 2.79395 7.90001V16.12C2.79395 19.21 3.34396 19.76 6.49396 19.76H11.6039C12.0139 19.76 12.3539 20.1 12.3539 20.51C12.3539 20.92 12.0239 21.25 11.6039 21.25Z" fill="#171717"/>
<path d="M10.0537 16.75H6.05371C5.64371 16.75 5.30371 16.41 5.30371 16C5.30371 15.59 5.64371 15.25 6.05371 15.25H10.0537C10.4637 15.25 10.8037 15.59 10.8037 16C10.8037 16.41 10.4637 16.75 10.0537 16.75Z" fill="#171717"/>
<path d="M18.0537 22.75C16.3937 22.75 14.8337 21.87 13.9937 20.44C13.5437 19.72 13.3037 18.87 13.3037 18C13.3037 15.38 15.4337 13.25 18.0537 13.25C20.6737 13.25 22.8037 15.38 22.8037 18C22.8037 18.87 22.5637 19.72 22.1137 20.45C21.2737 21.87 19.7137 22.75 18.0537 22.75ZM18.0537 14.75C16.2637 14.75 14.8037 16.21 14.8037 18C14.8037 18.59 14.9637 19.17 15.2737 19.67C15.8537 20.65 16.9237 21.25 18.0537 21.25C19.1837 21.25 20.2537 20.65 20.8337 19.68C21.1437 19.17 21.3037 18.6 21.3037 18C21.3037 16.21 19.8437 14.75 18.0537 14.75Z" fill="#171717"/>
<path d="M17.4836 19.7401C17.2936 19.7401 17.1036 19.6701 16.9536 19.5201L15.9636 18.5301C15.6736 18.2401 15.6736 17.7601 15.9636 17.4701C16.2536 17.1801 16.7336 17.1801 17.0236 17.4701L17.5036 17.9501L19.1036 16.4701C19.4036 16.1901 19.8836 16.2101 20.1636 16.5101C20.4436 16.8101 20.4236 17.2901 20.1236 17.5701L17.9936 19.54C17.8436 19.67 17.6636 19.7401 17.4836 19.7401Z" fill="#171717"/>
</svg>
