<svg width="25" height="24" viewBox="0 0 25 24" fill="none" xmlns="http://www.w3.org/2000/svg">
<path d="M22.0303 9.25H2.03027C1.62027 9.25 1.28027 8.91 1.28027 8.5C1.28027 8.09 1.62027 7.75 2.03027 7.75H22.0303C22.4403 7.75 22.7803 8.09 22.7803 8.5C22.7803 8.91 22.4403 9.25 22.0303 9.25Z" fill="#171717"/>
<path d="M8.03027 17.25H6.03027C5.62027 17.25 5.28027 16.91 5.28027 16.5C5.28027 16.09 5.62027 15.75 6.03027 15.75H8.03027C8.44027 15.75 8.78027 16.09 8.78027 16.5C8.78027 16.91 8.44027 17.25 8.03027 17.25Z" fill="#171717"/>
<path d="M14.5303 17.25H10.5303C10.1203 17.25 9.78027 16.91 9.78027 16.5C9.78027 16.09 10.1203 15.75 10.5303 15.75H14.5303C14.9403 15.75 15.2803 16.09 15.2803 16.5C15.2803 16.91 14.9403 17.25 14.5303 17.25Z" fill="#171717"/>
<path d="M17.5903 21.25H6.47027C2.49027 21.25 1.28027 20.05 1.28027 16.11V7.89C1.28027 3.95 2.49027 2.75 6.47027 2.75H17.5803C21.5603 2.75 22.7703 3.95 22.7703 7.89V16.1C22.7803 20.05 21.5703 21.25 17.5903 21.25ZM6.47027 4.25C3.33027 4.25 2.78027 4.79 2.78027 7.89V16.1C2.78027 19.2 3.33027 19.74 6.47027 19.74H17.5803C20.7203 19.74 21.2703 19.2 21.2703 16.1V7.89C21.2703 4.79 20.7203 4.25 17.5803 4.25H6.47027Z" fill="#171717"/>
</svg>
