<svg width="25" height="24" viewBox="0 0 25 24" fill="none" xmlns="http://www.w3.org/2000/svg">
<path d="M13.5244 9.25H2.02441C1.61441 9.25 1.27441 8.91 1.27441 8.5C1.27441 8.09 1.61441 7.75 2.02441 7.75H13.5244C13.9344 7.75 14.2744 8.09 14.2744 8.5C14.2744 8.91 13.9344 9.25 13.5244 9.25Z" fill="#171717"/>
<path d="M8.02441 17.25H6.02441C5.61441 17.25 5.27441 16.91 5.27441 16.5C5.27441 16.09 5.61441 15.75 6.02441 15.75H8.02441C8.43441 15.75 8.77441 16.09 8.77441 16.5C8.77441 16.91 8.43441 17.25 8.02441 17.25Z" fill="#171717"/>
<path d="M14.5244 17.25H10.5244C10.1144 17.25 9.77441 16.91 9.77441 16.5C9.77441 16.09 10.1144 15.75 10.5244 15.75H14.5244C14.9344 15.75 15.2744 16.09 15.2744 16.5C15.2744 16.91 14.9344 17.25 14.5244 17.25Z" fill="#171717"/>
<path d="M17.5844 21.25H6.46441C2.48441 21.25 1.27441 20.05 1.27441 16.11V7.89C1.27441 3.95 2.48441 2.75 6.46441 2.75H13.5244C13.9344 2.75 14.2744 3.09 14.2744 3.5C14.2744 3.91 13.9344 4.25 13.5244 4.25H6.46441C3.32441 4.25 2.77441 4.79 2.77441 7.89V16.1C2.77441 19.2 3.32441 19.74 6.46441 19.74H17.5744C20.7144 19.74 21.2644 19.2 21.2644 16.1V12.02C21.2644 11.61 21.6044 11.27 22.0144 11.27C22.4244 11.27 22.7644 11.61 22.7644 12.02V16.1C22.7744 20.05 21.5644 21.25 17.5844 21.25Z" fill="#171717"/>
<path d="M17.3344 8.93999C17.1444 8.93999 16.9544 8.86999 16.8044 8.71999C16.5144 8.42999 16.5144 7.94999 16.8044 7.65999L20.6944 3.76999C20.9844 3.47999 21.4644 3.47999 21.7544 3.76999C22.0444 4.05999 22.0444 4.53999 21.7544 4.82999L17.8644 8.71999C17.7144 8.86999 17.5244 8.93999 17.3344 8.93999Z" fill="#171717"/>
<path d="M21.2146 8.93999C21.0246 8.93999 20.8346 8.86999 20.6846 8.71999L16.7946 4.82999C16.5046 4.53999 16.5046 4.05999 16.7946 3.76999C17.0846 3.47999 17.5646 3.47999 17.8546 3.76999L21.7446 7.65999C22.0346 7.94999 22.0346 8.42999 21.7446 8.71999C21.6046 8.86999 21.4146 8.93999 21.2146 8.93999Z" fill="#171717"/>
</svg>
