<svg width="25" height="24" viewBox="0 0 25 24" fill="none" xmlns="http://www.w3.org/2000/svg">
<path d="M21.0022 8H18.0622C16.7922 8 16.0322 7.24 16.0322 5.97V3.03C16.0322 1.76 16.7922 1 18.0622 1H21.0022C22.2722 1 23.0322 1.76 23.0322 3.03V5.97C23.0322 7.24 22.2722 8 21.0022 8ZM21.2222 4.69C21.1022 4.57 20.9422 4.51 20.7822 4.51C20.6222 4.51 20.4622 4.57 20.3422 4.69L20.1622 4.87V2.63C20.1622 2.28 19.8822 2 19.5322 2C19.1822 2 18.9022 2.28 18.9022 2.63V4.87L18.7222 4.69C18.4822 4.45 18.0822 4.45 17.8422 4.69C17.6022 4.93 17.6022 5.33 17.8422 5.57L19.0922 6.82C19.1422 6.87 19.2122 6.91 19.2822 6.94C19.3022 6.95 19.3222 6.95 19.3422 6.96C19.3922 6.98 19.4422 6.99 19.5022 6.99C19.5222 6.99 19.5422 6.99 19.5622 6.99C19.6322 6.99 19.6922 6.98 19.7622 6.95C19.7722 6.95 19.7722 6.95 19.7822 6.95C19.8522 6.92 19.9122 6.88 19.9622 6.83C19.9722 6.82 19.9722 6.82 19.9822 6.82L21.2322 5.57C21.4722 5.33 21.4722 4.93 21.2222 4.69Z" fill="#171717"/>
<path opacity="0.4" d="M22.0322 7.77002V9.00002H2.03223V7.54002C2.03223 5.25002 3.89223 3.40002 6.18223 3.40002H16.0322V5.97002C16.0322 7.24002 16.7922 8.00002 18.0622 8.00002H21.0022C21.4022 8.00002 21.7422 7.93002 22.0322 7.77002Z" fill="#171717"/>
<path d="M2.03223 9V16.46C2.03223 18.75 3.89223 20.6 6.18223 20.6H17.8822C20.1722 20.6 22.0322 18.75 22.0322 16.46V9H2.03223ZM8.03223 17.25H6.03223C5.62223 17.25 5.28223 16.91 5.28223 16.5C5.28223 16.09 5.62223 15.75 6.03223 15.75H8.03223C8.44223 15.75 8.78223 16.09 8.78223 16.5C8.78223 16.91 8.44223 17.25 8.03223 17.25ZM14.5322 17.25H10.5322C10.1222 17.25 9.78223 16.91 9.78223 16.5C9.78223 16.09 10.1222 15.75 10.5322 15.75H14.5322C14.9422 15.75 15.2822 16.09 15.2822 16.5C15.2822 16.91 14.9422 17.25 14.5322 17.25Z" fill="#171717"/>
</svg>
