<svg width="25" height="24" viewBox="0 0 25 24" fill="none" xmlns="http://www.w3.org/2000/svg">
<path d="M2.03516 8.5H11.5352" stroke="#171717" stroke-width="1.5" stroke-miterlimit="10" stroke-linecap="round" stroke-linejoin="round"/>
<path d="M6.03516 16.5H8.03516" stroke="#171717" stroke-width="1.5" stroke-miterlimit="10" stroke-linecap="round" stroke-linejoin="round"/>
<path d="M10.5352 16.5H14.5352" stroke="#171717" stroke-width="1.5" stroke-miterlimit="10" stroke-linecap="round" stroke-linejoin="round"/>
<path d="M2.03516 11.03V7.89C2.03516 4.38 2.92516 3.5 6.47516 3.5H14.5352" stroke="#171717" stroke-width="1.5" stroke-linecap="round" stroke-linejoin="round"/>
<path d="M22.0352 12.03V16.11C22.0352 19.62 21.1452 20.5 17.5952 20.5H6.47516C2.92516 20.5 2.03516 19.62 2.03516 16.11V15" stroke="#171717" stroke-width="1.5" stroke-linecap="round" stroke-linejoin="round"/>
<path d="M19.1149 4.13L15.4049 7.84C15.2649 7.98 15.1249 8.26 15.0949 8.46L14.8949 9.88C14.8249 10.39 15.1849 10.75 15.6949 10.68L17.1149 10.48C17.3149 10.45 17.5949 10.31 17.7349 10.17L21.4449 6.46C22.0849 5.82 22.3849 5.08 21.4449 4.14C20.4949 3.19 19.7549 3.49 19.1149 4.13Z" stroke="#171717" stroke-width="1.5" stroke-miterlimit="10" stroke-linecap="round" stroke-linejoin="round"/>
<path d="M18.585 4.65997C18.905 5.78997 19.785 6.66997 20.905 6.97997" stroke="#171717" stroke-width="1.5" stroke-miterlimit="10" stroke-linecap="round" stroke-linejoin="round"/>
</svg>
