<svg width="25" height="24" viewBox="0 0 25 24" fill="none" xmlns="http://www.w3.org/2000/svg">
<path opacity="0.4" d="M22.0352 7.77002V9.00002H2.03516V7.54002C2.03516 5.25002 3.89516 3.40002 6.18516 3.40002H16.0352V5.97002C16.0352 7.24002 16.7952 8.00002 18.0652 8.00002H21.0052C21.4052 8.00002 21.7452 7.93002 22.0352 7.77002Z" fill="#171717"/>
<path d="M2.03516 9V16.46C2.03516 18.75 3.89516 20.6 6.18516 20.6H17.8852C20.1752 20.6 22.0352 18.75 22.0352 16.46V9H2.03516ZM8.03516 17.25H6.03516C5.62516 17.25 5.28516 16.91 5.28516 16.5C5.28516 16.09 5.62516 15.75 6.03516 15.75H8.03516C8.44516 15.75 8.78516 16.09 8.78516 16.5C8.78516 16.91 8.44516 17.25 8.03516 17.25ZM14.5352 17.25H10.5352C10.1252 17.25 9.78516 16.91 9.78516 16.5C9.78516 16.09 10.1252 15.75 10.5352 15.75H14.5352C14.9452 15.75 15.2852 16.09 15.2852 16.5C15.2852 16.91 14.9452 17.25 14.5352 17.25Z" fill="#171717"/>
<path d="M21.0052 1H18.0652C16.7952 1 16.0352 1.76 16.0352 3.03V5.97C16.0352 7.24 16.7952 8 18.0652 8H21.0052C22.2752 8 23.0352 7.24 23.0352 5.97V3.03C23.0352 1.76 22.2752 1 21.0052 1ZM19.0452 6.57C19.0152 6.6 18.9452 6.64 18.8952 6.64L17.8552 6.79C17.8252 6.8 17.7852 6.8 17.7552 6.8C17.6052 6.8 17.4752 6.75 17.3852 6.65C17.2652 6.53 17.2152 6.36 17.2452 6.18L17.3952 5.14C17.4052 5.09 17.4352 5.02 17.4652 4.99L19.1652 3.29C19.1952 3.36 19.2252 3.44 19.2552 3.52C19.2952 3.6 19.3352 3.67 19.3752 3.74C19.4052 3.8 19.4452 3.86 19.4852 3.9C19.5252 3.96 19.5652 4.02 19.5952 4.05C19.6152 4.08 19.6252 4.09 19.6352 4.1C19.7252 4.21 19.8252 4.31 19.9152 4.38C19.9352 4.4 19.9552 4.42 19.9652 4.42C20.0152 4.46 20.0752 4.51 20.1152 4.54C20.1752 4.58 20.2252 4.62 20.2852 4.65C20.3552 4.69 20.4352 4.73 20.5152 4.77C20.5952 4.81 20.6752 4.84 20.7452 4.86L19.0452 6.57ZM21.4352 4.18L21.1152 4.5C21.0952 4.53 21.0652 4.54 21.0352 4.54C21.0252 4.54 21.0152 4.54 21.0052 4.54C20.2852 4.33 19.7152 3.76 19.5052 3.04C19.4952 3 19.5052 2.96 19.5352 2.93L19.8652 2.6C20.4052 2.06 20.9152 2.07 21.4452 2.6C21.7152 2.87 21.8452 3.13 21.8452 3.39C21.8352 3.65 21.7052 3.91 21.4352 4.18Z" fill="#171717"/>
</svg>
