<svg width="25" height="24" viewBox="0 0 25 24" fill="none" xmlns="http://www.w3.org/2000/svg">
<path opacity="0.4" d="M22.0244 7.77002V9.00002H2.02441V7.54002C2.02441 5.25002 3.88441 3.40002 6.17441 3.40002H16.0244V5.97002C16.0244 7.24002 16.7844 8.00002 18.0544 8.00002H20.9944C21.3944 8.00002 21.7344 7.93002 22.0244 7.77002Z" fill="#171717"/>
<path d="M2.02441 9V16.46C2.02441 18.75 3.88441 20.6 6.17441 20.6H17.8744C20.1644 20.6 22.0244 18.75 22.0244 16.46V9H2.02441ZM8.02441 17.25H6.02441C5.61441 17.25 5.27441 16.91 5.27441 16.5C5.27441 16.09 5.61441 15.75 6.02441 15.75H8.02441C8.43441 15.75 8.77441 16.09 8.77441 16.5C8.77441 16.91 8.43441 17.25 8.02441 17.25ZM14.5244 17.25H10.5244C10.1144 17.25 9.77441 16.91 9.77441 16.5C9.77441 16.09 10.1144 15.75 10.5244 15.75H14.5244C14.9344 15.75 15.2744 16.09 15.2744 16.5C15.2744 16.91 14.9344 17.25 14.5244 17.25Z" fill="#171717"/>
<path d="M20.9944 1H18.0544C16.7844 1 16.0244 1.76 16.0244 3.03V5.97C16.0244 7.24 16.7844 8 18.0544 8H20.9944C22.2644 8 23.0244 7.24 23.0244 5.97V3.03C23.0244 1.76 22.2644 1 20.9944 1ZM21.3644 5.49C21.4744 5.62 21.5344 5.76 21.5344 5.93C21.5344 6.07 21.4744 6.23 21.3644 6.34C21.1344 6.57 20.7444 6.57 20.5144 6.34L19.5244 5.35L18.5444 6.35C18.3144 6.58 17.9244 6.58 17.6844 6.34C17.4544 6.11 17.4544 5.72 17.6844 5.49L18.6844 4.51L17.6944 3.52C17.4644 3.29 17.4544 2.9 17.6844 2.66C17.9144 2.42 18.3044 2.43 18.5444 2.67L19.5244 3.66L20.5244 2.66C20.7544 2.43 21.1444 2.43 21.3744 2.66C21.4844 2.79 21.5344 2.94 21.5444 3.1C21.5444 3.24 21.4844 3.4 21.3844 3.52L20.3844 4.52L21.3644 5.49Z" fill="#171717"/>
</svg>
