<svg width="25" height="24" viewBox="0 0 25 24" fill="none" xmlns="http://www.w3.org/2000/svg">
<path d="M13.5264 9.25H2.02637C1.61637 9.25 1.27637 8.91 1.27637 8.5C1.27637 8.09 1.61637 7.75 2.02637 7.75H13.5264C13.9364 7.75 14.2764 8.09 14.2764 8.5C14.2764 8.91 13.9364 9.25 13.5264 9.25Z" fill="#171717"/>
<path d="M8.02637 17.25H6.02637C5.61637 17.25 5.27637 16.91 5.27637 16.5C5.27637 16.09 5.61637 15.75 6.02637 15.75H8.02637C8.43637 15.75 8.77637 16.09 8.77637 16.5C8.77637 16.91 8.43637 17.25 8.02637 17.25Z" fill="#171717"/>
<path d="M14.5264 17.25H10.5264C10.1164 17.25 9.77637 16.91 9.77637 16.5C9.77637 16.09 10.1164 15.75 10.5264 15.75H14.5264C14.9364 15.75 15.2764 16.09 15.2764 16.5C15.2764 16.91 14.9364 17.25 14.5264 17.25Z" fill="#171717"/>
<path d="M17.5864 21.25H6.46637C2.48637 21.25 1.27637 20.05 1.27637 16.11V7.89C1.27637 3.95 2.48637 2.75 6.46637 2.75H13.5264C13.9364 2.75 14.2764 3.09 14.2764 3.5C14.2764 3.91 13.9364 4.25 13.5264 4.25H6.46637C3.32637 4.25 2.77637 4.79 2.77637 7.89V16.1C2.77637 19.2 3.32637 19.74 6.46637 19.74H17.5764C20.7164 19.74 21.2664 19.2 21.2664 16.1V11.02C21.2664 10.61 21.6064 10.27 22.0164 10.27C22.4264 10.27 22.7664 10.61 22.7664 11.02V16.1C22.7764 20.05 21.5664 21.25 17.5864 21.25Z" fill="#171717"/>
<path d="M18.0263 8.24994C17.8363 8.24994 17.6463 8.17994 17.4963 8.02994L15.9963 6.52994C15.7063 6.23994 15.7063 5.75994 15.9963 5.46994C16.2863 5.17994 16.7663 5.17994 17.0563 5.46994L18.0263 6.43994L21.4963 2.96994C21.7863 2.67994 22.2663 2.67994 22.5563 2.96994C22.8463 3.25994 22.8463 3.73994 22.5563 4.02994L18.5563 8.02994C18.4063 8.17994 18.2163 8.24994 18.0263 8.24994Z" fill="#171717"/>
</svg>
