<svg width="25" height="24" viewBox="0 0 25 24" fill="none" xmlns="http://www.w3.org/2000/svg">
<path d="M14.5322 9.25H2.03223C1.62223 9.25 1.28223 8.91 1.28223 8.5C1.28223 8.09 1.62223 7.75 2.03223 7.75H14.5322C14.9422 7.75 15.2822 8.09 15.2822 8.5C15.2822 8.91 14.9422 9.25 14.5322 9.25Z" fill="#171717"/>
<path d="M8.03223 17.25H6.03223C5.62223 17.25 5.28223 16.91 5.28223 16.5C5.28223 16.09 5.62223 15.75 6.03223 15.75H8.03223C8.44223 15.75 8.78223 16.09 8.78223 16.5C8.78223 16.91 8.44223 17.25 8.03223 17.25Z" fill="#171717"/>
<path d="M14.5322 17.25H10.5322C10.1222 17.25 9.78223 16.91 9.78223 16.5C9.78223 16.09 10.1222 15.75 10.5322 15.75H14.5322C14.9422 15.75 15.2822 16.09 15.2822 16.5C15.2822 16.91 14.9422 17.25 14.5322 17.25Z" fill="#171717"/>
<path d="M17.5922 21.25H6.47223C2.49223 21.25 1.28223 20.05 1.28223 16.11V7.89C1.28223 3.95 2.49223 2.75 6.47223 2.75H14.5322C14.9422 2.75 15.2822 3.09 15.2822 3.5C15.2822 3.91 14.9422 4.25 14.5322 4.25H6.47223C3.33223 4.25 2.78223 4.79 2.78223 7.89V16.1C2.78223 19.2 3.33223 19.74 6.47223 19.74H17.5822C20.7222 19.74 21.2722 19.2 21.2722 16.1V14.02C21.2722 13.61 21.6122 13.27 22.0222 13.27C22.4322 13.27 22.7722 13.61 22.7722 14.02V16.1C22.7822 20.05 21.5722 21.25 17.5922 21.25Z" fill="#171717"/>
<path d="M20.0322 10.25C19.9322 10.25 19.8422 10.23 19.7422 10.19C19.4622 10.07 19.2822 9.8 19.2822 9.5V3.5C19.2822 3.09 19.6222 2.75 20.0322 2.75C20.4422 2.75 20.7822 3.09 20.7822 3.5V7.69L21.5022 6.97C21.7922 6.68 22.2722 6.68 22.5622 6.97C22.8522 7.26 22.8522 7.74 22.5622 8.03L20.5622 10.03C20.4222 10.17 20.2322 10.25 20.0322 10.25Z" fill="#171717"/>
<path d="M20.0322 10.2499C19.8422 10.2499 19.6522 10.1799 19.5022 10.0299L17.5022 8.02994C17.2122 7.73994 17.2122 7.25994 17.5022 6.96994C17.7922 6.67994 18.2722 6.67994 18.5622 6.96994L20.5622 8.96994C20.8522 9.25994 20.8522 9.73994 20.5622 10.0299C20.4122 10.1799 20.2222 10.2499 20.0322 10.2499Z" fill="#171717"/>
</svg>
