<svg width="25" height="24" viewBox="0 0 25 24" fill="none" xmlns="http://www.w3.org/2000/svg">
<path opacity="0.4" d="M22.0234 7.77002V9.00002H2.02344V7.54002C2.02344 5.25002 3.88344 3.40002 6.17344 3.40002H16.0234V5.97002C16.0234 7.24002 16.7834 8.00002 18.0534 8.00002H20.9934C21.3934 8.00002 21.7334 7.93002 22.0234 7.77002Z" fill="#171717"/>
<path d="M2.02344 9V16.46C2.02344 18.75 3.88344 20.6 6.17344 20.6H17.8734C20.1634 20.6 22.0234 18.75 22.0234 16.46V9H2.02344ZM8.02344 17.25H6.02344C5.61344 17.25 5.27344 16.91 5.27344 16.5C5.27344 16.09 5.61344 15.75 6.02344 15.75H8.02344C8.43344 15.75 8.77344 16.09 8.77344 16.5C8.77344 16.91 8.43344 17.25 8.02344 17.25ZM14.5234 17.25H10.5234C10.1134 17.25 9.77344 16.91 9.77344 16.5C9.77344 16.09 10.1134 15.75 10.5234 15.75H14.5234C14.9334 15.75 15.2734 16.09 15.2734 16.5C15.2734 16.91 14.9334 17.25 14.5234 17.25Z" fill="#171717"/>
<path d="M20.9934 1H18.0534C16.7834 1 16.0234 1.76 16.0234 3.03V5.97C16.0234 7.24 16.7834 8 18.0534 8H20.9934C22.2634 8 23.0234 7.24 23.0234 5.97V3.03C23.0234 1.76 22.2634 1 20.9934 1ZM21.9334 4.93C21.8334 5.03 21.6834 5.1 21.5234 5.11H20.1134L20.1234 6.5C20.1134 6.67 20.0534 6.81 19.9334 6.93C19.8334 7.03 19.6834 7.1 19.5234 7.1C19.1934 7.1 18.9234 6.83 18.9234 6.5V5.1L17.5234 5.11C17.1934 5.11 16.9234 4.83 16.9234 4.5C16.9234 4.17 17.1934 3.9 17.5234 3.9L18.9234 3.91V2.51C18.9234 2.18 19.1934 1.9 19.5234 1.9C19.8534 1.9 20.1234 2.18 20.1234 2.51L20.1134 3.9H21.5234C21.8534 3.9 22.1234 4.17 22.1234 4.5C22.1134 4.67 22.0434 4.81 21.9334 4.93Z" fill="#171717"/>
</svg>
