<svg width="25" height="24" viewBox="0 0 25 24" fill="none" xmlns="http://www.w3.org/2000/svg">
<path d="M14.5332 9.25H2.0332C1.6232 9.25 1.2832 8.91 1.2832 8.5C1.2832 8.09 1.6232 7.75 2.0332 7.75H14.5332C14.9432 7.75 15.2832 8.09 15.2832 8.5C15.2832 8.91 14.9432 9.25 14.5332 9.25Z" fill="#171717"/>
<path d="M8.0332 17.25H6.0332C5.6232 17.25 5.2832 16.91 5.2832 16.5C5.2832 16.09 5.6232 15.75 6.0332 15.75H8.0332C8.4432 15.75 8.7832 16.09 8.7832 16.5C8.7832 16.91 8.4432 17.25 8.0332 17.25Z" fill="#171717"/>
<path d="M14.5332 17.25H10.5332C10.1232 17.25 9.7832 16.91 9.7832 16.5C9.7832 16.09 10.1232 15.75 10.5332 15.75H14.5332C14.9432 15.75 15.2832 16.09 15.2832 16.5C15.2832 16.91 14.9432 17.25 14.5332 17.25Z" fill="#171717"/>
<path d="M17.5932 21.25H6.4732C2.4932 21.25 1.2832 20.05 1.2832 16.11V7.89C1.2832 3.95 2.4932 2.75 6.4732 2.75H14.5332C14.9432 2.75 15.2832 3.09 15.2832 3.5C15.2832 3.91 14.9432 4.25 14.5332 4.25H6.4732C3.3332 4.25 2.7832 4.79 2.7832 7.89V16.1C2.7832 19.2 3.3332 19.74 6.4732 19.74H17.5832C20.7232 19.74 21.2732 19.2 21.2732 16.1V14.02C21.2732 13.61 21.6132 13.27 22.0232 13.27C22.4332 13.27 22.7732 13.61 22.7732 14.02V16.1C22.7832 20.05 21.5732 21.25 17.5932 21.25Z" fill="#171717"/>
<path d="M20.0332 10.2499C19.6232 10.2499 19.2832 9.90994 19.2832 9.49994V3.49994C19.2832 3.19994 19.4632 2.91994 19.7432 2.80994C20.0232 2.69994 20.3432 2.75994 20.5632 2.96994L22.5632 4.96994C22.8532 5.25994 22.8532 5.73994 22.5632 6.02994C22.2732 6.31994 21.7932 6.31994 21.5032 6.02994L20.7832 5.30994V9.49994C20.7832 9.90994 20.4432 10.2499 20.0332 10.2499Z" fill="#171717"/>
<path d="M18.0331 6.24994C17.8431 6.24994 17.6531 6.17994 17.5031 6.02994C17.2131 5.73994 17.2131 5.25994 17.5031 4.96994L19.5031 2.96994C19.7931 2.67994 20.2731 2.67994 20.5631 2.96994C20.8531 3.25994 20.8531 3.73994 20.5631 4.02994L18.5631 6.02994C18.4131 6.17994 18.2231 6.24994 18.0331 6.24994Z" fill="#171717"/>
</svg>
