<svg width="25" height="24" viewBox="0 0 25 24" fill="none" xmlns="http://www.w3.org/2000/svg">
<path opacity="0.4" d="M22.0264 7.77002V9.00002H2.02637V7.54002C2.02637 5.25002 3.88637 3.40002 6.17637 3.40002H16.0264V5.97002C16.0264 7.24002 16.7864 8.00002 18.0564 8.00002H20.9964C21.3964 8.00002 21.7364 7.93002 22.0264 7.77002Z" fill="#171717"/>
<path d="M2.02637 9V16.46C2.02637 18.75 3.88637 20.6 6.17637 20.6H17.8764C20.1664 20.6 22.0264 18.75 22.0264 16.46V9H2.02637ZM8.02637 17.25H6.02637C5.61637 17.25 5.27637 16.91 5.27637 16.5C5.27637 16.09 5.61637 15.75 6.02637 15.75H8.02637C8.43637 15.75 8.77637 16.09 8.77637 16.5C8.77637 16.91 8.43637 17.25 8.02637 17.25ZM14.5264 17.25H10.5264C10.1164 17.25 9.77637 16.91 9.77637 16.5C9.77637 16.09 10.1164 15.75 10.5264 15.75H14.5264C14.9364 15.75 15.2764 16.09 15.2764 16.5C15.2764 16.91 14.9364 17.25 14.5264 17.25Z" fill="#171717"/>
<path d="M20.9964 1H18.0564C16.7864 1 16.0264 1.76 16.0264 3.03V5.97C16.0264 7.24 16.7864 8 18.0564 8H20.9964C22.2664 8 23.0264 7.24 23.0264 5.97V3.03C23.0264 1.76 22.2664 1 20.9964 1ZM21.6564 3.45L19.2864 6.22C19.1964 6.33 19.0564 6.4 18.9164 6.4C18.9064 6.4 18.9064 6.4 18.8964 6.4C18.7564 6.4 18.6264 6.35 18.5264 6.25L17.4264 5.17C17.2264 4.97 17.2264 4.64 17.4264 4.44C17.6264 4.24 17.9564 4.23 18.1564 4.44L18.8564 5.13L20.8564 2.79C21.0464 2.57 21.3664 2.55 21.5864 2.73C21.8164 2.91 21.8364 3.24 21.6564 3.45Z" fill="#171717"/>
</svg>
