<svg width="25" height="24" viewBox="0 0 25 24" fill="none" xmlns="http://www.w3.org/2000/svg">
<path d="M11.5352 9.25H2.03516C1.62516 9.25 1.28516 8.91 1.28516 8.5C1.28516 8.09 1.62516 7.75 2.03516 7.75H11.5352C11.9452 7.75 12.2852 8.09 12.2852 8.5C12.2852 8.91 11.9452 9.25 11.5352 9.25Z" fill="#171717"/>
<path d="M8.03516 17.25H6.03516C5.62516 17.25 5.28516 16.91 5.28516 16.5C5.28516 16.09 5.62516 15.75 6.03516 15.75H8.03516C8.44516 15.75 8.78516 16.09 8.78516 16.5C8.78516 16.91 8.44516 17.25 8.03516 17.25Z" fill="#171717"/>
<path d="M14.5352 17.25H10.5352C10.1252 17.25 9.78516 16.91 9.78516 16.5C9.78516 16.09 10.1252 15.75 10.5352 15.75H14.5352C14.9452 15.75 15.2852 16.09 15.2852 16.5C15.2852 16.91 14.9452 17.25 14.5352 17.25Z" fill="#171717"/>
<path d="M17.5952 21.25H6.47516C2.49516 21.25 1.28516 20.05 1.28516 16.11V7.89C1.28516 3.95 2.49516 2.75 6.47516 2.75H14.5352C14.9452 2.75 15.2852 3.09 15.2852 3.5C15.2852 3.91 14.9452 4.25 14.5352 4.25H6.47516C3.33516 4.25 2.78516 4.79 2.78516 7.89V16.1C2.78516 19.2 3.33516 19.74 6.47516 19.74H17.5852C20.7252 19.74 21.2752 19.2 21.2752 16.1V12.02C21.2752 11.61 21.6152 11.27 22.0252 11.27C22.4352 11.27 22.7752 11.61 22.7752 12.02V16.1C22.7852 20.05 21.5752 21.25 17.5952 21.25Z" fill="#171717"/>
<path d="M15.5551 11.4401C15.1651 11.4401 14.7951 11.3001 14.5351 11.0301C14.2151 10.7101 14.0751 10.2501 14.1451 9.77005L14.3451 8.35005C14.3951 7.99005 14.6151 7.56005 14.8651 7.31005L18.5751 3.60005C20.0451 2.13005 21.3251 2.97005 21.9651 3.60005C22.5951 4.23005 23.4351 5.51005 21.9651 6.99005L18.2551 10.7001C17.9951 10.9601 17.5651 11.1701 17.2151 11.2201L15.7951 11.4201C15.7151 11.4301 15.6351 11.4401 15.5551 11.4401ZM20.2651 4.28005C20.0651 4.28005 19.8851 4.42005 19.6351 4.66005L15.9351 8.37005C15.9051 8.41005 15.8451 8.52005 15.8351 8.57005L15.6351 9.92005L16.9951 9.73005C17.0451 9.72005 17.1551 9.66005 17.1951 9.63005L20.9051 5.92005C21.3751 5.45005 21.4451 5.19005 20.9051 4.66005C20.6451 4.40005 20.4551 4.28005 20.2651 4.28005Z" fill="#171717"/>
<path d="M20.9053 7.74006C20.8354 7.74006 20.7653 7.73006 20.7053 7.71006C19.3353 7.32006 18.2453 6.24006 17.8653 4.87006C17.7553 4.47006 17.9853 4.06006 18.3853 3.94006C18.7853 3.83006 19.1953 4.06006 19.3153 4.46006C19.5653 5.33006 20.2553 6.02006 21.1253 6.27006C21.5253 6.38006 21.7553 6.80006 21.6453 7.19006C21.5353 7.52006 21.2353 7.74006 20.9053 7.74006Z" fill="#171717"/>
</svg>
