<svg width="25" height="24" viewBox="0 0 25 24" fill="none" xmlns="http://www.w3.org/2000/svg">
<path opacity="0.4" d="M22.0272 9V16.46C22.0272 18.75 20.1672 20.6 17.8772 20.6H6.42725L9.99725 17.03L11.2772 15.75L18.0272 9H22.0272Z" fill="#171717"/>
<path opacity="0.4" d="M15.0273 9L4.02734 20C2.82734 19.28 2.02734 17.96 2.02734 16.46V9H15.0273Z" fill="#171717"/>
<path d="M22.0273 7.54003V9.00003H18.0273L21.4973 5.53003C21.8373 6.12003 22.0273 6.81003 22.0273 7.54003Z" fill="#171717"/>
<path d="M20.0273 4.00002L15.0273 9.00002H2.02734V7.54002C2.02734 5.25002 3.88734 3.40002 6.17734 3.40002H17.8773C18.6673 3.40002 19.3973 3.62002 20.0273 4.00002Z" fill="#171717"/>
<path d="M8.23734 15.79L6.77734 17.25H6.02734C5.61734 17.25 5.27734 16.91 5.27734 16.5C5.27734 16.09 5.61734 15.75 6.02734 15.75H8.02734C8.09734 15.75 8.16734 15.76 8.23734 15.79Z" fill="#171717"/>
<path d="M15.2776 16.5C15.2776 16.91 14.9376 17.25 14.5276 17.25H10.5276C10.3276 17.25 10.1376 17.16 9.99756 17.03L11.2776 15.75H14.5276C14.9376 15.75 15.2776 16.09 15.2776 16.5Z" fill="#171717"/>
<path d="M21.7972 2.23C21.4972 1.93 21.0072 1.93 20.7072 2.23L2.25723 20.69C1.95723 20.99 1.95723 21.48 2.25723 21.78C2.40723 21.92 2.59723 22 2.79723 22C2.99723 22 3.18723 21.92 3.33723 21.77L21.7972 3.31C22.1072 3.01 22.1072 2.53 21.7972 2.23Z" fill="#171717"/>
</svg>
