<svg width="25" height="24" viewBox="0 0 25 24" fill="none" xmlns="http://www.w3.org/2000/svg">
<path d="M21.0032 1H18.0632C16.7932 1 16.0332 1.76 16.0332 3.03V5.97C16.0332 7.24 16.7932 8 18.0632 8H21.0032C22.2732 8 23.0332 7.24 23.0332 5.97V3.03C23.0332 1.76 22.2732 1 21.0032 1ZM21.2232 4.31C21.1032 4.43 20.9432 4.49 20.7832 4.49C20.6232 4.49 20.4632 4.43 20.3432 4.31L20.1632 4.13V6.37C20.1632 6.72 19.8832 7 19.5332 7C19.1832 7 18.9032 6.72 18.9032 6.37V4.13L18.7232 4.31C18.4832 4.55 18.0832 4.55 17.8432 4.31C17.6032 4.07 17.6032 3.67 17.8432 3.43L19.0932 2.18C19.1432 2.13 19.2132 2.09 19.2832 2.06C19.3032 2.05 19.3232 2.05 19.3432 2.04C19.3932 2.02 19.4432 2.01 19.5032 2.01C19.5232 2.01 19.5432 2.01 19.5632 2.01C19.6332 2.01 19.6932 2.02 19.7632 2.05C19.7732 2.05 19.7732 2.05 19.7832 2.05C19.8532 2.08 19.9132 2.12 19.9632 2.17C19.9732 2.18 19.9732 2.18 19.9832 2.18L21.2332 3.43C21.4732 3.67 21.4732 4.07 21.2232 4.31Z" fill="#171717"/>
<path opacity="0.4" d="M22.0332 7.77002V9.00002H2.0332V7.54002C2.0332 5.25002 3.8932 3.40002 6.1832 3.40002H16.0332V5.97002C16.0332 7.24002 16.7932 8.00002 18.0632 8.00002H21.0032C21.4032 8.00002 21.7432 7.93002 22.0332 7.77002Z" fill="#171717"/>
<path d="M2.0332 9V16.46C2.0332 18.75 3.8932 20.6 6.1832 20.6H17.8832C20.1732 20.6 22.0332 18.75 22.0332 16.46V9H2.0332ZM8.0332 17.25H6.0332C5.6232 17.25 5.2832 16.91 5.2832 16.5C5.2832 16.09 5.6232 15.75 6.0332 15.75H8.0332C8.4432 15.75 8.7832 16.09 8.7832 16.5C8.7832 16.91 8.4432 17.25 8.0332 17.25ZM14.5332 17.25H10.5332C10.1232 17.25 9.7832 16.91 9.7832 16.5C9.7832 16.09 10.1232 15.75 10.5332 15.75H14.5332C14.9432 15.75 15.2832 16.09 15.2832 16.5C15.2832 16.91 14.9432 17.25 14.5332 17.25Z" fill="#171717"/>
</svg>
