<svg width="25" height="24" viewBox="0 0 25 24" fill="none" xmlns="http://www.w3.org/2000/svg">
<path opacity="0.4" d="M16.2142 2H7.84418C4.20418 2 2.03418 4.17 2.03418 7.81V16.18C2.03418 19.82 4.20418 21.99 7.84418 21.99H16.2142C19.8542 21.99 22.0242 19.82 22.0242 16.18V7.81C22.0242 4.17 19.8542 2 16.2142 2Z" fill="#171717"/>
<path d="M10.1342 11.15H7.48422C6.85422 11.15 6.34424 11.66 6.34424 12.29V17.41H10.1342V11.15Z" fill="#171717"/>
<path opacity="0.4" d="M12.784 6.59998H11.264C10.634 6.59998 10.124 7.10999 10.124 7.73999V17.4H13.914V7.73999C13.914 7.10999 13.414 6.59998 12.784 6.59998Z" fill="#171717"/>
<path d="M16.5743 12.85H13.9243V17.4H17.7143V13.99C17.7043 13.36 17.1943 12.85 16.5743 12.85Z" fill="#171717"/>
</svg>
