<svg width="25" height="24" viewBox="0 0 25 24" fill="none" xmlns="http://www.w3.org/2000/svg">
<g opacity="0.4">
<path d="M10.1342 11.15H7.48422C6.85422 11.15 6.34424 11.66 6.34424 12.29V17.41H10.1342V11.15V11.15Z" stroke="#171717" stroke-width="1.5" stroke-miterlimit="10" stroke-linecap="round" stroke-linejoin="round"/>
<path d="M12.7845 6.59998H11.2645C10.6345 6.59998 10.1245 7.10999 10.1245 7.73999V17.4H13.9145V7.73999C13.9145 7.10999 13.4145 6.59998 12.7845 6.59998Z" stroke="#171717" stroke-width="1.5" stroke-miterlimit="10" stroke-linecap="round" stroke-linejoin="round"/>
<path d="M16.5743 12.85H13.9243V17.4H17.7143V13.99C17.7043 13.36 17.1943 12.85 16.5743 12.85Z" stroke="#171717" stroke-width="1.5" stroke-miterlimit="10" stroke-linecap="round" stroke-linejoin="round"/>
</g>
<path d="M9.02441 22H15.0244C20.0244 22 22.0244 20 22.0244 15V9C22.0244 4 20.0244 2 15.0244 2H9.02441C4.02441 2 2.02441 4 2.02441 9V15C2.02441 20 4.02441 22 9.02441 22Z" stroke="#171717" stroke-width="1.5" stroke-linecap="round" stroke-linejoin="round"/>
</svg>
