<svg width="25" height="24" viewBox="0 0 25 24" fill="none" xmlns="http://www.w3.org/2000/svg">
<path d="M10.1342 18.15H6.34424C5.93424 18.15 5.59424 17.81 5.59424 17.4V12.28C5.59424 11.24 6.44422 10.39 7.48422 10.39H10.1342C10.5442 10.39 10.8842 10.73 10.8842 11.14V17.39C10.8842 17.81 10.5442 18.15 10.1342 18.15ZM7.09424 16.65H9.38422V11.9H7.48422C7.27422 11.9 7.09424 12.07 7.09424 12.29V16.65Z" fill="#171717"/>
<path d="M13.9145 18.15H10.1245C9.71451 18.15 9.37451 17.81 9.37451 17.4V7.73999C9.37451 6.69999 10.2245 5.84998 11.2645 5.84998H12.7845C13.8245 5.84998 14.6745 6.69999 14.6745 7.73999V17.4C14.6645 17.81 14.3345 18.15 13.9145 18.15ZM10.8845 16.65H13.1745V7.73999C13.1745 7.52999 13.0045 7.34998 12.7845 7.34998H11.2645C11.0545 7.34998 10.8745 7.51999 10.8745 7.73999V16.65H10.8845Z" fill="#171717"/>
<path d="M17.7045 18.15H13.9146C13.5046 18.15 13.1646 17.81 13.1646 17.4V12.85C13.1646 12.44 13.5046 12.1 13.9146 12.1H16.5645C17.6045 12.1 18.4545 12.95 18.4545 13.99V17.4C18.4545 17.81 18.1245 18.15 17.7045 18.15ZM14.6646 16.65H16.9545V13.99C16.9545 13.78 16.7845 13.6 16.5645 13.6H14.6646V16.65Z" fill="#171717"/>
<path d="M15.0244 22.75H9.02441C3.59441 22.75 1.27441 20.43 1.27441 15V9C1.27441 3.57 3.59441 1.25 9.02441 1.25H15.0244C20.4544 1.25 22.7744 3.57 22.7744 9V15C22.7744 20.43 20.4544 22.75 15.0244 22.75ZM9.02441 2.75C4.41441 2.75 2.77441 4.39 2.77441 9V15C2.77441 19.61 4.41441 21.25 9.02441 21.25H15.0244C19.6344 21.25 21.2744 19.61 21.2744 15V9C21.2744 4.39 19.6344 2.75 15.0244 2.75H9.02441Z" fill="#171717"/>
</svg>
