<svg width="25" height="24" viewBox="0 0 25 24" fill="none" xmlns="http://www.w3.org/2000/svg">
<path d="M10.8586 13.54H9.35855C8.20855 13.54 7.27855 12.58 7.27855 11.39C7.27855 10.98 7.61855 10.64 8.02855 10.64C8.43855 10.64 8.77855 10.98 8.77855 11.39C8.77855 11.75 9.03855 12.04 9.35855 12.04H10.8586C11.0886 12.04 11.2686 11.83 11.2686 11.57C11.2686 11.22 11.2086 11.2 10.9786 11.12L8.56855 10.28C7.69855 9.97995 7.26855 9.36995 7.26855 8.41995C7.26855 7.33995 8.12855 6.44995 9.17855 6.44995H10.6786C11.8286 6.44995 12.7586 7.40995 12.7586 8.59995C12.7586 9.00995 12.4186 9.34995 12.0086 9.34995C11.5986 9.34995 11.2586 9.00995 11.2586 8.59995C11.2586 8.23995 10.9986 7.94995 10.6786 7.94995H9.17855C8.94855 7.94995 8.76855 8.15995 8.76855 8.41995C8.76855 8.76995 8.82855 8.78995 9.05855 8.86995L11.4686 9.70995C12.3386 10.02 12.7586 10.63 12.7586 11.57C12.7686 12.66 11.9086 13.54 10.8586 13.54Z" fill="#171717"/>
<path d="M10.0186 14.34C9.60855 14.34 9.26855 14 9.26855 13.59V12.85C9.26855 12.44 9.60855 12.1 10.0186 12.1C10.4286 12.1 10.7686 12.44 10.7686 12.85V13.59C10.7686 14.01 10.4286 14.34 10.0186 14.34Z" fill="#171717"/>
<path d="M10.0186 7.94003C9.60855 7.94003 9.26855 7.60003 9.26855 7.19003V6.41003C9.26855 6.00003 9.60855 5.66003 10.0186 5.66003C10.4286 5.66003 10.7686 6.00003 10.7686 6.41003V7.19003C10.7686 7.60003 10.4286 7.94003 10.0186 7.94003Z" fill="#171717"/>
<path d="M10.0086 18.72C5.18855 18.72 1.26855 14.8 1.26855 9.97999C1.26855 5.15999 5.18855 1.23999 10.0086 1.23999C14.8286 1.23999 18.7486 5.15999 18.7486 9.97999C18.7486 14.8 14.8186 18.72 10.0086 18.72ZM10.0086 2.74999C6.01855 2.74999 2.76855 5.99999 2.76855 9.98999C2.76855 13.98 6.01855 17.22 10.0086 17.22C13.9986 17.22 17.2486 13.97 17.2486 9.97999C17.2486 5.98999 13.9986 2.74999 10.0086 2.74999Z" fill="#171717"/>
<path d="M17.0386 22.72C15.1886 22.72 13.4486 21.82 12.3786 20.3C12.1386 19.96 12.2186 19.49 12.5586 19.25C12.8986 19.01 13.3686 19.09 13.6086 19.43C14.3986 20.55 15.6786 21.21 17.0386 21.21C19.3586 21.21 21.2386 19.33 21.2386 17.01C21.2386 15.66 20.5786 14.38 19.4786 13.59C19.1386 13.35 19.0686 12.88 19.3086 12.54C19.5486 12.2 20.0186 12.13 20.3586 12.37C21.8486 13.44 22.7386 15.17 22.7386 17.01C22.7386 20.17 20.1886 22.72 17.0386 22.72Z" fill="#171717"/>
</svg>
