<svg width="25" height="24" viewBox="0 0 25 24" fill="none" xmlns="http://www.w3.org/2000/svg">
<path d="M8.01855 11.4C8.01855 12.17 8.61855 12.8 9.34855 12.8H10.8486C11.4886 12.8 12.0086 12.25 12.0086 11.58C12.0086 10.85 11.6886 10.59 11.2186 10.42L8.81855 9.58001C8.33855 9.41001 8.01855 9.15001 8.01855 8.42001C8.01855 7.75001 8.53855 7.20001 9.17855 7.20001H10.6786C11.4186 7.21001 12.0186 7.83001 12.0186 8.60001" stroke="#171717" stroke-width="1.5" stroke-linecap="round" stroke-linejoin="round"/>
<path d="M10.0186 12.85V13.59" stroke="#171717" stroke-width="1.5" stroke-linecap="round" stroke-linejoin="round"/>
<path d="M10.0186 6.40997V7.18997" stroke="#171717" stroke-width="1.5" stroke-linecap="round" stroke-linejoin="round"/>
<path d="M6.08855 3.02C7.24855 2.37 8.57855 2 10.0086 2C14.4186 2 17.9986 5.58 17.9986 9.99C17.9986 14.4 14.4186 17.98 10.0086 17.98C5.59855 17.98 2.01855 14.4 2.01855 9.99C2.01855 8.76 2.29855 7.59 2.79855 6.55" stroke="#171717" stroke-width="1.5" stroke-linecap="round" stroke-linejoin="round"/>
<path d="M12.9985 19.88C13.8985 21.15 15.3685 21.98 17.0485 21.98C19.7785 21.98 21.9985 19.76 21.9985 17.03C21.9985 15.37 21.1785 13.9 19.9285 13" stroke="#171717" stroke-width="1.5" stroke-linecap="round" stroke-linejoin="round"/>
</svg>
