<svg width="25" height="24" viewBox="0 0 25 24" fill="none" xmlns="http://www.w3.org/2000/svg">
<g opacity="0.4">
<path d="M8.01855 11.4002C8.01855 12.1702 8.61855 12.8002 9.34855 12.8002H10.8486C11.4886 12.8002 12.0086 12.2502 12.0086 11.5802C12.0086 10.8502 11.6886 10.5902 11.2186 10.4202L8.81855 9.5802C8.33855 9.4102 8.01855 9.1502 8.01855 8.4202C8.01855 7.7502 8.53855 7.2002 9.17855 7.2002H10.6786C11.4186 7.2102 12.0186 7.8302 12.0186 8.6002" stroke="#171717" stroke-width="1.5" stroke-linecap="round" stroke-linejoin="round"/>
<path d="M10.0186 12.8496V13.5896" stroke="#171717" stroke-width="1.5" stroke-linecap="round" stroke-linejoin="round"/>
<path d="M10.0186 6.41016V7.19016" stroke="#171717" stroke-width="1.5" stroke-linecap="round" stroke-linejoin="round"/>
</g>
<path d="M10.0086 17.98C14.4213 17.98 17.9986 14.4028 17.9986 9.99C17.9986 5.57724 14.4213 2 10.0086 2C5.5958 2 2.01855 5.57724 2.01855 9.99C2.01855 14.4028 5.5958 17.98 10.0086 17.98Z" stroke="#171717" stroke-width="1.5" stroke-linecap="round" stroke-linejoin="round"/>
<path opacity="0.4" d="M12.9985 19.88C13.8985 21.15 15.3685 21.98 17.0485 21.98C19.7785 21.98 21.9985 19.76 21.9985 17.03C21.9985 15.37 21.1785 13.9 19.9285 13" stroke="#171717" stroke-width="1.5" stroke-linecap="round" stroke-linejoin="round"/>
</svg>
