<svg width="25" height="24" viewBox="0 0 25 24" fill="none" xmlns="http://www.w3.org/2000/svg">
<path opacity="0.4" d="M10.0086 17.98C14.4213 17.98 17.9986 14.4028 17.9986 9.99C17.9986 5.57724 14.4213 2 10.0086 2C5.5958 2 2.01855 5.57724 2.01855 9.99C2.01855 14.4028 5.5958 17.98 10.0086 17.98Z" fill="#171717"/>
<path d="M21.9886 15.99C21.9886 19.29 19.3086 21.97 16.0086 21.97C13.9686 21.97 12.1786 20.95 11.0986 19.4C15.4586 18.91 18.9286 15.44 19.4186 11.08C20.9686 12.16 21.9886 13.95 21.9886 15.99Z" fill="#171717"/>
<path d="M11.4686 9.71003L9.06855 8.87003C8.82855 8.79003 8.77855 8.77003 8.77855 8.42003C8.77855 8.16003 8.95855 7.95003 9.18855 7.95003H10.6886C11.0086 7.95003 11.2686 8.24003 11.2686 8.60003C11.2686 9.01003 11.6086 9.35003 12.0186 9.35003C12.4286 9.35003 12.7686 9.01003 12.7686 8.60003C12.7686 7.45003 11.8786 6.51003 10.7686 6.46003V6.41003C10.7686 6.00003 10.4286 5.66003 10.0186 5.66003C9.60855 5.66003 9.26855 5.99003 9.26855 6.41003V6.46003H9.17855C8.12855 6.46003 7.26855 7.34003 7.26855 8.43003C7.26855 9.38003 7.68855 9.99003 8.55855 10.29L10.9686 11.13C11.2086 11.21 11.2586 11.23 11.2586 11.58C11.2586 11.84 11.0786 12.05 10.8486 12.05H9.34855C9.02855 12.05 8.76855 11.76 8.76855 11.4C8.76855 10.99 8.42855 10.65 8.01855 10.65C7.60855 10.65 7.26855 10.99 7.26855 11.4C7.26855 12.55 8.15855 13.49 9.26855 13.54V13.6C9.26855 14.01 9.60855 14.35 10.0186 14.35C10.4286 14.35 10.7686 14.01 10.7686 13.6V13.55H10.8586C11.9086 13.55 12.7686 12.67 12.7686 11.58C12.7686 10.63 12.3386 10.02 11.4686 9.71003Z" fill="#171717"/>
</svg>
