<svg width="25" height="24" viewBox="0 0 25 24" fill="none" xmlns="http://www.w3.org/2000/svg">
<path opacity="0.4" fill-rule="evenodd" clip-rule="evenodd" d="M22.0383 14.25C22.4525 14.25 22.7883 14.5858 22.7883 15C22.7883 19.2842 19.3225 22.75 15.0383 22.75C14.7681 22.75 14.5188 22.6047 14.3857 22.3695C14.2526 22.1344 14.2562 21.8458 14.3952 21.6141L15.4452 19.8641C15.6583 19.5089 16.119 19.3938 16.4742 19.6069C16.8294 19.82 16.9445 20.2807 16.7314 20.6359L16.4601 21.0881C19.2292 20.4456 21.2883 17.9666 21.2883 15C21.2883 14.5858 21.6241 14.25 22.0383 14.25Z" fill="#171717"/>
<path opacity="0.4" fill-rule="evenodd" clip-rule="evenodd" d="M7.61654 2.91194C4.84743 3.55436 2.78833 6.03342 2.78833 9C2.78833 9.41421 2.45254 9.75 2.03833 9.75C1.62412 9.75 1.28833 9.41421 1.28833 9C1.28833 4.71579 4.75412 1.25 9.03833 1.25C9.30853 1.25 9.55785 1.39534 9.69098 1.63047C9.82411 1.8656 9.82047 2.15417 9.68145 2.38587L8.63146 4.13587C8.41835 4.49105 7.95766 4.60623 7.60247 4.39312C7.24729 4.18001 7.13211 3.71932 7.34522 3.36413L7.61654 2.91194Z" fill="#171717"/>
<path opacity="0.4" d="M12.0383 15.7V16.31H2.03833V15.7C2.03833 13.94 2.47833 13.5 4.25833 13.5H9.81833C11.5983 13.5 12.0383 13.94 12.0383 15.7Z" fill="#171717"/>
<path d="M2.03833 16.3101V17.8101V19.8001C2.03833 21.5601 2.47833 22.0001 4.25833 22.0001H9.81833C11.5983 22.0001 12.0383 21.5601 12.0383 19.8001V17.8101V16.3101H2.03833Z" fill="#171717"/>
<path opacity="0.4" d="M22.0383 4.2V4.81H12.0383V4.2C12.0383 2.44 12.4783 2 14.2583 2H19.8183C21.5983 2 22.0383 2.44 22.0383 4.2Z" fill="#171717"/>
<path d="M12.0383 4.81006V6.31006V8.30006C12.0383 10.0601 12.4783 10.5001 14.2583 10.5001H19.8183C21.5983 10.5001 22.0383 10.0601 22.0383 8.30006V6.31006V4.81006H12.0383Z" fill="#171717"/>
</svg>
