<svg width="25" height="24" viewBox="0 0 25 24" fill="none" xmlns="http://www.w3.org/2000/svg">
<path d="M22.0386 6.31006H12.0386C11.6286 6.31006 11.2886 5.97006 11.2886 5.56006C11.2886 5.15006 11.6286 4.81006 12.0386 4.81006H22.0386C22.4486 4.81006 22.7886 5.15006 22.7886 5.56006C22.7886 5.98006 22.4486 6.31006 22.0386 6.31006Z" fill="#171717"/>
<path d="M19.8183 11.25H14.2683C12.0783 11.25 11.2983 10.48 11.2983 8.3V4.2C11.2983 2.02 12.0783 1.25 14.2683 1.25H19.8183C22.0083 1.25 22.7883 2.02 22.7883 4.2V8.31C22.7883 10.48 22.0083 11.25 19.8183 11.25ZM14.2583 2.75C12.8983 2.75 12.7883 2.86 12.7883 4.2V8.31C12.7883 9.65 12.8983 9.76 14.2583 9.76H19.8083C21.1683 9.76 21.2783 9.65 21.2783 8.31V4.2C21.2783 2.86 21.1683 2.75 19.8083 2.75H14.2583Z" fill="#171717"/>
<path d="M12.0386 17.8101H2.03857C1.62857 17.8101 1.28857 17.4701 1.28857 17.0601C1.28857 16.6501 1.62857 16.3101 2.03857 16.3101H12.0386C12.4486 16.3101 12.7886 16.6501 12.7886 17.0601C12.7886 17.4801 12.4486 17.8101 12.0386 17.8101Z" fill="#171717"/>
<path d="M9.81833 22.75H4.26834C2.07834 22.75 1.29834 21.98 1.29834 19.8V15.7C1.29834 13.52 2.07834 12.75 4.26834 12.75H9.81833C12.0083 12.75 12.7883 13.52 12.7883 15.7V19.81C12.7883 21.98 12.0083 22.75 9.81833 22.75ZM4.25833 14.25C2.89833 14.25 2.78833 14.36 2.78833 15.7V19.81C2.78833 21.15 2.89833 21.26 4.25833 21.26H9.80832C11.1683 21.26 11.2783 21.15 11.2783 19.81V15.7C11.2783 14.36 11.1683 14.25 9.80832 14.25H4.25833Z" fill="#171717"/>
<path d="M15.0388 22.75C14.7688 22.75 14.5188 22.6 14.3888 22.37C14.2588 22.13 14.2588 21.85 14.3988 21.61L15.4488 19.86C15.6588 19.51 16.1188 19.39 16.4788 19.6C16.8388 19.81 16.9488 20.27 16.7388 20.63L16.4688 21.08C19.2288 20.43 21.2988 17.95 21.2988 14.99C21.2988 14.58 21.6388 14.24 22.0488 14.24C22.4588 14.24 22.7988 14.58 22.7988 14.99C22.7888 19.27 19.3088 22.75 15.0388 22.75Z" fill="#171717"/>
<path d="M2.03857 9.75C1.62857 9.75 1.28857 9.41 1.28857 9C1.28857 4.73 4.76857 1.25 9.03857 1.25C9.30857 1.25 9.55857 1.4 9.68857 1.63C9.81857 1.87 9.81859 2.15 9.67859 2.39L8.62857 4.14C8.41857 4.49 7.95857 4.61 7.59857 4.4C7.23857 4.19 7.12856 3.73 7.33856 3.37L7.60858 2.92C4.84858 3.57 2.77856 6.05 2.77856 9.01C2.78856 9.41 2.44857 9.75 2.03857 9.75Z" fill="#171717"/>
</svg>
