<svg width="25" height="24" viewBox="0 0 25 24" fill="none" xmlns="http://www.w3.org/2000/svg">
<path d="M12.0386 5.56006H22.0386" stroke="#171717" stroke-width="1.5" stroke-miterlimit="10" stroke-linecap="round" stroke-linejoin="round"/>
<path d="M15.6886 10.5H14.2586C12.4786 10.5 12.0386 10.06 12.0386 8.3V4.2C12.0386 2.44 12.4786 2 14.2586 2H19.8186C21.5986 2 22.0386 2.44 22.0386 4.2V8.31C22.0386 10.07 21.5986 10.51 19.8186 10.51" stroke="#171717" stroke-width="1.5" stroke-linecap="round" stroke-linejoin="round"/>
<path d="M2.03857 17.0601H12.0386" stroke="#171717" stroke-width="1.5" stroke-miterlimit="10" stroke-linecap="round" stroke-linejoin="round"/>
<path d="M5.53857 22H4.25858C2.47858 22 2.03857 21.56 2.03857 19.8V15.7C2.03857 13.94 2.47858 13.5 4.25858 13.5H9.81857C11.5986 13.5 12.0386 13.94 12.0386 15.7V19.81C12.0386 21.57 11.5986 22.01 9.81857 22.01" stroke="#171717" stroke-width="1.5" stroke-linecap="round" stroke-linejoin="round"/>
<path d="M22.0386 15C22.0386 18.87 18.9086 22 15.0386 22L16.0886 20.25" stroke="#171717" stroke-width="1.5" stroke-linecap="round" stroke-linejoin="round"/>
<path d="M2.03857 9C2.03857 5.13 5.16857 2 9.03857 2L7.98859 3.75" stroke="#171717" stroke-width="1.5" stroke-linecap="round" stroke-linejoin="round"/>
</svg>
