<svg width="25" height="24" viewBox="0 0 25 24" fill="none" xmlns="http://www.w3.org/2000/svg">
<path opacity="0.4" d="M4.02307 14.6599L2.50309 13.1399C1.88309 12.5199 1.88309 11.4999 2.50309 10.8799L4.02307 9.3599C4.28307 9.0999 4.49308 8.58989 4.49308 8.22989V6.07993C4.49308 5.19993 5.21308 4.47989 6.09308 4.47989H8.24308C8.60308 4.47989 9.11308 4.26992 9.37308 4.00992L10.8931 2.4899C11.5131 1.8699 12.5331 1.8699 13.1531 2.4899L14.6731 4.00992C14.9331 4.26992 15.4431 4.47989 15.8031 4.47989H17.9531C18.8331 4.47989 19.5531 5.19993 19.5531 6.07993V8.22989C19.5531 8.58989 19.7631 9.0999 20.0231 9.3599L21.5431 10.8799C22.1631 11.4999 22.1631 12.5199 21.5431 13.1399L20.0231 14.6599C19.7631 14.9199 19.5531 15.4299 19.5531 15.7899V17.9399C19.5531 18.8199 18.8331 19.5399 17.9531 19.5399H15.8031C15.4431 19.5399 14.9331 19.7499 14.6731 20.0099L13.1531 21.5299C12.5331 22.1499 11.5131 22.1499 10.8931 21.5299L9.37308 20.0099C9.11308 19.7499 8.60308 19.5399 8.24308 19.5399H6.09308C5.21308 19.5399 4.49308 18.8199 4.49308 17.9399V15.7899C4.49308 15.4199 4.28307 14.9099 4.02307 14.6599Z" fill="#171717"/>
<path d="M15.0334 16C14.4734 16 14.0234 15.55 14.0234 15C14.0234 14.45 14.4734 14 15.0234 14C15.5734 14 16.0234 14.45 16.0234 15C16.0234 15.55 15.5834 16 15.0334 16Z" fill="#171717"/>
<path d="M9.04321 10C8.48321 10 8.0332 9.55 8.0332 9C8.0332 8.45 8.4832 8 9.0332 8C9.5832 8 10.0332 8.45 10.0332 9C10.0332 9.55 9.59321 10 9.04321 10Z" fill="#171717"/>
<path d="M9.03314 15.75C8.84314 15.75 8.65314 15.68 8.50314 15.53C8.21314 15.24 8.21314 14.7599 8.50314 14.4699L14.5031 8.46994C14.7931 8.17994 15.2731 8.17994 15.5631 8.46994C15.8531 8.75994 15.8531 9.24 15.5631 9.53L9.56314 15.53C9.41314 15.68 9.22314 15.75 9.03314 15.75Z" fill="#171717"/>
</svg>
