<svg width="25" height="24" viewBox="0 0 25 24" fill="none" xmlns="http://www.w3.org/2000/svg">
<path d="M12.0332 22.75C11.4032 22.75 10.8132 22.51 10.3732 22.06L8.85321 20.54C8.73321 20.42 8.4132 20.29 8.2532 20.29H6.0932C4.7932 20.29 3.74319 19.2399 3.74319 17.9399V15.78C3.74319 15.62 3.61319 15.3 3.49319 15.18L1.97321 13.66C1.53321 13.22 1.2832 12.63 1.2832 12C1.2832 11.37 1.52321 10.7799 1.97321 10.3399L3.49319 8.81991C3.61319 8.69991 3.74319 8.37994 3.74319 8.21994V6.06002C3.74319 4.76002 4.7932 3.70993 6.0932 3.70993H8.2532C8.4132 3.70993 8.73321 3.57993 8.85321 3.45993L10.3732 1.93991C11.2532 1.05991 12.8132 1.05991 13.6932 1.93991L15.2132 3.45993C15.3332 3.57993 15.6532 3.70993 15.8132 3.70993H17.9732C19.2732 3.70993 20.3232 4.76002 20.3232 6.06002V8.21994C20.3232 8.37994 20.4532 8.69991 20.5732 8.81991L22.0932 10.3399C22.5332 10.7799 22.7832 11.37 22.7832 12C22.7832 12.63 22.5432 13.22 22.0932 13.66L20.5732 15.18C20.4532 15.3 20.3232 15.62 20.3232 15.78V17.9399C20.3232 19.2399 19.2732 20.29 17.9732 20.29H15.8132C15.6532 20.29 15.3332 20.42 15.2132 20.54L13.6932 22.06C13.2532 22.51 12.6632 22.75 12.0332 22.75ZM4.55319 14.12C4.95319 14.52 5.24319 15.22 5.24319 15.78V17.9399C5.24319 18.4099 5.6232 18.79 6.0932 18.79H8.2532C8.8132 18.79 9.51321 19.0799 9.91321 19.4799L11.4332 21C11.7532 21.32 12.3132 21.32 12.6332 21L14.1532 19.4799C14.5532 19.0799 15.2532 18.79 15.8132 18.79H17.9732C18.4432 18.79 18.8232 18.4099 18.8232 17.9399V15.78C18.8232 15.22 19.1132 14.52 19.5132 14.12L21.0332 12.5999C21.1932 12.4399 21.2832 12.23 21.2832 12C21.2832 11.77 21.1932 11.56 21.0332 11.4L19.5132 9.87997C19.1132 9.47997 18.8232 8.77994 18.8232 8.21994V6.06002C18.8232 5.59002 18.4432 5.20993 17.9732 5.20993H15.8132C15.2532 5.20993 14.5532 4.91999 14.1532 4.51999L12.6332 2.99997C12.3132 2.67997 11.7532 2.67997 11.4332 2.99997L9.91321 4.51999C9.51321 4.91999 8.8132 5.20993 8.2532 5.20993H6.0932C5.6232 5.20993 5.24319 5.59002 5.24319 6.06002V8.21994C5.24319 8.77994 4.95319 9.47997 4.55319 9.87997L3.0332 11.4C2.8732 11.56 2.7832 11.77 2.7832 12C2.7832 12.23 2.8732 12.4399 3.0332 12.5999L4.55319 14.12Z" fill="#171717"/>
<path d="M15.0334 16C14.4734 16 14.0234 15.55 14.0234 15C14.0234 14.45 14.4734 14 15.0234 14C15.5734 14 16.0234 14.45 16.0234 15C16.0234 15.55 15.5834 16 15.0334 16Z" fill="#171717"/>
<path d="M9.04321 10C8.48321 10 8.0332 9.55 8.0332 9C8.0332 8.45 8.4832 8 9.0332 8C9.5832 8 10.0332 8.45 10.0332 9C10.0332 9.55 9.59321 10 9.04321 10Z" fill="#171717"/>
<path d="M9.03314 15.75C8.84314 15.75 8.65314 15.68 8.50314 15.53C8.21314 15.24 8.21314 14.7599 8.50314 14.4699L14.5031 8.46994C14.7931 8.17994 15.2731 8.17994 15.5631 8.46994C15.8531 8.75994 15.8531 9.24 15.5631 9.53L9.56314 15.53C9.41314 15.68 9.22314 15.75 9.03314 15.75Z" fill="#171717"/>
</svg>
