<svg width="25" height="24" viewBox="0 0 25 24" fill="none" xmlns="http://www.w3.org/2000/svg">
<path d="M14.6931 20.01L13.1731 21.53C12.5531 22.15 11.5331 22.15 10.9131 21.53L9.3931 20.01C9.1331 19.75 8.62313 19.54 8.26313 19.54H6.1131C5.2331 19.54 4.51313 18.8199 4.51313 17.9399V15.79C4.51313 15.43 4.30313 14.92 4.04313 14.66L2.52311 13.14C1.90311 12.52 1.90311 11.5 2.52311 10.88L4.04313 9.35999C4.30313 9.09999 4.51313 8.58998 4.51313 8.22998V6.07996C4.51313 5.19996 5.2331 4.47998 6.1131 4.47998" stroke="#171717" stroke-width="1.5" stroke-linecap="round" stroke-linejoin="round"/>
<path d="M9.37305 3.99002L10.893 2.47C11.513 1.85 12.533 1.85 13.153 2.47L14.6731 3.99002C14.9331 4.25002 15.443 4.46 15.803 4.46H17.9531C18.8331 4.46 19.553 5.18009 19.553 6.06009V8.21C19.553 8.57 19.763 9.08 20.023 9.34L21.5431 10.86C22.1631 11.48 22.1631 12.5 21.5431 13.12L20.023 14.64C19.763 14.9 19.553 15.4101 19.553 15.7701V17.9201C19.553 18.8001 18.8331 19.5201 17.9531 19.5201" stroke="#171717" stroke-width="1.5" stroke-linecap="round" stroke-linejoin="round"/>
<path d="M9.0332 15L15.0332 9" stroke="#171717" stroke-width="1.5" stroke-linecap="round" stroke-linejoin="round"/>
<path d="M14.5277 14.5H14.5367" stroke="#171717" stroke-width="1.5" stroke-linecap="round" stroke-linejoin="round"/>
<path d="M9.52771 9.5H9.53669" stroke="#171717" stroke-width="1.5" stroke-linecap="round" stroke-linejoin="round"/>
</svg>
