<svg width="25" height="24" viewBox="0 0 25 24" fill="none" xmlns="http://www.w3.org/2000/svg">
<path d="M4.02307 14.6601L2.50309 13.14C1.88309 12.52 1.88309 11.5 2.50309 10.88L4.02307 9.36002C4.28307 9.10002 4.49308 8.59001 4.49308 8.23001V6.07999C4.49308 5.19999 5.21308 4.48001 6.09308 4.48001H8.24308C8.60308 4.48001 9.11308 4.27004 9.37308 4.01004L10.8931 2.49002C11.5131 1.87002 12.5331 1.87002 13.1531 2.49002L14.6731 4.01004C14.9331 4.27004 15.4431 4.48001 15.8031 4.48001H17.9531C18.8331 4.48001 19.5531 5.19999 19.5531 6.07999V8.23001C19.5531 8.59001 19.7631 9.10002 20.0231 9.36002L21.5431 10.88C22.1631 11.5 22.1631 12.52 21.5431 13.14L20.0231 14.6601C19.7631 14.9201 19.5531 15.4301 19.5531 15.7901V17.94C19.5531 18.82 18.8331 19.5401 17.9531 19.5401H15.8031C15.4431 19.5401 14.9331 19.75 14.6731 20.01L13.1531 21.5301C12.5331 22.1501 11.5131 22.1501 10.8931 21.5301L9.37308 20.01C9.11308 19.75 8.60308 19.5401 8.24308 19.5401H6.09308C5.21308 19.5401 4.49308 18.82 4.49308 17.94V15.7901C4.49308 15.4201 4.28307 14.9101 4.02307 14.6601Z" stroke="#171717" stroke-width="1.5" stroke-linecap="round" stroke-linejoin="round"/>
<path opacity="0.4" d="M9.0332 15L15.0332 9" stroke="#171717" stroke-width="1.5" stroke-linecap="round" stroke-linejoin="round"/>
<path opacity="0.4" d="M14.5277 14.5H14.5367" stroke="#171717" stroke-width="1.5" stroke-linecap="round" stroke-linejoin="round"/>
<path opacity="0.4" d="M9.52771 9.5H9.53669" stroke="#171717" stroke-width="1.5" stroke-linecap="round" stroke-linejoin="round"/>
</svg>
