<svg width="25" height="24" viewBox="0 0 25 24" fill="none" xmlns="http://www.w3.org/2000/svg">
<path d="M12.0403 22.75C6.11028 22.75 1.29028 17.93 1.29028 12C1.29028 6.07 6.11028 1.25 12.0403 1.25C17.9703 1.25 22.7903 6.07 22.7903 12C22.7903 17.93 17.9703 22.75 12.0403 22.75ZM12.0403 2.75C6.94028 2.75 2.79028 6.9 2.79028 12C2.79028 17.1 6.94028 21.25 12.0403 21.25C17.1403 21.25 21.2903 17.1 21.2903 12C21.2903 6.9 17.1403 2.75 12.0403 2.75Z" fill="#171717"/>
<path d="M15.0405 16C14.4805 16 14.0305 15.55 14.0305 15C14.0305 14.45 14.4805 14 15.0305 14C15.5805 14 16.0305 14.45 16.0305 15C16.0305 15.55 15.5905 16 15.0405 16Z" fill="#171717"/>
<path d="M9.05029 10C8.49029 10 8.04028 9.55 8.04028 9C8.04028 8.45 8.49028 8 9.04028 8C9.59028 8 10.0403 8.45 10.0403 9C10.0403 9.55 9.60029 10 9.05029 10Z" fill="#171717"/>
<path d="M9.04025 15.75C8.85025 15.75 8.66022 15.68 8.51022 15.53C8.22022 15.24 8.22022 14.7599 8.51022 14.4699L14.5102 8.46994C14.8002 8.17994 15.2803 8.17994 15.5703 8.46994C15.8603 8.75994 15.8603 9.24 15.5703 9.53L9.57028 15.53C9.42028 15.68 9.23025 15.75 9.04025 15.75Z" fill="#171717"/>
</svg>
