<svg width="25" height="24" viewBox="0 0 25 24" fill="none" xmlns="http://www.w3.org/2000/svg">
<path opacity="0.4" d="M12.04 22C17.5629 22 22.04 17.5228 22.04 12C22.04 6.47715 17.5629 2 12.04 2C6.51719 2 2.04004 6.47715 2.04004 12C2.04004 17.5228 6.51719 22 12.04 22Z" fill="#171717"/>
<path d="M15.04 16C14.48 16 14.03 15.55 14.03 15C14.03 14.45 14.48 14 15.03 14C15.58 14 16.03 14.45 16.03 15C16.03 15.55 15.59 16 15.04 16Z" fill="#171717"/>
<path d="M9.05005 10C8.49005 10 8.04004 9.55 8.04004 9C8.04004 8.45 8.49004 8 9.04004 8C9.59004 8 10.04 8.45 10.04 9C10.04 9.55 9.60005 10 9.05005 10Z" fill="#171717"/>
<path d="M9.04001 15.75C8.85001 15.75 8.65998 15.68 8.50998 15.53C8.21998 15.24 8.21998 14.7599 8.50998 14.4699L14.51 8.46994C14.8 8.17994 15.28 8.17994 15.57 8.46994C15.86 8.75994 15.86 9.24 15.57 9.53L9.57004 15.53C9.42004 15.68 9.23001 15.75 9.04001 15.75Z" fill="#171717"/>
</svg>
