<svg width="25" height="24" viewBox="0 0 25 24" fill="none" xmlns="http://www.w3.org/2000/svg">
<path opacity="0.4" d="M16.2105 2H7.83051C4.19051 2 2.02051 4.17 2.02051 7.81V16.18C2.02051 19.83 4.19051 22 7.83051 22H16.2005C19.8405 22 22.0105 19.83 22.0105 16.19V7.81C22.0205 4.17 19.8505 2 16.2105 2Z" fill="#171717"/>
<path d="M15.7705 9.75H8.27051C7.86051 9.75 7.52051 9.41 7.52051 9C7.52051 8.59 7.86051 8.25 8.27051 8.25H15.7705C16.1805 8.25 16.5205 8.59 16.5205 9C16.5205 9.41 16.1805 9.75 15.7705 9.75Z" fill="#171717"/>
<path d="M15.7705 15.75H8.27051C7.86051 15.75 7.52051 15.41 7.52051 15C7.52051 14.59 7.86051 14.25 8.27051 14.25H15.7705C16.1805 14.25 16.5205 14.59 16.5205 15C16.5205 15.41 16.1805 15.75 15.7705 15.75Z" fill="#171717"/>
</svg>
