<svg width="25" height="24" viewBox="0 0 25 24" fill="none" xmlns="http://www.w3.org/2000/svg">
<path d="M16.212 2H7.83197C4.19197 2 2.02197 4.17 2.02197 7.81V16.18C2.02197 19.83 4.19197 22 7.83197 22H16.202C19.842 22 22.012 19.83 22.012 16.19V7.81C22.022 4.17 19.852 2 16.212 2ZM15.772 15.75H8.27197C7.86197 15.75 7.52197 15.41 7.52197 15C7.52197 14.59 7.86197 14.25 8.27197 14.25H15.772C16.182 14.25 16.522 14.59 16.522 15C16.522 15.41 16.182 15.75 15.772 15.75ZM15.772 9.75H8.27197C7.86197 9.75 7.52197 9.41 7.52197 9C7.52197 8.59 7.86197 8.25 8.27197 8.25H15.772C16.182 8.25 16.522 8.59 16.522 9C16.522 9.41 16.182 9.75 15.772 9.75Z" fill="#171717"/>
</svg>
