<svg width="25" height="24" viewBox="0 0 25 24" fill="none" xmlns="http://www.w3.org/2000/svg">
<path d="M15.0205 22.75H9.02051C3.59051 22.75 1.27051 20.43 1.27051 15V9C1.27051 3.57 3.59051 1.25 9.02051 1.25H15.0205C20.4505 1.25 22.7705 3.57 22.7705 9V15C22.7705 20.43 20.4505 22.75 15.0205 22.75ZM9.02051 2.75C4.41051 2.75 2.77051 4.39 2.77051 9V15C2.77051 19.61 4.41051 21.25 9.02051 21.25H15.0205C19.6305 21.25 21.2705 19.61 21.2705 15V9C21.2705 4.39 19.6305 2.75 15.0205 2.75H9.02051Z" fill="#171717"/>
<path d="M15.7705 9.75H8.27051C7.86051 9.75 7.52051 9.41 7.52051 9C7.52051 8.59 7.86051 8.25 8.27051 8.25H15.7705C16.1805 8.25 16.5205 8.59 16.5205 9C16.5205 9.41 16.1805 9.75 15.7705 9.75Z" fill="#171717"/>
<path d="M15.7705 15.75H8.27051C7.86051 15.75 7.52051 15.41 7.52051 15C7.52051 14.59 7.86051 14.25 8.27051 14.25H15.7705C16.1805 14.25 16.5205 14.59 16.5205 15C16.5205 15.41 16.1805 15.75 15.7705 15.75Z" fill="#171717"/>
</svg>
