<svg width="25" height="24" viewBox="0 0 25 24" fill="none" xmlns="http://www.w3.org/2000/svg">
<path d="M13.4412 17.42H10.9312C9.29117 17.42 7.96117 16.04 7.96117 14.34C7.96117 13.93 8.30117 13.59 8.71117 13.59C9.12117 13.59 9.46117 13.93 9.46117 14.34C9.46117 15.21 10.1212 15.92 10.9312 15.92H13.4412C14.0912 15.92 14.6312 15.34 14.6312 14.64C14.6312 13.77 14.3212 13.6 13.8112 13.42L9.78117 12C9.00117 11.73 7.95117 11.15 7.95117 9.35996C7.95117 7.81996 9.16117 6.57996 10.6412 6.57996H13.1512C14.7912 6.57996 16.1212 7.95996 16.1212 9.65996C16.1212 10.07 15.7812 10.41 15.3712 10.41C14.9612 10.41 14.6212 10.07 14.6212 9.65996C14.6212 8.78996 13.9612 8.07996 13.1512 8.07996H10.6412C9.99117 8.07996 9.45117 8.65996 9.45117 9.35996C9.45117 10.23 9.76117 10.4 10.2712 10.58L14.3012 12C15.0812 12.27 16.1312 12.85 16.1312 14.64C16.1212 16.17 14.9212 17.42 13.4412 17.42Z" fill="#171717"/>
<path d="M12.041 18.75C11.631 18.75 11.291 18.41 11.291 18V6C11.291 5.59 11.631 5.25 12.041 5.25C12.451 5.25 12.791 5.59 12.791 6V18C12.791 18.41 12.451 18.75 12.041 18.75Z" fill="#171717"/>
<path d="M12.041 22.75C6.11102 22.75 1.29102 17.93 1.29102 12C1.29102 6.07 6.11102 1.25 12.041 1.25C17.971 1.25 22.791 6.07 22.791 12C22.791 17.93 17.971 22.75 12.041 22.75ZM12.041 2.75C6.94102 2.75 2.79102 6.9 2.79102 12C2.79102 17.1 6.94102 21.25 12.041 21.25C17.141 21.25 21.291 17.1 21.291 12C21.291 6.9 17.141 2.75 12.041 2.75Z" fill="#171717"/>
</svg>
