<svg width="25" height="24" viewBox="0 0 25 24" fill="none" xmlns="http://www.w3.org/2000/svg">
<path d="M8.71094 14.33C8.71094 15.62 9.70094 16.66 10.9309 16.66H13.4409C14.5109 16.66 15.3809 15.75 15.3809 14.63C15.3809 13.41 14.8509 12.98 14.0609 12.7L10.0309 11.3C9.24094 11.02 8.71094 10.59 8.71094 9.37003C8.71094 8.25003 9.58094 7.34003 10.6509 7.34003H13.1609C14.3909 7.34003 15.3809 8.38003 15.3809 9.67003" stroke="#171717" stroke-width="1.5" stroke-linecap="round" stroke-linejoin="round"/>
<path d="M12.041 6V18" stroke="#171717" stroke-width="1.5" stroke-linecap="round" stroke-linejoin="round"/>
<path d="M4.04102 6C2.79102 7.67 2.04102 9.75 2.04102 12C2.04102 17.52 6.52102 22 12.041 22C17.561 22 22.041 17.52 22.041 12C22.041 6.48 17.561 2 12.041 2C10.611 2 9.24102 2.3 8.01102 2.85" stroke="#171717" stroke-width="1.5" stroke-linecap="round" stroke-linejoin="round"/>
</svg>
