<svg width="25" height="24" viewBox="0 0 25 24" fill="none" xmlns="http://www.w3.org/2000/svg">
<path opacity="0.4" d="M16.2291 2H7.84906C4.20906 2 2.03906 4.17 2.03906 7.81V16.18C2.03906 19.83 4.20906 22 7.84906 22H16.2191C19.8591 22 22.0291 19.83 22.0291 16.19V7.81C22.0391 4.17 19.8691 2 16.2291 2Z" fill="#171717"/>
<path d="M14.2992 12L12.7892 11.47V8.08H13.1492C13.9592 8.08 14.6192 8.79 14.6192 9.66C14.6192 10.07 14.9592 10.41 15.3692 10.41C15.7792 10.41 16.1192 10.07 16.1192 9.66C16.1192 7.96 14.7892 6.58 13.1492 6.58H12.7892V6C12.7892 5.59 12.4492 5.25 12.0392 5.25C11.6292 5.25 11.2892 5.59 11.2892 6V6.58H10.6392C9.15922 6.58 7.94922 7.83 7.94922 9.36C7.94922 11.15 8.98922 11.72 9.77922 12L11.2892 12.53V15.91H10.9292C10.1192 15.91 9.45922 15.2 9.45922 14.33C9.45922 13.92 9.11922 13.58 8.70922 13.58C8.29922 13.58 7.95922 13.92 7.95922 14.33C7.95922 16.03 9.28922 17.41 10.9292 17.41H11.2892V18C11.2892 18.41 11.6292 18.75 12.0392 18.75C12.4492 18.75 12.7892 18.41 12.7892 18V17.42H13.4392C14.9192 17.42 16.1292 16.17 16.1292 14.64C16.1192 12.84 15.0792 12.27 14.2992 12ZM10.2792 10.59C9.76922 10.41 9.45922 10.24 9.45922 9.37C9.45922 8.66 9.98922 8.09 10.6492 8.09H11.2992V10.95L10.2792 10.59ZM13.4392 15.92H12.7892V13.06L13.7992 13.41C14.3092 13.59 14.6192 13.76 14.6192 14.63C14.6192 15.34 14.0892 15.92 13.4392 15.92Z" fill="#171717"/>
</svg>
