<svg width="25" height="24" viewBox="0 0 25 24" fill="none" xmlns="http://www.w3.org/2000/svg">
<path opacity="0.4" d="M12.041 21.9C17.5639 21.9 22.041 17.4229 22.041 11.9C22.041 6.37718 17.5639 1.90002 12.041 1.90002C6.51817 1.90002 2.04102 6.37718 2.04102 11.9C2.04102 17.4229 6.51817 21.9 12.041 21.9Z" fill="#171717"/>
<path d="M14.3012 12L12.7912 11.47V8.08H13.1512C13.9612 8.08 14.6212 8.79 14.6212 9.66C14.6212 10.07 14.9612 10.41 15.3712 10.41C15.7812 10.41 16.1212 10.07 16.1212 9.66C16.1212 7.96 14.7912 6.58 13.1512 6.58H12.7912V6C12.7912 5.59 12.4512 5.25 12.0412 5.25C11.6312 5.25 11.2912 5.59 11.2912 6V6.58H10.6412C9.16117 6.58 7.95117 7.83 7.95117 9.36C7.95117 11.15 8.99117 11.72 9.78117 12L11.2912 12.53V15.91H10.9312C10.1212 15.91 9.46117 15.2 9.46117 14.33C9.46117 13.92 9.12117 13.58 8.71117 13.58C8.30117 13.58 7.96117 13.92 7.96117 14.33C7.96117 16.03 9.29117 17.41 10.9312 17.41H11.2912V18C11.2912 18.41 11.6312 18.75 12.0412 18.75C12.4512 18.75 12.7912 18.41 12.7912 18V17.42H13.4412C14.9212 17.42 16.1312 16.17 16.1312 14.64C16.1212 12.84 15.0812 12.27 14.3012 12ZM10.2812 10.59C9.77117 10.41 9.46117 10.24 9.46117 9.37C9.46117 8.66 9.99117 8.09 10.6512 8.09H11.3012V10.95L10.2812 10.59ZM13.4412 15.92H12.7912V13.06L13.8012 13.41C14.3112 13.59 14.6212 13.76 14.6212 14.63C14.6212 15.34 14.0912 15.92 13.4412 15.92Z" fill="#171717"/>
</svg>
