<svg width="25" height="24" viewBox="0 0 25 24" fill="none" xmlns="http://www.w3.org/2000/svg">
<path d="M13.4392 17.42H10.9292C9.28922 17.42 7.95922 16.04 7.95922 14.34C7.95922 13.93 8.29922 13.59 8.70922 13.59C9.11922 13.59 9.45922 13.93 9.45922 14.34C9.45922 15.21 10.1192 15.92 10.9292 15.92H13.4392C14.0892 15.92 14.6292 15.34 14.6292 14.64C14.6292 13.77 14.3192 13.6 13.8092 13.42L9.77922 12C8.99922 11.73 7.94922 11.15 7.94922 9.35996C7.94922 7.81996 9.15922 6.57996 10.6392 6.57996H13.1492C14.7892 6.57996 16.1192 7.95996 16.1192 9.65996C16.1192 10.07 15.7792 10.41 15.3692 10.41C14.9592 10.41 14.6192 10.07 14.6192 9.65996C14.6192 8.78996 13.9592 8.07996 13.1492 8.07996H10.6392C9.98922 8.07996 9.44922 8.65996 9.44922 9.35996C9.44922 10.23 9.75922 10.4 10.2692 10.58L14.2992 12C15.0792 12.27 16.1292 12.85 16.1292 14.64C16.1192 16.17 14.9192 17.42 13.4392 17.42Z" fill="#171717"/>
<path d="M12.0391 18.75C11.6291 18.75 11.2891 18.41 11.2891 18V6C11.2891 5.59 11.6291 5.25 12.0391 5.25C12.4491 5.25 12.7891 5.59 12.7891 6V18C12.7891 18.41 12.4491 18.75 12.0391 18.75Z" fill="#171717"/>
<path d="M15.0391 22.75H9.03906C3.60906 22.75 1.28906 20.43 1.28906 15V9C1.28906 3.57 3.60906 1.25 9.03906 1.25H15.0391C20.4691 1.25 22.7891 3.57 22.7891 9V15C22.7891 20.43 20.4691 22.75 15.0391 22.75ZM9.03906 2.75C4.42906 2.75 2.78906 4.39 2.78906 9V15C2.78906 19.61 4.42906 21.25 9.03906 21.25H15.0391C19.6491 21.25 21.2891 19.61 21.2891 15V9C21.2891 4.39 19.6491 2.75 15.0391 2.75H9.03906Z" fill="#171717"/>
</svg>
