<svg width="25" height="24" viewBox="0 0 25 24" fill="none" xmlns="http://www.w3.org/2000/svg">
<path d="M17.7598 22.75H12.2798C11.8698 22.75 11.5298 22.41 11.5298 22C11.5298 21.59 11.8698 21.25 12.2798 21.25H17.7598C19.4198 21.25 20.7698 19.9 20.7698 18.24V17.8H19.6198C18.1098 17.8 16.8298 16.68 16.7098 15.24C16.6298 14.41 16.9298 13.6 17.5298 13.01C18.0398 12.49 18.7398 12.2 19.4898 12.2H20.7598V11.51C20.7598 9.85001 19.4098 8.5 17.7498 8.5H6.26976C4.60976 8.5 3.25977 9.85001 3.25977 11.51V13.24C3.25977 13.65 2.91977 13.99 2.50977 13.99C2.09977 13.99 1.75977 13.65 1.75977 13.24V11.51C1.75977 9.02001 3.77976 7 6.26976 7H17.7498C20.2398 7 22.2598 9.02001 22.2598 11.51V12.95C22.2598 13.36 21.9198 13.7 21.5098 13.7H19.4898C19.1398 13.7 18.8198 13.83 18.5898 14.07C18.2998 14.35 18.1598 14.73 18.1998 15.11C18.2598 15.77 18.8898 16.3 19.6098 16.3H21.5098C21.9198 16.3 22.2598 16.64 22.2598 17.05V18.24C22.2698 20.73 20.2498 22.75 17.7598 22.75Z" fill="#171717"/>
<path d="M2.51953 13.16C2.10953 13.16 1.76953 12.82 1.76953 12.41V7.84006C1.76953 6.35006 2.70953 5.00001 4.09953 4.47001L12.0395 1.47001C12.8595 1.16001 13.7695 1.27005 14.4795 1.77005C15.1995 2.27005 15.6195 3.08005 15.6195 3.95005V7.75003C15.6195 8.16003 15.2795 8.50003 14.8695 8.50003C14.4595 8.50003 14.1195 8.16003 14.1195 7.75003V3.95005C14.1195 3.57005 13.9395 3.22003 13.6195 3.00003C13.2995 2.78003 12.9195 2.73003 12.5595 2.87003L4.61954 5.87003C3.80954 6.18003 3.25954 6.97006 3.25954 7.84006V12.41C3.26954 12.83 2.92953 13.16 2.51953 13.16Z" fill="#171717"/>
<path d="M19.6195 17.7999C18.1095 17.7999 16.8295 16.6799 16.7095 15.2399C16.6295 14.4099 16.9295 13.5999 17.5295 13.0099C18.0395 12.4899 18.7395 12.2 19.4895 12.2H21.5695C22.5595 12.23 23.3195 13.0099 23.3195 13.9699V16.03C23.3195 16.99 22.5595 17.7699 21.5995 17.7999H19.6195ZM21.5495 13.7H19.4995C19.1495 13.7 18.8295 13.8299 18.5995 14.0699C18.3095 14.3499 18.1695 14.7299 18.2095 15.1099C18.2695 15.7699 18.8995 16.2999 19.6195 16.2999H21.5795C21.7095 16.2999 21.8295 16.18 21.8295 16.03V13.9699C21.8295 13.8199 21.7095 13.71 21.5495 13.7Z" fill="#171717"/>
<path d="M14.0195 12.75H7.01953C6.60953 12.75 6.26953 12.41 6.26953 12C6.26953 11.59 6.60953 11.25 7.01953 11.25H14.0195C14.4295 11.25 14.7695 11.59 14.7695 12C14.7695 12.41 14.4295 12.75 14.0195 12.75Z" fill="#171717"/>
<path d="M9.51953 19.69C9.10953 19.69 8.76953 19.35 8.76953 18.94V17.66C8.76953 17.44 8.58953 17.25 8.35953 17.25H3.01953C2.60953 17.25 2.26953 16.91 2.26953 16.5C2.26953 16.09 2.60953 15.75 3.01953 15.75H8.35953C9.40953 15.75 10.2695 16.61 10.2695 17.66V18.94C10.2695 19.35 9.92953 19.69 9.51953 19.69Z" fill="#171717"/>
<path d="M4.23947 18.4699C4.04947 18.4699 3.85947 18.4 3.70947 18.25L2.48947 17.03C2.19947 16.74 2.19947 16.2599 2.48947 15.9699L3.70947 14.75C3.99947 14.46 4.47947 14.46 4.76947 14.75C5.05947 15.04 5.05947 15.52 4.76947 15.81L4.07947 16.5L4.76947 17.19C5.05947 17.48 5.05947 17.96 4.76947 18.25C4.61947 18.4 4.42947 18.4699 4.23947 18.4699Z" fill="#171717"/>
<path d="M9.51953 22.5301H4.17953C3.12953 22.5301 2.26953 21.6701 2.26953 20.6201V19.3401C2.26953 18.9301 2.60953 18.5901 3.01953 18.5901C3.42953 18.5901 3.76953 18.9301 3.76953 19.3401V20.6201C3.76953 20.8401 3.94953 21.0301 4.17953 21.0301H9.51953C9.92953 21.0301 10.2695 21.3701 10.2695 21.7801C10.2695 22.1901 9.92953 22.5301 9.51953 22.5301Z" fill="#171717"/>
<path d="M8.29974 23.75C8.10974 23.75 7.91975 23.68 7.76975 23.53C7.47975 23.24 7.47975 22.7599 7.76975 22.4699L8.45975 21.78L7.76975 21.09C7.47975 20.8 7.47975 20.32 7.76975 20.03C8.05975 19.74 8.53974 19.74 8.82974 20.03L10.0497 21.25C10.3397 21.54 10.3397 22.02 10.0497 22.31L8.82974 23.53C8.68974 23.68 8.48974 23.75 8.29974 23.75Z" fill="#171717"/>
</svg>
