<svg width="25" height="24" viewBox="0 0 25 24" fill="none" xmlns="http://www.w3.org/2000/svg">
<path d="M2.51953 13.24V11.51C2.51953 9.44001 4.20953 7.75 6.27953 7.75H17.7595C19.8295 7.75 21.5195 9.44001 21.5195 11.51V12.95H19.4995C18.9395 12.95 18.4295 13.17 18.0595 13.55C17.6395 13.96 17.3995 14.55 17.4595 15.18C17.5495 16.26 18.5395 17.05 19.6195 17.05H21.5195V18.24C21.5195 20.31 19.8295 22 17.7595 22H12.2795" stroke="#171717" stroke-width="1.5" stroke-linecap="round" stroke-linejoin="round"/>
<path opacity="0.4" d="M2.51953 12.4101V7.8401C2.51953 6.6501 3.24953 5.59006 4.35953 5.17006L12.2995 2.17006C13.5395 1.70006 14.8695 2.62009 14.8695 3.95009V7.75008" stroke="#171717" stroke-width="1.5" stroke-linecap="round" stroke-linejoin="round"/>
<path d="M22.5793 13.9699V16.03C22.5793 16.58 22.1393 17.0299 21.5793 17.0499H19.6193C18.5393 17.0499 17.5493 16.2599 17.4593 15.1799C17.3993 14.5499 17.6393 13.9599 18.0593 13.5499C18.4293 13.1699 18.9393 12.95 19.4993 12.95H21.5793C22.1393 12.97 22.5793 13.4199 22.5793 13.9699Z" stroke="#171717" stroke-width="1.5" stroke-linecap="round" stroke-linejoin="round"/>
<path opacity="0.4" d="M7.01953 12H14.0195" stroke="#171717" stroke-width="1.5" stroke-linecap="round" stroke-linejoin="round"/>
<path d="M3.01953 16.5H8.35953C8.99953 16.5 9.51953 17.02 9.51953 17.66V18.94" stroke="#171717" stroke-width="1.5" stroke-miterlimit="10" stroke-linecap="round" stroke-linejoin="round"/>
<path d="M4.23953 15.28L3.01953 16.5L4.23953 17.72" stroke="#171717" stroke-width="1.5" stroke-miterlimit="10" stroke-linecap="round" stroke-linejoin="round"/>
<path d="M9.51953 21.7801H4.17953C3.53953 21.7801 3.01953 21.2601 3.01953 20.6201V19.3401" stroke="#171717" stroke-width="1.5" stroke-miterlimit="10" stroke-linecap="round" stroke-linejoin="round"/>
<path d="M8.29932 23.0001L9.51932 21.7801L8.29932 20.5601" stroke="#171717" stroke-width="1.5" stroke-miterlimit="10" stroke-linecap="round" stroke-linejoin="round"/>
</svg>
