<svg width="25" height="24" viewBox="0 0 25 24" fill="none" xmlns="http://www.w3.org/2000/svg">
<path d="M17.7566 22.75H7.65662C7.34662 22.75 7.06662 22.56 6.95662 22.26C6.84662 21.96 6.92661 21.64 7.16661 21.43C7.86661 20.81 8.27661 19.92 8.27661 18.99C8.27661 17.2 6.81661 15.74 5.02661 15.74C4.28661 15.74 3.58661 15.99 2.99661 16.46C2.76661 16.64 2.46662 16.67 2.20662 16.55C1.94662 16.43 1.78662 16.16 1.78662 15.87V11.5C1.78662 9.01 3.80662 6.98999 6.29662 6.98999H17.7766C20.2666 6.98999 22.2866 9.01 22.2866 11.5V12.94C22.2866 13.35 21.9466 13.69 21.5366 13.69H19.5166C19.1666 13.69 18.8466 13.82 18.6166 14.06L18.6066 14.07C18.3266 14.34 18.1966 14.71 18.2266 15.09C18.2866 15.75 18.9166 16.28 19.6366 16.28H21.5366C21.9466 16.28 22.2866 16.62 22.2866 17.03V18.22C22.2666 20.73 20.2466 22.75 17.7566 22.75ZM9.19661 21.25H17.7566C19.4166 21.25 20.7666 19.9 20.7666 18.24V17.8H19.6166C18.1066 17.8 16.8266 16.68 16.7066 15.24C16.6266 14.42 16.9266 13.61 17.5266 13.02C18.0466 12.49 18.7466 12.2 19.4966 12.2H20.7666V11.51C20.7666 9.85001 19.4166 8.5 17.7566 8.5H6.27661C4.61661 8.5 3.26662 9.85001 3.26662 11.51V14.59C3.82662 14.37 4.41662 14.25 5.01662 14.25C7.63662 14.25 9.76662 16.38 9.76662 19C9.76662 19.79 9.56661 20.57 9.19661 21.25Z" fill="#171717"/>
<path d="M2.5166 12.2601C2.1066 12.2601 1.7666 11.9201 1.7666 11.5101V7.84011C1.7666 6.35011 2.69661 4.99005 4.08661 4.47005L12.0266 1.47005C12.8466 1.17005 13.7666 1.28011 14.4766 1.78011C15.1866 2.28011 15.6166 3.09009 15.6166 3.95009V7.75008C15.6166 8.16008 15.2766 8.50008 14.8666 8.50008C14.4566 8.50008 14.1166 8.16008 14.1166 7.75008V3.95009C14.1166 3.57009 13.9366 3.23009 13.6266 3.01009C13.3066 2.79009 12.9166 2.74008 12.5566 2.87008L4.61661 5.87008C3.79661 6.18008 3.2666 6.95011 3.2666 7.84011V11.5101C3.2666 11.9201 2.9266 12.2601 2.5166 12.2601Z" fill="#171717"/>
<path d="M19.6166 17.7999C18.1066 17.7999 16.8266 16.6799 16.7066 15.2399C16.6266 14.4099 16.9266 13.5999 17.5266 13.0099C18.0366 12.4899 18.7366 12.2 19.4866 12.2H21.5666C22.5566 12.23 23.3166 13.0099 23.3166 13.9699V16.03C23.3166 16.99 22.5566 17.7699 21.5966 17.7999H19.6166ZM21.5466 13.7H19.4966C19.1466 13.7 18.8266 13.8299 18.5966 14.0699C18.3066 14.3499 18.1666 14.7299 18.2066 15.1099C18.2666 15.7699 18.8966 16.2999 19.6166 16.2999H21.5766C21.7066 16.2999 21.8266 16.18 21.8266 16.03V13.9699C21.8266 13.8199 21.7066 13.71 21.5466 13.7Z" fill="#171717"/>
<path d="M14.0166 12.75H7.0166C6.6066 12.75 6.2666 12.41 6.2666 12C6.2666 11.59 6.6066 11.25 7.0166 11.25H14.0166C14.4266 11.25 14.7666 11.59 14.7666 12C14.7666 12.41 14.4266 12.75 14.0166 12.75Z" fill="#171717"/>
<path d="M5.0166 23.75C2.3966 23.75 0.266602 21.62 0.266602 19C0.266602 17.54 0.9166 16.19 2.0466 15.29C2.8866 14.62 3.9466 14.25 5.0166 14.25C7.6366 14.25 9.7666 16.38 9.7666 19C9.7666 20.36 9.1766 21.66 8.1566 22.56C7.2766 23.33 6.1666 23.75 5.0166 23.75ZM5.0166 15.75C4.2766 15.75 3.5766 16 2.9866 16.47C2.2166 17.08 1.7666 18.01 1.7666 19C1.7666 20.79 3.2266 22.25 5.0166 22.25C5.7966 22.25 6.5566 21.96 7.1666 21.44C7.8666 20.82 8.2666 19.94 8.2666 19C8.2666 17.21 6.8066 15.75 5.0166 15.75Z" fill="#171717"/>
<path d="M4.01648 20.75C3.76648 20.75 3.51649 20.62 3.37649 20.39C3.16649 20.03 3.27648 19.57 3.63648 19.36L4.52648 18.83V17.75C4.52648 17.34 4.86648 17 5.27648 17C5.68648 17 6.02648 17.34 6.02648 17.75V19.25C6.02648 19.51 5.88648 19.76 5.66648 19.89L4.41648 20.64C4.28648 20.72 4.14648 20.75 4.01648 20.75Z" fill="#171717"/>
</svg>
