<svg width="24" height="24" viewBox="0 0 24 24" fill="none" xmlns="http://www.w3.org/2000/svg">
<path d="M17.7459 22.75H7.63586C7.31586 22.75 7.03586 22.55 6.92586 22.26C6.81586 21.96 6.90586 21.63 7.14586 21.43C7.38586 21.23 7.60585 20.97 7.76585 20.69C8.08585 20.18 8.24586 19.6 8.24586 19.01C8.24586 17.22 6.78586 15.76 4.99586 15.76C4.25586 15.76 3.55587 16.01 2.96587 16.48C2.74587 16.66 2.43586 16.69 2.17586 16.57C1.91586 16.45 1.75586 16.18 1.75586 15.89V11.52C1.75586 9.03002 3.77585 7.01001 6.26585 7.01001H17.7459C20.2359 7.01001 22.2559 9.03002 22.2559 11.52V12.96C22.2559 13.37 21.9159 13.71 21.5059 13.71H19.4859C19.1359 13.71 18.8159 13.84 18.5859 14.08L18.5759 14.09C18.2959 14.36 18.1659 14.73 18.1959 15.11C18.2559 15.77 18.8859 16.3 19.6059 16.3H21.5059C21.9159 16.3 22.2559 16.64 22.2559 17.05V18.24C22.2559 20.73 20.2359 22.75 17.7459 22.75ZM9.18585 21.25H17.7459C19.4059 21.25 20.7559 19.9 20.7559 18.24V17.8H19.6059C18.0959 17.8 16.8159 16.68 16.6959 15.24C16.6159 14.42 16.9159 13.61 17.5159 13.02C18.0359 12.49 18.7359 12.2 19.4859 12.2H20.7559V11.51C20.7559 9.85001 19.4059 8.5 17.7459 8.5H6.26585C4.60585 8.5 3.25586 9.85001 3.25586 11.51V14.59C3.81586 14.37 4.40586 14.25 5.00586 14.25C7.62586 14.25 9.75586 16.38 9.75586 19C9.75586 19.79 9.55585 20.57 9.18585 21.25Z" fill="#171717"/>
<path d="M2.50586 13.16C2.09586 13.16 1.75586 12.82 1.75586 12.41V7.84006C1.75586 6.35006 2.69586 5.00001 4.08586 4.47001L12.0259 1.47001C12.8459 1.16001 13.7559 1.27005 14.4659 1.77005C15.1859 2.27005 15.6059 3.08005 15.6059 3.95005V7.75003C15.6059 8.16003 15.2659 8.50003 14.8559 8.50003C14.4459 8.50003 14.1059 8.16003 14.1059 7.75003V3.95005C14.1059 3.57005 13.9259 3.22003 13.6059 3.00003C13.2859 2.78003 12.9059 2.73003 12.5459 2.87003L4.60587 5.87003C3.79587 6.18003 3.24586 6.97006 3.24586 7.84006V12.41C3.25586 12.83 2.91586 13.16 2.50586 13.16Z" fill="#171717"/>
<path d="M19.6058 17.7999C18.0958 17.7999 16.8158 16.6799 16.6958 15.2399C16.6158 14.4099 16.9158 13.5999 17.5158 13.0099C18.0258 12.4899 18.7258 12.2 19.4758 12.2H21.5558C22.5458 12.23 23.3058 13.0099 23.3058 13.9699V16.03C23.3058 16.99 22.5458 17.7699 21.5858 17.7999H19.6058ZM21.5358 13.7H19.4858C19.1358 13.7 18.8158 13.8299 18.5858 14.0699C18.2958 14.3499 18.1558 14.7299 18.1958 15.1099C18.2558 15.7699 18.8858 16.2999 19.6058 16.2999H21.5658C21.6958 16.2999 21.8158 16.18 21.8158 16.03V13.9699C21.8158 13.8199 21.6958 13.71 21.5358 13.7Z" fill="#171717"/>
<path d="M14.0059 12.75H7.00586C6.59586 12.75 6.25586 12.41 6.25586 12C6.25586 11.59 6.59586 11.25 7.00586 11.25H14.0059C14.4159 11.25 14.7559 11.59 14.7559 12C14.7559 12.41 14.4159 12.75 14.0059 12.75Z" fill="#171717"/>
<path d="M5.00586 23.75C3.34586 23.75 1.78586 22.87 0.945862 21.44C0.495862 20.72 0.255859 19.87 0.255859 19C0.255859 17.54 0.905858 16.19 2.03586 15.29C2.87586 14.62 3.93586 14.25 5.00586 14.25C7.62586 14.25 9.75586 16.38 9.75586 19C9.75586 19.87 9.51586 20.72 9.06586 21.45C8.82586 21.87 8.49586 22.25 8.11586 22.57C7.28586 23.33 6.17586 23.75 5.00586 23.75ZM5.00586 15.75C4.26586 15.75 3.56586 16 2.97586 16.47C2.20586 17.08 1.75586 18.01 1.75586 19C1.75586 19.59 1.91586 20.17 2.22586 20.67C2.81586 21.67 3.85586 22.25 5.00586 22.25C5.79586 22.25 6.55586 21.96 7.13586 21.44C7.39586 21.22 7.61586 20.96 7.77586 20.68C8.09586 20.17 8.25586 19.59 8.25586 19C8.25586 17.21 6.79586 15.75 5.00586 15.75Z" fill="#171717"/>
<path d="M4.43573 20.7401C4.24573 20.7401 4.05573 20.6701 3.90573 20.5201L2.91574 19.5301C2.62574 19.2401 2.62574 18.76 2.91574 18.47C3.20574 18.18 3.68574 18.18 3.97574 18.47L4.45574 18.9501L6.05574 17.47C6.35574 17.19 6.83574 17.2101 7.11574 17.5101C7.39574 17.8101 7.37575 18.2901 7.07575 18.5701L4.94574 20.54C4.79574 20.67 4.61573 20.7401 4.43573 20.7401Z" fill="#171717"/>
</svg>
