<svg width="25" height="24" viewBox="0 0 25 24" fill="none" xmlns="http://www.w3.org/2000/svg">
<path opacity="0.4" d="M19.4995 12.95H21.5195V11.51C21.5195 9.44001 19.8295 7.75 17.7595 7.75H6.27953C4.20953 7.75 2.51953 9.44001 2.51953 11.51V15.16C3.30953 14.44 4.36953 14 5.51953 14C8.00953 14 10.0195 16.02 10.0195 18.5C10.0195 19.03 9.92954 19.53 9.75954 20C9.48954 20.79 8.98953 21.47 8.35953 22H17.7595C19.8295 22 21.5195 20.31 21.5195 18.24V17.05H19.6195C18.5395 17.05 17.5495 16.26 17.4595 15.18C17.3995 14.55 17.6395 13.96 18.0595 13.55C18.4295 13.17 18.9395 12.95 19.4995 12.95Z" fill="#171717"/>
<path d="M5.51953 14C4.36953 14 3.30953 14.44 2.51953 15.16C2.33953 15.32 2.16953 15.49 2.01953 15.68C1.38953 16.45 1.01953 17.43 1.01953 18.5C1.01953 20.99 3.03953 23 5.51953 23C6.59953 23 7.57953 22.62 8.35953 22C8.98953 21.47 9.48954 20.79 9.75954 20C9.92954 19.53 10.0195 19.03 10.0195 18.5C10.0195 16.02 8.00953 14 5.51953 14ZM8.21953 17.63C8.21953 17.94 7.96953 18.18 7.66953 18.18C7.36952 18.18 7.11954 17.94 7.11954 17.63V17.52C7.11954 17.4 7.02953 17.3 6.90953 17.3H4.64954C4.75954 17.51 4.73952 17.77 4.55952 17.95C4.45952 18.05 4.31953 18.11 4.16953 18.11C4.02953 18.11 3.88954 18.05 3.78954 17.95L2.97954 17.14C2.92954 17.09 2.88953 17.03 2.85953 16.96C2.80953 16.83 2.80953 16.68 2.85953 16.54C2.88953 16.48 2.92954 16.41 2.97954 16.36L3.78954 15.56C3.99954 15.34 4.34952 15.34 4.55952 15.56C4.73952 15.73 4.75954 16 4.64954 16.2H6.90953C7.62953 16.2 8.21953 16.79 8.21953 17.52V17.63ZM6.86954 21.6C6.71954 21.6 6.57954 21.55 6.47954 21.44C6.29954 21.27 6.27953 21 6.38953 20.8H4.12953C3.40953 20.8 2.81953 20.21 2.81953 19.48V19.37C2.81953 19.06 3.06954 18.82 3.36954 18.82C3.66954 18.82 3.91953 19.06 3.91953 19.37V19.48C3.91953 19.6 4.00953 19.7 4.12953 19.7H6.38953C6.27953 19.49 6.29954 19.23 6.47954 19.05C6.68954 18.84 7.03953 18.84 7.24953 19.05L8.05952 19.86C8.10952 19.91 8.14953 19.97 8.17953 20.04C8.22954 20.17 8.22954 20.32 8.17953 20.46C8.14953 20.52 8.10952 20.59 8.05952 20.64L7.24953 21.44C7.14953 21.55 7.00954 21.6 6.86954 21.6Z" fill="#171717"/>
<path d="M14.8695 3.95V7.74999H6.27953C4.20953 7.74999 2.51953 9.44 2.51953 11.51V7.84002C2.51953 6.65002 3.24953 5.58997 4.35953 5.16997L12.2995 2.16997C13.5395 1.70997 14.8695 2.62 14.8695 3.95Z" fill="#171717"/>
<path d="M22.5793 13.9699V16.03C22.5793 16.58 22.1393 17.0299 21.5793 17.0499H19.6193C18.5393 17.0499 17.5493 16.2599 17.4593 15.1799C17.3993 14.5499 17.6393 13.9599 18.0593 13.5499C18.4293 13.1699 18.9393 12.95 19.4993 12.95H21.5793C22.1393 12.97 22.5793 13.4199 22.5793 13.9699Z" fill="#171717"/>
<path d="M14.0195 12.75H7.01953C6.60953 12.75 6.26953 12.41 6.26953 12C6.26953 11.59 6.60953 11.25 7.01953 11.25H14.0195C14.4295 11.25 14.7695 11.59 14.7695 12C14.7695 12.41 14.4295 12.75 14.0195 12.75Z" fill="#171717"/>
</svg>
