<svg width="24" height="24" viewBox="0 0 24 24" fill="none" xmlns="http://www.w3.org/2000/svg">
<path d="M5.00586 15C4.06586 15 3.19586 15.33 2.50586 15.88C1.58586 16.61 1.00586 17.74 1.00586 19C1.00586 19.75 1.21586 20.46 1.58586 21.06C2.27586 22.22 3.54586 23 5.00586 23C6.01586 23 6.93586 22.63 7.63586 22C7.94586 21.74 8.21586 21.42 8.42586 21.06C8.79586 20.46 9.00586 19.75 9.00586 19C9.00586 16.79 7.21586 15 5.00586 15ZM7.07587 18.57L4.94586 20.54C4.80586 20.67 4.61585 20.74 4.43585 20.74C4.24585 20.74 4.05585 20.67 3.90585 20.52L2.91586 19.53C2.62586 19.24 2.62586 18.76 2.91586 18.47C3.20586 18.18 3.68586 18.18 3.97586 18.47L4.45586 18.95L6.05586 17.47C6.35586 17.19 6.83586 17.21 7.11586 17.51C7.39586 17.81 7.37587 18.29 7.07587 18.57Z" fill="#171717"/>
<path opacity="0.4" d="M19.4859 12.95H21.5059V11.51C21.5059 9.44001 19.8159 7.75 17.7459 7.75H6.26585C4.19585 7.75 2.50586 9.44001 2.50586 11.51V15.88C3.19586 15.33 4.06586 15 5.00586 15C7.21586 15 9.00586 16.79 9.00586 19C9.00586 19.75 8.79586 20.46 8.42586 21.06C8.21586 21.42 7.94586 21.74 7.63586 22H17.7459C19.8159 22 21.5059 20.31 21.5059 18.24V17.05H19.6059C18.5259 17.05 17.5359 16.26 17.4459 15.18C17.3859 14.55 17.6259 13.96 18.0459 13.55C18.4159 13.17 18.9259 12.95 19.4859 12.95Z" fill="#171717"/>
<path d="M14.8559 3.95V7.74999H6.26585C4.19585 7.74999 2.50586 9.44 2.50586 11.51V7.84002C2.50586 6.65002 3.23586 5.58997 4.34586 5.16997L12.2859 2.16997C13.5259 1.70997 14.8559 2.62 14.8559 3.95Z" fill="#171717"/>
<path d="M22.5656 13.9699V16.03C22.5656 16.58 22.1256 17.0299 21.5656 17.0499H19.6057C18.5257 17.0499 17.5356 16.2599 17.4456 15.1799C17.3856 14.5499 17.6256 13.9599 18.0456 13.5499C18.4156 13.1699 18.9256 12.95 19.4856 12.95H21.5656C22.1256 12.97 22.5656 13.4199 22.5656 13.9699Z" fill="#171717"/>
<path d="M14.0059 12.75H7.00586C6.59586 12.75 6.25586 12.41 6.25586 12C6.25586 11.59 6.59586 11.25 7.00586 11.25H14.0059C14.4159 11.25 14.7559 11.59 14.7559 12C14.7559 12.41 14.4159 12.75 14.0059 12.75Z" fill="#171717"/>
</svg>
