<svg width="24" height="24" viewBox="0 0 24 24" fill="none" xmlns="http://www.w3.org/2000/svg">
<path d="M18.0459 13.55C17.6259 13.96 17.3859 14.55 17.4459 15.18C17.5359 16.26 18.5259 17.05 19.6059 17.05H21.5059V18.24C21.5059 20.31 19.8159 22 17.7459 22H7.63586C7.94586 21.74 8.21586 21.42 8.42586 21.06C8.79586 20.46 9.00586 19.75 9.00586 19C9.00586 16.79 7.21586 15 5.00586 15C4.06586 15 3.19586 15.33 2.50586 15.88V11.51C2.50586 9.44001 4.19585 7.75 6.26585 7.75H17.7459C19.8159 7.75 21.5059 9.44001 21.5059 11.51V12.95H19.4859C18.9259 12.95 18.4159 13.17 18.0459 13.55Z" stroke="#171717" stroke-width="1.5" stroke-linecap="round" stroke-linejoin="round"/>
<path opacity="0.4" d="M2.50586 12.4101V7.8401C2.50586 6.6501 3.23586 5.59006 4.34586 5.17006L12.2859 2.17006C13.5259 1.70006 14.8559 2.62009 14.8559 3.95009V7.75008" stroke="#171717" stroke-width="1.5" stroke-linecap="round" stroke-linejoin="round"/>
<path d="M22.5656 13.9699V16.03C22.5656 16.58 22.1256 17.0299 21.5656 17.0499H19.6057C18.5257 17.0499 17.5356 16.2599 17.4456 15.1799C17.3856 14.5499 17.6256 13.9599 18.0456 13.5499C18.4156 13.1699 18.9256 12.95 19.4856 12.95H21.5656C22.1256 12.97 22.5656 13.4199 22.5656 13.9699Z" stroke="#171717" stroke-width="1.5" stroke-linecap="round" stroke-linejoin="round"/>
<path opacity="0.4" d="M7.00586 12H14.0059" stroke="#171717" stroke-width="1.5" stroke-linecap="round" stroke-linejoin="round"/>
<path d="M9.00586 19C9.00586 19.75 8.79586 20.46 8.42586 21.06C8.21586 21.42 7.94586 21.74 7.63586 22C6.93586 22.63 6.01586 23 5.00586 23C3.54586 23 2.27586 22.22 1.58586 21.06C1.21586 20.46 1.00586 19.75 1.00586 19C1.00586 17.74 1.58586 16.61 2.50586 15.88C3.19586 15.33 4.06586 15 5.00586 15C7.21586 15 9.00586 16.79 9.00586 19Z" stroke="#171717" stroke-width="1.5" stroke-miterlimit="10" stroke-linecap="round" stroke-linejoin="round"/>
<path d="M3.4458 19L4.43579 19.99L6.5658 18.02" stroke="#171717" stroke-width="1.5" stroke-linecap="round" stroke-linejoin="round"/>
</svg>
