<svg width="25" height="24" viewBox="0 0 25 24" fill="none" xmlns="http://www.w3.org/2000/svg">
<path d="M5.01611 15C4.07611 15 3.20611 15.33 2.51611 15.88C1.59611 16.61 1.01611 17.74 1.01611 19C1.01611 21.21 2.80611 23 5.01611 23C6.02611 23 6.94611 22.62 7.65611 22C8.48611 21.27 9.01611 20.2 9.01611 19C9.01611 16.79 7.22611 15 5.01611 15ZM6.01611 19.25C6.01611 19.51 5.87611 19.76 5.65611 19.89L4.40611 20.64C4.28611 20.71 4.15611 20.75 4.01611 20.75C3.76611 20.75 3.51611 20.62 3.37611 20.39C3.16611 20.03 3.27611 19.57 3.63611 19.36L4.52611 18.83V17.75C4.52611 17.34 4.86611 17 5.27611 17C5.68611 17 6.02611 17.34 6.02611 17.75V19.25H6.01611Z" fill="#171717"/>
<path opacity="0.4" d="M19.4961 12.95H21.5161V11.51C21.5161 9.44001 19.8261 7.75 17.7561 7.75H6.27611C4.20611 7.75 2.51611 9.44001 2.51611 11.51V15.88C3.20611 15.33 4.07611 15 5.01611 15C7.22611 15 9.01611 16.79 9.01611 19C9.01611 19.75 8.80611 20.46 8.43611 21.06C8.22611 21.42 7.95612 21.74 7.64612 22H17.7561C19.8261 22 21.5161 20.31 21.5161 18.24V17.05H19.6161C18.5361 17.05 17.5461 16.26 17.4561 15.18C17.3961 14.55 17.6361 13.96 18.0561 13.55C18.4261 13.17 18.9361 12.95 19.4961 12.95Z" fill="#171717"/>
<path d="M14.8661 3.95V7.74999H6.27611C4.20611 7.74999 2.51611 9.44 2.51611 11.51V7.84002C2.51611 6.65002 3.24611 5.58997 4.35611 5.16997L12.2961 2.16997C13.5361 1.70997 14.8661 2.62 14.8661 3.95Z" fill="#171717"/>
<path d="M22.5759 13.9699V16.03C22.5759 16.58 22.1359 17.0299 21.5759 17.0499H19.6159C18.5359 17.0499 17.5459 16.2599 17.4559 15.1799C17.3959 14.5499 17.6359 13.9599 18.0559 13.5499C18.4259 13.1699 18.9359 12.95 19.4959 12.95H21.5759C22.1359 12.97 22.5759 13.4199 22.5759 13.9699Z" fill="#171717"/>
<path d="M14.0161 12.75H7.01611C6.60611 12.75 6.26611 12.41 6.26611 12C6.26611 11.59 6.60611 11.25 7.01611 11.25H14.0161C14.4261 11.25 14.7661 11.59 14.7661 12C14.7661 12.41 14.4261 12.75 14.0161 12.75Z" fill="#171717"/>
</svg>
