<svg width="25" height="24" viewBox="0 0 25 24" fill="none" xmlns="http://www.w3.org/2000/svg">
<path d="M18.0566 13.55C17.6366 13.96 17.3966 14.55 17.4566 15.18C17.5466 16.26 18.5366 17.05 19.6166 17.05H21.5166V18.24C21.5166 20.31 19.8266 22 17.7566 22H7.6566C8.4866 21.27 9.0166 20.2 9.0166 19C9.0166 16.79 7.2266 15 5.0166 15C4.0766 15 3.2066 15.33 2.5166 15.88V11.51C2.5166 9.44001 4.2066 7.75 6.2766 7.75H17.7566C19.8266 7.75 21.5166 9.44001 21.5166 11.51V12.95H19.4966C18.9366 12.95 18.4266 13.17 18.0566 13.55Z" stroke="#171717" stroke-width="1.5" stroke-linecap="round" stroke-linejoin="round"/>
<path opacity="0.4" d="M2.5166 11.51V7.84002C2.5166 6.65002 3.2466 5.58997 4.3566 5.16997L12.2966 2.16997C13.5366 1.70997 14.8666 2.62 14.8666 3.95V7.74999" stroke="#171717" stroke-width="1.5" stroke-linecap="round" stroke-linejoin="round"/>
<path d="M22.5764 13.9699V16.03C22.5764 16.58 22.1364 17.0299 21.5764 17.0499H19.6164C18.5364 17.0499 17.5464 16.2599 17.4564 15.1799C17.3964 14.5499 17.6364 13.9599 18.0564 13.5499C18.4264 13.1699 18.9364 12.95 19.4964 12.95H21.5764C22.1364 12.97 22.5764 13.4199 22.5764 13.9699Z" stroke="#171717" stroke-width="1.5" stroke-linecap="round" stroke-linejoin="round"/>
<path opacity="0.4" d="M7.0166 12H14.0166" stroke="#171717" stroke-width="1.5" stroke-linecap="round" stroke-linejoin="round"/>
<path d="M9.0166 19C9.0166 20.2 8.4866 21.27 7.6566 22C6.9466 22.62 6.0266 23 5.0166 23C2.8066 23 1.0166 21.21 1.0166 19C1.0166 17.74 1.5966 16.61 2.5166 15.88C3.2066 15.33 4.0766 15 5.0166 15C7.2266 15 9.0166 16.79 9.0166 19Z" stroke="#171717" stroke-width="1.5" stroke-miterlimit="10" stroke-linecap="round" stroke-linejoin="round"/>
<path d="M5.2666 17.75V19.25L4.0166 20" stroke="#171717" stroke-width="1.5" stroke-miterlimit="10" stroke-linecap="round" stroke-linejoin="round"/>
</svg>
