<svg width="25" height="24" viewBox="0 0 25 24" fill="none" xmlns="http://www.w3.org/2000/svg">
<path opacity="0.4" d="M16.244 2H7.86396C4.22395 2 2.05396 4.17 2.05396 7.81V16.18C2.05396 19.83 4.22395 22 7.86396 22H16.234C19.874 22 22.044 19.83 22.044 16.19V7.81C22.054 4.17 19.884 2 16.244 2Z" fill="#171717"/>
<path d="M10.554 8.81006H6.05396C5.64396 8.81006 5.30396 8.47006 5.30396 8.06006C5.30396 7.65006 5.64396 7.31006 6.05396 7.31006H10.554C10.964 7.31006 11.304 7.65006 11.304 8.06006C11.304 8.47006 10.964 8.81006 10.554 8.81006Z" fill="#171717"/>
<path d="M18.054 14.81H13.554C13.144 14.81 12.804 14.47 12.804 14.06C12.804 13.65 13.144 13.31 13.554 13.31H18.054C18.464 13.31 18.804 13.65 18.804 14.06C18.804 14.47 18.464 14.81 18.054 14.81Z" fill="#171717"/>
<path d="M18.054 18.56H13.554C13.144 18.56 12.804 18.22 12.804 17.81C12.804 17.4 13.144 17.06 13.554 17.06H18.054C18.464 17.06 18.804 17.4 18.804 17.81C18.804 18.22 18.464 18.56 18.054 18.56Z" fill="#171717"/>
<path d="M18.054 7.31006H16.574V5.81006C16.574 5.40006 16.234 5.06006 15.824 5.06006C15.414 5.06006 15.074 5.40006 15.074 5.81006V7.31006H13.554C13.144 7.31006 12.804 7.65006 12.804 8.06006C12.804 8.47006 13.144 8.81006 13.554 8.81006H15.074V10.3101C15.074 10.7201 15.414 11.0601 15.824 11.0601C16.234 11.0601 16.574 10.7201 16.574 10.3101V8.81006H18.054C18.464 8.81006 18.804 8.47006 18.804 8.06006C18.804 7.65006 18.464 7.31006 18.054 7.31006Z" fill="#171717"/>
<path d="M9.3639 15.94L11.0839 14.22C11.3739 13.93 11.3739 13.45 11.0839 13.16C10.7939 12.87 10.3139 12.87 10.0239 13.16L8.3039 14.88L6.5839 13.16C6.2939 12.87 5.8139 12.87 5.5239 13.16C5.2339 13.45 5.2339 13.93 5.5239 14.22L7.2439 15.94L5.5239 17.66C5.2339 17.95 5.2339 18.43 5.5239 18.72C5.6739 18.87 5.8639 18.94 6.0539 18.94C6.2439 18.94 6.4339 18.87 6.5839 18.72L8.3039 17L10.0239 18.72C10.1739 18.87 10.3639 18.94 10.5539 18.94C10.7439 18.94 10.9339 18.87 11.0839 18.72C11.3739 18.43 11.3739 17.95 11.0839 17.66L9.3639 15.94Z" fill="#171717"/>
</svg>
