<svg width="25" height="24" viewBox="0 0 25 24" fill="none" xmlns="http://www.w3.org/2000/svg">
<path d="M21.7539 6.39001H14.4839C14.0739 6.39001 13.7339 6.05001 13.7339 5.64001C13.7339 5.23001 14.0739 4.89001 14.4839 4.89001H21.7539C22.1639 4.89001 22.5039 5.23001 22.5039 5.64001C22.5039 6.05001 22.1639 6.39001 21.7539 6.39001Z" fill="#171717"/>
<path d="M9.634 6.39001H2.354C1.944 6.39001 1.604 6.05001 1.604 5.64001C1.604 5.23001 1.944 4.89001 2.354 4.89001H9.624C10.034 4.89001 10.374 5.23001 10.374 5.64001C10.374 6.05001 10.044 6.39001 9.634 6.39001Z" fill="#171717"/>
<path d="M21.7539 16.08H14.4839C14.0739 16.08 13.7339 15.74 13.7339 15.33C13.7339 14.92 14.0739 14.58 14.4839 14.58H21.7539C22.1639 14.58 22.5039 14.92 22.5039 15.33C22.5039 15.74 22.1639 16.08 21.7539 16.08Z" fill="#171717"/>
<path d="M21.7539 22.14H14.4839C14.0739 22.14 13.7339 21.8 13.7339 21.39C13.7339 20.98 14.0739 20.64 14.4839 20.64H21.7539C22.1639 20.64 22.5039 20.98 22.5039 21.39C22.5039 21.8 22.1639 22.14 21.7539 22.14Z" fill="#171717"/>
<path d="M18.144 10.02C17.734 10.02 17.394 9.68 17.394 9.27V2C17.394 1.59 17.734 1.25 18.144 1.25C18.554 1.25 18.894 1.59 18.894 2V9.27C18.894 9.69 18.564 10.02 18.144 10.02Z" fill="#171717"/>
<path d="M2.35395 22.75C2.16395 22.75 1.97395 22.68 1.82395 22.53C1.53395 22.24 1.53395 21.76 1.82395 21.47L9.09395 14.2C9.38395 13.91 9.86395 13.91 10.1539 14.2C10.4439 14.49 10.4439 14.97 10.1539 15.26L2.88395 22.53C2.74395 22.68 2.55395 22.75 2.35395 22.75Z" fill="#171717"/>
<path d="M9.63396 22.75C9.44395 22.75 9.25396 22.68 9.10396 22.53L1.83396 15.26C1.54396 14.97 1.54396 14.49 1.83396 14.2C2.12396 13.91 2.60396 13.91 2.89395 14.2L10.164 21.47C10.454 21.76 10.454 22.24 10.164 22.53C10.014 22.68 9.82395 22.75 9.63396 22.75Z" fill="#171717"/>
</svg>
