<svg width="25" height="24" viewBox="0 0 25 24" fill="none" xmlns="http://www.w3.org/2000/svg">
<path d="M12.0312 15.25C10.2413 15.25 8.78125 13.79 8.78125 12C8.78125 10.21 10.2413 8.75 12.0312 8.75C13.8212 8.75 15.2812 10.21 15.2812 12C15.2812 13.79 13.8212 15.25 12.0312 15.25ZM12.0312 10.25C11.0712 10.25 10.2812 11.04 10.2812 12C10.2812 12.96 11.0712 13.75 12.0312 13.75C12.9913 13.75 13.7812 12.96 13.7812 12C13.7812 11.04 12.9913 10.25 12.0312 10.25Z" fill="#171717"/>
<path d="M18.5312 15.25C18.1213 15.25 17.7812 14.91 17.7812 14.5V9.5C17.7812 9.09 18.1213 8.75 18.5312 8.75C18.9412 8.75 19.2812 9.09 19.2812 9.5V14.5C19.2812 14.91 18.9412 15.25 18.5312 15.25Z" fill="#171717"/>
<path d="M5.03125 22.75C3.37125 22.75 1.81125 21.87 0.971252 20.44C0.521252 19.72 0.28125 18.87 0.28125 18C0.28125 15.38 2.41125 13.25 5.03125 13.25C7.65125 13.25 9.78125 15.38 9.78125 18C9.78125 18.87 9.54125 19.72 9.09125 20.45C8.25125 21.87 6.69125 22.75 5.03125 22.75ZM5.03125 14.75C3.24125 14.75 1.78125 16.21 1.78125 18C1.78125 18.59 1.94125 19.17 2.25125 19.67C2.83125 20.65 3.90125 21.25 5.03125 21.25C6.16125 21.25 7.23125 20.65 7.81125 19.68C8.12125 19.17 8.28125 18.6 8.28125 18C8.28125 16.21 6.82125 14.75 5.03125 14.75Z" fill="#171717"/>
<path d="M4.46112 19.7401C4.27112 19.7401 4.08112 19.6701 3.93112 19.5201L2.94113 18.5301C2.65113 18.2401 2.65113 17.76 2.94113 17.47C3.23113 17.18 3.71113 17.18 4.00113 17.47L4.48114 17.9501L6.08112 16.47C6.38112 16.19 6.86111 16.2101 7.14111 16.5101C7.42111 16.8101 7.40114 17.2901 7.10114 17.5701L4.97113 19.54C4.82113 19.67 4.64112 19.7401 4.46112 19.7401Z" fill="#171717"/>
<path d="M17.0312 20.75H8.53125C8.12125 20.75 7.78125 20.41 7.78125 20C7.78125 19.59 8.12125 19.25 8.53125 19.25H17.0312C19.8913 19.25 21.2812 17.86 21.2812 15V9C21.2812 6.14 19.8913 4.75 17.0312 4.75H7.03125C4.17125 4.75 2.78125 6.14 2.78125 9V15.3C2.78125 15.71 2.44125 16.05 2.03125 16.05C1.62125 16.05 1.28125 15.71 1.28125 15.3V9C1.28125 5.35 3.38125 3.25 7.03125 3.25H17.0312C20.6812 3.25 22.7812 5.35 22.7812 9V15C22.7812 18.65 20.6812 20.75 17.0312 20.75Z" fill="#171717"/>
</svg>
