<svg width="25" height="24" viewBox="0 0 25 24" fill="none" xmlns="http://www.w3.org/2000/svg">
<path d="M12.0371 15.25C10.2471 15.25 8.78711 13.79 8.78711 12C8.78711 10.21 10.2471 8.75 12.0371 8.75C13.8271 8.75 15.2871 10.21 15.2871 12C15.2871 13.79 13.8271 15.25 12.0371 15.25ZM12.0371 10.25C11.0771 10.25 10.2871 11.04 10.2871 12C10.2871 12.96 11.0771 13.75 12.0371 13.75C12.9971 13.75 13.7871 12.96 13.7871 12C13.7871 11.04 12.9971 10.25 12.0371 10.25Z" fill="#171717"/>
<path d="M18.5371 15.25C18.1271 15.25 17.7871 14.91 17.7871 14.5V9.5C17.7871 9.09 18.1271 8.75 18.5371 8.75C18.9471 8.75 19.2871 9.09 19.2871 9.5V14.5C19.2871 14.91 18.9471 15.25 18.5371 15.25Z" fill="#171717"/>
<path d="M5.03711 22.75C3.37711 22.75 1.81711 21.87 0.977112 20.44C0.527112 19.72 0.287109 18.87 0.287109 18C0.287109 15.38 2.41711 13.25 5.03711 13.25C7.65711 13.25 9.78711 15.38 9.78711 18C9.78711 18.87 9.54711 19.72 9.09711 20.45C8.25711 21.87 6.69711 22.75 5.03711 22.75ZM5.03711 14.75C3.24711 14.75 1.78711 16.21 1.78711 18C1.78711 18.59 1.94711 19.17 2.25711 19.67C2.83711 20.65 3.90711 21.25 5.03711 21.25C6.16711 21.25 7.23711 20.65 7.81711 19.68C8.12711 19.17 8.28711 18.6 8.28711 18C8.28711 16.21 6.82711 14.75 5.03711 14.75Z" fill="#171717"/>
<path d="M6.53687 18.73H3.54688C3.13688 18.73 2.79688 18.39 2.79688 17.98C2.79688 17.57 3.13688 17.23 3.54688 17.23H6.53687C6.94687 17.23 7.28687 17.57 7.28687 17.98C7.28687 18.39 6.94687 18.73 6.53687 18.73Z" fill="#171717"/>
<path d="M5.03711 20.26C4.62711 20.26 4.28711 19.92 4.28711 19.51V16.52C4.28711 16.11 4.62711 15.77 5.03711 15.77C5.44711 15.77 5.78711 16.11 5.78711 16.52V19.51C5.78711 19.93 5.44711 20.26 5.03711 20.26Z" fill="#171717"/>
<path d="M17.0371 20.75H8.53711C8.12711 20.75 7.78711 20.41 7.78711 20C7.78711 19.59 8.12711 19.25 8.53711 19.25H17.0371C19.8971 19.25 21.2871 17.86 21.2871 15V9C21.2871 6.14 19.8971 4.75 17.0371 4.75H7.03711C4.17711 4.75 2.78711 6.14 2.78711 9V15.3C2.78711 15.71 2.44711 16.05 2.03711 16.05C1.62711 16.05 1.28711 15.71 1.28711 15.3V9C1.28711 5.35 3.38711 3.25 7.03711 3.25H17.0371C20.6871 3.25 22.7871 5.35 22.7871 9V15C22.7871 18.65 20.6871 20.75 17.0371 20.75Z" fill="#171717"/>
</svg>
