<svg width="25" height="24" viewBox="0 0 25 24" fill="none" xmlns="http://www.w3.org/2000/svg">
<path opacity="0.4" d="M18.8218 6.24998H20.1818C19.9918 5.97998 19.7918 5.72998 19.5818 5.47998L18.8218 6.24998Z" fill="#171717"/>
<path opacity="0.4" d="M18.5317 4.41994C18.2817 4.20994 18.0317 4.00995 17.7617 3.81995V5.17995L18.5317 4.41994Z" fill="#171717"/>
<path opacity="0.4" d="M17.0117 7.75C16.9117 7.75 16.8217 7.73 16.7217 7.69C16.5417 7.61 16.3917 7.47 16.3117 7.28C16.2717 7.19 16.2517 7.09 16.2517 6.99V2.99C16.2517 2.98 16.2617 2.97 16.2617 2.95C14.9717 2.35 13.5317 2 12.0117 2C6.49172 2 2.01172 6.48 2.01172 12C2.01172 17.52 6.49172 22 12.0117 22C17.5317 22 22.0117 17.52 22.0117 12C22.0117 10.48 21.6617 9.04 21.0517 7.74C21.0417 7.74 21.0317 7.75 21.0117 7.75H17.0117Z" fill="#171717"/>
<path d="M19.5917 5.47994L22.5417 2.52994C22.8317 2.23994 22.8317 1.75994 22.5417 1.46994C22.2517 1.17994 21.7718 1.17994 21.4818 1.46994L18.5317 4.41994C18.9117 4.74994 19.2617 5.10994 19.5917 5.47994Z" fill="#171717"/>
<path d="M17.7615 3C17.7615 2.59 17.4215 2.25 17.0115 2.25C16.6115 2.25 16.2915 2.57 16.2715 2.96C16.7915 3.21 17.2915 3.49 17.7615 3.82V3Z" fill="#171717"/>
<path d="M21.7616 7C21.7616 6.59 21.4216 6.25 21.0116 6.25H20.1816C20.5116 6.72 20.8016 7.22 21.0416 7.74C21.4416 7.72 21.7616 7.4 21.7616 7Z" fill="#171717"/>
<path d="M13.7617 11.82L12.7617 11.47V9.25H12.8417C13.3517 9.25 13.7617 9.7 13.7617 10.25C13.7617 10.66 14.1017 11 14.5117 11C14.9217 11 15.2617 10.66 15.2617 10.25C15.2617 8.87 14.1817 7.75 12.8417 7.75H12.7617V7.5C12.7617 7.09 12.4217 6.75 12.0117 6.75C11.6017 6.75 11.2617 7.09 11.2617 7.5V7.75H10.9617C9.75173 7.75 8.76172 8.77 8.76172 10.03C8.76172 11.49 9.61172 11.96 10.2617 12.19L11.2617 12.54V14.76H11.1817C10.6717 14.76 10.2617 14.31 10.2617 13.76C10.2617 13.35 9.92172 13.01 9.51172 13.01C9.10172 13.01 8.76172 13.35 8.76172 13.76C8.76172 15.14 9.84173 16.26 11.1817 16.26H11.2617V16.51C11.2617 16.92 11.6017 17.26 12.0117 17.26C12.4217 17.26 12.7617 16.92 12.7617 16.51V16.26H13.0617C14.2717 16.26 15.2617 15.24 15.2617 13.98C15.2617 12.51 14.4117 12.04 13.7617 11.82ZM10.7517 10.76C10.4117 10.64 10.2617 10.57 10.2617 10.02C10.2617 9.59 10.5817 9.24 10.9617 9.24H11.2617V10.93L10.7517 10.76ZM13.0617 14.75H12.7617V13.06L13.2717 13.24C13.6117 13.36 13.7617 13.43 13.7617 13.98C13.7617 14.4 13.4417 14.75 13.0617 14.75Z" fill="#171717"/>
</svg>
