<svg width="25" height="24" viewBox="0 0 25 24" fill="none" xmlns="http://www.w3.org/2000/svg">
<path opacity="0.4" d="M17.0146 20.5H7.01465C4.01465 20.5 2.01465 19 2.01465 15.5V8.5C2.01465 5 4.01465 3.5 7.01465 3.5H17.0146C20.0146 3.5 22.0146 5 22.0146 8.5V15.5C22.0146 19 20.0146 20.5 17.0146 20.5Z" fill="#171717"/>
<path d="M12.0146 15C13.6715 15 15.0146 13.6569 15.0146 12C15.0146 10.3431 13.6715 9 12.0146 9C10.3578 9 9.01465 10.3431 9.01465 12C9.01465 13.6569 10.3578 15 12.0146 15Z" fill="#171717"/>
<path d="M19.0146 7.75H16.0146C15.6046 7.75 15.2646 7.41 15.2646 7C15.2646 6.59 15.6046 6.25 16.0146 6.25H19.0146C19.4246 6.25 19.7646 6.59 19.7646 7C19.7646 7.41 19.4246 7.75 19.0146 7.75Z" fill="#171717"/>
<path d="M8.01465 17.75H5.01465C4.60465 17.75 4.26465 17.41 4.26465 17C4.26465 16.59 4.60465 16.25 5.01465 16.25H8.01465C8.42465 16.25 8.76465 16.59 8.76465 17C8.76465 17.41 8.42465 17.75 8.01465 17.75Z" fill="#171717"/>
</svg>
