<svg width="25" height="24" viewBox="0 0 25 24" fill="none" xmlns="http://www.w3.org/2000/svg">
<path d="M1.72656 7.91998C1.72656 4.83998 3.48656 3.52002 6.12656 3.52002H14.9166C17.1566 3.52002 18.7666 4.47001 19.1966 6.64001C19.2766 7.03001 19.3166 7.44998 19.3166 7.91998V13.07C19.3166 16.15 17.5566 17.47 14.9166 17.47H6.12656C5.67656 17.47 5.24656 17.43 4.84656 17.34C4.59656 17.3 4.35654 17.23 4.13654 17.15C2.63654 16.59 1.72656 15.29 1.72656 13.07V12" stroke="#171717" stroke-width="1.5" stroke-miterlimit="10" stroke-linecap="round" stroke-linejoin="round"/>
<path d="M22.3264 15.01V16.07C22.3264 19.15 20.5665 20.47 17.9265 20.47H9.13644C8.39644 20.47 7.72645 20.37 7.14645 20.15C5.95645 19.71 5.14645 18.8 4.85645 17.34C5.25645 17.43 5.68644 17.47 6.13644 17.47H14.9265C17.5665 17.47 19.3264 16.15 19.3264 13.07V7.91998C19.3264 7.44998 19.2865 7.03001 19.2065 6.64001C21.1165 7.03001 22.3264 8.36998 22.3264 10.92" stroke="#171717" stroke-width="1.5" stroke-miterlimit="10" stroke-linecap="round" stroke-linejoin="round"/>
<path d="M13.1667 10.5C13.1667 9.04 11.9867 7.85999 10.5267 7.85999C9.06673 7.85999 7.88672 9.04 7.88672 10.5C7.88672 11.96 9.06673 13.14 10.5267 13.14" stroke="#171717" stroke-width="1.5" stroke-miterlimit="10" stroke-linecap="round" stroke-linejoin="round"/>
<path d="M4.80664 8.30005V12.7001" stroke="#171717" stroke-width="1.5" stroke-miterlimit="10" stroke-linecap="round" stroke-linejoin="round"/>
<path d="M16.2466 8.30005V12.7001" stroke="#171717" stroke-width="1.5" stroke-miterlimit="10" stroke-linecap="round" stroke-linejoin="round"/>
</svg>
