<svg width="25" height="24" viewBox="0 0 25 24" fill="none" xmlns="http://www.w3.org/2000/svg">
<path d="M13.0627 16.25H11.1827C9.85271 16.25 8.7627 15.13 8.7627 13.75C8.7627 13.34 9.1027 13 9.5127 13C9.9227 13 10.2627 13.34 10.2627 13.75C10.2627 14.3 10.6727 14.75 11.1827 14.75H13.0627C13.4527 14.75 13.7627 14.4 13.7627 13.97C13.7627 13.43 13.6127 13.35 13.2727 13.23L10.2627 12.18C9.6227 11.95 8.7627 11.49 8.7627 10.02C8.7627 8.76999 9.75271 7.73999 10.9627 7.73999H12.8427C14.1727 7.73999 15.2627 8.85999 15.2627 10.24C15.2627 10.65 14.9227 10.99 14.5127 10.99C14.1027 10.99 13.7627 10.65 13.7627 10.24C13.7627 9.68999 13.3527 9.23999 12.8427 9.23999H10.9627C10.5727 9.23999 10.2627 9.58999 10.2627 10.02C10.2627 10.56 10.4127 10.64 10.7527 10.76L13.7627 11.81C14.4027 12.04 15.2627 12.5 15.2627 13.97C15.2627 15.23 14.2727 16.25 13.0627 16.25Z" fill="#171717"/>
<path d="M12.0127 17.25C11.6027 17.25 11.2627 16.91 11.2627 16.5V7.5C11.2627 7.09 11.6027 6.75 12.0127 6.75C12.4227 6.75 12.7627 7.09 12.7627 7.5V16.5C12.7627 16.91 12.4227 17.25 12.0127 17.25Z" fill="#171717"/>
<path d="M12.0127 22.75C6.0827 22.75 1.2627 17.93 1.2627 12C1.2627 6.07 6.0827 1.25 12.0127 1.25C12.4227 1.25 12.7627 1.59 12.7627 2C12.7627 2.41 12.4227 2.75 12.0127 2.75C6.9127 2.75 2.7627 6.9 2.7627 12C2.7627 17.1 6.9127 21.25 12.0127 21.25C17.1127 21.25 21.2627 17.1 21.2627 12C21.2627 11.59 21.6027 11.25 22.0127 11.25C22.4227 11.25 22.7627 11.59 22.7627 12C22.7627 17.93 17.9427 22.75 12.0127 22.75Z" fill="#171717"/>
<path d="M22.0127 6.75C21.6027 6.75 21.2627 6.41 21.2627 6V2.75H18.0127C17.6027 2.75 17.2627 2.41 17.2627 2C17.2627 1.59 17.6027 1.25 18.0127 1.25H22.0127C22.4227 1.25 22.7627 1.59 22.7627 2V6C22.7627 6.41 22.4227 6.75 22.0127 6.75Z" fill="#171717"/>
<path d="M17.0126 7.74994C16.8226 7.74994 16.6326 7.67994 16.4826 7.52994C16.1926 7.23994 16.1926 6.75994 16.4826 6.46994L21.4826 1.46994C21.7726 1.17994 22.2526 1.17994 22.5426 1.46994C22.8326 1.75994 22.8326 2.23994 22.5426 2.52994L17.5426 7.52994C17.3926 7.67994 17.2026 7.74994 17.0126 7.74994Z" fill="#171717"/>
</svg>
