<svg width="24" height="24" viewBox="0 0 24 24" fill="none" xmlns="http://www.w3.org/2000/svg">
<path d="M17.0098 21.25H7.00977C3.35977 21.25 1.25977 19.15 1.25977 15.5V8.5C1.25977 4.85 3.35977 2.75 7.00977 2.75H17.0098C20.6598 2.75 22.7598 4.85 22.7598 8.5V15.5C22.7598 19.15 20.6598 21.25 17.0098 21.25ZM7.00977 4.25C4.14977 4.25 2.75977 5.64 2.75977 8.5V15.5C2.75977 18.36 4.14977 19.75 7.00977 19.75H17.0098C19.8698 19.75 21.2598 18.36 21.2598 15.5V8.5C21.2598 5.64 19.8698 4.25 17.0098 4.25H7.00977Z" fill="#171717"/>
<path d="M12.0098 15.75C9.93977 15.75 8.25977 14.07 8.25977 12C8.25977 9.93 9.93977 8.25 12.0098 8.25C14.0798 8.25 15.7598 9.93 15.7598 12C15.7598 14.07 14.0798 15.75 12.0098 15.75ZM12.0098 9.75C10.7698 9.75 9.75977 10.76 9.75977 12C9.75977 13.24 10.7698 14.25 12.0098 14.25C13.2498 14.25 14.2598 13.24 14.2598 12C14.2598 10.76 13.2498 9.75 12.0098 9.75Z" fill="#171717"/>
<path d="M5.50977 15.25C5.09977 15.25 4.75977 14.91 4.75977 14.5V9.5C4.75977 9.09 5.09977 8.75 5.50977 8.75C5.91977 8.75 6.25977 9.09 6.25977 9.5V14.5C6.25977 14.91 5.91977 15.25 5.50977 15.25Z" fill="#171717"/>
<path d="M18.5098 15.25C18.0998 15.25 17.7598 14.91 17.7598 14.5V9.5C17.7598 9.09 18.0998 8.75 18.5098 8.75C18.9198 8.75 19.2598 9.09 19.2598 9.5V14.5C19.2598 14.91 18.9198 15.25 18.5098 15.25Z" fill="#171717"/>
</svg>
