<svg width="25" height="24" viewBox="0 0 25 24" fill="none" xmlns="http://www.w3.org/2000/svg">
<path opacity="0.4" d="M17.0127 20.5H7.0127C4.0127 20.5 2.0127 19 2.0127 15.5V8.5C2.0127 5 4.0127 3.5 7.0127 3.5H17.0127C20.0127 3.5 22.0127 5 22.0127 8.5V15.5C22.0127 19 20.0127 20.5 17.0127 20.5Z" fill="#171717"/>
<path d="M12.0127 15C13.6695 15 15.0127 13.6569 15.0127 12C15.0127 10.3431 13.6695 9 12.0127 9C10.3558 9 9.0127 10.3431 9.0127 12C9.0127 13.6569 10.3558 15 12.0127 15Z" fill="#171717"/>
<path d="M4.5127 10.75C4.1027 10.75 3.7627 10.41 3.7627 10V8.5C3.7627 6.71 5.2227 5.25 7.0127 5.25H8.5127C8.9227 5.25 9.2627 5.59 9.2627 6C9.2627 6.41 8.9227 6.75 8.5127 6.75H7.0127C6.0527 6.75 5.2627 7.54 5.2627 8.5V10C5.2627 10.41 4.9227 10.75 4.5127 10.75Z" fill="#171717"/>
<path d="M19.5127 10.75C19.1027 10.75 18.7627 10.41 18.7627 10V8.5C18.7627 7.54 17.9727 6.75 17.0127 6.75H15.5127C15.1027 6.75 14.7627 6.41 14.7627 6C14.7627 5.59 15.1027 5.25 15.5127 5.25H17.0127C18.8027 5.25 20.2627 6.71 20.2627 8.5V10C20.2627 10.41 19.9227 10.75 19.5127 10.75Z" fill="#171717"/>
<path d="M8.5127 18.75H7.0127C5.2227 18.75 3.7627 17.29 3.7627 15.5V14C3.7627 13.59 4.1027 13.25 4.5127 13.25C4.9227 13.25 5.2627 13.59 5.2627 14V15.5C5.2627 16.46 6.0527 17.25 7.0127 17.25H8.5127C8.9227 17.25 9.2627 17.59 9.2627 18C9.2627 18.41 8.9227 18.75 8.5127 18.75Z" fill="#171717"/>
<path d="M17.0127 18.75H15.5127C15.1027 18.75 14.7627 18.41 14.7627 18C14.7627 17.59 15.1027 17.25 15.5127 17.25H17.0127C17.9727 17.25 18.7627 16.46 18.7627 15.5V14C18.7627 13.59 19.1027 13.25 19.5127 13.25C19.9227 13.25 20.2627 13.59 20.2627 14V15.5C20.2627 17.29 18.8027 18.75 17.0127 18.75Z" fill="#171717"/>
</svg>
