<svg width="25" height="24" viewBox="0 0 25 24" fill="none" xmlns="http://www.w3.org/2000/svg">
<path opacity="0.4" d="M22.0366 9V15C22.0366 18.5 20.0366 20 17.0366 20H8.48663C8.83663 19.41 9.03662 18.73 9.03662 18C9.03662 15.79 7.24662 14 5.03662 14C3.83662 14 2.76662 14.53 2.03662 15.36V9C2.03662 5.5 4.03662 4 7.03662 4H17.0366C20.0366 4 22.0366 5.5 22.0366 9Z" fill="#171717"/>
<path d="M12.0366 14.5C13.4173 14.5 14.5366 13.3807 14.5366 12C14.5366 10.6193 13.4173 9.5 12.0366 9.5C10.6559 9.5 9.53662 10.6193 9.53662 12C9.53662 13.3807 10.6559 14.5 12.0366 14.5Z" fill="#171717"/>
<path d="M18.5366 14.75C18.1266 14.75 17.7866 14.41 17.7866 14V10C17.7866 9.59 18.1266 9.25 18.5366 9.25C18.9466 9.25 19.2866 9.59 19.2866 10V14C19.2866 14.41 18.9466 14.75 18.5366 14.75Z" fill="#171717"/>
<path d="M5.03662 14C2.82662 14 1.03662 15.79 1.03662 18C1.03662 18.75 1.24661 19.46 1.61661 20.06C2.30661 21.22 3.57662 22 5.03662 22C6.49662 22 7.76663 21.22 8.45663 20.06C8.82663 19.46 9.03662 18.75 9.03662 18C9.03662 15.79 7.24662 14 5.03662 14ZM6.52661 18.73H5.78662V19.51C5.78662 19.92 5.44662 20.26 5.03662 20.26C4.62662 20.26 4.28662 19.92 4.28662 19.51V18.73H3.54663C3.13663 18.73 2.79663 18.39 2.79663 17.98C2.79663 17.57 3.13663 17.23 3.54663 17.23H4.28662V16.52C4.28662 16.11 4.62662 15.77 5.03662 15.77C5.44662 15.77 5.78662 16.11 5.78662 16.52V17.23H6.52661C6.93661 17.23 7.27661 17.57 7.27661 17.98C7.27661 18.39 6.94661 18.73 6.52661 18.73Z" fill="#171717"/>
</svg>
