<svg width="25" height="24" viewBox="0 0 25 24" fill="none" xmlns="http://www.w3.org/2000/svg">
<path opacity="0.4" d="M22.0312 9V15C22.0312 18.5 20.0312 20 17.0312 20H8.48126C8.83126 19.41 9.03125 18.73 9.03125 18C9.03125 15.79 7.24125 14 5.03125 14C3.83125 14 2.76125 14.53 2.03125 15.36V9C2.03125 5.5 4.03125 4 7.03125 4H17.0312C20.0312 4 22.0312 5.5 22.0312 9Z" fill="#171717"/>
<path d="M12.0312 14.5C13.412 14.5 14.5312 13.3807 14.5312 12C14.5312 10.6193 13.412 9.5 12.0312 9.5C10.6505 9.5 9.53125 10.6193 9.53125 12C9.53125 13.3807 10.6505 14.5 12.0312 14.5Z" fill="#171717"/>
<path d="M18.5312 14.75C18.1213 14.75 17.7812 14.41 17.7812 14V10C17.7812 9.59 18.1213 9.25 18.5312 9.25C18.9412 9.25 19.2812 9.59 19.2812 10V14C19.2812 14.41 18.9412 14.75 18.5312 14.75Z" fill="#171717"/>
<path d="M5.03125 14C2.82125 14 1.03125 15.79 1.03125 18C1.03125 18.75 1.24124 19.46 1.61124 20.06C2.30124 21.22 3.57125 22 5.03125 22C6.49125 22 7.76126 21.22 8.45126 20.06C8.82126 19.46 9.03125 18.75 9.03125 18C9.03125 15.79 7.24125 14 5.03125 14ZM7.00125 17.67L4.87125 19.64C4.73125 19.77 4.54124 19.84 4.36124 19.84C4.17124 19.84 3.98124 19.77 3.83124 19.62L2.84125 18.63C2.55125 18.34 2.55125 17.86 2.84125 17.57C3.13125 17.28 3.61125 17.28 3.90125 17.57L4.38126 18.05L5.98126 16.57C6.28126 16.29 6.76126 16.31 7.04126 16.61C7.32126 16.91 7.30125 17.39 7.00125 17.67Z" fill="#171717"/>
</svg>
