<svg width="24" height="24" viewBox="0 0 24 24" fill="none" xmlns="http://www.w3.org/2000/svg">
<path opacity="0.4" d="M17.0093 20.5H7.00928C4.00928 20.5 2.00928 19 2.00928 15.5V8.5C2.00928 5 4.00928 3.5 7.00928 3.5H17.0093C20.0093 3.5 22.0093 5 22.0093 8.5V15.5C22.0093 19 20.0093 20.5 17.0093 20.5Z" fill="#171717"/>
<path d="M12.0093 15C13.6661 15 15.0093 13.6569 15.0093 12C15.0093 10.3431 13.6661 9 12.0093 9C10.3524 9 9.00928 10.3431 9.00928 12C9.00928 13.6569 10.3524 15 12.0093 15Z" fill="#171717"/>
<path d="M5.50928 15.25C5.09928 15.25 4.75928 14.91 4.75928 14.5V9.5C4.75928 9.09 5.09928 8.75 5.50928 8.75C5.91928 8.75 6.25928 9.09 6.25928 9.5V14.5C6.25928 14.91 5.91928 15.25 5.50928 15.25Z" fill="#171717"/>
<path d="M18.5093 15.25C18.0993 15.25 17.7593 14.91 17.7593 14.5V9.5C17.7593 9.09 18.0993 8.75 18.5093 8.75C18.9193 8.75 19.2593 9.09 19.2593 9.5V14.5C19.2593 14.91 18.9193 15.25 18.5093 15.25Z" fill="#171717"/>
</svg>
