<svg width="25" height="24" viewBox="0 0 25 24" fill="none" xmlns="http://www.w3.org/2000/svg">
<path d="M13.0617 16.25H11.1817C9.85173 16.25 8.76172 15.13 8.76172 13.75C8.76172 13.34 9.10172 13 9.51172 13C9.92172 13 10.2617 13.34 10.2617 13.75C10.2617 14.3 10.6717 14.75 11.1817 14.75H13.0617C13.4517 14.75 13.7617 14.4 13.7617 13.97C13.7617 13.43 13.6117 13.35 13.2717 13.23L10.2617 12.18C9.62172 11.96 8.76172 11.49 8.76172 10.02C8.76172 8.76999 9.75173 7.73999 10.9617 7.73999H12.8417C14.1717 7.73999 15.2617 8.85999 15.2617 10.24C15.2617 10.65 14.9217 10.99 14.5117 10.99C14.1017 10.99 13.7617 10.65 13.7617 10.24C13.7617 9.68999 13.3517 9.23999 12.8417 9.23999H10.9617C10.5717 9.23999 10.2617 9.58999 10.2617 10.02C10.2617 10.56 10.4117 10.64 10.7517 10.76L13.7617 11.81C14.4017 12.03 15.2617 12.5 15.2617 13.97C15.2617 15.23 14.2717 16.25 13.0617 16.25Z" fill="#171717"/>
<path d="M12.0117 17.25C11.6017 17.25 11.2617 16.91 11.2617 16.5V7.5C11.2617 7.09 11.6017 6.75 12.0117 6.75C12.4217 6.75 12.7617 7.09 12.7617 7.5V16.5C12.7617 16.91 12.4217 17.25 12.0117 17.25Z" fill="#171717"/>
<path d="M12.0117 22.75C6.08172 22.75 1.26172 17.93 1.26172 12C1.26172 6.07 6.08172 1.25 12.0117 1.25C12.4217 1.25 12.7617 1.59 12.7617 2C12.7617 2.41 12.4217 2.75 12.0117 2.75C6.91172 2.75 2.76172 6.9 2.76172 12C2.76172 17.1 6.91172 21.25 12.0117 21.25C17.1117 21.25 21.2617 17.1 21.2617 12C21.2617 11.59 21.6017 11.25 22.0117 11.25C22.4217 11.25 22.7617 11.59 22.7617 12C22.7617 17.93 17.9417 22.75 12.0117 22.75Z" fill="#171717"/>
<path d="M21.0117 7.75H17.0117C16.6017 7.75 16.2617 7.41 16.2617 7V3C16.2617 2.59 16.6017 2.25 17.0117 2.25C17.4217 2.25 17.7617 2.59 17.7617 3V6.25H21.0117C21.4217 6.25 21.7617 6.59 21.7617 7C21.7617 7.41 21.4217 7.75 21.0117 7.75Z" fill="#171717"/>
<path d="M17.0117 7.74994C16.8217 7.74994 16.6317 7.67994 16.4817 7.52994C16.1917 7.23994 16.1917 6.75994 16.4817 6.46994L21.4817 1.46994C21.7717 1.17994 22.2517 1.17994 22.5417 1.46994C22.8317 1.75994 22.8317 2.23994 22.5417 2.52994L17.5417 7.52994C17.3917 7.67994 17.2017 7.74994 17.0117 7.74994Z" fill="#171717"/>
</svg>
