<svg width="25" height="24" viewBox="0 0 25 24" fill="none" xmlns="http://www.w3.org/2000/svg">
<path d="M14.9166 18.22H6.12656C5.60656 18.22 5.11654 18.17 4.67654 18.07C4.44654 18.04 4.16656 17.96 3.87656 17.85C2.54656 17.35 0.976562 16.12 0.976562 13.06V7.90997C0.976562 4.63997 2.85656 2.76001 6.12656 2.76001H14.9166C17.6766 2.76001 19.4566 4.07998 19.9366 6.47998C20.0266 6.91998 20.0666 7.38997 20.0666 7.90997V13.06C20.0666 16.35 18.1966 18.22 14.9166 18.22ZM6.13654 4.28003C3.67654 4.28003 2.48654 5.46999 2.48654 7.92999V13.08C2.48654 14.87 3.11656 15.97 4.40656 16.46C4.60656 16.53 4.79656 16.58 4.97656 16.61C5.35656 16.69 5.72654 16.73 6.13654 16.73H14.9265C17.3865 16.73 18.5765 15.54 18.5765 13.08V7.92999C18.5765 7.50999 18.5466 7.13999 18.4766 6.79999C18.1366 5.09999 16.9765 4.28003 14.9265 4.28003H6.13654Z" fill="#171717"/>
<path d="M17.9165 21.22H9.12646C8.27646 21.22 7.51645 21.1 6.86645 20.85C5.39645 20.3 4.43644 19.14 4.10644 17.48C4.05644 17.23 4.13646 16.97 4.31646 16.8C4.49646 16.62 4.75646 16.55 5.00646 16.61C5.33646 16.68 5.70646 16.72 6.12646 16.72H14.9165C17.3765 16.72 18.5665 15.53 18.5665 13.07V7.91997C18.5665 7.49997 18.5365 7.12996 18.4665 6.78996C18.4165 6.53996 18.4965 6.28997 18.6665 6.10997C18.8465 5.92997 19.0965 5.84996 19.3465 5.90996C21.7465 6.39996 23.0665 8.17997 23.0665 10.92V16.07C23.0665 19.35 21.1965 21.22 17.9165 21.22ZM5.94647 18.22C6.26647 18.8 6.74646 19.21 7.40646 19.45C7.88646 19.63 8.46644 19.72 9.13644 19.72H17.9264C20.3864 19.72 21.5764 18.53 21.5764 16.07V10.92C21.5764 9.33997 21.0864 8.28997 20.0764 7.73997C20.0764 7.79997 20.0764 7.85997 20.0764 7.91997V13.07C20.0764 16.34 18.1964 18.22 14.9264 18.22H6.13644C6.06644 18.22 6.00647 18.22 5.94647 18.22Z" fill="#171717"/>
<path d="M10.5262 13.89C8.65625 13.89 7.13623 12.37 7.13623 10.5C7.13623 8.63 8.65625 7.10999 10.5262 7.10999C12.3962 7.10999 13.9163 8.63 13.9163 10.5C13.9163 12.37 12.3962 13.89 10.5262 13.89ZM10.5262 8.60999C9.48625 8.60999 8.63623 9.46 8.63623 10.5C8.63623 11.54 9.48625 12.39 10.5262 12.39C11.5662 12.39 12.4163 11.54 12.4163 10.5C12.4163 9.46 11.5662 8.60999 10.5262 8.60999Z" fill="#171717"/>
<path d="M4.80664 13.4501C4.39664 13.4501 4.05664 13.1101 4.05664 12.7001V8.30005C4.05664 7.89005 4.39664 7.55005 4.80664 7.55005C5.21664 7.55005 5.55664 7.89005 5.55664 8.30005V12.7001C5.55664 13.1101 5.22664 13.4501 4.80664 13.4501Z" fill="#171717"/>
<path d="M16.2363 13.4501C15.8263 13.4501 15.4863 13.1101 15.4863 12.7001V8.30005C15.4863 7.89005 15.8263 7.55005 16.2363 7.55005C16.6463 7.55005 16.9863 7.89005 16.9863 8.30005V12.7001C16.9863 13.1101 16.6563 13.4501 16.2363 13.4501Z" fill="#171717"/>
</svg>
