<svg width="25" height="24" viewBox="0 0 25 24" fill="none" xmlns="http://www.w3.org/2000/svg">
<path d="M17.0107 21.25H7.01074C3.36074 21.25 1.26074 19.15 1.26074 15.5V8.5C1.26074 4.85 3.36074 2.75 7.01074 2.75H17.0107C20.6607 2.75 22.7607 4.85 22.7607 8.5V15.5C22.7607 19.15 20.6607 21.25 17.0107 21.25ZM7.01074 4.25C4.15074 4.25 2.76074 5.64 2.76074 8.5V15.5C2.76074 18.36 4.15074 19.75 7.01074 19.75H17.0107C19.8707 19.75 21.2607 18.36 21.2607 15.5V8.5C21.2607 5.64 19.8707 4.25 17.0107 4.25H7.01074Z" fill="#171717"/>
<path d="M12.0107 15.75C9.94074 15.75 8.26074 14.07 8.26074 12C8.26074 9.93 9.94074 8.25 12.0107 8.25C14.0807 8.25 15.7607 9.93 15.7607 12C15.7607 14.07 14.0807 15.75 12.0107 15.75ZM12.0107 9.75C10.7707 9.75 9.76074 10.76 9.76074 12C9.76074 13.24 10.7707 14.25 12.0107 14.25C13.2507 14.25 14.2607 13.24 14.2607 12C14.2607 10.76 13.2507 9.75 12.0107 9.75Z" fill="#171717"/>
<path d="M3.01074 9.75H2.01074C1.60074 9.75 1.26074 9.41 1.26074 9C1.26074 8.59 1.60074 8.25 2.01074 8.25H3.01074C5.59074 8.25 6.26074 7.58 6.26074 5V4C6.26074 3.59 6.60074 3.25 7.01074 3.25C7.42074 3.25 7.76074 3.59 7.76074 4V5C7.76074 8.42 6.43074 9.75 3.01074 9.75Z" fill="#171717"/>
<path d="M22.0107 9.75H21.0107C17.5907 9.75 16.2607 8.42 16.2607 5V4C16.2607 3.59 16.6007 3.25 17.0107 3.25C17.4207 3.25 17.7607 3.59 17.7607 4V5C17.7607 7.58 18.4307 8.25 21.0107 8.25H22.0107C22.4207 8.25 22.7607 8.59 22.7607 9C22.7607 9.41 22.4207 9.75 22.0107 9.75Z" fill="#171717"/>
<path d="M7.01074 20.75C6.60074 20.75 6.26074 20.41 6.26074 20V19C6.26074 16.42 5.59074 15.75 3.01074 15.75H2.01074C1.60074 15.75 1.26074 15.41 1.26074 15C1.26074 14.59 1.60074 14.25 2.01074 14.25H3.01074C6.43074 14.25 7.76074 15.58 7.76074 19V20C7.76074 20.41 7.42074 20.75 7.01074 20.75Z" fill="#171717"/>
<path d="M17.0107 20.75C16.6007 20.75 16.2607 20.41 16.2607 20V19C16.2607 15.58 17.5907 14.25 21.0107 14.25H22.0107C22.4207 14.25 22.7607 14.59 22.7607 15C22.7607 15.41 22.4207 15.75 22.0107 15.75H21.0107C18.4307 15.75 17.7607 16.42 17.7607 19V20C17.7607 20.41 17.4207 20.75 17.0107 20.75Z" fill="#171717"/>
</svg>
