<svg width="25" height="24" viewBox="0 0 25 24" fill="none" xmlns="http://www.w3.org/2000/svg">
<path d="M17.0503 20.75H8.55029C8.14029 20.75 7.80029 20.41 7.80029 20C7.80029 19.59 8.14029 19.25 8.55029 19.25H17.0503C19.9103 19.25 21.3003 17.86 21.3003 15V9C21.3003 6.14 19.9103 4.75 17.0503 4.75H7.05029C4.19029 4.75 2.80029 6.14 2.80029 9V15.2C2.80029 15.61 2.46029 15.95 2.05029 15.95C1.64029 15.95 1.30029 15.61 1.30029 15.2V9C1.30029 5.35 3.40029 3.25 7.05029 3.25H17.0503C20.7003 3.25 22.8003 5.35 22.8003 9V15C22.8003 18.65 20.7003 20.75 17.0503 20.75Z" fill="#171717"/>
<path d="M12.0503 15.25C10.2603 15.25 8.80029 13.79 8.80029 12C8.80029 10.21 10.2603 8.75 12.0503 8.75C13.8403 8.75 15.3003 10.21 15.3003 12C15.3003 13.79 13.8403 15.25 12.0503 15.25ZM12.0503 10.25C11.0903 10.25 10.3003 11.04 10.3003 12C10.3003 12.96 11.0903 13.75 12.0503 13.75C13.0103 13.75 13.8003 12.96 13.8003 12C13.8003 11.04 13.0103 10.25 12.0503 10.25Z" fill="#171717"/>
<path d="M18.5503 15.25C18.1403 15.25 17.8003 14.91 17.8003 14.5V9.5C17.8003 9.09 18.1403 8.75 18.5503 8.75C18.9603 8.75 19.3003 9.09 19.3003 9.5V14.5C19.3003 14.91 18.9603 15.25 18.5503 15.25Z" fill="#171717"/>
<path d="M5.05029 22.75C3.39029 22.75 1.8303 21.87 0.990295 20.44C0.540295 19.72 0.300293 18.87 0.300293 18C0.300293 15.38 2.43029 13.25 5.05029 13.25C7.67029 13.25 9.80029 15.38 9.80029 18C9.80029 18.87 9.56029 19.72 9.11029 20.45C8.27029 21.87 6.71029 22.75 5.05029 22.75ZM5.05029 14.75C3.26029 14.75 1.80029 16.21 1.80029 18C1.80029 18.59 1.96026 19.17 2.27026 19.67C2.85026 20.65 3.92029 21.25 5.05029 21.25C6.18029 21.25 7.25032 20.65 7.83032 19.68C8.14032 19.17 8.30029 18.6 8.30029 18C8.30029 16.21 6.84029 14.75 5.05029 14.75Z" fill="#171717"/>
<path d="M2.30026 21.5C2.11026 21.5 1.92023 21.43 1.77023 21.28C1.48023 20.99 1.48023 20.5099 1.77023 20.2199L7.27023 14.7199C7.56023 14.4299 8.04029 14.4299 8.33029 14.7199C8.62029 15.0099 8.62029 15.49 8.33029 15.78L2.83029 21.28C2.68029 21.43 2.49026 21.5 2.30026 21.5Z" fill="#171717"/>
</svg>
