<svg width="25" height="24" viewBox="0 0 25 24" fill="none" xmlns="http://www.w3.org/2000/svg">
<path opacity="0.4" d="M22.0435 9V15C22.0435 18.5 20.0435 20 17.0435 20H8.49347C8.84347 19.41 9.04346 18.73 9.04346 18C9.04346 15.79 7.25346 14 5.04346 14C3.84346 14 2.77346 14.53 2.04346 15.36V9C2.04346 5.5 4.04346 4 7.04346 4H17.0435C20.0435 4 22.0435 5.5 22.0435 9Z" fill="#171717"/>
<path d="M12.0435 14.5C13.4242 14.5 14.5435 13.3807 14.5435 12C14.5435 10.6193 13.4242 9.5 12.0435 9.5C10.6627 9.5 9.54346 10.6193 9.54346 12C9.54346 13.3807 10.6627 14.5 12.0435 14.5Z" fill="#171717"/>
<path d="M18.5435 14.75C18.1335 14.75 17.7935 14.41 17.7935 14V10C17.7935 9.59 18.1335 9.25 18.5435 9.25C18.9535 9.25 19.2935 9.59 19.2935 10V14C19.2935 14.41 18.9535 14.75 18.5435 14.75Z" fill="#171717"/>
<path d="M5.04346 14C3.84346 14 2.77346 14.53 2.04346 15.36C1.42346 16.07 1.04346 16.99 1.04346 18C1.04346 18.75 1.25347 19.46 1.62347 20.06C2.31347 21.22 3.58346 22 5.04346 22C6.05346 22 6.97346 21.63 7.67346 21C7.98346 20.74 8.25344 20.42 8.46344 20.06C8.83344 19.46 9.04346 18.75 9.04346 18C9.04346 15.79 7.25346 14 5.04346 14ZM6.64343 19.58C6.49343 19.73 6.30346 19.8 6.11346 19.8C5.92346 19.8 5.73344 19.73 5.58344 19.58L5.05347 19.05L4.50348 19.6C4.35348 19.75 4.16345 19.82 3.97345 19.82C3.78345 19.82 3.59348 19.75 3.44348 19.6C3.15348 19.31 3.15348 18.83 3.44348 18.54L3.99347 17.99L3.46344 17.46C3.17344 17.17 3.17344 16.69 3.46344 16.4C3.75344 16.11 4.23344 16.11 4.52344 16.4L5.05347 16.93L5.55347 16.43C5.84347 16.14 6.32346 16.14 6.61346 16.43C6.90346 16.72 6.90346 17.2 6.61346 17.49L6.11346 17.99L6.64343 18.52C6.93343 18.81 6.93343 19.28 6.64343 19.58Z" fill="#171717"/>
</svg>
