<svg width="25" height="24" viewBox="0 0 25 24" fill="none" xmlns="http://www.w3.org/2000/svg">
<path d="M17.0437 20.75H8.5437C8.1337 20.75 7.7937 20.41 7.7937 20C7.7937 19.59 8.1337 19.25 8.5437 19.25H17.0437C19.9037 19.25 21.2937 17.86 21.2937 15V9C21.2937 6.14 19.9037 4.75 17.0437 4.75H7.0437C4.1837 4.75 2.7937 6.14 2.7937 9V15.3C2.7937 15.71 2.4537 16.05 2.0437 16.05C1.6337 16.05 1.2937 15.71 1.2937 15.3V9C1.2937 5.35 3.3937 3.25 7.0437 3.25H17.0437C20.6937 3.25 22.7937 5.35 22.7937 9V15C22.7937 18.65 20.6937 20.75 17.0437 20.75Z" fill="#171717"/>
<path d="M12.0437 15.25C10.2537 15.25 8.7937 13.79 8.7937 12C8.7937 10.21 10.2537 8.75 12.0437 8.75C13.8337 8.75 15.2937 10.21 15.2937 12C15.2937 13.79 13.8337 15.25 12.0437 15.25ZM12.0437 10.25C11.0837 10.25 10.2937 11.04 10.2937 12C10.2937 12.96 11.0837 13.75 12.0437 13.75C13.0037 13.75 13.7937 12.96 13.7937 12C13.7937 11.04 13.0037 10.25 12.0437 10.25Z" fill="#171717"/>
<path d="M18.5437 15.25C18.1337 15.25 17.7937 14.91 17.7937 14.5V9.5C17.7937 9.09 18.1337 8.75 18.5437 8.75C18.9537 8.75 19.2937 9.09 19.2937 9.5V14.5C19.2937 14.91 18.9537 15.25 18.5437 15.25Z" fill="#171717"/>
<path d="M5.0437 22.75C3.3837 22.75 1.8237 21.87 0.983704 20.44C0.533704 19.72 0.293701 18.87 0.293701 18C0.293701 15.38 2.4237 13.25 5.0437 13.25C7.6637 13.25 9.7937 15.38 9.7937 18C9.7937 18.87 9.5537 19.72 9.1037 20.45C8.2637 21.87 6.7037 22.75 5.0437 22.75ZM5.0437 14.75C3.2537 14.75 1.7937 16.21 1.7937 18C1.7937 18.59 1.95367 19.17 2.26367 19.67C2.84367 20.65 3.9137 21.25 5.0437 21.25C6.1737 21.25 7.24373 20.65 7.82373 19.68C8.13373 19.17 8.2937 18.6 8.2937 18C8.2937 16.21 6.8337 14.75 5.0437 14.75Z" fill="#171717"/>
<path d="M6.11362 19.7899C5.92362 19.7899 5.73359 19.72 5.58359 19.57L3.4736 17.46C3.1836 17.17 3.1836 16.69 3.4736 16.4C3.7636 16.11 4.2436 16.11 4.5336 16.4L6.64359 18.51C6.93359 18.8 6.93359 19.28 6.64359 19.57C6.49359 19.72 6.30362 19.7899 6.11362 19.7899Z" fill="#171717"/>
<path d="M3.97379 19.8199C3.78379 19.8199 3.59382 19.7499 3.44382 19.5999C3.15382 19.3099 3.15382 18.8299 3.44382 18.5399L5.5538 16.4299C5.8438 16.1399 6.3238 16.1399 6.6138 16.4299C6.9038 16.7199 6.9038 17.1999 6.6138 17.4899L4.50382 19.5999C4.35382 19.7499 4.16379 19.8199 3.97379 19.8199Z" fill="#171717"/>
</svg>
