<svg width="25" height="24" viewBox="0 0 25 24" fill="none" xmlns="http://www.w3.org/2000/svg">
<path d="M17.0127 21.25H7.0127C3.3627 21.25 1.2627 19.15 1.2627 15.5V8.5C1.2627 4.85 3.3627 2.75 7.0127 2.75H17.0127C20.6627 2.75 22.7627 4.85 22.7627 8.5V15.5C22.7627 19.15 20.6627 21.25 17.0127 21.25ZM7.0127 4.25C4.1527 4.25 2.7627 5.64 2.7627 8.5V15.5C2.7627 18.36 4.1527 19.75 7.0127 19.75H17.0127C19.8727 19.75 21.2627 18.36 21.2627 15.5V8.5C21.2627 5.64 19.8727 4.25 17.0127 4.25H7.0127Z" fill="#171717"/>
<path d="M12.0127 15.75C9.9427 15.75 8.2627 14.07 8.2627 12C8.2627 9.93 9.9427 8.25 12.0127 8.25C14.0827 8.25 15.7627 9.93 15.7627 12C15.7627 14.07 14.0827 15.75 12.0127 15.75ZM12.0127 9.75C10.7727 9.75 9.7627 10.76 9.7627 12C9.7627 13.24 10.7727 14.25 12.0127 14.25C13.2527 14.25 14.2627 13.24 14.2627 12C14.2627 10.76 13.2527 9.75 12.0127 9.75Z" fill="#171717"/>
<path d="M4.5127 10.75C4.1027 10.75 3.7627 10.41 3.7627 10V8.5C3.7627 6.71 5.2227 5.25 7.0127 5.25H8.5127C8.9227 5.25 9.2627 5.59 9.2627 6C9.2627 6.41 8.9227 6.75 8.5127 6.75H7.0127C6.0527 6.75 5.2627 7.54 5.2627 8.5V10C5.2627 10.41 4.9227 10.75 4.5127 10.75Z" fill="#171717"/>
<path d="M19.5127 10.75C19.1027 10.75 18.7627 10.41 18.7627 10V8.5C18.7627 7.54 17.9727 6.75 17.0127 6.75H15.5127C15.1027 6.75 14.7627 6.41 14.7627 6C14.7627 5.59 15.1027 5.25 15.5127 5.25H17.0127C18.8027 5.25 20.2627 6.71 20.2627 8.5V10C20.2627 10.41 19.9227 10.75 19.5127 10.75Z" fill="#171717"/>
<path d="M8.5127 18.75H7.0127C5.2227 18.75 3.7627 17.29 3.7627 15.5V14C3.7627 13.59 4.1027 13.25 4.5127 13.25C4.9227 13.25 5.2627 13.59 5.2627 14V15.5C5.2627 16.46 6.0527 17.25 7.0127 17.25H8.5127C8.9227 17.25 9.2627 17.59 9.2627 18C9.2627 18.41 8.9227 18.75 8.5127 18.75Z" fill="#171717"/>
<path d="M17.0127 18.75H15.5127C15.1027 18.75 14.7627 18.41 14.7627 18C14.7627 17.59 15.1027 17.25 15.5127 17.25H17.0127C17.9727 17.25 18.7627 16.46 18.7627 15.5V14C18.7627 13.59 19.1027 13.25 19.5127 13.25C19.9227 13.25 20.2627 13.59 20.2627 14V15.5C20.2627 17.29 18.8027 18.75 17.0127 18.75Z" fill="#171717"/>
</svg>
