<svg width="25" height="24" viewBox="0 0 25 24" fill="none" xmlns="http://www.w3.org/2000/svg">
<path opacity="0.4" d="M17.0127 7.75C16.8227 7.75 16.6327 7.68 16.4827 7.53C16.1927 7.24 16.1927 6.76 16.4827 6.47L18.5327 4.42C16.7727 2.92 14.5027 2 12.0127 2C6.4927 2 2.0127 6.48 2.0127 12C2.0127 17.52 6.4927 22 12.0127 22C17.5327 22 22.0127 17.52 22.0127 12C22.0127 9.51 21.0927 7.24 19.5927 5.48L17.5427 7.53C17.3927 7.68 17.2027 7.75 17.0127 7.75Z" fill="#171717"/>
<path d="M13.7627 11.82L12.7627 11.47V9.25H12.8427C13.3527 9.25 13.7627 9.7 13.7627 10.25C13.7627 10.66 14.1027 11 14.5127 11C14.9227 11 15.2627 10.66 15.2627 10.25C15.2627 8.87 14.1827 7.75 12.8427 7.75H12.7627V7.5C12.7627 7.09 12.4227 6.75 12.0127 6.75C11.6027 6.75 11.2627 7.09 11.2627 7.5V7.75H10.9627C9.75271 7.75 8.7627 8.77 8.7627 10.03C8.7627 11.49 9.6127 11.96 10.2627 12.19L11.2627 12.54V14.76H11.1827C10.6727 14.76 10.2627 14.31 10.2627 13.76C10.2627 13.35 9.9227 13.01 9.5127 13.01C9.1027 13.01 8.7627 13.35 8.7627 13.76C8.7627 15.14 9.84271 16.26 11.1827 16.26H11.2627V16.51C11.2627 16.92 11.6027 17.26 12.0127 17.26C12.4227 17.26 12.7627 16.92 12.7627 16.51V16.26H13.0627C14.2727 16.26 15.2627 15.24 15.2627 13.98C15.2627 12.51 14.4127 12.04 13.7627 11.82ZM10.7527 10.76C10.4127 10.64 10.2627 10.57 10.2627 10.02C10.2627 9.59 10.5827 9.24 10.9627 9.24H11.2627V10.93L10.7527 10.76ZM13.0627 14.75H12.7627V13.06L13.2727 13.24C13.6127 13.36 13.7627 13.43 13.7627 13.98C13.7627 14.4 13.4427 14.75 13.0627 14.75Z" fill="#171717"/>
<path d="M22.7029 1.70999C22.6229 1.52999 22.4829 1.38 22.2929 1.3C22.2029 1.26 22.1029 1.23999 22.0029 1.23999H18.0029C17.5929 1.23999 17.2529 1.57999 17.2529 1.98999C17.2529 2.39999 17.5929 2.73999 18.0029 2.73999H20.1929L18.5229 4.41C18.9029 4.74 19.2529 5.08999 19.5829 5.46999L21.2529 3.8V5.99999C21.2529 6.40999 21.5929 6.74999 22.0029 6.74999C22.4129 6.74999 22.7529 6.40999 22.7529 5.99999V1.99999C22.7629 1.89999 22.7429 1.80999 22.7029 1.70999Z" fill="#171717"/>
</svg>
