<svg width="24" height="24" viewBox="0 0 24 24" fill="none" xmlns="http://www.w3.org/2000/svg">
<path d="M12.0039 15.25C10.2139 15.25 8.75391 13.79 8.75391 12C8.75391 10.21 10.2139 8.75 12.0039 8.75C13.7939 8.75 15.2539 10.21 15.2539 12C15.2539 13.79 13.7939 15.25 12.0039 15.25ZM12.0039 10.25C11.0439 10.25 10.2539 11.04 10.2539 12C10.2539 12.96 11.0439 13.75 12.0039 13.75C12.9639 13.75 13.7539 12.96 13.7539 12C13.7539 11.04 12.9639 10.25 12.0039 10.25Z" fill="#171717"/>
<path d="M18.5039 15.25C18.0939 15.25 17.7539 14.91 17.7539 14.5V9.5C17.7539 9.09 18.0939 8.75 18.5039 8.75C18.9139 8.75 19.2539 9.09 19.2539 9.5V14.5C19.2539 14.91 18.9139 15.25 18.5039 15.25Z" fill="#171717"/>
<path d="M5.00391 22.75C2.38391 22.75 0.253906 20.62 0.253906 18C0.253906 15.38 2.38391 13.25 5.00391 13.25C7.62391 13.25 9.75391 15.38 9.75391 18C9.75391 20.62 7.62391 22.75 5.00391 22.75ZM5.00391 14.75C3.21391 14.75 1.75391 16.21 1.75391 18C1.75391 19.79 3.21391 21.25 5.00391 21.25C6.79391 21.25 8.25391 19.79 8.25391 18C8.25391 16.21 6.79391 14.75 5.00391 14.75Z" fill="#171717"/>
<path d="M4.0038 19.75C3.7538 19.75 3.50379 19.62 3.36379 19.39C3.15379 19.04 3.2638 18.57 3.6238 18.36L4.38381 17.9C4.45381 17.86 4.5038 17.77 4.5038 17.69V16.76C4.5038 16.35 4.8438 16.01 5.2538 16.01C5.6638 16.01 6.0038 16.35 6.0038 16.76V17.69C6.0038 18.3 5.67382 18.88 5.15382 19.19L4.39382 19.65C4.27382 19.72 4.1338 19.75 4.0038 19.75Z" fill="#171717"/>
<path d="M17.0039 20.75H8.50391C8.09391 20.75 7.75391 20.41 7.75391 20C7.75391 19.59 8.09391 19.25 8.50391 19.25H17.0039C19.8639 19.25 21.2539 17.86 21.2539 15V9C21.2539 6.14 19.8639 4.75 17.0039 4.75H7.00391C4.14391 4.75 2.75391 6.14 2.75391 9V15.2C2.75391 15.61 2.41391 15.95 2.00391 15.95C1.59391 15.95 1.25391 15.61 1.25391 15.2V9C1.25391 5.35 3.35391 3.25 7.00391 3.25H17.0039C20.6539 3.25 22.7539 5.35 22.7539 9V15C22.7539 18.65 20.6539 20.75 17.0039 20.75Z" fill="#171717"/>
</svg>
