<svg width="24" height="24" viewBox="0 0 24 24" fill="none" xmlns="http://www.w3.org/2000/svg">
<path d="M5.00342 14C2.79342 14 1.00342 15.79 1.00342 18C1.00342 20.21 2.79342 22 5.00342 22C7.21342 22 9.00342 20.21 9.00342 18C9.00342 15.79 7.21342 14 5.00342 14ZM6.00342 17.68C6.00342 18.29 5.67344 18.87 5.15344 19.18L4.39343 19.64C4.27343 19.71 4.14343 19.75 4.01343 19.75C3.76343 19.75 3.51341 19.62 3.37341 19.39C3.16341 19.04 3.27342 18.57 3.63342 18.36L4.39343 17.9C4.46343 17.86 4.51343 17.77 4.51343 17.69V16.76C4.51343 16.35 4.85343 16.01 5.26343 16.01C5.67343 16.01 6.01343 16.35 6.01343 16.76V17.68H6.00342Z" fill="#171717"/>
<path opacity="0.4" d="M22.0034 9V15C22.0034 18.5 20.0034 20 17.0034 20H8.45343C8.80343 19.41 9.00342 18.73 9.00342 18C9.00342 15.79 7.21342 14 5.00342 14C3.80342 14 2.73342 14.53 2.00342 15.36V9C2.00342 5.5 4.00342 4 7.00342 4H17.0034C20.0034 4 22.0034 5.5 22.0034 9Z" fill="#171717"/>
<path d="M12.0034 14.5C13.3841 14.5 14.5034 13.3807 14.5034 12C14.5034 10.6193 13.3841 9.5 12.0034 9.5C10.6227 9.5 9.50342 10.6193 9.50342 12C9.50342 13.3807 10.6227 14.5 12.0034 14.5Z" fill="#171717"/>
<path d="M18.5034 14.75C18.0934 14.75 17.7534 14.41 17.7534 14V10C17.7534 9.59 18.0934 9.25 18.5034 9.25C18.9134 9.25 19.2534 9.59 19.2534 10V14C19.2534 14.41 18.9134 14.75 18.5034 14.75Z" fill="#171717"/>
</svg>
