<svg width="25" height="24" viewBox="0 0 25 24" fill="none" xmlns="http://www.w3.org/2000/svg">
<path opacity="0.4" d="M22.0107 9V15H21.0107C18.0107 15 17.0107 16 17.0107 19V20.5H7.01074V19C7.01074 16 6.01074 15 3.01074 15H2.01074V9H3.01074C6.01074 9 7.01074 8 7.01074 5V3.5H17.0107V5C17.0107 8 18.0107 9 21.0107 9H22.0107Z" fill="#171717"/>
<path d="M12.0107 15C13.6676 15 15.0107 13.6569 15.0107 12C15.0107 10.3431 13.6676 9 12.0107 9C10.3539 9 9.01074 10.3431 9.01074 12C9.01074 13.6569 10.3539 15 12.0107 15Z" fill="#171717"/>
<path d="M7.01074 3.5V5C7.01074 8 6.01074 9 3.01074 9H2.01074V8.5C2.01074 5 4.01074 3.5 7.01074 3.5Z" fill="#171717"/>
<path d="M22.0107 8.5V9H21.0107C18.0107 9 17.0107 8 17.0107 5V3.5C20.0107 3.5 22.0107 5 22.0107 8.5Z" fill="#171717"/>
<path d="M7.01074 19V20.5C4.01074 20.5 2.01074 19 2.01074 15.5V15H3.01074C6.01074 15 7.01074 16 7.01074 19Z" fill="#171717"/>
<path d="M22.0107 15V15.5C22.0107 19 20.0107 20.5 17.0107 20.5V19C17.0107 16 18.0107 15 21.0107 15H22.0107Z" fill="#171717"/>
</svg>
