<svg width="25" height="24" viewBox="0 0 25 24" fill="none" xmlns="http://www.w3.org/2000/svg">
<path opacity="0.4" d="M19.3263 7.91998V13.07C19.3263 16.15 17.5663 17.47 14.9263 17.47H6.13632C5.68632 17.47 5.25632 17.43 4.85632 17.34C4.60632 17.3 4.36633 17.23 4.14633 17.15C2.64633 16.59 1.73633 15.29 1.73633 13.07V7.91998C1.73633 4.83998 3.49632 3.52002 6.13632 3.52002H14.9263C17.1663 3.52002 18.7763 4.47001 19.2063 6.64001C19.2763 7.04001 19.3263 7.44998 19.3263 7.91998Z" fill="#171717"/>
<path d="M22.3264 10.92V16.07C22.3264 19.15 20.5665 20.47 17.9265 20.47H9.13644C8.39644 20.47 7.72645 20.37 7.14645 20.15C5.95645 19.71 5.14645 18.8 4.85645 17.34C5.25645 17.43 5.68644 17.47 6.13644 17.47H14.9265C17.5665 17.47 19.3264 16.15 19.3264 13.07V7.91998C19.3264 7.44998 19.2865 7.03001 19.2065 6.64001C21.1065 7.04001 22.3264 8.37998 22.3264 10.92Z" fill="#171717"/>
<path d="M10.5262 13.14C11.9843 13.14 13.1663 11.958 13.1663 10.5C13.1663 9.04197 11.9843 7.85999 10.5262 7.85999C9.06821 7.85999 7.88623 9.04197 7.88623 10.5C7.88623 11.958 9.06821 13.14 10.5262 13.14Z" fill="#171717"/>
<path d="M4.80615 8.25C4.39615 8.25 4.05615 8.59 4.05615 9V12C4.05615 12.41 4.39615 12.75 4.80615 12.75C5.21615 12.75 5.55615 12.41 5.55615 12V9C5.55615 8.59 5.22615 8.25 4.80615 8.25Z" fill="#171717"/>
<path d="M16.2363 8.25C15.8263 8.25 15.4863 8.59 15.4863 9V12C15.4863 12.41 15.8263 12.75 16.2363 12.75C16.6463 12.75 16.9863 12.41 16.9863 12V9C16.9863 8.59 16.6563 8.25 16.2363 8.25Z" fill="#171717"/>
</svg>
