<svg width="25" height="24" viewBox="0 0 25 24" fill="none" xmlns="http://www.w3.org/2000/svg">
<path d="M1.75031 20.24C1.76031 20.23 1.76031 20.22 1.76031 20.22L7.26031 14.72C7.27032 14.71 7.28028 14.71 7.29028 14.7C6.65028 14.26 5.87028 14 5.04028 14C2.83028 14 1.04028 15.79 1.04028 18C1.04028 18.75 1.2503 19.46 1.6203 20.06C1.6703 20.12 1.71031 20.18 1.75031 20.24Z" fill="#171717"/>
<path d="M8.35028 15.75C8.34028 15.76 8.34032 15.77 8.33032 15.78L2.83032 21.28C2.82032 21.29 2.81029 21.29 2.80029 21.3C3.44029 21.74 4.21029 22 5.05029 22C6.51029 22 7.78028 21.22 8.47028 20.06C8.84028 19.46 9.05029 18.75 9.05029 18C9.05029 17.16 8.79028 16.39 8.35028 15.75Z" fill="#171717"/>
<path opacity="0.4" d="M22.0503 9V15C22.0503 18.5 20.0503 20 17.0503 20H8.50031C8.85031 19.41 9.05029 18.73 9.05029 18C9.05029 15.79 7.26029 14 5.05029 14C3.85029 14 2.78029 14.53 2.05029 15.36V9C2.05029 5.5 4.05029 4 7.05029 4H17.0503C20.0503 4 22.0503 5.5 22.0503 9Z" fill="#171717"/>
<path d="M12.0503 14.5C13.431 14.5 14.5503 13.3807 14.5503 12C14.5503 10.6193 13.431 9.5 12.0503 9.5C10.6696 9.5 9.55029 10.6193 9.55029 12C9.55029 13.3807 10.6696 14.5 12.0503 14.5Z" fill="#171717"/>
<path d="M18.5503 14.75C18.1403 14.75 17.8003 14.41 17.8003 14V10C17.8003 9.59 18.1403 9.25 18.5503 9.25C18.9603 9.25 19.3003 9.59 19.3003 10V14C19.3003 14.41 18.9603 14.75 18.5503 14.75Z" fill="#171717"/>
</svg>
