<svg width="25" height="24" viewBox="0 0 25 24" fill="none" xmlns="http://www.w3.org/2000/svg">
<path d="M17.0146 21.25H7.01465C3.36465 21.25 1.26465 19.15 1.26465 15.5V8.5C1.26465 4.85 3.36465 2.75 7.01465 2.75H17.0146C20.6646 2.75 22.7646 4.85 22.7646 8.5V15.5C22.7646 19.15 20.6646 21.25 17.0146 21.25ZM7.01465 4.25C4.15465 4.25 2.76465 5.64 2.76465 8.5V15.5C2.76465 18.36 4.15465 19.75 7.01465 19.75H17.0146C19.8746 19.75 21.2646 18.36 21.2646 15.5V8.5C21.2646 5.64 19.8746 4.25 17.0146 4.25H7.01465Z" fill="#171717"/>
<path d="M12.0146 15.75C9.94465 15.75 8.26465 14.07 8.26465 12C8.26465 9.93 9.94465 8.25 12.0146 8.25C14.0846 8.25 15.7646 9.93 15.7646 12C15.7646 14.07 14.0846 15.75 12.0146 15.75ZM12.0146 9.75C10.7746 9.75 9.76465 10.76 9.76465 12C9.76465 13.24 10.7746 14.25 12.0146 14.25C13.2546 14.25 14.2646 13.24 14.2646 12C14.2646 10.76 13.2546 9.75 12.0146 9.75Z" fill="#171717"/>
<path d="M19.0146 7.75H16.0146C15.6046 7.75 15.2646 7.41 15.2646 7C15.2646 6.59 15.6046 6.25 16.0146 6.25H19.0146C19.4246 6.25 19.7646 6.59 19.7646 7C19.7646 7.41 19.4246 7.75 19.0146 7.75Z" fill="#171717"/>
<path d="M8.01465 17.75H5.01465C4.60465 17.75 4.26465 17.41 4.26465 17C4.26465 16.59 4.60465 16.25 5.01465 16.25H8.01465C8.42465 16.25 8.76465 16.59 8.76465 17C8.76465 17.41 8.42465 17.75 8.01465 17.75Z" fill="#171717"/>
</svg>
