<svg width="25" height="24" viewBox="0 0 25 24" fill="none" xmlns="http://www.w3.org/2000/svg">
<path opacity="0.4" d="M16.2112 2H7.84125C4.20125 2 2.03125 4.17 2.03125 7.81V16.18C2.03125 19.82 4.20125 21.99 7.84125 21.99H16.2112C19.8512 21.99 22.0212 19.82 22.0212 16.18V7.81C22.0212 4.17 19.8512 2 16.2112 2Z" fill="#171717"/>
<path d="M8.84125 16.02C8.65125 16.02 8.46125 15.95 8.31125 15.8C8.02125 15.51 8.02125 15.03 8.31125 14.74L14.8612 8.19003C15.1512 7.90003 15.6312 7.90003 15.9212 8.19003C16.2112 8.48003 16.2112 8.96003 15.9212 9.25003L9.37125 15.8C9.22125 15.95 9.03125 16.02 8.84125 16.02Z" fill="#171717"/>
<path d="M9.2515 7.66003C8.4415 7.66003 7.77148 8.32005 7.77148 9.14005C7.77148 9.95005 8.4315 10.62 9.2515 10.62C10.0615 10.62 10.7315 9.96005 10.7315 9.14005C10.7215 8.32005 10.0615 7.66003 9.2515 7.66003Z" fill="#171717"/>
<path d="M15.7915 13.39C14.9815 13.39 14.3115 14.05 14.3115 14.87C14.3115 15.68 14.9715 16.35 15.7915 16.35C16.6015 16.35 17.2715 15.69 17.2715 14.87C17.2715 14.05 16.6115 13.39 15.7915 13.39Z" fill="#171717"/>
</svg>
