<svg width="25" height="24" viewBox="0 0 25 24" fill="none" xmlns="http://www.w3.org/2000/svg">
<path opacity="0.4" d="M12.0229 22C17.5458 22 22.0229 17.5228 22.0229 12C22.0229 6.47715 17.5458 2 12.0229 2C6.5001 2 2.02295 6.47715 2.02295 12C2.02295 17.5228 6.5001 22 12.0229 22Z" fill="#171717"/>
<path d="M8.3432 16.02C8.1532 16.02 7.9632 15.95 7.8132 15.8C7.5232 15.51 7.5232 15.03 7.8132 14.74L14.3632 8.19003C14.6532 7.90003 15.1332 7.90003 15.4232 8.19003C15.7132 8.48003 15.7132 8.96003 15.4232 9.25003L8.8732 15.8C8.7232 15.95 8.5332 16.02 8.3432 16.02Z" fill="#171717"/>
<path d="M8.75296 7.66003C7.94296 7.66003 7.27295 8.32005 7.27295 9.14005C7.27295 9.95005 7.93296 10.62 8.75296 10.62C9.56296 10.62 10.2329 9.96005 10.2329 9.14005C10.2229 8.32005 9.56296 7.66003 8.75296 7.66003Z" fill="#171717"/>
<path d="M15.293 13.39C14.483 13.39 13.813 14.05 13.813 14.87C13.813 15.68 14.473 16.35 15.293 16.35C16.103 16.35 16.773 15.69 16.773 14.87C16.773 14.05 16.113 13.39 15.293 13.39Z" fill="#171717"/>
</svg>
