<svg width="25" height="24" viewBox="0 0 25 24" fill="none" xmlns="http://www.w3.org/2000/svg">
<path d="M8.34326 15.27L14.8832 8.72998" stroke="#171717" stroke-width="1.5" stroke-linecap="round" stroke-linejoin="round"/>
<path d="M8.75345 10.37C9.43276 10.37 9.98343 9.81936 9.98343 9.14005C9.98343 8.46073 9.43276 7.91003 8.75345 7.91003C8.07414 7.91003 7.52344 8.46073 7.52344 9.14005C7.52344 9.81936 8.07414 10.37 8.75345 10.37Z" stroke="#171717" stroke-width="1.5" stroke-linecap="round" stroke-linejoin="round"/>
<path d="M15.2935 16.09C15.9728 16.09 16.5235 15.5393 16.5235 14.86C16.5235 14.1807 15.9728 13.63 15.2935 13.63C14.6141 13.63 14.0635 14.1807 14.0635 14.86C14.0635 15.5393 14.6141 16.09 15.2935 16.09Z" stroke="#171717" stroke-width="1.5" stroke-linecap="round" stroke-linejoin="round"/>
<path d="M4.02344 6C2.77344 7.67 2.02344 9.75 2.02344 12C2.02344 17.52 6.50344 22 12.0234 22C17.5434 22 22.0234 17.52 22.0234 12C22.0234 6.48 17.5434 2 12.0234 2C10.5934 2 9.22344 2.30001 7.99344 2.85001" stroke="#171717" stroke-width="1.5" stroke-linecap="round" stroke-linejoin="round"/>
</svg>
