<svg width="25" height="24" viewBox="0 0 25 24" fill="none" xmlns="http://www.w3.org/2000/svg">
<path d="M8.59375 15.27L15.1337 8.72998" stroke="#171717" stroke-width="1.5" stroke-linecap="round" stroke-linejoin="round"/>
<path d="M9.00345 10.37C9.68276 10.37 10.2334 9.81936 10.2334 9.14005C10.2334 8.46073 9.68276 7.91003 9.00345 7.91003C8.32414 7.91003 7.77344 8.46073 7.77344 9.14005C7.77344 9.81936 8.32414 10.37 9.00345 10.37Z" stroke="#171717" stroke-width="1.5" stroke-linecap="round" stroke-linejoin="round"/>
<path d="M15.5435 16.09C16.2228 16.09 16.7735 15.5393 16.7735 14.86C16.7735 14.1807 16.2228 13.63 15.5435 13.63C14.8641 13.63 14.3135 14.1807 14.3135 14.86C14.3135 15.5393 14.8641 16.09 15.5435 16.09Z" stroke="#171717" stroke-width="1.5" stroke-linecap="round" stroke-linejoin="round"/>
<path d="M12.0234 22C17.5463 22 22.0234 17.5228 22.0234 12C22.0234 6.47715 17.5463 2 12.0234 2C6.50059 2 2.02344 6.47715 2.02344 12C2.02344 17.5228 6.50059 22 12.0234 22Z" stroke="#171717" stroke-width="1.5" stroke-linecap="round" stroke-linejoin="round"/>
</svg>
