<svg width="25" height="24" viewBox="0 0 25 24" fill="none" xmlns="http://www.w3.org/2000/svg">
<path d="M15.0215 22.75H9.02148C3.59148 22.75 1.27148 20.43 1.27148 15V9C1.27148 3.57 3.59148 1.25 9.02148 1.25H15.0215C20.4515 1.25 22.7715 3.57 22.7715 9V15C22.7715 20.43 20.4515 22.75 15.0215 22.75ZM9.02148 2.75C4.41148 2.75 2.77148 4.39 2.77148 9V15C2.77148 19.61 4.41148 21.25 9.02148 21.25H15.0215C19.6315 21.25 21.2715 19.61 21.2715 15V9C21.2715 4.39 19.6315 2.75 15.0215 2.75H9.02148Z" fill="#171717"/>
<path d="M8.59125 16.02C8.40125 16.02 8.21125 15.95 8.06125 15.8C7.77125 15.51 7.77125 15.03 8.06125 14.74L14.6112 8.19003C14.9012 7.90003 15.3812 7.90003 15.6712 8.19003C15.9612 8.48003 15.9612 8.96003 15.6712 9.25003L9.12125 15.8C8.97125 15.95 8.78125 16.02 8.59125 16.02Z" fill="#171717"/>
<path d="M9.0015 11.11C7.9115 11.11 7.02148 10.22 7.02148 9.13004C7.02148 8.04004 7.9115 7.15002 9.0015 7.15002C10.0915 7.15002 10.9815 8.04004 10.9815 9.13004C10.9815 10.22 10.0915 11.11 9.0015 11.11ZM9.0015 8.66003C8.7415 8.66003 8.52148 8.87005 8.52148 9.14005C8.52148 9.41005 8.7315 9.62003 9.0015 9.62003C9.2715 9.62003 9.48148 9.41005 9.48148 9.14005C9.48148 8.87005 9.2615 8.66003 9.0015 8.66003Z" fill="#171717"/>
<path d="M15.5415 16.84C14.4515 16.84 13.5615 15.95 13.5615 14.86C13.5615 13.77 14.4515 12.88 15.5415 12.88C16.6315 12.88 17.5215 13.77 17.5215 14.86C17.5215 15.95 16.6315 16.84 15.5415 16.84ZM15.5415 14.39C15.2815 14.39 15.0615 14.6 15.0615 14.87C15.0615 15.14 15.2715 15.35 15.5415 15.35C15.8115 15.35 16.0215 15.14 16.0215 14.87C16.0215 14.6 15.8115 14.39 15.5415 14.39Z" fill="#171717"/>
</svg>
