<svg width="25" height="24" viewBox="0 0 25 24" fill="none" xmlns="http://www.w3.org/2000/svg">
<path d="M8.5932 16.02C8.4032 16.02 8.2132 15.95 8.0632 15.8C7.7732 15.51 7.7732 15.03 8.0632 14.74L14.6132 8.19003C14.9032 7.90003 15.3832 7.90003 15.6732 8.19003C15.9632 8.48003 15.9632 8.96003 15.6732 9.25003L9.1232 15.8C8.9732 15.95 8.7832 16.02 8.5932 16.02Z" fill="#171717"/>
<path d="M9.00345 11.11C7.91345 11.11 7.02344 10.22 7.02344 9.13004C7.02344 8.04004 7.91345 7.15002 9.00345 7.15002C10.0934 7.15002 10.9834 8.04004 10.9834 9.13004C10.9834 10.22 10.0934 11.11 9.00345 11.11ZM9.00345 8.66003C8.74345 8.66003 8.52344 8.87005 8.52344 9.14005C8.52344 9.41005 8.73345 9.62003 9.00345 9.62003C9.27345 9.62003 9.48343 9.41005 9.48343 9.14005C9.48343 8.87005 9.26345 8.66003 9.00345 8.66003Z" fill="#171717"/>
<path d="M15.5435 16.84C14.4535 16.84 13.5635 15.95 13.5635 14.86C13.5635 13.77 14.4535 12.88 15.5435 12.88C16.6335 12.88 17.5235 13.77 17.5235 14.86C17.5235 15.95 16.6335 16.84 15.5435 16.84ZM15.5435 14.39C15.2835 14.39 15.0635 14.6 15.0635 14.87C15.0635 15.14 15.2735 15.35 15.5435 15.35C15.8135 15.35 16.0235 15.14 16.0235 14.87C16.0235 14.6 15.8135 14.39 15.5435 14.39Z" fill="#171717"/>
<path d="M12.0234 22.75C6.09344 22.75 1.27344 17.93 1.27344 12C1.27344 6.07 6.09344 1.25 12.0234 1.25C17.9534 1.25 22.7734 6.07 22.7734 12C22.7734 17.93 17.9534 22.75 12.0234 22.75ZM12.0234 2.75C6.92344 2.75 2.77344 6.9 2.77344 12C2.77344 17.1 6.92344 21.25 12.0234 21.25C17.1234 21.25 21.2734 17.1 21.2734 12C21.2734 6.9 17.1234 2.75 12.0234 2.75Z" fill="#171717"/>
</svg>
