<svg width="25" height="24" viewBox="0 0 25 24" fill="none" xmlns="http://www.w3.org/2000/svg">
<path d="M9.02148 2H15.0215C20.0215 2 22.0215 4 22.0215 9V15C22.0215 20 20.0215 22 15.0215 22H9.02148C4.02148 22 2.02148 20 2.02148 15V9C2.02148 4 4.02148 2 9.02148 2Z" stroke="#171717" stroke-width="1.5" stroke-linecap="round" stroke-linejoin="round"/>
<path opacity="0.4" d="M8.34131 15.27L14.8813 8.72998" stroke="#171717" stroke-width="1.5" stroke-linecap="round" stroke-linejoin="round"/>
<path opacity="0.4" d="M8.7515 10.37C9.43081 10.37 9.98148 9.81936 9.98148 9.14005C9.98148 8.46073 9.43081 7.91003 8.7515 7.91003C8.07219 7.91003 7.52148 8.46073 7.52148 9.14005C7.52148 9.81936 8.07219 10.37 8.7515 10.37Z" stroke="#171717" stroke-width="1.5" stroke-linecap="round" stroke-linejoin="round"/>
<path opacity="0.4" d="M15.2915 16.09C15.9708 16.09 16.5215 15.5393 16.5215 14.86C16.5215 14.1807 15.9708 13.63 15.2915 13.63C14.6122 13.63 14.0615 14.1807 14.0615 14.86C14.0615 15.5393 14.6122 16.09 15.2915 16.09Z" stroke="#171717" stroke-width="1.5" stroke-linecap="round" stroke-linejoin="round"/>
</svg>
