<svg width="25" height="24" viewBox="0 0 25 24" fill="none" xmlns="http://www.w3.org/2000/svg">
<path d="M20.5452 7.04C20.5452 3.01 19.6052 2 15.8252 2H8.26517C4.48517 2 3.54517 3.01 3.54517 7.04V18.3C3.54517 20.96 5.00517 21.59 6.77517 19.69L6.78517 19.68C7.60517 18.81 8.85517 18.88 9.56517 19.83L10.5752 21.18C11.3852 22.25 12.6952 22.25 13.5052 21.18L14.5152 19.83C15.2352 18.87 16.4852 18.8 17.3052 19.68C19.0852 21.58 20.5352 20.95 20.5352 18.29V11.02" stroke="#171717" stroke-width="1.5" stroke-linecap="round" stroke-linejoin="round"/>
<path d="M8.67505 13.8L15.405 7.07001" stroke="#171717" stroke-width="1.5" stroke-linecap="round" stroke-linejoin="round"/>
<path d="M9.04517 13L15.0452 7" stroke="#171717" stroke-width="1.5" stroke-linecap="round" stroke-linejoin="round"/>
<path d="M15.0397 13H15.0487" stroke="#171717" stroke-width="1.5" stroke-linecap="round" stroke-linejoin="round"/>
<path d="M9.03967 7.5H9.04866" stroke="#171717" stroke-width="1.5" stroke-linecap="round" stroke-linejoin="round"/>
</svg>
