<svg width="24" height="24" viewBox="0 0 24 24" fill="none" xmlns="http://www.w3.org/2000/svg">
<path d="M22.0015 6V8.42C22.0015 10 21.0015 11 19.4215 11H16.0015V4.01C16.0015 2.9 16.9115 2 18.0215 2C19.1115 2.01 20.1115 2.45 20.8315 3.17C21.5515 3.9 22.0015 4.9 22.0015 6Z" fill="#171717"/>
<path opacity="0.4" d="M2.00146 7V21C2.00146 21.83 2.94146 22.3 3.60146 21.8L5.31146 20.52C5.71146 20.22 6.27146 20.26 6.63146 20.62L8.29147 22.29C8.68147 22.68 9.32146 22.68 9.71146 22.29L11.3915 20.61C11.7415 20.26 12.3015 20.22 12.6915 20.52L14.4015 21.8C15.0615 22.29 16.0015 21.82 16.0015 21V4C16.0015 2.9 16.9015 2 18.0015 2H7.00146H6.00146C3.00146 2 2.00146 3.79 2.00146 6V7Z" fill="#171717"/>
<path d="M11.7515 10.75H6.25146C5.84146 10.75 5.50146 10.41 5.50146 10C5.50146 9.59 5.84146 9.25 6.25146 9.25H11.7515C12.1615 9.25 12.5015 9.59 12.5015 10C12.5015 10.41 12.1615 10.75 11.7515 10.75Z" fill="#171717"/>
</svg>
