<svg width="24" height="24" viewBox="0 0 24 24" fill="none" xmlns="http://www.w3.org/2000/svg">
<path d="M19.4278 11.75H16.0078C15.5978 11.75 15.2578 11.41 15.2578 11V4.01C15.2578 3.27 15.5478 2.58 16.0678 2.06C16.5878 1.54 17.2778 1.25 18.0178 1.25H18.0278C19.2778 1.26 20.4578 1.75 21.3578 2.64C22.2578 3.55 22.7478 4.75 22.7478 6V8.42C22.7578 10.41 21.4178 11.75 19.4278 11.75ZM16.7578 10.25H19.4278C20.5878 10.25 21.2578 9.58 21.2578 8.42V6C21.2578 5.14 20.9178 4.32 20.3078 3.7C19.6978 3.1 18.8778 2.76 18.0278 2.75C18.0278 2.75 18.0278 2.75 18.0178 2.75C17.6878 2.75 17.3678 2.88 17.1278 3.12C16.8878 3.36 16.7578 3.67 16.7578 4.01V10.25Z" fill="#171717"/>
<path d="M9.00758 23.33C8.53758 23.35 8.09758 23.15 7.76758 22.81L6.10759 21.14C6.01759 21.05 5.87759 21.04 5.77759 21.12L4.06758 22.4C3.53758 22.8 2.83758 22.87 2.23758 22.57C1.63758 22.27 1.26758 21.67 1.26758 21V6C1.26758 2.98 2.99758 1.25 6.01758 1.25H18.0176C18.4276 1.25 18.7676 1.59 18.7676 2C18.7676 2.41 18.4276 2.75 18.0176 2.75C17.3276 2.75 16.7676 3.31 16.7676 4V21C16.7676 21.67 16.3976 22.27 15.7976 22.57C15.1976 22.87 14.4976 22.81 13.9676 22.41L12.2576 21.13C12.1576 21.05 12.0176 21.07 11.9376 21.15L10.2576 22.83C9.91758 23.15 9.47758 23.33 9.00758 23.33ZM5.91759 19.57C6.37759 19.57 6.82759 19.74 7.16759 20.09L8.82759 21.76C8.88759 21.82 8.96758 21.83 9.00758 21.83C9.00758 21.81 9.12758 21.82 9.18758 21.76L10.8676 20.08C11.4876 19.46 12.4676 19.4 13.1576 19.93L14.8576 21.2C14.9676 21.28 15.0676 21.25 15.1176 21.22C15.1676 21.19 15.2576 21.13 15.2576 21V4C15.2576 3.55 15.3676 3.12 15.5576 2.75H6.00758C3.78758 2.75 2.75758 3.78 2.75758 6V21C2.75758 21.14 2.84758 21.2 2.89758 21.23C2.95758 21.26 3.05758 21.28 3.15758 21.2L4.86758 19.92C5.17758 19.69 5.54759 19.57 5.91759 19.57Z" fill="#171717"/>
<path d="M11.7578 10.75H6.25781C5.84781 10.75 5.50781 10.41 5.50781 10C5.50781 9.59 5.84781 9.25 6.25781 9.25H11.7578C12.1678 9.25 12.5078 9.59 12.5078 10C12.5078 10.41 12.1678 10.75 11.7578 10.75Z" fill="#171717"/>
<path d="M9.00781 13.5C8.59781 13.5 8.25781 13.16 8.25781 12.75V7.25C8.25781 6.84 8.59781 6.5 9.00781 6.5C9.41781 6.5 9.75781 6.84 9.75781 7.25V12.75C9.75781 13.16 9.41781 13.5 9.00781 13.5Z" fill="#171717"/>
</svg>
