<svg width="25" height="24" viewBox="0 0 25 24" fill="none" xmlns="http://www.w3.org/2000/svg">
<path d="M10.5752 21.94C10.3452 21.94 10.1252 21.84 9.97519 21.64L8.96518 20.29C8.75518 20.01 8.4752 19.85 8.1752 19.83C7.8752 19.81 7.57517 19.95 7.33517 20.2C5.88517 21.75 4.78519 21.62 4.25519 21.42C3.71519 21.21 2.80518 20.52 2.80518 18.3V7.04001C2.80518 2.60001 4.08518 1.25 8.27518 1.25H15.8252C20.0152 1.25 21.2952 2.60001 21.2952 7.04001V11.3C21.2952 11.71 20.9552 12.05 20.5452 12.05C20.1352 12.05 19.7952 11.71 19.7952 11.3V7.04001C19.7952 3.43001 19.1652 2.75 15.8252 2.75H8.27518C4.93518 2.75 4.30518 3.43001 4.30518 7.04001V18.3C4.30518 19.35 4.56518 19.93 4.80518 20.02C4.98518 20.09 5.4752 19.99 6.2352 19.18C6.7852 18.6 7.50519 18.29 8.25519 18.33C8.99519 18.37 9.69519 18.76 10.1652 19.39L11.1852 20.74C11.4352 21.07 11.3652 21.54 11.0352 21.79C10.8852 21.9 10.7252 21.94 10.5752 21.94Z" fill="#171717"/>
<path d="M18.2352 22.15C16.0552 22.15 14.2852 20.38 14.2852 18.2C14.2852 16.02 16.0552 14.25 18.2352 14.25C20.4152 14.25 22.1852 16.02 22.1852 18.2C22.1852 20.38 20.4152 22.15 18.2352 22.15ZM18.2352 15.75C16.8852 15.75 15.7852 16.85 15.7852 18.2C15.7852 19.55 16.8852 20.65 18.2352 20.65C19.5852 20.65 20.6852 19.55 20.6852 18.2C20.6852 16.85 19.5852 15.75 18.2352 15.75Z" fill="#171717"/>
<path d="M22.0351 22.7499C21.8451 22.7499 21.6551 22.6799 21.5051 22.5299L20.5051 21.5299C20.2151 21.2399 20.2151 20.7599 20.5051 20.4699C20.7951 20.1799 21.2751 20.1799 21.5651 20.4699L22.5651 21.4699C22.8551 21.7599 22.8551 22.2399 22.5651 22.5299C22.4151 22.6799 22.2251 22.7499 22.0351 22.7499Z" fill="#171717"/>
<path d="M16.0352 7.75H8.03516C7.62516 7.75 7.28516 7.41 7.28516 7C7.28516 6.59 7.62516 6.25 8.03516 6.25H16.0352C16.4452 6.25 16.7852 6.59 16.7852 7C16.7852 7.41 16.4452 7.75 16.0352 7.75Z" fill="#171717"/>
<path d="M15.0352 11.75H9.03516C8.62516 11.75 8.28516 11.41 8.28516 11C8.28516 10.59 8.62516 10.25 9.03516 10.25H15.0352C15.4452 10.25 15.7852 10.59 15.7852 11C15.7852 11.41 15.4452 11.75 15.0352 11.75Z" fill="#171717"/>
</svg>
