<svg width="25" height="24" viewBox="0 0 25 24" fill="none" xmlns="http://www.w3.org/2000/svg">
<path opacity="0.4" d="M6.76541 19.7C7.58541 18.82 8.83539 18.89 9.55539 19.85L10.5654 21.2C11.3754 22.27 12.6854 22.27 13.4954 21.2L14.5054 19.85C15.2254 18.89 16.4754 18.82 17.2954 19.7C19.0754 21.6 20.5254 20.97 20.5254 18.31V7.04999C20.5254 3.01999 19.5854 2.01001 15.8054 2.01001H8.24539C4.46539 2.01001 3.52539 3.01999 3.52539 7.04999V18.31C3.53539 20.97 4.99541 21.59 6.76541 19.7Z" fill="#171717"/>
<path d="M15.695 13.47L14.955 12.73C15.335 12.15 15.565 11.45 15.565 10.7C15.565 8.66001 13.905 7 11.865 7C9.82502 7 8.16504 8.66001 8.16504 10.7C8.16504 12.74 9.82502 14.4 11.865 14.4C12.615 14.4 13.315 14.17 13.895 13.79L14.635 14.53C14.785 14.68 14.975 14.75 15.165 14.75C15.355 14.75 15.545 14.68 15.695 14.53C15.985 14.24 15.985 13.76 15.695 13.47Z" fill="#171717"/>
</svg>
