<svg width="25" height="24" viewBox="0 0 25 24" fill="none" xmlns="http://www.w3.org/2000/svg">
<path opacity="0.4" d="M6.77517 19.7C7.59517 18.82 8.84517 18.89 9.56517 19.85L10.5752 21.2C11.3852 22.27 12.6952 22.27 13.5052 21.2L14.5152 19.85C15.2352 18.89 16.4852 18.82 17.3052 19.7C19.0852 21.6 20.5352 20.97 20.5352 18.31V7.04C20.5452 3.01 19.6052 2 15.8252 2H8.26517C4.48517 2 3.54517 3.01 3.54517 7.04V18.3C3.54517 20.97 5.00517 21.59 6.77517 19.7Z" fill="#171717"/>
<path d="M15.0452 14C14.4852 14 14.0452 13.55 14.0452 13C14.0452 12.45 14.4952 12 15.0452 12C15.5952 12 16.0452 12.45 16.0452 13C16.0452 13.55 15.6052 14 15.0452 14Z" fill="#171717"/>
<path d="M9.04517 9C8.48517 9 8.04517 8.55 8.04517 8C8.04517 7.45 8.49517 7 9.04517 7C9.59517 7 10.0452 7.45 10.0452 8C10.0452 8.55 9.60517 9 9.04517 9Z" fill="#171717"/>
<path d="M8.67523 14.55C8.48523 14.55 8.29523 14.48 8.14523 14.33C7.85523 14.04 7.85523 13.56 8.14523 13.27L14.8752 6.54001C15.1652 6.25001 15.6452 6.25001 15.9352 6.54001C16.2252 6.83001 16.2252 7.31001 15.9352 7.60001L9.20523 14.33C9.06523 14.48 8.86523 14.55 8.67523 14.55Z" fill="#171717"/>
</svg>
