<svg width="24" height="24" viewBox="0 0 24 24" fill="none" xmlns="http://www.w3.org/2000/svg">
<path d="M22.0049 6V8.42C22.0049 10 21.0049 11 19.4249 11H16.0049V4.01C16.0049 2.9 16.9149 2 18.0249 2C19.1149 2.01 20.1149 2.45 20.8349 3.17C21.5549 3.9 22.0049 4.9 22.0049 6Z" fill="#171717"/>
<path opacity="0.4" d="M2.00488 7V21C2.00488 21.83 2.94489 22.3 3.60489 21.8L5.31488 20.52C5.71488 20.22 6.27489 20.26 6.63489 20.62L8.29488 22.29C8.68488 22.68 9.32489 22.68 9.71489 22.29L11.3949 20.61C11.7449 20.26 12.3049 20.22 12.6949 20.52L14.4049 21.8C15.0649 22.29 16.0049 21.82 16.0049 21V4C16.0049 2.9 16.9049 2 18.0049 2H7.00488H6.00488C3.00488 2 2.00488 3.79 2.00488 6V7Z" fill="#171717"/>
<path d="M12.0049 9.75H6.00488C5.59488 9.75 5.25488 9.41 5.25488 9C5.25488 8.59 5.59488 8.25 6.00488 8.25H12.0049C12.4149 8.25 12.7549 8.59 12.7549 9C12.7549 9.41 12.4149 9.75 12.0049 9.75Z" fill="#171717"/>
<path d="M11.2549 13.75H6.75488C6.34488 13.75 6.00488 13.41 6.00488 13C6.00488 12.59 6.34488 12.25 6.75488 12.25H11.2549C11.6649 12.25 12.0049 12.59 12.0049 13C12.0049 13.41 11.6649 13.75 11.2549 13.75Z" fill="#171717"/>
</svg>
