<svg width="25" height="24" viewBox="0 0 25 24" fill="none" xmlns="http://www.w3.org/2000/svg">
<path d="M10.5703 21.94C10.3403 21.94 10.1203 21.84 9.97031 21.64L8.9603 20.29C8.7503 20.01 8.47032 19.85 8.17032 19.83C7.86032 19.81 7.57029 19.95 7.33029 20.2C5.88029 21.75 4.78031 21.62 4.25031 21.42C3.71031 21.21 2.80029 20.52 2.80029 18.3V7.04001C2.80029 2.60001 4.08029 1.25 8.27029 1.25H15.8203C20.0103 1.25 21.2903 2.60001 21.2903 7.04001V11.3C21.2903 11.71 20.9503 12.05 20.5403 12.05C20.1303 12.05 19.7903 11.71 19.7903 11.3V7.04001C19.7903 3.43001 19.1603 2.75 15.8203 2.75H8.27029C4.93029 2.75 4.30029 3.43001 4.30029 7.04001V18.3C4.30029 19.35 4.56029 19.93 4.80029 20.02C4.98029 20.09 5.47032 19.99 6.23032 19.18C6.78032 18.6 7.50031 18.29 8.25031 18.33C8.9903 18.37 9.69031 18.76 10.1603 19.39L11.1803 20.74C11.4303 21.07 11.3603 21.54 11.0303 21.79C10.8803 21.9 10.7203 21.94 10.5703 21.94Z" fill="#171717"/>
<path d="M16.0303 7.75H8.03027C7.62027 7.75 7.28027 7.41 7.28027 7C7.28027 6.59 7.62027 6.25 8.03027 6.25H16.0303C16.4403 6.25 16.7803 6.59 16.7803 7C16.7803 7.41 16.4403 7.75 16.0303 7.75Z" fill="#171717"/>
<path d="M15.0303 11.75H9.03027C8.62027 11.75 8.28027 11.41 8.28027 11C8.28027 10.59 8.62027 10.25 9.03027 10.25H15.0303C15.4403 10.25 15.7803 10.59 15.7803 11C15.7803 11.41 15.4403 11.75 15.0303 11.75Z" fill="#171717"/>
<path d="M14.8503 21.78C14.4703 21.78 14.1103 21.64 13.8503 21.38C13.5403 21.07 13.4003 20.62 13.4703 20.15L13.6603 18.8C13.7103 18.45 13.9203 18.03 14.1703 17.78L17.7103 14.24C18.1903 13.76 18.6603 13.51 19.1703 13.46C19.7903 13.4 20.4103 13.66 20.9903 14.24C21.5703 14.82 21.8303 15.43 21.7703 16.06C21.7203 16.56 21.4603 17.04 20.9903 17.52L17.4503 21.06C17.2003 21.31 16.7803 21.52 16.4303 21.57L15.0803 21.76C15.0003 21.77 14.9303 21.78 14.8503 21.78ZM19.3403 14.95C19.3303 14.95 19.3203 14.95 19.3103 14.95C19.1703 14.96 18.9803 15.09 18.7703 15.3L15.2303 18.84C15.2003 18.87 15.1503 18.97 15.1503 19.01L14.9703 20.26L16.2203 20.08C16.2603 20.07 16.3603 20.02 16.3903 19.99L19.9303 16.45C20.1403 16.23 20.2703 16.05 20.2803 15.91C20.3003 15.71 20.1003 15.47 19.9303 15.3C19.7703 15.14 19.5403 14.95 19.3403 14.95Z" fill="#171717"/>
<path d="M19.9504 18.2499C19.8804 18.2499 19.8104 18.2399 19.7504 18.2199C18.4304 17.8499 17.3804 16.7999 17.0104 15.4799C16.9004 15.0799 17.1304 14.6699 17.5304 14.5499C17.9304 14.4399 18.3404 14.6699 18.4504 15.0699C18.6804 15.8899 19.3304 16.5399 20.1504 16.7699C20.5504 16.8799 20.7804 17.2999 20.6704 17.6999C20.5804 18.0299 20.2804 18.2499 19.9504 18.2499Z" fill="#171717"/>
</svg>
