<svg width="25" height="24" viewBox="0 0 25 24" fill="none" xmlns="http://www.w3.org/2000/svg">
<path d="M20.5303 11.3V7.04001C20.5303 3.01001 19.5903 2 15.8103 2H8.25027C4.47027 2 3.53027 3.01001 3.53027 7.04001V18.3C3.53027 20.96 4.99028 21.59 6.76028 19.69L6.77026 19.68C7.59026 18.81 8.84026 18.88 9.55026 19.83L10.5603 21.18" stroke="#171717" stroke-width="1.5" stroke-linecap="round" stroke-linejoin="round"/>
<path opacity="0.4" d="M8.03027 7H16.0303" stroke="#171717" stroke-width="1.5" stroke-linecap="round" stroke-linejoin="round"/>
<path opacity="0.4" d="M9.03027 11H15.0303" stroke="#171717" stroke-width="1.5" stroke-linecap="round" stroke-linejoin="round"/>
<path d="M18.2403 14.77L14.7003 18.31C14.5603 18.45 14.4303 18.71 14.4003 18.9L14.2103 20.25C14.1403 20.74 14.4803 21.0801 14.9703 21.0101L16.3203 20.82C16.5103 20.79 16.7803 20.66 16.9103 20.52L20.4503 16.9801C21.0603 16.3701 21.3503 15.6601 20.4503 14.7601C19.5603 13.8701 18.8503 14.16 18.2403 14.77Z" stroke="#171717" stroke-width="1.5" stroke-miterlimit="10" stroke-linecap="round" stroke-linejoin="round"/>
<path d="M17.7305 15.28C18.0305 16.36 18.8705 17.2 19.9505 17.5" stroke="#171717" stroke-width="1.5" stroke-miterlimit="10" stroke-linecap="round" stroke-linejoin="round"/>
</svg>
