<svg width="25" height="24" viewBox="0 0 25 24" fill="none" xmlns="http://www.w3.org/2000/svg">
<path d="M11.5557 22.75C10.7657 22.75 10.0157 22.34 9.49567 21.64L8.47565 20.3C8.26565 20.02 7.98567 19.86 7.68567 19.84C7.39567 19.82 7.08569 19.96 6.83569 20.21C5.97569 21.13 5.13564 21.57 4.34564 21.55C3.80564 21.53 3.33565 21.29 2.97565 20.85C2.93565 20.8 2.89566 20.73 2.86566 20.66C2.47566 19.82 2.29565 18.68 2.29565 16.97V7.05001C2.29565 5.34001 2.47566 4.21001 2.86566 3.36001C2.89566 3.30001 2.92565 3.24001 2.97565 3.19001C3.32565 2.74001 3.79569 2.50001 4.33569 2.47001C5.13569 2.44001 5.98568 2.90001 6.82568 3.80001C7.07568 4.07001 7.37566 4.20001 7.67566 4.18001C7.97566 4.16001 8.25564 4.00001 8.46564 3.72001L9.48566 2.37001C10.0057 1.67001 10.7557 1.26001 11.5457 1.26001C12.3357 1.26001 13.0857 1.67001 13.6057 2.37001L14.6157 3.71001C14.8257 4.00001 15.1157 4.16001 15.4257 4.18001C15.7157 4.20001 16.0256 4.06001 16.2756 3.80001C17.0956 2.92001 17.9057 2.47001 18.6857 2.47001C19.2457 2.47001 19.7657 2.72001 20.1257 3.19001C20.1657 3.24001 20.2057 3.30001 20.2357 3.37001C20.6257 4.21001 20.8057 5.35001 20.8057 7.06001V16.98C20.8057 18.69 20.6257 19.82 20.2357 20.67C20.1957 20.76 20.1457 20.84 20.0757 20.91C19.7657 21.31 19.2557 21.56 18.6857 21.56C17.9057 21.56 17.0956 21.11 16.2756 20.23C16.0356 19.97 15.7057 19.83 15.4257 19.85C15.1157 19.87 14.8357 20.03 14.6157 20.32L13.6057 21.66C13.0957 22.34 12.3457 22.75 11.5557 22.75ZM7.63568 18.33C7.67568 18.33 7.72569 18.33 7.76569 18.33C8.50569 18.37 9.19565 18.76 9.66565 19.39L10.6857 20.74C11.1757 21.4 11.9156 21.4 12.4056 20.75L13.4156 19.41C13.8956 18.77 14.5957 18.39 15.3357 18.35C16.0757 18.31 16.8157 18.62 17.3557 19.2C18.0957 19.99 18.5456 20.05 18.6656 20.05C18.7456 20.05 18.8157 20.03 18.8857 19.97C19.1657 19.34 19.2856 18.39 19.2856 16.97V7.05001C19.2856 5.65001 19.1557 4.70001 18.8857 4.07001C18.8057 3.98001 18.7256 3.97001 18.6656 3.97001C18.5456 3.97001 18.0957 4.03001 17.3557 4.82001C16.8157 5.40001 16.0757 5.71001 15.3357 5.67001C14.5857 5.63001 13.8856 5.24001 13.4056 4.61001L12.3957 3.27001C11.9057 2.61001 11.1657 2.61001 10.6757 3.27001L9.65564 4.63001C9.18564 5.26001 8.49568 5.64001 7.75568 5.68001C7.01568 5.72001 6.27566 5.41001 5.73566 4.84001C5.12566 4.18001 4.65569 3.96001 4.39569 3.97001C4.33569 3.97001 4.26567 3.99001 4.18567 4.07001C3.91567 4.70001 3.78564 5.65001 3.78564 7.05001V16.97C3.78564 18.38 3.91567 19.33 4.18567 19.96C4.27567 20.04 4.33569 20.05 4.39569 20.06C4.64569 20.07 5.11565 19.85 5.72565 19.2C6.25565 18.63 6.94568 18.33 7.63568 18.33Z" fill="#171717"/>
<path d="M16.0554 11H8.05542C7.64542 11 7.30542 10.66 7.30542 10.25C7.30542 9.84 7.64542 9.5 8.05542 9.5H16.0554C16.4654 9.5 16.8054 9.84 16.8054 10.25C16.8054 10.66 16.4654 11 16.0554 11Z" fill="#171717"/>
<path d="M14.0554 14.5H8.05542C7.64542 14.5 7.30542 14.16 7.30542 13.75C7.30542 13.34 7.64542 13 8.05542 13H14.0554C14.4654 13 14.8054 13.34 14.8054 13.75C14.8054 14.16 14.4654 14.5 14.0554 14.5Z" fill="#171717"/>
</svg>
