<svg width="24" height="24" viewBox="0 0 24 24" fill="none" xmlns="http://www.w3.org/2000/svg">
<path d="M19.4249 11.75H16.0049C15.5949 11.75 15.2549 11.41 15.2549 11V4.01C15.2549 3.27 15.5449 2.58 16.0649 2.06C16.5849 1.54 17.2749 1.25 18.0149 1.25H18.0249C19.2749 1.26 20.4549 1.75 21.3549 2.64C22.2549 3.55 22.7449 4.75 22.7449 6V8.42C22.7549 10.41 21.4149 11.75 19.4249 11.75ZM16.7549 10.25H19.4249C20.5849 10.25 21.2549 9.58 21.2549 8.42V6C21.2549 5.14 20.9149 4.32 20.3049 3.7C19.6949 3.1 18.8849 2.76 18.0249 2.75C18.0249 2.75 18.0249 2.75 18.0149 2.75C17.6849 2.75 17.3649 2.88 17.1249 3.12C16.8849 3.36 16.7549 3.67 16.7549 4.01V10.25Z" fill="#171717"/>
<path d="M9.00464 23.33C8.53464 23.33 8.09465 23.15 7.76465 22.81L6.10461 21.14C6.01461 21.05 5.87466 21.04 5.77466 21.12L4.06464 22.4C3.53464 22.8 2.83462 22.87 2.23462 22.57C1.63462 22.27 1.26465 21.67 1.26465 21V6C1.26465 2.98 2.99465 1.25 6.01465 1.25H18.0146C18.4246 1.25 18.7646 1.59 18.7646 2C18.7646 2.41 18.4246 2.75 18.0146 2.75C17.3246 2.75 16.7646 3.31 16.7646 4V21C16.7646 21.67 16.3946 22.27 15.7946 22.57C15.2046 22.87 14.4947 22.8 13.9647 22.4L12.2546 21.12C12.1546 21.04 12.0146 21.06 11.9346 21.14L10.2546 22.82C9.91464 23.15 9.47464 23.33 9.00464 23.33ZM5.91461 19.57C6.37461 19.57 6.82461 19.74 7.16461 20.09L8.82465 21.76C8.88465 21.82 8.96464 21.83 9.00464 21.83C9.04464 21.83 9.12463 21.82 9.18463 21.76L10.8646 20.08C11.4846 19.46 12.4647 19.4 13.1547 19.93L14.8546 21.2C14.9646 21.28 15.0646 21.25 15.1146 21.22C15.1646 21.19 15.2546 21.13 15.2546 21V4C15.2546 3.55 15.3646 3.12 15.5546 2.75H6.00464C3.78464 2.75 2.75464 3.78 2.75464 6V21C2.75464 21.14 2.84465 21.2 2.89465 21.23C2.95465 21.26 3.05466 21.28 3.15466 21.2L4.86462 19.92C5.17462 19.69 5.54461 19.57 5.91461 19.57Z" fill="#171717"/>
<path d="M12.0049 9.75H6.00488C5.59488 9.75 5.25488 9.41 5.25488 9C5.25488 8.59 5.59488 8.25 6.00488 8.25H12.0049C12.4149 8.25 12.7549 8.59 12.7549 9C12.7549 9.41 12.4149 9.75 12.0049 9.75Z" fill="#171717"/>
<path d="M11.2549 13.75H6.75488C6.34488 13.75 6.00488 13.41 6.00488 13C6.00488 12.59 6.34488 12.25 6.75488 12.25H11.2549C11.6649 12.25 12.0049 12.59 12.0049 13C12.0049 13.41 11.6649 13.75 11.2549 13.75Z" fill="#171717"/>
</svg>
