<svg width="24" height="24" viewBox="0 0 24 24" fill="none" xmlns="http://www.w3.org/2000/svg">
<path d="M22.0078 6V8.42C22.0078 10 21.0078 11 19.4278 11H16.0078V4.01C16.0078 2.9 16.9178 2 18.0278 2C19.1178 2.01 20.1178 2.45 20.8378 3.17C21.5578 3.9 22.0078 4.9 22.0078 6Z" fill="#171717"/>
<path opacity="0.4" d="M2.00781 7V21C2.00781 21.83 2.94782 22.3 3.60782 21.8L5.31781 20.52C5.71781 20.22 6.27782 20.26 6.63782 20.62L8.29781 22.29C8.68781 22.68 9.32782 22.68 9.71782 22.29L11.3978 20.61C11.7478 20.26 12.3078 20.22 12.6978 20.52L14.4078 21.8C15.0678 22.29 16.0078 21.82 16.0078 21V4C16.0078 2.9 16.9078 2 18.0078 2H7.00781H6.00781C3.00781 2 2.00781 3.79 2.00781 6V7Z" fill="#171717"/>
<path d="M11.7578 9.25H9.75781V7.25C9.75781 6.84 9.41781 6.5 9.00781 6.5C8.59781 6.5 8.25781 6.84 8.25781 7.25V9.25H6.25781C5.84781 9.25 5.50781 9.59 5.50781 10C5.50781 10.41 5.84781 10.75 6.25781 10.75H8.25781V12.75C8.25781 13.16 8.59781 13.5 9.00781 13.5C9.41781 13.5 9.75781 13.16 9.75781 12.75V10.75H11.7578C12.1678 10.75 12.5078 10.41 12.5078 10C12.5078 9.59 12.1678 9.25 11.7578 9.25Z" fill="#171717"/>
</svg>
