<svg width="24" height="24" viewBox="0 0 24 24" fill="none" xmlns="http://www.w3.org/2000/svg">
<path d="M19.4215 11.75H16.0015C15.5915 11.75 15.2515 11.41 15.2515 11V4.01C15.2515 3.27 15.5415 2.58 16.0615 2.06C16.5815 1.54 17.2715 1.25 18.0115 1.25H18.0215C19.2715 1.26 20.4515 1.75 21.3515 2.64C22.2515 3.55 22.7415 4.75 22.7415 6V8.42C22.7515 10.41 21.4115 11.75 19.4215 11.75ZM16.7515 10.25H19.4215C20.5815 10.25 21.2515 9.58 21.2515 8.42V6C21.2515 5.14 20.9115 4.32 20.3015 3.7C19.6915 3.1 18.8715 2.76 18.0215 2.75C18.0215 2.75 18.0215 2.75 18.0115 2.75C17.6815 2.75 17.3615 2.88 17.1215 3.12C16.8815 3.36 16.7515 3.67 16.7515 4.01V10.25Z" fill="#171717"/>
<path d="M9.00123 23.33C8.53123 23.33 8.09123 23.15 7.76123 22.81L6.10123 21.14C6.01123 21.05 5.87122 21.04 5.77122 21.12L4.06123 22.4C3.53123 22.8 2.83123 22.87 2.23123 22.57C1.63123 22.27 1.26123 21.67 1.26123 21V6C1.26123 2.98 2.99123 1.25 6.01123 1.25H18.0112C18.4212 1.25 18.7612 1.59 18.7612 2C18.7612 2.41 18.4212 2.75 18.0112 2.75C17.3212 2.75 16.7612 3.31 16.7612 4V21C16.7612 21.67 16.3912 22.27 15.7912 22.57C15.1912 22.87 14.4912 22.81 13.9612 22.41L12.2512 21.13C12.1512 21.05 12.0112 21.07 11.9312 21.15L10.2512 22.83C9.91123 23.15 9.47123 23.33 9.00123 23.33ZM5.91123 19.57C6.37123 19.57 6.82123 19.74 7.16123 20.09L8.82123 21.76C8.88123 21.82 8.96123 21.83 9.00123 21.83C8.99123 21.81 9.12123 21.82 9.18123 21.76L10.8612 20.08C11.4812 19.46 12.4612 19.4 13.1512 19.93L14.8512 21.2C14.9612 21.28 15.0612 21.25 15.1112 21.22C15.1612 21.19 15.2512 21.13 15.2512 21V4C15.2512 3.55 15.3612 3.12 15.5512 2.75H6.00123C3.78123 2.75 2.75123 3.78 2.75123 6V21C2.75123 21.14 2.84123 21.2 2.89123 21.23C2.95123 21.26 3.05123 21.28 3.15123 21.2L4.86123 19.92C5.17123 19.69 5.54123 19.57 5.91123 19.57Z" fill="#171717"/>
<path d="M11.7515 10.75H6.25146C5.84146 10.75 5.50146 10.41 5.50146 10C5.50146 9.59 5.84146 9.25 6.25146 9.25H11.7515C12.1615 9.25 12.5015 9.59 12.5015 10C12.5015 10.41 12.1615 10.75 11.7515 10.75Z" fill="#171717"/>
</svg>
