<svg width="25" height="24" viewBox="0 0 25 24" fill="none" xmlns="http://www.w3.org/2000/svg">
<path opacity="0.4" d="M6.75955 19.7C7.57955 18.82 8.82953 18.89 9.54953 19.85L10.5595 21.2C11.3695 22.27 12.6795 22.27 13.4895 21.2L14.4995 19.85C15.2195 18.89 16.4696 18.82 17.2896 19.7C19.0696 21.6 20.5195 20.97 20.5195 18.31V7.04999C20.5195 3.01999 19.5795 2.01001 15.7995 2.01001H8.23953C4.45953 2.01001 3.51953 3.01999 3.51953 7.04999V18.31C3.52953 20.97 4.98955 21.59 6.75955 19.7Z" fill="#171717"/>
<path d="M14.8697 9.98993L14.3697 10.4999H14.3597L11.3297 13.5299C11.1997 13.6599 10.9297 13.7999 10.7397 13.8199L9.38972 14.0199C8.89972 14.0899 8.55974 13.7399 8.62974 13.2599L8.81974 11.8999C8.84974 11.7099 8.97972 11.4499 9.10972 11.3099L12.1497 8.27994L12.6497 7.76993C12.9797 7.43993 13.3497 7.19995 13.7497 7.19995C14.0897 7.19995 14.4597 7.35993 14.8697 7.76993C15.7697 8.66993 15.4797 9.37993 14.8697 9.98993Z" fill="#171717"/>
</svg>
