<svg width="25" height="24" viewBox="0 0 25 24" fill="none" xmlns="http://www.w3.org/2000/svg">
<path d="M12.0452 22.75C11.2552 22.75 10.5052 22.35 9.98517 21.64L8.97517 20.29C8.76517 20.01 8.48517 19.85 8.18517 19.83C7.88517 19.81 7.58517 19.95 7.34517 20.2L6.77517 19.7L7.32517 20.21C5.87517 21.75 4.77517 21.63 4.24517 21.42C3.70517 21.21 2.79517 20.52 2.79517 18.3V7.04C2.79517 2.6 4.07517 1.25 8.26517 1.25H15.8152C20.0052 1.25 21.2852 2.6 21.2852 7.04V18.3C21.2852 20.51 20.3752 21.2 19.8352 21.42C19.3052 21.63 18.2052 21.75 16.7552 20.21C16.5152 19.95 16.2052 19.82 15.9052 19.84C15.6052 19.86 15.3152 20.02 15.1052 20.3L14.0952 21.65C13.5852 22.35 12.8352 22.75 12.0452 22.75ZM8.12517 18.33C8.16517 18.33 8.21517 18.33 8.25517 18.33C8.99517 18.37 9.69517 18.76 10.1652 19.39L11.1852 20.74C11.6752 21.39 12.4252 21.39 12.9152 20.74L13.9252 19.39C14.3952 18.76 15.0952 18.37 15.8452 18.33C16.5952 18.29 17.3252 18.6 17.8652 19.18C18.6252 19.99 19.1152 20.09 19.2952 20.02C19.5352 19.92 19.7952 19.34 19.7952 18.3V7.04C19.7952 3.43 19.1652 2.75 15.8252 2.75H8.26517C4.92517 2.75 4.29517 3.43 4.29517 7.04V18.3C4.29517 19.35 4.55517 19.93 4.79517 20.02C4.97517 20.09 5.46517 19.99 6.22517 19.18C6.74517 18.63 7.42517 18.33 8.12517 18.33Z" fill="#171717"/>
<path d="M15.0452 14C14.4852 14 14.0452 13.55 14.0452 13C14.0452 12.45 14.4952 12 15.0452 12C15.5952 12 16.0452 12.45 16.0452 13C16.0452 13.55 15.6052 14 15.0452 14Z" fill="#171717"/>
<path d="M9.04517 9C8.48517 9 8.04517 8.55 8.04517 8C8.04517 7.45 8.49517 7 9.04517 7C9.59517 7 10.0452 7.45 10.0452 8C10.0452 8.55 9.60517 9 9.04517 9Z" fill="#171717"/>
<path d="M8.67523 14.55C8.48523 14.55 8.29523 14.48 8.14523 14.33C7.85523 14.04 7.85523 13.56 8.14523 13.27L14.8752 6.54001C15.1652 6.25001 15.6452 6.25001 15.9352 6.54001C16.2252 6.83001 16.2252 7.31001 15.9352 7.60001L9.20523 14.33C9.06523 14.48 8.87523 14.55 8.67523 14.55Z" fill="#171717"/>
</svg>
