<svg width="25" height="24" viewBox="0 0 25 24" fill="none" xmlns="http://www.w3.org/2000/svg">
<path d="M19.4771 11.75H16.0571C15.6471 11.75 15.3071 11.41 15.3071 11V4.01C15.3071 3.27 15.5971 2.58 16.1171 2.06C16.6371 1.54 17.3271 1.25 18.0671 1.25H18.0771C19.3271 1.26 20.5071 1.75 21.4071 2.64C22.3071 3.55 22.7971 4.75 22.7971 6V8.42C22.8071 10.41 21.4671 11.75 19.4771 11.75ZM16.8071 10.25H19.4771C20.6371 10.25 21.3071 9.58 21.3071 8.42V6C21.3071 5.14 20.9671 4.32 20.3571 3.7C19.7471 3.1 18.9371 2.76 18.0771 2.75C18.0771 2.75 18.0771 2.75 18.0671 2.75C17.7371 2.75 17.4171 2.88 17.1771 3.12C16.9371 3.36 16.8071 3.67 16.8071 4.01V10.25Z" fill="#171717"/>
<path d="M9.05688 23.33C8.58688 23.33 8.14689 23.15 7.81689 22.81L6.15686 21.14C6.06686 21.05 5.9269 21.04 5.8269 21.12L4.11688 22.4C3.58688 22.8 2.88687 22.87 2.28687 22.57C1.68687 22.27 1.31689 21.67 1.31689 21V6C1.31689 2.98 3.04689 1.25 6.06689 1.25H18.0669C18.4769 1.25 18.8169 1.59 18.8169 2C18.8169 2.41 18.4769 2.75 18.0669 2.75C17.3769 2.75 16.8169 3.31 16.8169 4V21C16.8169 21.67 16.4469 22.27 15.8469 22.57C15.2569 22.87 14.5469 22.8 14.0169 22.4L12.3069 21.12C12.2069 21.04 12.0669 21.06 11.9869 21.14L10.3069 22.82C9.96688 23.15 9.52689 23.33 9.05688 23.33ZM5.96686 19.57C6.42686 19.57 6.87686 19.74 7.21686 20.09L8.87689 21.76C8.93689 21.82 9.01688 21.83 9.05688 21.83C9.09688 21.83 9.17688 21.82 9.23688 21.76L10.9169 20.08C11.5369 19.46 12.5169 19.4 13.2069 19.93L14.9069 21.2C15.0169 21.28 15.1169 21.25 15.1669 21.22C15.2169 21.19 15.3069 21.13 15.3069 21V4C15.3069 3.55 15.4169 3.12 15.6069 2.75H6.05688C3.83688 2.75 2.80688 3.78 2.80688 6V21C2.80688 21.14 2.8969 21.2 2.9469 21.23C3.0069 21.26 3.10691 21.28 3.20691 21.2L4.91687 19.92C5.22687 19.69 5.59686 19.57 5.96686 19.57Z" fill="#171717"/>
</svg>
