<svg width="24" height="24" viewBox="0 0 24 24" fill="none" xmlns="http://www.w3.org/2000/svg">
<path d="M2.00999 7.14C2.00999 5.92 2.94 4.57 4.08 4.14L9.06 2.26998C9.88 1.95998 11.24 1.95998 12.06 2.26998L17.03 4.14C17.98 4.5 18.79 5.49998 19.04 6.51998H11.74C11.52 6.51998 11.32 6.52999 11.13 6.52999C9.27999 6.63999 8.79999 7.31 8.79999 9.42V14.85C8.79999 17.16 9.38999 17.75 11.74 17.75H17.66C17.57 17.83 17.48 17.9 17.39 17.98L13.12 21.18C11.71 22.23 9.40999 22.23 7.98999 21.18L3.70999 17.98C2.76999 17.28 2 15.73 2 14.56V11.24" stroke="#171717" stroke-width="1.5" stroke-linecap="round" stroke-linejoin="round"/>
<path d="M8.81006 11.22H22.0101" stroke="#171717" stroke-width="1.5" stroke-miterlimit="10" stroke-linecap="round" stroke-linejoin="round"/>
<path d="M22.0101 9.42001V14.97C21.9901 17.19 21.3801 17.74 19.0701 17.74H11.7501C9.40006 17.74 8.81006 17.15 8.81006 14.84V9.41C8.81006 7.31 9.29006 6.63999 11.1401 6.51999C11.3301 6.51999 11.5301 6.51001 11.7501 6.51001H19.0701C21.4201 6.52001 22.0101 7.10001 22.0101 9.42001Z" stroke="#171717" stroke-width="1.5" stroke-linecap="round" stroke-linejoin="round"/>
<path d="M11.3301 15.26H12.6601" stroke="#171717" stroke-width="1.5" stroke-miterlimit="10" stroke-linecap="round" stroke-linejoin="round"/>
<path d="M14.7598 15.26H18.0298" stroke="#171717" stroke-width="1.5" stroke-miterlimit="10" stroke-linecap="round" stroke-linejoin="round"/>
</svg>
