<svg width="24" height="24" viewBox="0 0 24 24" fill="none" xmlns="http://www.w3.org/2000/svg">
<path d="M10.5695 22.71C9.48953 22.71 8.39954 22.4 7.55954 21.77L3.27954 18.57C2.14954 17.73 1.26953 15.96 1.26953 14.54V7.12998C1.26953 5.59998 2.38954 3.96997 3.82954 3.42997L8.80954 1.55997C9.79954 1.18997 11.3495 1.18997 12.3395 1.55997L17.3095 3.42997C18.4795 3.86997 19.4695 5.03997 19.7895 6.33997C19.8395 6.55997 19.7895 6.79998 19.6495 6.97998C19.5095 7.15998 19.2895 7.26996 19.0595 7.26996L11.1495 7.27997C9.87954 7.35997 9.56953 7.56999 9.56953 9.41999V14.85C9.56953 16.76 9.81954 17 11.7595 17H17.6795C17.9895 17 18.2695 17.19 18.3795 17.48C18.4895 17.77 18.4095 18.1 18.1795 18.31C18.0695 18.4 17.9795 18.49 17.8695 18.57L13.5895 21.78C12.7295 22.4 11.6495 22.71 10.5695 22.71ZM10.5695 2.78998C10.1195 2.78998 9.65954 2.84998 9.32954 2.97998L4.34953 4.84998C3.50953 5.16998 2.75954 6.23997 2.75954 7.14997V14.56C2.75954 15.5 3.41954 16.82 4.16954 17.38L8.44954 20.58C9.59954 21.43 11.5295 21.43 12.6795 20.58L15.4495 18.51H11.7495C8.98954 18.51 8.05954 17.59 8.05954 14.86V9.42997C8.05954 7.29997 8.56953 5.94998 11.0995 5.78998L11.7495 5.77997H17.8995C17.5995 5.34997 17.1995 5.00998 16.7795 4.84998L11.8095 2.97998C11.4695 2.84998 11.0195 2.78998 10.5695 2.78998Z" fill="#171717"/>
<path d="M22.0096 11.97H8.80957C8.39957 11.97 8.05957 11.63 8.05957 11.22C8.05957 10.81 8.39957 10.47 8.80957 10.47H22.0096C22.4196 10.47 22.7596 10.81 22.7596 11.22C22.7596 11.63 22.4196 11.97 22.0096 11.97Z" fill="#171717"/>
<path d="M19.0696 18.5H11.7496C8.98957 18.5 8.05957 17.58 8.05957 14.85V9.42004C8.05957 7.29004 8.56956 5.94003 11.0996 5.78003L11.7496 5.77002H19.0696C21.8296 5.77002 22.7596 6.69004 22.7596 9.42004V14.97C22.7396 17.61 21.8096 18.5 19.0696 18.5ZM11.7496 7.27002L11.1396 7.28003C9.86957 7.36003 9.55957 7.57004 9.55957 9.42004V14.85C9.55957 16.76 9.80957 17 11.7496 17H19.0696C20.9796 17 21.2396 16.75 21.2596 14.97V9.43002C21.2596 7.52002 21.0096 7.28003 19.0696 7.28003H11.7496V7.27002Z" fill="#171717"/>
<path d="M12.6598 16.01H11.3198C10.9098 16.01 10.5698 15.67 10.5698 15.26C10.5698 14.85 10.9098 14.51 11.3198 14.51H12.6598C13.0698 14.51 13.4098 14.85 13.4098 15.26C13.4098 15.67 13.0798 16.01 12.6598 16.01Z" fill="#171717"/>
<path d="M18.0298 16.01H14.7598C14.3498 16.01 14.0098 15.67 14.0098 15.26C14.0098 14.85 14.3498 14.51 14.7598 14.51H18.0298C18.4398 14.51 18.7798 14.85 18.7798 15.26C18.7798 15.67 18.4498 16.01 18.0298 16.01Z" fill="#171717"/>
</svg>
