<svg width="24" height="24" viewBox="0 0 24 24" fill="none" xmlns="http://www.w3.org/2000/svg">
<path opacity="0.4" d="M9.42953 2.15994L3.92953 4.21994C2.87953 4.60994 2.01953 5.85993 2.01953 6.97993V15.0799C2.01953 15.8899 2.54954 16.9599 3.19954 17.4399L8.69954 21.5499C9.66954 22.2799 11.2595 22.2799 12.2295 21.5499L17.7295 17.4399C18.3795 16.9499 18.9095 15.8899 18.9095 15.0799V6.97993C18.9095 5.85993 18.0495 4.60994 16.9995 4.21994L11.4995 2.15994C10.9295 1.94994 9.99954 1.94994 9.42953 2.15994Z" fill="#171717"/>
<path d="M19.2699 6.76001H12.4199C12.2199 6.76001 12.0299 6.77002 11.8499 6.77002C10.1299 6.87002 9.66992 7.50002 9.66992 9.46002V9.85002C9.66992 10.2642 10.0057 10.6 10.4199 10.6H21.2599C21.6741 10.6 22.0099 10.2642 22.0099 9.85002V9.46002C22.0099 7.30002 21.4599 6.76001 19.2699 6.76001Z" fill="#171717"/>
<path d="M10.4297 11.7C10.0155 11.7 9.67969 12.0358 9.67969 12.45V14.54C9.67969 16.7 10.2297 17.25 12.4197 17.25H19.2697C21.4197 17.25 21.9897 16.73 22.0097 14.66V12.45C22.0097 12.0358 21.6739 11.7 21.2597 11.7H10.4297ZM13.2797 15.47H12.0297C11.7297 15.47 11.4897 15.23 11.4897 14.93C11.4897 14.63 11.7297 14.39 12.0297 14.39H13.2797C13.5797 14.39 13.8197 14.63 13.8197 14.93C13.8197 15.23 13.5797 15.47 13.2797 15.47ZM17.3297 15.47H14.8397C14.5397 15.47 14.2997 15.23 14.2997 14.93C14.2997 14.63 14.5397 14.39 14.8397 14.39H17.3297C17.6297 14.39 17.8697 14.63 17.8697 14.93C17.8797 15.23 17.6297 15.47 17.3297 15.47Z" fill="#171717"/>
</svg>
