<svg width="24" height="24" viewBox="0 0 24 24" fill="none" xmlns="http://www.w3.org/2000/svg">
<path d="M15.0044 22.75H9.00439C3.57439 22.75 1.25439 20.43 1.25439 15V9C1.25439 3.57 3.57439 1.25 9.00439 1.25H15.0044C20.4344 1.25 22.7544 3.57 22.7544 9V15C22.7544 20.43 20.4344 22.75 15.0044 22.75ZM9.00439 2.75C4.39439 2.75 2.75439 4.39 2.75439 9V15C2.75439 19.61 4.39439 21.25 9.00439 21.25H15.0044C19.6144 21.25 21.2544 19.61 21.2544 15V9C21.2544 4.39 19.6144 2.75 15.0044 2.75H9.00439Z" fill="#171717"/>
<path d="M16.0044 19.75H8.00439C5.58439 19.75 4.25439 18.42 4.25439 16V8C4.25439 5.58 5.58439 4.25 8.00439 4.25H16.0044C18.4244 4.25 19.7544 5.58 19.7544 8V16C19.7544 18.42 18.4244 19.75 16.0044 19.75ZM8.00439 5.75C6.42439 5.75 5.75439 6.42 5.75439 8V16C5.75439 17.58 6.42439 18.25 8.00439 18.25H16.0044C17.5844 18.25 18.2544 17.58 18.2544 16V8C18.2544 6.42 17.5844 5.75 16.0044 5.75H8.00439Z" fill="#171717"/>
<path d="M7.48439 15.25H5.00439C4.59439 15.25 4.25439 14.91 4.25439 14.5C4.25439 14.09 4.59439 13.75 5.00439 13.75H7.48439C8.45439 13.75 9.23439 12.96 9.23439 12C9.23439 11.04 8.44439 10.25 7.48439 10.25H5.00439C4.59439 10.25 4.25439 9.91 4.25439 9.5C4.25439 9.09 4.59439 8.75 5.00439 8.75H7.48439C9.27439 8.75 10.7344 10.21 10.7344 12C10.7344 13.79 9.28439 15.25 7.48439 15.25Z" fill="#171717"/>
<path d="M19.0044 10.74H16.0044C15.5944 10.74 15.2544 10.4 15.2544 9.98999C15.2544 9.57999 15.5944 9.23999 16.0044 9.23999H19.0044C19.4144 9.23999 19.7544 9.57999 19.7544 9.98999C19.7544 10.4 19.4144 10.74 19.0044 10.74Z" fill="#171717"/>
<path d="M19.0044 14.75H16.0044C15.5944 14.75 15.2544 14.41 15.2544 14C15.2544 13.59 15.5944 13.25 16.0044 13.25H19.0044C19.4144 13.25 19.7544 13.59 19.7544 14C19.7544 14.41 19.4144 14.75 19.0044 14.75Z" fill="#171717"/>
<path d="M7.25439 13C7.12439 13 6.99439 12.97 6.87439 12.92C6.75439 12.87 6.64439 12.8 6.54439 12.71C6.35439 12.52 6.25439 12.27 6.25439 12C6.25439 11.74 6.36439 11.48 6.54439 11.29C6.82439 11.02 7.2644 10.92 7.6344 11.08C7.7644 11.13 7.8744 11.2 7.9644 11.29C8.1444 11.48 8.25439 11.74 8.25439 12C8.25439 12.27 8.1544 12.52 7.9644 12.71C7.8644 12.8 7.7544 12.87 7.6344 12.92C7.5144 12.97 7.38439 13 7.25439 13Z" fill="#171717"/>
</svg>
