<svg width="24" height="24" viewBox="0 0 24 24" fill="none" xmlns="http://www.w3.org/2000/svg">
<path opacity="0.4" d="M16.1966 2H7.8266C4.1866 2 2.0166 4.17 2.0166 7.81V16.18C2.0166 19.82 4.1866 21.99 7.8266 21.99H16.1966C19.8366 21.99 22.0066 19.82 22.0066 16.18V7.81C22.0066 4.17 19.8366 2 16.1966 2Z" fill="#171717"/>
<path d="M22.0068 10.16H14.3368C14.3268 10.09 14.3268 10.01 14.3068 9.94004C14.0968 9.14004 13.4469 8.49004 12.6469 8.28004C11.2069 7.90004 9.89685 8.84004 9.67685 10.16H2.00684V11.66H9.91684C10.1168 12.04 10.3968 12.36 10.7568 12.58V14.56C10.7568 15.25 11.3168 15.81 12.0068 15.81C12.6968 15.81 13.2568 15.25 13.2568 14.56V12.58C13.6168 12.36 13.8968 12.04 14.0968 11.66H22.0068V10.16Z" fill="#171717"/>
</svg>
