<svg width="24" height="24" viewBox="0 0 24 24" fill="none" xmlns="http://www.w3.org/2000/svg">
<path d="M9.00684 22H15.0068C20.0068 22 22.0068 20 22.0068 15V9C22.0068 4 20.0068 2 15.0068 2H9.00684C4.00684 2 2.00684 4 2.00684 9V15C2.00684 20 4.00684 22 9.00684 22Z" stroke="#171717" stroke-width="1.5" stroke-linecap="round" stroke-linejoin="round"/>
<g opacity="0.4">
<path d="M14.357 10.91C14.257 11.62 13.837 12.22 13.257 12.58V14.56C13.257 15.25 12.697 15.81 12.007 15.81C11.317 15.81 10.757 15.25 10.757 14.56V12.58C10.177 12.22 9.75695 11.62 9.65695 10.91C9.63695 10.8 9.62695 10.68 9.62695 10.56C9.62695 9.04 11.067 7.86 12.647 8.28C13.447 8.49 14.0969 9.14 14.3069 9.94C14.3969 10.27 14.407 10.6 14.357 10.91Z" stroke="#171717" stroke-width="1.5" stroke-miterlimit="10"/>
<path d="M22.0069 10.91H14.3569" stroke="#171717" stroke-width="1.5" stroke-miterlimit="10"/>
<path d="M9.65683 10.91H2.00684" stroke="#171717" stroke-width="1.5" stroke-miterlimit="10"/>
</g>
</svg>
