<svg width="24" height="24" viewBox="0 0 24 24" fill="none" xmlns="http://www.w3.org/2000/svg">
<path opacity="0.4" d="M16.1942 2H7.82417C4.18417 2 2.01416 4.17 2.01416 7.81V16.18C2.01416 19.82 4.18417 21.99 7.82417 21.99H16.1942C19.8342 21.99 22.0042 19.82 22.0042 16.18V7.81C22.0042 4.17 19.8342 2 16.1942 2Z" fill="#171717"/>
<path d="M16.0044 9.23999H18.0044C18.5544 9.23999 19.0044 8.78999 19.0044 8.23999V8C19.0044 6.34 17.6644 5 16.0044 5H8.00439C6.34439 5 5.00439 6.34 5.00439 8V8.5C5.00439 9.05 5.45439 9.5 6.00439 9.5H7.34439C8.65439 9.5 9.8444 10.44 9.9744 11.75C10.1244 13.25 8.95439 14.51 7.48439 14.51H6.00439C5.45439 14.51 5.00439 14.96 5.00439 15.51V16.01C5.00439 17.67 6.34439 19.01 8.00439 19.01H16.0044C17.6644 19.01 19.0044 17.67 19.0044 16.01V15.76C19.0044 15.21 18.5544 14.76 18.0044 14.76H16.0044C15.5944 14.76 15.2544 14.42 15.2544 14.01C15.2544 13.6 15.5944 13.26 16.0044 13.26H18.0044C18.5544 13.26 19.0044 12.81 19.0044 12.26V11.75C19.0044 11.2 18.5544 10.75 18.0044 10.75H16.0044C15.5944 10.75 15.2544 10.42 15.2544 10C15.2544 9.58 15.5944 9.23999 16.0044 9.23999Z" fill="#171717"/>
<path d="M7.00439 13H6.00439C5.45439 13 5.00439 12.55 5.00439 12C5.00439 11.45 5.45439 11 6.00439 11H7.00439C7.55439 11 8.00439 11.45 8.00439 12C8.00439 12.55 7.55439 13 7.00439 13Z" fill="#171717"/>
</svg>
