<svg width="24" height="24" viewBox="0 0 24 24" fill="none" xmlns="http://www.w3.org/2000/svg">
<path d="M15.0068 22.75H9.00684C3.57684 22.75 1.25684 20.43 1.25684 15V9C1.25684 3.57 3.57684 1.25 9.00684 1.25H15.0068C20.4368 1.25 22.7568 3.57 22.7568 9V15C22.7568 20.43 20.4368 22.75 15.0068 22.75ZM9.00684 2.75C4.39684 2.75 2.75684 4.39 2.75684 9V15C2.75684 19.61 4.39684 21.25 9.00684 21.25H15.0068C19.6168 21.25 21.2568 19.61 21.2568 15V9C21.2568 4.39 19.6168 2.75 15.0068 2.75H9.00684Z" fill="#171717"/>
<path d="M12.007 16.56C10.907 16.56 10.007 15.66 10.007 14.56V12.96C9.41696 12.47 9.01696 11.78 8.91696 11.01C8.89696 10.89 8.87695 10.72 8.87695 10.56C8.87695 9.58998 9.31695 8.68998 10.097 8.08998C10.877 7.48998 11.8769 7.29998 12.8369 7.54998C13.8869 7.82998 14.7569 8.68999 15.0269 9.73998C15.1369 10.15 15.167 10.58 15.097 11.01C14.987 11.77 14.597 12.46 14.007 12.95V14.55C14.007 15.66 13.107 16.56 12.007 16.56ZM11.9969 8.93998C11.6369 8.93998 11.297 9.04998 11.007 9.27998C10.607 9.58998 10.377 10.06 10.377 10.56C10.377 10.63 10.377 10.71 10.397 10.77C10.467 11.27 10.737 11.68 11.157 11.94L11.507 12.16V14.56C11.507 14.84 11.727 15.06 12.007 15.06C12.287 15.06 12.507 14.84 12.507 14.56V12.16L12.857 11.94C13.267 11.68 13.547 11.27 13.607 10.8V10.78C13.647 10.56 13.637 10.34 13.577 10.13C13.437 9.57998 12.987 9.13998 12.447 8.99998C12.297 8.95998 12.1469 8.93998 11.9969 8.93998Z" fill="#171717"/>
<path d="M22.0069 10.16H14.3569V11.66H22.0069V10.16Z" fill="#171717"/>
<path d="M9.65683 10.16H2.00684V11.66H9.65683V10.16Z" fill="#171717"/>
</svg>
