<svg width="25" height="24" viewBox="0 0 25 24" fill="none" xmlns="http://www.w3.org/2000/svg">
<path opacity="0.4" d="M4.18747 15.3L8.71747 19.83C10.5775 21.6901 13.5975 21.6901 15.4675 19.83L19.8575 15.44C21.7175 13.58 21.7175 10.56 19.8575 8.69005L15.3175 4.17005C14.3675 3.22005 13.0575 2.71005 11.7175 2.78005L6.71747 3.02005C4.71747 3.11005 3.12747 4.70005 3.02747 6.69005L2.78747 11.69C2.72747 13.04 3.23747 14.35 4.18747 15.3Z" fill="#171717"/>
<path d="M9.5177 12.38C11.1083 12.38 12.3977 11.0906 12.3977 9.5C12.3977 7.90942 11.1083 6.62 9.5177 6.62C7.92712 6.62 6.6377 7.90942 6.6377 9.5C6.6377 11.0906 7.92712 12.38 9.5177 12.38Z" fill="#171717"/>
<path d="M13.0175 17.75C12.8275 17.75 12.6375 17.68 12.4875 17.53C12.1975 17.24 12.1975 16.76 12.4875 16.47L16.4875 12.47C16.7775 12.18 17.2575 12.18 17.5475 12.47C17.8375 12.76 17.8375 13.24 17.5475 13.53L13.5475 17.53C13.3975 17.68 13.2075 17.75 13.0175 17.75Z" fill="#171717"/>
</svg>
