<svg width="25" height="24" viewBox="0 0 25 24" fill="none" xmlns="http://www.w3.org/2000/svg">
<path d="M12.0877 21.98C10.6777 21.98 9.25767 21.44 8.18767 20.37L3.65767 15.84C2.55767 14.74 1.97767 13.22 2.04767 11.67L2.28767 6.65996C2.39767 4.26996 4.28767 2.37996 6.68767 2.25996L11.6877 2.01996C13.2477 1.94996 14.7577 2.52996 15.8577 3.62996L20.3877 8.15996C22.5377 10.31 22.5377 13.82 20.3877 15.97L15.9977 20.36C14.9177 21.44 13.5077 21.98 12.0877 21.98ZM4.71767 14.77L9.24767 19.3C10.8177 20.87 13.3677 20.87 14.9377 19.3L19.3277 14.91C20.8977 13.34 20.8977 10.79 19.3277 9.21996L14.7877 4.69996C13.9877 3.89996 12.8977 3.47996 11.7477 3.52996L6.74767 3.76996C5.12767 3.83996 3.85767 5.10996 3.77767 6.72996L3.53767 11.74C3.48767 12.86 3.91767 13.97 4.71767 14.77Z" fill="#171717"/>
<path d="M9.51758 12.75C7.72758 12.75 6.26758 11.29 6.26758 9.5C6.26758 7.71 7.72758 6.25 9.51758 6.25C11.3076 6.25 12.7676 7.71 12.7676 9.5C12.7676 11.29 11.3076 12.75 9.51758 12.75ZM9.51758 7.75C8.55758 7.75 7.76758 8.54 7.76758 9.5C7.76758 10.46 8.55758 11.25 9.51758 11.25C10.4776 11.25 11.2676 10.46 11.2676 9.5C11.2676 8.54 10.4776 7.75 9.51758 7.75Z" fill="#171717"/>
<path d="M13.0175 17.7499C12.8275 17.7499 12.6375 17.6799 12.4875 17.5299C12.1975 17.2399 12.1975 16.7599 12.4875 16.4699L16.4875 12.4699C16.7775 12.1799 17.2575 12.1799 17.5475 12.4699C17.8375 12.7599 17.8375 13.2399 17.5475 13.5299L13.5475 17.5299C13.3975 17.6799 13.2075 17.7499 13.0175 17.7499Z" fill="#171717"/>
</svg>
