<svg width="25" height="24" viewBox="0 0 25 24" fill="none" xmlns="http://www.w3.org/2000/svg">
<path d="M15.3176 4.16999C14.3676 3.21999 13.0576 2.70999 11.7176 2.77999L6.71755 3.01999C4.71755 3.10999 3.12755 4.69999 3.02755 6.68999L2.78755 11.69C2.72755 13.03 3.22755 14.34 4.17755 15.29L8.70755 19.82C10.5676 21.68 13.5876 21.68 15.4576 19.82L19.8476 15.43C21.7076 13.57 21.7076 10.55 19.8476 8.67999L18.7176 7.54999" stroke="#171717" stroke-width="1.5" stroke-linecap="round" stroke-linejoin="round"/>
<path d="M8.52758 11.8C8.82758 11.93 9.16758 12 9.51758 12C10.8976 12 12.0176 10.88 12.0176 9.5C12.0176 8.12 10.8976 7 9.51758 7C8.13758 7 7.01758 8.12 7.01758 9.5" stroke="#171717" stroke-width="1.5" stroke-linecap="round"/>
<path d="M13.0176 17L17.0176 13" stroke="#171717" stroke-width="1.5" stroke-miterlimit="10" stroke-linecap="round" stroke-linejoin="round"/>
</svg>
