<svg width="25" height="24" viewBox="0 0 25 24" fill="none" xmlns="http://www.w3.org/2000/svg">
<path d="M19.8456 15.45C21.7056 13.59 21.7056 10.57 19.8456 8.69999L15.3156 4.16999C14.3656 3.21999 13.0556 2.70999 11.7156 2.77999L6.7156 3.01999C4.7156 3.10999 3.1256 4.69999 3.0256 6.68999L2.7856 11.69C2.7256 13.03 3.2256 14.34 4.1756 15.29L8.7056 19.82C10.5656 21.68 13.5856 21.68 15.4556 19.82L16.9756 18.3" stroke="#171717" stroke-width="1.5" stroke-linecap="round" stroke-linejoin="round"/>
<path d="M7.01562 9.5C7.01562 10.88 8.13563 12 9.51562 12C10.8956 12 12.0156 10.88 12.0156 9.5C12.0156 8.12 10.8956 7 9.51562 7" stroke="#171717" stroke-width="1.5" stroke-linecap="round"/>
</svg>
