<svg width="25" height="24" viewBox="0 0 25 24" fill="none" xmlns="http://www.w3.org/2000/svg">
<path opacity="0.4" d="M4.18552 15.3L8.71552 19.83C10.5755 21.6901 13.5955 21.6901 15.4655 19.83L19.8555 15.44C21.7155 13.58 21.7155 10.56 19.8555 8.69005L15.3155 4.17005C14.3655 3.22005 13.0555 2.71005 11.7155 2.78005L6.71552 3.02005C4.71552 3.11005 3.12552 4.70005 3.02552 6.69005L2.78552 11.69C2.72552 13.04 3.23552 14.35 4.18552 15.3Z" fill="#171717"/>
<path d="M9.51574 12.38C11.1063 12.38 12.3957 11.0906 12.3957 9.5C12.3957 7.90942 11.1063 6.62 9.51574 6.62C7.92516 6.62 6.63574 7.90942 6.63574 9.5C6.63574 11.0906 7.92516 12.38 9.51574 12.38Z" fill="#171717"/>
</svg>
