<svg width="25" height="24" viewBox="0 0 25 24" fill="none" xmlns="http://www.w3.org/2000/svg">
<path d="M12.0857 21.9801C10.6757 21.9801 9.25571 21.4401 8.18571 20.3701L3.65571 15.8401C2.55571 14.7401 1.97571 13.2201 2.04571 11.6701L2.28571 6.67005C2.39571 4.28005 4.28571 2.39005 6.68571 2.27005L11.6857 2.03005C13.2357 1.97005 14.7557 2.54005 15.8557 3.64005L20.3857 8.17005C22.5357 10.3201 22.5357 13.8301 20.3857 15.9801L15.9957 20.3701C14.9157 21.4401 13.5057 21.9801 12.0857 21.9801ZM4.71571 14.7701L9.24571 19.3001C10.0057 20.0601 11.0157 20.4801 12.0857 20.4801C13.1557 20.4801 14.1657 20.0601 14.9257 19.3001L19.3157 14.9101C20.0757 14.1501 20.4957 13.1401 20.4957 12.0701C20.4957 11.0001 20.0757 9.99005 19.3157 9.23005L14.7857 4.70005C13.9857 3.90005 12.8757 3.47005 11.7557 3.53005L6.75571 3.77005C5.12571 3.84005 3.85571 5.11005 3.77571 6.73005L3.53571 11.7301C3.48571 12.8601 3.91571 13.9701 4.71571 14.7701Z" fill="#171717"/>
<path d="M9.51562 12.75C7.72563 12.75 6.26562 11.29 6.26562 9.5C6.26562 7.71 7.72563 6.25 9.51562 6.25C11.3056 6.25 12.7656 7.71 12.7656 9.5C12.7656 11.29 11.3056 12.75 9.51562 12.75ZM9.51562 7.75C8.55562 7.75 7.76562 8.54 7.76562 9.5C7.76562 10.46 8.55562 11.25 9.51562 11.25C10.4756 11.25 11.2656 10.46 11.2656 9.5C11.2656 8.54 10.4756 7.75 9.51562 7.75Z" fill="#171717"/>
</svg>
