<svg width="25" height="24" viewBox="0 0 25 24" fill="none" xmlns="http://www.w3.org/2000/svg">
<path d="M17.0466 20.75H7.04663C2.63663 20.75 1.29663 19.41 1.29663 15V14.5C1.29663 14.09 1.63663 13.75 2.04663 13.75C3.00663 13.75 3.79663 12.96 3.79663 12C3.79663 11.04 3.00663 10.25 2.04663 10.25C1.63663 10.25 1.29663 9.91 1.29663 9.5V9C1.29663 4.59 2.63663 3.25 7.04663 3.25H17.0466C21.4566 3.25 22.7966 4.59 22.7966 9V10C22.7966 10.41 22.4566 10.75 22.0466 10.75C21.0866 10.75 20.2966 11.54 20.2966 12.5C20.2966 13.46 21.0866 14.25 22.0466 14.25C22.4566 14.25 22.7966 14.59 22.7966 15C22.7966 19.41 21.4566 20.75 17.0466 20.75ZM2.79663 15.16C2.81663 18.6 3.52663 19.25 7.04663 19.25H17.0466C20.3866 19.25 21.1966 18.66 21.2866 15.66C19.8566 15.32 18.7966 14.03 18.7966 12.5C18.7966 10.97 19.8666 9.68 21.2966 9.34V9C21.2966 5.43 20.6266 4.75 17.0466 4.75H7.04663C3.52663 4.75 2.81663 5.4 2.79663 8.84C4.22663 9.18 5.29663 10.47 5.29663 12C5.29663 13.53 4.22663 14.82 2.79663 15.16Z" fill="#171717"/>
<path d="M10.0466 7.25C9.63663 7.25 9.29663 6.91 9.29663 6.5V4C9.29663 3.59 9.63663 3.25 10.0466 3.25C10.4566 3.25 10.7966 3.59 10.7966 4V6.5C10.7966 6.91 10.4566 7.25 10.0466 7.25Z" fill="#171717"/>
<path d="M10.0466 14.58C9.63663 14.58 9.29663 14.24 9.29663 13.83V10.16C9.29663 9.75003 9.63663 9.41003 10.0466 9.41003C10.4566 9.41003 10.7966 9.75003 10.7966 10.16V13.83C10.7966 14.25 10.4566 14.58 10.0466 14.58Z" fill="#171717"/>
<path d="M10.0466 20.75C9.63663 20.75 9.29663 20.41 9.29663 20V17.5C9.29663 17.09 9.63663 16.75 10.0466 16.75C10.4566 16.75 10.7966 17.09 10.7966 17.5V20C10.7966 20.41 10.4566 20.75 10.0466 20.75Z" fill="#171717"/>
</svg>
