<svg width="25" height="24" viewBox="0 0 25 24" fill="none" xmlns="http://www.w3.org/2000/svg">
<path opacity="0.4" d="M22.0481 9.20999V14.79C22.0481 18.89 20.7981 20.14 16.6981 20.14H9.95806V17.12C9.95806 16.74 9.63806 16.42 9.25806 16.42V7.57999C9.63806 7.57999 9.95806 7.25999 9.95806 6.87999V3.85999H16.6981C20.7981 3.85999 22.0481 5.10999 22.0481 9.20999Z" fill="#171717"/>
<path d="M18.518 11.9C18.688 11.74 18.748 11.49 18.678 11.27C18.608 11.04 18.418 10.88 18.178 10.85L16.898 10.66C16.848 10.65 16.808 10.62 16.788 10.58L16.218 9.42002C16.118 9.21002 15.898 9.08002 15.668 9.08002C15.428 9.08002 15.218 9.21002 15.108 9.42002L14.538 10.58C14.518 10.63 14.468 10.66 14.418 10.66L13.138 10.85C12.908 10.88 12.708 11.05 12.638 11.27C12.568 11.5 12.628 11.74 12.798 11.9L13.728 12.8C13.768 12.83 13.778 12.89 13.768 12.94L13.548 14.21C13.508 14.44 13.598 14.68 13.798 14.81C13.908 14.89 14.028 14.93 14.158 14.93C14.258 14.93 14.358 14.91 14.448 14.86L15.598 14.26C15.638 14.24 15.698 14.24 15.738 14.26L16.888 14.86C17.098 14.97 17.348 14.95 17.538 14.81C17.728 14.67 17.828 14.44 17.788 14.2L17.568 12.93C17.558 12.88 17.578 12.83 17.608 12.79L18.518 11.9Z" fill="#171717"/>
<path d="M9.25821 7.57999V16.42C8.87821 16.42 8.55821 16.74 8.55821 17.12V20.14H7.39821C3.44821 20.14 2.14821 18.96 2.05821 15.28C2.04821 15.09 2.12821 14.91 2.25821 14.78C2.38821 14.64 2.57821 14.57 2.75821 14.57C4.15821 14.57 5.30821 13.42 5.30821 12.01C5.30821 10.6 4.15821 9.43999 2.75821 9.43999C2.55821 9.43999 2.38821 9.36999 2.25821 9.22999C2.12821 9.09999 2.04821 8.90999 2.05821 8.72999C2.14821 5.03999 3.44821 3.85999 7.39821 3.85999H8.55821V6.87999C8.55821 7.26999 8.87821 7.57999 9.25821 7.57999Z" fill="#171717"/>
</svg>
