<svg width="25" height="24" viewBox="0 0 25 24" fill="none" xmlns="http://www.w3.org/2000/svg">
<path d="M10.0466 9.08V6.25C9.63663 6.25 9.29663 5.91 9.29663 5.5V3.25H7.04663C2.63663 3.25 1.29663 4.59 1.29663 9V9.5C1.29663 9.91 1.63663 10.25 2.04663 10.25C3.00663 10.25 3.79663 11.04 3.79663 12C3.79663 12.96 3.00663 13.75 2.04663 13.75C1.63663 13.75 1.29663 14.09 1.29663 14.5V15C1.29663 19.41 2.63663 20.75 7.04663 20.75H9.29663V18.5C9.29663 18.09 9.63663 17.75 10.0466 17.75V14.92C9.63663 14.92 9.29663 14.58 9.29663 14.17V9.83C9.29663 9.42 9.63663 9.08 10.0466 9.08Z" fill="#171717"/>
<path opacity="0.4" d="M20.2966 12.5C20.2966 13.46 21.0866 14.25 22.0466 14.25C22.4566 14.25 22.7966 14.59 22.7966 15C22.7966 19.41 21.4566 20.75 17.0466 20.75H10.7966V18.5C10.7966 18.09 10.4566 17.75 10.0466 17.75V14.92C10.4566 14.92 10.7966 14.58 10.7966 14.17V9.83C10.7966 9.42 10.4566 9.08 10.0466 9.08V6.25C10.4566 6.25 10.7966 5.91 10.7966 5.5V3.25H17.0466C21.4566 3.25 22.7966 4.59 22.7966 9V10C22.7966 10.41 22.4566 10.75 22.0466 10.75C21.0866 10.75 20.2966 11.54 20.2966 12.5Z" fill="#171717"/>
</svg>
