<svg width="25" height="24" viewBox="0 0 25 24" fill="none" xmlns="http://www.w3.org/2000/svg">
<path opacity="0.4" d="M21.3525 10.84C21.7425 10.84 22.0525 10.53 22.0525 10.14V9.20999C22.0525 5.10999 20.8025 3.85999 16.7025 3.85999H7.40249C3.30249 3.85999 2.05249 5.10999 2.05249 9.20999V9.67999C2.05249 10.07 2.36249 10.38 2.75249 10.38C3.65249 10.38 4.38249 11.11 4.38249 12.01C4.38249 12.91 3.65249 13.63 2.75249 13.63C2.36249 13.63 2.05249 13.94 2.05249 14.33V14.8C2.05249 18.9 3.30249 20.15 7.40249 20.15H16.7025C20.8025 20.15 22.0525 18.9 22.0525 14.8C22.0525 14.41 21.7425 14.1 21.3525 14.1C20.4525 14.1 19.7225 13.37 19.7225 12.47C19.7225 11.57 20.4525 10.84 21.3525 10.84Z" fill="#171717"/>
<path d="M15.0525 15.88C14.4925 15.88 14.0425 15.43 14.0425 14.88C14.0425 14.33 14.4925 13.88 15.0425 13.88C15.5925 13.88 16.0425 14.33 16.0425 14.88C16.0425 15.43 15.6125 15.88 15.0525 15.88Z" fill="#171717"/>
<path d="M9.05248 10.88C8.49248 10.88 8.04248 10.43 8.04248 9.88C8.04248 9.33 8.49248 8.88 9.04248 8.88C9.59248 8.88 10.0425 9.33 10.0425 9.88C10.0425 10.43 9.61248 10.88 9.05248 10.88Z" fill="#171717"/>
<path d="M8.68256 16.43C8.49256 16.43 8.30256 16.36 8.15256 16.21C7.86256 15.92 7.86256 15.44 8.15256 15.15L14.8826 8.42001C15.1726 8.13001 15.6526 8.13001 15.9426 8.42001C16.2326 8.71001 16.2326 9.19001 15.9426 9.48001L9.21256 16.21C9.07256 16.36 8.87256 16.43 8.68256 16.43Z" fill="#171717"/>
</svg>
