<svg width="25" height="24" viewBox="0 0 25 24" fill="none" xmlns="http://www.w3.org/2000/svg">
<path d="M22.0496 10.75V9.83002C22.0496 6.13002 21.1296 5.21002 17.4296 5.21002H11.0496V12" stroke="#171717" stroke-width="1.5" stroke-linecap="round" stroke-linejoin="round"/>
<path d="M10.9595 20H17.4295C21.1295 20 22.0495 19.08 22.0495 15.38C20.7695 15.38 19.7395 14.34 19.7395 13.07" stroke="#171717" stroke-width="1.5" stroke-linecap="round" stroke-linejoin="round"/>
<path d="M11.0495 17V20H8.27947C6.79947 20 5.92947 18.99 4.96947 16.67L4.78947 16.22C5.99947 15.74 6.58947 14.34 6.07947 13.13C5.58947 11.92 4.19947 11.34 2.97947 11.84L2.80947 11.41C1.36947 7.89 1.86947 6.66 5.38947 5.21L8.02947 4.13L11.0495 11.45V14" stroke="#171717" stroke-width="1.5" stroke-linecap="round" stroke-linejoin="round"/>
<path d="M8.21956 20H8.04956" stroke="#171717" stroke-width="1.5" stroke-linecap="round" stroke-linejoin="round"/>
</svg>
