<svg width="25" height="24" viewBox="0 0 25 24" fill="none" xmlns="http://www.w3.org/2000/svg">
<path d="M3.28811 15.27C2.90811 15.41 2.48811 15.49 2.05811 15.49C2.14811 19.08 3.21811 20 7.04811 20H17.0481C21.0481 20 22.0481 19 22.0481 15V9C22.0481 5 21.0481 4 17.0481 4H7.04811C3.21811 4 2.14811 4.92 2.05811 8.5C3.98811 8.5 5.54811 10.07 5.54811 12" stroke="#171717" stroke-width="1.5" stroke-linecap="round" stroke-linejoin="round"/>
<path d="M9.0481 4V7.5" stroke="#171717" stroke-width="1.5" stroke-linecap="round" stroke-linejoin="round"/>
<path d="M9.0481 16.5V20" stroke="#171717" stroke-width="1.5" stroke-linecap="round" stroke-linejoin="round"/>
<path d="M14.908 14.21C14.788 14.15 14.638 14.15 14.518 14.21L13.288 14.86C12.978 15.02 12.628 14.76 12.688 14.42L12.928 13.05C12.948 12.91 12.908 12.78 12.808 12.68L11.818 11.71C11.568 11.47 11.708 11.05 12.048 11L13.428 10.8C13.568 10.78 13.678 10.7 13.738 10.57L14.348 9.32002C14.498 9.01002 14.938 9.01002 15.088 9.32002L15.708 10.57C15.768 10.69 15.888 10.78 16.018 10.8L17.398 11C17.738 11.05 17.878 11.47 17.628 11.71L16.628 12.68C16.528 12.77 16.488 12.91 16.508 13.05" stroke="#171717" stroke-width="1.5" stroke-linecap="round" stroke-linejoin="round"/>
</svg>
