<svg width="25" height="24" viewBox="0 0 25 24" fill="none" xmlns="http://www.w3.org/2000/svg">
<path d="M22.0525 10V9C22.0525 5 21.0525 4 17.0525 4H7.05249C3.05249 4 2.05249 5 2.05249 9V9.5C3.43249 9.5 4.55249 10.62 4.55249 12C4.55249 13.38 3.43249 14.5 2.05249 14.5V15C2.05249 19 3.05249 20 7.05249 20H17.0525C21.0525 20 22.0525 19 22.0525 15C20.6725 15 19.5525 13.88 19.5525 12.5" stroke="#171717" stroke-width="1.5" stroke-linecap="round" stroke-linejoin="round"/>
<path d="M8.68237 15.68L15.4124 8.95001" stroke="#171717" stroke-width="1.5" stroke-linecap="round" stroke-linejoin="round"/>
<path d="M15.047 14.75H15.056" stroke="#171717" stroke-width="1.5" stroke-linecap="round" stroke-linejoin="round"/>
<path d="M9.047 9.25H9.05598" stroke="#171717" stroke-width="1.5" stroke-linecap="round" stroke-linejoin="round"/>
</svg>
