<svg width="25" height="24" viewBox="0 0 25 24" fill="none" xmlns="http://www.w3.org/2000/svg">
<path opacity="0.4" d="M19.8996 12.9401C19.8996 13.7401 20.5496 14.4001 21.3496 14.4001C21.7296 14.4001 22.0496 14.7101 22.0496 15.0901C22.0496 18.9301 20.8896 20.0901 17.0496 20.0901H11.7996V18.5001C11.7996 18.1101 11.4996 17.7901 11.1196 17.7601V14.9101C11.4996 14.8801 11.7996 14.5601 11.7996 14.1701V9.83005C11.7996 9.44005 11.4996 9.12005 11.1196 9.09005V4.93005H17.0496C20.8896 4.93005 22.0496 6.09005 22.0496 9.93005V10.7801C22.0496 11.1701 21.7296 11.4801 21.3496 11.4801C20.5496 11.4801 19.8996 12.1301 19.8996 12.9401Z" fill="#171717"/>
<path d="M11.1197 9.09006C10.7097 9.09006 10.2997 9.42006 10.2997 9.83006V14.1701C10.2997 14.5801 10.6397 14.9201 11.0497 14.9201C11.0697 14.9201 11.0997 14.9201 11.1197 14.9101V17.7601C11.0997 17.7501 11.0697 17.7501 11.0497 17.7501C10.6397 17.7501 10.2997 18.0901 10.2997 18.5001V20.0901H8.53965C6.65965 20.0901 5.68965 18.6801 4.80965 16.5501L4.63965 16.1301C4.49965 15.7701 4.66965 15.3601 5.02965 15.2201C5.39965 15.0801 5.68965 14.7901 5.83965 14.4101C5.99965 14.0401 5.99965 13.6301 5.84965 13.2601C5.52965 12.4901 4.64965 12.1201 3.86965 12.4301C3.69965 12.5101 3.49965 12.5101 3.32965 12.4301C3.15965 12.3601 3.02965 12.2201 2.94965 12.0401L2.79965 11.6401C1.30965 8.02006 1.95965 6.47006 5.57965 4.97006L8.02965 3.96006C8.38965 3.81006 8.79965 3.98006 8.93965 4.34006L11.1197 9.09006Z" fill="#171717"/>
</svg>
