<svg width="25" height="24" viewBox="0 0 25 24" fill="none" xmlns="http://www.w3.org/2000/svg">
<path d="M17.4295 20.75H10.9595C10.5495 20.75 10.2095 20.41 10.2095 20C10.2095 19.59 10.5495 19.25 10.9595 19.25H17.4295C20.4895 19.25 21.2095 18.75 21.2895 16.03C19.9695 15.69 18.9895 14.49 18.9895 13.07C18.9895 11.64 19.9695 10.43 21.2995 10.09V9.82996C21.2995 6.53996 20.7195 5.95996 17.4295 5.95996H11.7995V12C11.7995 12.41 11.4595 12.75 11.0495 12.75C10.6395 12.75 10.2995 12.41 10.2995 12V5.20996C10.2995 4.79996 10.6395 4.45996 11.0495 4.45996H17.4295C21.5495 4.45996 22.7995 5.70996 22.7995 9.82996V10.75C22.7995 11.16 22.4595 11.5 22.0495 11.5C21.1895 11.5 20.4895 12.2 20.4895 13.07C20.4895 13.93 21.1895 14.63 22.0495 14.63C22.4595 14.63 22.7995 14.97 22.7995 15.38C22.7995 19.5 21.5495 20.75 17.4295 20.75Z" fill="#171717"/>
<path d="M11.0495 20.75H8.27951C6.25951 20.75 5.21951 19.23 4.26951 16.95L4.07951 16.49C4.00951 16.31 4.00951 16.1 4.08951 15.92C4.16951 15.74 4.31951 15.59 4.49951 15.52C4.89951 15.36 5.20951 15.05 5.37951 14.66C5.54951 14.26 5.54951 13.82 5.37951 13.42C5.04951 12.58 4.09951 12.19 3.25951 12.52C3.06951 12.6 2.86951 12.59 2.67951 12.51C2.49951 12.43 2.34951 12.28 2.27951 12.1L2.10951 11.67C0.509508 7.77997 1.20951 6.10997 5.09951 4.49997L7.73951 3.41997C8.11951 3.25997 8.55951 3.44997 8.71951 3.82997L11.7495 11.17C11.7895 11.26 11.8095 11.36 11.8095 11.46V14C11.8095 14.41 11.4695 14.75 11.0595 14.75C10.6495 14.75 10.3095 14.41 10.3095 14V11.6L7.60951 5.08997L5.66951 5.88997C2.58951 7.15997 2.21951 7.93997 3.42951 10.94C4.81951 10.74 6.21951 11.49 6.76951 12.84C7.08951 13.61 7.08951 14.46 6.75951 15.23C6.53951 15.76 6.17951 16.21 5.71951 16.54C6.67951 18.8 7.37951 19.25 8.26951 19.25H10.2895V17C10.2895 16.59 10.6295 16.25 11.0395 16.25C11.4495 16.25 11.7895 16.59 11.7895 17V20C11.7995 20.41 11.4595 20.75 11.0495 20.75Z" fill="#171717"/>
<path d="M8.21956 20.75H8.04956C7.63956 20.75 7.29956 20.41 7.29956 20C7.29956 19.59 7.63956 19.25 8.04956 19.25H8.21956C8.62956 19.25 8.96956 19.59 8.96956 20C8.96956 20.41 8.62956 20.75 8.21956 20.75Z" fill="#171717"/>
</svg>
