<svg width="25" height="24" viewBox="0 0 25 24" fill="none" xmlns="http://www.w3.org/2000/svg">
<path d="M17.0525 20.75H7.05249C2.64249 20.75 1.30249 19.41 1.30249 15V14.5C1.30249 14.09 1.64249 13.75 2.05249 13.75C3.01249 13.75 3.80249 12.96 3.80249 12C3.80249 11.04 3.01249 10.25 2.05249 10.25C1.64249 10.25 1.30249 9.91 1.30249 9.5V9C1.30249 4.59 2.64249 3.25 7.05249 3.25H17.0525C21.4625 3.25 22.8025 4.59 22.8025 9V10C22.8025 10.41 22.4625 10.75 22.0525 10.75C21.0925 10.75 20.3025 11.54 20.3025 12.5C20.3025 13.46 21.0925 14.25 22.0525 14.25C22.4625 14.25 22.8025 14.59 22.8025 15C22.8025 19.41 21.4625 20.75 17.0525 20.75ZM2.80249 15.16C2.82249 18.6 3.53249 19.25 7.05249 19.25H17.0525C20.3925 19.25 21.2025 18.66 21.2925 15.66C19.8625 15.32 18.8025 14.03 18.8025 12.5C18.8025 10.97 19.8725 9.68 21.3025 9.34V9C21.3025 5.43 20.6225 4.75 17.0525 4.75H7.05249C3.53249 4.75 2.82249 5.4 2.80249 8.84C4.23249 9.18 5.30249 10.47 5.30249 12C5.30249 13.53 4.23249 14.82 2.80249 15.16Z" fill="#171717"/>
<path d="M15.0525 15.88C14.4925 15.88 14.0425 15.43 14.0425 14.88C14.0425 14.33 14.4925 13.88 15.0425 13.88C15.5925 13.88 16.0425 14.33 16.0425 14.88C16.0425 15.43 15.6125 15.88 15.0525 15.88Z" fill="#171717"/>
<path d="M9.05248 10.88C8.49248 10.88 8.04248 10.43 8.04248 9.88C8.04248 9.33 8.49248 8.88 9.04248 8.88C9.59248 8.88 10.0425 9.33 10.0425 9.88C10.0425 10.43 9.61248 10.88 9.05248 10.88Z" fill="#171717"/>
<path d="M8.68256 16.43C8.49256 16.43 8.30256 16.36 8.15256 16.21C7.86256 15.92 7.86256 15.44 8.15256 15.15L14.8826 8.42001C15.1726 8.13001 15.6526 8.13001 15.9426 8.42001C16.2326 8.71001 16.2326 9.19001 15.9426 9.48001L9.21256 16.21C9.07256 16.36 8.87256 16.43 8.68256 16.43Z" fill="#171717"/>
</svg>
