<svg width="25" height="24" viewBox="0 0 25 24" fill="none" xmlns="http://www.w3.org/2000/svg">
<path d="M16.7411 22.75H7.36114C3.19114 22.75 1.92114 21.48 1.92114 17.31V16.85C1.92114 16.44 2.26114 16.1 2.67114 16.1C3.55114 16.1 4.27114 15.38 4.27114 14.5C4.27114 13.62 3.55114 12.9 2.67114 12.9C2.26114 12.9 1.92114 12.56 1.92114 12.15V11.69C1.92114 7.52 3.19114 6.25 7.36114 6.25H16.7411C20.9111 6.25 22.1811 7.52 22.1811 11.69V12.63C22.1811 13.04 21.8411 13.38 21.4311 13.38C20.5511 13.38 19.8311 14.1 19.8311 14.98C19.8311 15.86 20.5511 16.57 21.4311 16.57C21.8411 16.57 22.1811 16.91 22.1811 17.32C22.1711 21.48 20.9011 22.75 16.7411 22.75ZM3.43114 17.51C3.45114 20.69 4.08114 21.25 7.37114 21.25H16.7511C19.8711 21.25 20.5911 20.74 20.6811 17.97C19.3411 17.63 18.3411 16.42 18.3411 14.97C18.3411 13.52 19.3411 12.3 20.6911 11.96V11.68C20.6911 8.33 20.1011 7.74 16.7511 7.74H7.36114C4.08114 7.74 3.45114 8.31 3.42114 11.48C4.77114 11.82 5.77114 13.04 5.77114 14.49C5.77114 15.94 4.77114 17.17 3.43114 17.51Z" fill="#171717"/>
<path d="M10.051 10.25C9.64103 10.25 9.30103 9.91 9.30103 9.5V7C9.30103 6.59 9.64103 6.25 10.051 6.25C10.461 6.25 10.801 6.59 10.801 7V9.5C10.801 9.91 10.461 10.25 10.051 10.25Z" fill="#171717"/>
<path d="M10.051 16.92C9.64103 16.92 9.30103 16.58 9.30103 16.17V12.84C9.30103 12.43 9.64103 12.09 10.051 12.09C10.461 12.09 10.801 12.43 10.801 12.84V16.17C10.801 16.58 10.461 16.92 10.051 16.92Z" fill="#171717"/>
<path d="M10.051 22.75C9.64103 22.75 9.30103 22.41 9.30103 22V19.5C9.30103 19.09 9.64103 18.75 10.051 18.75C10.461 18.75 10.801 19.09 10.801 19.5V22C10.801 22.41 10.461 22.75 10.051 22.75Z" fill="#171717"/>
<path d="M16.381 7.75001H7.29095C6.99095 7.75001 6.71095 7.57001 6.60095 7.29001C6.49095 7.01001 6.55095 6.68001 6.76095 6.47001L9.69095 3.54001C12.391 0.840015 14.041 0.840015 16.731 3.54001L17.331 4.14001C17.471 4.28001 17.551 4.47001 17.551 4.67001C17.551 4.87001 17.471 5.06001 17.331 5.20001C16.931 5.60001 16.821 6.19001 17.051 6.70001C17.161 6.93001 17.141 7.20002 17.001 7.42001C16.871 7.62001 16.631 7.75001 16.381 7.75001ZM9.10095 6.25001H15.431C15.411 5.72001 15.541 5.19001 15.811 4.73001L15.681 4.60001C13.591 2.51001 12.851 2.51001 10.761 4.60001L9.10095 6.25001Z" fill="#171717"/>
</svg>
