<svg width="25" height="24" viewBox="0 0 25 24" fill="none" xmlns="http://www.w3.org/2000/svg">
<path opacity="0.4" d="M20.8911 13.17C21.2811 13.17 21.5911 12.85 21.5911 12.45V11.57C21.5911 7.63995 20.3911 6.44995 16.4711 6.44995H10.1711V8.87995C10.5611 8.87995 10.8811 9.19995 10.8811 9.58995V12.27C10.8811 12.66 10.5611 12.98 10.1711 12.98V15.49C10.5611 15.49 10.8811 15.81 10.8811 16.2V18.88C10.8811 19.27 10.5611 19.59 10.1711 19.59V22H16.4711C20.3911 22 21.5911 20.8 21.5911 16.88C21.5911 16.49 21.2811 16.17 20.8911 16.17C20.0511 16.17 19.3811 15.5 19.3811 14.67C19.3811 13.84 20.0511 13.17 20.8911 13.17Z" fill="#171717"/>
<path d="M7.621 6.46C7.631 6.46 7.631 6.46 7.621 6.46H7.631H16.461C16.531 6.46 16.601 6.46 16.661 6.46C16.651 6.44 16.651 6.43 16.651 6.41C16.621 6.06 16.761 5.72 17.021 5.46C17.151 5.33 17.231 5.15 17.231 4.96C17.231 4.77 17.151 4.59 17.021 4.46L16.471 3.9C15.491 2.91 14.411 2 13.151 2C11.901 2 10.811 2.91 9.831 3.9L7.271 6.46C7.381 6.46 7.501 6.46 7.621 6.46Z" fill="#171717"/>
<path d="M9.46099 9.58996V12.27C9.46099 12.66 9.78099 12.98 10.171 12.98V15.49C9.78099 15.49 9.46099 15.81 9.46099 16.2V18.88C9.46099 19.27 9.78099 19.59 10.171 19.59V22H7.63099C3.71099 22 2.51099 20.8 2.51099 16.88V16.45C2.51099 16.05 2.82099 15.74 3.21099 15.74C4.05099 15.74 4.72099 15.06 4.72099 14.23C4.72099 13.4 4.05099 12.72 3.21099 12.72C2.82099 12.72 2.51099 12.41 2.51099 12.01V11.58C2.51099 7.64996 3.71099 6.45996 7.63099 6.45996H10.161V8.88996C9.78099 8.88996 9.46099 9.20996 9.46099 9.58996Z" fill="#171717"/>
</svg>
