<svg width="25" height="24" viewBox="0 0 25 24" fill="none" xmlns="http://www.w3.org/2000/svg">
<path d="M17.0481 20.75H7.04807C2.79807 20.75 1.40807 19.48 1.30807 15.52C1.30807 15.32 1.37807 15.12 1.51807 14.98C1.65807 14.84 1.84807 14.75 2.05807 14.75C3.56807 14.75 4.79807 13.51 4.79807 12C4.79807 10.49 3.56807 9.25 2.05807 9.25C1.85807 9.25 1.66807 9.17 1.51807 9.02C1.36807 8.87 1.29807 8.68 1.30807 8.48C1.40807 4.52 2.79807 3.25 7.04807 3.25H17.0481C21.4581 3.25 22.7981 4.59 22.7981 9V15C22.7981 19.41 21.4581 20.75 17.0481 20.75ZM2.83807 16.18C3.00807 18.72 3.86807 19.25 7.04807 19.25H17.0481C20.6281 19.25 21.2981 18.57 21.2981 15V9C21.2981 5.43 20.6281 4.75 17.0481 4.75H7.04807C3.86807 4.75 3.00807 5.29 2.83807 7.82C4.80807 8.2 6.29807 9.93 6.29807 12C6.29807 14.07 4.80807 15.8 2.83807 16.18Z" fill="#171717"/>
<path d="M9.0481 8.25C8.6381 8.25 8.2981 7.91 8.2981 7.5V4C8.2981 3.59 8.6381 3.25 9.0481 3.25C9.4581 3.25 9.7981 3.59 9.7981 4V7.5C9.7981 7.91 9.4581 8.25 9.0481 8.25Z" fill="#171717"/>
<path d="M9.0481 20.75C8.6381 20.75 8.2981 20.41 8.2981 20V16.5C8.2981 16.09 8.6381 15.75 9.0481 15.75C9.4581 15.75 9.7981 16.09 9.7981 16.5V20C9.7981 20.41 9.4581 20.75 9.0481 20.75Z" fill="#171717"/>
<path d="M13.088 15.65C12.848 15.65 12.608 15.57 12.408 15.43C12.048 15.17 11.868 14.73 11.948 14.29L12.158 13.1L11.288 12.25C10.968 11.94 10.858 11.48 10.988 11.06C11.128 10.64 11.488 10.33 11.928 10.27L13.128 10.09L13.668 8.99998C13.868 8.59998 14.268 8.34998 14.708 8.34998C15.158 8.34998 15.558 8.59998 15.748 8.99998L16.288 10.09L17.488 10.27C17.928 10.33 18.288 10.64 18.428 11.06C18.568 11.48 18.448 11.94 18.128 12.25L17.258 13.1L17.468 14.29C17.548 14.73 17.368 15.17 17.008 15.43C16.648 15.69 16.178 15.72 15.788 15.52L14.718 14.96L13.638 15.52C13.468 15.61 13.278 15.65 13.088 15.65ZM12.818 11.65L13.328 12.15C13.608 12.42 13.728 12.8 13.668 13.18L13.548 13.88L14.178 13.55C14.518 13.37 14.918 13.37 15.258 13.55L15.888 13.88L15.768 13.18C15.708 12.79 15.828 12.41 16.108 12.15L16.618 11.65L15.918 11.55C15.538 11.49 15.208 11.25 15.038 10.91L14.728 10.27L14.418 10.91C14.248 11.25 13.918 11.49 13.538 11.55L12.818 11.65Z" fill="#171717"/>
</svg>
