<svg width="25" height="24" viewBox="0 0 25 24" fill="none" xmlns="http://www.w3.org/2000/svg">
<path d="M19.0811 14.97C19.0811 16.26 20.1411 17.31 21.4311 17.31C21.4311 21.06 20.4911 22 16.7411 22H7.36114C3.61114 22 2.67114 21.06 2.67114 17.31V16.85C3.96114 16.85 5.02114 15.79 5.02114 14.5C5.02114 13.21 3.96114 12.15 2.67114 12.15V11.69C2.68114 7.94 3.61114 7 7.36114 7H16.7311C20.4811 7 21.4211 7.94 21.4211 11.69V12.63" stroke="#171717" stroke-width="1.5" stroke-linecap="round" stroke-linejoin="round"/>
<path d="M16.381 7.00003H7.29102L10.221 4.07003C12.611 1.68003 13.811 1.68003 16.201 4.07003L16.801 4.67003C16.171 5.30003 16.021 6.23003 16.381 7.00003Z" stroke="#171717" stroke-width="1.5" stroke-linecap="round" stroke-linejoin="round"/>
<path d="M10.051 7L10.051 22" stroke="#171717" stroke-width="1.5" stroke-linecap="round" stroke-linejoin="round" stroke-dasharray="5 5"/>
</svg>
