<svg width="25" height="24" viewBox="0 0 25 24" fill="none" xmlns="http://www.w3.org/2000/svg">
<path opacity="0.4" d="M6.7478 19.7C7.5678 18.82 8.81781 18.89 9.53781 19.85L10.5478 21.2C11.3578 22.27 12.6678 22.27 13.4778 21.2L14.4878 19.85C15.2078 18.89 16.4578 18.82 17.2778 19.7C19.0578 21.6 20.5078 20.97 20.5078 18.31V7.04C20.5078 3.01 19.5678 2 15.7878 2H8.22781C4.44781 2 3.50781 3.01 3.50781 7.04V18.3C3.51781 20.97 4.9778 21.59 6.7478 19.7Z" fill="#171717"/>
<path d="M14.7676 10.75H9.26758C8.85758 10.75 8.51758 10.41 8.51758 10C8.51758 9.59 8.85758 9.25 9.26758 9.25H14.7676C15.1776 9.25 15.5176 9.59 15.5176 10C15.5176 10.41 15.1776 10.75 14.7676 10.75Z" fill="#171717"/>
</svg>
