<svg width="25" height="24" viewBox="0 0 25 24" fill="none" xmlns="http://www.w3.org/2000/svg">
<path d="M12.0176 22.75C11.2376 22.75 10.4776 22.35 9.9576 21.65L8.94759 20.3C8.73759 20.02 8.45759 19.86 8.15759 19.84C7.85759 19.83 7.5576 19.96 7.3176 20.21L6.76759 19.7L7.3176 20.21C5.8776 21.75 4.76759 21.63 4.23759 21.42C3.69759 21.21 2.7876 20.52 2.7876 18.3V7.04C2.7876 2.6 4.0676 1.25 8.2576 1.25H15.8176C20.0076 1.25 21.2876 2.6 21.2876 7.04V18.3C21.2876 20.51 20.3776 21.2 19.8376 21.42C19.3076 21.63 18.2076 21.75 16.7576 20.21C16.5176 19.95 16.2176 19.82 15.9076 19.84C15.6076 19.86 15.3176 20.02 15.1076 20.3L14.0976 21.65C13.5576 22.35 12.7976 22.75 12.0176 22.75ZM8.0976 18.33C8.1376 18.33 8.1876 18.33 8.2276 18.33C8.9676 18.37 9.66759 18.76 10.1376 19.39L11.1476 20.74C11.6376 21.39 12.3876 21.39 12.8776 20.74L13.8876 19.39C14.3676 18.76 15.0576 18.37 15.8076 18.33C16.5576 18.29 17.2876 18.6 17.8276 19.18C18.5876 19.99 19.0776 20.09 19.2576 20.02C19.4976 19.92 19.7576 19.34 19.7576 18.3V7.04C19.7576 3.43 19.1276 2.75 15.7876 2.75H8.2276C4.8876 2.75 4.2576 3.43 4.2576 7.04V18.3C4.2576 19.35 4.5176 19.93 4.7576 20.02C4.9276 20.09 5.42759 19.99 6.18759 19.18C6.73759 18.63 7.4076 18.33 8.0976 18.33Z" fill="#171717"/>
<path d="M14.7676 10.75H9.26758C8.85758 10.75 8.51758 10.41 8.51758 10C8.51758 9.59 8.85758 9.25 9.26758 9.25H14.7676C15.1776 9.25 15.5176 9.59 15.5176 10C15.5176 10.41 15.1776 10.75 14.7676 10.75Z" fill="#171717"/>
</svg>
