<svg width="25" height="24" viewBox="0 0 25 24" fill="none" xmlns="http://www.w3.org/2000/svg">
<path d="M14.1777 10H14.7677" stroke="#171717" stroke-width="1.5" stroke-linecap="round" stroke-linejoin="round"/>
<path d="M9.26758 10H11.6676" stroke="#171717" stroke-width="1.5" stroke-linecap="round" stroke-linejoin="round"/>
<path d="M3.51781 11V18.3C3.51781 20.96 4.9778 21.59 6.7478 19.69L6.75781 19.68C7.57781 18.81 8.82781 18.88 9.53781 19.83L10.5478 21.18C11.3578 22.25 12.6678 22.25 13.4778 21.18L14.4878 19.83C15.2078 18.87 16.4578 18.8 17.2778 19.68C19.0578 21.58 20.5078 20.95 20.5078 18.29V7.04C20.5078 3.01 19.5678 2 15.7878 2H8.22781C4.44781 2 3.50781 3.01 3.50781 7.04" stroke="#171717" stroke-width="1.5" stroke-linecap="round" stroke-linejoin="round"/>
</svg>
