<svg width="24" height="24" viewBox="0 0 24 24" fill="none" xmlns="http://www.w3.org/2000/svg">
<path opacity="0.4" d="M22.002 12V17C22.002 20 20.002 22 17.002 22H7.63196C7.94196 21.74 8.21194 21.42 8.42194 21.06C8.79194 20.46 9.00195 19.75 9.00195 19C9.00195 16.79 7.21195 15 5.00195 15C3.80195 15 2.73195 15.53 2.00195 16.36V12C2.00195 9.28 3.64196 7.38 6.19196 7.06C6.45196 7.02 6.72195 7 7.00195 7H17.002C17.262 7 17.512 7.00999 17.752 7.04999C20.332 7.34999 22.002 9.26 22.002 12Z" fill="#171717"/>
<path d="M17.7519 7.04997C17.5119 7.00997 17.2619 6.99998 17.0019 6.99998H7.00189C6.72189 6.99998 6.45189 7.01998 6.19189 7.05998C6.33189 6.77998 6.53191 6.52001 6.77191 6.28001L10.0219 3.02C11.3919 1.66 13.6119 1.66 14.9819 3.02L16.7319 4.78996C17.3719 5.41996 17.7119 6.21997 17.7519 7.04997Z" fill="#171717"/>
<path d="M22.002 12.5H19.002C17.902 12.5 17.002 13.4 17.002 14.5C17.002 15.6 17.902 16.5 19.002 16.5H22.002" fill="#171717"/>
<path d="M5.00195 15C3.80195 15 2.73195 15.53 2.00195 16.36C1.38195 17.07 1.00195 17.99 1.00195 19C1.00195 19.75 1.21197 20.46 1.58197 21.06C2.27197 22.22 3.54195 23 5.00195 23C6.01195 23 6.93196 22.63 7.63196 22C7.94196 21.74 8.21194 21.42 8.42194 21.06C8.79194 20.46 9.00195 19.75 9.00195 19C9.00195 16.79 7.21195 15 5.00195 15ZM6.60193 20.58C6.45193 20.73 6.26196 20.8 6.07196 20.8C5.88196 20.8 5.69193 20.73 5.54193 20.58L5.01196 20.05L4.46198 20.6C4.31198 20.75 4.12195 20.82 3.93195 20.82C3.74195 20.82 3.55198 20.75 3.40198 20.6C3.11198 20.31 3.11198 19.83 3.40198 19.54L3.95197 18.99L3.42194 18.46C3.13194 18.17 3.13194 17.69 3.42194 17.4C3.71194 17.11 4.19193 17.11 4.48193 17.4L5.01196 17.93L5.51196 17.43C5.80196 17.14 6.28196 17.14 6.57196 17.43C6.86196 17.72 6.86196 18.2 6.57196 18.49L6.07196 18.99L6.60193 19.52C6.89193 19.81 6.89193 20.28 6.60193 20.58Z" fill="#171717"/>
</svg>
