<svg width="24" height="24" viewBox="0 0 24 24" fill="none" xmlns="http://www.w3.org/2000/svg">
<path d="M17.0029 22.75H12.0029C11.5929 22.75 11.2529 22.41 11.2529 22C11.2529 21.59 11.5929 21.25 12.0029 21.25H17.0029C19.5829 21.25 21.2529 19.58 21.2529 17V12C21.2529 9.71 19.8329 8 17.7129 7.75H17.0029H7.00293C6.72293 7.75 6.62293 7.75 6.44293 7.81C6.39293 7.83 6.34293 7.84003 6.29293 7.84003C4.08293 8.10003 2.75293 9.65 2.75293 12V13C2.75293 13.41 2.41293 13.75 2.00293 13.75C1.59293 13.75 1.25293 13.41 1.25293 13V12C1.25293 8.94 3.13293 6.72999 6.04293 6.35999C6.42293 6.24999 6.70293 6.25 7.00293 6.25H17.8029C20.8029 6.6 22.7529 8.91 22.7529 12V17C22.7529 20.44 20.4429 22.75 17.0029 22.75Z" fill="#171717"/>
<path d="M6.20276 7.84996C6.00276 7.84996 5.81277 7.76999 5.67277 7.62999C5.47277 7.42999 5.40277 7.12997 5.49277 6.85997C5.65277 6.38997 5.94276 6.10001 6.27276 5.77001L9.46277 2.47997C11.1128 0.829969 13.8928 0.829959 15.5328 2.46996L17.3328 4.27001C17.9928 4.93001 18.4128 5.83996 18.5428 6.90996C18.5728 7.11996 18.5028 7.33999 18.3628 7.49999C18.2228 7.65999 18.0128 7.74999 17.8028 7.74999H7.00277C6.72277 7.74999 6.62277 7.74999 6.44277 7.80999C6.36277 7.83999 6.28276 7.84996 6.20276 7.84996ZM7.89277 6.24999H16.8528C16.7328 5.92999 16.5428 5.61001 16.2728 5.33001L14.4728 3.53002C13.4028 2.46002 11.6028 2.46002 10.5328 3.53002L7.89277 6.24999Z" fill="#171717"/>
<path d="M22.0029 17.25H19.0029C17.4829 17.25 16.2529 16.02 16.2529 14.5C16.2529 12.98 17.4829 11.75 19.0029 11.75H22.0029C22.4129 11.75 22.7529 12.09 22.7529 12.5C22.7529 12.91 22.4129 13.25 22.0029 13.25H19.0029C18.3129 13.25 17.7529 13.81 17.7529 14.5C17.7529 15.19 18.3129 15.75 19.0029 15.75H22.0029C22.4129 15.75 22.7529 16.09 22.7529 16.5C22.7529 16.91 22.4129 17.25 22.0029 17.25Z" fill="#171717"/>
<path d="M5.80303 22.15C3.62303 22.15 1.85303 20.38 1.85303 18.2C1.85303 16.02 3.62303 14.25 5.80303 14.25C7.98303 14.25 9.75303 16.02 9.75303 18.2C9.75303 20.38 7.98303 22.15 5.80303 22.15ZM5.80303 15.75C4.45303 15.75 3.35303 16.85 3.35303 18.2C3.35303 19.55 4.45303 20.65 5.80303 20.65C7.15303 20.65 8.25303 19.55 8.25303 18.2C8.25303 16.85 7.15303 15.75 5.80303 15.75Z" fill="#171717"/>
<path d="M2.00287 22.75C1.81287 22.75 1.62287 22.68 1.47287 22.53C1.18287 22.24 1.18287 21.7599 1.47287 21.4699L2.47287 20.4699C2.76287 20.1799 3.24287 20.1799 3.53287 20.4699C3.82287 20.7599 3.82287 21.24 3.53287 21.53L2.53287 22.53C2.38287 22.68 2.19287 22.75 2.00287 22.75Z" fill="#171717"/>
</svg>
