<svg width="24" height="24" viewBox="0 0 24 24" fill="none" xmlns="http://www.w3.org/2000/svg">
<path d="M17.002 22.75H7.63196C7.31196 22.75 7.03194 22.55 6.92194 22.26C6.81194 21.97 6.90197 21.63 7.14197 21.43C7.38197 21.23 7.60196 20.97 7.76196 20.69C8.08196 20.18 8.24194 19.6 8.24194 19.01C8.24194 17.22 6.78194 15.76 4.99194 15.76C4.06194 15.76 3.17194 16.16 2.55194 16.87C2.34194 17.1 2.01192 17.19 1.72192 17.08C1.43192 16.97 1.23193 16.69 1.23193 16.38V12C1.23193 8.92 3.13197 6.69001 6.08197 6.32001C6.35197 6.28001 6.66193 6.25 6.98193 6.25H16.9819C17.2219 6.25 17.5319 6.26 17.8519 6.31C20.8019 6.65 22.7319 8.89 22.7319 12V17C22.7519 20.44 20.442 22.75 17.002 22.75ZM9.18195 21.25H17.002C19.582 21.25 21.252 19.58 21.252 17V12C21.252 9.66 19.8819 8.04998 17.6619 7.78998C17.4219 7.74998 17.212 7.75 17.002 7.75H7.00195C6.76195 7.75 6.53194 7.76999 6.30194 7.79999C4.10194 8.07999 2.75195 9.68 2.75195 12V14.82C3.43195 14.45 4.21195 14.25 5.00195 14.25C7.62195 14.25 9.75195 16.38 9.75195 19C9.75195 19.79 9.55195 20.57 9.18195 21.25Z" fill="#171717"/>
<path d="M6.19198 7.80995C5.95198 7.80995 5.732 7.69995 5.582 7.49995C5.412 7.26995 5.392 6.96992 5.522 6.71992C5.692 6.37992 5.93197 6.04995 6.24197 5.74995L9.49197 2.48994C11.152 0.839941 13.852 0.839941 15.512 2.48994L17.262 4.26997C18.002 4.99997 18.452 5.97997 18.502 7.01997C18.512 7.24997 18.422 7.46995 18.252 7.61995C18.082 7.76995 17.852 7.83994 17.632 7.79994C17.432 7.76994 17.222 7.75996 17.002 7.75996H7.00198C6.76198 7.75996 6.53197 7.77995 6.30197 7.80995C6.27197 7.80995 6.23198 7.80995 6.19198 7.80995ZM7.86197 6.24995H16.822C16.692 5.90995 16.482 5.59996 16.202 5.31996L14.442 3.53993C13.372 2.47993 11.622 2.47993 10.542 3.53993L7.86197 6.24995Z" fill="#171717"/>
<path d="M22.002 17.25H19.002C17.482 17.25 16.252 16.02 16.252 14.5C16.252 12.98 17.482 11.75 19.002 11.75H22.002C22.412 11.75 22.752 12.09 22.752 12.5C22.752 12.91 22.412 13.25 22.002 13.25H19.002C18.312 13.25 17.752 13.81 17.752 14.5C17.752 15.19 18.312 15.75 19.002 15.75H22.002C22.412 15.75 22.752 16.09 22.752 16.5C22.752 16.91 22.412 17.25 22.002 17.25Z" fill="#171717"/>
<path d="M5.00195 23.75C3.34195 23.75 1.78196 22.87 0.941956 21.44C0.491956 20.72 0.251953 19.87 0.251953 19C0.251953 17.85 0.671956 16.74 1.44196 15.87C2.34196 14.84 3.64195 14.25 5.00195 14.25C7.62195 14.25 9.75195 16.38 9.75195 19C9.75195 19.87 9.51195 20.72 9.06195 21.45C8.81195 21.87 8.49194 22.25 8.11194 22.57C7.28194 23.33 6.17195 23.75 5.00195 23.75ZM5.00195 15.75C4.07195 15.75 3.18195 16.15 2.56195 16.86C2.04195 17.46 1.75195 18.22 1.75195 19C1.75195 19.59 1.91192 20.17 2.22192 20.67C2.80192 21.65 3.87195 22.25 5.00195 22.25C5.79195 22.25 6.55196 21.96 7.13196 21.44C7.39196 21.22 7.61197 20.96 7.77197 20.68C8.09197 20.17 8.25195 19.59 8.25195 19C8.25195 17.21 6.79195 15.75 5.00195 15.75Z" fill="#171717"/>
<path d="M6.07187 20.7899C5.88187 20.7899 5.69184 20.72 5.54184 20.57L3.43186 18.46C3.14186 18.17 3.14186 17.69 3.43186 17.4C3.72186 17.11 4.20185 17.11 4.49185 17.4L6.60184 19.51C6.89184 19.8 6.89184 20.28 6.60184 20.57C6.45184 20.72 6.26187 20.7899 6.07187 20.7899Z" fill="#171717"/>
<path d="M3.93204 20.8199C3.74204 20.8199 3.55207 20.7499 3.40207 20.5999C3.11207 20.3099 3.11207 19.8299 3.40207 19.5399L5.51206 17.4299C5.80206 17.1399 6.28205 17.1399 6.57205 17.4299C6.86205 17.7199 6.86205 18.1999 6.57205 18.4899L4.46207 20.5999C4.31207 20.7499 4.12204 20.8199 3.93204 20.8199Z" fill="#171717"/>
</svg>
