<svg width="25" height="24" viewBox="0 0 25 24" fill="none" xmlns="http://www.w3.org/2000/svg">
<path d="M14.5381 15.44H9.53809" stroke="#171717" stroke-width="1.5" stroke-miterlimit="10" stroke-linecap="round" stroke-linejoin="round"/>
<path d="M12.0381 13V18" stroke="#171717" stroke-width="1.5" stroke-miterlimit="10" stroke-linecap="round" stroke-linejoin="round"/>
<path d="M12.0381 22H8.13809C7.89809 22 7.65809 21.98 7.42809 21.95C4.24809 21.74 2.54809 20.04 2.33809 16.86C2.30809 16.63 2.28809 16.39 2.28809 16.15V14.2C2.28809 12.19 3.50809 10.46 5.24809 9.71001C5.84809 9.46001 6.48809 9.32001 7.16809 9.32001H16.9281C17.4181 9.32001 17.8981 9.39001 18.3381 9.52001C20.3381 10.12 21.7981 11.99 21.7981 14.19V16.14C21.7981 16.34 21.7881 16.54 21.7781 16.74C21.5881 20.24 19.6381 22 15.9381 22" stroke="#171717" stroke-width="1.5" stroke-linecap="round" stroke-linejoin="round"/>
<path d="M12.9383 2.52003L12.9083 2.59003L10.0083 9.32003H7.15828C6.47828 9.32003 5.82828 9.46003 5.23828 9.71003L6.98828 5.53003L7.02828 5.43003L7.09828 5.27003C7.11828 5.21003 7.13828 5.15003 7.16828 5.10003C8.47828 2.07003 9.95828 1.38003 12.9383 2.52003Z" stroke="#171717" stroke-width="1.5" stroke-linecap="round" stroke-linejoin="round"/>
<path d="M18.3283 9.52002C17.8783 9.38002 17.3983 9.32002 16.9183 9.32002H10.0083L12.9083 2.59002L12.9383 2.52002C13.0883 2.57002 13.2283 2.64002 13.3783 2.70002L15.5883 3.63002C16.8183 4.14002 17.6783 4.67002 18.1983 5.31002C18.2983 5.43002 18.3783 5.54002 18.4483 5.67002C18.5383 5.81002 18.6083 5.95002 18.6483 6.10002C18.6883 6.19002 18.7183 6.28002 18.7383 6.36002C19.0083 7.20002 18.8483 8.23002 18.3283 9.52002Z" stroke="#171717" stroke-width="1.5" stroke-linecap="round" stroke-linejoin="round"/>
<path d="M6.98832 5.53003L5.23832 9.71003C3.49832 10.46 2.27832 12.19 2.27832 14.2V11.27C2.27832 8.43003 4.29832 6.06003 6.98832 5.53003Z" stroke="#171717" stroke-width="1.5" stroke-linecap="round" stroke-linejoin="round"/>
<path d="M21.7979 11.27V14.2C21.7979 12 20.3379 10.13 18.3379 9.52998C18.8579 8.22998 19.0079 7.20998 18.7579 6.35998C18.7379 6.26998 18.7079 6.17998 18.6679 6.09998C20.5279 7.05998 21.7979 9.02998 21.7979 11.27Z" stroke="#171717" stroke-width="1.5" stroke-linecap="round" stroke-linejoin="round"/>
</svg>
