<svg width="25" height="24" viewBox="0 0 25 24" fill="none" xmlns="http://www.w3.org/2000/svg">
<path d="M12.9217 2.52003L12.8917 2.59003L9.99168 9.32003H7.14168C6.46168 9.32003 5.81168 9.46003 5.22168 9.71003L6.97168 5.53003L7.01168 5.43003L7.08168 5.27003C7.10168 5.21003 7.12168 5.15003 7.15168 5.10003C8.46168 2.07003 9.94168 1.38003 12.9217 2.52003Z" stroke="#171717" stroke-width="1.5" stroke-linecap="round" stroke-linejoin="round"/>
<path d="M18.3117 9.52002C17.8617 9.38002 17.3817 9.32002 16.9017 9.32002H9.9917L12.8917 2.59002L12.9217 2.52002C13.0717 2.57002 13.2117 2.64002 13.3617 2.70002L15.5717 3.63002C16.8017 4.14002 17.6617 4.67002 18.1817 5.31002C18.2817 5.43002 18.3617 5.54002 18.4317 5.67002C18.5217 5.81002 18.5917 5.95002 18.6317 6.10002C18.6717 6.19002 18.7017 6.28002 18.7217 6.36002C18.9917 7.20002 18.8317 8.23002 18.3117 9.52002Z" stroke="#171717" stroke-width="1.5" stroke-linecap="round" stroke-linejoin="round"/>
<path d="M12.0215 22H8.12148C7.88148 22 7.64148 21.98 7.41148 21.95C4.23148 21.74 2.53148 20.04 2.32148 16.86C2.29148 16.63 2.27148 16.39 2.27148 16.15V14.2C2.27148 12.19 3.49148 10.46 5.23148 9.71001C5.83148 9.46001 6.47148 9.32001 7.15148 9.32001H16.9115C17.4015 9.32001 17.8815 9.39001 18.3215 9.52001C20.3215 10.12 21.7815 11.99 21.7815 14.19V16.14C21.7815 16.34 21.7715 16.54 21.7615 16.74C21.5715 20.24 19.6215 22 15.9215 22" stroke="#171717" stroke-width="1.5" stroke-linecap="round" stroke-linejoin="round"/>
<path d="M6.97172 5.53003L5.22172 9.71003C3.48172 10.46 2.26172 12.19 2.26172 14.2V11.27C2.26172 8.43003 4.28172 6.06003 6.97172 5.53003Z" stroke="#171717" stroke-width="1.5" stroke-linecap="round" stroke-linejoin="round"/>
<path d="M21.7813 11.27V14.2C21.7813 12 20.3213 10.13 18.3213 9.52998C18.8413 8.22998 18.9913 7.20998 18.7413 6.35998C18.7213 6.26998 18.6913 6.17998 18.6513 6.09998C20.5113 7.05998 21.7813 9.02998 21.7813 11.27Z" stroke="#171717" stroke-width="1.5" stroke-linecap="round" stroke-linejoin="round"/>
</svg>
