<svg width="25" height="24" viewBox="0 0 25 24" fill="none" xmlns="http://www.w3.org/2000/svg">
<path d="M13.042 9.75H7.04199C6.63199 9.75 6.29199 9.41 6.29199 9C6.29199 8.59 6.63199 8.25 7.04199 8.25H13.042C13.452 8.25 13.792 8.59 13.792 9C13.792 9.41 13.452 9.75 13.042 9.75Z" fill="#171717"/>
<path d="M19.0819 14.7999C17.5719 14.7999 16.2919 13.6799 16.1719 12.2399C16.0919 11.4099 16.3919 10.5999 16.9919 10.0099C17.4919 9.48995 18.2019 9.19995 18.9519 9.19995H21.0419C22.0319 9.22995 22.7919 10.0099 22.7919 10.9699V13.03C22.7919 13.99 22.0319 14.7699 21.0719 14.7999H19.0819ZM21.0119 10.7H18.9619C18.6119 10.7 18.2919 10.8299 18.0619 11.0699C17.7719 11.3499 17.6319 11.7299 17.6719 12.1099C17.7219 12.7699 18.3619 13.2999 19.0819 13.2999H21.0419C21.1719 13.2999 21.2919 13.18 21.2919 13.03V10.9699C21.2919 10.8199 21.1719 10.71 21.0119 10.7Z" fill="#171717"/>
<path d="M16.042 21.25H7.04199C3.60199 21.25 1.29199 18.94 1.29199 15.5V8.5C1.29199 5.42 3.19197 3.19001 6.14197 2.82001C6.41197 2.78001 6.72199 2.75 7.04199 2.75H16.042C16.282 2.75 16.592 2.76 16.912 2.81C19.862 3.15 21.792 5.39 21.792 8.5V9.95001C21.792 10.36 21.452 10.7 21.042 10.7H18.962C18.612 10.7 18.292 10.83 18.062 11.07L18.052 11.08C17.772 11.35 17.642 11.72 17.672 12.1C17.722 12.76 18.362 13.29 19.082 13.29H21.042C21.452 13.29 21.792 13.63 21.792 14.04V15.49C21.792 18.94 19.482 21.25 16.042 21.25ZM7.04199 4.25C6.80199 4.25 6.57198 4.26999 6.34198 4.29999C4.14198 4.57999 2.79199 6.18 2.79199 8.5V15.5C2.79199 18.08 4.46199 19.75 7.04199 19.75H16.042C18.622 19.75 20.292 18.08 20.292 15.5V14.8H19.082C17.572 14.8 16.292 13.68 16.172 12.24C16.092 11.42 16.392 10.6 16.992 10.02C17.512 9.49002 18.212 9.20001 18.962 9.20001H20.292V8.5C20.292 6.16 18.922 4.54998 16.702 4.28998C16.462 4.24998 16.252 4.25 16.042 4.25H7.04199Z" fill="#171717"/>
</svg>
