<svg width="25" height="24" viewBox="0 0 25 24" fill="none" xmlns="http://www.w3.org/2000/svg">
<path opacity="0.8" d="M12.9217 2.51997L12.8917 2.58997L9.99168 9.31997H7.14168C6.46168 9.31997 5.82168 9.44997 5.22168 9.70997L6.97168 5.52997L7.01168 5.43997L7.07168 5.27997C7.10168 5.20997 7.12168 5.14997 7.15168 5.09997C8.46168 2.06997 9.94168 1.37997 12.9217 2.51997Z" fill="#171717"/>
<path d="M18.3117 9.52002C17.8617 9.39002 17.3917 9.32002 16.9017 9.32002H9.9917L12.8917 2.59002L12.9217 2.52002C13.0617 2.57002 13.2117 2.64002 13.3617 2.69002L15.5717 3.62002C16.8017 4.13002 17.6617 4.66002 18.1917 5.30002C18.2817 5.42002 18.3617 5.53002 18.4417 5.66002C18.5317 5.80002 18.6017 5.94002 18.6417 6.09002C18.6817 6.18002 18.7117 6.26002 18.7317 6.35002C18.9917 7.20002 18.8317 8.23002 18.3117 9.52002Z" fill="#171717"/>
<path opacity="0.4" d="M21.7817 14.2V16.15C21.7817 16.35 21.7717 16.55 21.7617 16.74C21.5717 20.24 19.6217 22 15.9217 22H8.12172C7.87172 22 7.64172 21.98 7.41172 21.95C4.23172 21.74 2.53172 20.04 2.31172 16.86C2.28172 16.62 2.26172 16.39 2.26172 16.15V14.2C2.26172 12.19 3.48172 10.46 5.22172 9.71001C5.82172 9.45001 6.46172 9.32001 7.14172 9.32001H16.9017C17.3917 9.32001 17.8617 9.39001 18.3117 9.52001C20.3117 10.13 21.7817 11.99 21.7817 14.2Z" fill="#171717"/>
<path opacity="0.6" d="M6.97172 5.53003L5.22172 9.71003C3.48172 10.46 2.26172 12.19 2.26172 14.2V11.27C2.26172 8.43003 4.28172 6.06003 6.97172 5.53003Z" fill="#171717"/>
<path opacity="0.6" d="M21.7815 11.27V14.2C21.7815 11.99 20.3115 10.13 18.3115 9.51997C18.8315 8.22997 18.9915 7.19997 18.7315 6.34997C18.7115 6.25997 18.6815 6.17997 18.6415 6.08997C20.5115 7.05997 21.7815 9.02997 21.7815 11.27Z" fill="#171717"/>
</svg>
