<svg width="25" height="24" viewBox="0 0 25 24" fill="none" xmlns="http://www.w3.org/2000/svg">
<path opacity="0.8" d="M12.9383 2.51997L12.9083 2.58997L10.0083 9.31997H7.15828C6.47828 9.31997 5.83828 9.44997 5.23828 9.70997L6.98828 5.52997L7.02828 5.43997L7.08828 5.27997C7.11828 5.20997 7.13828 5.14997 7.16828 5.09997C8.47828 2.06997 9.95828 1.37997 12.9383 2.51997Z" fill="#171717"/>
<path d="M18.3283 9.52002C17.8783 9.39002 17.4083 9.32002 16.9183 9.32002H10.0083L12.9083 2.59002L12.9383 2.52002C13.0783 2.57002 13.2283 2.64002 13.3783 2.69002L15.5883 3.62002C16.8183 4.13002 17.6783 4.66002 18.2083 5.30002C18.2983 5.42002 18.3783 5.53002 18.4583 5.66002C18.5483 5.80002 18.6183 5.94002 18.6583 6.09002C18.6983 6.18002 18.7283 6.26002 18.7483 6.35002C19.0083 7.20002 18.8483 8.23002 18.3283 9.52002Z" fill="#171717"/>
<path opacity="0.4" d="M21.7983 14.2V16.15C21.7983 16.35 21.7883 16.55 21.7783 16.74C21.5883 20.24 19.6383 22 15.9383 22H8.13832C7.88832 22 7.65832 21.98 7.42832 21.95C4.24832 21.74 2.54832 20.04 2.32832 16.86C2.29832 16.62 2.27832 16.39 2.27832 16.15V14.2C2.27832 12.19 3.49832 10.46 5.23832 9.71001C5.83832 9.45001 6.47832 9.32001 7.15832 9.32001H16.9183C17.4083 9.32001 17.8783 9.39001 18.3283 9.52001C20.3283 10.13 21.7983 11.99 21.7983 14.2Z" fill="#171717"/>
<path opacity="0.6" d="M6.98832 5.53003L5.23832 9.71003C3.49832 10.46 2.27832 12.19 2.27832 14.2V11.27C2.27832 8.43003 4.29832 6.06003 6.98832 5.53003Z" fill="#171717"/>
<path opacity="0.6" d="M21.7981 11.27V14.2C21.7981 11.99 20.3281 10.13 18.3281 9.51997C18.8481 8.22997 19.0081 7.19997 18.7481 6.34997C18.7281 6.25997 18.6981 6.17997 18.6581 6.08997C20.5281 7.05997 21.7981 9.02997 21.7981 11.27Z" fill="#171717"/>
<path d="M14.5381 14.69H12.7881V13C12.7881 12.59 12.4481 12.25 12.0381 12.25C11.6281 12.25 11.2881 12.59 11.2881 13V14.69H9.53809C9.12809 14.69 8.78809 15.03 8.78809 15.44C8.78809 15.85 9.12809 16.19 9.53809 16.19H11.2881V18C11.2881 18.41 11.6281 18.75 12.0381 18.75C12.4481 18.75 12.7881 18.41 12.7881 18V16.19H14.5381C14.9481 16.19 15.2881 15.85 15.2881 15.44C15.2881 15.03 14.9481 14.69 14.5381 14.69Z" fill="#171717"/>
</svg>
