<svg width="25" height="24" viewBox="0 0 25 24" fill="none" xmlns="http://www.w3.org/2000/svg">
<path d="M22.0417 10.9699V13.03C22.0417 13.58 21.6017 14.0299 21.0417 14.0499H19.0817C18.0017 14.0499 17.0117 13.2599 16.9217 12.1799C16.8617 11.5499 17.1017 10.9599 17.5217 10.5499C17.8917 10.1699 18.4017 9.94995 18.9617 9.94995H21.0417C21.6017 9.96995 22.0417 10.4199 22.0417 10.9699Z" fill="#171717"/>
<path opacity="0.4" d="M17.5217 10.55C17.1017 10.96 16.8618 11.55 16.9218 12.18C17.0118 13.26 18.0017 14.05 19.0817 14.05H21.0417V15.5C21.0417 18.5 19.0417 20.5 16.0417 20.5H7.04175C4.04175 20.5 2.04175 18.5 2.04175 15.5V8.5C2.04175 5.78 3.68175 3.88 6.23175 3.56C6.49175 3.52 6.76175 3.5 7.04175 3.5H16.0417C16.3017 3.5 16.5517 3.50999 16.7917 3.54999C19.3717 3.84999 21.0417 5.76 21.0417 8.5V9.95001H18.9617C18.4017 9.95001 17.8917 10.17 17.5217 10.55Z" fill="#171717"/>
<path d="M13.0417 9.75H7.04175C6.63175 9.75 6.29175 9.41 6.29175 9C6.29175 8.59 6.63175 8.25 7.04175 8.25H13.0417C13.4517 8.25 13.7917 8.59 13.7917 9C13.7917 9.41 13.4517 9.75 13.0417 9.75Z" fill="#171717"/>
</svg>
