<svg width="25" height="24" viewBox="0 0 25 24" fill="none" xmlns="http://www.w3.org/2000/svg">
<path d="M14.5361 16.75H9.53613C9.12613 16.75 8.78613 16.41 8.78613 16C8.78613 15.59 9.12613 15.25 9.53613 15.25H14.5361C14.9461 15.25 15.2861 15.59 15.2861 16C15.2861 16.41 14.9461 16.75 14.5361 16.75Z" fill="#171717"/>
<path d="M5.23632 10.46C5.04632 10.46 4.85632 10.38 4.70632 10.24C4.49632 10.03 4.42632 9.7 4.54632 9.42L6.40632 4.98C6.44632 4.89 6.46632 4.83 6.49632 4.78C7.97632 1.37 9.86632 0.539999 13.2063 1.82C13.3963 1.89 13.5463 2.04 13.6263 2.23C13.7063 2.42 13.7063 2.63 13.6263 2.82L10.6963 9.62C10.5763 9.89 10.3063 10.07 10.0063 10.07H7.15632C6.58632 10.07 6.04632 10.18 5.52632 10.4C5.43632 10.44 5.33632 10.46 5.23632 10.46ZM10.6463 2.75C9.40632 2.75 8.64632 3.56 7.85632 5.4C7.84632 5.43 7.82632 5.46 7.81632 5.49L6.50632 8.6C6.72632 8.58 6.93632 8.57 7.15632 8.57H9.50632L11.9163 2.97C11.4463 2.82 11.0263 2.75 10.6463 2.75Z" fill="#171717"/>
<path d="M18.3264 10.27C18.2564 10.27 18.1764 10.26 18.1064 10.24C17.7364 10.13 17.3264 10.07 16.9064 10.07H10.0064C9.75636 10.07 9.51636 9.94002 9.37636 9.73002C9.24636 9.52002 9.21636 9.25002 9.31636 9.02002L12.2164 2.29002C12.3664 1.93002 12.7964 1.69002 13.1764 1.81002C13.2964 1.85002 13.4064 1.90002 13.5264 1.95002L15.8864 2.94002C17.2664 3.51002 18.1864 4.11002 18.7864 4.83002C18.9064 4.97002 19.0064 5.12002 19.0964 5.27002C19.2064 5.44002 19.3064 5.65002 19.3764 5.86002C19.4064 5.93002 19.4564 6.06002 19.4864 6.20002C19.7664 7.14002 19.6264 8.31002 19.0264 9.81002C18.9064 10.09 18.6264 10.27 18.3264 10.27ZM11.1464 8.57002H16.9164C17.2364 8.57002 17.5464 8.60002 17.8564 8.65002C18.1364 7.78002 18.1964 7.11002 18.0364 6.57002C18.0164 6.48002 17.9964 6.44002 17.9864 6.40002C17.9264 6.24002 17.8864 6.15002 17.8364 6.07002C17.7664 5.96002 17.7164 5.87002 17.6364 5.78002C17.2064 5.26002 16.4464 4.78002 15.3164 4.32002L13.3364 3.49002L11.1464 8.57002Z" fill="#171717"/>
<path d="M15.9361 22.7499H8.13613C7.85613 22.7499 7.59613 22.7299 7.33613 22.6999C3.82613 22.4599 1.82613 20.4599 1.58613 16.9099C1.55613 16.6899 1.53613 16.4199 1.53613 16.1499V14.1999C1.53613 11.9499 2.87613 9.91995 4.94613 9.01995C5.64613 8.71995 6.39613 8.56995 7.16613 8.56995H16.9261C17.4961 8.56995 18.0461 8.64995 18.5561 8.80995C20.9061 9.51995 22.5561 11.7399 22.5561 14.1999V16.1499C22.5561 16.3699 22.5461 16.5799 22.5361 16.7799C22.3161 20.6899 20.0361 22.7499 15.9361 22.7499ZM7.15613 10.0699C6.58613 10.0699 6.04613 10.1799 5.52613 10.3999C4.00613 11.0599 3.02613 12.5499 3.02613 14.1999V16.1499C3.02613 16.3599 3.04613 16.5699 3.06613 16.7699C3.25613 19.6199 4.65613 21.0199 7.46613 21.2099C7.71613 21.2399 7.91613 21.2599 8.12613 21.2599H15.9261C19.2261 21.2599 20.8461 19.8099 21.0061 16.7099C21.0161 16.5299 21.0261 16.3499 21.0261 16.1499V14.1999C21.0261 12.3899 19.8161 10.7699 18.0961 10.2399C17.7261 10.1299 17.3161 10.0699 16.8961 10.0699H7.15613Z" fill="#171717"/>
<path d="M2.27637 14.95C1.86637 14.95 1.52637 14.61 1.52637 14.2V11.27C1.52637 8.12005 3.75637 5.40005 6.83637 4.80005C7.10637 4.75005 7.38637 4.85004 7.56637 5.06004C7.73637 5.27004 7.78637 5.57005 7.67637 5.82005L5.92637 10C5.84637 10.18 5.70637 10.32 5.53637 10.4C4.01637 11.06 3.03637 12.55 3.03637 14.2C3.02637 14.61 2.69637 14.95 2.27637 14.95ZM5.63637 6.82005C4.35637 7.54005 3.42637 8.80005 3.13637 10.27C3.57637 9.82005 4.08637 9.44004 4.66637 9.16004L5.63637 6.82005Z" fill="#171717"/>
<path d="M21.7963 14.95C21.3863 14.95 21.0463 14.61 21.0463 14.2C21.0463 12.39 19.8363 10.77 18.1163 10.24C17.9163 10.18 17.7463 10.04 17.6563 9.85002C17.5663 9.66002 17.5563 9.44002 17.6363 9.25002C18.1063 8.08002 18.2263 7.23002 18.0363 6.57002C18.0163 6.48002 17.9963 6.44002 17.9863 6.40002C17.8563 6.11002 17.9263 5.77002 18.1563 5.55002C18.3863 5.33002 18.7363 5.28002 19.0163 5.43002C21.1963 6.57002 22.5463 8.81002 22.5463 11.27V14.2C22.5463 14.61 22.2063 14.95 21.7963 14.95ZM19.2863 9.09002C19.9163 9.38002 20.4763 9.79002 20.9463 10.28C20.7563 9.30002 20.2863 8.41002 19.5963 7.71002C19.5463 8.13002 19.4463 8.59002 19.2863 9.09002Z" fill="#171717"/>
</svg>
