<svg width="25" height="24" viewBox="0 0 25 24" fill="none" xmlns="http://www.w3.org/2000/svg">
<g opacity="0.4">
<path d="M10.7953 16.86V18.89C10.7953 20.61 9.19528 22 7.22528 22C5.25528 22 3.64526 20.61 3.64526 18.89V16.86C3.64526 18.58 5.24528 19.8 7.22528 19.8C9.19528 19.8 10.7953 18.57 10.7953 16.86Z" stroke="#171717" stroke-width="1.5" stroke-linecap="round" stroke-linejoin="round"/>
<path d="M10.795 14.11C10.795 14.61 10.655 15.07 10.415 15.47C9.82498 16.44 8.61497 17.05 7.21497 17.05C5.81497 17.05 4.60495 16.43 4.01495 15.47C3.77495 15.07 3.63501 14.61 3.63501 14.11C3.63501 13.25 4.03499 12.48 4.67499 11.92C5.32499 11.35 6.21496 11.01 7.20496 11.01C8.19496 11.01 9.08499 11.36 9.73499 11.92C10.395 12.47 10.795 13.25 10.795 14.11Z" stroke="#171717" stroke-width="1.5" stroke-linecap="round" stroke-linejoin="round"/>
<path d="M10.7953 14.11V16.86C10.7953 18.58 9.19528 19.8 7.22528 19.8C5.25528 19.8 3.64526 18.57 3.64526 16.86V14.11C3.64526 12.39 5.24528 11 7.22528 11C8.21528 11 9.10531 11.35 9.75531 11.91C10.3953 12.47 10.7953 13.25 10.7953 14.11Z" stroke="#171717" stroke-width="1.5" stroke-linecap="round" stroke-linejoin="round"/>
</g>
<path d="M22.0451 10.9699V13.03C22.0451 13.58 21.6051 14.0299 21.0451 14.0499H19.0851C18.0051 14.0499 17.0151 13.2599 16.9251 12.1799C16.8651 11.5499 17.1051 10.9599 17.5251 10.5499C17.8951 10.1699 18.4051 9.94995 18.9651 9.94995H21.0451C21.6051 9.96995 22.0451 10.4199 22.0451 10.9699Z" stroke="#171717" stroke-width="1.5" stroke-linecap="round" stroke-linejoin="round"/>
<path d="M2.04517 10.5V8.5C2.04517 5.78 3.68517 3.88 6.23517 3.56C6.49517 3.52 6.76517 3.5 7.04517 3.5H16.0452C16.3052 3.5 16.5552 3.50999 16.7952 3.54999C19.3752 3.84999 21.0452 5.76 21.0452 8.5V9.95001H18.9651C18.4051 9.95001 17.8951 10.17 17.5251 10.55C17.1051 10.96 16.8652 11.55 16.9252 12.18C17.0152 13.26 18.0051 14.05 19.0851 14.05H21.0452V15.5C21.0452 18.5 19.0452 20.5 16.0452 20.5H13.5452" stroke="#171717" stroke-width="1.5" stroke-linecap="round" stroke-linejoin="round"/>
</svg>
