<svg width="25" height="24" viewBox="0 0 25 24" fill="none" xmlns="http://www.w3.org/2000/svg">
<path d="M7.21497 22.75C4.83497 22.75 2.88501 21.02 2.88501 18.89V16.85C2.88501 16.44 3.22501 16.1 3.63501 16.1C4.04501 16.1 4.38501 16.44 4.38501 16.85C4.38501 18.1 5.59497 19.04 7.21497 19.04C8.83497 19.04 10.045 18.1 10.045 16.85C10.045 16.44 10.385 16.1 10.795 16.1C11.205 16.1 11.545 16.44 11.545 16.85V18.89C11.545 21.02 9.60497 22.75 7.21497 22.75ZM4.64496 19.87C5.08496 20.69 6.07497 21.25 7.21497 21.25C8.35497 21.25 9.34497 20.68 9.78497 19.87C9.07497 20.3 8.19497 20.55 7.21497 20.55C6.23497 20.55 5.35496 20.3 4.64496 19.87Z" fill="#171717"/>
<path d="M7.21497 17.7999C5.57497 17.7999 4.105 17.0499 3.375 15.8599C3.055 15.3399 2.88501 14.7299 2.88501 14.1099C2.88501 13.0599 3.345 12.0799 4.185 11.3499C5.805 9.92992 8.59498 9.92997 10.225 11.34C11.065 12.08 11.535 13.0599 11.535 14.1099C11.535 14.7299 11.365 15.3399 11.045 15.8599C10.325 17.0499 8.85497 17.7999 7.21497 17.7999ZM7.21497 11.7499C6.43497 11.7499 5.71499 12.0099 5.17499 12.4799C4.66499 12.9199 4.38501 13.4999 4.38501 14.1099C4.38501 14.4599 4.47497 14.78 4.65497 15.08C5.11497 15.84 6.09497 16.3099 7.21497 16.3099C8.33497 16.3099 9.31495 15.84 9.76495 15.09C9.94495 14.8 10.035 14.4699 10.035 14.1199C10.035 13.5099 9.755 12.9299 9.245 12.4799C8.715 12.0099 7.99497 11.7499 7.21497 11.7499Z" fill="#171717"/>
<path d="M7.21497 20.55C4.74497 20.55 2.88501 18.96 2.88501 16.86V14.11C2.88501 11.98 4.82497 10.25 7.21497 10.25C8.34497 10.25 9.42499 10.64 10.235 11.34C11.075 12.08 11.545 13.06 11.545 14.11V16.86C11.545 18.96 9.68497 20.55 7.21497 20.55ZM7.21497 11.75C5.65497 11.75 4.38501 12.81 4.38501 14.11V16.86C4.38501 18.11 5.59497 19.05 7.21497 19.05C8.83497 19.05 10.045 18.11 10.045 16.86V14.11C10.045 13.5 9.76501 12.92 9.255 12.47C8.715 12.01 7.99497 11.75 7.21497 11.75Z" fill="#171717"/>
<path d="M19.0851 14.7999C17.5751 14.7999 16.2951 13.6799 16.1751 12.2399C16.0951 11.4099 16.3951 10.5999 16.9951 10.0099C17.4951 9.48995 18.205 9.19995 18.955 9.19995H21.0451C22.0351 9.22995 22.7951 10.0099 22.7951 10.9699V13.03C22.7951 13.99 22.0351 14.7699 21.0751 14.7999H19.0851ZM21.015 10.7H18.9651C18.6151 10.7 18.2951 10.8299 18.0651 11.0699C17.7751 11.3499 17.6351 11.7299 17.6751 12.1099C17.7251 12.7699 18.3651 13.2999 19.0851 13.2999H21.0451C21.1751 13.2999 21.2951 13.18 21.2951 13.03V10.9699C21.2951 10.8199 21.175 10.71 21.015 10.7Z" fill="#171717"/>
<path d="M16.0454 21.25H13.5454C13.1354 21.25 12.7954 20.91 12.7954 20.5C12.7954 20.09 13.1354 19.75 13.5454 19.75H16.0454C18.6254 19.75 20.2954 18.08 20.2954 15.5V14.8H19.0854C17.5754 14.8 16.2954 13.68 16.1754 12.24C16.0954 11.41 16.3954 10.6 16.9954 10.01C17.4954 9.49001 18.2054 9.20001 18.9554 9.20001H20.2854V8.5C20.2854 6.16 18.9154 4.54998 16.6954 4.28998C16.4554 4.24998 16.2454 4.25 16.0354 4.25H7.0354C6.7954 4.25 6.56539 4.26999 6.33539 4.29999C4.13539 4.57999 2.7854 6.18 2.7854 8.5V10.5C2.7854 10.91 2.4454 11.25 2.0354 11.25C1.6254 11.25 1.2854 10.91 1.2854 10.5V8.5C1.2854 5.42 3.18544 3.19001 6.13544 2.82001C6.40544 2.78001 6.7154 2.75 7.0354 2.75H16.0354C16.2754 2.75 16.5854 2.76 16.9054 2.81C19.8554 3.15 21.7854 5.39 21.7854 8.5V9.95001C21.7854 10.36 21.4454 10.7 21.0354 10.7H18.9554C18.6054 10.7 18.2854 10.83 18.0554 11.07C17.7654 11.35 17.6254 11.73 17.6654 12.11C17.7154 12.77 18.3554 13.3 19.0754 13.3H21.0454C21.4554 13.3 21.7954 13.64 21.7954 14.05V15.5C21.7954 18.94 19.4854 21.25 16.0454 21.25Z" fill="#171717"/>
</svg>
