<svg width="25" height="24" viewBox="0 0 25 24" fill="none" xmlns="http://www.w3.org/2000/svg">
<path opacity="0.4" d="M17.5251 10.55C17.1051 10.96 16.8652 11.55 16.9252 12.18C17.0152 13.26 18.0051 14.05 19.0851 14.05H21.0452V15.5C21.0452 18.5 19.0452 20.5 16.0452 20.5H7.04517C4.04517 20.5 2.04517 18.5 2.04517 15.5V8.5C2.04517 5.78 3.68517 3.88 6.23517 3.56C6.49517 3.52 6.76517 3.5 7.04517 3.5H16.0452C16.3052 3.5 16.5552 3.50999 16.7952 3.54999C19.3752 3.84999 21.0452 5.76 21.0452 8.5V9.95001H18.9651C18.4051 9.95001 17.8951 10.17 17.5251 10.55Z" fill="#171717"/>
<path d="M22.0451 10.9699V13.03C22.0451 13.58 21.6051 14.0299 21.0451 14.0499H19.0851C18.0051 14.0499 17.0151 13.2599 16.9251 12.1799C16.8651 11.5499 17.1051 10.9599 17.5251 10.5499C17.8951 10.1699 18.4051 9.94995 18.9651 9.94995H21.0451C21.6051 9.96995 22.0451 10.4199 22.0451 10.9699Z" fill="#171717"/>
</svg>
