<svg width="25" height="24" viewBox="0 0 25 24" fill="none" xmlns="http://www.w3.org/2000/svg">
<path d="M14.5381 16.1899H9.53809C9.12809 16.1899 8.78809 15.8499 8.78809 15.4399C8.78809 15.0299 9.12809 14.6899 9.53809 14.6899H14.5381C14.9481 14.6899 15.2881 15.0299 15.2881 15.4399C15.2881 15.8499 14.9481 16.1899 14.5381 16.1899Z" fill="#171717"/>
<path d="M12.0381 18.75C11.6281 18.75 11.2881 18.41 11.2881 18V13C11.2881 12.59 11.6281 12.25 12.0381 12.25C12.4481 12.25 12.7881 12.59 12.7881 13V18C12.7881 18.41 12.4481 18.75 12.0381 18.75Z" fill="#171717"/>
<path d="M5.23827 10.46C5.04827 10.46 4.85827 10.38 4.70827 10.24C4.49827 10.03 4.42827 9.7 4.54827 9.42L6.40827 4.98C6.44827 4.89 6.46827 4.83 6.49827 4.78C7.97827 1.37 9.86827 0.539999 13.2083 1.82C13.3983 1.89 13.5483 2.04 13.6283 2.23C13.7083 2.42 13.7083 2.63 13.6283 2.82L10.6983 9.62C10.5783 9.89 10.3083 10.07 10.0083 10.07H7.15827C6.58827 10.07 6.04827 10.18 5.52827 10.4C5.43827 10.44 5.33827 10.46 5.23827 10.46ZM10.6483 2.75C9.40827 2.75 8.64827 3.56 7.85827 5.4C7.84827 5.43 7.82827 5.46 7.81827 5.49L6.50827 8.6C6.72827 8.58 6.93827 8.57 7.15827 8.57H9.50827L11.9183 2.97C11.4483 2.82 11.0283 2.75 10.6483 2.75Z" fill="#171717"/>
<path d="M18.3283 10.27C18.2583 10.27 18.1783 10.26 18.1083 10.24C17.7383 10.13 17.3283 10.07 16.9083 10.07H10.0083C9.75831 10.07 9.51831 9.94002 9.37831 9.73002C9.24831 9.52002 9.21831 9.25002 9.31831 9.02002L12.2183 2.29002C12.3683 1.93002 12.8083 1.69002 13.1783 1.81002C13.2983 1.85002 13.4083 1.90002 13.5283 1.95002L15.8883 2.94002C17.2683 3.51002 18.1883 4.11002 18.7883 4.83002C18.9083 4.97002 19.0083 5.12002 19.0983 5.27002C19.2083 5.44002 19.3083 5.65002 19.3783 5.86002C19.4083 5.93002 19.4583 6.06002 19.4883 6.20002C19.7683 7.14002 19.6283 8.31002 19.0283 9.81002C18.9083 10.09 18.6283 10.27 18.3283 10.27ZM11.1483 8.57002H16.9183C17.2383 8.57002 17.5483 8.60002 17.8583 8.65002C18.1383 7.78002 18.1983 7.11002 18.0383 6.57002C18.0183 6.48002 17.9983 6.44002 17.9883 6.40002C17.9283 6.24002 17.8883 6.15002 17.8383 6.07002C17.7683 5.96002 17.7183 5.87002 17.6383 5.78002C17.2083 5.26002 16.4483 4.78002 15.3183 4.32002L13.3383 3.49002L11.1483 8.57002Z" fill="#171717"/>
<path d="M15.9381 22.7499H8.13809C7.85809 22.7499 7.59809 22.7299 7.33809 22.6999C3.82809 22.4599 1.82809 20.4599 1.58809 16.9099C1.55809 16.6899 1.53809 16.4199 1.53809 16.1499V14.1999C1.53809 11.9499 2.87809 9.91995 4.94809 9.01995C5.64809 8.71995 6.39809 8.56995 7.16809 8.56995H16.9281C17.4981 8.56995 18.0481 8.64995 18.5581 8.80995C20.9081 9.51995 22.5581 11.7399 22.5581 14.1999V16.1499C22.5581 16.3699 22.5481 16.5799 22.5381 16.7799C22.3181 20.6899 20.0381 22.7499 15.9381 22.7499ZM7.15809 10.0699C6.58809 10.0699 6.04809 10.1799 5.52809 10.3999C4.00809 11.0599 3.02809 12.5499 3.02809 14.1999V16.1499C3.02809 16.3599 3.04809 16.5699 3.06809 16.7699C3.25809 19.6199 4.65809 21.0199 7.46809 21.2099C7.71809 21.2399 7.91809 21.2599 8.12809 21.2599H15.9281C19.2281 21.2599 20.8481 19.8099 21.0081 16.7099C21.0181 16.5299 21.0281 16.3499 21.0281 16.1499V14.1999C21.0281 12.3899 19.8181 10.7699 18.0981 10.2399C17.7281 10.1299 17.3181 10.0699 16.8981 10.0699H7.15809Z" fill="#171717"/>
<path d="M2.27832 14.95C1.86832 14.95 1.52832 14.61 1.52832 14.2V11.27C1.52832 8.12005 3.75832 5.40005 6.83832 4.80005C7.10832 4.75005 7.38832 4.85004 7.56832 5.06004C7.73832 5.27004 7.78832 5.57005 7.67832 5.82005L5.92832 10C5.84832 10.18 5.70832 10.32 5.53832 10.4C4.01832 11.06 3.03832 12.55 3.03832 14.2C3.02832 14.61 2.69832 14.95 2.27832 14.95ZM5.63832 6.82005C4.35832 7.54005 3.42832 8.80005 3.13832 10.27C3.57832 9.82005 4.08832 9.44004 4.66832 9.16004L5.63832 6.82005Z" fill="#171717"/>
<path d="M21.7982 14.95C21.3882 14.95 21.0482 14.61 21.0482 14.2C21.0482 12.39 19.8382 10.77 18.1182 10.24C17.9182 10.18 17.7482 10.04 17.6582 9.85002C17.5682 9.66002 17.5582 9.44002 17.6382 9.25002C18.1082 8.08002 18.2282 7.23002 18.0382 6.57002C18.0182 6.48002 17.9982 6.44002 17.9882 6.40002C17.8582 6.11002 17.9282 5.77002 18.1582 5.55002C18.3882 5.33002 18.7382 5.28002 19.0182 5.43002C21.1982 6.57002 22.5482 8.81002 22.5482 11.27V14.2C22.5482 14.61 22.2082 14.95 21.7982 14.95ZM19.2882 9.09002C19.9182 9.38002 20.4782 9.79002 20.9482 10.28C20.7582 9.30002 20.2882 8.41002 19.5982 7.71002C19.5482 8.13002 19.4482 8.59002 19.2882 9.09002Z" fill="#171717"/>
</svg>
