<svg width="25" height="24" viewBox="0 0 25 24" fill="none" xmlns="http://www.w3.org/2000/svg">
<path d="M5.22167 10.46C5.03167 10.46 4.83167 10.38 4.69167 10.24C4.48167 10.02 4.41167 9.7 4.53167 9.42L6.39167 4.98C6.43167 4.89 6.45167 4.83 6.48167 4.78C7.96167 1.37 9.85167 0.539999 13.1917 1.82C13.3817 1.89 13.5317 2.04 13.6117 2.23C13.6917 2.42 13.6917 2.63 13.6117 2.82L10.6817 9.62C10.5617 9.9 10.2917 10.07 9.99167 10.07H7.14167C6.57167 10.07 6.03167 10.18 5.51167 10.4C5.42167 10.44 5.32167 10.46 5.22167 10.46ZM10.6317 2.75C9.39167 2.75 8.63167 3.56 7.84167 5.4C7.83167 5.43 7.81167 5.46 7.80167 5.49L6.49167 8.6C6.71167 8.58 6.92167 8.57 7.14167 8.57H9.49167L11.9017 2.97C11.4317 2.82 11.0117 2.75 10.6317 2.75Z" fill="#171717"/>
<path d="M18.3117 10.27C18.2417 10.27 18.1617 10.26 18.0917 10.24C17.7117 10.13 17.3117 10.07 16.8917 10.07H9.99171C9.74171 10.07 9.50171 9.93999 9.36171 9.72999C9.23171 9.51999 9.20171 9.24999 9.30171 9.01999L12.2017 2.28999C12.3517 1.92999 12.7917 1.67999 13.1617 1.80999C13.2817 1.84999 13.3917 1.89999 13.5117 1.94999L15.8717 2.93999C17.2517 3.50999 18.1717 4.10999 18.7717 4.82999C18.8917 4.96999 18.9917 5.11999 19.0917 5.27999C19.2017 5.44999 19.3017 5.64999 19.3717 5.85999C19.4017 5.92999 19.4517 6.05999 19.4817 6.19999C19.7617 7.14999 19.6217 8.30999 19.0217 9.80999C18.8917 10.09 18.6117 10.27 18.3117 10.27ZM11.1317 8.56999H16.9017C17.2217 8.56999 17.5317 8.59999 17.8417 8.64999C18.1217 7.77999 18.1817 7.10999 18.0217 6.56999C18.0017 6.47999 17.9817 6.43999 17.9717 6.39999C17.9117 6.23999 17.8717 6.14999 17.8217 6.06999C17.7517 5.95999 17.7017 5.86999 17.6217 5.77999C17.1917 5.25999 16.4317 4.77999 15.2917 4.30999L13.3217 3.48999L11.1317 8.56999Z" fill="#171717"/>
<path d="M15.9215 22.7499H8.12148C7.84148 22.7499 7.58148 22.7299 7.32148 22.6999C3.81148 22.4699 1.81148 20.4599 1.57148 16.9099C1.54148 16.6899 1.52148 16.4199 1.52148 16.1499V14.1999C1.52148 11.9499 2.86148 9.91995 4.93148 9.01995C5.64148 8.71995 6.38148 8.56995 7.15148 8.56995H16.9115C17.4815 8.56995 18.0315 8.64995 18.5415 8.80995C20.8915 9.51995 22.5415 11.7399 22.5415 14.1999V16.1499C22.5415 16.3699 22.5315 16.5799 22.5215 16.7799C22.3015 20.6899 20.0215 22.7499 15.9215 22.7499ZM7.14148 10.0699C6.57148 10.0699 6.03148 10.1799 5.51148 10.3999C3.99148 11.0599 3.01148 12.5499 3.01148 14.1999V16.1499C3.01148 16.3599 3.03148 16.5699 3.05148 16.7699C3.24148 19.6199 4.64148 21.0199 7.45148 21.2099C7.70148 21.2399 7.90148 21.2599 8.11148 21.2599H15.9115C19.2115 21.2599 20.8315 19.8099 20.9915 16.7099C21.0015 16.5299 21.0115 16.3499 21.0115 16.1499V14.1999C21.0115 12.3899 19.8015 10.7699 18.0815 10.2399C17.7015 10.1299 17.3015 10.0699 16.8815 10.0699H7.14148Z" fill="#171717"/>
<path d="M2.26172 14.95C1.85172 14.95 1.51172 14.61 1.51172 14.2V11.27C1.51172 8.12005 3.74172 5.40005 6.82172 4.80005C7.09172 4.75005 7.37172 4.85004 7.55172 5.06004C7.72172 5.27004 7.77172 5.57005 7.66172 5.82005L5.91172 10C5.83172 10.18 5.69172 10.32 5.52172 10.4C4.00172 11.06 3.02172 12.55 3.02172 14.2C3.01172 14.61 2.68172 14.95 2.26172 14.95ZM5.62172 6.82005C4.34172 7.54005 3.41172 8.80005 3.12172 10.27C3.56172 9.82005 4.07172 9.44004 4.65172 9.16004L5.62172 6.82005Z" fill="#171717"/>
<path d="M21.7816 14.95C21.3716 14.95 21.0316 14.61 21.0316 14.2C21.0316 12.39 19.8216 10.77 18.1016 10.24C17.9016 10.18 17.7316 10.04 17.6416 9.85002C17.5516 9.66002 17.5416 9.44002 17.6216 9.25002C18.0916 8.08002 18.2116 7.23002 18.0216 6.57002C18.0016 6.48002 17.9816 6.44002 17.9716 6.40002C17.8416 6.11002 17.9116 5.77002 18.1416 5.55002C18.3716 5.33002 18.7216 5.28002 19.0016 5.43002C21.1816 6.57002 22.5316 8.81002 22.5316 11.27V14.2C22.5316 14.61 22.1916 14.95 21.7816 14.95ZM19.2716 9.09002C19.9016 9.38002 20.4616 9.79002 20.9316 10.28C20.7416 9.30002 20.2716 8.41002 19.5816 7.71002C19.5316 8.13002 19.4316 8.59002 19.2716 9.09002Z" fill="#171717"/>
</svg>
