<svg width="25" height="24" viewBox="0 0 25 24" fill="none" xmlns="http://www.w3.org/2000/svg">
<path opacity="0.8" d="M12.9363 2.51997L12.9063 2.58997L10.0063 9.31997H7.15633C6.47633 9.31997 5.83633 9.44997 5.23633 9.70997L6.98633 5.52997L7.02633 5.43997L7.08633 5.27997C7.11633 5.20997 7.13633 5.14997 7.16633 5.09997C8.47633 2.06997 9.95633 1.37997 12.9363 2.51997Z" fill="#171717"/>
<path d="M18.3263 9.52002C17.8763 9.39002 17.4063 9.32002 16.9163 9.32002H10.0063L12.9063 2.59002L12.9363 2.52002C13.0763 2.57002 13.2263 2.64002 13.3763 2.69002L15.5863 3.62002C16.8163 4.13002 17.6763 4.66002 18.2063 5.30002C18.2963 5.42002 18.3763 5.53002 18.4563 5.66002C18.5463 5.80002 18.6163 5.94002 18.6563 6.09002C18.6963 6.18002 18.7263 6.26002 18.7463 6.35002C19.0063 7.20002 18.8463 8.23002 18.3263 9.52002Z" fill="#171717"/>
<path opacity="0.4" d="M21.7964 14.2V16.15C21.7964 16.35 21.7864 16.55 21.7764 16.74C21.5864 20.24 19.6364 22 15.9364 22H8.13637C7.88637 22 7.65637 21.98 7.42637 21.95C4.24637 21.74 2.54637 20.04 2.32637 16.86C2.29637 16.62 2.27637 16.39 2.27637 16.15V14.2C2.27637 12.19 3.49637 10.46 5.23637 9.71001C5.83637 9.45001 6.47637 9.32001 7.15637 9.32001H16.9164C17.4064 9.32001 17.8764 9.39001 18.3264 9.52001C20.3264 10.13 21.7964 11.99 21.7964 14.2Z" fill="#171717"/>
<path opacity="0.6" d="M6.98637 5.53003L5.23637 9.71003C3.49637 10.46 2.27637 12.19 2.27637 14.2V11.27C2.27637 8.43003 4.29637 6.06003 6.98637 5.53003Z" fill="#171717"/>
<path opacity="0.6" d="M21.7962 11.27V14.2C21.7962 11.99 20.3262 10.13 18.3262 9.51997C18.8462 8.22997 19.0062 7.19997 18.7462 6.34997C18.7262 6.25997 18.6962 6.17997 18.6562 6.08997C20.5262 7.05997 21.7962 9.02997 21.7962 11.27Z" fill="#171717"/>
<path d="M14.5361 16.75H9.53613C9.12613 16.75 8.78613 16.41 8.78613 16C8.78613 15.59 9.12613 15.25 9.53613 15.25H14.5361C14.9461 15.25 15.2861 15.59 15.2861 16C15.2861 16.41 14.9461 16.75 14.5361 16.75Z" fill="#171717"/>
</svg>
