<svg width="24" height="24" viewBox="0 0 24 24" fill="none" xmlns="http://www.w3.org/2000/svg">
<path d="M17.7529 7.04997C17.5129 7.00997 17.2629 6.99998 17.0029 6.99998H7.00287C6.72287 6.99998 6.45287 7.01998 6.19287 7.05998C6.33287 6.77998 6.53287 6.52001 6.77287 6.28001L10.0229 3.02C11.3929 1.66 13.6129 1.66 14.9829 3.02L16.7329 4.78996C17.3729 5.41996 17.7129 6.21997 17.7529 7.04997Z" fill="#171717"/>
<path opacity="0.4" d="M2.00293 16.36V12C2.00293 9.28 3.64293 7.38 6.19293 7.06C6.45293 7.02 6.72293 7 7.00293 7H17.0029C17.2629 7 17.5129 7.00999 17.7529 7.04999C20.3329 7.34999 22.0029 9.26 22.0029 12V17C22.0029 19.76 19.7629 22 17.0029 22H7.63293H7.00293C4.24293 22 2.00293 19.76 2.00293 17V16.36Z" fill="#171717"/>
<path d="M22.0029 12.5H19.0029C17.9029 12.5 17.0029 13.4 17.0029 14.5C17.0029 15.6 17.9029 16.5 19.0029 16.5H22.0029" fill="#171717"/>
<path d="M1.23299 21.68L1.99298 20.92C1.59298 20.32 1.36299 19.6 1.36299 18.83C1.36299 16.72 3.07299 15.01 5.18299 15.01C7.29298 15.01 9.00299 16.72 9.00299 18.83C9.00299 20.94 7.29298 22.65 5.18299 22.65C4.41299 22.65 3.69298 22.42 3.09298 22.02L2.33299 22.78C2.18299 22.93 1.98298 23.01 1.78298 23.01C1.58298 23.01 1.38299 22.93 1.23299 22.78C0.922988 22.47 0.922988 21.98 1.23299 21.68Z" fill="#171717"/>
</svg>
