<svg width="25" height="24" viewBox="0 0 25 24" fill="none" xmlns="http://www.w3.org/2000/svg">
<path d="M13.052 11.9H7.052C6.642 11.9 6.302 11.56 6.302 11.15C6.302 10.74 6.642 10.4 7.052 10.4H13.052C13.462 10.4 13.802 10.74 13.802 11.15C13.802 11.56 13.462 11.9 13.052 11.9Z" fill="#171717"/>
<path d="M2.052 11.9001C1.642 11.9001 1.302 11.5601 1.302 11.1501V6.53009C1.302 4.08009 3.292 2.09009 5.742 2.09009H11.362C13.932 2.09009 15.802 3.80009 15.802 6.15009C15.802 6.56009 15.462 6.90009 15.052 6.90009C14.642 6.90009 14.302 6.56009 14.302 6.15009C14.302 4.39009 12.772 3.59009 11.362 3.59009H5.742C4.122 3.59009 2.802 4.91009 2.802 6.53009V11.1501C2.802 11.5701 2.462 11.9001 2.052 11.9001Z" fill="#171717"/>
<path d="M16.052 21.9H6.052C3.432 21.9 1.302 19.77 1.302 17.15V10.15C1.302 7.53002 3.432 5.40002 6.052 5.40002H16.052C18.672 5.40002 20.802 7.53002 20.802 10.15V11.6C20.802 12.01 20.462 12.35 20.052 12.35H18.972C18.622 12.35 18.302 12.48 18.072 12.72L18.062 12.73C17.732 13.06 17.602 13.52 17.722 13.97C17.872 14.53 18.462 14.94 19.122 14.94H20.052C20.462 14.94 20.802 15.28 20.802 15.69V17.14C20.802 19.77 18.672 21.9 16.052 21.9ZM6.052 6.90002C4.262 6.90002 2.802 8.36002 2.802 10.15V17.15C2.802 18.94 4.262 20.4 6.052 20.4H16.052C17.842 20.4 19.302 18.94 19.302 17.15V16.45H19.122C17.772 16.45 16.602 15.6 16.272 14.37C16.012 13.4 16.292 12.37 17.002 11.67C17.522 11.14 18.222 10.85 18.972 10.85H19.302V10.15C19.302 8.36002 17.842 6.90002 16.052 6.90002H6.052Z" fill="#171717"/>
<path d="M21.0219 16.45H19.0919C17.5819 16.45 16.3019 15.33 16.1819 13.89C16.1019 13.06 16.4019 12.25 17.0019 11.66C17.5019 11.14 18.2119 10.85 18.9619 10.85H21.0119C21.9919 10.85 22.7919 11.64 22.7919 12.62V14.68C22.8019 15.66 22.0019 16.45 21.0219 16.45ZM18.9719 12.35C18.6219 12.35 18.3019 12.48 18.0719 12.72C17.7819 13 17.6419 13.38 17.6819 13.76C17.7319 14.42 18.3719 14.95 19.0919 14.95H21.0219C21.1719 14.95 21.3019 14.83 21.3019 14.68V12.62C21.3019 12.47 21.1719 12.35 21.0219 12.35H18.9719Z" fill="#171717"/>
</svg>
