<svg width="25" height="24" viewBox="0 0 25 24" fill="none" xmlns="http://www.w3.org/2000/svg">
<path d="M14.5361 16H9.53613" stroke="#171717" stroke-width="1.5" stroke-miterlimit="10" stroke-linecap="round" stroke-linejoin="round"/>
<path d="M12.9363 2.52003L12.9063 2.59003L10.0063 9.32003H7.15633C6.47633 9.32003 5.82633 9.46003 5.23633 9.71003L6.98633 5.53003L7.02633 5.43003L7.09633 5.27003C7.11633 5.21003 7.13633 5.15003 7.16633 5.10003C8.47633 2.07003 9.95633 1.38003 12.9363 2.52003Z" stroke="#171717" stroke-width="1.5" stroke-linecap="round" stroke-linejoin="round"/>
<path d="M18.3263 9.52002C17.8763 9.38002 17.3963 9.32002 16.9163 9.32002H10.0063L12.9063 2.59002L12.9363 2.52002C13.0863 2.57002 13.2263 2.64002 13.3763 2.70002L15.5863 3.63002C16.8163 4.14002 17.6763 4.67002 18.1963 5.31002C18.2963 5.43002 18.3763 5.54002 18.4463 5.67002C18.5363 5.81002 18.6063 5.95002 18.6463 6.10002C18.6863 6.19002 18.7163 6.28002 18.7363 6.36002C19.0063 7.20002 18.8463 8.23002 18.3263 9.52002Z" stroke="#171717" stroke-width="1.5" stroke-linecap="round" stroke-linejoin="round"/>
<path d="M12.0361 22H8.13613C7.89613 22 7.65613 21.98 7.42613 21.95C4.24613 21.74 2.54613 20.04 2.33613 16.86C2.30613 16.63 2.28613 16.39 2.28613 16.15V14.2C2.28613 12.19 3.50613 10.46 5.24613 9.71001C5.84613 9.46001 6.48613 9.32001 7.16613 9.32001H16.9261C17.4161 9.32001 17.8961 9.39001 18.3361 9.52001C20.3361 10.12 21.7961 11.99 21.7961 14.19V16.14C21.7961 16.34 21.7861 16.54 21.7761 16.74C21.5861 20.24 19.6361 22 15.9361 22" stroke="#171717" stroke-width="1.5" stroke-linecap="round" stroke-linejoin="round"/>
<path d="M6.98637 5.53003L5.23637 9.71003C3.49637 10.46 2.27637 12.19 2.27637 14.2V11.27C2.27637 8.43003 4.29637 6.06003 6.98637 5.53003Z" stroke="#171717" stroke-width="1.5" stroke-linecap="round" stroke-linejoin="round"/>
<path d="M21.7959 11.27V14.2C21.7959 12 20.3359 10.13 18.3359 9.52998C18.8559 8.22998 19.0059 7.20998 18.7559 6.35998C18.7359 6.26998 18.7059 6.17998 18.6659 6.09998C20.5259 7.05998 21.7959 9.02998 21.7959 11.27Z" stroke="#171717" stroke-width="1.5" stroke-linecap="round" stroke-linejoin="round"/>
</svg>
