<svg width="25" height="24" viewBox="0 0 25 24" fill="none" xmlns="http://www.w3.org/2000/svg">
<path d="M12.0157 13.85C11.8857 13.85 11.7557 13.82 11.6457 13.75C11.2857 13.54 11.1657 13.08 11.3657 12.73L12.2157 11.25H11.3757C10.8757 11.25 10.4657 11.03 10.2457 10.66C10.0257 10.28 10.0457 9.82002 10.2957 9.38002L11.3657 7.52002C11.5757 7.16002 12.0357 7.04002 12.3857 7.24002C12.7457 7.45002 12.8657 7.91002 12.6657 8.26002L11.8157 9.75002H12.6557C13.1557 9.75002 13.5657 9.97002 13.7857 10.34C14.0057 10.72 13.9857 11.18 13.7357 11.62L12.6657 13.48C12.5257 13.72 12.2757 13.85 12.0157 13.85Z" fill="#171717"/>
<path d="M14.7857 19.75H9.27574C8.83574 19.75 8.27574 19.7 7.90574 19.32C7.54574 18.95 7.55574 18.49 7.56574 18.18V17.29C5.04574 15.61 3.38574 12.69 3.38574 9.91005C3.38574 7.28005 4.56574 4.82005 6.61574 3.17005C8.66574 1.52005 11.3557 0.900047 13.9857 1.48005C16.4857 2.03005 18.6457 3.70005 19.7657 5.95005C21.9357 10.32 19.8457 15.05 16.5057 17.3V18.05C16.5157 18.34 16.5257 18.87 16.1157 19.29C15.8057 19.59 15.3657 19.75 14.7857 19.75ZM9.05574 18.24C9.10574 18.24 9.17574 18.25 9.26574 18.25H14.7857C14.8857 18.25 14.9557 18.24 14.9957 18.23C14.9957 18.2 14.9957 18.16 14.9957 18.13V16.87C14.9957 16.61 15.1357 16.36 15.3557 16.23C18.3157 14.44 20.2757 10.35 18.4057 6.60005C17.4857 4.75005 15.7057 3.38005 13.6457 2.93005C11.4657 2.45005 9.23574 2.96005 7.53574 4.33005C5.83574 5.70005 4.86574 7.73005 4.86574 9.91005C4.86574 12.69 6.78574 15.09 8.68574 16.24C8.91574 16.38 9.04574 16.62 9.04574 16.88V18.23C9.05574 18.23 9.05574 18.23 9.05574 18.24Z" fill="#171717"/>
<path d="M15.5156 22.7499C15.4456 22.7499 15.3756 22.7399 15.3056 22.7199C13.1456 22.0999 10.8756 22.0999 8.71564 22.7199C8.31564 22.8299 7.90564 22.5999 7.78564 22.1999C7.66564 21.7999 7.90564 21.3899 8.30564 21.2699C10.7256 20.5799 13.2956 20.5799 15.7156 21.2699C16.1156 21.3799 16.3456 21.7999 16.2356 22.1999C16.1456 22.5399 15.8456 22.7499 15.5156 22.7499Z" fill="#171717"/>
</svg>
