<svg width="25" height="24" viewBox="0 0 25 24" fill="none" xmlns="http://www.w3.org/2000/svg">
<path opacity="0.4" d="M19.2256 6.36001C18.1856 4.26001 16.1756 2.71001 13.8456 2.20001C11.4056 1.66001 8.9056 2.24001 6.9956 3.78001C5.0756 5.31001 3.9856 7.60001 3.9856 10.05C3.9856 12.64 5.5356 15.35 7.8756 16.92V17.75C7.8656 18.03 7.8556 18.46 8.1956 18.81C8.5456 19.17 9.0656 19.21 9.4756 19.21H14.6056C15.1456 19.21 15.5556 19.06 15.8356 18.78C16.2156 18.39 16.2056 17.89 16.1956 17.62V16.92C19.2956 14.83 21.2456 10.42 19.2256 6.36001Z" fill="#171717"/>
<path d="M15.2755 22C15.2155 22 15.1455 21.99 15.0855 21.97C13.0755 21.4 10.9655 21.4 8.95553 21.97C8.58553 22.07 8.19553 21.86 8.09553 21.49C7.98553 21.12 8.20554 20.73 8.57554 20.63C10.8355 19.99 13.2155 19.99 15.4755 20.63C15.8455 20.74 16.0655 21.12 15.9555 21.49C15.8555 21.8 15.5755 22 15.2755 22Z" fill="#171717"/>
<path d="M12.0157 13.85C11.8857 13.85 11.7557 13.82 11.6457 13.75C11.2857 13.54 11.1657 13.08 11.3657 12.73L12.2157 11.25H11.3757C10.8757 11.25 10.4657 11.03 10.2457 10.66C10.0257 10.28 10.0457 9.82002 10.2957 9.38002L11.3657 7.52002C11.5757 7.16002 12.0357 7.04002 12.3857 7.24002C12.7457 7.45002 12.8657 7.91002 12.6657 8.26002L11.8157 9.75002H12.6557C13.1557 9.75002 13.5657 9.97002 13.7857 10.34C14.0057 10.72 13.9857 11.18 13.7357 11.62L12.6657 13.48C12.5257 13.72 12.2757 13.85 12.0157 13.85Z" fill="#171717"/>
</svg>
