<svg width="25" height="24" viewBox="0 0 25 24" fill="none" xmlns="http://www.w3.org/2000/svg">
<path d="M4.19574 19.08C4.00574 19.08 3.81574 19.01 3.66574 18.86C3.37574 18.57 3.37574 18.09 3.66574 17.8L19.5157 1.95004C19.8057 1.66004 20.2857 1.66004 20.5757 1.95004C20.8657 2.24004 20.8657 2.72004 20.5757 3.01004L4.72574 18.86C4.57574 19.01 4.38574 19.08 4.19574 19.08Z" fill="#171717"/>
<path d="M5.26569 13.75C4.97569 13.75 4.70569 13.58 4.57569 13.3C4.08569 12.18 3.83569 11.04 3.83569 9.90001C3.83569 7.18001 5.01569 4.67001 7.06569 3.01001C8.98569 1.47001 11.3657 0.910008 13.7657 1.44001C15.3457 1.79001 16.7857 2.62001 17.9157 3.84001C18.1957 4.14001 18.1757 4.62001 17.8757 4.90001C17.5757 5.18001 17.0957 5.16001 16.8157 4.86001C15.8857 3.86001 14.7257 3.18001 13.4457 2.90001C11.4957 2.48001 9.56569 2.93001 8.01569 4.18001C6.31569 5.55001 5.34569 7.63001 5.34569 9.90001C5.34569 10.83 5.55569 11.77 5.95569 12.7C6.12569 13.08 5.94569 13.52 5.56569 13.69C5.46569 13.73 5.36569 13.75 5.26569 13.75Z" fill="#171717"/>
<path d="M14.6257 19.75H9.43572C9.04572 19.75 8.49572 19.71 8.12572 19.33C7.76572 18.96 7.77572 18.49 7.78572 18.18V17.27C7.38572 16.99 7.00572 16.6699 6.64572 16.3099C6.35572 16.0199 6.35572 15.54 6.64572 15.25C6.93572 14.96 7.41572 14.96 7.70572 15.25C8.09572 15.63 8.50572 15.97 8.93572 16.25C9.14572 16.39 9.28572 16.6299 9.28572 16.8799V18.2199C9.28572 18.2299 9.28572 18.24 9.28572 18.25C9.32572 18.25 9.37572 18.25 9.44572 18.25H14.6357C14.7057 18.25 14.7557 18.25 14.7957 18.24C14.7957 18.2 14.7957 18.1599 14.7957 18.1299V16.87C14.7957 16.61 14.9257 16.38 15.1457 16.24C17.6157 14.66 19.5157 11.16 18.3757 7.52995C18.2557 7.12995 18.4757 6.70995 18.8657 6.58995C19.2557 6.45995 19.6857 6.68995 19.8057 7.07995C21.1157 11.26 19.0757 15.29 16.2957 17.27V18.04C16.3057 18.35 16.3157 18.8799 15.9057 19.2999C15.5957 19.5999 15.1757 19.75 14.6257 19.75Z" fill="#171717"/>
<path d="M15.5156 22.7499C15.4456 22.7499 15.3756 22.7399 15.3056 22.7199C13.1456 22.0999 10.8756 22.0999 8.71564 22.7199C8.31564 22.8299 7.90564 22.5999 7.78564 22.1999C7.66564 21.7999 7.90564 21.3899 8.30564 21.2699C10.7256 20.5799 13.2956 20.5799 15.7156 21.2699C16.1156 21.3799 16.3456 21.7999 16.2356 22.1999C16.1456 22.5399 15.8456 22.7499 15.5156 22.7499Z" fill="#171717"/>
</svg>
