<svg width="25" height="24" viewBox="0 0 25 24" fill="none" xmlns="http://www.w3.org/2000/svg">
<path d="M15.2755 22C15.2155 22 15.1455 21.99 15.0855 21.97C13.0755 21.4 10.9655 21.4 8.95553 21.97C8.58553 22.07 8.19553 21.86 8.09553 21.49C7.98553 21.12 8.20554 20.73 8.57554 20.63C10.8355 19.99 13.2155 19.99 15.4755 20.63C15.8455 20.74 16.0655 21.12 15.9555 21.49C15.8555 21.8 15.5755 22 15.2755 22Z" fill="#171717"/>
<path d="M4.19574 19.08C4.00574 19.08 3.81574 19.01 3.66574 18.86C3.37574 18.57 3.37574 18.09 3.66574 17.8L19.5157 1.95004C19.8057 1.66004 20.2857 1.66004 20.5757 1.95004C20.8657 2.24004 20.8657 2.72004 20.5757 3.01004L4.72574 18.86C4.57574 19.01 4.38574 19.08 4.19574 19.08Z" fill="#171717"/>
<path opacity="0.4" d="M16.6456 3.41994L5.5056 14.5599C4.5456 13.1999 3.9856 11.5999 3.9856 10.0499C3.9856 7.59994 5.0756 5.30994 6.9856 3.76994C8.8956 2.22994 11.3956 1.65994 13.8456 2.19994C14.8556 2.41994 15.8056 2.83994 16.6456 3.41994Z" fill="#171717"/>
<path opacity="0.4" d="M16.1857 16.9201V17.6201C16.1957 17.8801 16.2157 18.3801 15.8257 18.7801C15.5457 19.0601 15.1357 19.2101 14.5957 19.2101H9.46573C9.05573 19.2101 8.53573 19.1601 8.18573 18.8101C7.85573 18.4601 7.86573 18.0301 7.87573 17.7501V16.9201C7.42573 16.6201 7.00573 16.2801 6.62573 15.9001L17.9657 4.56006C18.4657 5.09006 18.8957 5.70006 19.2257 6.36006C21.2457 10.4201 19.2957 14.8301 16.1857 16.9201Z" fill="#171717"/>
</svg>
