<svg width="25" height="24" viewBox="0 0 25 24" fill="none" xmlns="http://www.w3.org/2000/svg">
<path d="M19.0156 8.75C16.9456 8.75 15.2656 7.07 15.2656 5C15.2656 2.93 16.9456 1.25 19.0156 1.25C21.0856 1.25 22.7656 2.93 22.7656 5C22.7656 7.07 21.0856 8.75 19.0156 8.75ZM19.0156 2.75C17.7756 2.75 16.7656 3.76 16.7656 5C16.7656 6.24 17.7756 7.25 19.0156 7.25C20.2556 7.25 21.2656 6.24 21.2656 5C21.2656 3.76 20.2556 2.75 19.0156 2.75Z" fill="#171717"/>
<path d="M12.0156 22.75C6.08563 22.75 1.26562 17.93 1.26562 12C1.26562 6.07 6.08563 1.25 12.0156 1.25C12.7456 1.25 13.4756 1.32 14.1856 1.47C14.5956 1.55 14.8556 1.95 14.7656 2.36C14.6856 2.77 14.2856 3.03 13.8856 2.94C13.2756 2.81 12.6456 2.75 12.0156 2.75C6.91563 2.75 2.76562 6.9 2.76562 12C2.76562 17.1 6.91563 21.25 12.0156 21.25C17.1156 21.25 21.2656 17.1 21.2656 12C21.2656 11.38 21.2056 10.76 21.0856 10.16C21.0056 9.75 21.2656 9.36 21.6756 9.28C22.0856 9.19 22.4756 9.46 22.5556 9.87C22.6956 10.57 22.7656 11.29 22.7656 12.01C22.7656 17.93 17.9456 22.75 12.0156 22.75Z" fill="#171717"/>
</svg>
