<svg width="25" height="24" viewBox="0 0 25 24" fill="none" xmlns="http://www.w3.org/2000/svg">
<path opacity="0.4" d="M20.4156 16.33C20.1356 17.08 19.5456 17.65 18.7756 17.91C17.6956 18.27 16.5856 18.54 15.4656 18.73C15.3556 18.75 15.2456 18.7701 15.1356 18.7801C14.9556 18.8101 14.7756 18.83 14.5956 18.85C14.3756 18.8801 14.1456 18.9 13.9156 18.92C13.2856 18.97 12.6656 19 12.0356 19C11.3956 19 10.7556 18.97 10.1256 18.91C9.85558 18.89 9.59558 18.8601 9.33558 18.82C9.18558 18.8 9.03558 18.7801 8.89558 18.76C8.78558 18.74 8.67558 18.73 8.56558 18.71C7.45558 18.53 6.35558 18.26 5.28558 17.9C4.48558 17.63 3.87558 17.06 3.60558 16.33C3.33558 15.61 3.43558 14.77 3.86558 14.05L4.99558 12.17C5.23558 11.76 5.45558 10.97 5.45558 10.49V8.63005C5.45558 5.00005 8.40558 2.05005 12.0356 2.05005C15.6556 2.05005 18.6056 5.00005 18.6056 8.63005V10.49C18.6056 10.97 18.8256 11.76 19.0756 12.17L20.2056 14.05C20.6156 14.75 20.6956 15.57 20.4156 16.33Z" fill="#171717"/>
<path d="M12.0156 10.76C11.5956 10.76 11.2556 10.42 11.2556 10V6.90001C11.2556 6.48001 11.5956 6.14001 12.0156 6.14001C12.4356 6.14001 12.7756 6.48001 12.7756 6.90001V10C12.7656 10.42 12.4256 10.76 12.0156 10.76Z" fill="#171717"/>
<path d="M14.8456 20.01C14.4256 21.17 13.3156 22 12.0156 22C11.2256 22 10.4456 21.68 9.89556 21.11C9.57556 20.81 9.33556 20.41 9.19556 20C9.32556 20.02 9.45556 20.03 9.59556 20.05C9.82556 20.08 10.0656 20.11 10.3056 20.13C10.8756 20.18 11.4556 20.21 12.0356 20.21C12.6056 20.21 13.1756 20.18 13.7356 20.13C13.9456 20.11 14.1556 20.1 14.3556 20.07C14.5156 20.05 14.6756 20.03 14.8456 20.01Z" fill="#171717"/>
</svg>
