<svg width="25" height="24" viewBox="0 0 25 24" fill="none" xmlns="http://www.w3.org/2000/svg">
<path d="M12.0156 10.5199C11.6056 10.5199 11.2656 10.1799 11.2656 9.76994V6.43994C11.2656 6.02994 11.6056 5.68994 12.0156 5.68994C12.4256 5.68994 12.7656 6.02994 12.7656 6.43994V9.76994C12.7656 10.1899 12.4256 10.5199 12.0156 10.5199Z" fill="#171717"/>
<path d="M12.0357 20.35C9.45574 20.35 6.88574 19.94 4.43574 19.12C3.52574 18.82 2.83574 18.17 2.53574 17.35C2.23574 16.53 2.33574 15.59 2.82574 14.77L4.09574 12.65C4.37574 12.18 4.62574 11.3 4.62574 10.75V8.64999C4.62574 4.55999 7.94574 1.23999 12.0357 1.23999C16.1257 1.23999 19.4457 4.55999 19.4457 8.64999V10.75C19.4457 11.29 19.6957 12.18 19.9757 12.65L21.2457 14.77C21.7157 15.55 21.7957 16.48 21.4857 17.33C21.1757 18.18 20.4957 18.83 19.6357 19.12C17.1857 19.95 14.6157 20.35 12.0357 20.35ZM12.0357 2.74999C8.77574 2.74999 6.12574 5.39999 6.12574 8.65999V10.76C6.12574 11.57 5.80574 12.74 5.38574 13.43L4.11574 15.56C3.85574 15.99 3.79574 16.45 3.94574 16.85C4.09574 17.25 4.43574 17.55 4.91574 17.71C9.51574 19.24 14.5757 19.24 19.1757 17.71C19.6057 17.57 19.9357 17.25 20.0857 16.83C20.2457 16.41 20.1957 15.95 19.9657 15.56L18.6957 13.44C18.2757 12.75 17.9557 11.58 17.9557 10.77V8.66999C17.9457 5.39999 15.2957 2.74999 12.0357 2.74999Z" fill="#171717"/>
<path d="M12.0155 22.8999C10.9455 22.8999 9.89555 22.4599 9.13555 21.6999C8.37555 20.9399 7.93555 19.8899 7.93555 18.8199H9.43555C9.43555 19.4999 9.71555 20.1599 10.1955 20.6399C10.6755 21.1199 11.3355 21.3999 12.0155 21.3999C13.4355 21.3999 14.5955 20.2399 14.5955 18.8199H16.0955C16.0955 21.0699 14.2655 22.8999 12.0155 22.8999Z" fill="#171717"/>
</svg>
