<svg width="25" height="24" viewBox="0 0 25 24" fill="none" xmlns="http://www.w3.org/2000/svg">
<path d="M19.0156 8.75C16.9456 8.75 15.2656 7.07 15.2656 5C15.2656 2.93 16.9456 1.25 19.0156 1.25C21.0856 1.25 22.7656 2.93 22.7656 5C22.7656 7.07 21.0856 8.75 19.0156 8.75ZM19.0156 2.75C17.7756 2.75 16.7656 3.76 16.7656 5C16.7656 6.24 17.7756 7.25 19.0156 7.25C20.2556 7.25 21.2656 6.24 21.2656 5C21.2656 3.76 20.2556 2.75 19.0156 2.75Z" fill="#171717"/>
<path d="M15.0156 22.75H9.01562C3.58563 22.75 1.26562 20.43 1.26562 15V9C1.26562 3.57 3.58563 1.25 9.01562 1.25H14.0156C14.4256 1.25 14.7656 1.59 14.7656 2C14.7656 2.41 14.4256 2.75 14.0156 2.75H9.01562C4.40562 2.75 2.76562 4.39 2.76562 9V15C2.76562 19.61 4.40562 21.25 9.01562 21.25H15.0156C19.6256 21.25 21.2656 19.61 21.2656 15V10C21.2656 9.59 21.6056 9.25 22.0156 9.25C22.4256 9.25 22.7656 9.59 22.7656 10V15C22.7656 20.43 20.4456 22.75 15.0156 22.75Z" fill="#171717"/>
</svg>
