<svg width="25" height="24" viewBox="0 0 25 24" fill="none" xmlns="http://www.w3.org/2000/svg">
<path d="M19.0156 8C20.6725 8 22.0156 6.65685 22.0156 5C22.0156 3.34315 20.6725 2 19.0156 2C17.3588 2 16.0156 3.34315 16.0156 5C16.0156 6.65685 17.3588 8 19.0156 8Z" fill="#171717"/>
<path opacity="0.4" d="M19.0156 9.5C16.5356 9.5 14.5156 7.48 14.5156 5C14.5156 4.09 14.7856 3.25 15.2556 2.55C14.2356 2.2 13.1456 2 12.0156 2C6.50562 2 2.01562 6.49 2.01562 12C2.01562 17.51 6.50562 22 12.0156 22C17.5256 22 22.0156 17.51 22.0156 12C22.0156 10.87 21.8156 9.78 21.4656 8.76C20.7656 9.23 19.9256 9.5 19.0156 9.5Z" fill="#171717"/>
</svg>
