<svg width="25" height="24" viewBox="0 0 25 24" fill="none" xmlns="http://www.w3.org/2000/svg">
<path opacity="0.4" d="M19.3556 14.49L18.3556 12.83C18.1456 12.46 17.9556 11.76 17.9556 11.35V8.82002C17.9556 5.56002 15.3056 2.90002 12.0356 2.90002C8.76557 2.90002 6.11557 5.56002 6.11557 8.82002V11.35C6.11557 11.76 5.92557 12.46 5.71557 12.82L4.70557 14.49C4.30557 15.16 4.21557 15.9 4.46557 16.58C4.70557 17.25 5.27557 17.77 6.01557 18.02C7.95557 18.68 9.99557 19 12.0356 19C14.0756 19 16.1156 18.68 18.0556 18.03C18.7556 17.8 19.2956 17.27 19.5556 16.58C19.8156 15.89 19.7456 15.13 19.3556 14.49Z" fill="#171717"/>
<path d="M14.2657 3.32C13.5757 3.05 12.8257 2.9 12.0357 2.9C11.2557 2.9 10.5057 3.04 9.81567 3.32C10.2457 2.51 11.0957 2 12.0357 2C12.9857 2 13.8257 2.51 14.2657 3.32Z" fill="#171717"/>
<path d="M14.8456 20.01C14.4256 21.17 13.3156 22 12.0156 22C11.2256 22 10.4456 21.68 9.89556 21.11C9.57556 20.81 9.33556 20.41 9.19556 20C9.32556 20.02 9.45556 20.03 9.59556 20.05C9.82556 20.08 10.0656 20.11 10.3056 20.13C10.8756 20.18 11.4556 20.21 12.0356 20.21C12.6056 20.21 13.1756 20.18 13.7356 20.13C13.9456 20.11 14.1556 20.1 14.3556 20.07C14.5156 20.05 14.6756 20.03 14.8456 20.01Z" fill="#171717"/>
</svg>
