<svg width="25" height="24" viewBox="0 0 25 24" fill="none" xmlns="http://www.w3.org/2000/svg">
<path d="M19.0156 8C20.6725 8 22.0156 6.65685 22.0156 5C22.0156 3.34315 20.6725 2 19.0156 2C17.3588 2 16.0156 3.34315 16.0156 5C16.0156 6.65685 17.3588 8 19.0156 8Z" fill="#171717"/>
<path opacity="0.4" d="M19.0156 9.5C16.5356 9.5 14.5156 7.48 14.5156 5C14.5156 4.28 14.7056 3.61 15.0056 3H7.53562C4.08562 3 2.01562 5.06 2.01562 8.52V16.47C2.01562 19.94 4.08562 22 7.53562 22H15.4856C18.9456 22 21.0056 19.94 21.0056 16.48V9.01C20.4056 9.31 19.7356 9.5 19.0156 9.5Z" fill="#171717"/>
</svg>
