<svg width="25" height="24" viewBox="0 0 25 24" fill="none" xmlns="http://www.w3.org/2000/svg">
<path d="M21.7055 2.71002C21.6255 2.53002 21.4856 2.37999 21.2956 2.29999C21.2056 2.25999 21.1055 2.23999 21.0055 2.23999H12.0055C11.5955 2.23999 11.2555 2.57999 11.2555 2.98999C11.2555 3.39999 11.5955 3.73999 12.0055 3.73999H19.1955L2.47556 20.46C2.18556 20.75 2.18556 21.23 2.47556 21.52C2.62556 21.67 2.81552 21.74 3.00552 21.74C3.19552 21.74 3.38555 21.67 3.53555 21.52L20.2555 4.79999V12C20.2555 12.41 20.5955 12.75 21.0055 12.75C21.4155 12.75 21.7555 12.41 21.7555 12V3C21.7655 2.9 21.7455 2.81002 21.7055 2.71002Z" fill="#171717"/>
<path opacity="0.4" d="M17.4157 18.1501C17.2257 18.1501 17.0357 18.08 16.8857 17.93L6.08566 7.13004C5.79566 6.84004 5.79566 6.36004 6.08566 6.07004C6.37566 5.78004 6.85566 5.78004 7.14566 6.07004L17.9456 16.87C18.2356 17.16 18.2356 17.64 17.9456 17.93C17.7956 18.08 17.6057 18.1501 17.4157 18.1501Z" fill="#171717"/>
</svg>
