<svg width="25" height="24" viewBox="0 0 25 24" fill="none" xmlns="http://www.w3.org/2000/svg">
<path opacity="0.4" d="M18.0156 13.75C18.0156 18.03 14.5456 21.5 10.2656 21.5C5.98562 21.5 2.51562 18.03 2.51562 13.75C2.51562 9.47 5.98562 6 10.2656 6C12.1356 6 13.8456 6.66 15.1856 7.77H15.1956C15.5856 8.09 15.9356 8.44 16.2456 8.83C17.3556 10.17 18.0156 11.88 18.0156 13.75Z" fill="#171717"/>
<path d="M22.2656 2.5V9C22.2656 9.41 21.9256 9.75 21.5156 9.75C21.1056 9.75 20.7656 9.41 20.7656 9V4.31L16.2456 8.83C15.9356 8.44 15.5856 8.09 15.1956 7.77L19.7056 3.25H15.0156C14.6056 3.25 14.2656 2.91 14.2656 2.5C14.2656 2.09 14.6056 1.75 15.0156 1.75H21.5156C21.6156 1.75 21.7056 1.77 21.8056 1.81C21.9856 1.88 22.1356 2.03 22.2056 2.21C22.2456 2.31 22.2656 2.4 22.2656 2.5Z" fill="#171717"/>
</svg>
