<svg width="25" height="24" viewBox="0 0 25 24" fill="none" xmlns="http://www.w3.org/2000/svg">
<path opacity="0.4" d="M19.0156 9C19.0156 12.62 16.2756 15.59 12.7656 15.96C12.5156 15.99 12.2656 16 12.0156 16C11.7656 16 11.5156 15.99 11.2656 15.96C7.75563 15.59 5.01562 12.62 5.01562 9C5.01562 5.13 8.14563 2 12.0156 2C15.8856 2 19.0156 5.13 19.0156 9Z" fill="#171717"/>
<path d="M15.7656 19C15.7656 19.41 15.4256 19.75 15.0156 19.75H12.7656V22C12.7656 22.41 12.4256 22.75 12.0156 22.75C11.6056 22.75 11.2656 22.41 11.2656 22V19.75H9.01562C8.60563 19.75 8.26562 19.41 8.26562 19C8.26562 18.59 8.60563 18.25 9.01562 18.25H11.2656V15.96C11.5156 15.99 11.7656 16 12.0156 16C12.2656 16 12.5156 15.99 12.7656 15.96V18.25H15.0156C15.4256 18.25 15.7656 18.59 15.7656 19Z" fill="#171717"/>
</svg>
