<svg width="24" height="24" viewBox="0 0 24 24" fill="none" xmlns="http://www.w3.org/2000/svg">
<path opacity="0.4" d="M17.95 7.70998L17.81 7.62998L16.42 6.82998L13.55 5.16998C12.67 4.65998 11.33 4.65998 10.45 5.16998L7.57998 6.82998L6.18998 7.63998L6.00998 7.73998C4.21998 8.93998 4.09998 9.15998 4.09998 11.09V15.7C4.09998 17.63 4.21998 17.85 6.04998 19.08L10.45 21.62C10.89 21.88 11.44 22 12 22C12.55 22 13.11 21.88 13.55 21.62L17.99 19.05C19.78 17.85 19.9 17.63 19.9 15.7V11.09C19.9 9.15998 19.78 8.93998 17.95 7.70998Z" fill="#171717"/>
<path d="M6.19 7.64L7.58 6.83L10.32 5.25L10.45 5.17C11.33 4.66 12.67 4.66 13.55 5.17L13.68 5.25L16.42 6.83L17.81 7.63V5.49C17.81 3.24 16.57 2 14.32 2H9.67C7.42 2 6.19 3.24 6.19 5.49V7.64Z" fill="#171717"/>
<path d="M14.84 13.34L14.22 14.1C14.12 14.21 14.05 14.43 14.06 14.58L14.12 15.56C14.16 16.16 13.73 16.47 13.17 16.25L12.26 15.89C12.12 15.84 11.88 15.84 11.74 15.89L10.83 16.25C10.27 16.47 9.83999 16.16 9.87999 15.56L9.93999 14.58C9.94999 14.43 9.87999 14.21 9.77999 14.1L9.15999 13.34C8.76999 12.88 8.93999 12.37 9.51999 12.22L10.47 11.98C10.62 11.94 10.8 11.8 10.88 11.67L11.41 10.85C11.74 10.34 12.26 10.34 12.59 10.85L13.12 11.67C13.2 11.8 13.38 11.94 13.53 11.98L14.48 12.22C15.06 12.37 15.23 12.88 14.84 13.34Z" fill="#171717"/>
</svg>
