<svg width="24" height="24" viewBox="0 0 24 24" fill="none" xmlns="http://www.w3.org/2000/svg">
<path opacity="0.4" d="M21.85 11.41L21.23 18.19C21.02 20.19 20.2 22.23 15.8 22.23H8.18002C3.78002 22.23 2.96002 20.19 2.76002 18.2L2.15002 11.69C2.16002 11.7 2.17002 11.71 2.19002 11.72C2.53002 11.94 2.86002 12.16 3.22002 12.36C3.36002 12.45 3.51002 12.53 3.66002 12.61C4.79002 13.23 6.00002 13.72 7.25002 14.06C7.75002 14.21 8.26002 14.32 8.78002 14.41C8.98002 16.01 10.35 17.25 12 17.25C13.67 17.25 15.05 15.98 15.23 14.35V14.34C15.74 14.24 16.25 14.11 16.75 13.96C18 13.57 19.21 13.05 20.34 12.39C20.4 12.36 20.45 12.33 20.49 12.3C20.95 12.05 21.39 11.76 21.81 11.46C21.83 11.45 21.84 11.43 21.85 11.41Z" fill="#171717"/>
<path d="M21.09 6.98002C20.24 6.04002 18.83 5.57002 16.76 5.57002H16.52V5.53002C16.52 3.85002 16.52 1.77002 12.76 1.77002H11.24C7.47998 1.77002 7.47998 3.85002 7.47998 5.53002V5.57002H7.23998C5.16998 5.57002 3.74998 6.04002 2.90998 6.98002C1.91998 8.09002 1.94998 9.56002 2.04998 10.57L2.05998 10.64L2.14998 11.69C2.15998 11.7 2.17998 11.71 2.19998 11.72C2.53998 11.94 2.86998 12.16 3.22998 12.36C3.36998 12.45 3.51998 12.53 3.66998 12.61C4.79998 13.23 6.00998 13.72 7.24998 14.06C7.27998 16.65 9.39998 18.75 12 18.75C14.62 18.75 16.75 16.62 16.75 14V13.96C18.01 13.58 19.22 13.05 20.35 12.39C20.41 12.36 20.45 12.33 20.5 12.3C20.96 12.05 21.4 11.76 21.82 11.46C21.83 11.45 21.85 11.43 21.86 11.41L21.9 11.05L21.95 10.58C21.96 10.52 21.96 10.47 21.97 10.4C22.05 9.40002 22.03 8.02002 21.09 6.98002ZM8.90998 5.53002C8.90998 3.83002 8.90998 3.19002 11.24 3.19002H12.76C15.09 3.19002 15.09 3.83002 15.09 5.53002V5.57002H8.90998V5.53002ZM12 17.25C10.35 17.25 8.97998 16.01 8.77998 14.41C8.75998 14.28 8.74998 14.14 8.74998 14C8.74998 12.21 10.21 10.75 12 10.75C13.79 10.75 15.25 12.21 15.25 14C15.25 14.12 15.24 14.23 15.23 14.34V14.35C15.05 15.98 13.67 17.25 12 17.25Z" fill="#171717"/>
<path d="M11.43 16.03C11.24 16.03 11.05 15.96 10.9 15.81L9.91 14.83C9.62 14.54 9.62 14.06 9.91 13.77C10.2 13.48 10.68 13.48 10.97 13.77L11.45 14.25L13.06 12.77C13.36 12.49 13.84 12.51 14.12 12.81C14.4 13.11 14.38 13.59 14.08 13.87L11.95 15.84C11.79 15.96 11.61 16.03 11.43 16.03Z" fill="#171717"/>
</svg>
