<svg width="24" height="24" viewBox="0 0 24 24" fill="none" xmlns="http://www.w3.org/2000/svg">
<path d="M13.89 2.88002L9.20001 2.14002C5.29001 1.53002 3.48001 2.85002 2.86001 6.76002L2.12001 11.45C1.72001 14.01 2.14001 15.67 3.59001 16.68C4.35001 17.22 5.39001 17.58 6.74001 17.79L11.43 18.53C15.34 19.14 17.15 17.82 17.77 13.91L18.5 9.22002C18.62 8.45002 18.67 7.76002 18.63 7.15002C18.5 4.65002 17.03 3.37002 13.89 2.88002ZM8.24001 9.35002C7.07001 9.35002 6.12001 8.40002 6.12001 7.24002C6.12001 6.07002 7.07001 5.12002 8.24001 5.12002C9.40001 5.12002 10.35 6.07002 10.35 7.24002C10.35 8.40002 9.40001 9.35002 8.24001 9.35002Z" fill="#171717"/>
<path d="M20.5 13.47L19 17.98C17.75 21.74 15.75 22.74 11.99 21.49L7.48 19.99C6.07 19.52 5.05 18.94 4.39 18.21C5.02 18.46 5.75 18.65 6.58 18.78L11.28 19.52C11.92 19.62 12.52 19.67 13.08 19.67C16.38 19.67 18.15 17.89 18.76 14.06L19.49 9.37C19.59 8.79 19.63 8.28 19.63 7.81C21.15 9.06 21.37 10.84 20.5 13.47Z" fill="#171717"/>
</svg>
