<svg width="24" height="24" viewBox="0 0 24 24" fill="none" xmlns="http://www.w3.org/2000/svg">
<path d="M13.05 19.42C12.51 19.42 11.94 19.37 11.32 19.27L6.63 18.53C5.15 18.3 4.01 17.89 3.16 17.29C0.970002 15.77 1.1 13.16 1.38 11.33L2.12 6.63999C2.8 2.33999 5.02 0.72999 9.32 1.39999L14.01 2.13999C16.22 2.48999 19.19 3.37999 19.38 7.10999C19.42 7.74999 19.38 8.47999 19.24 9.33999L18.51 14.03C17.93 17.7 16.22 19.42 13.05 19.42ZM7.53 2.74999C5.15 2.74999 4.07 3.95999 3.6 6.87999L2.86 11.57C2.4 14.52 3.24 15.52 4.02 16.07C4.68 16.54 5.61 16.86 6.86 17.05L11.55 17.79C15.04 18.34 16.48 17.29 17.03 13.79L17.76 9.09999C17.88 8.34999 17.92 7.71999 17.88 7.18999V7.17999C17.77 5.07999 16.58 4.04999 13.77 3.60999L9.09 2.87999C8.51 2.78999 8 2.74999 7.53 2.74999Z" fill="#171717"/>
<path d="M14.68 22.75C13.83 22.75 12.87 22.57 11.76 22.2L7.24999 20.7C4.67999 19.85 3.28999 18.63 2.86999 16.85C2.79999 16.55 2.91999 16.23 3.17999 16.06C3.43999 15.89 3.77999 15.89 4.02999 16.07C4.68999 16.54 5.60999 16.86 6.85999 17.05L11.55 17.79C15.04 18.34 16.48 17.29 17.03 13.79L17.76 9.10001C17.88 8.35001 17.92 7.72001 17.88 7.19001C17.87 6.93001 18 6.67001 18.23 6.52001C18.46 6.37001 18.75 6.36001 18.99 6.49001C21.67 7.92001 22.38 10.21 21.22 13.71L19.72 18.22C19.01 20.34 18.08 21.64 16.78 22.29C16.15 22.6 15.46 22.75 14.68 22.75ZM5.72999 18.36C6.20999 18.68 6.84999 18.99 7.71999 19.28L12.23 20.78C13.95 21.35 15.18 21.4 16.1 20.95C17.02 20.49 17.72 19.47 18.29 17.75L19.79 13.24C20.61 10.76 20.29 9.44001 19.34 8.55001C19.32 8.80001 19.28 9.06001 19.24 9.34001L18.51 14.03C17.83 18.33 15.61 19.94 11.31 19.28L6.61999 18.54C6.30999 18.48 6.00999 18.42 5.72999 18.36Z" fill="#171717"/>
<path d="M8.24 9.71999C6.87 9.71999 5.75 8.59999 5.75 7.22999C5.75 5.85999 6.87 4.73999 8.24 4.73999C9.61 4.73999 10.73 5.85999 10.73 7.22999C10.73 8.59999 9.61 9.71999 8.24 9.71999ZM8.24 6.24999C7.7 6.24999 7.25 6.68999 7.25 7.23999C7.25 7.78999 7.69 8.22999 8.24 8.22999C8.78 8.22999 9.23 7.78999 9.23 7.23999C9.23 6.68999 8.78 6.24999 8.24 6.24999Z" fill="#171717"/>
</svg>
