<svg width="24" height="24" viewBox="0 0 24 24" fill="none" xmlns="http://www.w3.org/2000/svg">
<path d="M22 8C22 4 20 2 16 2H8C4 2 2 4 2 8V21C2 21.55 2.45 22 3 22H16C20 22 22 20 22 16V12" stroke="#171717" stroke-width="1.5" stroke-linecap="round" stroke-linejoin="round"/>
<path d="M15.5098 11.74L16.1598 11.09C16.1998 11.05 16.2398 11.01 16.2798 10.96C17.0898 10.1 17.4098 9.08999 16.1598 7.83999C14.8398 6.51999 13.7998 6.94999 12.9098 7.83999L7.71979 13.03C7.51979 13.23 7.3298 13.62 7.2898 13.9L7.0098 15.88C6.9098 16.6 7.40979 17.1 8.12979 17L10.1098 16.72C10.3898 16.68 10.7798 16.49 10.9798 16.29L12.9198 14.35" stroke="#171717" stroke-width="1.5" stroke-miterlimit="10" stroke-linecap="round" stroke-linejoin="round"/>
<path d="M12.1699 8.58002C12.6099 10.15 13.8399 11.39 15.4199 11.83" stroke="#171717" stroke-width="1.5" stroke-miterlimit="10" stroke-linecap="round" stroke-linejoin="round"/>
</svg>
