<svg width="25" height="24" viewBox="0 0 25 24" fill="none" xmlns="http://www.w3.org/2000/svg">
<path d="M22.0156 18.25H15.0156C14.6056 18.25 14.2656 17.91 14.2656 17.5C14.2656 17.09 14.6056 16.75 15.0156 16.75H22.0156C22.4256 16.75 22.7656 17.09 22.7656 17.5C22.7656 17.91 22.4256 18.25 22.0156 18.25Z" fill="#171717"/>
<path d="M5.01562 18.25H2.01562C1.60563 18.25 1.26562 17.91 1.26562 17.5C1.26562 17.09 1.60563 16.75 2.01562 16.75H5.01562C5.42562 16.75 5.76562 17.09 5.76562 17.5C5.76562 17.91 5.42562 18.25 5.01562 18.25Z" fill="#171717"/>
<path d="M22.0156 7.25H19.0156C18.6056 7.25 18.2656 6.91 18.2656 6.5C18.2656 6.09 18.6056 5.75 19.0156 5.75H22.0156C22.4256 5.75 22.7656 6.09 22.7656 6.5C22.7656 6.91 22.4256 7.25 22.0156 7.25Z" fill="#171717"/>
<path d="M9.01562 7.25H2.01562C1.60563 7.25 1.26562 6.91 1.26562 6.5C1.26562 6.09 1.60563 5.75 2.01562 5.75H9.01562C9.42562 5.75 9.76562 6.09 9.76562 6.5C9.76562 6.91 9.42562 7.25 9.01562 7.25Z" fill="#171717"/>
<path d="M13.0156 21.25H7.01562C5.29562 21.25 4.26562 20.22 4.26562 18.5V16.5C4.26562 14.78 5.29562 13.75 7.01562 13.75H13.0156C14.7356 13.75 15.7656 14.78 15.7656 16.5V18.5C15.7656 20.22 14.7356 21.25 13.0156 21.25ZM7.01562 15.25C6.12563 15.25 5.76562 15.61 5.76562 16.5V18.5C5.76562 19.39 6.12563 19.75 7.01562 19.75H13.0156C13.9056 19.75 14.2656 19.39 14.2656 18.5V16.5C14.2656 15.61 13.9056 15.25 13.0156 15.25H7.01562Z" fill="#171717"/>
<path d="M17.0156 10.25H11.0156C9.29562 10.25 8.26562 9.22 8.26562 7.5V5.5C8.26562 3.78 9.29562 2.75 11.0156 2.75H17.0156C18.7356 2.75 19.7656 3.78 19.7656 5.5V7.5C19.7656 9.22 18.7356 10.25 17.0156 10.25ZM11.0156 4.25C10.1256 4.25 9.76562 4.61 9.76562 5.5V7.5C9.76562 8.39 10.1256 8.75 11.0156 8.75H17.0156C17.9056 8.75 18.2656 8.39 18.2656 7.5V5.5C18.2656 4.61 17.9056 4.25 17.0156 4.25H11.0156Z" fill="#171717"/>
</svg>
