<svg width="25" height="24" viewBox="0 0 25 24" fill="none" xmlns="http://www.w3.org/2000/svg">
<path d="M6.51562 22.75C6.10563 22.75 5.76562 22.41 5.76562 22V15C5.76562 14.59 6.10563 14.25 6.51562 14.25C6.92562 14.25 7.26562 14.59 7.26562 15V22C7.26562 22.41 6.92562 22.75 6.51562 22.75Z" fill="#171717"/>
<path d="M6.51562 5.75C6.10563 5.75 5.76562 5.41 5.76562 5V2C5.76562 1.59 6.10563 1.25 6.51562 1.25C6.92562 1.25 7.26562 1.59 7.26562 2V5C7.26562 5.41 6.92562 5.75 6.51562 5.75Z" fill="#171717"/>
<path d="M17.5156 22.75C17.1056 22.75 16.7656 22.41 16.7656 22V19C16.7656 18.59 17.1056 18.25 17.5156 18.25C17.9256 18.25 18.2656 18.59 18.2656 19V22C18.2656 22.41 17.9256 22.75 17.5156 22.75Z" fill="#171717"/>
<path d="M17.5156 9.75C17.1056 9.75 16.7656 9.41 16.7656 9V2C16.7656 1.59 17.1056 1.25 17.5156 1.25C17.9256 1.25 18.2656 1.59 18.2656 2V9C18.2656 9.41 17.9256 9.75 17.5156 9.75Z" fill="#171717"/>
<path d="M7.51562 15.75H5.51562C3.79562 15.75 2.76562 14.72 2.76562 13V7C2.76562 5.28 3.79562 4.25 5.51562 4.25H7.51562C9.23563 4.25 10.2656 5.28 10.2656 7V13C10.2656 14.72 9.23563 15.75 7.51562 15.75ZM5.51562 5.75C4.62563 5.75 4.26562 6.11 4.26562 7V13C4.26562 13.89 4.62563 14.25 5.51562 14.25H7.51562C8.40562 14.25 8.76562 13.89 8.76562 13V7C8.76562 6.11 8.40562 5.75 7.51562 5.75H5.51562Z" fill="#171717"/>
<path d="M18.5156 19.75H16.5156C14.7956 19.75 13.7656 18.72 13.7656 17V11C13.7656 9.28 14.7956 8.25 16.5156 8.25H18.5156C20.2356 8.25 21.2656 9.28 21.2656 11V17C21.2656 18.72 20.2356 19.75 18.5156 19.75ZM16.5156 9.75C15.6256 9.75 15.2656 10.11 15.2656 11V17C15.2656 17.89 15.6256 18.25 16.5156 18.25H18.5156C19.4056 18.25 19.7656 17.89 19.7656 17V11C19.7656 10.11 19.4056 9.75 18.5156 9.75H16.5156Z" fill="#171717"/>
</svg>
