<svg width="25" height="24" viewBox="0 0 25 24" fill="none" xmlns="http://www.w3.org/2000/svg">
<path d="M7.01562 10.75H5.01562C2.59562 10.75 1.26562 9.42 1.26562 7V5C1.26562 2.58 2.59562 1.25 5.01562 1.25H7.01562C9.43563 1.25 10.7656 2.58 10.7656 5V7C10.7656 9.42 9.43563 10.75 7.01562 10.75ZM5.01562 2.75C3.43563 2.75 2.76562 3.42 2.76562 5V7C2.76562 8.58 3.43563 9.25 5.01562 9.25H7.01562C8.59562 9.25 9.26562 8.58 9.26562 7V5C9.26562 3.42 8.59562 2.75 7.01562 2.75H5.01562Z" fill="#171717"/>
<path d="M19.0156 10.75H17.0156C14.5956 10.75 13.2656 9.42 13.2656 7V5C13.2656 2.58 14.5956 1.25 17.0156 1.25H19.0156C21.4356 1.25 22.7656 2.58 22.7656 5V7C22.7656 9.42 21.4356 10.75 19.0156 10.75ZM17.0156 2.75C15.4356 2.75 14.7656 3.42 14.7656 5V7C14.7656 8.58 15.4356 9.25 17.0156 9.25H19.0156C20.5956 9.25 21.2656 8.58 21.2656 7V5C21.2656 3.42 20.5956 2.75 19.0156 2.75H17.0156Z" fill="#171717"/>
<path d="M19.0156 22.75H17.0156C14.5956 22.75 13.2656 21.42 13.2656 19V17C13.2656 14.58 14.5956 13.25 17.0156 13.25H19.0156C21.4356 13.25 22.7656 14.58 22.7656 17V19C22.7656 21.42 21.4356 22.75 19.0156 22.75ZM17.0156 14.75C15.4356 14.75 14.7656 15.42 14.7656 17V19C14.7656 20.58 15.4356 21.25 17.0156 21.25H19.0156C20.5956 21.25 21.2656 20.58 21.2656 19V17C21.2656 15.42 20.5956 14.75 19.0156 14.75H17.0156Z" fill="#171717"/>
<path d="M7.01562 22.75H5.01562C2.59562 22.75 1.26562 21.42 1.26562 19V17C1.26562 14.58 2.59562 13.25 5.01562 13.25H7.01562C9.43563 13.25 10.7656 14.58 10.7656 17V19C10.7656 21.42 9.43563 22.75 7.01562 22.75ZM5.01562 14.75C3.43563 14.75 2.76562 15.42 2.76562 17V19C2.76562 20.58 3.43563 21.25 5.01562 21.25H7.01562C8.59562 21.25 9.26562 20.58 9.26562 19V17C9.26562 15.42 8.59562 14.75 7.01562 14.75H5.01562Z" fill="#171717"/>
</svg>
