<svg width="25" height="24" viewBox="0 0 25 24" fill="none" xmlns="http://www.w3.org/2000/svg">
<path d="M17.5557 9.06001C15.7857 9.06001 14.3457 7.62001 14.3457 5.85001C14.3457 4.08001 15.7857 2.64001 17.5557 2.64001C19.3257 2.64001 20.7657 4.08001 20.7657 5.85001C20.7657 7.62001 19.3257 9.06001 17.5557 9.06001ZM17.5557 4.13001C16.6157 4.13001 15.8457 4.90001 15.8457 5.84001C15.8457 6.78001 16.6157 7.55001 17.5557 7.55001C18.4957 7.55001 19.2657 6.78001 19.2657 5.84001C19.2657 4.90001 18.4957 4.13001 17.5557 4.13001Z" fill="#171717"/>
<path d="M6.47563 9.06001C4.70563 9.06001 3.26562 7.62001 3.26562 5.85001C3.26562 4.08001 4.70563 2.64001 6.47563 2.64001C8.24563 2.64001 9.68562 4.08001 9.68562 5.85001C9.68562 7.62001 8.24563 9.06001 6.47563 9.06001ZM6.47563 4.13001C5.53563 4.13001 4.76562 4.90001 4.76562 5.84001C4.76562 6.78001 5.53563 7.55001 6.47563 7.55001C7.41563 7.55001 8.18562 6.78001 8.18562 5.84001C8.18562 4.90001 7.42563 4.13001 6.47563 4.13001Z" fill="#171717"/>
<path d="M17.5557 21.37C15.7857 21.37 14.3457 19.93 14.3457 18.16C14.3457 16.39 15.7857 14.95 17.5557 14.95C19.3257 14.95 20.7657 16.39 20.7657 18.16C20.7657 19.93 19.3257 21.37 17.5557 21.37ZM17.5557 16.44C16.6157 16.44 15.8457 17.21 15.8457 18.15C15.8457 19.09 16.6157 19.86 17.5557 19.86C18.4957 19.86 19.2657 19.09 19.2657 18.15C19.2657 17.21 18.4957 16.44 17.5557 16.44Z" fill="#171717"/>
<path d="M6.47563 21.37C4.70563 21.37 3.26562 19.93 3.26562 18.16C3.26562 16.39 4.70563 14.95 6.47563 14.95C8.24563 14.95 9.68562 16.39 9.68562 18.16C9.68562 19.93 8.24563 21.37 6.47563 21.37ZM6.47563 16.44C5.53563 16.44 4.76562 17.21 4.76562 18.15C4.76562 19.09 5.53563 19.86 6.47563 19.86C7.41563 19.86 8.18562 19.09 8.18562 18.15C8.18562 17.21 7.42563 16.44 6.47563 16.44Z" fill="#171717"/>
</svg>
