<svg width="25" height="24" viewBox="0 0 25 24" fill="none" xmlns="http://www.w3.org/2000/svg">
<path d="M12.0155 10.07C10.4155 10.07 9.10547 8.76 9.10547 7.16C9.10547 5.56 10.4155 4.25 12.0155 4.25C13.6155 4.25 14.9255 5.56 14.9255 7.16C14.9255 8.76 13.6155 10.07 12.0155 10.07ZM12.0155 5.75C11.2355 5.75 10.6055 6.38 10.6055 7.16C10.6055 7.94 11.2355 8.57 12.0155 8.57C12.7955 8.57 13.4255 7.94 13.4255 7.16C13.4255 6.38 12.7955 5.75 12.0155 5.75Z" fill="#171717"/>
<path d="M6.80551 19.7501C5.20551 19.7501 3.89551 18.4401 3.89551 16.8401C3.89551 15.2401 5.20551 13.9301 6.80551 13.9301C8.40551 13.9301 9.71551 15.2401 9.71551 16.8401C9.71551 18.4401 8.40551 19.7501 6.80551 19.7501ZM6.80551 15.4301C6.02551 15.4301 5.39551 16.0601 5.39551 16.8401C5.39551 17.6201 6.02551 18.2501 6.80551 18.2501C7.58551 18.2501 8.21551 17.6201 8.21551 16.8401C8.21551 16.0601 7.57551 15.4301 6.80551 15.4301Z" fill="#171717"/>
<path d="M17.2254 19.7501C15.6254 19.7501 14.3154 18.4401 14.3154 16.8401C14.3154 15.2401 15.6254 13.9301 17.2254 13.9301C18.8254 13.9301 20.1354 15.2401 20.1354 16.8401C20.1354 18.4401 18.8354 19.7501 17.2254 19.7501ZM17.2254 15.4301C16.4454 15.4301 15.8154 16.0601 15.8154 16.8401C15.8154 17.6201 16.4454 18.2501 17.2254 18.2501C18.0054 18.2501 18.6354 17.6201 18.6354 16.8401C18.6354 16.0601 18.0054 15.4301 17.2254 15.4301Z" fill="#171717"/>
</svg>
