<svg width="25" height="24" viewBox="0 0 25 24" fill="none" xmlns="http://www.w3.org/2000/svg">
<path opacity="0.4" d="M16.2056 2H7.82562C4.18562 2 2.01562 4.17 2.01562 7.81V16.18C2.01562 19.83 4.18562 22 7.82562 22H16.1956C19.8356 22 22.0056 19.83 22.0056 16.19V7.81C22.0156 4.17 19.8456 2 16.2056 2Z" fill="#171717"/>
<path d="M12.0156 10.6899C11.2956 10.6899 10.7056 11.2799 10.7056 11.9999C10.7056 12.7199 11.2956 13.3099 12.0156 13.3099C12.7356 13.3099 13.3256 12.7199 13.3256 11.9999C13.3256 11.2799 12.7356 10.6899 12.0156 10.6899Z" fill="#171717"/>
<path d="M7.01557 10.6899C6.29557 10.6899 5.70557 11.2799 5.70557 11.9999C5.70557 12.7199 6.29557 13.3099 7.01557 13.3099C7.73557 13.3099 8.32557 12.7199 8.32557 11.9999C8.32557 11.2799 7.73557 10.6899 7.01557 10.6899Z" fill="#171717"/>
<path d="M17.0156 10.6899C16.2956 10.6899 15.7056 11.2799 15.7056 11.9999C15.7056 12.7199 16.2956 13.3099 17.0156 13.3099C17.7356 13.3099 18.3256 12.7199 18.3256 11.9999C18.3256 11.2799 17.7356 10.6899 17.0156 10.6899Z" fill="#171717"/>
</svg>
