<svg width="25" height="24" viewBox="0 0 25 24" fill="none" xmlns="http://www.w3.org/2000/svg">
<path opacity="0.4" d="M16.2056 2H7.82562C4.18562 2 2.01562 4.17 2.01562 7.81V16.18C2.01562 19.83 4.18562 22 7.82562 22H16.1956C19.8356 22 22.0056 19.83 22.0056 16.19V7.81C22.0156 4.17 19.8456 2 16.2056 2Z" fill="#171717"/>
<path opacity="0.97" d="M12.0156 10.3099C12.7391 10.3099 13.3256 9.72343 13.3256 8.99994C13.3256 8.27645 12.7391 7.68994 12.0156 7.68994C11.2921 7.68994 10.7056 8.27645 10.7056 8.99994C10.7056 9.72343 11.2921 10.3099 12.0156 10.3099Z" fill="#171717"/>
<path opacity="0.97" d="M8.32563 13.6899C7.60563 13.6899 7.01562 14.2799 7.01562 14.9999C7.01562 15.7199 7.60563 16.3099 8.32563 16.3099C9.04563 16.3099 9.63562 15.7199 9.63562 14.9999C9.63562 14.2799 9.04563 13.6899 8.32563 13.6899Z" fill="#171717"/>
<path opacity="0.97" d="M15.7055 13.6899C14.9855 13.6899 14.3955 14.2799 14.3955 14.9999C14.3955 15.7199 14.9855 16.3099 15.7055 16.3099C16.4255 16.3099 17.0155 15.7199 17.0155 14.9999C17.0155 14.2799 16.4255 13.6899 15.7055 13.6899Z" fill="#171717"/>
</svg>
