<svg width="25" height="24" viewBox="0 0 25 24" fill="none" xmlns="http://www.w3.org/2000/svg">
<path d="M12.0156 17.25C9.12562 17.25 6.76562 14.9 6.76562 12C6.76562 9.1 9.12562 6.75 12.0156 6.75C14.9056 6.75 17.2656 9.1 17.2656 12C17.2656 14.9 14.9056 17.25 12.0156 17.25ZM12.0156 8.25C9.94563 8.25 8.26562 9.93 8.26562 12C8.26562 14.07 9.94563 15.75 12.0156 15.75C14.0856 15.75 15.7656 14.07 15.7656 12C15.7656 9.93 14.0856 8.25 12.0156 8.25Z" fill="#171717"/>
<path d="M7.01562 12.75H2.01562C1.60563 12.75 1.26562 12.41 1.26562 12C1.26562 11.59 1.60563 11.25 2.01562 11.25H7.01562C7.42562 11.25 7.76562 11.59 7.76562 12C7.76562 12.41 7.42562 12.75 7.01562 12.75Z" fill="#171717"/>
<path d="M22.0156 12.75H17.0156C16.6056 12.75 16.2656 12.41 16.2656 12C16.2656 11.59 16.6056 11.25 17.0156 11.25H22.0156C22.4256 11.25 22.7656 11.59 22.7656 12C22.7656 12.41 22.4256 12.75 22.0156 12.75Z" fill="#171717"/>
</svg>
