<svg width="25" height="24" viewBox="0 0 25 24" fill="none" xmlns="http://www.w3.org/2000/svg">
<path d="M9.01562 22H15.0156C20.0156 22 22.0156 20 22.0156 15V9C22.0156 4 20.0156 2 15.0156 2H9.01562C4.01562 2 2.01562 4 2.01562 9V15C2.01562 20 4.01562 22 9.01562 22Z" stroke="#171717" stroke-width="1.5" stroke-linecap="round" stroke-linejoin="round"/>
<g opacity="0.4">
<path d="M15.5859 18.4996V14.5996" stroke="#171717" stroke-width="1.5" stroke-miterlimit="10" stroke-linecap="round" stroke-linejoin="round"/>
<path d="M15.5859 7.45V5.5" stroke="#171717" stroke-width="1.5" stroke-miterlimit="10" stroke-linecap="round" stroke-linejoin="round"/>
<path d="M15.5854 12.6502C17.0213 12.6502 18.1854 11.4861 18.1854 10.0502C18.1854 8.61426 17.0213 7.4502 15.5854 7.4502C14.1494 7.4502 12.9854 8.61426 12.9854 10.0502C12.9854 11.4861 14.1494 12.6502 15.5854 12.6502Z" stroke="#171717" stroke-width="1.5" stroke-miterlimit="10" stroke-linecap="round" stroke-linejoin="round"/>
<path d="M8.44531 18.4998V16.5498" stroke="#171717" stroke-width="1.5" stroke-miterlimit="10" stroke-linecap="round" stroke-linejoin="round"/>
<path d="M8.44531 9.4V5.5" stroke="#171717" stroke-width="1.5" stroke-miterlimit="10" stroke-linecap="round" stroke-linejoin="round"/>
<path d="M8.4457 16.5496C9.88164 16.5496 11.0457 15.3855 11.0457 13.9496C11.0457 12.5137 9.88164 11.3496 8.4457 11.3496C7.00976 11.3496 5.8457 12.5137 5.8457 13.9496C5.8457 15.3855 7.00976 16.5496 8.4457 16.5496Z" stroke="#171717" stroke-width="1.5" stroke-miterlimit="10" stroke-linecap="round" stroke-linejoin="round"/>
</g>
</svg>
