<svg width="25" height="24" viewBox="0 0 25 24" fill="none" xmlns="http://www.w3.org/2000/svg">
<path opacity="0.4" d="M21.2456 7.61998H15.7056C15.3256 7.61998 15.0156 7.30998 15.0156 6.91998C15.0156 6.53998 15.3256 6.22998 15.7056 6.22998H21.2456C21.6256 6.22998 21.9356 6.53998 21.9356 6.91998C21.9356 7.30998 21.6256 7.61998 21.2456 7.61998Z" fill="#171717"/>
<path opacity="0.4" d="M6.4757 7.61999H2.7857C2.4057 7.61999 2.0957 7.30999 2.0957 6.92999C2.0957 6.54999 2.4057 6.23999 2.7857 6.23999H6.4757C6.8557 6.23999 7.1657 6.54999 7.1657 6.92999C7.1657 7.30999 6.8557 7.61999 6.4757 7.61999Z" fill="#171717"/>
<path d="M10.1656 10.84C12.3306 10.84 14.0856 9.08496 14.0856 6.92C14.0856 4.75504 12.3306 3 10.1656 3C8.00065 3 6.24561 4.75504 6.24561 6.92C6.24561 9.08496 8.00065 10.84 10.1656 10.84Z" fill="#171717"/>
<path opacity="0.4" d="M21.2457 17.77H17.5557C17.1757 17.77 16.8657 17.46 16.8657 17.08C16.8657 16.7 17.1757 16.39 17.5557 16.39H21.2457C21.6257 16.39 21.9357 16.7 21.9357 17.08C21.9357 17.46 21.6257 17.77 21.2457 17.77Z" fill="#171717"/>
<path opacity="0.4" d="M8.3257 17.77H2.7857C2.4057 17.77 2.0957 17.46 2.0957 17.08C2.0957 16.7 2.4057 16.39 2.7857 16.39H8.3257C8.7057 16.39 9.0157 16.7 9.0157 17.08C9.0157 17.46 8.7057 17.77 8.3257 17.77Z" fill="#171717"/>
<path d="M13.8658 21C16.0308 21 17.7858 19.245 17.7858 17.08C17.7858 14.9151 16.0308 13.16 13.8658 13.16C11.7008 13.16 9.9458 14.9151 9.9458 17.08C9.9458 19.245 11.7008 21 13.8658 21Z" fill="#171717"/>
</svg>
