<svg width="25" height="24" viewBox="0 0 25 24" fill="none" xmlns="http://www.w3.org/2000/svg">
<path opacity="0.4" d="M16.2056 2H7.82562C4.18562 2 2.01562 4.17 2.01562 7.81V16.18C2.01562 19.83 4.18562 22 7.82562 22H16.1956C19.8356 22 22.0056 19.83 22.0056 16.19V7.81C22.0156 4.17 19.8456 2 16.2056 2Z" fill="#171717"/>
<path d="M15.5957 19.25C15.1857 19.25 14.8457 18.91 14.8457 18.5V14.6C14.8457 14.19 15.1857 13.85 15.5957 13.85C16.0057 13.85 16.3457 14.19 16.3457 14.6V18.5C16.3457 18.91 16.0057 19.25 15.5957 19.25Z" fill="#171717"/>
<path d="M15.5957 8.2C15.1857 8.2 14.8457 7.86 14.8457 7.45V5.5C14.8457 5.09 15.1857 4.75 15.5957 4.75C16.0057 4.75 16.3457 5.09 16.3457 5.5V7.45C16.3457 7.86 16.0057 8.2 15.5957 8.2Z" fill="#171717"/>
<path d="M8.43555 19.25C8.02555 19.25 7.68555 18.91 7.68555 18.5V16.55C7.68555 16.14 8.02555 15.8 8.43555 15.8C8.84555 15.8 9.18555 16.14 9.18555 16.55V18.5C9.18555 18.91 8.85555 19.25 8.43555 19.25Z" fill="#171717"/>
<path d="M8.43555 10.15C8.02555 10.15 7.68555 9.81 7.68555 9.4V5.5C7.68555 5.09 8.02555 4.75 8.43555 4.75C8.84555 4.75 9.18555 5.09 9.18555 5.5V9.4C9.18555 9.81 8.85555 10.15 8.43555 10.15Z" fill="#171717"/>
<path d="M15.5957 7.32996C14.0957 7.32996 12.8657 8.54996 12.8657 10.05C12.8657 11.55 14.0857 12.78 15.5957 12.78C17.0957 12.78 18.3157 11.56 18.3157 10.05C18.3157 8.53996 17.0957 7.32996 15.5957 7.32996Z" fill="#171717"/>
<path d="M8.43582 11.23C6.93582 11.23 5.71582 12.45 5.71582 13.96C5.71582 15.47 6.93582 16.68 8.43582 16.68C9.93582 16.68 11.1658 15.46 11.1658 13.96C11.1658 12.46 9.94582 11.23 8.43582 11.23Z" fill="#171717"/>
</svg>
