<svg width="25" height="24" viewBox="0 0 25 24" fill="none" xmlns="http://www.w3.org/2000/svg">
<path d="M22.0156 7.25H16.0156C15.6056 7.25 15.2656 6.91 15.2656 6.5C15.2656 6.09 15.6056 5.75 16.0156 5.75H22.0156C22.4256 5.75 22.7656 6.09 22.7656 6.5C22.7656 6.91 22.4256 7.25 22.0156 7.25Z" fill="#171717"/>
<path d="M6.01562 7.25H2.01562C1.60563 7.25 1.26562 6.91 1.26562 6.5C1.26562 6.09 1.60563 5.75 2.01562 5.75H6.01562C6.42562 5.75 6.76562 6.09 6.76562 6.5C6.76562 6.91 6.42562 7.25 6.01562 7.25Z" fill="#171717"/>
<path d="M10.0156 10.75C7.67563 10.75 5.76562 8.84 5.76562 6.5C5.76562 4.16 7.67563 2.25 10.0156 2.25C12.3556 2.25 14.2656 4.16 14.2656 6.5C14.2656 8.84 12.3556 10.75 10.0156 10.75ZM10.0156 3.75C8.49563 3.75 7.26562 4.98 7.26562 6.5C7.26562 8.02 8.49563 9.25 10.0156 9.25C11.5356 9.25 12.7656 8.02 12.7656 6.5C12.7656 4.98 11.5356 3.75 10.0156 3.75Z" fill="#171717"/>
<path d="M22.0156 18.25H18.0156C17.6056 18.25 17.2656 17.91 17.2656 17.5C17.2656 17.09 17.6056 16.75 18.0156 16.75H22.0156C22.4256 16.75 22.7656 17.09 22.7656 17.5C22.7656 17.91 22.4256 18.25 22.0156 18.25Z" fill="#171717"/>
<path d="M8.01562 18.25H2.01562C1.60563 18.25 1.26562 17.91 1.26562 17.5C1.26562 17.09 1.60563 16.75 2.01562 16.75H8.01562C8.42562 16.75 8.76562 17.09 8.76562 17.5C8.76562 17.91 8.42562 18.25 8.01562 18.25Z" fill="#171717"/>
<path d="M14.0156 21.75C11.6756 21.75 9.76562 19.84 9.76562 17.5C9.76562 15.16 11.6756 13.25 14.0156 13.25C16.3556 13.25 18.2656 15.16 18.2656 17.5C18.2656 19.84 16.3556 21.75 14.0156 21.75ZM14.0156 14.75C12.4956 14.75 11.2656 15.98 11.2656 17.5C11.2656 19.02 12.4956 20.25 14.0156 20.25C15.5356 20.25 16.7656 19.02 16.7656 17.5C16.7656 15.98 15.5356 14.75 14.0156 14.75Z" fill="#171717"/>
</svg>
