<svg width="25" height="24" viewBox="0 0 25 24" fill="none" xmlns="http://www.w3.org/2000/svg">
<path d="M15.0156 22.75H9.01562C3.58563 22.75 1.26562 20.43 1.26562 15V9C1.26562 3.57 3.58563 1.25 9.01562 1.25H15.0156C20.4456 1.25 22.7656 3.57 22.7656 9V15C22.7656 20.43 20.4456 22.75 15.0156 22.75ZM9.01562 2.75C4.40562 2.75 2.76562 4.39 2.76562 9V15C2.76562 19.61 4.40562 21.25 9.01562 21.25H15.0156C19.6256 21.25 21.2656 19.61 21.2656 15V9C21.2656 4.39 19.6256 2.75 15.0156 2.75H9.01562Z" fill="#171717"/>
<path d="M15.5957 19.25C15.1857 19.25 14.8457 18.91 14.8457 18.5V14.6C14.8457 14.19 15.1857 13.85 15.5957 13.85C16.0057 13.85 16.3457 14.19 16.3457 14.6V18.5C16.3457 18.91 16.0057 19.25 15.5957 19.25Z" fill="#171717"/>
<path d="M15.5957 8.2C15.1857 8.2 14.8457 7.86 14.8457 7.45V5.5C14.8457 5.09 15.1857 4.75 15.5957 4.75C16.0057 4.75 16.3457 5.09 16.3457 5.5V7.45C16.3457 7.86 16.0057 8.2 15.5957 8.2Z" fill="#171717"/>
<path d="M15.5956 13.4C13.7456 13.4 12.2456 11.9 12.2456 10.05C12.2456 8.19995 13.7456 6.69995 15.5956 6.69995C17.4456 6.69995 18.9456 8.19995 18.9456 10.05C18.9456 11.9 17.4356 13.4 15.5956 13.4ZM15.5956 8.19995C14.5756 8.19995 13.7456 9.02995 13.7456 10.05C13.7456 11.07 14.5756 11.9 15.5956 11.9C16.6156 11.9 17.4456 11.07 17.4456 10.05C17.4456 9.02995 16.6056 8.19995 15.5956 8.19995Z" fill="#171717"/>
<path d="M8.43555 19.25C8.02555 19.25 7.68555 18.91 7.68555 18.5V16.55C7.68555 16.14 8.02555 15.8 8.43555 15.8C8.84555 15.8 9.18555 16.14 9.18555 16.55V18.5C9.18555 18.91 8.85555 19.25 8.43555 19.25Z" fill="#171717"/>
<path d="M8.43555 10.15C8.02555 10.15 7.68555 9.81 7.68555 9.4V5.5C7.68555 5.09 8.02555 4.75 8.43555 4.75C8.84555 4.75 9.18555 5.09 9.18555 5.5V9.4C9.18555 9.81 8.85555 10.15 8.43555 10.15Z" fill="#171717"/>
<path d="M8.43545 17.3C6.58545 17.3 5.08545 15.8 5.08545 13.95C5.08545 12.1 6.58545 10.6 8.43545 10.6C10.2854 10.6 11.7854 12.1 11.7854 13.95C11.7854 15.8 10.2854 17.3 8.43545 17.3ZM8.43545 12.1C7.41545 12.1 6.58545 12.93 6.58545 13.95C6.58545 14.97 7.41545 15.8 8.43545 15.8C9.45545 15.8 10.2854 14.97 10.2854 13.95C10.2854 12.93 9.46545 12.1 8.43545 12.1Z" fill="#171717"/>
</svg>
