<svg width="25" height="24" viewBox="0 0 25 24" fill="none" xmlns="http://www.w3.org/2000/svg">
<path d="M19.0156 22.75C18.6056 22.75 18.2656 22.41 18.2656 22V11C18.2656 10.59 18.6056 10.25 19.0156 10.25C19.4256 10.25 19.7656 10.59 19.7656 11V22C19.7656 22.41 19.4256 22.75 19.0156 22.75Z" fill="#171717"/>
<path d="M19.0156 7.75C18.6056 7.75 18.2656 7.41 18.2656 7V2C18.2656 1.59 18.6056 1.25 19.0156 1.25C19.4256 1.25 19.7656 1.59 19.7656 2V7C19.7656 7.41 19.4256 7.75 19.0156 7.75Z" fill="#171717"/>
<path d="M12.0156 22.75C11.6056 22.75 11.2656 22.41 11.2656 22V17C11.2656 16.59 11.6056 16.25 12.0156 16.25C12.4256 16.25 12.7656 16.59 12.7656 17V22C12.7656 22.41 12.4256 22.75 12.0156 22.75Z" fill="#171717"/>
<path d="M12.0156 13.75C11.6056 13.75 11.2656 13.41 11.2656 13V2C11.2656 1.59 11.6056 1.25 12.0156 1.25C12.4256 1.25 12.7656 1.59 12.7656 2V13C12.7656 13.41 12.4256 13.75 12.0156 13.75Z" fill="#171717"/>
<path d="M5.01562 22.75C4.60563 22.75 4.26562 22.41 4.26562 22V11C4.26562 10.59 4.60563 10.25 5.01562 10.25C5.42562 10.25 5.76562 10.59 5.76562 11V22C5.76562 22.41 5.42562 22.75 5.01562 22.75Z" fill="#171717"/>
<path d="M5.01562 7.75C4.60563 7.75 4.26562 7.41 4.26562 7V2C4.26562 1.59 4.60563 1.25 5.01562 1.25C5.42562 1.25 5.76562 1.59 5.76562 2V7C5.76562 7.41 5.42562 7.75 5.01562 7.75Z" fill="#171717"/>
<path d="M7.01562 11.75H3.01562C2.60563 11.75 2.26562 11.41 2.26562 11C2.26562 10.59 2.60563 10.25 3.01562 10.25H7.01562C7.42562 10.25 7.76562 10.59 7.76562 11C7.76562 11.41 7.42562 11.75 7.01562 11.75Z" fill="#171717"/>
<path d="M21.0156 11.75H17.0156C16.6056 11.75 16.2656 11.41 16.2656 11C16.2656 10.59 16.6056 10.25 17.0156 10.25H21.0156C21.4256 10.25 21.7656 10.59 21.7656 11C21.7656 11.41 21.4256 11.75 21.0156 11.75Z" fill="#171717"/>
<path d="M14.0156 13.75H10.0156C9.60563 13.75 9.26562 13.41 9.26562 13C9.26562 12.59 9.60563 12.25 10.0156 12.25H14.0156C14.4256 12.25 14.7656 12.59 14.7656 13C14.7656 13.41 14.4256 13.75 14.0156 13.75Z" fill="#171717"/>
</svg>
