<svg width="25" height="24" viewBox="0 0 25 24" fill="none" xmlns="http://www.w3.org/2000/svg">
<path d="M12.0159 22.63C11.3459 22.63 10.6659 22.48 10.1359 22.17L4.63586 19C2.39586 17.49 2.25586 17.26 2.25586 14.89V9.11005C2.25586 6.74005 2.38586 6.51005 4.58586 5.02005L10.1259 1.82005C11.1759 1.21005 12.8259 1.21005 13.8759 1.82005L19.3959 5.00005C21.6359 6.51005 21.7759 6.74005 21.7759 9.11005V14.88C21.7759 17.25 21.6459 17.48 19.4459 18.97L13.9059 22.17C13.3659 22.48 12.6859 22.63 12.0159 22.63ZM12.0159 2.87005C11.5959 2.87005 11.1859 2.95005 10.8959 3.12005L5.39586 6.30005C3.76586 7.40005 3.76586 7.40005 3.76586 9.11005V14.88C3.76586 16.59 3.76586 16.59 5.43586 17.72L10.8959 20.8701C11.4859 21.2101 12.5559 21.2101 13.1459 20.8701L18.6459 17.6901C20.2659 16.59 20.2659 16.59 20.2659 14.88V9.11005C20.2659 7.40005 20.2659 7.40005 18.5959 6.27005L13.1359 3.12005C12.8459 2.95005 12.4359 2.87005 12.0159 2.87005Z" fill="#171717"/>
<path d="M12.0156 15.75C9.94563 15.75 8.26562 14.07 8.26562 12C8.26562 9.93 9.94563 8.25 12.0156 8.25C14.0856 8.25 15.7656 9.93 15.7656 12C15.7656 14.07 14.0856 15.75 12.0156 15.75ZM12.0156 9.75C10.7756 9.75 9.76562 10.76 9.76562 12C9.76562 13.24 10.7756 14.25 12.0156 14.25C13.2556 14.25 14.2656 13.24 14.2656 12C14.2656 10.76 13.2556 9.75 12.0156 9.75Z" fill="#171717"/>
</svg>
