<svg width="25" height="24" viewBox="0 0 25 24" fill="none" xmlns="http://www.w3.org/2000/svg">
<path d="M15.7156 16.75H13.3156C10.8956 16.75 9.76562 15.62 9.76562 13.2V10.8C9.76562 8.38 10.8956 7.25 13.3156 7.25H15.7156C18.1356 7.25 19.2656 8.38 19.2656 10.8V13.2C19.2656 15.62 18.1356 16.75 15.7156 16.75ZM13.3156 8.75C11.7256 8.75 11.2656 9.21 11.2656 10.8V13.2C11.2656 14.79 11.7256 15.25 13.3156 15.25H15.7156C17.3056 15.25 17.7656 14.79 17.7656 13.2V10.8C17.7656 9.21 17.3056 8.75 15.7156 8.75H13.3156Z" fill="#171717"/>
<path d="M17.0156 20.75H7.01562C2.60563 20.75 1.26562 19.41 1.26562 15V9C1.26562 4.59 2.60563 3.25 7.01562 3.25H17.0156C21.4256 3.25 22.7656 4.59 22.7656 9V15C22.7656 19.41 21.4256 20.75 17.0156 20.75ZM7.01562 4.75C3.43563 4.75 2.76562 5.43 2.76562 9V15C2.76562 18.57 3.43563 19.25 7.01562 19.25H17.0156C20.5956 19.25 21.2656 18.57 21.2656 15V9C21.2656 5.43 20.5956 4.75 17.0156 4.75H7.01562Z" fill="#171717"/>
</svg>
