<svg width="25" height="24" viewBox="0 0 25 24" fill="none" xmlns="http://www.w3.org/2000/svg">
<path opacity="0.4" d="M16.6656 3.85999H7.36562C3.26562 3.85999 2.01562 5.10999 2.01562 9.20999V14.79C2.01562 18.89 3.26562 20.14 7.36562 20.14H16.6656C20.7656 20.14 22.0156 18.89 22.0156 14.79V9.20999C22.0156 5.10999 20.7656 3.85999 16.6656 3.85999Z" fill="#171717"/>
<path d="M10.8054 7.57996H8.57539C6.32539 7.57996 5.27539 8.62996 5.27539 10.88V13.11C5.27539 15.36 6.32539 16.41 8.57539 16.41H10.8054C13.0554 16.41 14.1054 15.36 14.1054 13.11V10.88C14.1054 8.62996 13.0554 7.57996 10.8054 7.57996Z" fill="#171717"/>
</svg>
