<svg width="25" height="24" viewBox="0 0 25 24" fill="none" xmlns="http://www.w3.org/2000/svg">
<path d="M10.7156 16.75H8.31563C5.89563 16.75 4.76562 15.62 4.76562 13.2V10.8C4.76562 8.38 5.89563 7.25 8.31563 7.25H10.7156C13.1356 7.25 14.2656 8.38 14.2656 10.8V13.2C14.2656 15.62 13.1356 16.75 10.7156 16.75ZM8.31563 8.75C6.72563 8.75 6.26562 9.21 6.26562 10.8V13.2C6.26562 14.79 6.72563 15.25 8.31563 15.25H10.7156C12.3056 15.25 12.7656 14.79 12.7656 13.2V10.8C12.7656 9.21 12.3056 8.75 10.7156 8.75H8.31563Z" fill="#171717"/>
<path d="M17.0156 20.75H7.01562C2.60563 20.75 1.26562 19.41 1.26562 15V9C1.26562 4.59 2.60563 3.25 7.01562 3.25H17.0156C21.4256 3.25 22.7656 4.59 22.7656 9V15C22.7656 19.41 21.4256 20.75 17.0156 20.75ZM7.01562 4.75C3.43563 4.75 2.76562 5.43 2.76562 9V15C2.76562 18.57 3.43563 19.25 7.01562 19.25H17.0156C20.5956 19.25 21.2656 18.57 21.2656 15V9C21.2656 5.43 20.5956 4.75 17.0156 4.75H7.01562Z" fill="#171717"/>
</svg>
