<svg width="25" height="24" viewBox="0 0 25 24" fill="none" xmlns="http://www.w3.org/2000/svg">
<path opacity="0.4" d="M7.36562 3.85999H16.6656C20.7656 3.85999 22.0156 5.10999 22.0156 9.20999V14.79C22.0156 18.89 20.7656 20.14 16.6656 20.14H7.36562C3.26562 20.14 2.01562 18.89 2.01562 14.79V9.20999C2.01563 5.10999 3.26562 3.85999 7.36562 3.85999Z" fill="#171717"/>
<path d="M13.2258 7.57996H15.4558C17.7058 7.57996 18.7558 8.62996 18.7558 10.88V13.11C18.7558 15.36 17.7058 16.41 15.4558 16.41H13.2258C10.9758 16.41 9.92578 15.36 9.92578 13.11V10.88C9.92578 8.62996 10.9758 7.57996 13.2258 7.57996Z" fill="#171717"/>
</svg>
