<svg width="25" height="24" viewBox="0 0 25 24" fill="none" xmlns="http://www.w3.org/2000/svg">
<path d="M14.0156 20.75H10.0156C5.18563 20.75 1.26562 16.82 1.26562 12C1.26562 7.18 5.18563 3.25 10.0156 3.25H14.0156C18.8456 3.25 22.7656 7.18 22.7656 12C22.7656 16.82 18.8456 20.75 14.0156 20.75ZM10.0156 4.75C6.01562 4.75 2.76562 8 2.76562 12C2.76562 16 6.01562 19.25 10.0156 19.25H14.0156C18.0156 19.25 21.2656 16 21.2656 12C21.2656 8 18.0156 4.75 14.0156 4.75H10.0156Z" fill="#171717"/>
<path d="M14.0156 16.75C11.3956 16.75 9.26562 14.62 9.26562 12C9.26562 9.38 11.3956 7.25 14.0156 7.25C16.6356 7.25 18.7656 9.38 18.7656 12C18.7656 14.62 16.6356 16.75 14.0156 16.75ZM14.0156 8.75C12.2256 8.75 10.7656 10.21 10.7656 12C10.7656 13.79 12.2256 15.25 14.0156 15.25C15.8056 15.25 17.2656 13.79 17.2656 12C17.2656 10.21 15.8056 8.75 14.0156 8.75Z" fill="#171717"/>
</svg>
