<svg width="24" height="24" viewBox="0 0 24 24" fill="none" xmlns="http://www.w3.org/2000/svg">
<path opacity="0.4" d="M16.1899 8.86002C15.7999 8.86002 15.4899 8.55002 15.4899 8.16002V6.88002C15.4899 5.90002 15.0699 4.96002 14.3499 4.30002C13.6099 3.63002 12.6599 3.32002 11.6599 3.41002C9.97986 3.57002 8.50986 5.28002 8.50986 7.06002V7.96002C8.50986 8.35002 8.19986 8.66002 7.80986 8.66002C7.41986 8.66002 7.10986 8.35002 7.10986 7.96002V7.06002C7.10986 4.56002 9.12986 2.25002 11.5199 2.02002C12.9099 1.89002 14.2499 2.33002 15.2799 3.27002C16.2999 4.19002 16.8799 5.51002 16.8799 6.88002V8.16002C16.8799 8.55002 16.5699 8.86002 16.1899 8.86002Z" fill="#171717"/>
<path d="M19.9602 8.95996C19.1202 8.02996 17.7402 7.57996 15.7202 7.57996H8.28023C6.26023 7.57996 4.88023 8.02996 4.04023 8.95996C3.07023 10.04 3.10023 11.48 3.21023 12.48L3.91023 18.05C4.12023 20 4.91023 22 9.21023 22H14.7902C19.0902 22 19.8802 20 20.0902 18.06L20.7902 12.47C20.9002 11.48 20.9302 10.04 19.9602 8.95996ZM12.0002 18.58C9.91023 18.58 8.21023 16.88 8.21023 14.79C8.21023 12.7 9.91023 11 12.0002 11C14.0902 11 15.7902 12.7 15.7902 14.79C15.7902 16.88 14.0902 18.58 12.0002 18.58Z" fill="#171717"/>
<path opacity="0.4" d="M12 18.58C14.0931 18.58 15.79 16.8832 15.79 14.79C15.79 12.6968 14.0931 11 12 11C9.9068 11 8.20996 12.6968 8.20996 14.79C8.20996 16.8832 9.9068 18.58 12 18.58Z" fill="#171717"/>
<path d="M11.4299 16.64C11.2399 16.64 11.0499 16.57 10.8999 16.42L9.90988 15.43C9.61988 15.14 9.61988 14.66 9.90988 14.37C10.1999 14.08 10.6799 14.08 10.9699 14.37L11.4499 14.85L13.0499 13.37C13.3499 13.09 13.8299 13.11 14.1099 13.41C14.3899 13.71 14.3699 14.19 14.0699 14.47L11.9399 16.44C11.7899 16.57 11.6099 16.64 11.4299 16.64Z" fill="#171717"/>
</svg>
