<svg width="24" height="24" viewBox="0 0 24 24" fill="none" xmlns="http://www.w3.org/2000/svg">
<path opacity="0.4" d="M16.1899 8.86002C15.7999 8.86002 15.4899 8.55002 15.4899 8.16002V6.88002C15.4899 5.90002 15.0699 4.96002 14.3499 4.30002C13.6099 3.63002 12.6599 3.32002 11.6599 3.41002C9.97986 3.57002 8.50986 5.28002 8.50986 7.06002V7.96002C8.50986 8.35002 8.19986 8.66002 7.80986 8.66002C7.41986 8.66002 7.10986 8.35002 7.10986 7.96002V7.06002C7.10986 4.56002 9.12986 2.25002 11.5199 2.02002C12.9099 1.89002 14.2499 2.33002 15.2799 3.27002C16.2999 4.19002 16.8799 5.51002 16.8799 6.88002V8.16002C16.8799 8.55002 16.5699 8.86002 16.1899 8.86002Z" fill="#171717"/>
<path d="M19.9602 8.95996C19.1202 8.02996 17.7402 7.57996 15.7202 7.57996H8.28023C6.26023 7.57996 4.88023 8.02996 4.04023 8.95996C3.07023 10.04 3.10023 11.48 3.21023 12.48L3.91023 18.05C4.12023 20 4.91023 22 9.21023 22H14.7902C19.0902 22 19.8802 20 20.0902 18.06L20.7902 12.47C20.9002 11.48 20.9202 10.04 19.9602 8.95996ZM8.42023 13.15H8.41023C7.86023 13.15 7.41023 12.7 7.41023 12.15C7.41023 11.6 7.86023 11.15 8.41023 11.15C8.97023 11.15 9.42023 11.6 9.42023 12.15C9.42023 12.7 8.97023 13.15 8.42023 13.15ZM15.4202 13.15H15.4102C14.8602 13.15 14.4102 12.7 14.4102 12.15C14.4102 11.6 14.8602 11.15 15.4102 11.15C15.9702 11.15 16.4202 11.6 16.4202 12.15C16.4202 12.7 15.9702 13.15 15.4202 13.15Z" fill="#171717"/>
</svg>
