<svg width="24" height="24" viewBox="0 0 24 24" fill="none" xmlns="http://www.w3.org/2000/svg">
<path d="M19.9602 8.96002C19.2902 8.22002 18.2802 7.79002 16.8802 7.64002V6.88002C16.8802 5.51002 16.3002 4.19002 15.2802 3.27002C14.2502 2.33002 12.9102 1.89002 11.5202 2.02002C9.13023 2.25002 7.12023 4.56002 7.12023 7.06002V7.64002C5.72023 7.79002 4.71023 8.22002 4.04023 8.96002C3.07023 10.04 3.10023 11.48 3.21023 12.48L3.91023 18.05C4.12023 20 4.91023 22 9.21023 22H14.7902C19.0902 22 19.8802 20 20.0902 18.06L20.7902 12.47C20.9002 11.48 20.9302 10.04 19.9602 8.96002ZM11.6602 3.41002C12.6602 3.32002 13.6102 3.63002 14.3502 4.30002C15.0802 4.96002 15.4902 5.90002 15.4902 6.88002V7.58002H8.51023V7.06002C8.51023 5.28002 9.98023 3.57002 11.6602 3.41002ZM12.0002 18.58C9.91023 18.58 8.21023 16.88 8.21023 14.79C8.21023 12.7 9.91023 11 12.0002 11C14.0902 11 15.7902 12.7 15.7902 14.79C15.7902 16.88 14.0902 18.58 12.0002 18.58Z" fill="#171717"/>
<path d="M13.6001 15.31L13.0701 14.78L13.5701 14.28C13.8601 13.99 13.8601 13.51 13.5701 13.22C13.2801 12.93 12.8001 12.93 12.5101 13.22L12.0101 13.72L11.4801 13.19C11.1901 12.9 10.7101 12.9 10.4201 13.19C10.1301 13.48 10.1301 13.96 10.4201 14.25L10.9501 14.78L10.4001 15.33C10.1101 15.62 10.1101 16.1 10.4001 16.39C10.5501 16.54 10.7401 16.61 10.9301 16.61C11.1201 16.61 11.3101 16.54 11.4601 16.39L12.0101 15.84L12.5401 16.37C12.6901 16.52 12.8801 16.59 13.0701 16.59C13.2601 16.59 13.4501 16.52 13.6001 16.37C13.8901 16.08 13.8901 15.61 13.6001 15.31Z" fill="#171717"/>
</svg>
