<svg width="24" height="24" viewBox="0 0 24 24" fill="none" xmlns="http://www.w3.org/2000/svg">
<path d="M7.92999 16.28C7.82999 16.17 7.71998 16.06 7.59998 15.97C6.89998 15.36 6 15 5 15C4.29 15 3.61998 15.19 3.03998 15.52C2.84998 15.62 2.67 15.74 2.5 15.88C1.58 16.61 1 17.74 1 19C1 19.75 1.21002 20.46 1.58002 21.06C1.67002 21.22 1.78002 21.37 1.90002 21.51C1.92002 21.54 1.94997 21.56 1.96997 21.59C2.68997 22.45 3.78 23 5 23C6.01 23 6.93001 22.63 7.63 22C7.67 21.97 7.69998 21.94 7.72998 21.9C7.99998 21.67 8.22998 21.38 8.41998 21.06C8.78998 20.46 9 19.75 9 19C9 17.95 8.58999 17 7.92999 16.28ZM6.5 19.73H3.51001C3.10001 19.73 2.76001 19.39 2.76001 18.98C2.76001 18.57 3.10001 18.23 3.51001 18.23H6.5C6.91 18.23 7.25 18.57 7.25 18.98C7.25 19.39 6.91 19.73 6.5 19.73Z" fill="#171717"/>
<path opacity="0.4" d="M21.05 11.71V17.7C21.05 20.46 18.81 22.7 16.05 22.7H7.31006C7.08006 22.7 6.85007 22.68 6.63007 22.65C7.00007 22.49 7.33007 22.2699 7.63007 21.9999C7.67007 21.9699 7.70004 21.94 7.73004 21.9C8.00004 21.67 8.23004 21.3799 8.42004 21.0599C8.79004 20.4599 9.00006 19.7499 9.00006 18.9999C9.00006 17.9499 8.59005 17 7.93005 16.28C7.83005 16.17 7.72004 16.0599 7.60004 15.9699C6.90004 15.3599 6.00006 14.9999 5.00006 14.9999C4.29006 14.9999 3.62004 15.19 3.04004 15.52C2.85004 15.62 2.67006 15.7399 2.50006 15.8799C2.43006 15.9299 2.37006 15.9899 2.31006 16.0499V11.78C3.07006 12.6 4.15007 13.0699 5.32007 13.0699C6.58007 13.0699 7.79005 12.4399 8.55005 11.4299C9.23005 12.4399 10.3901 13.0699 11.6801 13.0699C12.9601 13.0699 14.1 12.4699 14.79 11.4699C15.56 12.4599 16.7501 13.0699 17.9901 13.0699C19.2001 13.0699 20.3 12.58 21.05 11.71Z" fill="#171717"/>
<path d="M14.67 1.57007H8.67002L7.93003 8.93005C7.87003 9.61005 7.97001 10.2501 8.22001 10.8301C8.80001 12.1901 10.16 13.0701 11.68 13.0701C13.22 13.0701 14.5501 12.2101 15.1501 10.8401C15.3301 10.4101 15.44 9.91009 15.45 9.40009V9.21008L14.67 1.57007Z" fill="#171717"/>
<path opacity="0.6" d="M22.0402 8.59009L21.7602 5.81006C21.3402 2.79006 19.9702 1.56006 17.0402 1.56006H13.2002L13.9402 9.06006C13.9502 9.16006 13.9602 9.27008 13.9602 9.46008C14.0202 9.98008 14.1802 10.4601 14.4202 10.8901C15.1402 12.2101 16.5402 13.0601 18.0002 13.0601C19.3302 13.0601 20.5302 12.4701 21.2802 11.4301C21.8702 10.6401 22.1402 9.63009 22.0402 8.59009Z" fill="#171717"/>
<path opacity="0.6" d="M6.26983 1.57007C3.32983 1.57007 1.96978 2.80004 1.53978 5.85004L1.26983 8.60004C1.16983 9.67004 1.45983 10.7101 2.08983 11.5201C2.84983 12.5101 4.01981 13.0701 5.31981 13.0701C6.77981 13.0701 8.17982 12.22 8.88982 10.92C9.14982 10.47 9.3198 9.95003 9.3698 9.41003L10.1498 1.58008H6.26983V1.57007Z" fill="#171717"/>
</svg>
