<svg width="24" height="24" viewBox="0 0 24 24" fill="none" xmlns="http://www.w3.org/2000/svg">
<path d="M12.0001 21.75C10.5301 21.75 9.19009 20.94 8.51009 19.64L2.41009 8.04999C1.59009 6.49999 1.86009 4.69999 3.08009 3.44999C4.30009 2.19999 6.10009 1.89999 7.66009 2.67999L10.9001 4.29999C11.5801 4.63999 12.4001 4.63999 13.0901 4.29999L16.3301 2.67999C17.9001 1.89999 19.7001 2.19999 20.9201 3.44999C22.1401 4.69999 22.4101 6.49999 21.5901 8.04999L15.4901 19.64C14.8101 20.94 13.4701 21.75 12.0001 21.75ZM5.88009 3.74999C5.17009 3.74999 4.55009 4.08999 4.15009 4.49999C3.55009 5.11999 3.12009 6.18999 3.73009 7.34999L9.83009 18.94C10.2601 19.76 11.0701 20.25 11.9901 20.25C12.9101 20.25 13.7201 19.76 14.1501 18.94L20.2501 7.34999C20.8601 6.18999 20.4401 5.10999 19.8301 4.49999C19.2301 3.88999 18.1701 3.43999 16.9901 4.01999L13.7501 5.63999C12.6401 6.18999 11.3301 6.18999 10.2201 5.63999L6.99009 4.01999C6.61009 3.82999 6.23009 3.74999 5.88009 3.74999Z" fill="#171717"/>
</svg>
