<svg width="24" height="24" viewBox="0 0 24 24" fill="none" xmlns="http://www.w3.org/2000/svg">
<path opacity="0.4" d="M18.89 5.11L5.78999 18.21C3.89999 15.64 2.53999 12.36 3.37999 8.69C3.89999 6.38 5.17999 4.71 6.75999 3.61C8.33999 2.52 10.23 2 12 2C14.44 2 17.12 2.98 18.89 5.11Z" fill="#171717"/>
<path opacity="0.4" d="M15.78 20.98C14.72 22 13.36 22.51 12 22.51C10.64 22.51 9.28001 21.99 8.22002 20.97C7.86002 20.63 7.50001 20.25 7.14001 19.86L20.04 6.95996C20.29 7.49996 20.48 8.06996 20.62 8.69996C21.79 13.86 18.63 18.22 15.78 20.98Z" fill="#171717"/>
<path d="M21.7701 2.23006C21.4701 1.92006 20.9901 1.92006 20.6901 2.23006L15.0201 7.90006L14.3001 8.62006C13.7601 7.88006 12.9101 7.44006 12.0001 7.44006C10.4201 7.44006 9.13006 8.73006 9.13006 10.3101C9.13006 11.2101 9.57006 12.0601 10.3101 12.6101L2.23006 20.6901C1.92006 20.9901 1.92006 21.4701 2.23006 21.7701C2.38006 21.9201 2.57006 22.0001 2.77006 22.0001C2.97006 22.0001 3.16006 21.9201 3.31006 21.7701L21.7701 3.31006C22.0801 3.01006 22.0801 2.53006 21.7701 2.23006Z" fill="#171717"/>
</svg>
