<svg width="24" height="24" viewBox="0 0 24 24" fill="none" xmlns="http://www.w3.org/2000/svg">
<path d="M10.42 13.75C10.29 13.75 10.16 13.72 10.04 13.65C8.86 12.96 8.13 11.68 8.13 10.32C8.13 8.19001 9.86 6.45001 12 6.45001C13.37 6.45001 14.65 7.18001 15.34 8.37001C15.55 8.73001 15.43 9.19001 15.07 9.40001C14.71 9.61001 14.25 9.49001 14.04 9.13001C13.62 8.39001 12.84 7.94001 12 7.94001C10.7 7.94001 9.63 9.00001 9.63 10.31C9.63 11.15 10.08 11.93 10.8 12.35C11.16 12.56 11.28 13.02 11.07 13.38C10.93 13.61 10.68 13.75 10.42 13.75Z" fill="#171717"/>
<path d="M5.98999 18.56C5.75999 18.56 5.52999 18.45 5.37999 18.25C2.97999 14.96 2.13999 11.62 2.88999 8.32001C3.66999 4.89001 6.18999 2.35001 9.62999 1.52001C13.23 0.65001 17.01 1.82001 19.24 4.49001C19.51 4.81001 19.46 5.28001 19.15 5.55001C18.83 5.82001 18.36 5.77001 18.09 5.45001C16.22 3.21001 13.04 2.24001 9.97999 2.97001C7.05999 3.67001 5.00999 5.74001 4.34999 8.64001C3.69999 11.5 4.44999 14.43 6.58999 17.35C6.82999 17.68 6.75999 18.15 6.42999 18.4C6.29999 18.51 6.13999 18.56 5.98999 18.56Z" fill="#171717"/>
<path d="M11.9999 22.76C10.5199 22.76 9.02994 22.2 7.86994 21.09C7.56994 20.8 7.55994 20.33 7.84994 20.03C8.13994 19.73 8.60994 19.72 8.90994 20.01C10.6399 21.68 13.3499 21.68 15.0799 20.01C17.7499 17.44 20.7099 13.38 19.6499 8.67002C19.5599 8.27002 19.8099 7.86002 20.2199 7.77002C20.6199 7.68002 21.0299 7.93002 21.1199 8.34002C22.3399 13.73 19.0799 18.25 16.1299 21.09C14.9699 22.2 13.4799 22.76 11.9999 22.76Z" fill="#171717"/>
<path d="M1.99994 22.75C1.80994 22.75 1.61994 22.68 1.46994 22.53C1.17994 22.24 1.17994 21.76 1.46994 21.47L21.4699 1.47C21.7599 1.18 22.2399 1.18 22.5299 1.47C22.8199 1.76 22.8199 2.24 22.5299 2.53L2.52994 22.53C2.37994 22.68 2.18994 22.75 1.99994 22.75Z" fill="#171717"/>
</svg>
