<svg width="24" height="24" viewBox="0 0 24 24" fill="none" xmlns="http://www.w3.org/2000/svg">
<path d="M14.5299 12.4201L13.0799 10.9701L14.4799 9.57005C14.7699 9.28005 14.7699 8.80005 14.4799 8.51005C14.1899 8.22005 13.7099 8.22005 13.4199 8.51005L12.0199 9.91005L10.5699 8.46005C10.2799 8.17005 9.79994 8.17005 9.50994 8.46005C9.21994 8.75005 9.21994 9.23005 9.50994 9.52005L10.9599 10.9701L9.46994 12.4601C9.17994 12.7501 9.17994 13.2301 9.46994 13.5201C9.61994 13.6701 9.80994 13.7401 9.99994 13.7401C10.1899 13.7401 10.3799 13.6701 10.5299 13.5201L12.0199 12.0301L13.4699 13.4801C13.6199 13.6301 13.8099 13.7001 13.9999 13.7001C14.1899 13.7001 14.3799 13.6301 14.5299 13.4801C14.8199 13.1901 14.8199 12.7201 14.5299 12.4201Z" fill="#171717"/>
<path opacity="0.4" d="M20.62 8.7C19.58 4.07 15.54 2 12 2C12 2 12 2 11.99 2C8.45999 2 4.42999 4.07 3.37999 8.69C2.19999 13.85 5.35999 18.22 8.21999 20.98C9.27999 22 10.64 22.51 12 22.51C13.36 22.51 14.72 22 15.77 20.98C18.63 18.22 21.79 13.86 20.62 8.7Z" fill="#171717"/>
</svg>
