<svg width="24" height="24" viewBox="0 0 24 24" fill="none" xmlns="http://www.w3.org/2000/svg">
<path d="M7.99996 21.75C7.96996 21.75 7.93996 21.75 7.91996 21.75C7.50996 21.7 7.20996 21.33 7.25996 20.92L9.25996 2.92C9.30996 2.51 9.67996 2.22 10.09 2.26C10.5 2.31 10.8 2.68 10.75 3.09L8.74996 21.09C8.69996 21.47 8.37996 21.75 7.99996 21.75Z" fill="#171717"/>
<path d="M14 21.75C13.97 21.75 13.94 21.75 13.92 21.75C13.51 21.7 13.21 21.33 13.26 20.92L15.26 2.92C15.31 2.51 15.67 2.22 16.09 2.26C16.5 2.31 16.8 2.68 16.75 3.09L14.75 21.09C14.7 21.47 14.38 21.75 14 21.75Z" fill="#171717"/>
<path d="M21.5 9.75H3.5C3.09 9.75 2.75 9.41 2.75 9C2.75 8.59 3.09 8.25 3.5 8.25H21.5C21.91 8.25 22.25 8.59 22.25 9C22.25 9.41 21.91 9.75 21.5 9.75Z" fill="#171717"/>
<path d="M20.5 15.75H2.5C2.09 15.75 1.75 15.41 1.75 15C1.75 14.59 2.09 14.25 2.5 14.25H20.5C20.91 14.25 21.25 14.59 21.25 15C21.25 15.41 20.91 15.75 20.5 15.75Z" fill="#171717"/>
</svg>
