<svg width="24" height="24" viewBox="0 0 24 24" fill="none" xmlns="http://www.w3.org/2000/svg">
<path d="M15 22.75H9C3.57 22.75 1.25 20.43 1.25 15V9C1.25 3.57 3.57 1.25 9 1.25H15C20.43 1.25 22.75 3.57 22.75 9V13C22.75 13.41 22.41 13.75 22 13.75C21.59 13.75 21.25 13.41 21.25 13V9C21.25 4.39 19.61 2.75 15 2.75H9C4.39 2.75 2.75 4.39 2.75 9V15C2.75 19.61 4.39 21.25 9 21.25H15C15.41 21.25 15.75 21.59 15.75 22C15.75 22.41 15.41 22.75 15 22.75Z" fill="#171717"/>
<path d="M18.9999 22.75C18.5899 22.75 18.2499 22.41 18.2499 22V17.81L17.5299 18.53C17.2399 18.82 16.7599 18.82 16.4699 18.53C16.1799 18.24 16.1799 17.76 16.4699 17.47L18.4699 15.47C18.6799 15.26 19.0099 15.19 19.2899 15.31C19.5699 15.43 19.7499 15.7 19.7499 16V22C19.7499 22.41 19.4099 22.75 18.9999 22.75Z" fill="#171717"/>
<path d="M20.9999 18.75C20.8099 18.75 20.6199 18.68 20.4699 18.53L18.4699 16.53C18.1799 16.24 18.1799 15.76 18.4699 15.47C18.7599 15.18 19.2399 15.18 19.5299 15.47L21.5299 17.47C21.8199 17.76 21.8199 18.24 21.5299 18.53C21.3799 18.68 21.1899 18.75 20.9999 18.75Z" fill="#171717"/>
<path d="M8.89999 16.49C8.86999 16.49 8.83999 16.49 8.81999 16.49C8.40999 16.44 8.10999 16.07 8.15999 15.66L9.19999 6.18C9.24999 5.77 9.61999 5.47 10.03 5.52C10.44 5.57 10.74 5.94 10.69 6.35L9.63999 15.82C9.59999 16.2 9.26999 16.49 8.89999 16.49Z" fill="#171717"/>
<path d="M12.05 16.49C12.02 16.49 11.99 16.49 11.97 16.49C11.56 16.44 11.26 16.07 11.31 15.66L12.36 6.19C12.41 5.78 12.78 5.48 13.19 5.53C13.6 5.58 13.9 5.95 13.85 6.36L12.8 15.83C12.76 16.2 12.43 16.49 12.05 16.49Z" fill="#171717"/>
<path d="M16 10.17H6.53003C6.12003 10.17 5.78003 9.83 5.78003 9.42C5.78003 9.01 6.12003 8.67 6.53003 8.67H16C16.41 8.67 16.75 9.01 16.75 9.42C16.75 9.83 16.41 10.17 16 10.17Z" fill="#171717"/>
<path d="M15.47 13.33H6C5.59 13.33 5.25 12.99 5.25 12.58C5.25 12.17 5.59 11.83 6 11.83H15.47C15.88 11.83 16.22 12.17 16.22 12.58C16.22 12.99 15.89 13.33 15.47 13.33Z" fill="#171717"/>
</svg>
