<svg width="24" height="24" viewBox="0 0 24 24" fill="none" xmlns="http://www.w3.org/2000/svg">
<path opacity="0.4" d="M16.19 2H7.82001C4.18001 2 2.01001 4.17 2.01001 7.81V16.18C2.01001 19.82 4.18001 21.99 7.82001 21.99H16.19C19.83 21.99 22 19.82 22 16.18V7.81C22 4.17 19.83 2 16.19 2Z" fill="#171717"/>
<path d="M8.54999 14.55V10.26C9.38999 9.95001 10 9.15001 10 8.20001C10 6.99001 9.00999 6 7.79999 6C6.58999 6 5.59998 6.99001 5.59998 8.20001C5.59998 9.15001 6.20999 9.95001 7.04999 10.26V14.55C6.28999 14.85 5.75 15.59 5.75 16.45C5.75 17.58 6.66999 18.5 7.79999 18.5C8.92999 18.5 9.84998 17.58 9.84998 16.45C9.84998 15.59 9.30999 14.85 8.54999 14.55Z" fill="#171717"/>
<path d="M17.5001 14.55V8.74999C17.5001 7.78999 16.7101 6.99999 15.7501 6.99999H14.6201L14.8301 6.82998C15.1501 6.55998 15.1901 6.08998 14.9301 5.76998C14.6601 5.44998 14.1901 5.41 13.8701 5.67L12.0701 7.17C11.9001 7.31 11.8 7.51999 11.8 7.74999C11.8 7.97999 11.9001 8.17998 12.0701 8.32998L13.8701 9.82998C14.0101 9.94998 14.18 9.99999 14.35 9.99999C14.56 9.99999 14.7801 9.91 14.9301 9.73C15.2001 9.41 15.1501 8.94 14.8301 8.67L14.6201 8.49999H15.7501C15.8901 8.49999 16.0001 8.60999 16.0001 8.74999V14.55C15.2401 14.85 14.7001 15.59 14.7001 16.45C14.7001 17.58 15.6201 18.5 16.7501 18.5C17.8801 18.5 18.8 17.58 18.8 16.45C18.8 15.59 18.2601 14.85 17.5001 14.55Z" fill="#171717"/>
</svg>
