<svg width="24" height="24" viewBox="0 0 24 24" fill="none" xmlns="http://www.w3.org/2000/svg">
<path d="M18.75 22C20.5449 22 22 20.5449 22 18.75C22 16.9551 20.5449 15.5 18.75 15.5C16.9551 15.5 15.5 16.9551 15.5 18.75C15.5 20.5449 16.9551 22 18.75 22Z" fill="#171717"/>
<path d="M19 8C20.6569 8 22 6.65685 22 5C22 3.34315 20.6569 2 19 2C17.3431 2 16 3.34315 16 5C16 6.65685 17.3431 8 19 8Z" fill="#171717"/>
<path d="M5 8C6.65685 8 8 6.65685 8 5C8 3.34315 6.65685 2 5 2C3.34315 2 2 3.34315 2 5C2 6.65685 3.34315 8 5 8Z" fill="#171717"/>
<path opacity="0.4" d="M4.83003 8.02C5.80003 10.8 8.42002 12.67 11.37 12.67C11.38 12.67 11.39 12.67 11.4 12.67L14.93 12.66C16.45 12.64 17.81 13.67 18.22 15.15V17C18.22 17.42 18.56 17.76 18.98 17.76C19.4 17.76 19.74 17.42 19.74 17V5.78C19.74 5.36 19.4 5.02 18.98 5.02C18.56 5.02 18.22 5.36 18.22 5.78V12.4C17.34 11.62 16.19 11.14 14.94 11.14C14.93 11.14 14.93 11.14 14.92 11.14L11.39 11.15C11.38 11.15 11.38 11.15 11.37 11.15C9.08002 11.15 7.03002 9.7 6.28002 7.53C6.17002 7.21 5.87003 7.02 5.56003 7.02C5.48003 7.02 5.39003 7.03 5.31003 7.06C4.90003 7.18 4.69003 7.62 4.83003 8.02Z" fill="#171717"/>
</svg>
