<svg width="24" height="24" viewBox="0 0 24 24" fill="none" xmlns="http://www.w3.org/2000/svg">
<path opacity="0.4" d="M8.5 18.97H8C4 18.97 2 17.97 2 12.97V7.96997C2 3.96997 4 1.96997 8 1.96997H16C20 1.96997 22 3.96997 22 7.96997V12.97C22 16.97 20 18.97 16 18.97H15.5C15.19 18.97 14.89 19.12 14.7 19.37L13.2 21.37C12.54 22.25 11.46 22.25 10.8 21.37L9.29999 19.37C9.13999 19.15 8.78 18.97 8.5 18.97Z" fill="#171717"/>
<path d="M8 13.45C7.81 13.45 7.62 13.38 7.47 13.23L5.47 11.23C5.18 10.94 5.18 10.46 5.47 10.17L7.47 8.16995C7.76 7.87995 8.24 7.87995 8.53 8.16995C8.82 8.45995 8.82 8.93995 8.53 9.22995L7.06 10.7L8.53 12.17C8.82 12.46 8.82 12.94 8.53 13.23C8.38 13.38 8.19 13.45 8 13.45Z" fill="#171717"/>
<path d="M16 13.45C15.81 13.45 15.62 13.38 15.47 13.23C15.18 12.94 15.18 12.46 15.47 12.17L16.94 10.7L15.47 9.22995C15.18 8.93995 15.18 8.45995 15.47 8.16995C15.76 7.87995 16.24 7.87995 16.53 8.16995L18.53 10.17C18.82 10.46 18.82 10.94 18.53 11.23L16.53 13.23C16.38 13.38 16.19 13.45 16 13.45Z" fill="#171717"/>
<path d="M11 13.78C10.9 13.78 10.8 13.76 10.7 13.72C10.32 13.56 10.14 13.12 10.31 12.73L12.31 8.05999C12.47 7.67999 12.91 7.49998 13.3 7.66998C13.68 7.82998 13.86 8.26997 13.69 8.65997L11.69 13.33C11.57 13.61 11.29 13.78 11 13.78Z" fill="#171717"/>
</svg>
