<svg width="24" height="24" viewBox="0 0 24 24" fill="none" xmlns="http://www.w3.org/2000/svg">
<path d="M14.97 22.75H8.96997C3.53997 22.75 1.21997 20.43 1.21997 15V9C1.21997 3.57 3.53997 1.25 8.96997 1.25H14.97C20.4 1.25 22.72 3.57 22.72 9V15C22.72 20.43 20.41 22.75 14.97 22.75ZM8.96997 2.75C4.35997 2.75 2.71997 4.39 2.71997 9V15C2.71997 19.61 4.35997 21.25 8.96997 21.25H14.97C19.58 21.25 21.22 19.61 21.22 15V9C21.22 4.39 19.58 2.75 14.97 2.75H8.96997Z" fill="#171717"/>
<path d="M14.97 22.75C14.56 22.75 14.22 22.41 14.22 22V2C14.22 1.59 14.56 1.25 14.97 1.25C15.38 1.25 15.72 1.59 15.72 2V22C15.72 22.41 15.39 22.75 14.97 22.75Z" fill="#171717"/>
<path d="M7.97003 15.31C7.78003 15.31 7.59003 15.24 7.44003 15.09C7.15003 14.8 7.15003 14.32 7.44003 14.03L9.47003 12L7.44003 9.97C7.15003 9.68 7.15003 9.2 7.44003 8.91C7.73003 8.62 8.21003 8.62 8.50003 8.91L11.06 11.47C11.35 11.76 11.35 12.24 11.06 12.53L8.50003 15.09C8.36003 15.24 8.17003 15.31 7.97003 15.31Z" fill="#171717"/>
</svg>
