<svg width="24" height="24" viewBox="0 0 24 24" fill="none" xmlns="http://www.w3.org/2000/svg">
<path d="M14.97 22.75H8.96997C3.53997 22.75 1.21997 20.43 1.21997 15V9C1.21997 3.57 3.53997 1.25 8.96997 1.25H14.97C20.4 1.25 22.72 3.57 22.72 9V15C22.72 20.43 20.41 22.75 14.97 22.75ZM8.96997 2.75C4.35997 2.75 2.71997 4.39 2.71997 9V15C2.71997 19.61 4.35997 21.25 8.96997 21.25H14.97C19.58 21.25 21.22 19.61 21.22 15V9C21.22 4.39 19.58 2.75 14.97 2.75H8.96997Z" fill="#171717"/>
<path d="M22 16.25H2C1.59 16.25 1.25 15.91 1.25 15.5C1.25 15.09 1.59 14.75 2 14.75H22C22.41 14.75 22.75 15.09 22.75 15.5C22.75 15.91 22.41 16.25 22 16.25Z" fill="#171717"/>
<path d="M12 11.81C11.81 11.81 11.62 11.74 11.47 11.59L8.91 9.03C8.62 8.74 8.62 8.26 8.91 7.97C9.2 7.68 9.68001 7.68 9.97001 7.97L12 10L14.03 7.97C14.32 7.68 14.8 7.68 15.09 7.97C15.38 8.26 15.38 8.74 15.09 9.03L12.53 11.59C12.38 11.74 12.19 11.81 12 11.81Z" fill="#171717"/>
</svg>
