<svg width="24" height="24" viewBox="0 0 24 24" fill="none" xmlns="http://www.w3.org/2000/svg">
<path opacity="0.4" d="M7.81 22H16.19C19.83 22 22 19.83 22 16.19V7.81C22 7.61 21.99 7.41 21.98 7.22C21.9 5.99 21.55 4.95 20.95 4.13C20.66 3.71 20.29 3.34 19.87 3.05C18.92 2.36 17.68 2 16.19 2H7.81C4.37 2 2.24 3.94 2.03 7.22C2.01 7.41 2 7.61 2 7.81V16.19C2 17.68 2.36 18.92 3.05 19.87C3.34 20.29 3.71 20.66 4.13 20.95C5.08 21.64 6.32 22 7.81 22Z" fill="#171717"/>
<path d="M2 8.72H22V7.81C22 7.61 21.99 7.41 21.98 7.22H2.03C2.01 7.41 2 7.61 2 7.81V8.72Z" fill="#171717"/>
<path d="M15.31 14.97C15.31 14.78 15.24 14.59 15.09 14.44L12.53 11.88C12.24 11.59 11.76 11.59 11.47 11.88L8.91 14.44C8.62 14.73 8.62 15.21 8.91 15.5C9.2 15.79 9.68001 15.79 9.97001 15.5L12 13.48L14.03 15.51C14.32 15.8 14.8 15.8 15.09 15.51C15.24 15.36 15.31 15.17 15.31 14.97Z" fill="#171717"/>
</svg>
