<svg width="24" height="24" viewBox="0 0 24 24" fill="none" xmlns="http://www.w3.org/2000/svg">
<path opacity="0.4" d="M2 7.81V16.19C2 19.83 4.17 22 7.81 22H16.19C16.39 22 16.59 21.99 16.78 21.98C18.01 21.9 19.05 21.55 19.87 20.95C20.29 20.66 20.66 20.29 20.95 19.87C21.64 18.92 22 17.68 22 16.19V7.81C22 4.37 20.06 2.24 16.78 2.03C16.59 2.01 16.39 2 16.19 2H7.81C6.32 2 5.08 2.36 4.13 3.05C3.71 3.34 3.34 3.71 3.05 4.13C2.36 5.08 2 6.32 2 7.81Z" fill="#171717"/>
<path d="M15.28 2V22H16.19C16.39 22 16.59 21.99 16.78 21.98V2.03C16.59 2.01 16.39 2 16.19 2H15.28Z" fill="#171717"/>
<path d="M9.02997 15.31C9.21997 15.31 9.40997 15.24 9.55997 15.09L12.12 12.53C12.41 12.24 12.41 11.76 12.12 11.47L9.55997 8.91C9.26997 8.62 8.78997 8.62 8.49997 8.91C8.20997 9.2 8.20997 9.68001 8.49997 9.97001L10.52 12L8.49997 14.03C8.20997 14.32 8.20997 14.8 8.49997 15.09C8.63997 15.24 8.82997 15.31 9.02997 15.31Z" fill="#171717"/>
</svg>
