<svg width="24" height="24" viewBox="0 0 24 24" fill="none" xmlns="http://www.w3.org/2000/svg">
<path opacity="0.4" d="M16.19 2H7.82002C4.18002 2 2.01001 4.17 2.01001 7.81V16.18C2.01001 19.82 4.18002 21.99 7.82002 21.99H16.19C19.83 21.99 22 19.82 22 16.18V7.81C22 4.17 19.83 2 16.19 2Z" fill="#171717"/>
<path d="M13.5799 14.69L11.2599 17.01C10.6199 17.66 9.56993 17.66 8.91993 17.01L6.98994 15.08C6.33994 14.43 6.33994 13.38 6.98994 12.74L9.30993 10.42L13.5799 14.69Z" fill="#171717"/>
<path opacity="0.6" d="M17.0101 11.2599L13.5801 14.6899L9.31006 10.4199L12.7401 6.98994C13.3801 6.33994 14.4301 6.33994 15.0801 6.98994L17.0101 8.91994C17.6601 9.56994 17.6601 10.6199 17.0101 11.2599Z" fill="#171717"/>
</svg>
