<svg width="24" height="24" viewBox="0 0 24 24" fill="none" xmlns="http://www.w3.org/2000/svg">
<path opacity="0.4" d="M12 22C17.5228 22 22 17.5228 22 12C22 6.47715 17.5228 2 12 2C6.47715 2 2 6.47715 2 12C2 17.5228 6.47715 22 12 22Z" fill="#171717"/>
<path d="M7.93998 15.2599C7.84998 15.2599 7.76997 15.2499 7.67997 15.2099C6.86997 14.9099 6.18998 14.3199 5.75998 13.5499C4.75998 11.7499 5.37999 9.39992 7.12999 8.30992L9.46998 6.85991C10.33 6.32991 11.34 6.16994 12.3 6.41994C13.26 6.66994 14.07 7.29992 14.56 8.17992C15.56 9.97992 14.94 12.3299 13.19 13.4199L12.93 13.6099C12.59 13.8499 12.12 13.7699 11.88 13.4399C11.64 13.0999 11.72 12.6299 12.05 12.3899L12.36 12.1699C13.48 11.4699 13.86 10.0199 13.25 8.90993C12.96 8.38993 12.49 8.01992 11.93 7.86992C11.37 7.71992 10.78 7.80993 10.27 8.12993L7.92997 9.57991C6.84997 10.2499 6.46998 11.6999 7.07998 12.8199C7.32998 13.2699 7.72999 13.6199 8.20999 13.7999C8.59999 13.9399 8.79998 14.3699 8.64998 14.7599C8.53998 15.0699 8.24998 15.2599 7.93998 15.2599Z" fill="#171717"/>
<path d="M12.66 17.65C12.36 17.65 12.05 17.61 11.75 17.53C10.79 17.28 9.97997 16.65 9.49997 15.77C8.49997 13.97 9.11996 11.62 10.87 10.53L11.13 10.34C11.47 10.1 11.94 10.18 12.18 10.51C12.42 10.85 12.34 11.32 12.01 11.56L11.7 11.78C10.58 12.48 10.2 13.93 10.81 15.04C11.1 15.56 11.57 15.93 12.13 16.08C12.69 16.23 13.28 16.14 13.79 15.82L16.13 14.37C17.21 13.7 17.59 12.25 16.98 11.13C16.73 10.68 16.33 10.33 15.85 10.15C15.46 10.01 15.26 9.57999 15.41 9.18999C15.55 8.79999 15.99 8.59999 16.37 8.74999C17.18 9.04999 17.86 9.63999 18.29 10.41C19.29 12.21 18.67 14.56 16.92 15.65L14.58 17.1C13.99 17.46 13.33 17.65 12.66 17.65Z" fill="#171717"/>
</svg>
