<svg width="24" height="24" viewBox="0 0 24 24" fill="none" xmlns="http://www.w3.org/2000/svg">
<path opacity="0.4" d="M16.19 2H7.82002C4.18002 2 2.01001 4.17 2.01001 7.81V16.18C2.01001 19.82 4.18002 21.99 7.82002 21.99H16.19C19.83 21.99 22 19.82 22 16.18V7.81C22 4.17 19.83 2 16.19 2Z" fill="#171717"/>
<path d="M8.17997 16.77C8.15997 16.77 8.12997 16.77 8.10997 16.77C7.13997 16.68 6.22998 16.23 5.54998 15.51C3.94998 13.83 3.94998 11.1 5.54998 9.41998L7.73998 7.11996C8.51998 6.29996 9.56997 5.83997 10.69 5.83997C11.81 5.83997 12.86 6.28996 13.64 7.11996C15.24 8.79996 15.24 11.53 13.64 13.21L12.55 14.36C12.26 14.66 11.79 14.67 11.49 14.39C11.19 14.1 11.18 13.63 11.46 13.33L12.55 12.18C13.61 11.07 13.61 9.25997 12.55 8.15997C11.56 7.11997 9.81998 7.11997 8.81998 8.15997L6.62998 10.46C5.56998 11.57 5.56998 13.38 6.62998 14.48C7.05998 14.94 7.63997 15.22 8.24997 15.28C8.65997 15.32 8.95997 15.69 8.91997 16.1C8.88997 16.48 8.55997 16.77 8.17997 16.77Z" fill="#171717"/>
<path d="M13.3099 18.1599C12.1899 18.1599 11.1399 17.7099 10.3599 16.8799C8.75991 15.1999 8.75991 12.4699 10.3599 10.7899L11.4499 9.63991C11.7399 9.33991 12.2099 9.32988 12.5099 9.60988C12.8099 9.89988 12.8199 10.3699 12.5399 10.6699L11.4499 11.8199C10.3899 12.9299 10.3899 14.7399 11.4499 15.8399C12.4399 16.8799 14.1799 16.8899 15.1799 15.8399L17.3699 13.5399C18.4299 12.4299 18.4299 10.6199 17.3699 9.51989C16.9399 9.05989 16.3599 8.7799 15.7499 8.7199C15.3399 8.6799 15.0399 8.30989 15.0799 7.89989C15.1199 7.48989 15.4799 7.17991 15.8999 7.22991C16.8699 7.32991 17.7799 7.76989 18.4599 8.48989C20.0599 10.1699 20.0599 12.8999 18.4599 14.5799L16.2699 16.8799C15.4799 17.7099 14.4299 18.1599 13.3099 18.1599Z" fill="#171717"/>
</svg>
