<svg width="24" height="24" viewBox="0 0 24 24" fill="none" xmlns="http://www.w3.org/2000/svg">
<path opacity="0.4" d="M16.19 2H7.81C4.17 2 2 4.17 2 7.81V16.18C2 19.83 4.17 22 7.81 22H16.18C19.82 22 21.99 19.83 21.99 16.19V7.81C22 4.17 19.83 2 16.19 2Z" fill="#171717"/>
<path d="M12.2001 17.66C11.5001 17.66 10.7901 17.39 10.2601 16.86C9.19007 15.79 9.19007 14.04 10.2601 12.97L11.6701 11.56C11.9601 11.27 12.4401 11.27 12.7301 11.56C13.0201 11.85 13.0201 12.33 12.7301 12.62L11.3201 14.03C10.8301 14.52 10.8301 15.31 11.3201 15.8C11.8101 16.29 12.6001 16.29 13.0901 15.8L15.3101 13.58C15.9201 12.97 16.2601 12.15 16.2601 11.28C16.2601 10.41 15.9201 9.60003 15.3101 8.98003C14.0801 7.75003 11.9401 7.75003 10.7101 8.98003L8.29007 11.4C7.25007 12.44 7.25007 14.14 8.29007 15.19C8.58007 15.48 8.58007 15.96 8.29007 16.25C8.00007 16.54 7.52007 16.54 7.23007 16.25C5.60007 14.62 5.60007 11.97 7.23007 10.34L9.65007 7.92003C10.5501 7.02003 11.7401 6.53003 13.0101 6.53003C14.2801 6.53003 15.4701 7.02003 16.3701 7.92003C17.2701 8.82003 17.7601 10.01 17.7601 11.28C17.7601 12.55 17.2701 13.74 16.3701 14.64L14.1501 16.86C13.6101 17.39 12.9101 17.66 12.2001 17.66Z" fill="#171717"/>
</svg>
