<svg width="24" height="24" viewBox="0 0 24 24" fill="none" xmlns="http://www.w3.org/2000/svg">
<path d="M10.37 18.14C10.37 19.56 9.31998 20.72 7.78998 20.72H4.57001C3.15001 20.72 1.98999 19.56 1.98999 18.14L1.98999 12.34" stroke="#171717" stroke-width="1.5" stroke-linecap="round" stroke-linejoin="round"/>
<path d="M2 12.35H7.79999C8.75999 12.35 9.52002 12.8 9.96002 13.49" stroke="#171717" stroke-width="1.5" stroke-linecap="round" stroke-linejoin="round"/>
<path d="M2 12.35C2 6.29998 3.13003 5.30003 6.53003 3.28003" stroke="#171717" stroke-width="1.5" stroke-linecap="round" stroke-linejoin="round"/>
<path d="M13.6299 12.35H19.4299C20.9599 12.35 22.0099 13.51 22.0099 14.93V18.15C22.0099 19.57 20.9599 20.73 19.4299 20.73H16.2099C14.7899 20.73 13.6299 19.57 13.6299 18.15V12.35" stroke="#171717" stroke-width="1.5" stroke-linecap="round" stroke-linejoin="round"/>
<path d="M13.6299 12.35C13.6299 6.29998 14.7599 5.30003 18.1599 3.28003" stroke="#171717" stroke-width="1.5" stroke-linecap="round" stroke-linejoin="round"/>
</svg>
