<svg width="24" height="24" viewBox="0 0 24 24" fill="none" xmlns="http://www.w3.org/2000/svg">
<path d="M13.63 5.85998C13.63 4.43998 14.68 3.28003 16.21 3.28003L19.42 3.28003C20.84 3.28003 22 4.43999 22 5.85999L22 11.66" stroke="#171717" stroke-width="1.5" stroke-linecap="round" stroke-linejoin="round"/>
<path d="M22 11.65L16.2 11.65C15.24 11.65 14.48 11.2 14.04 10.51" stroke="#171717" stroke-width="1.5" stroke-linecap="round" stroke-linejoin="round"/>
<path d="M22 11.65C22 17.7 20.87 18.7 17.47 20.72" stroke="#171717" stroke-width="1.5" stroke-linecap="round" stroke-linejoin="round"/>
<path d="M10.3699 11.65L4.56988 11.65C3.03988 11.65 1.98988 10.49 1.98988 9.07001L1.98988 5.84997C1.98988 4.42997 3.03988 3.27002 4.56988 3.27002L7.79988 3.27002C9.21988 3.27002 10.3799 4.42998 10.3799 5.84998L10.3799 11.65" stroke="#171717" stroke-width="1.5" stroke-linecap="round" stroke-linejoin="round"/>
<path d="M10.3699 11.65C10.3699 17.7 9.23987 18.7 5.83987 20.72" stroke="#171717" stroke-width="1.5" stroke-linecap="round" stroke-linejoin="round"/>
</svg>
