<svg width="24" height="24" viewBox="0 0 24 24" fill="none" xmlns="http://www.w3.org/2000/svg">
<path d="M8.59009 15.56L15.2101 9.48999C15.4901 9.23999 15.4801 8.84001 15.1901 8.60001L13.1301 6.88001C12.5901 6.43001 12.1601 6.64 12.1601 7.34V16.67C12.1601 17.37 12.6001 17.57 13.1301 17.13L15.1901 15.41C15.4801 15.17 15.4901 14.77 15.2101 14.52L8.59009 8.45002" stroke="#171717" stroke-width="1.5" stroke-miterlimit="10" stroke-linecap="round" stroke-linejoin="round"/>
<path d="M4 6C2.75 7.67 2 9.75 2 12C2 17.52 6.48 22 12 22C17.52 22 22 17.52 22 12C22 6.48 17.52 2 12 2C10.57 2 9.2 2.30001 7.97 2.85001" stroke="#171717" stroke-width="1.5" stroke-linecap="round" stroke-linejoin="round"/>
</svg>
