<svg width="24" height="24" viewBox="0 0 24 24" fill="none" xmlns="http://www.w3.org/2000/svg">
<path opacity="0.4" d="M12 22C17.5228 22 22 17.5228 22 12C22 6.47715 17.5228 2 12 2C6.47715 2 2 6.47715 2 12C2 17.5228 6.47715 22 12 22Z" fill="#171717"/>
<path fill-rule="evenodd" clip-rule="evenodd" d="M12.1188 6.00223C12.6995 5.72434 13.267 6.01777 13.6102 6.30384L15.6683 8.02222C15.6688 8.02264 15.6693 8.02306 15.6698 8.02348C16.3052 8.55078 16.3365 9.48526 15.714 10.0455L13.577 12.005L15.714 13.9644C16.3365 14.5247 16.3052 15.4592 15.6698 15.9865C15.6693 15.9869 15.6688 15.9874 15.6683 15.9878L13.6108 17.7057L13.6092 17.7071C13.2659 17.9921 12.7038 18.2761 12.1284 18.0068C11.5516 17.7368 11.4101 17.1211 11.4101 16.67V13.9918L9.09696 16.1128C8.79166 16.3927 8.31723 16.3722 8.0373 16.0669C7.75736 15.7616 7.77792 15.2871 8.08322 15.0072L11.3574 12.005L8.08322 9.00282C7.77792 8.72288 7.75736 8.24845 8.0373 7.94315C8.31723 7.63785 8.79166 7.61729 9.09696 7.89722L11.4101 10.0182V7.34C11.4101 6.89706 11.5441 6.27729 12.1188 6.00223ZM12.9101 13.4287L14.57 14.9507L12.9101 16.3366V13.4287ZM12.9101 10.5813V7.67338L14.57 9.05933L12.9101 10.5813Z" fill="#171717"/>
</svg>
