<svg width="24" height="24" viewBox="0 0 24 24" fill="none" xmlns="http://www.w3.org/2000/svg">
<path opacity="0.4" d="M19.54 6.54001L16.47 3.47C15.53 2.53 14.26 2.01001 12.93 2.01001H8C5 2.01001 3 4.01001 3 7.01001V17.01C3 20.01 5 22.01 8 22.01H16C19 22.01 21 20.01 21 17.01V10.08C21 8.73999 20.47 7.47001 19.54 6.54001Z" fill="#171717"/>
<path d="M9.49994 18.75C9.30994 18.75 9.11994 18.68 8.96994 18.53L6.96994 16.53C6.67994 16.24 6.67994 15.76 6.96994 15.47L8.96994 13.47C9.25994 13.18 9.73994 13.18 10.0299 13.47C10.3199 13.76 10.3199 14.24 10.0299 14.53L8.55994 16L10.0299 17.47C10.3199 17.76 10.3199 18.24 10.0299 18.53C9.87994 18.68 9.68994 18.75 9.49994 18.75Z" fill="#171717"/>
<path d="M14.4999 18.75C14.3099 18.75 14.1199 18.68 13.9699 18.53C13.6799 18.24 13.6799 17.76 13.9699 17.47L15.4399 16L13.9699 14.53C13.6799 14.24 13.6799 13.76 13.9699 13.47C14.2599 13.18 14.7399 13.18 15.0299 13.47L17.0299 15.47C17.3199 15.76 17.3199 16.24 17.0299 16.53L15.0299 18.53C14.8799 18.68 14.6899 18.75 14.4999 18.75Z" fill="#171717"/>
</svg>
