<svg width="24" height="24" viewBox="0 0 24 24" fill="none" xmlns="http://www.w3.org/2000/svg">
<path opacity="0.4" d="M23.53 12.05C23.24 11.76 22.76 11.76 22.47 12.05L22.01 12.51V12C22.01 6.48 17.52 1.98999 12 1.98999C8.95 1.98999 6.1 3.35999 4.19 5.73999C3.93 6.05999 3.98 6.53998 4.31 6.78998C4.63 7.04998 5.11 6.99998 5.36 6.66998C6.99 4.63998 9.41 3.47998 12 3.47998C16.69 3.47998 20.51 7.29999 20.51 11.99V12.49L20.05 12.03C19.76 11.74 19.28 11.74 18.99 12.03C18.7 12.32 18.7 12.8 18.99 13.09L20.73 14.83C20.8 14.9 20.88 14.95 20.97 14.99C21.06 15.03 21.16 15.05 21.26 15.05C21.36 15.05 21.45 15.03 21.55 14.99C21.64 14.95 21.72 14.9 21.79 14.83L23.53 13.09C23.82 12.82 23.82 12.34 23.53 12.05Z" fill="#171717"/>
<path opacity="0.4" d="M19.69 17.2C19.37 16.94 18.8899 16.9899 18.6399 17.3199C17.0099 19.3499 14.5899 20.51 11.9999 20.51C7.30995 20.51 3.48995 16.6899 3.48995 11.9999V11.4999L3.94994 11.96C4.09994 12.11 4.28995 12.1799 4.47995 12.1799C4.66995 12.1799 4.85995 12.11 5.00995 11.96C5.29995 11.67 5.29995 11.19 5.00995 10.9L3.26994 9.15991C3.19994 9.08991 3.11995 9.03994 3.02995 8.99994C2.84995 8.91994 2.63995 8.91994 2.45995 8.99994C2.36995 9.03994 2.28995 9.08991 2.21995 9.15991L0.479951 10.9C0.189951 11.19 0.189951 11.67 0.479951 11.96C0.769951 12.25 1.24995 12.25 1.53995 11.96L1.99995 11.4999V11.9999C1.99995 17.5199 6.48995 22.01 12.0099 22.01C15.0599 22.01 17.9099 20.64 19.8199 18.26C20.0699 17.94 20.02 17.46 19.69 17.2Z" fill="#171717"/>
<path d="M15.45 11.64C15.72 11.24 15.87 10.77 15.87 10.25C15.87 8.92 14.7 7.75 13.37 7.75H12.55V6.75C12.55 6.34 12.21 6 11.8 6C11.39 6 11.05 6.34 11.05 6.75V7.75H9C8.59 7.75 8.25 8.09 8.25 8.5V12V15.5C8.25 15.91 8.59 16.25 9 16.25H11.05V17.25C11.05 17.66 11.39 18 11.8 18C12.21 18 12.55 17.66 12.55 17.25V16.25H14C15.52 16.25 16.75 15.13 16.75 13.75C16.75 12.86 16.23 12.08 15.45 11.64ZM9.75 9.25H13.37C13.92 9.25 14.37 9.8 14.37 10.25C14.37 10.8 13.92 11.25 13.37 11.25H9.75V9.25ZM14 14.75H9.75V12.75H13.37H14C14.69 12.75 15.25 13.2 15.25 13.75C15.25 14.3 14.69 14.75 14 14.75Z" fill="#171717"/>
</svg>
