<svg width="24" height="24" viewBox="0 0 24 24" fill="none" xmlns="http://www.w3.org/2000/svg">
<path d="M23 15.97C23 19.84 19.87 22.97 16 22.97L17.05 21.22" stroke="#171717" stroke-width="1.5" stroke-linecap="round" stroke-linejoin="round"/>
<path d="M1 7.96997C1 4.09997 4.13 0.969971 8 0.969971L6.95 2.71997" stroke="#171717" stroke-width="1.5" stroke-linecap="round" stroke-linejoin="round"/>
<path d="M6.62 13.0699H9.43C10.05 13.0699 10.56 13.63 10.56 14.2C10.56 14.82 10.06 15.33 9.43 15.33H6.62V13.0699Z" stroke="#171717" stroke-width="1.5" stroke-miterlimit="10" stroke-linecap="round" stroke-linejoin="round"/>
<path d="M6.62 15.33H9.84C10.55 15.33 11.13 15.83 11.13 16.46C11.13 17.08 10.55 17.59 9.84 17.59H6.62V15.33Z" stroke="#171717" stroke-width="1.5" stroke-miterlimit="10" stroke-linecap="round" stroke-linejoin="round"/>
<path d="M8.41998 17.58V18.7" stroke="#171717" stroke-width="1.5" stroke-miterlimit="10" stroke-linecap="round" stroke-linejoin="round"/>
<path d="M8.41998 11.95V13.0699" stroke="#171717" stroke-width="1.5" stroke-miterlimit="10" stroke-linecap="round" stroke-linejoin="round"/>
<path d="M2.5 15.33C2.5 11.92 5.26 9.15991 8.67 9.15991C8.83 9.15991 8.98 9.16993 9.15 9.17993C12.18 9.40993 14.6 11.8299 14.83 14.8599C14.84 15.0199 14.85 15.17 14.85 15.34C14.85 18.75 12.09 21.5099 8.68 21.5099C6.55 21.5099 4.67 20.4299 3.56 18.7899" stroke="#171717" stroke-width="1.5" stroke-miterlimit="10" stroke-linecap="round" stroke-linejoin="round"/>
<path d="M21.5 8.66998C21.5 12.08 18.74 14.84 15.33 14.84H14.84C14.61 11.81 12.19 9.38997 9.15997 9.15997V8.66998C9.15997 5.25998 11.92 2.5 15.33 2.5C17.13 2.5 18.75 3.27 19.88 4.5" stroke="#171717" stroke-width="1.5" stroke-miterlimit="10" stroke-linecap="round" stroke-linejoin="round"/>
</svg>
