<svg width="24" height="24" viewBox="0 0 24 24" fill="none" xmlns="http://www.w3.org/2000/svg">
<path d="M12.5001 17.53C12.3601 17.68 12.1701 17.75 11.9701 17.75C11.7801 17.75 11.5901 17.68 11.4401 17.53L9.8501 15.94C10.4401 15.87 11.0101 15.73 11.5401 15.51L12.5001 16.47C12.8001 16.76 12.8001 17.24 12.5001 17.53Z" fill="#171717"/>
<path d="M15.9601 15.93C15.8201 16.08 15.6201 16.16 15.4301 16.16C15.2401 16.16 15.0501 16.08 14.9001 15.94L13.3701 14.44C13.7601 14.13 14.1201 13.77 14.4301 13.37L15.9501 14.87C16.2501 15.16 16.2501 15.64 15.9601 15.93Z" fill="#171717"/>
<path d="M17.5 12.53C17.36 12.68 17.17 12.75 16.97 12.75C16.78 12.75 16.59 12.68 16.44 12.53L15.48 11.57C15.7 11.04 15.84 10.47 15.91 9.88L17.5 11.47C17.8 11.76 17.8 12.24 17.5 12.53Z" fill="#171717"/>
<path d="M15.9002 8.07C15.4502 4.64 12.5202 2 8.97021 2C5.10021 2 1.97021 5.13 1.97021 9C1.97021 12.55 4.61021 15.48 8.04021 15.93C8.34021 15.98 8.65021 16 8.97021 16C9.27022 16 9.56021 15.98 9.85021 15.94L9.47021 15.56C9.18021 15.26 9.18021 14.79 9.47021 14.5C9.76021 14.2 10.2402 14.2 10.5302 14.5L11.5402 15.51C12.2102 15.25 12.8202 14.89 13.3702 14.44L12.4702 13.55C12.1802 13.26 12.1702 12.79 12.4702 12.49C12.7602 12.2 13.2302 12.19 13.5302 12.48L14.4302 13.37C14.8702 12.83 15.2302 12.23 15.4802 11.57L14.4702 10.56C14.1802 10.26 14.1802 9.79 14.4702 9.5C14.7602 9.2 15.2402 9.2 15.5302 9.5L15.9102 9.88C15.9502 9.59 15.9702 9.3 15.9702 9C15.9702 8.68 15.9502 8.37 15.9002 8.07Z" fill="#171717"/>
<path opacity="0.4" d="M21.97 15C21.97 18.87 18.84 22 14.97 22C11.42 22 8.49004 19.36 8.04004 15.93C8.34004 15.98 8.65004 16 8.97004 16C9.27004 16 9.56004 15.98 9.85004 15.94L11.44 17.53C11.59 17.68 11.78 17.75 11.97 17.75C12.17 17.75 12.36 17.68 12.5 17.53C12.8 17.24 12.8 16.76 12.5 16.47L11.54 15.51C12.21 15.25 12.82 14.89 13.37 14.44L14.9 15.94C15.05 16.08 15.24 16.16 15.43 16.16C15.62 16.16 15.82 16.08 15.96 15.93C16.25 15.64 16.25 15.16 15.95 14.87L14.43 13.37C14.87 12.83 15.23 12.23 15.48 11.57L16.44 12.53C16.59 12.68 16.78 12.75 16.97 12.75C17.17 12.75 17.36 12.68 17.5 12.53C17.8 12.24 17.8 11.76 17.5 11.47L15.91 9.88001C15.95 9.59001 15.97 9.30001 15.97 9.00001C15.97 8.68001 15.95 8.37001 15.9 8.07001C19.33 8.52001 21.97 11.45 21.97 15Z" fill="#171717"/>
</svg>
