<svg width="24" height="24" viewBox="0 0 24 24" fill="none" xmlns="http://www.w3.org/2000/svg">
<path d="M14.1501 22H9.87008C8.34008 22 7.20008 20.76 7.49008 19.43L8.19008 16.35H15.8301L16.5301 19.43C16.8501 20.84 15.7801 22 14.1501 22Z" fill="#171717"/>
<path opacity="0.4" d="M18.7701 13.74L15.8301 16.35H8.19013L5.25013 13.74C3.54013 12.34 3.54013 11.26 4.84013 9.60999L10.0301 3.03999C10.3901 2.58999 10.8101 2.27999 11.2601 2.11999C11.7501 1.94999 12.2701 1.94999 12.7601 2.11999C13.2101 2.27999 13.6301 2.58999 13.9901 3.03999L19.1801 9.60999C20.4801 11.26 20.4201 12.28 18.7701 13.74Z" fill="#171717"/>
<path d="M12.7598 2.11999V6.96999C12.7598 7.37999 12.4198 7.71999 12.0098 7.71999C11.5998 7.71999 11.2598 7.37999 11.2598 6.96999V2.11999C11.7498 1.94999 12.2698 1.94999 12.7598 2.11999Z" fill="#171717"/>
</svg>
