<svg width="25" height="24" viewBox="0 0 25 24" fill="none" xmlns="http://www.w3.org/2000/svg">
<path opacity="0.4" d="M16.2056 2H7.82562C4.18562 2 2.01562 4.17 2.01562 7.81V16.18C2.01562 19.83 4.18562 22 7.82562 22H16.1956C19.8356 22 22.0056 19.83 22.0056 16.19V7.81C22.0156 4.17 19.8456 2 16.2056 2Z" fill="#171717"/>
<path d="M7.34561 15.24C7.18561 15.24 7.02561 15.19 6.88561 15.08C6.55561 14.83 6.49561 14.36 6.74561 14.03L9.12561 10.94C9.41561 10.57 9.82561 10.33 10.2956 10.27C10.7556 10.21 11.2256 10.34 11.5956 10.63L13.4256 12.07C13.4956 12.13 13.5656 12.13 13.6156 12.12C13.6556 12.12 13.7256 12.1 13.7856 12.02L16.0956 9.04001C16.3456 8.71001 16.8256 8.65001 17.1456 8.91001C17.4756 9.16001 17.5356 9.63001 17.2756 9.96001L14.9656 12.94C14.6756 13.31 14.2656 13.55 13.7956 13.6C13.3256 13.66 12.8656 13.53 12.4956 13.24L10.6656 11.8C10.5956 11.74 10.5156 11.74 10.4756 11.75C10.4356 11.75 10.3656 11.77 10.3056 11.85L7.92561 14.94C7.79561 15.14 7.57561 15.24 7.34561 15.24Z" fill="#171717"/>
</svg>
