<svg width="25" height="24" viewBox="0 0 25 24" fill="none" xmlns="http://www.w3.org/2000/svg">
<path d="M22.0156 22.75H2.01562C1.60563 22.75 1.26562 22.41 1.26562 22C1.26562 21.59 1.60563 21.25 2.01562 21.25H22.0156C22.4256 21.25 22.7656 21.59 22.7656 22C22.7656 22.41 22.4256 22.75 22.0156 22.75Z" fill="#171717"/>
<path d="M14.2656 22.75H9.76562C9.35563 22.75 9.01562 22.41 9.01562 22V4C9.01562 2.28 9.96563 1.25 11.5656 1.25H12.4656C14.0656 1.25 15.0156 2.28 15.0156 4V22C15.0156 22.41 14.6756 22.75 14.2656 22.75ZM10.5156 21.25H13.5156V4C13.5156 2.85 12.9756 2.75 12.4656 2.75H11.5656C11.0556 2.75 10.5156 2.85 10.5156 4V21.25Z" fill="#171717"/>
<path d="M7.01562 22.75H3.01562C2.60563 22.75 2.26562 22.41 2.26562 22V10C2.26562 8.28 3.14562 7.25 4.61562 7.25H5.41563C6.88562 7.25 7.76562 8.28 7.76562 10V22C7.76562 22.41 7.42562 22.75 7.01562 22.75ZM3.76562 21.25H6.26562V10C6.26562 8.75 5.71563 8.75 5.41563 8.75H4.61562C4.31562 8.75 3.76562 8.75 3.76562 10V21.25Z" fill="#171717"/>
<path d="M21.0156 22.75H17.0156C16.6056 22.75 16.2656 22.41 16.2656 22V15C16.2656 13.28 17.1456 12.25 18.6156 12.25H19.4156C20.8856 12.25 21.7656 13.28 21.7656 15V22C21.7656 22.41 21.4256 22.75 21.0156 22.75ZM17.7656 21.25H20.2656V15C20.2656 13.75 19.7156 13.75 19.4156 13.75H18.6156C18.3156 13.75 17.7656 13.75 17.7656 15V21.25Z" fill="#171717"/>
</svg>
