<svg width="25" height="24" viewBox="0 0 25 24" fill="none" xmlns="http://www.w3.org/2000/svg">
<path d="M15.0156 22.75H9.01562C3.58563 22.75 1.26562 20.43 1.26562 15V9C1.26562 3.57 3.58563 1.25 9.01562 1.25H15.0156C20.4456 1.25 22.7656 3.57 22.7656 9V15C22.7656 20.43 20.4456 22.75 15.0156 22.75ZM9.01562 2.75C4.40562 2.75 2.76562 4.39 2.76562 9V15C2.76562 19.61 4.40562 21.25 9.01562 21.25H15.0156C19.6256 21.25 21.2656 19.61 21.2656 15V9C21.2656 4.39 19.6256 2.75 15.0156 2.75H9.01562Z" fill="#171717"/>
<path d="M15.5156 19.25C13.9956 19.25 12.7656 18.02 12.7656 16.5V7.5C12.7656 5.98 13.9956 4.75 15.5156 4.75C17.0356 4.75 18.2656 5.98 18.2656 7.5V16.5C18.2656 18.02 17.0356 19.25 15.5156 19.25ZM15.5156 6.25C14.8256 6.25 14.2656 6.81 14.2656 7.5V16.5C14.2656 17.19 14.8256 17.75 15.5156 17.75C16.2056 17.75 16.7656 17.19 16.7656 16.5V7.5C16.7656 6.81 16.2056 6.25 15.5156 6.25Z" fill="#171717"/>
<path d="M8.51562 19.25C6.99563 19.25 5.76562 18.02 5.76562 16.5V13C5.76562 11.48 6.99563 10.25 8.51562 10.25C10.0356 10.25 11.2656 11.48 11.2656 13V16.5C11.2656 18.02 10.0356 19.25 8.51562 19.25ZM8.51562 11.75C7.82562 11.75 7.26562 12.31 7.26562 13V16.5C7.26562 17.19 7.82562 17.75 8.51562 17.75C9.20563 17.75 9.76562 17.19 9.76562 16.5V13C9.76562 12.31 9.20563 11.75 8.51562 11.75Z" fill="#171717"/>
</svg>
