<svg width="25" height="24" viewBox="0 0 25 24" fill="none" xmlns="http://www.w3.org/2000/svg">
<path d="M17.2456 21.52C17.0556 21.52 16.8656 21.45 16.7156 21.3C16.4256 21.01 16.4256 20.53 16.7156 20.24L20.2556 16.7C20.5456 16.41 21.0256 16.41 21.3156 16.7C21.6056 16.99 21.6056 17.47 21.3156 17.76L17.7756 21.3C17.6356 21.44 17.4356 21.52 17.2456 21.52Z" fill="#171717"/>
<path d="M20.7856 21.52C20.5956 21.52 20.4056 21.45 20.2556 21.3L16.7156 17.76C16.4256 17.47 16.4256 16.99 16.7156 16.7C17.0056 16.41 17.4856 16.41 17.7756 16.7L21.3156 20.24C21.6056 20.53 21.6056 21.01 21.3156 21.3C21.1656 21.44 20.9756 21.52 20.7856 21.52Z" fill="#171717"/>
<path d="M7.01562 14.25C6.60563 14.25 6.26562 13.91 6.26562 13.5V10.5C6.26562 10.09 6.60563 9.75 7.01562 9.75C7.42562 9.75 7.76562 10.09 7.76562 10.5V13.5C7.76562 13.91 7.42562 14.25 7.01562 14.25Z" fill="#171717"/>
<path d="M12.0156 14.25C11.6056 14.25 11.2656 13.91 11.2656 13.5V10.5C11.2656 10.09 11.6056 9.75 12.0156 9.75C12.4256 9.75 12.7656 10.09 12.7656 10.5V13.5C12.7656 13.91 12.4256 14.25 12.0156 14.25Z" fill="#171717"/>
<path d="M17.0156 14.25C16.6056 14.25 16.2656 13.91 16.2656 13.5V10.5C16.2656 10.09 16.6056 9.75 17.0156 9.75C17.4256 9.75 17.7656 10.09 17.7656 10.5V13.5C17.7656 13.91 17.4256 14.25 17.0156 14.25Z" fill="#171717"/>
<path d="M13.0156 22.75H9.01562C3.58563 22.75 1.26562 20.43 1.26562 15V9C1.26562 3.57 3.58563 1.25 9.01562 1.25H15.0156C20.4456 1.25 22.7656 3.57 22.7656 9V13C22.7656 13.41 22.4256 13.75 22.0156 13.75C21.6056 13.75 21.2656 13.41 21.2656 13V9C21.2656 4.39 19.6256 2.75 15.0156 2.75H9.01562C4.40562 2.75 2.76562 4.39 2.76562 9V15C2.76562 19.61 4.40562 21.25 9.01562 21.25H13.0156C13.4256 21.25 13.7656 21.59 13.7656 22C13.7656 22.41 13.4256 22.75 13.0156 22.75Z" fill="#171717"/>
</svg>
