<svg width="25" height="24" viewBox="0 0 25 24" fill="none" xmlns="http://www.w3.org/2000/svg">
<path d="M2.01562 13.01V15C2.01562 20 4.01562 22 9.01562 22H15.0156C20.0156 22 22.0156 20 22.0156 15V9C22.0156 4 20.0156 2 15.0156 2H9.01562C4.01562 2 2.01562 4 2.01562 9" stroke="#171717" stroke-width="1.5" stroke-linecap="round" stroke-linejoin="round"/>
<path d="M17.5156 11.57V16.5C17.5156 17.6 16.6256 18.5 15.5156 18.5C14.4156 18.5 13.5156 17.6 13.5156 16.5V7.5C13.5156 6.4 14.4156 5.5 15.5156 5.5C16.6156 5.5 17.5156 6.4 17.5156 7.5" stroke="#171717" stroke-width="1.5" stroke-linecap="round" stroke-linejoin="round"/>
<path d="M8.51562 18.5C9.61563 18.5 10.5156 17.6 10.5156 16.5V13C10.5156 11.9 9.61563 11 8.51562 11C7.41562 11 6.51562 11.9 6.51562 13V16.5C6.51562 17.6 7.40562 18.5 8.51562 18.5Z" stroke="#171717" stroke-width="1.5" stroke-linecap="round" stroke-linejoin="round"/>
</svg>
