<svg width="25" height="24" viewBox="0 0 25 24" fill="none" xmlns="http://www.w3.org/2000/svg">
<path d="M13.0156 22.75H9.01562C3.58563 22.75 1.26562 20.43 1.26562 15V9C1.26562 3.57 3.58563 1.25 9.01562 1.25H15.0156C20.4456 1.25 22.7656 3.57 22.7656 9V13C22.7656 13.41 22.4256 13.75 22.0156 13.75C21.6056 13.75 21.2656 13.41 21.2656 13V9C21.2656 4.39 19.6256 2.75 15.0156 2.75H9.01562C4.40562 2.75 2.76562 4.39 2.76562 9V15C2.76562 19.61 4.40562 21.25 9.01562 21.25H13.0156C13.4256 21.25 13.7656 21.59 13.7656 22C13.7656 22.41 13.4256 22.75 13.0156 22.75Z" fill="#171717"/>
<path d="M13.0156 22.75H9.01562C3.58563 22.75 1.26562 20.43 1.26562 15V9C1.26562 3.57 3.58563 1.25 9.01562 1.25H15.0156C20.4456 1.25 22.7656 3.57 22.7656 9V13C22.7656 13.41 22.4256 13.75 22.0156 13.75C21.6056 13.75 21.2656 13.41 21.2656 13V9C21.2656 4.39 19.6256 2.75 15.0156 2.75H9.01562C4.40562 2.75 2.76562 4.39 2.76562 9V15C2.76562 19.61 4.40562 21.25 9.01562 21.25H13.0156C13.4256 21.25 13.7656 21.59 13.7656 22C13.7656 22.41 13.4256 22.75 13.0156 22.75Z" fill="#171717"/>
<path d="M7.01562 14.69C6.60563 14.69 6.26562 14.35 6.26562 13.94V10.73C6.26562 10.32 6.60563 9.97998 7.01562 9.97998C7.42562 9.97998 7.76562 10.32 7.76562 10.73V13.94C7.76562 14.36 7.42562 14.69 7.01562 14.69Z" fill="#171717"/>
<path d="M17.0156 14.69C16.6056 14.69 16.2656 14.35 16.2656 13.94V10.73C16.2656 10.32 16.6056 9.97998 17.0156 9.97998C17.4256 9.97998 17.7656 10.32 17.7656 10.73V13.94C17.7656 14.36 17.4256 14.69 17.0156 14.69Z" fill="#171717"/>
<path d="M13.0156 22.75H9.01562C3.58563 22.75 1.26562 20.43 1.26562 15V9C1.26562 3.57 3.58563 1.25 9.01562 1.25H15.0156C20.4456 1.25 22.7656 3.57 22.7656 9V13C22.7656 13.41 22.4256 13.75 22.0156 13.75C21.6056 13.75 21.2656 13.41 21.2656 13V9C21.2656 4.39 19.6256 2.75 15.0156 2.75H9.01562C4.40562 2.75 2.76562 4.39 2.76562 9V15C2.76562 19.61 4.40562 21.25 9.01562 21.25H13.0156C13.4256 21.25 13.7656 21.59 13.7656 22C13.7656 22.41 13.4256 22.75 13.0156 22.75Z" fill="#171717"/>
<path d="M17.5956 21.75C17.3956 21.75 17.2056 21.67 17.0656 21.53L15.4856 19.96C15.1956 19.67 15.1856 19.19 15.4856 18.9C15.7756 18.61 16.2556 18.6 16.5456 18.9L17.5556 19.9L20.4556 16.51C20.7256 16.19 21.1956 16.16 21.5156 16.43C21.8256 16.7 21.8656 17.17 21.5956 17.49L18.1756 21.49C18.0356 21.65 17.8456 21.74 17.6356 21.75C17.6156 21.75 17.6056 21.75 17.5956 21.75Z" fill="#171717"/>
<path d="M12.0156 14.25C11.6056 14.25 11.2656 13.91 11.2656 13.5V10.5C11.2656 10.09 11.6056 9.75 12.0156 9.75C12.4256 9.75 12.7656 10.09 12.7656 10.5V13.5C12.7656 13.91 12.4256 14.25 12.0156 14.25Z" fill="#171717"/>
</svg>
