<svg width="25" height="24" viewBox="0 0 25 24" fill="none" xmlns="http://www.w3.org/2000/svg">
<path opacity="0.4" d="M16.0156 20.97V18.03C16.0156 16.76 16.7756 16 18.0456 16H20.9856C21.3856 16 21.7256 16.08 22.0156 16.22C22.0156 16.21 22.0156 16.2 22.0156 16.18V7.81C22.0156 4.17 19.8456 2 16.2056 2H7.82562C4.18562 2 2.01562 4.17 2.01562 7.81V16.18C2.01562 19.83 4.18562 22 7.82562 22H16.1956C16.2056 22 16.2156 22 16.2356 22C16.0956 21.71 16.0156 21.37 16.0156 20.97Z" fill="#171717"/>
<path d="M7.01562 14.25C6.60563 14.25 6.26562 13.91 6.26562 13.5V10.5C6.26562 10.09 6.60563 9.75 7.01562 9.75C7.42562 9.75 7.76562 10.09 7.76562 10.5V13.5C7.76562 13.91 7.42562 14.25 7.01562 14.25Z" fill="#171717"/>
<path d="M12.0156 14.25C11.6056 14.25 11.2656 13.91 11.2656 13.5V10.5C11.2656 10.09 11.6056 9.75 12.0156 9.75C12.4256 9.75 12.7656 10.09 12.7656 10.5V13.5C12.7656 13.91 12.4256 14.25 12.0156 14.25Z" fill="#171717"/>
<path d="M17.0156 14.25C16.6056 14.25 16.2656 13.91 16.2656 13.5V10.5C16.2656 10.09 16.6056 9.75 17.0156 9.75C17.4256 9.75 17.7656 10.09 17.7656 10.5V13.5C17.7656 13.91 17.4256 14.25 17.0156 14.25Z" fill="#171717"/>
<path d="M20.9856 16H18.0456C16.7756 16 16.0156 16.76 16.0156 18.03V20.97C16.0156 22.24 16.7756 23 18.0456 23H20.9856C22.2556 23 23.0156 22.24 23.0156 20.97V18.03C23.0156 16.76 22.2556 16 20.9856 16ZM21.4856 20.56C21.7356 20.81 21.7356 21.22 21.4856 21.47C21.3556 21.59 21.1956 21.65 21.0256 21.65C20.8656 21.65 20.7056 21.59 20.5756 21.47L19.5156 20.41L18.4656 21.47C18.3356 21.59 18.1756 21.65 18.0056 21.65C17.8456 21.65 17.6856 21.59 17.5556 21.47C17.3056 21.22 17.3056 20.81 17.5556 20.56L18.6156 19.5L17.5556 18.45C17.3056 18.2 17.3056 17.79 17.5556 17.54C17.8056 17.29 18.2156 17.29 18.4656 17.54L19.5156 18.6L20.5756 17.54C20.8256 17.29 21.2356 17.29 21.4856 17.54C21.7356 17.79 21.7356 18.2 21.4856 18.45L20.4256 19.5L21.4856 20.56Z" fill="#171717"/>
</svg>
