<svg width="25" height="24" viewBox="0 0 25 24" fill="none" xmlns="http://www.w3.org/2000/svg">
<path d="M20.9856 16H18.0456C16.7756 16 16.0156 16.76 16.0156 18.03V20.97C16.0156 22.24 16.7756 23 18.0456 23H20.9856C22.2556 23 23.0156 22.24 23.0156 20.97V18.03C23.0156 16.76 22.2556 16 20.9856 16ZM21.6456 18.45L19.2756 21.22C19.1856 21.33 19.0456 21.4 18.9056 21.4C18.8956 21.4 18.8956 21.4 18.8856 21.4C18.7456 21.4 18.6156 21.35 18.5156 21.25L17.4256 20.17C17.2256 19.97 17.2256 19.64 17.4256 19.44C17.6256 19.24 17.9556 19.23 18.1556 19.44L18.8556 20.13L20.8556 17.79C21.0456 17.57 21.3656 17.55 21.5856 17.73C21.8056 17.91 21.8256 18.24 21.6456 18.45Z" fill="#171717"/>
<path opacity="0.4" d="M16.0156 20.97V18.03C16.0156 16.76 16.7756 16 18.0456 16H20.9856C21.3856 16 21.7256 16.08 22.0156 16.22C22.0156 16.21 22.0156 16.2 22.0156 16.18V7.81C22.0156 4.17 19.8456 2 16.2056 2H7.82562C4.18562 2 2.01562 4.17 2.01562 7.81V16.18C2.01562 19.83 4.18562 22 7.82562 22H16.1956C16.2056 22 16.2156 22 16.2356 22C16.0956 21.71 16.0156 21.37 16.0156 20.97Z" fill="#171717"/>
<path d="M7.01562 14.25C6.60563 14.25 6.26562 13.91 6.26562 13.5V10.5C6.26562 10.09 6.60563 9.75 7.01562 9.75C7.42562 9.75 7.76562 10.09 7.76562 10.5V13.5C7.76562 13.91 7.42562 14.25 7.01562 14.25Z" fill="#171717"/>
<path d="M12.0156 14.25C11.6056 14.25 11.2656 13.91 11.2656 13.5V10.5C11.2656 10.09 11.6056 9.75 12.0156 9.75C12.4256 9.75 12.7656 10.09 12.7656 10.5V13.5C12.7656 13.91 12.4256 14.25 12.0156 14.25Z" fill="#171717"/>
<path d="M17.0156 14.25C16.6056 14.25 16.2656 13.91 16.2656 13.5V10.5C16.2656 10.09 16.6056 9.75 17.0156 9.75C17.4256 9.75 17.7656 10.09 17.7656 10.5V13.5C17.7656 13.91 17.4256 14.25 17.0156 14.25Z" fill="#171717"/>
</svg>
