<svg width="25" height="24" viewBox="0 0 25 24" fill="none" xmlns="http://www.w3.org/2000/svg">
<path opacity="0.4" d="M16.2056 2H7.82562C4.18562 2 2.01562 4.17 2.01562 7.81V16.18C2.01562 19.83 4.18562 22 7.82562 22H16.1956C19.8356 22 22.0056 19.83 22.0056 16.19V7.81C22.0156 4.17 19.8456 2 16.2056 2Z" fill="#171717"/>
<path d="M16.4356 7.81002V16.19C16.4356 16.83 15.9156 17.35 15.2756 17.35C14.6256 17.35 14.1056 16.83 14.1056 16.19V7.81002C14.1056 7.17002 14.6256 6.65002 15.2756 6.65002C15.9156 6.65002 16.4356 7.17002 16.4356 7.81002Z" fill="#171717"/>
<path d="M9.92558 12.93V16.19C9.92558 16.83 9.40558 17.35 8.75558 17.35C8.11558 17.35 7.59558 16.83 7.59558 16.19V12.93C7.59558 12.29 8.11558 11.77 8.75558 11.77C9.40558 11.77 9.92558 12.29 9.92558 12.93Z" fill="#171717"/>
</svg>
