<svg width="25" height="24" viewBox="0 0 25 24" fill="none" xmlns="http://www.w3.org/2000/svg">
<path d="M22.0156 22.75H5.01562C2.94563 22.75 1.26562 21.07 1.26562 19V2C1.26562 1.59 1.60563 1.25 2.01562 1.25C2.42562 1.25 2.76562 1.59 2.76562 2V19C2.76562 20.24 3.77562 21.25 5.01562 21.25H22.0156C22.4256 21.25 22.7656 21.59 22.7656 22C22.7656 22.41 22.4256 22.75 22.0156 22.75Z" fill="#171717"/>
<path d="M5.01545 17.7501C4.84545 17.7501 4.66545 17.6901 4.52545 17.5701C4.21545 17.3001 4.17545 16.8301 4.44545 16.5101L9.03545 11.1501C9.53545 10.5701 10.2554 10.2201 11.0154 10.1901C11.7754 10.1701 12.5254 10.4501 13.0654 10.9901L14.0154 11.9401C14.2654 12.1901 14.5954 12.3101 14.9454 12.3101C15.2954 12.3001 15.6154 12.1401 15.8454 11.8701L20.4354 6.51008C20.7054 6.20008 21.1754 6.16006 21.4954 6.43006C21.8054 6.70006 21.8454 7.17006 21.5754 7.49006L16.9854 12.8501C16.4854 13.4301 15.7654 13.7801 15.0054 13.8101C14.2454 13.8301 13.4954 13.5501 12.9554 13.0101L12.0154 12.0601C11.7654 11.8101 11.4354 11.6801 11.0854 11.6901C10.7354 11.7001 10.4154 11.8601 10.1854 12.1301L5.59545 17.4901C5.43545 17.6601 5.22545 17.7501 5.01545 17.7501Z" fill="#171717"/>
</svg>
