<svg width="25" height="24" viewBox="0 0 25 24" fill="none" xmlns="http://www.w3.org/2000/svg">
<path d="M22.0156 22.75H5.01562C2.94563 22.75 1.26562 21.07 1.26562 19V2C1.26562 1.59 1.60563 1.25 2.01562 1.25C2.42562 1.25 2.76562 1.59 2.76562 2V19C2.76562 20.24 3.77562 21.25 5.01562 21.25H22.0156C22.4256 21.25 22.7656 21.59 22.7656 22C22.7656 22.41 22.4256 22.75 22.0156 22.75Z" fill="#171717"/>
<path opacity="0.4" d="M5.01569 17.7501C4.84569 17.7501 4.66569 17.6901 4.52569 17.5701C4.21569 17.3001 4.17569 16.8301 4.44569 16.5101L9.03569 11.1501C9.53569 10.5701 10.2557 10.2201 11.0157 10.1901C11.7757 10.1701 12.5257 10.4501 13.0657 10.9901L14.0157 11.9401C14.2657 12.1901 14.5857 12.3101 14.9457 12.3101C15.2957 12.3001 15.6157 12.1401 15.8457 11.8701L20.4357 6.51008C20.7057 6.20008 21.1757 6.16006 21.4957 6.43006C21.8057 6.70006 21.8457 7.17006 21.5757 7.49006L16.9857 12.8501C16.4857 13.4301 15.7657 13.7801 15.0057 13.8101C14.2357 13.8301 13.4957 13.5501 12.9557 13.0101L12.0157 12.0601C11.7657 11.8101 11.4357 11.6801 11.0857 11.6901C10.7357 11.7001 10.4157 11.8601 10.1857 12.1301L5.59569 17.4901C5.43569 17.6601 5.22569 17.7501 5.01569 17.7501Z" fill="#171717"/>
</svg>
