<svg width="25" height="24" viewBox="0 0 25 24" fill="none" xmlns="http://www.w3.org/2000/svg">
<path d="M22.0156 13V9C22.0156 4 20.0156 2 15.0156 2H9.01562C4.01562 2 2.01562 4 2.01562 9V15C2.01562 20 4.01562 22 9.01562 22H13.0156" stroke="#171717" stroke-width="1.5" stroke-linecap="round" stroke-linejoin="round"/>
<path d="M7.3457 14.49L9.72571 11.4C10.0657 10.96 10.6957 10.88 11.1357 11.22L12.9657 12.66C13.4057 13 14.0357 12.92 14.3757 12.49L16.6857 9.51001" stroke="#171717" stroke-width="1.5" stroke-linecap="round" stroke-linejoin="round"/>
<path d="M20.5656 16.9799C20.2656 16.9299 19.9056 16.6599 19.7656 16.3799L19.4856 15.8099C18.9456 14.7199 18.0656 14.7199 17.5356 15.8099L17.2556 16.3799C17.1156 16.6599 16.7656 16.9199 16.4556 16.9799L16.0756 17.0399C14.9356 17.2299 14.6656 18.0699 15.4856 18.8999L15.8356 19.2499C16.0656 19.4899 16.1956 19.9499 16.1256 20.2699L16.0756 20.4799C15.7656 21.8599 16.4956 22.3899 17.6956 21.6699L17.9556 21.5199C18.2656 21.3399 18.7656 21.3399 19.0756 21.5199L19.3356 21.6699C20.5456 22.3999 21.2756 21.8599 20.9556 20.4799L20.9056 20.2699" stroke="#171717" stroke-width="1.5" stroke-linecap="round" stroke-linejoin="round"/>
</svg>
