<svg width="25" height="24" viewBox="0 0 25 24" fill="none" xmlns="http://www.w3.org/2000/svg">
<path d="M13.0156 22.75H9.01562C3.58563 22.75 1.26562 20.43 1.26562 15V9C1.26562 3.57 3.58563 1.25 9.01562 1.25H15.0156C20.4456 1.25 22.7656 3.57 22.7656 9V13C22.7656 13.41 22.4256 13.75 22.0156 13.75C21.6056 13.75 21.2656 13.41 21.2656 13V9C21.2656 4.39 19.6256 2.75 15.0156 2.75H9.01562C4.40562 2.75 2.76562 4.39 2.76562 9V15C2.76562 19.61 4.40562 21.25 9.01562 21.25H13.0156C13.4256 21.25 13.7656 21.59 13.7656 22C13.7656 22.41 13.4256 22.75 13.0156 22.75Z" fill="#171717"/>
<path d="M7.34572 15.24C7.18572 15.24 7.02573 15.19 6.88573 15.08C6.55573 14.83 6.49574 14.36 6.74574 14.03L9.12572 10.94C9.41572 10.57 9.82573 10.33 10.2957 10.27C10.7657 10.21 11.2257 10.34 11.5957 10.63L13.4257 12.07C13.4957 12.13 13.5657 12.12 13.6157 12.12C13.6557 12.12 13.7257 12.1 13.7857 12.02L16.0957 9.04C16.3457 8.71 16.8157 8.65001 17.1457 8.91001C17.4757 9.16001 17.5357 9.63001 17.2757 9.96001L14.9657 12.94C14.6757 13.31 14.2657 13.55 13.7957 13.6C13.3357 13.66 12.8657 13.53 12.5057 13.24L10.6757 11.8C10.6057 11.74 10.5257 11.74 10.4857 11.75C10.4457 11.75 10.3757 11.77 10.3157 11.85L7.93575 14.94C7.79575 15.14 7.57572 15.24 7.34572 15.24Z" fill="#171717"/>
<path d="M20.2756 22.75C19.9256 22.75 19.4756 22.64 18.9456 22.32L18.6956 22.17C18.6256 22.13 18.4156 22.13 18.3456 22.17L18.0956 22.32C16.9456 23.01 16.2156 22.72 15.8956 22.48C15.5656 22.24 15.0556 21.64 15.3556 20.32L15.4056 20.11C15.4256 20.03 15.3656 19.84 15.3156 19.78L14.9656 19.43C14.3756 18.83 14.1456 18.13 14.3456 17.5C14.5456 16.88 15.1356 16.44 15.9656 16.3L16.3456 16.24C16.4156 16.22 16.5556 16.12 16.5956 16.05L16.8756 15.48C17.2656 14.69 17.8656 14.24 18.5256 14.24C19.1856 14.24 19.7856 14.69 20.1756 15.48L20.4556 16.04C20.4956 16.11 20.6356 16.21 20.7056 16.23L21.0856 16.29C21.9156 16.43 22.5056 16.87 22.7056 17.49C22.9056 18.11 22.6856 18.81 22.0856 19.42L21.7356 19.77C21.6856 19.83 21.6256 20.02 21.6456 20.1L21.6956 20.31C21.9956 21.63 21.4856 22.23 21.1556 22.47C20.9756 22.61 20.6856 22.75 20.2756 22.75ZM18.5056 15.75C18.4956 15.76 18.3556 15.86 18.2156 16.15L17.9356 16.72C17.6956 17.21 17.1256 17.63 16.5956 17.72L16.2156 17.78C15.8956 17.83 15.7856 17.94 15.7756 17.96C15.7756 17.98 15.8056 18.14 16.0356 18.37L16.3856 18.72C16.7956 19.14 17.0056 19.86 16.8756 20.43L16.8256 20.64C16.7356 21.03 16.7756 21.2 16.7956 21.26C16.8256 21.24 16.9956 21.22 17.3256 21.02L17.5756 20.87C18.1256 20.54 18.9156 20.54 19.4656 20.87L19.7156 21.02C20.1256 21.27 20.2956 21.24 20.3056 21.24C20.2656 21.24 20.3156 21.04 20.2256 20.64L20.1756 20.43C20.0456 19.85 20.2556 19.14 20.6656 18.72L21.0156 18.37C21.2456 18.14 21.2756 17.98 21.2756 17.95C21.2656 17.93 21.1556 17.83 20.8356 17.77L20.4556 17.71C19.9156 17.62 19.3556 17.2 19.1156 16.71L18.8356 16.15C18.6756 15.85 18.5356 15.76 18.5056 15.75Z" fill="#171717"/>
</svg>
