<svg width="25" height="24" viewBox="0 0 25 24" fill="none" xmlns="http://www.w3.org/2000/svg">
<path opacity="0.4" d="M22.0156 7.81V15.16C21.7256 15.02 21.4056 14.92 21.0456 14.86L20.7356 14.81L20.4756 14.27C19.9256 13.15 19.0256 12.5 18.0156 12.5C17.0056 12.5 16.1056 13.15 15.5556 14.27L15.2856 14.81L14.9856 14.86C13.7956 15.06 12.9356 15.72 12.6256 16.66C12.3256 17.61 12.6356 18.65 13.4856 19.51L13.7956 19.82L13.7656 19.94C13.5656 20.83 13.6456 21.51 13.8356 22H7.82562C4.18562 22 2.01562 19.83 2.01562 16.19V7.81C2.01562 4.17 4.18562 2 7.82562 2H16.2056C19.8456 2 22.0156 4.17 22.0156 7.81Z" fill="#171717"/>
<path d="M19.1355 14.9399L19.4555 15.5899C19.6155 15.9099 20.0255 16.2099 20.3655 16.2699L20.7955 16.3399C22.1055 16.5599 22.4055 17.5199 21.4755 18.4599L21.0755 18.8599C20.8055 19.1299 20.6655 19.6499 20.7455 20.0299L20.7955 20.2699C21.1555 21.8499 20.3155 22.4599 18.9455 21.6299L18.6555 21.4499C18.3055 21.2399 17.7255 21.2399 17.3755 21.4499L17.0855 21.6299C15.7055 22.4599 14.8755 21.8499 15.2355 20.2699L15.2855 20.0299C15.3655 19.6599 15.2255 19.1299 14.9555 18.8599L14.5555 18.4599C13.6255 17.5099 13.9255 16.5599 15.2355 16.3399L15.6655 16.2699C16.0155 16.2099 16.4155 15.9099 16.5755 15.5899L16.8955 14.9399C17.5155 13.6899 18.5155 13.6899 19.1355 14.9399Z" fill="#171717"/>
<path fill-rule="evenodd" clip-rule="evenodd" d="M16.145 7.91728C16.4724 8.17106 16.5321 8.64217 16.2783 8.96954L13.9638 11.9552C13.369 12.7076 12.2721 12.8448 11.5069 12.2535L11.5017 12.2495L9.67514 10.8121C9.5623 10.7264 9.4049 10.7478 9.3192 10.8583C9.31912 10.8584 9.31928 10.8582 9.3192 10.8583L6.93968 13.9477C6.68692 14.2759 6.216 14.337 5.88784 14.0842C5.55968 13.8315 5.49856 13.3606 5.75131 13.0324L8.13204 9.94146C8.72595 9.17287 9.82716 9.03396 10.5941 9.62658L10.5993 9.63062L12.4259 11.0679C12.5399 11.1546 12.7006 11.1322 12.7857 11.0267L15.0928 8.05055C15.3465 7.72318 15.8176 7.66351 16.145 7.91728Z" fill="#171717"/>
</svg>
