<svg width="25" height="24" viewBox="0 0 25 24" fill="none" xmlns="http://www.w3.org/2000/svg">
<path d="M18.3356 12.75H15.0156C12.5256 12.75 11.2656 11.34 11.2656 8.54996V5.67996C11.2656 4.65996 11.3856 3.19996 12.4456 2.39996C13.3356 1.73996 14.6156 1.68996 16.5056 2.23996C18.9856 2.95996 21.0556 5.02996 21.7756 7.50996C22.3256 9.38996 22.2756 10.68 21.6156 11.56C20.8156 12.63 19.3556 12.75 18.3356 12.75ZM14.2956 3.35996C13.8856 3.35996 13.5656 3.43996 13.3556 3.59996C12.9656 3.88996 12.7756 4.56996 12.7756 5.67996V8.55996C12.7756 10.8 13.6356 11.26 15.0256 11.26H18.3456C19.4456 11.26 20.1256 11.07 20.4256 10.68C20.7756 10.22 20.7456 9.29996 20.3556 7.94996C19.7756 5.97996 18.0756 4.26996 16.1056 3.69996C15.3656 3.46996 14.7656 3.35996 14.2956 3.35996Z" fill="#171717"/>
<path d="M11.0856 22.75C10.5556 22.75 10.0156 22.71 9.47563 22.62C5.38563 21.96 2.05563 18.64 1.39563 14.55C0.54563 9.28995 3.93563 4.32995 9.12563 3.26995C9.53563 3.18995 9.92563 3.44995 10.0156 3.84995C10.0956 4.25995 9.83563 4.64995 9.43563 4.73995C5.04563 5.63995 2.16563 9.83995 2.89563 14.31C3.45563 17.77 6.26563 20.58 9.72563 21.14C14.2156 21.86 18.4056 18.97 19.2956 14.56C19.3756 14.15 19.7756 13.89 20.1756 13.97C20.5856 14.05 20.8456 14.45 20.7656 14.85C19.8156 19.52 15.7356 22.75 11.0856 22.75Z" fill="#171717"/>
</svg>
