<svg width="25" height="24" viewBox="0 0 25 24" fill="none" xmlns="http://www.w3.org/2000/svg">
<path d="M8.06567 10.14V11.3H11.3257V8.05005H10.1657C9.00567 8.05005 8.06567 8.99005 8.06567 10.14Z" fill="#171717"/>
<path d="M8.06567 13.86C8.06567 15.01 9.00567 15.95 10.1557 15.95H11.3157V12.7H8.06567V13.86Z" fill="#171717"/>
<path d="M12.7156 15.95H13.8756C15.0256 15.95 15.9656 15.01 15.9656 13.86V12.7H12.7156V15.95Z" fill="#171717"/>
<path d="M16.2056 2H7.82562C4.18562 2 2.01562 4.17 2.01562 7.81V16.18C2.01562 19.83 4.18562 22 7.82562 22H16.1956C19.8356 22 22.0056 19.83 22.0056 16.19V7.81C22.0156 4.17 19.8456 2 16.2056 2ZM17.3656 13.86C17.3656 15.78 15.7956 17.35 13.8756 17.35H10.1556C8.23563 17.35 6.66563 15.79 6.66563 13.86V10.14C6.66563 8.22 8.23563 6.65 10.1556 6.65H13.8756C15.7956 6.65 17.3656 8.21 17.3656 10.14V13.86Z" fill="#171717"/>
<path d="M13.8756 8.05005H12.7156V11.31H15.9756V10.15C15.9656 8.99005 15.0256 8.05005 13.8756 8.05005Z" fill="#171717"/>
</svg>
