<svg width="25" height="24" viewBox="0 0 25 24" fill="none" xmlns="http://www.w3.org/2000/svg">
<path d="M15.0156 22.75H9.01562C3.58563 22.75 1.26562 20.43 1.26562 15V9C1.26562 3.57 3.58563 1.25 9.01562 1.25H15.0156C20.4456 1.25 22.7656 3.57 22.7656 9V15C22.7656 20.43 20.4456 22.75 15.0156 22.75ZM9.01562 2.75C4.40562 2.75 2.76562 4.39 2.76562 9V15C2.76562 19.61 4.40562 21.25 9.01562 21.25H15.0156C19.6256 21.25 21.2656 19.61 21.2656 15V9C21.2656 4.39 19.6256 2.75 15.0156 2.75H9.01562Z" fill="#171717"/>
<path d="M14.0156 17.75H10.0156C7.94563 17.75 6.26562 16.07 6.26562 14V10C6.26562 7.93 7.94563 6.25 10.0156 6.25H14.0156C16.0856 6.25 17.7656 7.93 17.7656 10V14C17.7656 16.07 16.0856 17.75 14.0156 17.75ZM10.0156 7.75C8.77562 7.75 7.76562 8.76 7.76562 10V14C7.76562 15.24 8.77562 16.25 10.0156 16.25H14.0156C15.2556 16.25 16.2656 15.24 16.2656 14V10C16.2656 8.76 15.2556 7.75 14.0156 7.75H10.0156Z" fill="#171717"/>
<path d="M12.0156 17.75C11.6056 17.75 11.2656 17.41 11.2656 17V7C11.2656 6.59 11.6056 6.25 12.0156 6.25C12.4256 6.25 12.7656 6.59 12.7656 7V17C12.7656 17.41 12.4256 17.75 12.0156 17.75Z" fill="#171717"/>
<path d="M17.0156 12.75H7.01562C6.60563 12.75 6.26562 12.41 6.26562 12C6.26562 11.59 6.60563 11.25 7.01562 11.25H17.0156C17.4256 11.25 17.7656 11.59 17.7656 12C17.7656 12.41 17.4256 12.75 17.0156 12.75Z" fill="#171717"/>
</svg>
