<svg width="25" height="24" viewBox="0 0 25 24" fill="none" xmlns="http://www.w3.org/2000/svg">
<path opacity="0.4" d="M16.2056 2H7.82562C4.18562 2 2.01562 4.17 2.01562 7.81V16.18C2.01562 19.83 4.18562 22 7.82562 22H16.1956C19.8356 22 22.0056 19.83 22.0056 16.19V7.81C22.0156 4.17 19.8456 2 16.2056 2Z" fill="#171717"/>
<path d="M13.8756 6.65002H10.1556C8.23565 6.65002 6.66565 8.21002 6.66565 10.14V13.86C6.66565 15.78 8.23565 17.35 10.1556 17.35H13.8756C15.7956 17.35 17.3657 15.79 17.3657 13.86V10.14C17.3657 8.22002 15.7956 6.65002 13.8756 6.65002ZM15.9656 10.14V11.3H12.7156V8.05002H13.8756C15.0256 8.05002 15.9656 8.99002 15.9656 10.14ZM10.1556 8.05002H11.3156V11.31H8.06565V10.15C8.06565 8.99002 9.00565 8.05002 10.1556 8.05002ZM8.06565 13.86V12.7H11.3256V15.96H10.1656C9.00565 15.95 8.06565 15.01 8.06565 13.86ZM13.8756 15.95H12.7156V12.7H15.9756V13.86C15.9656 15.01 15.0256 15.95 13.8756 15.95Z" fill="#171717"/>
</svg>
