<svg width="25" height="24" viewBox="0 0 25 24" fill="none" xmlns="http://www.w3.org/2000/svg">
<path d="M14.9856 22.75H8.9856C3.5556 22.75 1.2356 20.43 1.2356 15V9C1.2356 3.57 3.5556 1.25 8.9856 1.25H14.9856C20.4156 1.25 22.7356 3.57 22.7356 9V15C22.7356 20.43 20.4256 22.75 14.9856 22.75ZM8.9856 2.75C4.3756 2.75 2.7356 4.39 2.7356 9V15C2.7356 19.61 4.3756 21.25 8.9856 21.25H14.9856C19.5956 21.25 21.2356 19.61 21.2356 15V9C21.2356 4.39 19.5956 2.75 14.9856 2.75H8.9856Z" fill="#171717"/>
<path d="M11.4656 18.06C11.2256 18.06 10.6456 17.97 10.3056 17.1L9.16562 14.22C9.00562 13.81 8.43562 13.43 8.00562 13.43L2.00562 13.45C1.59562 13.45 1.25562 13.12 1.25562 12.7C1.25562 12.29 1.58562 11.95 2.00562 11.95L8.00562 11.93H8.01562C9.06562 11.93 10.1856 12.69 10.5756 13.67L11.4856 15.97L13.5456 10.75C13.8556 9.97001 14.4056 9.86001 14.6356 9.84001C14.8656 9.83001 15.4256 9.88001 15.8156 10.62L16.8556 12.59C17.0356 12.93 17.5756 13.26 17.9656 13.26H22.0256C22.4356 13.26 22.7756 13.6 22.7756 14.01C22.7756 14.42 22.4356 14.76 22.0256 14.76H17.9656C17.0156 14.76 15.9756 14.13 15.5356 13.29L14.7556 11.81L12.6556 17.1C12.2856 17.96 11.6956 18.06 11.4656 18.06Z" fill="#171717"/>
</svg>
