<svg width="25" height="24" viewBox="0 0 25 24" fill="none" xmlns="http://www.w3.org/2000/svg">
<path d="M17.8056 22.74H6.22563C3.48563 22.74 1.26562 20.51 1.26562 17.77V10.36C1.26562 8.99996 2.10563 7.28996 3.18563 6.44996L8.57563 2.24996C10.1956 0.989964 12.7856 0.929964 14.4656 2.10996L20.6456 6.43996C21.8356 7.26996 22.7656 9.04996 22.7656 10.5V17.78C22.7656 20.51 20.5456 22.74 17.8056 22.74ZM9.49562 3.42996L4.10563 7.62996C3.39563 8.18996 2.76562 9.45996 2.76562 10.36V17.77C2.76562 19.68 4.31563 21.24 6.22563 21.24H17.8056C19.7156 21.24 21.2656 19.69 21.2656 17.78V10.5C21.2656 9.53996 20.5756 8.20996 19.7856 7.66996L13.6056 3.33996C12.4656 2.53996 10.5856 2.57996 9.49562 3.42996Z" fill="#171717"/>
<path d="M7.51557 17.2499C7.32557 17.2499 7.13557 17.1799 6.98557 17.0299C6.69557 16.7399 6.69557 16.2599 6.98557 15.9699L10.1856 12.7699C10.3456 12.6099 10.5556 12.5299 10.7856 12.5499C11.0056 12.5699 11.2056 12.6899 11.3356 12.8799L12.4256 14.5199L15.9756 10.9699C16.2656 10.6799 16.7456 10.6799 17.0356 10.9699C17.3256 11.2599 17.3256 11.7399 17.0356 12.0299L12.8356 16.2299C12.6756 16.3899 12.4656 16.4699 12.2356 16.4499C12.0156 16.4299 11.8156 16.3099 11.6856 16.1199L10.5956 14.4799L8.04557 17.0299C7.89557 17.1799 7.70557 17.2499 7.51557 17.2499Z" fill="#171717"/>
<path d="M16.5156 14.25C16.1056 14.25 15.7656 13.91 15.7656 13.5V12.25H14.5156C14.1056 12.25 13.7656 11.91 13.7656 11.5C13.7656 11.09 14.1056 10.75 14.5156 10.75H16.5156C16.9256 10.75 17.2656 11.09 17.2656 11.5V13.5C17.2656 13.91 16.9256 14.25 16.5156 14.25Z" fill="#171717"/>
</svg>
