<svg width="25" height="24" viewBox="0 0 25 24" fill="none" xmlns="http://www.w3.org/2000/svg">
<path d="M17.8056 22.74H6.22563C3.48563 22.74 1.26562 20.51 1.26562 17.77V10.36C1.26562 8.99996 2.10563 7.28996 3.18563 6.44996L8.57563 2.24996C10.1956 0.989964 12.7856 0.929964 14.4656 2.10996L20.6456 6.43996C21.8356 7.26996 22.7656 9.04996 22.7656 10.5V17.78C22.7656 20.51 20.5456 22.74 17.8056 22.74ZM9.49562 3.42996L4.10563 7.62996C3.39563 8.18996 2.76562 9.45996 2.76562 10.36V17.77C2.76562 19.68 4.31563 21.24 6.22563 21.24H17.8056C19.7156 21.24 21.2656 19.69 21.2656 17.78V10.5C21.2656 9.53996 20.5756 8.20996 19.7856 7.66996L13.6056 3.33996C12.4656 2.53996 10.5856 2.57996 9.49562 3.42996Z" fill="#171717"/>
<path d="M16.5156 17.2499C16.3256 17.2499 16.1356 17.1799 15.9856 17.0299L12.4356 13.4799L11.3456 15.1199C11.2256 15.3099 11.0156 15.4299 10.7956 15.4499C10.5656 15.4699 10.3456 15.3899 10.1956 15.2299L6.99558 12.0299C6.70558 11.7399 6.70558 11.2599 6.99558 10.9699C7.28558 10.6799 7.76558 10.6799 8.05558 10.9699L10.6056 13.5199L11.6956 11.8799C11.8156 11.6899 12.0256 11.5699 12.2456 11.5499C12.4756 11.5299 12.6956 11.6099 12.8456 11.7699L17.0456 15.9699C17.3356 16.2599 17.3356 16.7399 17.0456 17.0299C16.8956 17.1799 16.7056 17.2499 16.5156 17.2499Z" fill="#171717"/>
<path d="M16.5156 17.25H14.5156C14.1056 17.25 13.7656 16.91 13.7656 16.5C13.7656 16.09 14.1056 15.75 14.5156 15.75H15.7656V14.5C15.7656 14.09 16.1056 13.75 16.5156 13.75C16.9256 13.75 17.2656 14.09 17.2656 14.5V16.5C17.2656 16.91 16.9256 17.25 16.5156 17.25Z" fill="#171717"/>
</svg>
