<svg width="25" height="24" viewBox="0 0 25 24" fill="none" xmlns="http://www.w3.org/2000/svg">
<path opacity="0.4" d="M20.0456 6.82006L14.2956 2.79006C12.7256 1.69006 10.3256 1.75006 8.81563 2.92006L3.80562 6.83006C2.79562 7.61006 2.01562 9.21006 2.01562 10.4701V17.3701C2.01562 19.9201 4.08563 22.0001 6.62563 22.0001H17.3956C19.9356 22.0001 22.0056 19.9301 22.0056 17.3801V10.6001C22.0156 9.25006 21.1456 7.59006 20.0456 6.82006Z" fill="#171717"/>
<path d="M13.4156 8.51001H10.6156C8.69561 8.51001 7.12561 10.07 7.12561 12V14.79C7.12561 16.71 8.69561 18.28 10.6156 18.28H13.4056C15.3256 18.28 16.8956 16.72 16.8956 14.79V12C16.8956 10.08 15.3356 8.51001 13.4156 8.51001ZM15.5056 12V12.7H12.7156V9.91001H13.4156C14.5656 9.91001 15.5056 10.85 15.5056 12ZM10.6156 9.91001H11.3156V12.7H8.52561V12C8.52561 10.85 9.46561 9.91001 10.6156 9.91001ZM8.52561 14.79V14.09H11.3156V16.88H10.6156C9.46561 16.88 8.52561 15.94 8.52561 14.79ZM13.4156 16.88H12.7156V14.09H15.5056V14.79C15.5056 15.94 14.5656 16.88 13.4156 16.88Z" fill="#171717"/>
</svg>
