<svg width="25" height="24" viewBox="0 0 25 24" fill="none" xmlns="http://www.w3.org/2000/svg">
<path d="M17.8056 22.74H6.22563C3.48563 22.74 1.26562 20.51 1.26562 17.77V10.36C1.26562 8.99996 2.10563 7.28996 3.18563 6.44996L8.57563 2.24996C10.1956 0.989964 12.7856 0.929964 14.4656 2.10996L20.6456 6.43996C21.8356 7.26996 22.7656 9.04996 22.7656 10.5V17.78C22.7656 20.51 20.5456 22.74 17.8056 22.74ZM9.49562 3.42996L4.10563 7.62996C3.39563 8.18996 2.76562 9.45996 2.76562 10.36V17.77C2.76562 19.68 4.31563 21.24 6.22563 21.24H17.8056C19.7156 21.24 21.2656 19.69 21.2656 17.78V10.5C21.2656 9.53996 20.5756 8.20996 19.7856 7.66996L13.6056 3.33996C12.4656 2.53996 10.5856 2.57996 9.49562 3.42996Z" fill="#171717"/>
<path d="M13.5156 18.75H10.5156C8.44563 18.75 6.76562 17.07 6.76562 15V12C6.76562 9.93 8.44563 8.25 10.5156 8.25H13.5156C15.5856 8.25 17.2656 9.93 17.2656 12V15C17.2656 17.07 15.5856 18.75 13.5156 18.75ZM10.5156 9.75C9.27562 9.75 8.26562 10.76 8.26562 12V15C8.26562 16.24 9.27562 17.25 10.5156 17.25H13.5156C14.7556 17.25 15.7656 16.24 15.7656 15V12C15.7656 10.76 14.7556 9.75 13.5156 9.75H10.5156Z" fill="#171717"/>
<path d="M12.0156 18.75C11.6056 18.75 11.2656 18.41 11.2656 18V9C11.2656 8.59 11.6056 8.25 12.0156 8.25C12.4256 8.25 12.7656 8.59 12.7656 9V18C12.7656 18.41 12.4256 18.75 12.0156 18.75Z" fill="#171717"/>
<path d="M16.5156 14.25H7.51562C7.10563 14.25 6.76562 13.91 6.76562 13.5C6.76562 13.09 7.10563 12.75 7.51562 12.75H16.5156C16.9256 12.75 17.2656 13.09 17.2656 13.5C17.2656 13.91 16.9256 14.25 16.5156 14.25Z" fill="#171717"/>
</svg>
