<svg width="25" height="24" viewBox="0 0 25 24" fill="none" xmlns="http://www.w3.org/2000/svg">
<path opacity="0.4" d="M20.0556 6.82006L14.2956 2.79006C12.7256 1.69006 10.3156 1.75006 8.80562 2.92006L3.79562 6.83006C2.79562 7.61006 2.00562 9.21006 2.00562 10.4701V17.3701C2.00562 19.9201 4.07562 22.0001 6.62562 22.0001H17.4056C19.9556 22.0001 22.0256 19.9301 22.0256 17.3801V10.6001C22.0256 9.25006 21.1556 7.59006 20.0556 6.82006Z" fill="#171717"/>
<path d="M16.8456 11.2701C16.7756 11.1001 16.6356 10.9601 16.4656 10.8901C16.3756 10.8501 16.2856 10.8401 16.1956 10.8401H14.3356C13.9456 10.8401 13.6356 11.1501 13.6356 11.5401C13.6356 11.9301 13.9456 12.2401 14.3356 12.2401H14.5156L12.4056 14.3501L11.3856 12.8301C11.2656 12.6601 11.0856 12.5401 10.8756 12.5201C10.6556 12.5001 10.4656 12.5701 10.3156 12.7201L7.33556 15.7001C7.06556 15.9701 7.06556 16.4101 7.33556 16.6901C7.47556 16.8301 7.64556 16.8901 7.82556 16.8901C8.00556 16.8901 8.18556 16.8201 8.31556 16.6901L10.6956 14.3101L11.7156 15.8301C11.8356 16.0001 12.0156 16.1201 12.2256 16.1401C12.4456 16.1601 12.6356 16.0901 12.7856 15.9401L15.5056 13.2201V13.4001C15.5056 13.7901 15.8156 14.1001 16.2056 14.1001C16.5956 14.1001 16.9056 13.7901 16.9056 13.4001V11.5401C16.8956 11.4401 16.8856 11.3501 16.8456 11.2701Z" fill="#171717"/>
</svg>
