<svg width="25" height="24" viewBox="0 0 25 24" fill="none" xmlns="http://www.w3.org/2000/svg">
<path opacity="0.4" d="M20.0556 6.82006L14.2956 2.79006C12.7256 1.69006 10.3156 1.75006 8.80562 2.92006L3.79562 6.83006C2.79562 7.61006 2.00562 9.21006 2.00562 10.4701V17.3701C2.00562 19.9201 4.07562 22.0001 6.62562 22.0001H17.4056C19.9556 22.0001 22.0256 19.9301 22.0256 17.3801V10.6001C22.0256 9.25006 21.1556 7.59006 20.0556 6.82006Z" fill="#171717"/>
<path d="M16.8957 14.33C16.8957 13.94 16.5857 13.63 16.1957 13.63C15.8057 13.63 15.4957 13.94 15.4957 14.33V14.51L12.7757 11.79C12.6257 11.64 12.4257 11.57 12.2157 11.59C12.0057 11.61 11.8157 11.72 11.7057 11.9L10.6857 13.42L8.30566 11.04C8.03566 10.77 7.59566 10.77 7.31566 11.04C7.04566 11.31 7.04566 11.75 7.31566 12.03L10.2957 15.01C10.4457 15.16 10.6457 15.23 10.8557 15.21C11.0657 15.19 11.2557 15.08 11.3657 14.9L12.3857 13.38L14.4957 15.49H14.3157C13.9257 15.49 13.6157 15.8 13.6157 16.19C13.6157 16.58 13.9257 16.89 14.3157 16.89H16.1757C16.2657 16.89 16.3557 16.87 16.4457 16.84C16.6157 16.77 16.7557 16.63 16.8257 16.46C16.8657 16.37 16.8757 16.28 16.8757 16.19V14.33H16.8957Z" fill="#171717"/>
</svg>
