<svg width="25" height="24" viewBox="0 0 25 24" fill="none" xmlns="http://www.w3.org/2000/svg">
<path d="M17.0156 21H7.01562C3.01562 21 2.01562 20 2.01562 16V8C2.01562 4 3.01562 3 7.01562 3H17.0156C21.0156 3 22.0156 4 22.0156 8V16C22.0156 20 21.0156 21 17.0156 21Z" stroke="#171717" stroke-width="1.5" stroke-linecap="round" stroke-linejoin="round"/>
<g opacity="0.4">
<path d="M14.0156 8H19.0156" stroke="#171717" stroke-width="1.5" stroke-linecap="round" stroke-linejoin="round"/>
<path d="M15.0156 12H19.0156" stroke="#171717" stroke-width="1.5" stroke-linecap="round" stroke-linejoin="round"/>
<path d="M17.0156 16H19.0156" stroke="#171717" stroke-width="1.5" stroke-linecap="round" stroke-linejoin="round"/>
<path d="M8.51605 11.2899C9.51569 11.2899 10.3261 10.4796 10.3261 9.47992C10.3261 8.48029 9.51569 7.66992 8.51605 7.66992C7.51642 7.66992 6.70605 8.48029 6.70605 9.47992C6.70605 10.4796 7.51642 11.2899 8.51605 11.2899Z" stroke="#171717" stroke-width="1.5" stroke-linecap="round" stroke-linejoin="round"/>
<path d="M12.0156 16.3298C11.8756 14.8798 10.7256 13.7398 9.27563 13.6098C8.77563 13.5598 8.26562 13.5598 7.75562 13.6098C6.30562 13.7498 5.15563 14.8798 5.01562 16.3298" stroke="#171717" stroke-width="1.5" stroke-linecap="round" stroke-linejoin="round"/>
</g>
</svg>
