<svg width="25" height="24" viewBox="0 0 25 24" fill="none" xmlns="http://www.w3.org/2000/svg">
<path opacity="0.4" d="M18.0156 3H6.01562C3.80562 3 2.01562 4.78 2.01562 6.97V17.03C2.01562 19.22 3.80562 21 6.01562 21H18.0156C20.2256 21 22.0156 19.22 22.0156 17.03V6.97C22.0156 4.78 20.2256 3 18.0156 3Z" fill="#171717"/>
<path d="M19.0156 8.75H14.0156C13.6056 8.75 13.2656 8.41 13.2656 8C13.2656 7.59 13.6056 7.25 14.0156 7.25H19.0156C19.4256 7.25 19.7656 7.59 19.7656 8C19.7656 8.41 19.4256 8.75 19.0156 8.75Z" fill="#171717"/>
<path d="M19.0156 12.75H15.0156C14.6056 12.75 14.2656 12.41 14.2656 12C14.2656 11.59 14.6056 11.25 15.0156 11.25H19.0156C19.4256 11.25 19.7656 11.59 19.7656 12C19.7656 12.41 19.4256 12.75 19.0156 12.75Z" fill="#171717"/>
<path d="M19.0156 16.75H17.0156C16.6056 16.75 16.2656 16.41 16.2656 16C16.2656 15.59 16.6056 15.25 17.0156 15.25H19.0156C19.4256 15.25 19.7656 15.59 19.7656 16C19.7656 16.41 19.4256 16.75 19.0156 16.75Z" fill="#171717"/>
<path d="M8.51557 11.79C9.79134 11.79 10.8256 10.7558 10.8256 9.48004C10.8256 8.20427 9.79134 7.17004 8.51557 7.17004C7.23979 7.17004 6.20557 8.20427 6.20557 9.48004C6.20557 10.7558 7.23979 11.79 8.51557 11.79Z" fill="#171717"/>
<path d="M9.31565 13.11C8.78565 13.06 8.23565 13.06 7.70565 13.11C6.02565 13.27 4.67565 14.6 4.51565 16.28C4.50565 16.42 4.54565 16.56 4.64565 16.66C4.74565 16.76 4.87565 16.83 5.01565 16.83H12.0157C12.1557 16.83 12.2957 16.77 12.3857 16.67C12.4757 16.57 12.5257 16.43 12.5157 16.29C12.3457 14.6 11.0057 13.27 9.31565 13.11Z" fill="#171717"/>
</svg>
