<svg width="25" height="24" viewBox="0 0 25 24" fill="none" xmlns="http://www.w3.org/2000/svg">
<path d="M17.0156 21.75H7.01562C2.60563 21.75 1.26562 20.41 1.26562 16V8C1.26562 3.59 2.60563 2.25 7.01562 2.25H17.0156C21.4256 2.25 22.7656 3.59 22.7656 8V16C22.7656 20.41 21.4256 21.75 17.0156 21.75ZM7.01562 3.75C3.43563 3.75 2.76562 4.43 2.76562 8V16C2.76562 19.57 3.43563 20.25 7.01562 20.25H17.0156C20.5956 20.25 21.2656 19.57 21.2656 16V8C21.2656 4.43 20.5956 3.75 17.0156 3.75H7.01562Z" fill="#171717"/>
<path d="M19.0156 8.75H14.0156C13.6056 8.75 13.2656 8.41 13.2656 8C13.2656 7.59 13.6056 7.25 14.0156 7.25H19.0156C19.4256 7.25 19.7656 7.59 19.7656 8C19.7656 8.41 19.4256 8.75 19.0156 8.75Z" fill="#171717"/>
<path d="M19.0156 12.75H15.0156C14.6056 12.75 14.2656 12.41 14.2656 12C14.2656 11.59 14.6056 11.25 15.0156 11.25H19.0156C19.4256 11.25 19.7656 11.59 19.7656 12C19.7656 12.41 19.4256 12.75 19.0156 12.75Z" fill="#171717"/>
<path d="M19.0156 16.75H17.0156C16.6056 16.75 16.2656 16.41 16.2656 16C16.2656 15.59 16.6056 15.25 17.0156 15.25H19.0156C19.4256 15.25 19.7656 15.59 19.7656 16C19.7656 16.41 19.4256 16.75 19.0156 16.75Z" fill="#171717"/>
<path d="M8.51557 12.04C7.10557 12.04 5.95557 10.89 5.95557 9.48004C5.95557 8.07004 7.10557 6.92004 8.51557 6.92004C9.92557 6.92004 11.0756 8.07004 11.0756 9.48004C11.0756 10.89 9.92557 12.04 8.51557 12.04ZM8.51557 8.42004C7.93557 8.42004 7.45557 8.90004 7.45557 9.48004C7.45557 10.06 7.93557 10.54 8.51557 10.54C9.09557 10.54 9.57557 10.06 9.57557 9.48004C9.57557 8.90004 9.09557 8.42004 8.51557 8.42004Z" fill="#171717"/>
<path d="M12.0157 17.08C11.6357 17.08 11.3057 16.79 11.2657 16.4C11.1557 15.32 10.2857 14.45 9.19565 14.35C8.73565 14.31 8.27565 14.31 7.81565 14.35C6.72565 14.45 5.85565 15.31 5.74565 16.4C5.70565 16.81 5.33565 17.12 4.92565 17.07C4.51565 17.03 4.21565 16.66 4.25565 16.25C4.43565 14.45 5.86565 13.02 7.67565 12.86C8.22565 12.81 8.78565 12.81 9.33565 12.86C11.1357 13.03 12.5757 14.46 12.7557 16.25C12.7957 16.66 12.4957 17.03 12.0857 17.07C12.0657 17.08 12.0357 17.08 12.0157 17.08Z" fill="#171717"/>
</svg>
