<svg width="25" height="24" viewBox="0 0 25 24" fill="none" xmlns="http://www.w3.org/2000/svg">
<path d="M18.1156 17.75H5.91562C3.59562 17.75 2.26562 16.42 2.26562 14.1V2C2.26562 1.59 2.60563 1.25 3.01562 1.25H21.0156C21.4256 1.25 21.7656 1.59 21.7656 2V14.1C21.7656 16.42 20.4356 17.75 18.1156 17.75ZM3.76562 2.75V14.1C3.76562 15.59 4.42562 16.25 5.91562 16.25H18.1056C19.5956 16.25 20.2556 15.59 20.2556 14.1V2.75H3.76562Z" fill="#171717"/>
<path d="M22.0156 2.75H2.01562C1.60563 2.75 1.26562 2.41 1.26562 2C1.26562 1.59 1.60563 1.25 2.01562 1.25H22.0156C22.4256 1.25 22.7656 1.59 22.7656 2C22.7656 2.41 22.4256 2.75 22.0156 2.75Z" fill="#171717"/>
<path d="M8.01589 22.75C7.73589 22.75 7.47588 22.6 7.34588 22.34C7.15588 21.97 7.3059 21.52 7.6859 21.33L11.2659 19.54V17C11.2659 16.59 11.6059 16.25 12.0159 16.25C12.4259 16.25 12.7659 16.59 12.7659 17V20C12.7659 20.28 12.6059 20.54 12.3459 20.67L8.34588 22.67C8.24588 22.72 8.12589 22.75 8.01589 22.75Z" fill="#171717"/>
<path d="M16.0156 22.7499C15.9056 22.7499 15.7856 22.7199 15.6856 22.6699L11.6856 20.6699C11.3156 20.4799 11.1656 20.0299 11.3456 19.6599C11.5356 19.2899 11.9856 19.1399 12.3556 19.3199L16.3556 21.3199C16.7256 21.5099 16.8756 21.9599 16.6956 22.3299C16.5556 22.5999 16.2856 22.7499 16.0156 22.7499Z" fill="#171717"/>
<path d="M7.51555 11.7499C7.30555 11.7499 7.08556 11.6599 6.93556 11.4799C6.66556 11.1599 6.71554 10.6899 7.03554 10.4199L10.1856 7.78994C10.4756 7.54994 10.8455 7.44994 11.1955 7.50994C11.5555 7.56994 11.8656 7.78991 12.0556 8.10991L13.1055 9.85991L16.0355 7.41994C16.3555 7.15994 16.8255 7.19992 17.0955 7.51992C17.3655 7.83992 17.3156 8.30991 16.9956 8.57991L13.8455 11.2099C13.5555 11.4499 13.1856 11.5499 12.8356 11.4899C12.4756 11.4299 12.1655 11.2099 11.9755 10.8899L10.9256 9.13994L7.99556 11.5799C7.85556 11.6899 7.68555 11.7499 7.51555 11.7499Z" fill="#171717"/>
</svg>
