<svg width="25" height="24" viewBox="0 0 25 24" fill="none" xmlns="http://www.w3.org/2000/svg">
<path opacity="0.4" d="M21.0156 2V14.1C21.0156 16 20.0156 17 18.1156 17H5.91562C4.01562 17 3.01562 16 3.01562 14.1V2H21.0156Z" fill="#171717"/>
<path d="M22.0156 2.75H2.01562C1.60563 2.75 1.26562 2.41 1.26562 2C1.26562 1.59 1.60563 1.25 2.01562 1.25H22.0156C22.4256 1.25 22.7656 1.59 22.7656 2C22.7656 2.41 22.4256 2.75 22.0156 2.75Z" fill="#171717"/>
<path d="M16.6857 22.34C16.5557 22.6 16.2856 22.75 16.0156 22.75C15.9056 22.75 15.7857 22.72 15.6857 22.67L12.0156 20.84L8.34563 22.67C8.24563 22.72 8.12565 22.75 8.01565 22.75C7.74565 22.75 7.47563 22.6 7.34563 22.34C7.15563 21.96 7.30566 21.51 7.68566 21.33L11.2656 19.54V17H12.7656V19.54L16.3456 21.33C16.7256 21.51 16.8757 21.96 16.6857 22.34Z" fill="#171717"/>
<path d="M7.51555 11.7499C7.30555 11.7499 7.08556 11.6599 6.93556 11.4799C6.66556 11.1599 6.71554 10.6899 7.03554 10.4199L10.1856 7.78993C10.4756 7.54993 10.8455 7.44994 11.1955 7.50994C11.5555 7.56994 11.8656 7.78991 12.0556 8.10991L13.1055 9.85991L16.0355 7.41994C16.3555 7.14994 16.8255 7.19992 17.0955 7.51992C17.3655 7.83992 17.3156 8.30991 16.9956 8.57991L13.8455 11.2099C13.5555 11.4499 13.1856 11.5499 12.8356 11.4899C12.4756 11.4299 12.1655 11.2099 11.9755 10.8899L10.9256 9.13994L7.99556 11.5799C7.85556 11.6899 7.68555 11.7499 7.51555 11.7499Z" fill="#171717"/>
</svg>
