<svg width="25" height="24" viewBox="0 0 25 24" fill="none" xmlns="http://www.w3.org/2000/svg">
<path opacity="0.4" d="M16.2056 2H7.82562C4.18562 2 2.01562 4.17 2.01562 7.81V16.18C2.01562 19.83 4.18562 22 7.82562 22H16.1956C19.8356 22 22.0056 19.83 22.0056 16.19V7.81C22.0156 4.17 19.8456 2 16.2056 2Z" fill="#171717"/>
<path d="M6.89551 18.9C6.48551 18.9 6.14551 18.56 6.14551 18.15V16.08C6.14551 15.67 6.48551 15.33 6.89551 15.33C7.30551 15.33 7.64551 15.67 7.64551 16.08V18.15C7.64551 18.57 7.30551 18.9 6.89551 18.9Z" fill="#171717"/>
<path d="M12.0156 18.9C11.6056 18.9 11.2656 18.56 11.2656 18.15V14C11.2656 13.59 11.6056 13.25 12.0156 13.25C12.4256 13.25 12.7656 13.59 12.7656 14V18.15C12.7656 18.57 12.4256 18.9 12.0156 18.9Z" fill="#171717"/>
<path d="M17.1357 18.9001C16.7257 18.9001 16.3857 18.5601 16.3857 18.1501V11.9301C16.3857 11.5201 16.7257 11.1801 17.1357 11.1801C17.5457 11.1801 17.8857 11.5201 17.8857 11.9301V18.1501C17.8857 18.5701 17.5557 18.9001 17.1357 18.9001Z" fill="#171717"/>
<path d="M17.8856 5.81998C17.8856 5.76998 17.8656 5.70998 17.8556 5.65998C17.8456 5.61998 17.8356 5.56998 17.8256 5.52998C17.8056 5.48998 17.7756 5.45998 17.7556 5.41998C17.7256 5.37998 17.6956 5.32998 17.6556 5.29998C17.6456 5.28998 17.6456 5.27998 17.6356 5.27998C17.6056 5.25998 17.5756 5.24998 17.5456 5.22998C17.5056 5.19998 17.4556 5.16998 17.4056 5.14998C17.3556 5.12998 17.3056 5.12998 17.2556 5.11998C17.2156 5.10998 17.1856 5.09998 17.1456 5.09998H14.2156C13.8056 5.09998 13.4656 5.43998 13.4656 5.84998C13.4656 6.25998 13.8056 6.59998 14.2156 6.59998H15.4656C13.0856 9.09998 10.0856 10.86 6.71561 11.71C6.31561 11.81 6.06561 12.22 6.16561 12.62C6.24561 12.96 6.55561 13.19 6.89561 13.19C6.95561 13.19 7.01561 13.18 7.07561 13.17C10.6456 12.28 13.8356 10.43 16.3856 7.80998V8.77998C16.3856 9.18998 16.7256 9.52998 17.1356 9.52998C17.5456 9.52998 17.8856 9.18998 17.8856 8.77998V5.84998C17.8856 5.83998 17.8856 5.82998 17.8856 5.81998Z" fill="#171717"/>
</svg>
