<svg width="25" height="24" viewBox="0 0 25 24" fill="none" xmlns="http://www.w3.org/2000/svg">
<path d="M6.89551 18.9C6.48551 18.9 6.14551 18.56 6.14551 18.15V16.08C6.14551 15.67 6.48551 15.33 6.89551 15.33C7.30551 15.33 7.64551 15.67 7.64551 16.08V18.15C7.64551 18.57 7.30551 18.9 6.89551 18.9Z" fill="#171717"/>
<path d="M12.0156 18.9C11.6056 18.9 11.2656 18.56 11.2656 18.15V14C11.2656 13.59 11.6056 13.25 12.0156 13.25C12.4256 13.25 12.7656 13.59 12.7656 14V18.15C12.7656 18.57 12.4256 18.9 12.0156 18.9Z" fill="#171717"/>
<path d="M17.1357 18.9001C16.7257 18.9001 16.3857 18.5601 16.3857 18.1501V11.9301C16.3857 11.5201 16.7257 11.1801 17.1357 11.1801C17.5457 11.1801 17.8857 11.5201 17.8857 11.9301V18.1501C17.8857 18.5701 17.5557 18.9001 17.1357 18.9001Z" fill="#171717"/>
<path d="M6.8957 13.18C6.5557 13.18 6.2557 12.95 6.1657 12.61C6.0657 12.21 6.3057 11.8 6.7157 11.7C10.3957 10.78 13.6357 8.77004 16.1057 5.90004L16.5657 5.36004C16.8357 5.05004 17.3057 5.01004 17.6257 5.28004C17.9357 5.55004 17.9757 6.02004 17.7057 6.34004L17.2457 6.88004C14.5757 10 11.0557 12.17 7.0757 13.16C7.0157 13.18 6.9557 13.18 6.8957 13.18Z" fill="#171717"/>
<path d="M17.1356 9.51998C16.7256 9.51998 16.3856 9.17998 16.3856 8.76998V6.59998H14.2056C13.7956 6.59998 13.4556 6.25998 13.4556 5.84998C13.4556 5.43998 13.7956 5.09998 14.2056 5.09998H17.1356C17.5456 5.09998 17.8856 5.43998 17.8856 5.84998V8.77998C17.8856 9.18998 17.5556 9.51998 17.1356 9.51998Z" fill="#171717"/>
<path d="M15.0156 22.75H9.01562C3.58563 22.75 1.26562 20.43 1.26562 15V9C1.26562 3.57 3.58563 1.25 9.01562 1.25H15.0156C20.4456 1.25 22.7656 3.57 22.7656 9V15C22.7656 20.43 20.4456 22.75 15.0156 22.75ZM9.01562 2.75C4.40562 2.75 2.76562 4.39 2.76562 9V15C2.76562 19.61 4.40562 21.25 9.01562 21.25H15.0156C19.6256 21.25 21.2656 19.61 21.2656 15V9C21.2656 4.39 19.6256 2.75 15.0156 2.75H9.01562Z" fill="#171717"/>
</svg>
