<svg width="25" height="24" viewBox="0 0 25 24" fill="none" xmlns="http://www.w3.org/2000/svg">
<path opacity="0.4" d="M16.2056 2H7.82562C4.18562 2 2.01562 4.17 2.01562 7.81V16.18C2.01562 19.83 4.18562 22 7.82562 22H16.1956C19.8356 22 22.0056 19.83 22.0056 16.19V7.81C22.0156 4.17 19.8456 2 16.2056 2Z" fill="#171717"/>
<path d="M16.8456 9.40998C16.7756 9.23998 16.6356 9.09998 16.4656 9.02998C16.3856 8.99998 16.2956 8.97998 16.2056 8.97998H14.3456C13.9556 8.97998 13.6456 9.28998 13.6456 9.67998C13.6456 10.07 13.9556 10.38 14.3456 10.38H14.5256L12.4156 12.49L11.3956 10.97C11.2756 10.8 11.0956 10.68 10.8856 10.66C10.6656 10.64 10.4756 10.71 10.3256 10.86L7.34557 13.84C7.07557 14.11 7.07557 14.55 7.34557 14.83C7.48557 14.97 7.65557 15.03 7.83557 15.03C8.01557 15.03 8.19557 14.96 8.32557 14.83L10.7056 12.45L11.7256 13.97C11.8456 14.14 12.0256 14.26 12.2356 14.28C12.4556 14.3 12.6456 14.23 12.7956 14.08L15.5156 11.36V11.54C15.5156 11.93 15.8256 12.24 16.2156 12.24C16.6056 12.24 16.9156 11.93 16.9156 11.54V9.66998C16.8956 9.57998 16.8856 9.48998 16.8456 9.40998Z" fill="#171717"/>
</svg>
