<svg width="25" height="24" viewBox="0 0 25 24" fill="none" xmlns="http://www.w3.org/2000/svg">
<path d="M16.5156 15.2499C16.3256 15.2499 16.1356 15.1799 15.9856 15.0299L12.4356 11.4799L11.3456 13.1199C11.2256 13.3099 11.0156 13.4299 10.7956 13.4499C10.5656 13.4699 10.3456 13.3899 10.1956 13.2299L6.99558 10.0299C6.70558 9.73994 6.70558 9.25994 6.99558 8.96994C7.28558 8.67994 7.76558 8.67994 8.05558 8.96994L10.6056 11.5199L11.6956 9.87994C11.8156 9.69994 12.0156 9.57994 12.2456 9.54994C12.4756 9.52994 12.6956 9.60994 12.8456 9.76994L17.0456 13.9699C17.3356 14.2599 17.3356 14.7399 17.0456 15.0299C16.8956 15.1799 16.7056 15.2499 16.5156 15.2499Z" fill="#171717"/>
<path d="M16.5156 15.25H14.5156C14.1056 15.25 13.7656 14.91 13.7656 14.5C13.7656 14.09 14.1056 13.75 14.5156 13.75H15.7656V12.5C15.7656 12.09 16.1056 11.75 16.5156 11.75C16.9256 11.75 17.2656 12.09 17.2656 12.5V14.5C17.2656 14.91 16.9256 15.25 16.5156 15.25Z" fill="#171717"/>
<path d="M15.0156 22.75H9.01562C3.58563 22.75 1.26562 20.43 1.26562 15V9C1.26562 3.57 3.58563 1.25 9.01562 1.25H15.0156C20.4456 1.25 22.7656 3.57 22.7656 9V15C22.7656 20.43 20.4456 22.75 15.0156 22.75ZM9.01562 2.75C4.40562 2.75 2.76562 4.39 2.76562 9V15C2.76562 19.61 4.40562 21.25 9.01562 21.25H15.0156C19.6256 21.25 21.2656 19.61 21.2656 15V9C21.2656 4.39 19.6256 2.75 15.0156 2.75H9.01562Z" fill="#171717"/>
</svg>
