<svg width="25" height="24" viewBox="0 0 25 24" fill="none" xmlns="http://www.w3.org/2000/svg">
<path opacity="0.4" d="M16.2056 2H7.82562C4.18562 2 2.01562 4.17 2.01562 7.81V16.18C2.01562 19.83 4.18562 22 7.82562 22H16.1956C19.8356 22 22.0056 19.83 22.0056 16.19V7.81C22.0156 4.17 19.8456 2 16.2056 2Z" fill="#171717"/>
<path d="M16.8957 12.47C16.8957 12.08 16.5857 11.77 16.1957 11.77C15.8057 11.77 15.4957 12.08 15.4957 12.47V12.65L12.7757 9.93004C12.6257 9.78004 12.4257 9.71004 12.2157 9.73004C12.0057 9.75004 11.8157 9.86004 11.7057 10.04L10.6857 11.56L8.32568 9.18004C8.05568 8.91004 7.61568 8.91004 7.33568 9.18004C7.06568 9.45004 7.06568 9.89004 7.33568 10.17L10.3157 13.15C10.4657 13.3 10.6657 13.37 10.8757 13.35C11.0857 13.33 11.2757 13.22 11.3857 13.04L12.4057 11.52L14.5157 13.63H14.3357C13.9457 13.63 13.6357 13.94 13.6357 14.33C13.6357 14.72 13.9457 15.03 14.3357 15.03H16.1957C16.2857 15.03 16.3757 15.01 16.4657 14.98C16.6357 14.91 16.7757 14.77 16.8457 14.6C16.8857 14.51 16.8957 14.42 16.8957 14.33V12.47Z" fill="#171717"/>
</svg>
