<svg width="25" height="24" viewBox="0 0 25 24" fill="none" xmlns="http://www.w3.org/2000/svg">
<path d="M7.51557 15.2499C7.32557 15.2499 7.13557 15.1799 6.98557 15.0299C6.69557 14.7399 6.69557 14.2599 6.98557 13.9699L10.1856 10.7699C10.3456 10.6099 10.5556 10.5299 10.7856 10.5499C11.0056 10.5699 11.2056 10.6899 11.3356 10.8799L12.4256 12.5199L15.9756 8.96994C16.2656 8.67994 16.7456 8.67994 17.0356 8.96994C17.3256 9.25994 17.3256 9.73994 17.0356 10.0299L12.8356 14.2299C12.6756 14.3899 12.4656 14.4699 12.2356 14.4499C12.0156 14.4299 11.8156 14.3099 11.6856 14.1199L10.5956 12.4799L8.04557 15.0299C7.89557 15.1799 7.70557 15.2499 7.51557 15.2499Z" fill="#171717"/>
<path d="M16.5156 12.25C16.1056 12.25 15.7656 11.91 15.7656 11.5V10.25H14.5156C14.1056 10.25 13.7656 9.91 13.7656 9.5C13.7656 9.09 14.1056 8.75 14.5156 8.75H16.5156C16.9256 8.75 17.2656 9.09 17.2656 9.5V11.5C17.2656 11.91 16.9256 12.25 16.5156 12.25Z" fill="#171717"/>
<path d="M15.0156 22.75H9.01562C3.58563 22.75 1.26562 20.43 1.26562 15V9C1.26562 3.57 3.58563 1.25 9.01562 1.25H15.0156C20.4456 1.25 22.7656 3.57 22.7656 9V15C22.7656 20.43 20.4456 22.75 15.0156 22.75ZM9.01562 2.75C4.40562 2.75 2.76562 4.39 2.76562 9V15C2.76562 19.61 4.40562 21.25 9.01562 21.25H15.0156C19.6256 21.25 21.2656 19.61 21.2656 15V9C21.2656 4.39 19.6256 2.75 15.0156 2.75H9.01562Z" fill="#171717"/>
</svg>
