<svg width="25" height="24" viewBox="0 0 25 24" fill="none" xmlns="http://www.w3.org/2000/svg">
<path opacity="0.4" d="M16.69 2H8.32001C4.68001 2 2.51001 4.17 2.51001 7.81V16.18C2.51001 19.82 4.68001 21.99 8.32001 21.99H16.69C20.33 21.99 22.5 19.82 22.5 16.18V7.81C22.5 4.17 20.33 2 16.69 2Z" fill="#171717"/>
<path d="M16.12 7.09996L13.83 6.34001C13.25 6.14001 12.66 6.21996 12.21 6.53996C11.76 6.85996 11.51 7.39999 11.51 8.00999V8.61998V12.8C11.11 12.58 10.66 12.45 10.17 12.45C8.62998 12.45 7.37 13.71 7.37 15.25C7.37 16.79 8.62998 18.05 10.17 18.05C11.71 18.05 12.97 16.79 12.97 15.25V10.7C12.98 10.71 13 10.71 13.01 10.72L15.3 11.48C15.51 11.55 15.73 11.59 15.94 11.59C16.3 11.59 16.64 11.49 16.92 11.28C17.37 10.96 17.62 10.42 17.62 9.80998V9.2C17.62 8.29 16.98 7.38996 16.12 7.09996ZM10.17 16.59C9.42998 16.59 8.84003 15.99 8.84003 15.26C8.84003 14.52 9.43998 13.92 10.17 13.92C10.91 13.92 11.51 14.52 11.51 15.26C11.51 15.99 10.91 16.59 10.17 16.59Z" fill="#171717"/>
</svg>
