<svg width="25" height="24" viewBox="0 0 25 24" fill="none" xmlns="http://www.w3.org/2000/svg">
<path d="M15.5 22.75H9.5C4.07 22.75 1.75 20.43 1.75 15V9C1.75 3.57 4.07 1.25 9.5 1.25H15.5C20.93 1.25 23.25 3.57 23.25 9V15C23.25 20.43 20.93 22.75 15.5 22.75ZM9.5 2.75C4.89 2.75 3.25 4.39 3.25 9V15C3.25 19.61 4.89 21.25 9.5 21.25H15.5C20.11 21.25 21.75 19.61 21.75 15V9C21.75 4.39 20.11 2.75 15.5 2.75H9.5Z" fill="#171717"/>
<path d="M10.12 18.05C8.54 18.05 7.25 16.7601 7.25 15.1801C7.25 13.6001 8.54 12.3101 10.12 12.3101C11.7 12.3101 12.99 13.6001 12.99 15.1801C12.99 16.7601 11.7 18.05 10.12 18.05ZM10.12 13.8201C9.37 13.8201 8.75 14.4301 8.75 15.1901C8.75 15.9401 9.36 16.5601 10.12 16.5601C10.87 16.5601 11.49 15.9501 11.49 15.1901C11.49 14.4301 10.87 13.8201 10.12 13.8201Z" fill="#171717"/>
<path d="M12.2402 15.93C11.8302 15.93 11.4902 15.59 11.4902 15.18V7.77002C11.4902 7.36002 11.8302 7.02002 12.2402 7.02002C12.6502 7.02002 12.9902 7.36002 12.9902 7.77002V15.18C12.9902 15.6 12.6502 15.93 12.2402 15.93Z" fill="#171717"/>
<path d="M16.0203 11.43C15.8103 11.43 15.5902 11.39 15.3702 11.32L13.0303 10.5399C12.1503 10.2499 11.4902 9.32999 11.4902 8.39999V7.77999C11.4902 7.14999 11.7503 6.59998 12.2103 6.26998C12.6703 5.93998 13.2702 5.85996 13.8702 6.05996L16.2103 6.83999C17.0903 7.12999 17.7502 8.04994 17.7502 8.97994V9.59994C17.7502 10.2299 17.4903 10.7799 17.0303 11.1099C16.7403 11.3199 16.3903 11.43 16.0203 11.43ZM13.2103 7.44997C13.1603 7.44997 13.1103 7.45994 13.0803 7.47994C13.0203 7.51994 12.9802 7.62998 12.9802 7.76998V8.38998C12.9802 8.66998 13.2402 9.01995 13.5002 9.10995L15.8403 9.88998C15.9703 9.92998 16.0903 9.92998 16.1503 9.88998C16.2103 9.84998 16.2502 9.73994 16.2502 9.59994V8.97994C16.2502 8.69994 15.9902 8.34997 15.7302 8.25997L13.3903 7.47994C13.3303 7.45994 13.2603 7.44997 13.2103 7.44997Z" fill="#171717"/>
</svg>
