<svg width="25" height="24" viewBox="0 0 25 24" fill="none" xmlns="http://www.w3.org/2000/svg">
<path d="M14.9299 16.92H12.6399C12.2299 16.92 11.8899 16.58 11.8899 16.17C11.8899 15.76 12.2299 15.42 12.6399 15.42H14.9299C15.3599 15.42 15.71 15.0701 15.71 14.6401C15.71 14.2101 15.3599 13.86 14.9299 13.86H12.6399C12.3999 13.86 12.17 13.74 12.03 13.55C11.89 13.36 11.8499 13.1001 11.9299 12.8701L12.6899 10.5801C12.7899 10.2701 13.08 10.0701 13.4 10.0701H16.46C16.87 10.0701 17.21 10.4101 17.21 10.8201C17.21 11.2301 16.87 11.5701 16.46 11.5701H13.9399L13.6799 12.36H14.9299C16.1899 12.36 17.21 13.3801 17.21 14.6401C17.21 15.9001 16.1799 16.92 14.9299 16.92Z" fill="#171717"/>
<path d="M10.04 16.9201C9.63004 16.9201 9.29004 16.5801 9.29004 16.1701V12.7801L9.10003 13.0001C8.82003 13.3101 8.35004 13.3301 8.04004 13.0601C7.73004 12.7801 7.71004 12.3101 7.98004 12.0001L9.48004 10.3301C9.69004 10.1001 10.0201 10.0201 10.3101 10.1301C10.6001 10.2401 10.79 10.5201 10.79 10.8301V16.1801C10.79 16.5901 10.46 16.9201 10.04 16.9201Z" fill="#171717"/>
<path opacity="0.4" d="M12.5001 3.47994C12.4201 3.47994 12.3401 3.48995 12.2601 3.48995L13.0801 2.46993C13.3401 2.14993 13.2901 1.66994 12.9601 1.41994C12.6301 1.16994 12.17 1.20994 11.91 1.53994L9.93005 4.00997C9.92005 4.01997 9.92003 4.03995 9.91003 4.04995C9.88003 4.08995 9.86009 4.13996 9.84009 4.18996C9.82009 4.22996 9.80004 4.26997 9.79004 4.31997C9.78004 4.36997 9.78009 4.40998 9.78009 4.45998C9.78009 4.50998 9.78009 4.55994 9.78009 4.60994C9.78009 4.62994 9.78009 4.63993 9.78009 4.65993C9.79009 4.68993 9.81007 4.71996 9.82007 4.74996C9.84007 4.79996 9.86007 4.83997 9.88007 4.88997C9.91007 4.92997 9.94004 4.96996 9.98004 4.99996C10 5.01996 10.02 5.04997 10.04 5.07997C10.05 5.08997 10.0701 5.08993 10.0801 5.09993C10.1101 5.11993 10.14 5.12998 10.17 5.14998C10.22 5.17998 10.2801 5.19998 10.3301 5.20998C10.3601 5.21998 10.3901 5.21994 10.4301 5.22994C10.4601 5.22994 10.4801 5.23995 10.5101 5.23995C10.5401 5.23995 10.5601 5.22993 10.5801 5.21993C10.6101 5.21993 10.64 5.22993 10.67 5.21993C11.31 5.06993 11.91 4.99996 12.48 4.99996C16.97 4.99996 20.6201 8.64997 20.6201 13.14C20.6201 17.63 16.97 21.28 12.48 21.28C7.99004 21.28 4.34009 17.63 4.34009 13.14C4.34009 11.4 4.91005 9.71999 5.99005 8.27999C6.24005 7.94999 6.17009 7.47994 5.84009 7.22994C5.51009 6.97994 5.04004 7.04996 4.79004 7.37996C3.51004 9.07996 2.84009 11.07 2.84009 13.14C2.84009 18.45 7.16004 22.78 12.48 22.78C17.8 22.78 22.1201 18.46 22.1201 13.14C22.1201 7.81997 17.8101 3.47994 12.5001 3.47994Z" fill="#171717"/>
</svg>
