<svg width="25" height="24" viewBox="0 0 25 24" fill="none" xmlns="http://www.w3.org/2000/svg">
<path d="M12.8801 16.92H10.5901C10.1801 16.92 9.84012 16.58 9.84012 16.17C9.84012 15.76 10.1801 15.42 10.5901 15.42H12.8801C13.3101 15.42 13.6601 15.0701 13.6601 14.6401C13.6601 14.2101 13.3101 13.86 12.8801 13.86H10.5901C10.3501 13.86 10.1201 13.74 9.98013 13.55C9.84013 13.36 9.80013 13.1001 9.88013 12.8701L10.6401 10.5801C10.7401 10.2701 11.0301 10.0701 11.3501 10.0701H14.4101C14.8201 10.0701 15.1601 10.4101 15.1601 10.8201C15.1601 11.2301 14.8201 11.5701 14.4101 11.5701H11.8901L11.6301 12.36H12.8801C14.1401 12.36 15.1601 13.3801 15.1601 14.6401C15.1601 15.9001 14.1401 16.92 12.8801 16.92Z" fill="#171717"/>
<path d="M10.52 5.21993C10.35 5.21993 10.19 5.16995 10.05 5.04995C9.72997 4.78995 9.67998 4.31996 9.92998 3.99996L11.91 1.52999C12.17 1.20999 12.64 1.15993 12.96 1.40993C13.28 1.66993 13.33 2.13998 13.08 2.45998L11.1 4.92995C10.96 5.11995 10.74 5.21993 10.52 5.21993Z" fill="#171717"/>
<path d="M12.4999 22.75C7.18988 22.75 2.85986 18.43 2.85986 13.11C2.85986 11.04 3.52988 9.04998 4.80988 7.34998C5.05988 7.01998 5.52986 6.95001 5.85986 7.20001C6.18986 7.45001 6.25989 7.92 6.00989 8.25C4.92989 9.69 4.35986 11.37 4.35986 13.11C4.35986 17.6 8.00988 21.25 12.4999 21.25C16.9899 21.25 20.6399 17.6 20.6399 13.11C20.6399 8.61999 16.9899 4.96997 12.4999 4.96997C11.9199 4.96997 11.3299 5.04 10.6899 5.19C10.2899 5.28 9.87989 5.03 9.78989 4.63C9.69989 4.23 9.94988 3.81998 10.3499 3.72998C11.0999 3.55998 11.8099 3.46997 12.4999 3.46997C17.8099 3.46997 22.1399 7.78999 22.1399 13.11C22.1399 18.43 17.8099 22.75 12.4999 22.75Z" fill="#171717"/>
</svg>
