<svg width="25" height="24" viewBox="0 0 25 24" fill="none" xmlns="http://www.w3.org/2000/svg">
<path d="M14.9299 16.92H12.6399C12.2299 16.92 11.8899 16.58 11.8899 16.17C11.8899 15.76 12.2299 15.42 12.6399 15.42H14.9299C15.3599 15.42 15.71 15.0701 15.71 14.6401C15.71 14.2101 15.3599 13.86 14.9299 13.86H12.6399C12.3999 13.86 12.17 13.74 12.03 13.55C11.89 13.36 11.8499 13.1001 11.9299 12.8701L12.6899 10.5801C12.7899 10.2701 13.08 10.0701 13.4 10.0701H16.46C16.87 10.0701 17.21 10.4101 17.21 10.8201C17.21 11.2301 16.87 11.5701 16.46 11.5701H13.9399L13.6799 12.36H14.9299C16.1899 12.36 17.21 13.3801 17.21 14.6401C17.21 15.9001 16.1799 16.92 14.9299 16.92Z" fill="#171717"/>
<path d="M10.04 16.9201C9.63004 16.9201 9.29004 16.5801 9.29004 16.1701V12.7801L9.10003 13.0001C8.82003 13.3101 8.35004 13.3301 8.04004 13.0601C7.73004 12.7801 7.71004 12.3101 7.98004 12.0001L9.48004 10.3301C9.69004 10.1001 10.0201 10.0201 10.3101 10.1301C10.6001 10.2401 10.79 10.5201 10.79 10.8301V16.1801C10.79 16.5901 10.46 16.9201 10.04 16.9201Z" fill="#171717"/>
<path d="M10.52 5.21993C10.35 5.21993 10.19 5.16995 10.05 5.04995C9.72997 4.78995 9.67998 4.31996 9.92998 3.99996L11.91 1.52999C12.17 1.20999 12.64 1.15993 12.96 1.40993C13.28 1.65993 13.33 2.13998 13.08 2.45998L11.1 4.92995C10.96 5.11995 10.74 5.21993 10.52 5.21993Z" fill="#171717"/>
<path d="M12.4999 22.75C7.18988 22.75 2.85986 18.43 2.85986 13.11C2.85986 11.04 3.52988 9.04998 4.80988 7.34998C5.05988 7.01998 5.52986 6.95001 5.85986 7.20001C6.18986 7.45001 6.25989 7.92 6.00989 8.25C4.92989 9.69 4.35986 11.37 4.35986 13.11C4.35986 17.6 8.00988 21.25 12.4999 21.25C16.9899 21.25 20.6399 17.6 20.6399 13.11C20.6399 8.61999 16.9899 4.96997 12.4999 4.96997C11.9199 4.96997 11.3299 5.04 10.6899 5.19C10.2799 5.28 9.87986 5.03 9.78986 4.63C9.69986 4.23 9.94985 3.81998 10.3499 3.72998C11.0999 3.55998 11.8099 3.46997 12.4999 3.46997C17.8099 3.46997 22.1399 7.78999 22.1399 13.11C22.1399 18.43 17.8099 22.75 12.4999 22.75Z" fill="#171717"/>
</svg>
