<svg width="25" height="24" viewBox="0 0 25 24" fill="none" xmlns="http://www.w3.org/2000/svg">
<path d="M20.55 18.3601C20.09 18.3601 19.62 18.2401 19.2 17.9901L12.86 14.3301C12.57 14.1601 12.34 13.9601 12.17 13.7401C12.06 13.6101 12 13.4401 12 13.2701V10.7101C12 10.5401 12.06 10.3701 12.17 10.2401C12.35 10.0201 12.58 9.82007 12.86 9.66007L19.21 5.99006C20.05 5.50006 21.06 5.50006 21.91 5.99006C22.76 6.48006 23.26 7.35005 23.26 8.33005V15.6501C23.26 16.6301 22.76 17.5001 21.91 17.9901C21.48 18.2401 21.01 18.3601 20.55 18.3601ZM13.49 12.9601C13.53 12.9901 13.57 13.0201 13.61 13.0401L19.94 16.6901C20.32 16.9101 20.77 16.9101 21.14 16.6901C21.52 16.4701 21.74 16.0801 21.74 15.6501V8.33005C21.74 7.90005 21.52 7.51008 21.14 7.29008C20.76 7.07008 20.32 7.07008 19.94 7.29008L13.6 10.9501C13.56 10.9701 13.52 11.0001 13.49 11.0301V12.9601Z" fill="#171717"/>
<path d="M10.79 18.3601C10.33 18.3601 9.86 18.2401 9.44 17.9901L3.10001 14.3301C2.26001 13.8401 1.75 12.9701 1.75 11.9901C1.75 11.0101 2.25001 10.1401 3.10001 9.65006L9.44 5.99006C10.28 5.50006 11.29 5.50006 12.14 5.99006C12.99 6.48006 13.49 7.35005 13.49 8.33005V15.6501C13.49 16.6301 12.99 17.5001 12.14 17.9901C11.72 18.2401 11.25 18.3601 10.79 18.3601ZM10.79 7.14008C10.58 7.14008 10.38 7.19006 10.19 7.30006L3.85001 10.9601C3.47001 11.1801 3.25 11.5701 3.25 12.0001C3.25 12.4301 3.47001 12.8201 3.85001 13.0401L10.19 16.7001C10.57 16.9201 11.02 16.9201 11.39 16.7001C11.77 16.4801 11.99 16.1001 11.99 15.6601V8.34006C11.99 7.91006 11.77 7.52006 11.39 7.30006C11.2 7.19006 11 7.14008 10.79 7.14008Z" fill="#171717"/>
</svg>
