<svg width="25" height="24" viewBox="0 0 25 24" fill="none" xmlns="http://www.w3.org/2000/svg">
<path d="M10.04 16.6701C9.63004 16.6701 9.29004 16.3301 9.29004 15.9201V12.5301L9.10003 12.7401C8.82003 13.0501 8.35004 13.0701 8.04004 12.8001C7.73004 12.5201 7.71004 12.0501 7.98004 11.7401L9.48004 10.0701C9.69004 9.84008 10.02 9.76007 10.31 9.87007C10.6 9.98007 10.79 10.2601 10.79 10.5701V15.9201C10.79 16.3401 10.46 16.6701 10.04 16.6701Z" fill="#171717"/>
<path d="M10.52 5.21993C10.35 5.21993 10.19 5.16995 10.05 5.04995C9.72997 4.78995 9.67998 4.31996 9.92998 3.99996L11.91 1.52999C12.17 1.20999 12.64 1.15993 12.96 1.40993C13.28 1.65993 13.33 2.13998 13.08 2.45998L11.1 4.92995C10.96 5.11995 10.74 5.21993 10.52 5.21993Z" fill="#171717"/>
<path d="M12.4999 22.75C7.18988 22.75 2.85986 18.43 2.85986 13.11C2.85986 11.04 3.52988 9.04998 4.80988 7.34998C5.05988 7.01998 5.52986 6.95001 5.85986 7.20001C6.18986 7.45001 6.25989 7.92 6.00989 8.25C4.92989 9.69 4.35986 11.37 4.35986 13.11C4.35986 17.6 8.00988 21.25 12.4999 21.25C16.9899 21.25 20.6399 17.6 20.6399 13.11C20.6399 8.61999 16.9899 4.96997 12.4999 4.96997C11.9199 4.96997 11.3299 5.04 10.6899 5.19C10.2899 5.28 9.87989 5.03 9.78989 4.63C9.69989 4.23 9.94988 3.81998 10.3499 3.72998C11.0999 3.55998 11.8099 3.46997 12.4999 3.46997C17.8099 3.46997 22.1399 7.78999 22.1399 13.11C22.1399 18.43 17.8099 22.75 12.4999 22.75Z" fill="#171717"/>
<path d="M14.5 16.67C12.98 16.67 11.75 15.44 11.75 13.92V12.5701C11.75 11.0501 12.98 9.82007 14.5 9.82007C16.02 9.82007 17.25 11.0501 17.25 12.5701V13.92C17.25 15.44 16.02 16.67 14.5 16.67ZM14.5 11.3301C13.81 11.3301 13.25 11.8901 13.25 12.5801V13.9301C13.25 14.6201 13.81 15.1801 14.5 15.1801C15.19 15.1801 15.75 14.6201 15.75 13.9301V12.5801C15.75 11.8901 15.19 11.3301 14.5 11.3301Z" fill="#171717"/>
</svg>
