<svg width="25" height="24" viewBox="0 0 25 24" fill="none" xmlns="http://www.w3.org/2000/svg">
<path d="M12.88 16.92H10.59C10.18 16.92 9.84 16.58 9.84 16.17C9.84 15.76 10.18 15.42 10.59 15.42H12.88C13.31 15.42 13.66 15.0701 13.66 14.6401C13.66 14.2101 13.31 13.86 12.88 13.86H10.59C10.35 13.86 10.12 13.74 9.98001 13.55C9.84001 13.36 9.80001 13.1001 9.88001 12.8701L10.64 10.5801C10.74 10.2701 11.03 10.0701 11.35 10.0701H14.41C14.82 10.0701 15.16 10.4101 15.16 10.8201C15.16 11.2301 14.82 11.5701 14.41 11.5701H11.89L11.63 12.36H12.88C14.14 12.36 15.16 13.3801 15.16 14.6401C15.16 15.9001 14.14 16.92 12.88 16.92Z" fill="#171717"/>
<path opacity="0.4" d="M12.5 3.47994C12.42 3.47994 12.34 3.48995 12.26 3.48995L13.08 2.46993C13.34 2.14993 13.29 1.66994 12.96 1.41994C12.63 1.16994 12.17 1.20994 11.91 1.53994L9.92996 4.00997C9.91996 4.01997 9.91997 4.03995 9.90997 4.04995C9.87997 4.08995 9.85997 4.13996 9.83997 4.18996C9.81997 4.22996 9.79998 4.26997 9.78998 4.31997C9.77998 4.36997 9.77997 4.40998 9.77997 4.45998C9.77997 4.50998 9.77997 4.55994 9.77997 4.60994C9.77997 4.62994 9.77997 4.63993 9.77997 4.65993C9.78997 4.68993 9.80998 4.71996 9.81998 4.74996C9.83998 4.79996 9.85997 4.83997 9.87997 4.88997C9.90997 4.92997 9.93997 4.96996 9.96997 4.99996C9.98997 5.02996 10.01 5.05997 10.04 5.07997C10.05 5.08997 10.07 5.09994 10.09 5.10994C10.12 5.12994 10.15 5.13993 10.17 5.15993C10.22 5.18993 10.28 5.20993 10.34 5.21993C10.37 5.22993 10.4 5.22995 10.43 5.23995C10.46 5.23995 10.48 5.24996 10.51 5.24996C10.54 5.24996 10.56 5.23994 10.58 5.22994C10.61 5.22994 10.64 5.23994 10.67 5.22994C11.31 5.07994 11.91 5.00997 12.48 5.00997C16.97 5.00997 20.62 8.65998 20.62 13.15C20.62 17.64 16.97 21.2899 12.48 21.2899C7.98998 21.2899 4.33997 17.64 4.33997 13.15C4.33997 11.41 4.90996 9.72994 5.98996 8.28994C6.23996 7.95994 6.16997 7.48995 5.83997 7.23995C5.50997 6.98995 5.03998 7.05997 4.78998 7.38997C3.50998 9.08997 2.83997 11.08 2.83997 13.15C2.83997 18.46 7.15998 22.7899 12.48 22.7899C17.8 22.7899 22.12 18.47 22.12 13.15C22.12 7.82998 17.81 3.47994 12.5 3.47994Z" fill="#171717"/>
</svg>
