<svg width="25" height="24" viewBox="0 0 25 24" fill="none" xmlns="http://www.w3.org/2000/svg">
<path d="M10.04 16.6701C9.63004 16.6701 9.29004 16.3301 9.29004 15.9201V12.5301L9.10003 12.7401C8.82003 13.0501 8.35004 13.0701 8.04004 12.8001C7.73004 12.5201 7.71004 12.0501 7.98004 11.7401L9.48004 10.0701C9.69004 9.84008 10.02 9.76007 10.31 9.87007C10.6 9.98007 10.79 10.2601 10.79 10.5701V15.9201C10.79 16.3401 10.46 16.6701 10.04 16.6701Z" fill="#171717"/>
<path opacity="0.4" d="M12.5 3.47998C12.42 3.47998 12.34 3.48999 12.26 3.48999L13.08 2.46997C13.34 2.14997 13.29 1.66998 12.96 1.41998C12.64 1.15998 12.17 1.20998 11.91 1.53998L9.92996 4.01001C9.91996 4.02001 9.91997 4.03999 9.90997 4.04999C9.87997 4.08999 9.85997 4.14 9.83997 4.19C9.81997 4.23 9.79998 4.27001 9.78998 4.32001C9.77998 4.37001 9.77997 4.41002 9.77997 4.46002C9.77997 4.51002 9.77997 4.55999 9.77997 4.60999C9.77997 4.62999 9.77997 4.63997 9.77997 4.65997C9.78997 4.68997 9.80998 4.72 9.81998 4.75C9.83998 4.8 9.84997 4.84001 9.87997 4.88001C9.90997 4.92001 9.93998 4.96 9.97998 5C9.99998 5.02 10.01 5.05001 10.04 5.07001C10.05 5.08001 10.07 5.08003 10.08 5.09003C10.11 5.11003 10.14 5.13002 10.18 5.14002C10.23 5.17002 10.28 5.19001 10.33 5.20001C10.36 5.21001 10.4 5.20997 10.43 5.21997C10.46 5.21997 10.48 5.22998 10.51 5.22998C10.53 5.22998 10.56 5.22002 10.58 5.21002C10.61 5.21002 10.64 5.21002 10.68 5.21002C11.32 5.06002 11.92 4.98999 12.49 4.98999C16.98 4.98999 20.63 8.64001 20.63 13.13C20.63 17.62 16.98 21.27 12.49 21.27C7.99996 21.27 4.34998 17.62 4.34998 13.13C4.34998 11.39 4.91997 9.71002 5.99997 8.27002C6.24997 7.94002 6.17998 7.46997 5.84998 7.21997C5.51998 6.96997 5.04996 7.04 4.79996 7.37C3.51996 9.07 2.84998 11.06 2.84998 13.13C2.84998 18.44 7.16996 22.77 12.49 22.77C17.81 22.77 22.13 18.45 22.13 13.13C22.13 7.81 17.81 3.47998 12.5 3.47998Z" fill="#171717"/>
<path d="M14.5 16.67C12.98 16.67 11.75 15.44 11.75 13.92V12.5701C11.75 11.0501 12.98 9.82007 14.5 9.82007C16.02 9.82007 17.25 11.0501 17.25 12.5701V13.92C17.25 15.44 16.02 16.67 14.5 16.67ZM14.5 11.3301C13.81 11.3301 13.25 11.8901 13.25 12.5801V13.9301C13.25 14.6201 13.81 15.1801 14.5 15.1801C15.19 15.1801 15.75 14.6201 15.75 13.9301V12.5801C15.75 11.8901 15.19 11.3301 14.5 11.3301Z" fill="#171717"/>
</svg>
