<svg width="25" height="24" viewBox="0 0 25 24" fill="none" xmlns="http://www.w3.org/2000/svg">
<path d="M22.5 8.33994V15.6599C22.5 17.1599 20.87 18.0999 19.57 17.3499L16.4 15.5299L13.23 13.7C13.03 13.58 12.87 13.45 12.74 13.29V10.73C12.87 10.57 13.03 10.44 13.23 10.32L16.4 8.48993L19.57 6.66996C20.87 5.89996 22.5 6.83994 22.5 8.33994Z" stroke="#171717" stroke-width="1.5" stroke-linecap="round" stroke-linejoin="round"/>
<path d="M9.82 6.65007C11.12 5.90007 12.75 6.84007 12.75 8.34007V15.6601C12.75 17.1601 11.12 18.1001 9.82 17.3501L6.64999 15.5301L3.48 13.7001C2.18 12.9501 2.18 11.0801 3.48 10.3201L5.89001 8.93007" stroke="#171717" stroke-width="1.5" stroke-linecap="round" stroke-linejoin="round"/>
</svg>
