<svg width="25" height="24" viewBox="0 0 25 24" fill="none" xmlns="http://www.w3.org/2000/svg">
<path d="M3.27017 18.25C3.39017 20.31 4.50017 22 7.26017 22H17.7402C20.5002 22 21.6002 20.31 21.7302 18.25L22.2502 9.99C22.3902 7.83 20.6702 6 18.5002 6C17.8902 6 17.3302 5.65 17.0502 5.11L16.3302 3.66C15.8702 2.75 14.6702 2 13.6502 2H11.3602C10.3302 2 9.13017 2.75 8.67017 3.66L7.95017 5.11C7.67017 5.65 7.11017 6 6.50017 6C4.33017 6 2.61017 7.83 2.75017 9.99L3.01017 14.06" stroke="#171717" stroke-width="1.5" stroke-linecap="round" stroke-linejoin="round"/>
<path d="M11.0002 8H14.0002" stroke="#171717" stroke-width="1.5" stroke-linecap="round" stroke-linejoin="round"/>
<path d="M12.5002 18C14.2902 18 15.7502 16.54 15.7502 14.75C15.7502 12.96 14.2902 11.5 12.5002 11.5C10.7102 11.5 9.25018 12.96 9.25018 14.75C9.25018 16.54 10.7102 18 12.5002 18Z" stroke="#171717" stroke-width="1.5" stroke-linecap="round" stroke-linejoin="round"/>
</svg>
