<svg width="25" height="24" viewBox="0 0 25 24" fill="none" xmlns="http://www.w3.org/2000/svg">
<path d="M9.5 10.75H6.5C6.09 10.75 5.75 10.41 5.75 10C5.75 9.59 6.09 9.25 6.5 9.25H9.5C9.91 9.25 10.25 9.59 10.25 10C10.25 10.41 9.91 10.75 9.5 10.75Z" fill="#171717"/>
<path d="M17.74 22.75H7.26001C6.85001 22.75 6.51001 22.41 6.51001 22C6.51001 21.59 6.85001 21.25 7.26001 21.25H17.74C19.76 21.25 20.85 20.22 20.98 18.2L21.5 9.94004C21.55 9.23004 21.34 8.53004 20.91 7.96004C20.66 7.63004 20.73 7.16004 21.06 6.91004C21.39 6.66004 21.86 6.73004 22.11 7.06004C22.75 7.92004 23.07 8.97004 23 10.04L22.48 18.3C22.3 21.13 20.57 22.75 17.74 22.75Z" fill="#171717"/>
<path d="M3.94005 21.21C3.70005 21.21 3.46005 21.09 3.31005 20.87C2.85005 20.17 2.58005 19.3 2.52005 18.29L2.00005 10.04C1.92005 8.79 2.35005 7.59 3.21005 6.68C4.06005 5.77 5.26005 5.25 6.50005 5.25C6.82005 5.25 7.13005 5.06 7.28005 4.76L8.00005 3.33C8.59005 2.16 10.0701 1.25 11.3601 1.25H13.6501C14.9401 1.25 16.4101 2.16 17.0001 3.32L17.7201 4.78C17.8701 5.06 18.1701 5.25 18.5001 5.25C18.9101 5.25 19.2501 5.59 19.2501 6C19.2501 6.41 18.9101 6.75 18.5001 6.75C17.6101 6.75 16.8001 6.25 16.3801 5.46L15.6501 4C15.3201 3.34 14.3801 2.76 13.6401 2.76H11.3501C10.6101 2.76 9.67005 3.34 9.33005 4.01L8.62005 5.44C8.20005 6.25 7.39005 6.75 6.50005 6.75C5.66005 6.75 4.88005 7.09 4.30005 7.7C3.73005 8.31 3.44005 9.11 3.50005 9.94L4.02005 18.2C4.06005 18.93 4.25005 19.57 4.57005 20.04C4.80005 20.39 4.70005 20.85 4.36005 21.08C4.23005 21.17 4.08005 21.21 3.94005 21.21Z" fill="#171717"/>
<path d="M12.5 18.7499C11.61 18.7499 10.74 18.4499 10.04 17.8999C9.71005 17.6399 9.66005 17.1699 9.91005 16.8499C10.17 16.5199 10.64 16.4699 10.96 16.7199C11.4 17.0599 11.94 17.2499 12.5 17.2499C13.88 17.2499 15 16.1299 15 14.7499C15 14.2699 14.87 13.8099 14.62 13.4199C14.4 13.0699 14.5 12.6099 14.85 12.3799C15.2 12.1599 15.66 12.2599 15.89 12.6099C16.29 13.2399 16.51 13.9799 16.51 14.7399C16.5 16.9599 14.71 18.7499 12.5 18.7499Z" fill="#171717"/>
<path d="M2.49994 22.7499C2.30994 22.7499 2.11994 22.6799 1.96994 22.5299C1.67994 22.2399 1.67994 21.7599 1.96994 21.4699L21.9699 1.46994C22.2599 1.17994 22.7399 1.17994 23.0299 1.46994C23.3199 1.75994 23.3199 2.23994 23.0299 2.52994L3.02994 22.5299C2.87994 22.6799 2.68994 22.7499 2.49994 22.7499Z" fill="#171717"/>
</svg>
