<svg width="25" height="24" viewBox="0 0 25 24" fill="none" xmlns="http://www.w3.org/2000/svg">
<path d="M22.27 2.22988C21.97 1.92988 21.48 1.92988 21.18 2.22988L2.73 20.6899C2.43 20.9899 2.43 21.4799 2.73 21.7799C2.88 21.9199 3.07 21.9999 3.27 21.9999C3.47 21.9999 3.66 21.9199 3.81 21.7699L22.27 3.30988C22.58 3.00988 22.58 2.52988 22.27 2.22988Z" fill="#171717"/>
<path opacity="0.4" d="M22.25 9.99L21.73 18.25C21.6 20.31 20.5 22 17.74 22H7.25997C6.66997 22 6.15997 21.92 5.71997 21.78L20.75 6.75C21.73 7.48 22.34 8.67 22.25 9.99Z" fill="#171717"/>
<path opacity="0.4" d="M18.5 6L3.98005 20.52C3.53005 19.89 3.32005 19.1 3.27005 18.25L2.75005 9.99C2.61005 7.83 4.33005 6 6.50005 6C7.11005 6 7.67004 5.65 7.95005 5.11L8.67005 3.66C9.13005 2.75 10.33 2 11.36 2H13.65C14.67 2 15.87 2.75 16.33 3.66L17.05 5.11C17.33 5.65 17.89 6 18.5 6Z" fill="#171717"/>
<path d="M10 10.75H7C6.59 10.75 6.25 10.41 6.25 10C6.25 9.59 6.59 9.25 7 9.25H10C10.41 9.25 10.75 9.59 10.75 10C10.75 10.41 10.41 10.75 10 10.75Z" fill="#171717"/>
<path d="M13.07 11.4299L9.18001 15.3199C9.15001 15.1399 9.13 14.9399 9.13 14.7499C9.13 12.8899 10.64 11.3799 12.5 11.3799C12.69 11.3799 12.89 11.3999 13.07 11.4299Z" fill="#171717"/>
<path d="M15.88 14.75C15.88 16.61 14.36 18.12 12.5 18.12C11.63 18.12 10.84 17.79 10.25 17.25L15 12.5C15.55 13.09 15.88 13.88 15.88 14.75Z" fill="#171717"/>
</svg>
