<svg width="25" height="24" viewBox="0 0 25 24" fill="none" xmlns="http://www.w3.org/2000/svg">
<path d="M17.74 22.75H7.25999C4.45999 22.75 2.67999 21.08 2.51999 18.29L1.99999 10.04C1.91999 8.79 2.34999 7.59 3.20999 6.68C4.05999 5.77 5.25999 5.25 6.49999 5.25C6.81999 5.25 7.12999 5.06 7.27999 4.76L7.99999 3.33C8.58999 2.16 10.07 1.25 11.36 1.25H13.65C14.94 1.25 16.41 2.16 17 3.32L17.72 4.78C17.87 5.06 18.17 5.25 18.5 5.25C19.74 5.25 20.94 5.77 21.79 6.68C22.65 7.6 23.08 8.79 23 10.04L22.48 18.3C22.3 21.13 20.57 22.75 17.74 22.75ZM11.36 2.75C10.62 2.75 9.67999 3.33 9.33999 4L8.61999 5.44C8.19999 6.25 7.38999 6.75 6.49999 6.75C5.65999 6.75 4.87999 7.09 4.29999 7.7C3.72999 8.31 3.43999 9.11 3.49999 9.94L4.01999 18.2C4.13999 20.22 5.22999 21.25 7.25999 21.25H17.74C19.76 21.25 20.85 20.22 20.98 18.2L21.5 9.94C21.55 9.11 21.27 8.31 20.7 7.7C20.12 7.09 19.34 6.75 18.5 6.75C17.61 6.75 16.8 6.25 16.38 5.46L15.65 4C15.32 3.34 14.38 2.76 13.64 2.76H11.36V2.75Z" fill="#171717"/>
<path d="M14 8.75H11C10.59 8.75 10.25 8.41 10.25 8C10.25 7.59 10.59 7.25 11 7.25H14C14.41 7.25 14.75 7.59 14.75 8C14.75 8.41 14.41 8.75 14 8.75Z" fill="#171717"/>
<path d="M12.5 18.75C10.29 18.75 8.5 16.96 8.5 14.75C8.5 12.54 10.29 10.75 12.5 10.75C14.71 10.75 16.5 12.54 16.5 14.75C16.5 16.96 14.71 18.75 12.5 18.75ZM12.5 12.25C11.12 12.25 10 13.37 10 14.75C10 16.13 11.12 17.25 12.5 17.25C13.88 17.25 15 16.13 15 14.75C15 13.37 13.88 12.25 12.5 12.25Z" fill="#171717"/>
</svg>
