<svg width="25" height="24" viewBox="0 0 25 24" fill="none" xmlns="http://www.w3.org/2000/svg">
<path d="M14.9299 16.92H12.6399C12.2299 16.92 11.8899 16.58 11.8899 16.17C11.8899 15.76 12.2299 15.42 12.6399 15.42H14.9299C15.3599 15.42 15.71 15.0701 15.71 14.6401C15.71 14.2101 15.3599 13.86 14.9299 13.86H12.6399C12.3999 13.86 12.17 13.74 12.03 13.55C11.89 13.36 11.8499 13.1001 11.9299 12.8701L12.6899 10.5801C12.7899 10.2701 13.08 10.0701 13.4 10.0701H16.46C16.87 10.0701 17.21 10.4101 17.21 10.8201C17.21 11.2301 16.87 11.5701 16.46 11.5701H13.9399L13.6799 12.36H14.9299C16.1899 12.36 17.21 13.3801 17.21 14.6401C17.21 15.9001 16.1799 16.92 14.9299 16.92Z" fill="#171717"/>
<path d="M10.04 16.9201C9.63004 16.9201 9.29004 16.5801 9.29004 16.1701V12.7801L9.10003 13.0001C8.82003 13.3101 8.35004 13.3301 8.04004 13.0601C7.73004 12.7801 7.71004 12.3101 7.98004 12.0001L9.48004 10.3301C9.69004 10.1001 10.0201 10.0201 10.3101 10.1301C10.6001 10.2401 10.79 10.5201 10.79 10.8301V16.1801C10.79 16.5901 10.46 16.9201 10.04 16.9201Z" fill="#171717"/>
<path d="M14.4797 5.21997C14.2597 5.21997 14.0398 5.12 13.8998 4.94L11.9197 2.46997C11.6597 2.14997 11.7097 1.66998 12.0397 1.41998C12.3597 1.15998 12.8298 1.20998 13.0898 1.53998L15.0698 4.01001C15.3298 4.33001 15.2798 4.81 14.9498 5.06C14.8098 5.16 14.6397 5.21997 14.4797 5.21997Z" fill="#171717"/>
<path d="M12.4999 22.75C7.18988 22.75 2.85986 18.43 2.85986 13.11C2.85986 7.78999 7.17988 3.46997 12.4999 3.46997C13.1899 3.46997 13.8899 3.54998 14.6499 3.72998C15.0499 3.81998 15.3099 4.23 15.2099 4.63C15.1199 5.03 14.7099 5.29 14.3099 5.19C13.6699 5.04 13.0699 4.96997 12.4999 4.96997C8.00988 4.96997 4.35986 8.61999 4.35986 13.11C4.35986 17.6 8.00988 21.25 12.4999 21.25C16.9899 21.25 20.6399 17.6 20.6399 13.11C20.6399 11.37 20.0699 9.69 18.9899 8.25C18.7399 7.92 18.8099 7.45001 19.1399 7.20001C19.4699 6.95001 19.9399 7.01998 20.1899 7.34998C21.4699 9.04998 22.1399 11.04 22.1399 13.11C22.1399 18.43 17.8099 22.75 12.4999 22.75Z" fill="#171717"/>
</svg>
