<svg width="25" height="24" viewBox="0 0 25 24" fill="none" xmlns="http://www.w3.org/2000/svg">
<path d="M14.4797 5.21997C14.2597 5.21997 14.0397 5.12 13.8997 4.94L11.9197 2.46997C11.6597 2.14997 11.7097 1.66998 12.0397 1.41998C12.3597 1.15998 12.8297 1.20998 13.0897 1.53998L15.0697 4.01001C15.3297 4.33001 15.2797 4.81 14.9497 5.06C14.8097 5.16 14.6397 5.21997 14.4797 5.21997Z" fill="#171717"/>
<path d="M12.4999 22.75C7.18988 22.75 2.85986 18.43 2.85986 13.11C2.85986 7.78999 7.17988 3.46997 12.4999 3.46997C13.1899 3.46997 13.8899 3.54998 14.6499 3.72998C15.0499 3.81998 15.3099 4.23 15.2099 4.63C15.1199 5.03 14.7199 5.29 14.3099 5.19C13.6699 5.04 13.0699 4.96997 12.4999 4.96997C8.00988 4.96997 4.35986 8.61999 4.35986 13.11C4.35986 17.6 8.00988 21.25 12.4999 21.25C16.9899 21.25 20.6399 17.6 20.6399 13.11C20.6399 11.37 20.0699 9.69 18.9899 8.25C18.7399 7.92 18.8099 7.45001 19.1399 7.20001C19.4699 6.95001 19.9399 7.01998 20.1899 7.34998C21.4699 9.04998 22.1399 11.04 22.1399 13.11C22.1399 18.43 17.8099 22.75 12.4999 22.75Z" fill="#171717"/>
<path d="M10.04 16.6701C9.63004 16.6701 9.29004 16.3301 9.29004 15.9201V12.5301L9.10003 12.7401C8.82003 13.0501 8.35004 13.0701 8.04004 12.8001C7.73004 12.5201 7.71004 12.0501 7.98004 11.7401L9.48004 10.0701C9.69004 9.84008 10.02 9.76007 10.31 9.87007C10.6 9.98007 10.79 10.2601 10.79 10.5701V15.9201C10.79 16.3401 10.46 16.6701 10.04 16.6701Z" fill="#171717"/>
<path d="M14.5 16.67C12.98 16.67 11.75 15.44 11.75 13.92V12.5701C11.75 11.0501 12.98 9.82007 14.5 9.82007C16.02 9.82007 17.25 11.0501 17.25 12.5701V13.92C17.25 15.44 16.02 16.67 14.5 16.67ZM14.5 11.3301C13.81 11.3301 13.25 11.8901 13.25 12.5801V13.9301C13.25 14.6201 13.81 15.1801 14.5 15.1801C15.19 15.1801 15.75 14.6201 15.75 13.9301V12.5801C15.75 11.8901 15.19 11.3301 14.5 11.3301Z" fill="#171717"/>
</svg>
