<svg width="25" height="24" viewBox="0 0 25 24" fill="none" xmlns="http://www.w3.org/2000/svg">
<path d="M14.93 16.92H12.6401C12.2301 16.92 11.8901 16.58 11.8901 16.17C11.8901 15.76 12.2301 15.42 12.6401 15.42H14.93C15.36 15.42 15.7101 15.0701 15.7101 14.6401C15.7101 14.2101 15.36 13.86 14.93 13.86H12.6401C12.4001 13.86 12.1701 13.74 12.0301 13.55C11.8901 13.36 11.85 13.1001 11.93 12.8701L12.6901 10.5801C12.7901 10.2701 13.0801 10.0701 13.4001 10.0701H16.4601C16.8701 10.0701 17.2101 10.4101 17.2101 10.8201C17.2101 11.2301 16.8701 11.5701 16.4601 11.5701H13.9401L13.68 12.36H14.93C16.19 12.36 17.2101 13.3801 17.2101 14.6401C17.2101 15.9001 16.18 16.92 14.93 16.92Z" fill="#171717"/>
<path d="M10.04 16.9201C9.63004 16.9201 9.29004 16.5801 9.29004 16.1701V12.7801L9.10003 13.0001C8.82003 13.3101 8.35004 13.3301 8.04004 13.0601C7.73004 12.7801 7.71004 12.3101 7.98004 12.0001L9.48004 10.3301C9.69004 10.1001 10.0201 10.0201 10.3101 10.1301C10.6001 10.2401 10.79 10.5201 10.79 10.8301V16.1801C10.79 16.5901 10.46 16.9201 10.04 16.9201Z" fill="#171717"/>
<path opacity="0.4" d="M20.1901 7.34997C19.9401 7.01997 19.4701 6.95 19.1401 7.2C18.8101 7.45 18.7401 7.91999 18.9901 8.24999C20.0701 9.68999 20.6401 11.37 20.6401 13.11C20.6401 17.6 16.9901 21.25 12.5001 21.25C8.01006 21.25 4.36005 17.6 4.36005 13.11C4.36005 8.61998 8.01006 4.96996 12.5001 4.96996C13.0801 4.96996 13.6701 5.03999 14.3101 5.18999C14.3401 5.19999 14.3701 5.18999 14.4001 5.18999C14.4301 5.18999 14.45 5.21001 14.47 5.21001C14.5 5.21001 14.52 5.2 14.55 5.2C14.58 5.2 14.6101 5.18998 14.6501 5.17998C14.7101 5.16998 14.7601 5.13999 14.8101 5.11999C14.8401 5.09999 14.8701 5.09 14.9001 5.07C14.9101 5.06 14.9301 5.05998 14.9401 5.04998C14.9701 5.02998 14.9801 4.99997 15.0001 4.97997C15.0401 4.93997 15.07 4.90998 15.1 4.85998C15.13 4.81998 15.14 4.76996 15.16 4.71996C15.17 4.68996 15.1901 4.66 15.2001 4.63C15.2001 4.61 15.2001 4.60001 15.2001 4.58001C15.2101 4.53001 15.2101 4.47998 15.2001 4.42998C15.2001 4.37998 15.2001 4.33997 15.1901 4.28997C15.1801 4.24997 15.1601 4.20996 15.1401 4.15996C15.1201 4.10996 15.1001 4.06001 15.0701 4.02001C15.0601 4.01001 15.06 3.98997 15.05 3.97997L13.0701 1.51C12.8101 1.19 12.3401 1.13001 12.0201 1.39001C11.7001 1.65001 11.6501 2.11999 11.9001 2.43999L12.72 3.46001C12.64 3.46001 12.56 3.45 12.48 3.45C7.17004 3.45 2.84009 7.77002 2.84009 13.09C2.84009 18.41 7.16004 22.73 12.48 22.73C17.8 22.73 22.1201 18.41 22.1201 13.09C22.1401 11.04 21.4601 9.04997 20.1901 7.34997Z" fill="#171717"/>
</svg>
