<svg width="25" height="24" viewBox="0 0 25 24" fill="none" xmlns="http://www.w3.org/2000/svg">
<path d="M14.4797 5.21993C14.2597 5.21993 14.0398 5.11996 13.8998 4.93996L11.9197 2.46993C11.6597 2.14993 11.7097 1.66994 12.0397 1.41994C12.3697 1.16994 12.8298 1.20994 13.0898 1.53994L15.0698 4.00997C15.3298 4.32997 15.2798 4.80996 14.9498 5.05996C14.8098 5.15996 14.6397 5.21993 14.4797 5.21993Z" fill="#171717"/>
<path d="M12.4999 22.75C7.18988 22.75 2.85986 18.43 2.85986 13.11C2.85986 7.78999 7.17988 3.46997 12.4999 3.46997C13.1899 3.46997 13.8899 3.54998 14.6499 3.72998C15.0499 3.81998 15.3099 4.23 15.2099 4.63C15.1199 5.03 14.7199 5.29 14.3099 5.19C13.6699 5.04 13.0699 4.96997 12.4999 4.96997C8.00988 4.96997 4.35986 8.61999 4.35986 13.11C4.35986 17.6 8.00988 21.25 12.4999 21.25C16.9899 21.25 20.6399 17.6 20.6399 13.11C20.6399 11.37 20.0699 9.69 18.9899 8.25C18.7399 7.92 18.8099 7.45001 19.1399 7.20001C19.4699 6.95001 19.9399 7.01998 20.1899 7.34998C21.4699 9.04998 22.1399 11.04 22.1399 13.11C22.1399 18.43 17.8099 22.75 12.4999 22.75Z" fill="#171717"/>
<path d="M12.8801 16.92H10.5902C10.1802 16.92 9.84016 16.58 9.84016 16.17C9.84016 15.76 10.1802 15.42 10.5902 15.42H12.8801C13.3101 15.42 13.6601 15.0701 13.6601 14.6401C13.6601 14.2101 13.3101 13.86 12.8801 13.86H10.5902C10.3502 13.86 10.1201 13.74 9.98011 13.55C9.84011 13.36 9.80014 13.1001 9.88014 12.8701L10.6401 10.5801C10.7401 10.2701 11.0301 10.0701 11.3501 10.0701H14.4101C14.8201 10.0701 15.1601 10.4101 15.1601 10.8201C15.1601 11.2301 14.8201 11.5701 14.4101 11.5701H11.8901L11.6301 12.36H12.8801C14.1401 12.36 15.1601 13.3801 15.1601 14.6401C15.1601 15.9001 14.1401 16.92 12.8801 16.92Z" fill="#171717"/>
</svg>
