<svg width="25" height="24" viewBox="0 0 25 24" fill="none" xmlns="http://www.w3.org/2000/svg">
<path d="M2.5 8.33994V15.6599C2.5 17.1599 4.12999 18.0999 5.42999 17.3499L8.60001 15.5299L11.77 13.7C11.97 13.58 12.13 13.45 12.26 13.29V10.73C12.13 10.57 11.97 10.44 11.77 10.32L8.60001 8.48993L5.42999 6.66996C4.12999 5.89996 2.5 6.83994 2.5 8.33994Z" stroke="#171717" stroke-width="1.5" stroke-linecap="round" stroke-linejoin="round"/>
<path d="M15.18 6.65007C13.88 5.90007 12.25 6.84007 12.25 8.34007V15.6601C12.25 17.1601 13.88 18.1001 15.18 17.3501L18.35 15.5301L21.52 13.7001C22.82 12.9501 22.82 11.0801 21.52 10.3201L19.34 9.06008" stroke="#171717" stroke-width="1.5" stroke-linecap="round" stroke-linejoin="round"/>
</svg>
