<svg width="25" height="24" viewBox="0 0 25 24" fill="none" xmlns="http://www.w3.org/2000/svg">
<path d="M14.48 4.46997L12.5 2" stroke="#171717" stroke-width="1.5" stroke-linecap="round" stroke-linejoin="round"/>
<path d="M20.51 16.96C19.08 19.94 16.03 22 12.5 22C7.59 22 3.60999 18.02 3.60999 13.11C3.60999 8.19999 7.59 4.21997 12.5 4.21997C13.18 4.21997 13.84 4.31002 14.48 4.46002" stroke="#171717" stroke-width="1.5" stroke-linecap="round" stroke-linejoin="round"/>
<path d="M19.5901 7.80005C20.7001 9.28005 21.3901 11.11 21.3901 13.11" stroke="#171717" stroke-width="1.5" stroke-linecap="round" stroke-linejoin="round"/>
<path d="M16.4601 10.8301H13.4001L12.6401 13.1201H14.9301C15.7701 13.1201 16.4601 13.8001 16.4601 14.6501C16.4601 15.4901 15.7801 16.1801 14.9301 16.1801H12.6401" stroke="#171717" stroke-width="1.5" stroke-linecap="round" stroke-linejoin="round"/>
<path d="M10.04 16.17V10.8301L8.54004 12.5001" stroke="#171717" stroke-width="1.5" stroke-linecap="round" stroke-linejoin="round"/>
</svg>
