<svg width="25" height="24" viewBox="0 0 25 24" fill="none" xmlns="http://www.w3.org/2000/svg">
<path d="M4.45001 18.3601C3.99001 18.3601 3.52001 18.2401 3.10001 17.9901C2.25001 17.5001 1.75 16.6301 1.75 15.6501V8.33005C1.75 7.35005 2.25001 6.48006 3.10001 5.99006C3.95001 5.50006 4.95999 5.50006 5.79999 5.99006L12.14 9.65006C12.43 9.82006 12.66 10.0201 12.84 10.2401C12.95 10.3701 13.01 10.5401 13.01 10.7101V13.2701C13.01 13.4401 12.95 13.6101 12.84 13.7401C12.66 13.9601 12.43 14.1601 12.16 14.3201L5.79999 18.0001C5.37999 18.2401 4.92001 18.3601 4.45001 18.3601ZM4.45001 7.14008C4.24001 7.14008 4.04001 7.19006 3.85001 7.30006C3.47001 7.52006 3.25 7.91006 3.25 8.34006V15.6601C3.25 16.0901 3.47001 16.4801 3.85001 16.7001C4.23001 16.9201 4.66999 16.9201 5.04999 16.7001L11.39 13.0401C11.43 13.0201 11.47 12.9901 11.5 12.9601V11.0301C11.46 11.0001 11.42 10.9701 11.38 10.9501L5.04999 7.30006C4.85999 7.19006 4.66001 7.14008 4.45001 7.14008Z" fill="#171717"/>
<path d="M14.2097 18.3601C13.7497 18.3601 13.2797 18.2401 12.8597 17.9901C12.0097 17.5001 11.5098 16.6301 11.5098 15.6501V8.33005C11.5098 7.35005 12.0097 6.48006 12.8597 5.99006C13.7097 5.50006 14.7198 5.50006 15.5598 5.99006L21.8997 9.65006C22.7397 10.1401 23.2498 11.0101 23.2498 11.9901C23.2498 12.9701 22.7498 13.8401 21.8997 14.3301L15.5598 17.9901C15.1398 18.2401 14.6697 18.3601 14.2097 18.3601ZM14.2097 7.14008C13.9997 7.14008 13.7997 7.19006 13.6097 7.30006C13.2297 7.52006 13.0098 7.90006 13.0098 8.34006V15.6601C13.0098 16.0901 13.2297 16.4801 13.6097 16.7001C13.9897 16.9201 14.4398 16.9201 14.8098 16.7001L21.1497 13.0401C21.5297 12.8201 21.7498 12.4301 21.7498 12.0001C21.7498 11.5701 21.5297 11.1801 21.1497 10.9601L14.8098 7.30006C14.6198 7.19006 14.4197 7.14008 14.2097 7.14008Z" fill="#171717"/>
</svg>
