<svg width="25" height="24" viewBox="0 0 25 24" fill="none" xmlns="http://www.w3.org/2000/svg">
<path opacity="0.4" d="M20.19 7.3499C19.94 7.0199 19.47 6.94994 19.14 7.19994C18.81 7.44994 18.74 7.91992 18.99 8.24992C20.07 9.68992 20.64 11.3699 20.64 13.1099C20.64 17.5999 16.99 21.2499 12.5 21.2499C8.00997 21.2499 4.35995 17.5999 4.35995 13.1099C4.35995 8.61991 8.00997 4.96989 12.5 4.96989C13.08 4.96989 13.67 5.03993 14.31 5.18993C14.34 5.19993 14.37 5.18993 14.41 5.18993C14.43 5.18993 14.46 5.20995 14.48 5.20995C14.51 5.20995 14.53 5.19994 14.56 5.19994C14.6 5.19994 14.63 5.18992 14.66 5.17992C14.71 5.16992 14.76 5.14992 14.81 5.11992C14.84 5.09992 14.88 5.08993 14.91 5.06993C14.92 5.05993 14.94 5.05991 14.95 5.04991C14.98 5.02991 14.99 4.9999 15.01 4.9799C15.05 4.9399 15.08 4.90991 15.11 4.85991C15.14 4.81991 15.15 4.7699 15.17 4.7299C15.18 4.6999 15.2 4.66994 15.21 4.63994C15.21 4.61994 15.21 4.60995 15.21 4.58995C15.22 4.53995 15.22 4.48993 15.21 4.43993C15.21 4.38993 15.21 4.34991 15.2 4.29991C15.19 4.25991 15.17 4.21991 15.15 4.16991C15.13 4.11991 15.11 4.06995 15.08 4.02995C15.07 4.01995 15.07 3.99991 15.06 3.98991L13.08 1.51994C12.82 1.19994 12.35 1.14995 12.03 1.39995C11.71 1.65995 11.66 2.12994 11.91 2.44994L12.73 3.46989C12.65 3.46989 12.57 3.45995 12.49 3.45995C7.17996 3.45995 2.84998 7.7799 2.84998 13.0999C2.84998 18.4199 7.16996 22.7399 12.49 22.7399C17.81 22.7399 22.13 18.4199 22.13 13.0999C22.14 11.0399 21.46 9.0499 20.19 7.3499Z" fill="#171717"/>
<path d="M10.04 16.6701C9.63004 16.6701 9.29004 16.3301 9.29004 15.9201V12.5301L9.10003 12.7401C8.82003 13.0501 8.35004 13.0701 8.04004 12.8001C7.73004 12.5201 7.71004 12.0501 7.98004 11.7401L9.48004 10.0701C9.69004 9.84008 10.02 9.76007 10.31 9.87007C10.6 9.98007 10.79 10.2601 10.79 10.5701V15.9201C10.79 16.3401 10.46 16.6701 10.04 16.6701Z" fill="#171717"/>
<path d="M14.5 16.67C12.98 16.67 11.75 15.44 11.75 13.92V12.5701C11.75 11.0501 12.98 9.82007 14.5 9.82007C16.02 9.82007 17.25 11.0501 17.25 12.5701V13.92C17.25 15.44 16.02 16.67 14.5 16.67ZM14.5 11.3301C13.81 11.3301 13.25 11.8901 13.25 12.5801V13.9301C13.25 14.6201 13.81 15.1801 14.5 15.1801C15.19 15.1801 15.75 14.6201 15.75 13.9301V12.5801C15.75 11.8901 15.19 11.3301 14.5 11.3301Z" fill="#171717"/>
</svg>
