<svg width="25" height="24" viewBox="0 0 25 24" fill="none" xmlns="http://www.w3.org/2000/svg">
<path opacity="0.4" d="M19.98 7.09006C19.72 6.77006 19.25 6.72001 18.93 6.98001C18.61 7.24001 18.56 7.71006 18.82 8.03006C19.95 9.43006 20.58 11.09 20.64 12.83C20.8 17.31 17.28 21.09 12.79 21.24C8.31 21.4 4.53002 17.88 4.38002 13.39C4.23002 8.90004 7.74 5.13001 12.23 4.98001C12.8 4.96001 13.4 5.01004 14.05 5.14004C14.09 5.15004 14.13 5.14004 14.17 5.14004C14.27 5.19004 14.39 5.22 14.5 5.22C14.67 5.22 14.83 5.17002 14.97 5.05002C15.29 4.79002 15.34 4.32003 15.09 4.00003L13.11 1.53006C12.85 1.21006 12.38 1.15 12.06 1.41C11.74 1.67 11.69 2.14005 11.94 2.46005L12.77 3.49002C12.58 3.48002 12.38 3.47001 12.19 3.48001C6.88002 3.66001 2.71004 8.14004 2.90004 13.45C3.09004 18.76 7.56001 22.93 12.87 22.74C18.18 22.55 22.35 18.08 22.16 12.77C22.06 10.71 21.32 8.74006 19.98 7.09006Z" fill="#171717"/>
<path d="M12.88 16.92H10.59C10.18 16.92 9.84004 16.58 9.84004 16.17C9.84004 15.76 10.18 15.42 10.59 15.42H12.88C13.31 15.42 13.66 15.0701 13.66 14.6401C13.66 14.2101 13.31 13.86 12.88 13.86H10.59C10.35 13.86 10.12 13.74 9.97999 13.55C9.83999 13.36 9.80001 13.1001 9.88001 12.8701L10.64 10.5801C10.74 10.2701 11.03 10.0701 11.35 10.0701H14.41C14.82 10.0701 15.16 10.4101 15.16 10.8201C15.16 11.2301 14.82 11.5701 14.41 11.5701H11.89L11.63 12.36H12.88C14.14 12.36 15.16 13.3801 15.16 14.6401C15.16 15.9001 14.14 16.92 12.88 16.92Z" fill="#171717"/>
</svg>
