<svg width="25" height="24" viewBox="0 0 25 24" fill="none" xmlns="http://www.w3.org/2000/svg">
<path opacity="0.4" d="M22.5 7.81V13.9L20.87 12.5C20.09 11.83 18.83 11.83 18.05 12.5L13.89 16.07C13.11 16.74 11.85 16.74 11.07 16.07L10.73 15.79C10.02 15.17 8.89 15.11 8.09 15.65L3.17 18.95L3.06 19.03C2.69 18.23 2.5 17.28 2.5 16.19V7.81C2.5 4.17 4.67 2 8.31 2H16.69C20.33 2 22.5 4.17 22.5 7.81Z" fill="#171717"/>
<path d="M9.5 10.3801C10.8144 10.3801 11.88 9.31456 11.88 8.00012C11.88 6.68568 10.8144 5.62012 9.5 5.62012C8.18556 5.62012 7.12 6.68568 7.12 8.00012C7.12 9.31456 8.18556 10.3801 9.5 10.3801Z" fill="#171717"/>
<path d="M22.5 13.9001V16.1901C22.5 19.8301 20.33 22.0001 16.69 22.0001H8.31C5.76 22.0001 3.92 20.9301 3.06 19.0301L3.17 18.9501L8.09 15.6501C8.89 15.1101 10.02 15.1701 10.73 15.7901L11.07 16.0701C11.85 16.7401 13.11 16.7401 13.89 16.0701L18.05 12.5001C18.83 11.8301 20.09 11.8301 20.87 12.5001L22.5 13.9001Z" fill="#171717"/>
</svg>
