<svg width="25" height="24" viewBox="0 0 25 24" fill="none" xmlns="http://www.w3.org/2000/svg">
<path d="M22.5 13.9001V16.1901C22.5 19.8301 20.33 22.0001 16.69 22.0001H8.31C5.76 22.0001 3.92 20.9301 3.06 19.0301L3.17 18.9501L8.09 15.6501C8.89 15.1101 10.02 15.1701 10.73 15.7901L11.07 16.0701C11.85 16.7401 13.11 16.7401 13.89 16.0701L18.05 12.5001C18.83 11.8301 20.09 11.8301 20.87 12.5001L22.5 13.9001Z" fill="#171717"/>
<path opacity="0.4" d="M21.47 8H18.53C17.26 8 16.5 7.24 16.5 5.97V3.03C16.5 2.63 16.58 2.29 16.72 2C16.71 2 16.7 2 16.69 2H8.31C4.67 2 2.5 4.17 2.5 7.81V16.19C2.5 17.28 2.69 18.23 3.06 19.03L3.17 18.95L8.09 15.65C8.89 15.11 10.02 15.17 10.73 15.79L11.07 16.07C11.85 16.74 13.11 16.74 13.89 16.07L18.05 12.5C18.83 11.83 20.09 11.83 20.87 12.5L22.5 13.9V7.81C22.5 7.8 22.5 7.79 22.5 7.78C22.21 7.92 21.87 8 21.47 8Z" fill="#171717"/>
<path d="M9.5 10.3801C10.8144 10.3801 11.88 9.31456 11.88 8.00012C11.88 6.68568 10.8144 5.62012 9.5 5.62012C8.18556 5.62012 7.12 6.68568 7.12 8.00012C7.12 9.31456 8.18556 10.3801 9.5 10.3801Z" fill="#171717"/>
<path d="M21.47 1H18.53C17.26 1 16.5 1.76 16.5 3.03V5.97C16.5 7.24 17.26 8 18.53 8H21.47C22.74 8 23.5 7.24 23.5 5.97V3.03C23.5 1.76 22.74 1 21.47 1ZM21.97 5.56C22.22 5.81 22.22 6.22 21.97 6.47C21.84 6.59 21.68 6.65 21.51 6.65C21.35 6.65 21.19 6.59 21.06 6.47L20 5.41L18.95 6.47C18.82 6.59 18.66 6.65 18.49 6.65C18.33 6.65 18.17 6.59 18.04 6.47C17.79 6.22 17.79 5.81 18.04 5.56L19.1 4.5L18.04 3.45C17.79 3.2 17.79 2.79 18.04 2.54C18.29 2.29 18.7 2.29 18.95 2.54L20 3.6L21.06 2.54C21.31 2.29 21.72 2.29 21.97 2.54C22.22 2.79 22.22 3.2 21.97 3.45L20.91 4.5L21.97 5.56Z" fill="#171717"/>
</svg>
