<svg width="25" height="24" viewBox="0 0 25 24" fill="none" xmlns="http://www.w3.org/2000/svg">
<path d="M9.5 10.75C7.98 10.75 6.75 9.52 6.75 8C6.75 6.48 7.98 5.25 9.5 5.25C11.02 5.25 12.25 6.48 12.25 8C12.25 9.52 11.02 10.75 9.5 10.75ZM9.5 6.75C8.81 6.75 8.25 7.31 8.25 8C8.25 8.69 8.81 9.25 9.5 9.25C10.19 9.25 10.75 8.69 10.75 8C10.75 7.31 10.19 6.75 9.5 6.75Z" fill="#171717"/>
<path d="M15.5 22.75H9.5C4.07 22.75 1.75 20.43 1.75 15V9C1.75 3.57 4.07 1.25 9.5 1.25H13.5C13.91 1.25 14.25 1.59 14.25 2C14.25 2.41 13.91 2.75 13.5 2.75H9.5C4.89 2.75 3.25 4.39 3.25 9V15C3.25 19.61 4.89 21.25 9.5 21.25H15.5C20.11 21.25 21.75 19.61 21.75 15V10C21.75 9.59 22.09 9.25 22.5 9.25C22.91 9.25 23.25 9.59 23.25 10V15C23.25 20.43 20.93 22.75 15.5 22.75Z" fill="#171717"/>
<path d="M18.5 8.75C18.4 8.75 18.31 8.73 18.21 8.69C17.93 8.58 17.75 8.3 17.75 8V2C17.75 1.59 18.09 1.25 18.5 1.25C18.91 1.25 19.25 1.59 19.25 2V6.19L19.97 5.47C20.26 5.18 20.74 5.18 21.03 5.47C21.32 5.76 21.32 6.24 21.03 6.53L19.03 8.53C18.89 8.67 18.7 8.75 18.5 8.75Z" fill="#171717"/>
<path d="M18.5 8.74994C18.31 8.74994 18.12 8.67994 17.97 8.52994L15.97 6.52994C15.68 6.23994 15.68 5.75994 15.97 5.46994C16.26 5.17994 16.74 5.17994 17.03 5.46994L19.03 7.46994C19.32 7.75994 19.32 8.23994 19.03 8.52994C18.88 8.67994 18.69 8.74994 18.5 8.74994Z" fill="#171717"/>
<path d="M3.17 19.7001C2.93 19.7001 2.69 19.5801 2.55 19.3701C2.32 19.0301 2.41 18.5601 2.76 18.3301L7.69 15.0201C8.77 14.2901 10.26 14.3801 11.24 15.2101L11.57 15.5001C12.07 15.9301 12.92 15.9301 13.41 15.5001L17.57 11.9301C18.63 11.0201 20.3 11.0201 21.37 11.9301L23 13.3301C23.31 13.6001 23.35 14.0701 23.08 14.3901C22.81 14.7001 22.34 14.7401 22.02 14.4701L20.39 13.0701C19.89 12.6401 19.04 12.6401 18.54 13.0701L14.38 16.6401C13.32 17.5501 11.65 17.5501 10.58 16.6401L10.25 16.3501C9.79 15.9601 9.03 15.9201 8.52 16.2701L3.59 19.5801C3.46 19.6601 3.31 19.7001 3.17 19.7001Z" fill="#171717"/>
</svg>
