<svg width="25" height="24" viewBox="0 0 25 24" fill="none" xmlns="http://www.w3.org/2000/svg">
<path d="M9.5 10.75C7.98 10.75 6.75 9.52 6.75 8C6.75 6.48 7.98 5.25 9.5 5.25C11.02 5.25 12.25 6.48 12.25 8C12.25 9.52 11.02 10.75 9.5 10.75ZM9.5 6.75C8.81 6.75 8.25 7.31 8.25 8C8.25 8.69 8.81 9.25 9.5 9.25C10.19 9.25 10.75 8.69 10.75 8C10.75 7.31 10.19 6.75 9.5 6.75Z" fill="#171717"/>
<path d="M15.5 22.75H9.5C4.07 22.75 1.75 20.43 1.75 15V9C1.75 3.57 4.07 1.25 9.5 1.25H12.5C12.91 1.25 13.25 1.59 13.25 2C13.25 2.41 12.91 2.75 12.5 2.75H9.5C4.89 2.75 3.25 4.39 3.25 9V15C3.25 19.61 4.89 21.25 9.5 21.25H15.5C20.11 21.25 21.75 19.61 21.75 15V11C21.75 10.59 22.09 10.25 22.5 10.25C22.91 10.25 23.25 10.59 23.25 11V15C23.25 20.43 20.93 22.75 15.5 22.75Z" fill="#171717"/>
<path d="M19.44 8.35994C18.57 8.35994 16.53 7.28994 15.9 5.33994C15.47 3.98994 15.97 2.21994 17.53 1.71994C18.19 1.50994 18.88 1.59994 19.43 1.93994C19.97 1.59994 20.68 1.49994 21.35 1.71994C22.91 2.21994 23.41 3.98994 22.98 5.33994C22.35 7.32994 20.21 8.35994 19.44 8.35994ZM17.33 4.87994C17.76 6.20994 19.2 6.82994 19.46 6.85994C19.75 6.82994 21.16 6.12994 21.55 4.87994C21.76 4.20994 21.55 3.35994 20.89 3.13994C20.61 3.04994 20.24 3.09994 20.07 3.35994C19.93 3.56994 19.7 3.69994 19.46 3.69994C19.23 3.69994 18.98 3.58994 18.84 3.38994C18.63 3.09994 18.26 3.05994 18 3.13994C17.33 3.35994 17.12 4.20994 17.33 4.87994Z" fill="#171717"/>
<path d="M3.16999 19.7001C2.92999 19.7001 2.68999 19.5801 2.54999 19.3701C2.31999 19.0301 2.40999 18.5601 2.75999 18.3301L7.68999 15.0201C8.76999 14.2901 10.26 14.3801 11.24 15.2101L11.57 15.5001C12.07 15.9301 12.92 15.9301 13.41 15.5001L17.57 11.9301C18.63 11.0201 20.3 11.0201 21.37 11.9301L23 13.3301C23.31 13.6001 23.35 14.0701 23.08 14.3901C22.81 14.7001 22.34 14.7401 22.02 14.4701L20.39 13.0701C19.89 12.6401 19.04 12.6401 18.54 13.0701L14.38 16.6401C13.32 17.5501 11.65 17.5501 10.58 16.6401L10.25 16.3501C9.78999 15.9601 9.02999 15.9201 8.51999 16.2701L3.58999 19.5801C3.45999 19.6601 3.30999 19.7001 3.16999 19.7001Z" fill="#171717"/>
</svg>
