<svg width="25" height="24" viewBox="0 0 25 24" fill="none" xmlns="http://www.w3.org/2000/svg">
<path opacity="0.4" d="M20.96 3.54L4.04 20.46C3.04 19.46 2.5 18.01 2.5 16.19V7.81C2.5 4.17 4.67 2 8.31 2H16.69C18.51 2 19.96 2.54 20.96 3.54Z" fill="#171717"/>
<path opacity="0.4" d="M22.5 7.80989V13.8999L20.87 12.4999C20.09 11.8299 18.83 11.8299 18.05 12.4999L13.89 16.0699C13.18 16.6799 12.06 16.7399 11.28 16.2199L22.11 5.38989C22.25 5.76989 22.35 6.16989 22.41 6.59989C22.47 6.97989 22.5 7.38989 22.5 7.80989Z" fill="#171717"/>
<path d="M22.5 13.9001V16.1901C22.5 19.8301 20.33 22.0001 16.69 22.0001H8.31001C7.89001 22.0001 7.48001 21.9701 7.10001 21.9101C6.67001 21.8501 6.27001 21.7501 5.89001 21.6101L11.28 16.2201C12.06 16.7401 13.18 16.6801 13.89 16.0701L18.05 12.5001C18.83 11.8301 20.09 11.8301 20.87 12.5001L22.5 13.9001Z" fill="#171717"/>
<path d="M22.27 2.22988C21.97 1.92988 21.48 1.92988 21.18 2.22988L2.73 20.6899C2.43 20.9899 2.43 21.4799 2.73 21.7799C2.88 21.9199 3.07 21.9999 3.27 21.9999C3.47 21.9999 3.66 21.9199 3.81 21.7699L22.27 3.30988C22.58 3.00988 22.58 2.52988 22.27 2.22988Z" fill="#171717"/>
<path d="M8.5 10.3801C9.81443 10.3801 10.88 9.31456 10.88 8.00012C10.88 6.68568 9.81443 5.62012 8.5 5.62012C7.18556 5.62012 6.12 6.68568 6.12 8.00012C6.12 9.31456 7.18556 10.3801 8.5 10.3801Z" fill="#171717"/>
</svg>
