<svg width="25" height="24" viewBox="0 0 25 24" fill="none" xmlns="http://www.w3.org/2000/svg">
<path d="M3.87 20.1C2.93 18.97 2.5 17.31 2.5 15V9C2.5 4 4.5 2 9.5 2H15.5C17.69 2 19.3 2.38 20.42 3.23" stroke="#171717" stroke-width="1.5" stroke-linecap="round" stroke-linejoin="round"/>
<path opacity="0.4" d="M8.5 10C9.60457 10 10.5 9.10457 10.5 8C10.5 6.89543 9.60457 6 8.5 6C7.39543 6 6.5 6.89543 6.5 8C6.5 9.10457 7.39543 10 8.5 10Z" stroke="#171717" stroke-width="1.5" stroke-linecap="round" stroke-linejoin="round"/>
<path d="M22.5 2L2.5 22" stroke="#171717" stroke-width="1.5" stroke-linecap="round" stroke-linejoin="round"/>
<g opacity="0.4">
<path d="M22.4709 7.99023C22.4909 8.31023 22.5009 8.65023 22.5009 9.00023V15.0002C22.5009 20.0002 20.5009 22.0002 15.5009 22.0002H9.50094C8.76094 22.0002 8.08094 21.9602 7.46094 21.8602" stroke="#171717" stroke-width="1.5" stroke-linecap="round" stroke-linejoin="round"/>
<path d="M11.9297 16.4502C12.2297 16.7502 12.7197 16.7502 13.0197 16.4502L18.0497 11.4102C18.8297 10.6302 20.0897 10.6302 20.8697 11.4102L22.4997 13.0502" stroke="#171717" stroke-width="1.5" stroke-linecap="round" stroke-linejoin="round"/>
</g>
</svg>
