<svg width="25" height="24" viewBox="0 0 25 24" fill="none" xmlns="http://www.w3.org/2000/svg">
<path d="M9.5 10.75C7.98 10.75 6.75 9.52 6.75 8C6.75 6.48 7.98 5.25 9.5 5.25C11.02 5.25 12.25 6.48 12.25 8C12.25 9.52 11.02 10.75 9.5 10.75ZM9.5 6.75C8.81 6.75 8.25 7.31 8.25 8C8.25 8.69 8.81 9.25 9.5 9.25C10.19 9.25 10.75 8.69 10.75 8C10.75 7.31 10.19 6.75 9.5 6.75Z" fill="#171717"/>
<path d="M15.5 22.75H9.5C4.07 22.75 1.75 20.43 1.75 15V9C1.75 3.57 4.07 1.25 9.5 1.25H13.5C13.91 1.25 14.25 1.59 14.25 2C14.25 2.41 13.91 2.75 13.5 2.75H9.5C4.89 2.75 3.25 4.39 3.25 9V15C3.25 19.61 4.89 21.25 9.5 21.25H15.5C20.11 21.25 21.75 19.61 21.75 15V10C21.75 9.59 22.09 9.25 22.5 9.25C22.91 9.25 23.25 9.59 23.25 10V15C23.25 20.43 20.93 22.75 15.5 22.75Z" fill="#171717"/>
<path d="M17.06 7.68999C16.87 7.68999 16.68 7.61999 16.53 7.46999C16.24 7.17999 16.24 6.69999 16.53 6.40999L20.42 2.51999C20.71 2.22999 21.19 2.22999 21.48 2.51999C21.77 2.80999 21.77 3.28999 21.48 3.57999L17.59 7.46999C17.44 7.61999 17.25 7.68999 17.06 7.68999Z" fill="#171717"/>
<path d="M20.94 7.68999C20.75 7.68999 20.56 7.61999 20.41 7.46999L16.52 3.57999C16.23 3.28999 16.23 2.80999 16.52 2.51999C16.81 2.22999 17.29 2.22999 17.58 2.51999L21.47 6.40999C21.76 6.69999 21.76 7.17999 21.47 7.46999C21.33 7.61999 21.14 7.68999 20.94 7.68999Z" fill="#171717"/>
<path d="M3.17 19.7001C2.93 19.7001 2.69 19.5801 2.55 19.3701C2.32 19.0301 2.41 18.5601 2.75 18.3301L7.68 15.0201C8.76 14.3001 10.25 14.3801 11.23 15.2101L11.56 15.5001C12.06 15.9301 12.91 15.9301 13.4 15.5001L17.56 11.9301C18.62 11.0201 20.29 11.0201 21.36 11.9301L22.99 13.3301C23.3 13.6001 23.34 14.0701 23.07 14.3901C22.8 14.7001 22.33 14.7401 22.01 14.4701L20.38 13.0701C19.88 12.6401 19.03 12.6401 18.54 13.0701L14.38 16.6401C13.32 17.5501 11.65 17.5501 10.58 16.6401L10.25 16.3501C9.79 15.9601 9.03 15.9201 8.52 16.2701L3.6 19.5801C3.46 19.6601 3.31 19.7001 3.17 19.7001Z" fill="#171717"/>
</svg>
