<svg width="25" height="24" viewBox="0 0 25 24" fill="none" xmlns="http://www.w3.org/2000/svg">
<path d="M3.88 20.85C3.67 20.85 3.45 20.76 3.31 20.58C2.24 19.33 1.75 17.55 1.75 15V9C1.75 3.57 4.07 1.25 9.5 1.25H15.5C17.89 1.25 19.64 1.7 20.88 2.63C21.21 2.88 21.28 3.35 21.03 3.68C20.78 4.01 20.31 4.08 19.98 3.83C19.01 3.1 17.55 2.75 15.5 2.75H9.5C4.89 2.75 3.25 4.39 3.25 9V15C3.25 17.15 3.64 18.66 4.45 19.62C4.72 19.94 4.68 20.41 4.36 20.68C4.22 20.79 4.05 20.85 3.88 20.85Z" fill="#171717"/>
<path d="M15.5 22.7499H9.50001C8.71001 22.7499 8.00001 22.6999 7.35001 22.6099C6.94001 22.5499 6.66001 22.1699 6.72001 21.7599C6.78001 21.3499 7.17001 21.0699 7.57001 21.1299C8.14001 21.2099 8.79001 21.2599 9.50001 21.2599H15.5C20.11 21.2599 21.75 19.6199 21.75 15.0099V8.99993C21.75 8.66993 21.74 8.33993 21.72 8.03993C21.69 7.62993 22.01 7.26993 22.42 7.23993C22.85 7.21993 23.19 7.52993 23.22 7.93993C23.24 8.27993 23.25 8.62993 23.25 8.99993V14.9999C23.25 20.4299 20.93 22.7499 15.5 22.7499Z" fill="#171717"/>
<path d="M8.5 10.75C6.98 10.75 5.75 9.52 5.75 8C5.75 6.48 6.98 5.25 8.5 5.25C10.02 5.25 11.25 6.48 11.25 8C11.25 9.52 10.02 10.75 8.5 10.75ZM8.5 6.75C7.81 6.75 7.25 7.31 7.25 8C7.25 8.69 7.81 9.25 8.5 9.25C9.19 9.25 9.75 8.69 9.75 8C9.75 7.31 9.19 6.75 8.5 6.75Z" fill="#171717"/>
<path d="M2.5 22.7499C2.31 22.7499 2.12 22.6799 1.97 22.5299C1.68 22.2399 1.68 21.7599 1.97 21.4699L21.97 1.46994C22.26 1.17994 22.74 1.17994 23.03 1.46994C23.32 1.75994 23.32 2.23994 23.03 2.52994L3.03 22.5299C2.88 22.6799 2.69 22.7499 2.5 22.7499Z" fill="#171717"/>
<path d="M12.48 17.4301C12.09 17.4301 11.7 17.2801 11.41 16.9901C11.12 16.7001 11.12 16.2201 11.41 15.9301C11.7 15.6401 12.18 15.6401 12.47 15.9301C12.48 15.9401 12.49 15.9401 12.5 15.9301L17.53 10.8901C18.57 9.85011 20.38 9.85011 21.41 10.8901L23.04 12.5201C23.33 12.8101 23.33 13.2901 23.04 13.5801C22.75 13.8701 22.27 13.8701 21.98 13.5801L20.35 11.9501C19.88 11.4801 19.06 11.4801 18.59 11.9501L13.56 16.9901C13.26 17.2801 12.87 17.4301 12.48 17.4301Z" fill="#171717"/>
</svg>
