<svg width="25" height="24" viewBox="0 0 25 24" fill="none" xmlns="http://www.w3.org/2000/svg">
<path d="M9.5 10.75C7.98 10.75 6.75 9.52 6.75 8C6.75 6.48 7.98 5.25 9.5 5.25C11.02 5.25 12.25 6.48 12.25 8C12.25 9.52 11.02 10.75 9.5 10.75ZM9.5 6.75C8.81 6.75 8.25 7.31 8.25 8C8.25 8.69 8.81 9.25 9.5 9.25C10.19 9.25 10.75 8.69 10.75 8C10.75 7.31 10.19 6.75 9.5 6.75Z" fill="#171717"/>
<path d="M15.5 22.75H9.5C4.07 22.75 1.75 20.43 1.75 15V9C1.75 3.57 4.07 1.25 9.5 1.25H13.5C13.91 1.25 14.25 1.59 14.25 2C14.25 2.41 13.91 2.75 13.5 2.75H9.5C4.89 2.75 3.25 4.39 3.25 9V15C3.25 19.61 4.89 21.25 9.5 21.25H15.5C20.11 21.25 21.75 19.61 21.75 15V10C21.75 9.59 22.09 9.25 22.5 9.25C22.91 9.25 23.25 9.59 23.25 10V15C23.25 20.43 20.93 22.75 15.5 22.75Z" fill="#171717"/>
<path d="M16.17 9.74994C15.78 9.74994 15.42 9.60994 15.16 9.33994C14.85 9.02994 14.7 8.56994 14.77 8.09994L14.97 6.70994C15.02 6.35994 15.23 5.92994 15.49 5.67994L19.12 2.04994C20.57 0.599939 21.83 1.42994 22.45 2.04994C23.04 2.63994 23.31 3.25994 23.25 3.89994C23.2 4.40994 22.94 4.89994 22.45 5.37994L18.82 9.00994C18.57 9.25994 18.14 9.46994 17.79 9.52994L16.4 9.72994C16.32 9.74994 16.24 9.74994 16.17 9.74994ZM20.17 3.11994L16.54 6.74994C16.51 6.77994 16.46 6.88994 16.45 6.93994L16.26 8.23994L17.57 8.05994C17.61 8.04994 17.72 7.99994 17.76 7.95994L21.39 4.32994C21.61 4.10994 21.74 3.90994 21.75 3.75994C21.77 3.54994 21.56 3.28994 21.39 3.11994C20.87 2.59994 20.63 2.65994 20.17 3.11994Z" fill="#171717"/>
<path d="M21.4 6.13001C21.33 6.13001 21.26 6.12001 21.2 6.10001C19.86 5.72001 18.79 4.65001 18.41 3.31001C18.3 2.91001 18.53 2.50001 18.93 2.39001C19.33 2.28001 19.74 2.51001 19.85 2.91001C20.09 3.75001 20.76 4.43001 21.61 4.67001C22.01 4.78001 22.24 5.20001 22.13 5.59001C22.02 5.91001 21.72 6.13001 21.4 6.13001Z" fill="#171717"/>
<path d="M3.17 19.7001C2.93 19.7001 2.69 19.5801 2.55 19.3701C2.32 19.0301 2.41 18.5601 2.75 18.3301L7.68 15.0201C8.76 14.3001 10.25 14.3801 11.23 15.2101L11.56 15.5001C12.06 15.9301 12.91 15.9301 13.4 15.5001L17.56 11.9301C18.62 11.0201 20.29 11.0201 21.36 11.9301L22.99 13.3301C23.3 13.6001 23.34 14.0701 23.07 14.3901C22.8 14.7001 22.33 14.7401 22.01 14.4701L20.38 13.0701C19.88 12.6401 19.03 12.6401 18.54 13.0701L14.38 16.6401C13.32 17.5501 11.65 17.5501 10.58 16.6401L10.25 16.3501C9.79 15.9601 9.03 15.9201 8.52 16.2701L3.6 19.5801C3.46 19.6601 3.31 19.7001 3.17 19.7001Z" fill="#171717"/>
</svg>
