<svg width="25" height="24" viewBox="0 0 25 24" fill="none" xmlns="http://www.w3.org/2000/svg">
<path d="M22.5 13.9001V16.1901C22.5 19.8301 20.33 22.0001 16.69 22.0001H8.31C5.76 22.0001 3.92 20.9301 3.06 19.0301L3.17 18.9501L8.09 15.6501C8.89 15.1101 10.02 15.1701 10.73 15.7901L11.07 16.0701C11.85 16.7401 13.11 16.7401 13.89 16.0701L18.05 12.5001C18.83 11.8301 20.09 11.8301 20.87 12.5001L22.5 13.9001Z" fill="#171717"/>
<path opacity="0.4" d="M21.47 8H18.53C17.26 8 16.5 7.24 16.5 5.97V3.03C16.5 2.63 16.58 2.29 16.72 2C16.71 2 16.7 2 16.69 2H8.31C4.67 2 2.5 4.17 2.5 7.81V16.19C2.5 17.28 2.69 18.23 3.06 19.03L3.17 18.95L8.09 15.65C8.89 15.11 10.02 15.17 10.73 15.79L11.07 16.07C11.85 16.74 13.11 16.74 13.89 16.07L18.05 12.5C18.83 11.83 20.09 11.83 20.87 12.5L22.5 13.9V7.81C22.5 7.8 22.5 7.79 22.5 7.78C22.21 7.92 21.87 8 21.47 8Z" fill="#171717"/>
<path d="M9.5 10.3801C10.8144 10.3801 11.88 9.31456 11.88 8.00012C11.88 6.68568 10.8144 5.62012 9.5 5.62012C8.18556 5.62012 7.12 6.68568 7.12 8.00012C7.12 9.31456 8.18556 10.3801 9.5 10.3801Z" fill="#171717"/>
<path d="M21.47 1H18.53C17.26 1 16.5 1.76 16.5 3.03V5.97C16.5 7.24 17.26 8 18.53 8H21.47C22.74 8 23.5 7.24 23.5 5.97V3.03C23.5 1.76 22.74 1 21.47 1ZM22.41 4.93C22.31 5.03 22.16 5.1 22 5.11H20.59L20.6 6.5C20.59 6.67 20.53 6.81 20.41 6.93C20.31 7.03 20.16 7.1 20 7.1C19.67 7.1 19.4 6.83 19.4 6.5V5.1L18 5.11C17.67 5.11 17.4 4.83 17.4 4.5C17.4 4.17 17.67 3.9 18 3.9L19.4 3.91V2.51C19.4 2.18 19.67 1.9 20 1.9C20.33 1.9 20.6 2.18 20.6 2.51L20.59 3.9H22C22.33 3.9 22.6 4.17 22.6 4.5C22.59 4.67 22.52 4.81 22.41 4.93Z" fill="#171717"/>
</svg>
