<svg width="25" height="24" viewBox="0 0 25 24" fill="none" xmlns="http://www.w3.org/2000/svg">
<path d="M12.8298 12.8399C11.8698 14.5699 10.0798 14.7199 8.83978 13.1699L8.61978 12.8899C7.32978 11.2699 5.50978 11.4699 4.57978 13.3199L2.85978 16.7699C1.65978 19.1699 3.40978 21.9999 6.08978 21.9999H18.8498C21.4398 21.9999 23.1898 19.3499 22.1698 16.9599L19.0398 9.64988C17.9798 7.16988 16.0298 7.06988 14.7198 9.42988" stroke="#171717" stroke-width="1.5" stroke-linecap="round" stroke-linejoin="round"/>
<path d="M10.4698 5C10.4698 6.66 9.12979 8 7.46979 8C5.80979 8 4.46979 6.66 4.46979 5C4.46979 3.34 5.80979 2 7.46979 2C7.82979 2 8.16979 2.06 8.47979 2.18" stroke="#171717" stroke-width="1.5" stroke-linecap="round" stroke-linejoin="round"/>
</svg>
