<svg width="25" height="24" viewBox="0 0 25 24" fill="none" xmlns="http://www.w3.org/2000/svg">
<path d="M18.86 22.7499H6.08999C4.56999 22.7499 3.17999 21.9799 2.37999 20.6799C1.57999 19.3799 1.50999 17.7999 2.18999 16.4299L3.90999 12.9799C4.46999 11.8599 5.36999 11.1599 6.37999 11.0499C7.38999 10.9399 8.41999 11.4399 9.19999 12.4099L9.41999 12.6899C9.85999 13.2299 10.37 13.5199 10.87 13.4699C11.37 13.4299 11.83 13.0699 12.17 12.4599L14.06 9.04993C14.84 7.63993 15.88 6.90993 17.01 6.95993C18.13 7.01993 19.09 7.85993 19.73 9.33993L22.86 16.6499C23.44 17.9999 23.3 19.5399 22.49 20.7699C21.69 22.0199 20.33 22.7499 18.86 22.7499ZM6.65999 12.5499C6.61999 12.5499 6.57999 12.5499 6.53999 12.5599C6.03999 12.6099 5.57999 13.0099 5.24999 13.6599L3.52999 17.1099C3.07999 17.9999 3.12999 19.0499 3.64999 19.8999C4.16999 20.7499 5.08999 21.2599 6.08999 21.2599H18.85C19.83 21.2599 20.7 20.7899 21.24 19.9699C21.78 19.1499 21.87 18.1699 21.48 17.2699L18.35 9.95993C17.97 9.05993 17.44 8.50993 16.93 8.48993C16.46 8.45993 15.85 8.95993 15.37 9.80993L13.48 13.2199C12.9 14.2599 11.99 14.9099 11 14.9999C10.01 15.0799 8.99999 14.5999 8.24999 13.6599L8.02999 13.3799C7.60999 12.8299 7.12999 12.5499 6.65999 12.5499Z" fill="#171717"/>
<path d="M7.47 8.75C5.41 8.75 3.72 7.07 3.72 5C3.72 2.93 5.4 1.25 7.47 1.25C9.54 1.25 11.22 2.93 11.22 5C11.22 7.07 9.54 8.75 7.47 8.75ZM7.47 2.75C6.23 2.75 5.22 3.76 5.22 5C5.22 6.24 6.23 7.25 7.47 7.25C8.71 7.25 9.72 6.24 9.72 5C9.72 3.76 8.71 2.75 7.47 2.75Z" fill="#171717"/>
</svg>
