<svg width="25" height="24" viewBox="0 0 25 24" fill="none" xmlns="http://www.w3.org/2000/svg">
<path d="M22.19 2.71002C22.11 2.53002 21.97 2.37999 21.78 2.29999C21.69 2.25999 21.59 2.23999 21.49 2.23999H17.49C17.08 2.23999 16.74 2.57999 16.74 2.98999C16.74 3.39999 17.08 3.73999 17.49 3.73999H19.68L14.96 8.46002C14.67 8.75002 14.67 9.23002 14.96 9.52002C15.11 9.67002 15.3 9.73999 15.49 9.73999C15.68 9.73999 15.87 9.67002 16.02 9.52002L20.74 4.79999V7C20.74 7.41 21.08 7.75 21.49 7.75C21.9 7.75 22.24 7.41 22.24 7V3C22.25 2.9 22.23 2.81002 22.19 2.71002Z" fill="#171717"/>
<path d="M8.96997 14.4699L4.25 19.1899V16.9999C4.25 16.5899 3.91 16.2499 3.5 16.2499C3.09 16.2499 2.75 16.5899 2.75 16.9999V20.9999C2.75 21.0999 2.77 21.1899 2.81 21.2899C2.89 21.4699 3.02997 21.6199 3.21997 21.6999C3.30997 21.7399 3.41001 21.7599 3.51001 21.7599H7.51001C7.92001 21.7599 8.26001 21.4199 8.26001 21.0099C8.26001 20.5999 7.92001 20.2599 7.51001 20.2599H5.32001L10.04 15.5399C10.33 15.2499 10.33 14.7699 10.04 14.4799C9.74998 14.1899 9.25997 14.1799 8.96997 14.4699Z" fill="#171717"/>
<path opacity="0.4" d="M2.70001 14.75C2.35001 14.75 2.03997 14.5 1.96997 14.15C1.82997 13.45 1.75 12.72 1.75 12C1.75 6.07 6.57 1.25 12.5 1.25C13.23 1.25 13.96 1.31997 14.67 1.46997C15.08 1.54997 15.34 1.94998 15.26 2.34998C15.18 2.75998 14.77 3.01 14.38 2.94C13.77 2.82 13.14 2.75 12.51 2.75C7.41001 2.75 3.26001 6.9 3.26001 12C3.26001 12.62 3.32001 13.25 3.45001 13.85C3.53001 14.26 3.26999 14.65 2.85999 14.73C2.79999 14.75 2.75001 14.75 2.70001 14.75Z" fill="#171717"/>
<path opacity="0.4" d="M12.5 22.75C11.77 22.75 11.04 22.6801 10.33 22.5301C9.91999 22.4501 9.65997 22.0501 9.73997 21.6501C9.81997 21.2401 10.23 20.99 10.62 21.06C11.23 21.18 11.86 21.25 12.49 21.25C17.59 21.25 21.74 17.1 21.74 12C21.74 11.38 21.68 10.7601 21.56 10.1501C21.48 9.74006 21.74 9.35006 22.15 9.27006C22.56 9.19006 22.95 9.45003 23.03 9.86003C23.17 10.56 23.24 11.28 23.24 12C23.25 17.93 18.43 22.75 12.5 22.75Z" fill="#171717"/>
</svg>
