<svg width="25" height="24" viewBox="0 0 25 24" fill="none" xmlns="http://www.w3.org/2000/svg">
<path d="M21.5 7.75C21.09 7.75 20.75 7.41 20.75 7V3.75H17.5C17.09 3.75 16.75 3.41 16.75 3C16.75 2.59 17.09 2.25 17.5 2.25H21.5C21.91 2.25 22.25 2.59 22.25 3V7C22.25 7.41 21.91 7.75 21.5 7.75Z" fill="#171717"/>
<path d="M15.5 9.74997C15.31 9.74997 15.1199 9.68 14.9699 9.53C14.6799 9.24 14.6799 8.75994 14.9699 8.46994L20.9699 2.46994C21.2599 2.17994 21.74 2.17994 22.03 2.46994C22.32 2.75994 22.32 3.24 22.03 3.53L16.03 9.53C15.88 9.68 15.69 9.74997 15.5 9.74997Z" fill="#171717"/>
<path d="M7.5 21.75H3.5C3.09 21.75 2.75 21.41 2.75 21V17C2.75 16.59 3.09 16.25 3.5 16.25C3.91 16.25 4.25 16.59 4.25 17V20.25H7.5C7.91 20.25 8.25 20.59 8.25 21C8.25 21.41 7.91 21.75 7.5 21.75Z" fill="#171717"/>
<path d="M3.49997 21.75C3.30997 21.75 3.11994 21.68 2.96994 21.53C2.67994 21.24 2.67994 20.7599 2.96994 20.4699L8.96994 14.4699C9.25994 14.1799 9.74 14.1799 10.03 14.4699C10.32 14.7599 10.32 15.24 10.03 15.53L4.03 21.53C3.88 21.68 3.68997 21.75 3.49997 21.75Z" fill="#171717"/>
<path d="M2.70001 14.75C2.35001 14.75 2.03997 14.5 1.96997 14.15C1.82997 13.45 1.75 12.72 1.75 12C1.75 6.07 6.57 1.25 12.5 1.25C13.23 1.25 13.96 1.31997 14.67 1.46997C15.08 1.54997 15.34 1.94998 15.26 2.34998C15.18 2.75998 14.77 3.01 14.38 2.94C13.77 2.82 13.14 2.75 12.51 2.75C7.41001 2.75 3.26001 6.9 3.26001 12C3.26001 12.62 3.32001 13.25 3.45001 13.85C3.53001 14.26 3.26999 14.65 2.85999 14.73C2.79999 14.75 2.75001 14.75 2.70001 14.75Z" fill="#171717"/>
<path d="M12.5 22.75C11.77 22.75 11.0401 22.6801 10.3301 22.5301C9.92006 22.4501 9.66003 22.0501 9.74003 21.6501C9.82003 21.2401 10.23 20.99 10.62 21.06C11.23 21.18 11.86 21.25 12.49 21.25C17.59 21.25 21.74 17.1 21.74 12C21.74 11.38 21.68 10.7601 21.56 10.1501C21.48 9.74006 21.7401 9.35006 22.1501 9.27006C22.5501 9.19006 22.9501 9.45003 23.0301 9.86003C23.1701 10.56 23.24 11.28 23.24 12C23.25 17.93 18.43 22.75 12.5 22.75Z" fill="#171717"/>
</svg>
