<svg width="25" height="24" viewBox="0 0 25 24" fill="none" xmlns="http://www.w3.org/2000/svg">
<g opacity="0.4">
<path fill-rule="evenodd" clip-rule="evenodd" d="M16.75 3C16.75 2.58579 17.0858 2.25 17.5 2.25H21.5C21.9142 2.25 22.25 2.58579 22.25 3V7C22.25 7.41421 21.9142 7.75 21.5 7.75C21.0858 7.75 20.75 7.41421 20.75 7V3.75H17.5C17.0858 3.75 16.75 3.41421 16.75 3Z" fill="#171717"/>
<path fill-rule="evenodd" clip-rule="evenodd" d="M22.0303 2.46967C22.3232 2.76256 22.3232 3.23744 22.0303 3.53033L16.0303 9.53033C15.7374 9.82322 15.2626 9.82322 14.9697 9.53033C14.6768 9.23744 14.6768 8.76256 14.9697 8.46967L20.9697 2.46967C21.2626 2.17678 21.7374 2.17678 22.0303 2.46967Z" fill="#171717"/>
<path fill-rule="evenodd" clip-rule="evenodd" d="M3.5 16.25C3.91421 16.25 4.25 16.5858 4.25 17V20.25H7.5C7.91421 20.25 8.25 20.5858 8.25 21C8.25 21.4142 7.91421 21.75 7.5 21.75H3.5C3.08579 21.75 2.75 21.4142 2.75 21V17C2.75 16.5858 3.08579 16.25 3.5 16.25Z" fill="#171717"/>
<path fill-rule="evenodd" clip-rule="evenodd" d="M10.0303 14.4697C10.3232 14.7626 10.3232 15.2374 10.0303 15.5303L4.03033 21.5303C3.73744 21.8232 3.26256 21.8232 2.96967 21.5303C2.67678 21.2374 2.67678 20.7626 2.96967 20.4697L8.96967 14.4697C9.26256 14.1768 9.73744 14.1768 10.0303 14.4697Z" fill="#171717"/>
</g>
<path fill-rule="evenodd" clip-rule="evenodd" d="M1.75 12C1.75 6.06579 6.56579 1.25 12.5 1.25C13.2404 1.25 13.9696 1.32508 14.6671 1.46458C15.0733 1.54581 15.3367 1.94093 15.2555 2.3471C15.1742 2.75327 14.7791 3.01668 14.3729 2.93545C13.7704 2.81494 13.1396 2.75 12.5 2.75C7.39421 2.75 3.25 6.89421 3.25 12C3.25 12.6393 3.31487 13.2593 3.435 13.8507C3.51746 14.2566 3.25523 14.6525 2.84931 14.735C2.44338 14.8174 2.04748 14.5552 1.96502 14.1493C1.82516 13.4607 1.75 12.7407 1.75 12Z" fill="#171717"/>
<path fill-rule="evenodd" clip-rule="evenodd" d="M22.1529 9.26446C22.5591 9.18323 22.9542 9.44664 23.0354 9.85281C23.1747 10.5492 23.25 11.2684 23.25 11.9999C23.25 17.9341 18.4342 22.7499 12.5 22.7499C11.7596 22.7499 11.0303 22.6748 10.3329 22.5353C9.92672 22.4541 9.6633 22.059 9.74454 21.6528C9.82577 21.2466 10.2209 20.9832 10.6271 21.0645C11.2296 21.185 11.8604 21.2499 12.5 21.2499C17.6058 21.2499 21.75 17.1057 21.75 11.9999C21.75 11.3714 21.6853 10.7506 21.5645 10.147C21.4833 9.74082 21.7467 9.3457 22.1529 9.26446Z" fill="#171717"/>
</svg>
