<svg width="25" height="24" viewBox="0 0 25 24" fill="none" xmlns="http://www.w3.org/2000/svg">
<path d="M8.5 11.75C8.09 11.75 7.75 11.41 7.75 11V6C7.75 3.38 9.88 1.25 12.5 1.25C15.12 1.25 17.25 3.38 17.25 6V6.3C17.25 6.71 16.91 7.05 16.5 7.05C16.09 7.05 15.75 6.71 15.75 6.3V6C15.75 4.21 14.29 2.75 12.5 2.75C10.71 2.75 9.25 4.21 9.25 6V11C9.25 11.41 8.91 11.75 8.5 11.75Z" fill="#171717"/>
<path d="M12.5 16.25C11.16 16.25 9.88003 15.68 8.98003 14.69C8.70003 14.38 8.73003 13.91 9.03003 13.63C9.34003 13.35 9.81003 13.38 10.09 13.68C10.7 14.36 11.58 14.75 12.5 14.75C14.29 14.75 15.75 13.29 15.75 11.5V11C15.75 10.59 16.09 10.25 16.5 10.25C16.91 10.25 17.25 10.59 17.25 11V11.5C17.25 14.12 15.12 16.25 12.5 16.25Z" fill="#171717"/>
<path d="M12.4999 19.7499C10.3699 19.7499 8.32994 18.9499 6.76994 17.4999C6.46994 17.2199 6.44994 16.7399 6.72994 16.4399C7.01994 16.1299 7.49994 16.1199 7.79994 16.3999C9.07994 17.5899 10.7499 18.2499 12.4999 18.2499C16.2999 18.2499 19.3999 15.1499 19.3999 11.3499V9.6499C19.3999 9.2399 19.7399 8.8999 20.1499 8.8999C20.5599 8.8999 20.8999 9.2399 20.8999 9.6499V11.3499C20.8999 15.9799 17.1299 19.7499 12.4999 19.7499Z" fill="#171717"/>
<path d="M5.44998 15.0799C5.15998 15.0799 4.87998 14.9099 4.75998 14.6199C4.31998 13.5799 4.09998 12.4899 4.09998 11.3499V9.6499C4.09998 9.2399 4.43998 8.8999 4.84998 8.8999C5.25998 8.8999 5.59998 9.2399 5.59998 9.6499V11.3499C5.59998 12.2799 5.77998 13.1799 6.13998 14.0299C6.29998 14.4099 6.11998 14.8499 5.73998 15.0099C5.64998 15.0599 5.54998 15.0799 5.44998 15.0799Z" fill="#171717"/>
<path d="M4.41999 19.74C4.22999 19.74 4.03999 19.67 3.88999 19.52C3.59999 19.23 3.59999 18.75 3.88999 18.46L20.04 2.31003C20.33 2.02003 20.81 2.02003 21.1 2.31003C21.39 2.60003 21.39 3.08003 21.1 3.37003L4.95999 19.52C4.80999 19.67 4.61999 19.74 4.41999 19.74Z" fill="#171717"/>
<path d="M11.5 6.75C11.09 6.75 10.75 6.41 10.75 6V3C10.75 2.59 11.09 2.25 11.5 2.25C11.91 2.25 12.25 2.59 12.25 3V6C12.25 6.41 11.91 6.75 11.5 6.75Z" fill="#171717"/>
<path d="M12.5 22.75C12.09 22.75 11.75 22.41 11.75 22V19C11.75 18.59 12.09 18.25 12.5 18.25C12.91 18.25 13.25 18.59 13.25 19V22C13.25 22.41 12.91 22.75 12.5 22.75Z" fill="#171717"/>
</svg>
