<svg width="25" height="24" viewBox="0 0 25 24" fill="none" xmlns="http://www.w3.org/2000/svg">
<path d="M8.49963 10.02V11.5C8.49963 13.71 10.2896 15.5 12.4996 15.5C14.7096 15.5 16.4996 13.71 16.4996 11.5V6C16.4996 3.79 14.7096 2 12.4996 2C10.2896 2 8.49963 3.79 8.49963 6" stroke="#171717" stroke-width="1.5" stroke-linecap="round" stroke-linejoin="round"/>
<path d="M4.84961 9.6499V11.3499C4.84961 15.5699 8.27961 18.9999 12.4996 18.9999C16.7196 18.9999 20.1496 15.5699 20.1496 11.3499V9.6499" stroke="#171717" stroke-width="1.5" stroke-linecap="round" stroke-linejoin="round"/>
<path d="M11.1096 6.43012C12.0096 6.10012 12.9896 6.10012 13.8896 6.43012" stroke="#171717" stroke-width="1.5" stroke-linecap="round" stroke-linejoin="round"/>
<path d="M11.6996 8.55007C12.2296 8.41007 12.7796 8.41007 13.3096 8.55007" stroke="#171717" stroke-width="1.5" stroke-linecap="round" stroke-linejoin="round"/>
<path d="M12.4996 19V22" stroke="#171717" stroke-width="1.5" stroke-linecap="round" stroke-linejoin="round"/>
</svg>
