<svg width="25" height="24" viewBox="0 0 25 24" fill="none" xmlns="http://www.w3.org/2000/svg">
<path d="M7.89 17.59C7.68 17.59 7.46 17.5 7.31 17.32C6.3 16.11 5.75 14.58 5.75 13V8C5.75 4.28 8.78 1.25 12.5 1.25C15.6 1.25 18.29 3.35 19.05 6.35C19.15 6.75 18.91 7.16 18.51 7.26C18.12 7.36 17.7 7.12 17.6 6.72C17 4.38 14.91 2.75 12.5 2.75C9.61 2.75 7.25 5.1 7.25 8V13C7.25 14.23 7.68 15.42 8.46 16.36C8.73 16.68 8.68 17.15 8.36 17.42C8.23 17.53 8.06 17.59 7.89 17.59Z" fill="#171717"/>
<path d="M12.5 19.75C11.69 19.75 10.9 19.61 10.16 19.33C9.76996 19.19 9.56996 18.75 9.71996 18.37C9.85996 17.98 10.3 17.78 10.68 17.93C11.26 18.15 11.88 18.26 12.5 18.26C15.39 18.26 17.75 15.91 17.75 13.01V9.97998C17.75 9.56998 18.09 9.22998 18.5 9.22998C18.91 9.22998 19.25 9.56998 19.25 9.97998V13C19.25 16.72 16.22 19.75 12.5 19.75Z" fill="#171717"/>
<path d="M12.5 22.75C10.02 22.75 7.66002 21.82 5.85002 20.13C5.55002 19.85 5.53002 19.37 5.81002 19.07C6.09002 18.77 6.57002 18.75 6.87002 19.03C8.40002 20.46 10.4 21.24 12.49 21.24C17.04 21.24 20.74 17.54 20.74 12.99V10.99C20.74 10.58 21.08 10.24 21.49 10.24C21.9 10.24 22.24 10.58 22.24 10.99V12.99C22.25 18.38 17.88 22.75 12.5 22.75Z" fill="#171717"/>
<path d="M2.99994 22.7399C2.80994 22.7399 2.61994 22.6699 2.46994 22.5199C2.17994 22.2299 2.17994 21.7499 2.46994 21.4599L21.4699 2.45993C21.7599 2.16993 22.2399 2.16993 22.5299 2.45993C22.8199 2.74993 22.8199 3.22993 22.5299 3.51993L3.52994 22.5199C3.37994 22.6699 3.18994 22.7399 2.99994 22.7399Z" fill="#171717"/>
<path d="M12.05 6.25001C11.64 6.25001 11.3 5.91001 11.3 5.50001V2.26001C11.3 1.85001 11.64 1.51001 12.05 1.51001C12.46 1.51001 12.8 1.85001 12.8 2.26001V5.50001C12.8 5.92001 12.46 6.25001 12.05 6.25001Z" fill="#171717"/>
<path d="M9 8.25C8.59 8.25 8.25 7.91 8.25 7.5V3.5C8.25 3.09 8.59 2.75 9 2.75C9.41 2.75 9.75 3.09 9.75 3.5V7.5C9.75 7.91 9.41 8.25 9 8.25Z" fill="#171717"/>
</svg>
