<svg width="25" height="24" viewBox="0 0 25 24" fill="none" xmlns="http://www.w3.org/2000/svg">
<path d="M12.5 19.75C8.78 19.75 5.75 16.72 5.75 13V8C5.75 4.28 8.78 1.25 12.5 1.25C16.22 1.25 19.25 4.28 19.25 8V13C19.25 16.72 16.22 19.75 12.5 19.75ZM12.5 2.75C9.61 2.75 7.25 5.1 7.25 8V13C7.25 15.9 9.61 18.25 12.5 18.25C15.39 18.25 17.75 15.9 17.75 13V8C17.75 5.1 15.39 2.75 12.5 2.75Z" fill="#171717"/>
<path d="M12.5 22.75C7.12 22.75 2.75 18.38 2.75 13V11C2.75 10.59 3.09 10.25 3.5 10.25C3.91 10.25 4.25 10.59 4.25 11V13C4.25 17.55 7.95 21.25 12.5 21.25C17.05 21.25 20.75 17.55 20.75 13V11C20.75 10.59 21.09 10.25 21.5 10.25C21.91 10.25 22.25 10.59 22.25 11V13C22.25 18.38 17.88 22.75 12.5 22.75Z" fill="#171717"/>
<path d="M15.11 8.22988C15.03 8.22988 14.94 8.21988 14.85 8.18988C13.24 7.60988 11.47 7.60988 9.86 8.18988C9.48 8.32988 9.05 8.12988 8.91 7.73988C8.77 7.34988 8.97 6.91988 9.36 6.77988C11.3 6.07988 13.43 6.07988 15.37 6.77988C15.76 6.91988 15.96 7.34988 15.82 7.73988C15.71 8.04988 15.42 8.22988 15.11 8.22988Z" fill="#171717"/>
<path d="M14.2 11.23C14.14 11.23 14.07 11.22 14 11.2C12.93 10.91 11.8 10.91 10.73 11.2C10.32 11.31 9.92004 11.07 9.81004 10.67C9.70004 10.27 9.94004 9.85998 10.34 9.74998C11.67 9.38998 13.07 9.38998 14.4 9.74998C14.8 9.85998 15.04 10.27 14.93 10.67C14.83 11.02 14.53 11.23 14.2 11.23Z" fill="#171717"/>
</svg>
