<svg width="25" height="24" viewBox="0 0 25 24" fill="none" xmlns="http://www.w3.org/2000/svg">
<path d="M16.5 6.3V6C16.5 3.79 14.71 2 12.5 2C10.29 2 8.5 3.79 8.5 6V11" stroke="#171717" stroke-width="1.5" stroke-linecap="round" stroke-linejoin="round"/>
<path d="M4.84998 9.6499V11.3499C4.84998 12.4099 5.05998 13.4099 5.44998 14.3299" stroke="#171717" stroke-width="1.5" stroke-linecap="round" stroke-linejoin="round"/>
<path d="M20.5701 2.84009L4.43005 18.9901" stroke="#171717" stroke-width="1.5" stroke-linecap="round" stroke-linejoin="round"/>
<path d="M11.5 3V6" stroke="#171717" stroke-width="1.5" stroke-linecap="round" stroke-linejoin="round"/>
<g opacity="0.4">
<path d="M9.53906 14.19C10.2691 15 11.3291 15.5 12.4991 15.5C14.7091 15.5 16.4991 13.71 16.4991 11.5V11" stroke="#171717" stroke-width="1.5" stroke-linecap="round" stroke-linejoin="round"/>
<path d="M7.2793 16.9504C8.6493 18.2204 10.4793 19.0004 12.4993 19.0004C16.7193 19.0004 20.1493 15.5704 20.1493 11.3504V9.65039" stroke="#171717" stroke-width="1.5" stroke-linecap="round" stroke-linejoin="round"/>
<path d="M12.5 19V22" stroke="#171717" stroke-width="1.5" stroke-linecap="round" stroke-linejoin="round"/>
</g>
</svg>
