<svg width="25" height="24" viewBox="0 0 25 24" fill="none" xmlns="http://www.w3.org/2000/svg">
<path d="M12.5 16.25C9.88 16.25 7.75 14.12 7.75 11.5V6C7.75 3.38 9.88 1.25 12.5 1.25C15.12 1.25 17.25 3.38 17.25 6V11.5C17.25 14.12 15.12 16.25 12.5 16.25ZM12.5 2.75C10.71 2.75 9.25 4.21 9.25 6V11.5C9.25 13.29 10.71 14.75 12.5 14.75C14.29 14.75 15.75 13.29 15.75 11.5V6C15.75 4.21 14.29 2.75 12.5 2.75Z" fill="#171717"/>
<path d="M12.5 19.7499C7.86998 19.7499 4.09998 15.9799 4.09998 11.3499V9.6499C4.09998 9.2399 4.43998 8.8999 4.84998 8.8999C5.25998 8.8999 5.59998 9.2399 5.59998 9.6499V11.3499C5.59998 15.1499 8.69998 18.2499 12.5 18.2499C16.3 18.2499 19.4 15.1499 19.4 11.3499V9.6499C19.4 9.2399 19.74 8.8999 20.15 8.8999C20.56 8.8999 20.9 9.2399 20.9 9.6499V11.3499C20.9 15.9799 17.13 19.7499 12.5 19.7499Z" fill="#171717"/>
<path d="M13.89 7.18007C13.81 7.18007 13.72 7.17007 13.63 7.14007C12.9 6.87007 12.1 6.87007 11.37 7.14007C10.98 7.28007 10.55 7.08007 10.41 6.69007C10.27 6.30007 10.47 5.87007 10.86 5.73007C11.92 5.35007 13.09 5.35007 14.15 5.73007C14.54 5.87007 14.74 6.30007 14.6 6.69007C14.48 6.99007 14.19 7.18007 13.89 7.18007Z" fill="#171717"/>
<path d="M13.3 9.30007C13.23 9.30007 13.17 9.29007 13.1 9.27007C12.7 9.16007 12.29 9.16007 11.89 9.27007C11.49 9.38007 11.08 9.14007 10.97 8.74007C10.86 8.35007 11.1 7.94007 11.5 7.83007C12.15 7.65007 12.85 7.65007 13.5 7.83007C13.9 7.94007 14.14 8.35007 14.03 8.75007C13.94 9.08007 13.63 9.30007 13.3 9.30007Z" fill="#171717"/>
<path d="M12.5 22.75C12.09 22.75 11.75 22.41 11.75 22V19C11.75 18.59 12.09 18.25 12.5 18.25C12.91 18.25 13.25 18.59 13.25 19V22C13.25 22.41 12.91 22.75 12.5 22.75Z" fill="#171717"/>
</svg>
