<svg width="25" height="24" viewBox="0 0 25 24" fill="none" xmlns="http://www.w3.org/2000/svg">
<path d="M22.5 10V9C22.5 4 20.5 2 15.5 2H9.5C4.5 2 2.5 4 2.5 9V15C2.5 20 4.5 22 9.5 22H11.5" stroke="#171717" stroke-width="1.5" stroke-linecap="round" stroke-linejoin="round"/>
<g opacity="0.4">
<path d="M15.7701 22.0001C16.5654 22.0001 17.2101 21.3554 17.2101 20.5601C17.2101 19.7648 16.5654 19.1201 15.7701 19.1201C14.9748 19.1201 14.3301 19.7648 14.3301 20.5601C14.3301 21.3554 14.9748 22.0001 15.7701 22.0001Z" stroke="#171717" stroke-width="1.5" stroke-linecap="round" stroke-linejoin="round"/>
<path d="M22.5002 19.6001V13.9601C22.5002 12.7601 21.7502 12.5901 20.9802 12.8001L18.0902 13.5901C17.5702 13.7301 17.2002 14.1501 17.2002 14.7501V15.7601V16.4401V20.5701" stroke="#171717" stroke-width="1.5" stroke-linecap="round" stroke-linejoin="round"/>
<path d="M21.0601 21.0402C21.8554 21.0402 22.5001 20.3954 22.5001 19.6002C22.5001 18.8049 21.8554 18.1602 21.0601 18.1602C20.2648 18.1602 19.6201 18.8049 19.6201 19.6002C19.6201 20.3954 20.2648 21.0402 21.0601 21.0402Z" stroke="#171717" stroke-width="1.5" stroke-linecap="round" stroke-linejoin="round"/>
<path d="M17.21 16.43L22.5 14.99" stroke="#171717" stroke-width="1.5" stroke-linecap="round" stroke-linejoin="round"/>
</g>
</svg>
