<svg width="25" height="24" viewBox="0 0 25 24" fill="none" xmlns="http://www.w3.org/2000/svg">
<path opacity="0.4" d="M21.21 17.52C20.84 18.74 20.11 19.68 19.07 20.26C19.03 20.1 19.01 19.93 19.01 19.76C19.01 18.54 20 17.54 21.21 17.52Z" fill="#171717"/>
<path opacity="0.4" d="M21.5 7.52002V15.48C21.5 15.7 21.49 15.91 21.48 16.12L18.03 17.07V20.71C17.56 20.86 17.05 20.95 16.49 20.98C16.52 20.91 16.53 20.84 16.53 20.76C16.53 20.35 16.19 20.02 15.79 20.02C15.38 20.02 15.04 20.35 15.04 20.76C15.04 20.84 15.05 20.93 15.09 21H8.02C4.57 21 2.5 18.94 2.5 15.48V7.52002C2.5 4.06002 4.57 2 8.02 2H15.98C19.43 2 21.5 4.06002 21.5 7.52002Z" fill="#171717"/>
<path d="M22.81 12.25C22.55 12.06 22.13 11.86 21.5 11.92C21.34 11.93 21.17 11.96 20.98 12.01L18 12.8301C17.11 13.0601 16.53 13.81 16.53 14.74V18.6501C16.3 18.5701 16.05 18.5201 15.79 18.5201C14.55 18.5201 13.54 19.52 13.54 20.76C13.54 20.84 13.54 20.92 13.55 21C13.67 22.12 14.63 23 15.79 23C17.01 23 18 22.01 18.02 20.8C18.02 20.78 18.03 20.77 18.03 20.76V17.07L21.48 16.12L22 15.98V17.66C21.77 17.58 21.52 17.5201 21.25 17.5201H21.21C20 17.5401 19.01 18.54 19.01 19.76C19.01 19.93 19.03 20.1 19.07 20.26C19.3 21.26 20.19 22.01 21.25 22.01C22.48 22.01 23.47 21.02 23.49 19.8C23.49 19.79 23.5 19.78 23.5 19.76V13.93C23.5 13.17 23.27 12.61 22.81 12.25ZM15.79 21.5C15.46 21.5 15.18 21.29 15.09 21C15.05 20.93 15.04 20.84 15.04 20.76C15.04 20.35 15.38 20.0201 15.79 20.0201C16.19 20.0201 16.53 20.35 16.53 20.76C16.53 20.84 16.52 20.91 16.49 20.98C16.4 21.28 16.12 21.5 15.79 21.5ZM21.25 20.51C20.85 20.51 20.51 20.17 20.51 19.76C20.51 19.36 20.85 19.0201 21.25 19.0201C21.66 19.0201 22 19.36 22 19.76C22 20.17 21.66 20.51 21.25 20.51Z" fill="#171717"/>
</svg>
