<svg width="25" height="24" viewBox="0 0 25 24" fill="none" xmlns="http://www.w3.org/2000/svg">
<path d="M11.5 22.75H9.5C4.07 22.75 1.75 20.43 1.75 15V9C1.75 3.57 4.07 1.25 9.5 1.25H15.5C20.93 1.25 23.25 3.57 23.25 9V10C23.25 10.41 22.91 10.75 22.5 10.75C22.09 10.75 21.75 10.41 21.75 10V9C21.75 4.39 20.11 2.75 15.5 2.75H9.5C4.89 2.75 3.25 4.39 3.25 9V15C3.25 19.61 4.89 21.25 9.5 21.25H11.5C11.91 21.25 12.25 21.59 12.25 22C12.25 22.41 11.91 22.75 11.5 22.75Z" fill="#171717"/>
<path d="M15.7701 22.7501C14.5601 22.7501 13.5801 21.7701 13.5801 20.5601C13.5801 19.3501 14.5601 18.3701 15.7701 18.3701C16.9801 18.3701 17.9601 19.3501 17.9601 20.5601C17.9601 21.7701 16.9801 22.7501 15.7701 22.7501ZM15.7701 19.8601C15.3901 19.8601 15.0801 20.1701 15.0801 20.5501C15.0801 20.9301 15.3901 21.2401 15.7701 21.2401C16.1501 21.2401 16.4601 20.9301 16.4601 20.5501C16.4601 20.1701 16.1501 19.8601 15.7701 19.8601Z" fill="#171717"/>
<path d="M17.21 21.31C16.8 21.31 16.46 20.97 16.46 20.56V14.74C16.46 13.83 17.02 13.09 17.9 12.86L20.79 12.07C21.69 11.82 22.25 12.06 22.57 12.3C22.88 12.54 23.25 13.0201 23.25 13.9501V19.5901C23.25 20.0001 22.91 20.3401 22.5 20.3401C22.09 20.3401 21.75 20.0001 21.75 19.5901V13.9501C21.75 13.6301 21.68 13.51 21.65 13.49C21.62 13.47 21.48 13.43 21.17 13.51L18.28 14.3C17.98 14.38 17.95 14.59 17.95 14.74V20.56C17.96 20.97 17.62 21.31 17.21 21.31Z" fill="#171717"/>
<path d="M21.0601 21.7902C19.8501 21.7902 18.8701 20.8102 18.8701 19.6002C18.8701 18.3902 19.8501 17.4102 21.0601 17.4102C22.2701 17.4102 23.2501 18.3902 23.2501 19.6002C23.2501 20.8102 22.2701 21.7902 21.0601 21.7902ZM21.0601 18.9002C20.6801 18.9002 20.3701 19.2102 20.3701 19.5902C20.3701 19.9702 20.6801 20.2802 21.0601 20.2802C21.4401 20.2802 21.7501 19.9702 21.7501 19.5902C21.7501 19.2102 21.4401 18.9002 21.0601 18.9002Z" fill="#171717"/>
<path d="M17.2101 17.1801C16.8801 17.1801 16.5801 16.9601 16.4901 16.6301C16.3801 16.2301 16.6201 15.8201 17.0201 15.7101L22.3101 14.2701C22.7101 14.1601 23.1201 14.4001 23.2301 14.8001C23.3401 15.2001 23.1001 15.6101 22.7001 15.7201L17.4101 17.1601C17.3401 17.1701 17.2701 17.1801 17.2101 17.1801Z" fill="#171717"/>
</svg>
