<svg width="25" height="24" viewBox="0 0 25 24" fill="none" xmlns="http://www.w3.org/2000/svg">
<path d="M23.29 21.76L22.57 21.04C22.94 20.48 23.16 19.8 23.16 19.08C23.16 17.1 21.56 15.5 19.58 15.5C17.6 15.5 16 17.1 16 19.08C16 21.06 17.6 22.66 19.58 22.66C20.31 22.66 20.98 22.44 21.54 22.07L22.26 22.79C22.4 22.93 22.59 23 22.77 23C22.96 23 23.14 22.93 23.28 22.79C23.57 22.5 23.57 22.04 23.29 21.76Z" fill="#171717"/>
<path opacity="0.4" d="M16.69 2H8.32002C4.68002 2 2.51001 4.17 2.51001 7.81V16.18C2.51001 19.82 4.68002 21.99 8.32002 21.99H16.69C20.33 21.99 22.5 19.82 22.5 16.18V7.81C22.5 4.17 20.33 2 16.69 2Z" fill="#171717"/>
<path d="M14.28 5.3C13.96 5.05 13.38 4.81001 12.46 5.06001L9.48003 5.88002C8.59003 6.11002 8.01003 6.86 8.01003 7.8V9.55V11.71C7.78003 11.63 7.53003 11.57 7.27003 11.57C6.03003 11.57 5.03003 12.58 5.03003 13.81C5.03003 15.04 6.04003 16.05 7.27003 16.05C8.49003 16.05 9.49003 15.06 9.51003 13.85C9.51003 13.84 9.52003 13.83 9.52003 13.82V10.12L13.49 9.03999V10.72C13.26 10.64 13.01 10.58 12.74 10.58C11.5 10.58 10.5 11.59 10.5 12.82C10.5 14.06 11.51 15.06 12.74 15.06C13.96 15.06 14.96 14.07 14.98 12.85C14.98 12.84 14.99 12.83 14.99 12.81V8.05V6.97999C14.98 6.21999 14.74 5.65 14.28 5.3ZM7.26003 14.55C6.85003 14.55 6.52003 14.22 6.52003 13.81C6.52003 13.4 6.85003 13.07 7.26003 13.07C7.67003 13.07 8.00003 13.4 8.00003 13.81C8.00003 14.22 7.67003 14.55 7.26003 14.55ZM12.73 13.55C12.32 13.55 11.99 13.22 11.99 12.81C11.99 12.4 12.32 12.07 12.73 12.07C13.14 12.07 13.47 12.4 13.47 12.81C13.47 13.22 13.14 13.55 12.73 13.55Z" fill="#171717"/>
</svg>
