<svg width="25" height="24" viewBox="0 0 25 24" fill="none" xmlns="http://www.w3.org/2000/svg">
<path d="M6.78003 22.75C4.65003 22.75 2.91003 21.01 2.91003 18.88C2.91003 16.75 4.65003 15.01 6.78003 15.01C8.91003 15.01 10.65 16.75 10.65 18.88C10.65 21.01 8.91003 22.75 6.78003 22.75ZM6.78003 16.51C5.47003 16.51 4.41003 17.57 4.41003 18.88C4.41003 20.19 5.47003 21.25 6.78003 21.25C8.09003 21.25 9.15003 20.19 9.15003 18.88C9.15003 17.57 8.09003 16.51 6.78003 16.51Z" fill="#171717"/>
<path d="M9.90002 19.6299C9.49002 19.6299 9.15002 19.2899 9.15002 18.8799V6.29989C9.15002 4.71989 10.1 3.47989 11.62 3.06989L17.86 1.36989C19.13 1.01989 20.2 1.14989 20.95 1.72989C21.71 2.30989 22.09 3.27989 22.09 4.60989V16.8099C22.09 17.2199 21.75 17.5599 21.34 17.5599C20.93 17.5599 20.59 17.2199 20.59 16.8099V4.59989C20.59 4.01989 20.49 3.25989 20.04 2.91989C19.55 2.53989 18.71 2.68989 18.25 2.81989L12.01 4.51989C11.14 4.75989 10.65 5.40989 10.65 6.30989V18.8899C10.65 19.2899 10.31 19.6299 9.90002 19.6299Z" fill="#171717"/>
<path d="M18.22 20.6699C16.09 20.6699 14.35 18.9299 14.35 16.7999C14.35 14.6699 16.09 12.9299 18.22 12.9299C20.35 12.9299 22.09 14.6699 22.09 16.7999C22.09 18.9299 20.35 20.6699 18.22 20.6699ZM18.22 14.4299C16.91 14.4299 15.85 15.4899 15.85 16.7999C15.85 18.1099 16.91 19.1699 18.22 19.1699C19.53 19.1699 20.59 18.1099 20.59 16.7999C20.59 15.4899 19.53 14.4299 18.22 14.4299Z" fill="#171717"/>
<path d="M9.90005 10.27C9.57005 10.27 9.27005 10.05 9.18005 9.72003C9.07005 9.32003 9.30005 8.90003 9.70005 8.79003L21.14 5.67003C21.54 5.56003 21.95 5.80003 22.06 6.20003C22.17 6.60003 21.93 7.01003 21.53 7.12003L10.1 10.24C10.03 10.26 9.96005 10.27 9.90005 10.27Z" fill="#171717"/>
</svg>
