<svg width="25" height="24" viewBox="0 0 25 24" fill="none" xmlns="http://www.w3.org/2000/svg">
<path d="M7.5 2.05005V21.9501C4.35 21.6601 2.5 19.5501 2.5 16.1901V7.81006C2.5 4.45006 4.35 2.34005 7.5 2.05005Z" fill="#171717"/>
<path opacity="0.4" d="M22.5 7.81V16.19C22.5 19.83 20.33 22 16.69 22H8.31C8.03 22 7.76 21.99 7.5 21.95V2.04999C7.76 2.00999 8.03 2 8.31 2H16.69C20.33 2 22.5 4.17 22.5 7.81Z" fill="#171717"/>
<path d="M18.99 6.8C18.67 6.55 18.09 6.31001 17.17 6.56001L14.19 7.38002C13.3 7.61002 12.72 8.36 12.72 9.3V11.05V13.21C12.49 13.13 12.24 13.07 11.98 13.07C10.74 13.07 9.73999 14.08 9.73999 15.31C9.73999 16.54 10.75 17.55 11.98 17.55C13.2 17.55 14.2 16.56 14.22 15.35C14.22 15.34 14.23 15.33 14.23 15.32V11.62L18.2 10.54V12.22C17.97 12.14 17.72 12.08 17.45 12.08C16.21 12.08 15.21 13.09 15.21 14.32C15.21 15.56 16.22 16.56 17.45 16.56C18.67 16.56 19.67 15.57 19.69 14.35C19.69 14.34 19.7 14.33 19.7 14.31V9.55V8.47999C19.68 7.71999 19.45 7.16 18.99 6.8ZM11.97 16.05C11.56 16.05 11.23 15.72 11.23 15.31C11.23 14.9 11.56 14.57 11.97 14.57C12.38 14.57 12.71 14.9 12.71 15.31C12.71 15.72 12.37 16.05 11.97 16.05ZM17.43 15.05C17.02 15.05 16.69 14.72 16.69 14.31C16.69 13.9 17.02 13.57 17.43 13.57C17.84 13.57 18.17 13.9 18.17 14.31C18.17 14.72 17.84 15.05 17.43 15.05Z" fill="#171717"/>
</svg>
