<svg width="25" height="24" viewBox="0 0 25 24" fill="none" xmlns="http://www.w3.org/2000/svg">
<path d="M3.08011 9.41999C3.00011 9.41999 2.91011 9.41001 2.83011 9.38001C2.44011 9.24001 2.24012 8.80999 2.37012 8.41999C3.04012 6.53999 4.20012 4.89002 5.75012 3.64002C6.07012 3.38002 6.54011 3.43 6.80011 3.75C7.06011 4.07 7.01013 4.54 6.69013 4.81C5.36013 5.88 4.36013 7.29999 3.79013 8.91999C3.68013 9.22999 3.39011 9.41999 3.08011 9.41999Z" fill="#171717"/>
<path d="M3.07999 16.08C2.76999 16.08 2.48 15.89 2.37 15.58C1.96 14.41 1.75 13.21 1.75 12C1.75 11.59 2.09 11.25 2.5 11.25C2.91 11.25 3.25 11.59 3.25 12C3.25 13.04 3.43001 14.08 3.79001 15.08C3.93001 15.47 3.71999 15.9 3.32999 16.04C3.24999 16.07 3.15999 16.08 3.07999 16.08Z" fill="#171717"/>
<path d="M12.5001 22.7501C11.4401 22.7501 10.3901 22.5901 9.37011 22.2801C8.97011 22.1601 8.75011 21.7401 8.87011 21.3401C8.99011 20.9401 9.41011 20.7201 9.81011 20.8401C10.6801 21.1101 11.5901 21.24 12.5001 21.24C17.6001 21.24 21.7501 17.09 21.7501 11.99C21.7501 11.47 21.7001 10.93 21.6001 10.36C21.5301 9.95004 21.8001 9.56004 22.2101 9.49004C22.6201 9.42004 23.0101 9.69003 23.0801 10.1C23.2001 10.76 23.2601 11.3801 23.2601 12.0001C23.2501 17.9301 18.4301 22.7501 12.5001 22.7501Z" fill="#171717"/>
<path d="M6.22022 20.5001C6.05022 20.5001 5.89022 20.4501 5.75022 20.3301C5.18022 19.8701 4.72021 19.43 4.33021 18.98C4.06021 18.67 4.10022 18.19 4.41022 17.92C4.72022 17.65 5.20022 17.6901 5.47022 18.0001C5.80022 18.3801 6.20022 18.76 6.69022 19.16C7.01022 19.42 7.06021 19.8901 6.80021 20.2101C6.66021 20.4001 6.44022 20.5001 6.22022 20.5001Z" fill="#171717"/>
<path d="M20.7399 7.09003C20.4999 7.09003 20.2699 6.98001 20.1199 6.76001C18.3899 4.24001 15.5399 2.73999 12.4999 2.73999C11.5899 2.73999 10.6799 2.87001 9.80991 3.14001C9.41991 3.26001 8.99991 3.04001 8.86991 2.64001C8.73991 2.24001 8.96991 1.82001 9.36991 1.70001C10.3899 1.39001 11.4399 1.22998 12.4999 1.22998C16.0399 1.22998 19.3499 2.98002 21.3599 5.90002C21.5899 6.24002 21.5099 6.71 21.1699 6.94C21.0399 7.05 20.8899 7.09003 20.7399 7.09003Z" fill="#171717"/>
<path d="M9.09 17.8599C7.8 17.8599 6.75 16.81 6.75 15.52C6.75 14.23 7.8 13.1799 9.09 13.1799C10.38 13.1799 11.43 14.23 11.43 15.52C11.43 16.81 10.38 17.8599 9.09 17.8599ZM9.09 14.6799C8.63 14.6799 8.25 15.06 8.25 15.52C8.25 15.98 8.63 16.3599 9.09 16.3599C9.55 16.3599 9.92999 15.98 9.92999 15.52C9.92999 15.06 9.55 14.6799 9.09 14.6799Z" fill="#171717"/>
<path d="M10.6802 16.27C10.2702 16.27 9.93018 15.93 9.93018 15.52V9.11996C9.93018 8.15996 10.5302 7.36996 11.4602 7.11996L14.6402 6.24996C15.6002 5.98996 16.2002 6.23995 16.5302 6.48995C17.0102 6.85995 17.2502 7.44996 17.2502 8.24996V14.46C17.2502 14.87 16.9102 15.21 16.5002 15.21C16.0902 15.21 15.7502 14.87 15.7502 14.46V8.24996C15.7502 7.90996 15.6802 7.72997 15.6102 7.68997C15.5402 7.63997 15.3302 7.61998 15.0202 7.69998L11.8402 8.56997C11.5602 8.64997 11.4202 8.82996 11.4202 9.11996V15.52C11.4302 15.93 11.0902 16.27 10.6802 16.27Z" fill="#171717"/>
<path d="M14.9098 16.7999C13.6198 16.7999 12.5698 15.7499 12.5698 14.4599C12.5698 13.1699 13.6198 12.1199 14.9098 12.1199C16.1998 12.1199 17.2498 13.1699 17.2498 14.4599C17.2498 15.7499 16.1998 16.7999 14.9098 16.7999ZM14.9098 13.6199C14.4498 13.6199 14.0698 13.9999 14.0698 14.4599C14.0698 14.9199 14.4498 15.2999 14.9098 15.2999C15.3698 15.2999 15.7498 14.9199 15.7498 14.4599C15.7498 13.9999 15.3698 13.6199 14.9098 13.6199Z" fill="#171717"/>
<path d="M10.6798 11.4998C10.3498 11.4998 10.0498 11.2798 9.95982 10.9498C9.84982 10.5498 10.0898 10.1398 10.4898 10.0298L16.3098 8.43981C16.7098 8.32981 17.1198 8.56977 17.2298 8.96977C17.3398 9.36977 17.0998 9.77982 16.6998 9.88982L10.8798 11.4798C10.8098 11.4998 10.7398 11.4998 10.6798 11.4998Z" fill="#171717"/>
</svg>
