<svg width="25" height="24" viewBox="0 0 25 24" fill="none" xmlns="http://www.w3.org/2000/svg">
<path opacity="0.4" d="M16.69 2H8.32001C4.68001 2 2.51001 4.17 2.51001 7.81V16.18C2.51001 19.82 4.68001 21.99 8.32001 21.99H16.69C20.33 21.99 22.5 19.82 22.5 16.18V7.81C22.5 4.17 20.33 2 16.69 2Z" fill="#171717"/>
<path d="M16.64 6.7099C16.3 6.4499 15.7 6.1999 14.74 6.4599L11.75 7.27991C10.82 7.52991 10.21 8.31986 10.21 9.28986V11.0399V13.0699C10 13.0099 9.79 12.9698 9.56 12.9698C8.27 12.9698 7.21997 14.0199 7.21997 15.3099C7.21997 16.5999 8.27 17.6499 9.56 17.6499C10.84 17.6499 11.88 16.6099 11.9 15.3399C11.9 15.3299 11.91 15.3199 11.91 15.3099V11.6899L15.69 10.6599V12.0799C15.48 12.0199 15.27 11.9799 15.04 11.9799C13.75 11.9799 12.7 13.0299 12.7 14.3199C12.7 15.6099 13.75 16.6599 15.04 16.6599C16.33 16.6599 17.38 15.6099 17.38 14.3199V9.55988V8.48987C17.38 7.48987 16.97 6.9699 16.64 6.7099ZM9.56 15.9599C9.2 15.9599 8.90997 15.6699 8.90997 15.3099C8.90997 14.9499 9.2 14.6599 9.56 14.6599C9.92 14.6599 10.21 14.9499 10.21 15.3099C10.21 15.6699 9.92 15.9599 9.56 15.9599ZM15.04 14.9599C14.68 14.9599 14.39 14.6699 14.39 14.3099C14.39 13.9499 14.68 13.6599 15.04 13.6599C15.4 13.6599 15.69 13.9499 15.69 14.3099C15.68 14.6699 15.39 14.9599 15.04 14.9599Z" fill="#171717"/>
</svg>
