<svg width="25" height="24" viewBox="0 0 25 24" fill="none" xmlns="http://www.w3.org/2000/svg">
<path d="M14.85 21.75H9.14999C3.95999 21.75 1.75 19.54 1.75 14.35V8.65002C1.75 3.46002 3.95999 1.25 9.14999 1.25H14.85C20.04 1.25 22.25 3.46002 22.25 8.65002V14.35C22.25 14.71 22.24 15.05 22.22 15.38C22.2 15.68 22 15.94 21.71 16.04C21.42 16.14 21.11 16.05 20.9 15.83C20.3 15.15 19.42 14.75 18.49 14.75C16.7 14.75 15.24 16.21 15.24 18C15.24 18.59 15.4 19.17 15.71 19.67C15.87 19.95 16.08 20.2 16.32 20.41C16.55 20.61 16.64 20.93 16.54 21.21C16.44 21.5 16.18 21.7 15.88 21.72C15.56 21.74 15.22 21.75 14.85 21.75ZM9.14999 2.75C4.78999 2.75 3.25 4.29002 3.25 8.65002V14.35C3.25 18.71 4.78999 20.25 9.14999 20.25H14.32C13.95 19.57 13.75 18.8 13.75 18C13.75 15.38 15.88 13.25 18.5 13.25C19.3 13.25 20.07 13.45 20.75 13.81V8.65002C20.75 4.29002 19.21 2.75 14.85 2.75H9.14999Z" fill="#171717"/>
<path d="M7.22002 15.17C6.01002 15.17 5.02002 14.18 5.02002 12.97C5.02002 11.76 6.01002 10.77 7.22002 10.77C8.43002 10.77 9.42001 11.76 9.42001 12.97C9.42001 14.18 8.43002 15.17 7.22002 15.17ZM7.22002 12.27C6.84002 12.27 6.52002 12.58 6.52002 12.97C6.52002 13.35 6.83002 13.67 7.22002 13.67C7.61002 13.67 7.92001 13.36 7.92001 12.97C7.92001 12.58 7.61002 12.27 7.22002 12.27Z" fill="#171717"/>
<path d="M8.66992 13.7199C8.25992 13.7199 7.91992 13.3799 7.91992 12.9699V7.13993C7.91992 6.22993 8.48992 5.48992 9.35992 5.24992L12.2599 4.45994C13.1599 4.20994 13.7299 4.44992 14.0399 4.68992C14.3499 4.92992 14.7299 5.40994 14.7299 6.33994V11.9999C14.7299 12.4099 14.3899 12.7499 13.9799 12.7499C13.5699 12.7499 13.2299 12.4099 13.2299 11.9999V6.33994C13.2299 6.01994 13.1599 5.89992 13.1299 5.87992C13.0999 5.85992 12.9599 5.81994 12.6499 5.89994L9.75992 6.68992C9.45992 6.76992 9.41992 6.97992 9.41992 7.12992V12.9599C9.41992 13.3799 9.07992 13.7199 8.66992 13.7199Z" fill="#171717"/>
<path d="M12.5301 14.1998C11.3201 14.1998 10.3301 13.2098 10.3301 11.9998C10.3301 10.7898 11.3201 9.7998 12.5301 9.7998C13.7401 9.7998 14.7301 10.7898 14.7301 11.9998C14.7301 13.2198 13.7401 14.1998 12.5301 14.1998ZM12.5301 11.3098C12.1501 11.3098 11.8301 11.6198 11.8301 12.0098C11.8301 12.3898 12.1401 12.7098 12.5301 12.7098C12.9201 12.7098 13.2301 12.3998 13.2301 12.0098C13.2301 11.6198 12.9101 11.3098 12.5301 11.3098Z" fill="#171717"/>
<path d="M8.67006 9.58008C8.34006 9.58008 8.04006 9.36009 7.95006 9.03009C7.84006 8.63009 8.08006 8.22005 8.48006 8.11005L13.7901 6.66003C14.1901 6.56003 14.6001 6.79006 14.7101 7.19006C14.8201 7.59006 14.5801 8.00005 14.1801 8.11005L8.87006 9.56006C8.80006 9.57006 8.73006 9.58008 8.67006 9.58008Z" fill="#171717"/>
<path d="M18.5 22.75C16.84 22.75 15.28 21.87 14.44 20.44C13.99 19.72 13.75 18.87 13.75 18C13.75 15.38 15.88 13.25 18.5 13.25C21.12 13.25 23.25 15.38 23.25 18C23.25 18.87 23.01 19.72 22.56 20.45C21.72 21.87 20.16 22.75 18.5 22.75ZM18.5 14.75C16.71 14.75 15.25 16.21 15.25 18C15.25 18.59 15.41 19.17 15.72 19.67C16.31 20.67 17.35 21.25 18.5 21.25C19.65 21.25 20.69 20.66 21.28 19.68C21.59 19.17 21.75 18.6 21.75 18C21.75 16.21 20.29 14.75 18.5 14.75Z" fill="#171717"/>
<path d="M19.99 18.73H17C16.59 18.73 16.25 18.39 16.25 17.98C16.25 17.57 16.59 17.23 17 17.23H19.99C20.4 17.23 20.74 17.57 20.74 17.98C20.74 18.39 20.41 18.73 19.99 18.73Z" fill="#171717"/>
<path d="M18.5 20.26C18.09 20.26 17.75 19.92 17.75 19.51V16.52C17.75 16.11 18.09 15.77 18.5 15.77C18.91 15.77 19.25 16.11 19.25 16.52V19.51C19.25 19.93 18.91 20.26 18.5 20.26Z" fill="#171717"/>
</svg>
