<svg width="25" height="24" viewBox="0 0 25 24" fill="none" xmlns="http://www.w3.org/2000/svg">
<path d="M12.85 21.75H9.14999C3.95999 21.75 1.75 19.54 1.75 14.35V8.65002C1.75 3.46002 3.95999 1.25 9.14999 1.25H14.85C20.04 1.25 22.25 3.46002 22.25 8.65002V12.35C22.25 12.76 21.91 13.1 21.5 13.1C21.09 13.1 20.75 12.76 20.75 12.35V8.65002C20.75 4.29002 19.21 2.75 14.85 2.75H9.14999C4.78999 2.75 3.25 4.29002 3.25 8.65002V14.35C3.25 18.71 4.78999 20.25 9.14999 20.25H12.85C13.26 20.25 13.6 20.59 13.6 21C13.6 21.41 13.26 21.75 12.85 21.75Z" fill="#171717"/>
<path d="M7.22002 15.17C6.01002 15.17 5.02002 14.18 5.02002 12.97C5.02002 11.76 6.01002 10.77 7.22002 10.77C8.43002 10.77 9.42001 11.76 9.42001 12.97C9.42001 14.18 8.43002 15.17 7.22002 15.17ZM7.22002 12.27C6.84002 12.27 6.52002 12.58 6.52002 12.97C6.52002 13.35 6.83002 13.67 7.22002 13.67C7.61002 13.67 7.92001 13.36 7.92001 12.97C7.92001 12.58 7.61002 12.27 7.22002 12.27Z" fill="#171717"/>
<path d="M8.66992 13.7199C8.25992 13.7199 7.91992 13.3799 7.91992 12.9699V7.13993C7.91992 6.22993 8.48992 5.48992 9.35992 5.24992L12.2599 4.45994C13.1599 4.20994 13.7299 4.44992 14.0399 4.68992C14.3499 4.92992 14.7299 5.40994 14.7299 6.33994V11.9999C14.7299 12.4099 14.3899 12.7499 13.9799 12.7499C13.5699 12.7499 13.2299 12.4099 13.2299 11.9999V6.33994C13.2299 6.01994 13.1599 5.89992 13.1299 5.87992C13.0999 5.85992 12.9599 5.81994 12.6499 5.89994L9.75992 6.68992C9.45992 6.76992 9.41992 6.97992 9.41992 7.12992V12.9599C9.41992 13.3799 9.07992 13.7199 8.66992 13.7199Z" fill="#171717"/>
<path d="M12.5301 14.1998C11.3201 14.1998 10.3301 13.2098 10.3301 11.9998C10.3301 10.7898 11.3201 9.7998 12.5301 9.7998C13.7401 9.7998 14.7301 10.7898 14.7301 11.9998C14.7301 13.2198 13.7401 14.1998 12.5301 14.1998ZM12.5301 11.3098C12.1501 11.3098 11.8301 11.6198 11.8301 12.0098C11.8301 12.3898 12.1401 12.7098 12.5301 12.7098C12.9201 12.7098 13.2301 12.3998 13.2301 12.0098C13.2301 11.6198 12.9101 11.3098 12.5301 11.3098Z" fill="#171717"/>
<path d="M8.67006 9.58008C8.34006 9.58008 8.04006 9.36009 7.95006 9.03009C7.84006 8.63009 8.08006 8.22005 8.48006 8.11005L13.7901 6.66003C14.1901 6.56003 14.6001 6.79006 14.7101 7.19006C14.8201 7.59006 14.5801 8.00005 14.1801 8.11005L8.87006 9.56006C8.80006 9.57006 8.73006 9.58008 8.67006 9.58008Z" fill="#171717"/>
<path d="M18.4402 22.0299C16.2602 22.0299 14.4902 20.2599 14.4902 18.0799C14.4902 15.8999 16.2602 14.1299 18.4402 14.1299C20.6202 14.1299 22.3902 15.8999 22.3902 18.0799C22.3902 20.2599 20.6202 22.0299 18.4402 22.0299ZM18.4402 15.6299C17.0902 15.6299 15.9902 16.7299 15.9902 18.0799C15.9902 19.4299 17.0902 20.5299 18.4402 20.5299C19.7902 20.5299 20.8902 19.4299 20.8902 18.0799C20.8902 16.7299 19.7902 15.6299 18.4402 15.6299Z" fill="#171717"/>
<path d="M22.2402 22.6299C22.0502 22.6299 21.8602 22.5598 21.7102 22.4098L20.7102 21.4098C20.4202 21.1198 20.4202 20.6398 20.7102 20.3498C21.0002 20.0598 21.4802 20.0598 21.7702 20.3498L22.7702 21.3498C23.0602 21.6398 23.0602 22.1198 22.7702 22.4098C22.6202 22.5498 22.4302 22.6299 22.2402 22.6299Z" fill="#171717"/>
</svg>
