<svg width="25" height="24" viewBox="0 0 25 24" fill="none" xmlns="http://www.w3.org/2000/svg">
<path opacity="0.4" d="M3.07999 9.41999C2.99999 9.41999 2.90999 9.41001 2.82999 9.38001C2.43999 9.24001 2.24 8.80999 2.37 8.41999C3.04 6.53999 4.2 4.89002 5.75 3.64002C6.07 3.38002 6.53999 3.43 6.79999 3.75C7.05999 4.07 7.01 4.54 6.69 4.81C5.36 5.88 4.36001 7.29999 3.79001 8.91999C3.68001 9.22999 3.38999 9.41999 3.07999 9.41999Z" fill="#171717"/>
<path opacity="0.4" d="M3.07999 16.08C2.76999 16.08 2.48 15.89 2.37 15.58C1.96 14.41 1.75 13.21 1.75 12C1.75 11.59 2.09 11.25 2.5 11.25C2.91 11.25 3.25 11.59 3.25 12C3.25 13.04 3.43001 14.08 3.79001 15.08C3.93001 15.47 3.71999 15.9 3.32999 16.04C3.24999 16.07 3.15999 16.08 3.07999 16.08Z" fill="#171717"/>
<path opacity="0.4" d="M12.5 22.7501C11.44 22.7501 10.39 22.5901 9.36998 22.2801C8.96998 22.1601 8.74998 21.7401 8.86998 21.3401C8.98998 20.9401 9.40999 20.7201 9.80999 20.8401C10.68 21.1101 11.59 21.24 12.5 21.24C17.6 21.24 21.75 17.09 21.75 11.99C21.75 11.47 21.7 10.93 21.6 10.36C21.53 9.95004 21.8 9.56004 22.21 9.49004C22.61 9.42004 23.01 9.69003 23.08 10.1C23.2 10.76 23.26 11.3801 23.26 12.0001C23.25 17.9301 18.43 22.7501 12.5 22.7501Z" fill="#171717"/>
<path opacity="0.4" d="M6.21998 20.5001C6.04998 20.5001 5.88997 20.4501 5.74997 20.3301C5.17997 19.8701 4.71996 19.43 4.32996 18.98C4.05996 18.67 4.09998 18.19 4.40998 17.92C4.72998 17.65 5.19998 17.6901 5.46998 18.0001C5.79998 18.3801 6.19998 18.76 6.68998 19.16C7.00998 19.42 7.05996 19.8901 6.79996 20.2101C6.65996 20.4001 6.43998 20.5001 6.21998 20.5001Z" fill="#171717"/>
<path opacity="0.4" d="M20.74 7.09003C20.5 7.09003 20.27 6.98001 20.12 6.76001C18.39 4.24001 15.54 2.73999 12.5 2.73999C11.59 2.73999 10.68 2.87001 9.81004 3.14001C9.42004 3.26001 9.00003 3.04001 8.87003 2.64001C8.74003 2.24001 8.97003 1.82001 9.37003 1.70001C10.39 1.39001 11.44 1.22998 12.5 1.22998C16.04 1.22998 19.35 2.98002 21.36 5.90002C21.59 6.24002 21.5101 6.71 21.1701 6.94C21.0401 7.05 20.89 7.09003 20.74 7.09003Z" fill="#171717"/>
<path d="M16.53 6.49996C16.2 6.24996 15.6 5.99997 14.64 6.25997L11.45 7.11996C10.53 7.37996 9.92999 8.15996 9.92999 9.11996V10.76V13.34C9.66999 13.24 9.39 13.18 9.09 13.18C7.8 13.18 6.75 14.23 6.75 15.52C6.75 16.81 7.8 17.86 9.09 17.86C10.37 17.86 11.4 16.83 11.42 15.56C11.42 15.55 11.43 15.54 11.43 15.52V11.33L15.75 10.15V12.28C15.49 12.18 15.21 12.12 14.91 12.12C13.62 12.12 12.57 13.17 12.57 14.46C12.57 15.75 13.62 16.8 14.91 16.8C16.2 16.8 17.25 15.75 17.25 14.46V9.16995V8.24996C17.25 7.44996 17.01 6.85996 16.53 6.49996ZM9.09 16.36C8.63 16.36 8.25 15.98 8.25 15.52C8.25 15.06 8.63 14.68 9.09 14.68C9.55 14.68 9.92999 15.06 9.92999 15.52C9.92999 15.98 9.55 16.36 9.09 16.36ZM14.91 15.3C14.45 15.3 14.07 14.92 14.07 14.46C14.07 14 14.45 13.62 14.91 13.62C15.37 13.62 15.75 14 15.75 14.46C15.75 14.92 15.37 15.3 14.91 15.3Z" fill="#171717"/>
</svg>
