<svg width="25" height="24" viewBox="0 0 25 24" fill="none" xmlns="http://www.w3.org/2000/svg">
<path d="M17.5 22.75H7.5C3.85 22.75 1.75 20.65 1.75 17V12C1.75 8.35 3.85 6.25 7.5 6.25H17.5C21.15 6.25 23.25 8.35 23.25 12V17C23.25 20.65 21.15 22.75 17.5 22.75ZM7.5 7.75C4.64 7.75 3.25 9.14 3.25 12V17C3.25 19.86 4.64 21.25 7.5 21.25H17.5C20.36 21.25 21.75 19.86 21.75 17V12C21.75 9.14 20.36 7.75 17.5 7.75H7.5Z" fill="#171717"/>
<path d="M18.5 5.25H6.5C6.09 5.25 5.75 4.91 5.75 4.5C5.75 4.09 6.09 3.75 6.5 3.75H18.5C18.91 3.75 19.25 4.09 19.25 4.5C19.25 4.91 18.91 5.25 18.5 5.25Z" fill="#171717"/>
<path d="M15.5 2.75H9.5C9.09 2.75 8.75 2.41 8.75 2C8.75 1.59 9.09 1.25 9.5 1.25H15.5C15.91 1.25 16.25 1.59 16.25 2C16.25 2.41 15.91 2.75 15.5 2.75Z" fill="#171717"/>
<path d="M9.39001 19.8601C8.22001 19.8601 7.27002 18.9101 7.27002 17.7401C7.27002 16.5701 8.22001 15.6201 9.39001 15.6201C10.56 15.6201 11.51 16.5701 11.51 17.7401C11.51 18.9101 10.56 19.8601 9.39001 19.8601ZM9.39001 17.1201C9.05001 17.1201 8.77002 17.4001 8.77002 17.7401C8.77002 18.0801 9.05001 18.3601 9.39001 18.3601C9.73001 18.3601 10.01 18.0801 10.01 17.7401C10.01 17.4001 9.73001 17.1201 9.39001 17.1201Z" fill="#171717"/>
<path d="M10.7598 18.4901C10.3498 18.4901 10.0098 18.1501 10.0098 17.7401V12.2301C10.0098 11.3501 10.5598 10.6401 11.3998 10.4101L14.1398 9.66011C15.0098 9.42011 15.5597 9.65015 15.8597 9.89015C16.1597 10.1201 16.5198 10.5901 16.5198 11.4801V16.8301C16.5198 17.2401 16.1798 17.5801 15.7698 17.5801C15.3598 17.5801 15.0198 17.2401 15.0198 16.8301V11.4801C15.0198 11.2001 14.9598 11.0901 14.9398 11.0801C14.9198 11.0701 14.7998 11.0301 14.5198 11.1101L11.7897 11.8601C11.5397 11.9301 11.4998 12.1001 11.4998 12.2401V17.7501C11.5098 18.1501 11.1698 18.4901 10.7598 18.4901Z" fill="#171717"/>
<path d="M14.41 18.95C13.24 18.95 12.29 18 12.29 16.83C12.29 15.66 13.24 14.71 14.41 14.71C15.58 14.71 16.5301 15.66 16.5301 16.83C16.5301 18 15.58 18.95 14.41 18.95ZM14.41 16.21C14.07 16.21 13.79 16.49 13.79 16.83C13.79 17.17 14.07 17.45 14.41 17.45C14.75 17.45 15.0301 17.17 15.0301 16.83C15.0301 16.49 14.75 16.21 14.41 16.21Z" fill="#171717"/>
<path d="M10.7599 14.5801C10.4299 14.5801 10.1299 14.3601 10.0399 14.0301C9.9299 13.6301 10.1699 13.2201 10.5699 13.1101L15.5799 11.7401C15.9899 11.6301 16.3899 11.8701 16.4999 12.2701C16.6099 12.6701 16.3699 13.0801 15.9699 13.1901L10.9599 14.5601C10.8899 14.5701 10.8299 14.5801 10.7599 14.5801Z" fill="#171717"/>
</svg>
