<svg width="25" height="24" viewBox="0 0 25 24" fill="none" xmlns="http://www.w3.org/2000/svg">
<path d="M15.5 22.75H9.5C4.07 22.75 1.75 20.43 1.75 15V9C1.75 3.57 4.07 1.25 9.5 1.25H15.5C20.93 1.25 23.25 3.57 23.25 9V15C23.25 20.43 20.93 22.75 15.5 22.75ZM9.5 2.75C4.89 2.75 3.25 4.39 3.25 9V15C3.25 19.61 4.89 21.25 9.5 21.25H15.5C20.11 21.25 21.75 19.61 21.75 15V9C21.75 4.39 20.11 2.75 15.5 2.75H9.5Z" fill="#171717"/>
<path d="M8.9201 17.86C7.64011 17.86 6.6001 16.82 6.6001 15.54C6.6001 14.26 7.64011 13.22 8.9201 13.22C10.2001 13.22 11.2401 14.26 11.2401 15.54C11.2401 16.82 10.2001 17.86 8.9201 17.86ZM8.9201 14.72C8.4701 14.72 8.1001 15.09 8.1001 15.54C8.1001 15.99 8.4701 16.36 8.9201 16.36C9.37011 16.36 9.74011 15.99 9.74011 15.54C9.74011 15.09 9.37011 14.72 8.9201 14.72Z" fill="#171717"/>
<path d="M10.4902 16.2901C10.0802 16.2901 9.74023 15.9501 9.74023 15.5401V9.21011C9.74023 8.25011 10.3403 7.47006 11.2603 7.22006L14.4003 6.36007C15.3503 6.10007 15.9503 6.35006 16.2803 6.60006C16.7603 6.97006 17.0002 7.55011 17.0002 8.34011V14.4801C17.0002 14.8901 16.6602 15.2301 16.2502 15.2301C15.8402 15.2301 15.5002 14.8901 15.5002 14.4801V8.34011C15.5002 8.01011 15.4302 7.83006 15.3702 7.79006C15.3202 7.75006 15.1402 7.71007 14.7902 7.80007L11.6503 8.66006C11.3703 8.74006 11.2402 8.9101 11.2402 9.2001V15.5301C11.2402 15.9501 10.9002 16.2901 10.4902 16.2901Z" fill="#171717"/>
<path d="M14.6799 16.8099C13.3999 16.8099 12.3599 15.7699 12.3599 14.4899C12.3599 13.2099 13.3999 12.1699 14.6799 12.1699C15.9599 12.1699 16.9999 13.2099 16.9999 14.4899C16.9999 15.7699 15.9599 16.8099 14.6799 16.8099ZM14.6799 13.6699C14.2299 13.6699 13.8599 14.0399 13.8599 14.4899C13.8599 14.9399 14.2299 15.3099 14.6799 15.3099C15.1299 15.3099 15.4999 14.9399 15.4999 14.4899C15.4999 14.0399 15.1299 13.6699 14.6799 13.6699Z" fill="#171717"/>
<path d="M10.4899 11.7901C10.1599 11.7901 9.85988 11.5701 9.76988 11.2401C9.65988 10.8401 9.89985 10.4301 10.2999 10.3201L16.0599 8.7501C16.4699 8.6401 16.8698 8.88013 16.9798 9.28013C17.0898 9.68013 16.8499 10.0901 16.4499 10.2001L10.6899 11.7701C10.6199 11.7801 10.5499 11.7901 10.4899 11.7901Z" fill="#171717"/>
</svg>
