<svg width="25" height="24" viewBox="0 0 25 24" fill="none" xmlns="http://www.w3.org/2000/svg">
<path d="M6.78003 22C8.50316 22 9.90003 20.6031 9.90003 18.88C9.90003 17.1569 8.50316 15.76 6.78003 15.76C5.05691 15.76 3.66003 17.1569 3.66003 18.88C3.66003 20.6031 5.05691 22 6.78003 22Z" stroke="#171717" stroke-width="1.5" stroke-linecap="round" stroke-linejoin="round"/>
<path d="M18.22 19.9199C19.9431 19.9199 21.34 18.5231 21.34 16.7999C21.34 15.0768 19.9431 13.6799 18.22 13.6799C16.4968 13.6799 15.1 15.0768 15.1 16.7999C15.1 18.5231 16.4968 19.9199 18.22 19.9199Z" stroke="#171717" stroke-width="1.5" stroke-linecap="round" stroke-linejoin="round"/>
<g opacity="0.4">
<path d="M21.3404 16.8003V4.60034C21.3404 2.00034 19.7104 1.64034 18.0604 2.09034L11.8204 3.79034C10.6804 4.10034 9.90039 5.00034 9.90039 6.30034V8.47034V9.93034V18.8703" stroke="#171717" stroke-width="1.5" stroke-linecap="round" stroke-linejoin="round"/>
<path d="M9.90039 9.52039L21.3404 6.40039" stroke="#171717" stroke-width="1.5" stroke-linecap="round" stroke-linejoin="round"/>
</g>
</svg>
