<svg width="25" height="24" viewBox="0 0 25 24" fill="none" xmlns="http://www.w3.org/2000/svg">
<path d="M15.5 22.75H9.5C4.07 22.75 1.75 20.43 1.75 15V9C1.75 3.57 4.07 1.25 9.5 1.25H15.5C20.93 1.25 23.25 3.57 23.25 9V15C23.25 20.43 20.93 22.75 15.5 22.75ZM9.5 2.75C4.89 2.75 3.25 4.39 3.25 9V15C3.25 19.61 4.89 21.25 9.5 21.25H15.5C20.11 21.25 21.75 19.61 21.75 15V9C21.75 4.39 20.11 2.75 15.5 2.75H9.5Z" fill="#171717"/>
<path d="M7.5 22.25C7.09 22.25 6.75 21.91 6.75 21.5V2.5C6.75 2.09 7.09 1.75 7.5 1.75C7.91 1.75 8.25 2.09 8.25 2.5V21.5C8.25 21.91 7.91 22.25 7.5 22.25Z" fill="#171717"/>
<path d="M11.97 17.55C10.73 17.55 9.72998 16.5401 9.72998 15.3101C9.72998 14.0801 10.74 13.0701 11.97 13.0701C13.2 13.0701 14.21 14.0801 14.21 15.3101C14.21 16.5401 13.2 17.55 11.97 17.55ZM11.97 14.5601C11.56 14.5601 11.23 14.89 11.23 15.3C11.23 15.71 11.56 16.04 11.97 16.04C12.38 16.04 12.71 15.71 12.71 15.3C12.71 14.89 12.37 14.5601 11.97 14.5601Z" fill="#171717"/>
<path d="M13.46 16.06C13.05 16.06 12.71 15.72 12.71 15.31V9.3C12.71 8.38 13.29 7.62002 14.18 7.38002L17.16 6.57002C18.08 6.32002 18.66 6.56001 18.98 6.81001C19.44 7.16001 19.68 7.73001 19.68 8.50001V14.33C19.68 14.74 19.34 15.08 18.93 15.08C18.52 15.08 18.18 14.74 18.18 14.33V8.50001C18.18 8.17001 18.11 8.03002 18.07 8.01002C18.02 7.97002 17.85 7.95004 17.56 8.03004L14.58 8.84004C14.34 8.91004 14.22 9.06002 14.22 9.32002V15.33C14.21 15.72 13.87 16.06 13.46 16.06Z" fill="#171717"/>
<path d="M17.4299 16.55C16.1899 16.55 15.1899 15.5401 15.1899 14.3101C15.1899 13.0701 16.1999 12.0701 17.4299 12.0701C18.6599 12.0701 19.6699 13.0801 19.6699 14.3101C19.6799 15.5501 18.6699 16.55 17.4299 16.55ZM17.4299 13.5701C17.0199 13.5701 16.6899 13.9001 16.6899 14.3101C16.6899 14.7201 17.0199 15.05 17.4299 15.05C17.8399 15.05 18.1699 14.7201 18.1699 14.3101C18.1699 13.9001 17.8399 13.5701 17.4299 13.5701Z" fill="#171717"/>
<path d="M13.4601 11.7899C13.1301 11.7899 12.8301 11.5699 12.7401 11.2399C12.6301 10.8399 12.8701 10.4299 13.2701 10.3199L18.7401 8.82994C19.1401 8.71994 19.5501 8.95991 19.6601 9.35991C19.7701 9.75991 19.5301 10.17 19.1301 10.28L13.6601 11.7699C13.5901 11.7799 13.5201 11.7899 13.4601 11.7899Z" fill="#171717"/>
</svg>
