<svg width="25" height="24" viewBox="0 0 25 24" fill="none" xmlns="http://www.w3.org/2000/svg">
<path opacity="0.4" d="M19.76 2.86995L15.34 1.39995C14.42 1.08995 13.49 1.19995 12.81 1.69995C12.12 2.19995 11.73 3.03995 11.73 4.00995V7.77995L18.61 10.07C18.95 10.19 19.3 10.24 19.63 10.24C20.19 10.24 20.71 10.08 21.14 9.76995C21.83 9.26995 22.22 8.42995 22.22 7.45995V6.27995C22.22 4.84995 21.12 3.31995 19.76 2.86995Z" fill="#171717"/>
<path d="M13.22 8.27002V18C13.22 20.62 11.09 22.75 8.46997 22.75C5.84997 22.75 3.71997 20.62 3.71997 18C3.71997 15.38 5.84997 13.25 8.46997 13.25C9.72997 13.25 10.87 13.75 11.72 14.55V7.77002L13.22 8.27002Z" fill="#171717"/>
</svg>
