<svg width="25" height="24" viewBox="0 0 25 24" fill="none" xmlns="http://www.w3.org/2000/svg">
<path d="M19.71 15.01C18.62 14.94 17.5 15.34 16.67 16.17C15.11 17.73 15.11 20.26 16.67 21.83C17.2 22.36 17.85 22.71 18.54 22.88C18.92 22.98 19.32 23.01 19.72 22.99C20.67 22.95 21.6 22.5701 22.33 21.8401C23.36 20.8101 23.71 19.36 23.38 18.05C23.22 17.36 22.86 16.71 22.33 16.18C21.61 15.45 20.67 15.06 19.71 15.01ZM21.74 18.98C21.74 19.19 21.66 19.37 21.52 19.51C21.38 19.65 21.2 19.73 20.99 19.73H20.25V20.51C20.25 20.72 20.17 20.9 20.03 21.04C19.89 21.18 19.71 21.26 19.5 21.26C19.09 21.26 18.75 20.92 18.75 20.51V19.73H18C17.59 19.73 17.25 19.39 17.25 18.98C17.25 18.57 17.59 18.23 18 18.23H18.75V17.52C18.75 17.11 19.09 16.77 19.5 16.77C19.91 16.77 20.25 17.11 20.25 17.52V18.23H20.99C21.41 18.23 21.74 18.57 21.74 18.98Z" fill="#171717"/>
<path opacity="0.4" d="M16.84 21.97C16.54 21.71 16.28 21.4 16.08 21.06C15.71 20.46 15.5 19.75 15.5 19C15.5 16.79 17.29 15 19.5 15C20.68 15 21.75 15.51 22.47 16.33C22.48 16.34 22.48 16.35 22.49 16.35C22.49 16.29 22.5 16.24 22.5 16.19V7.81C22.5 4.17 20.33 2 16.69 2H8.31C8.03 2 7.76 2.00999 7.5 2.04999C4.35 2.33999 2.5 4.45 2.5 7.81V16.19C2.5 19.55 4.35 21.66 7.5 21.95C7.76 21.99 8.03 22 8.31 22H16.69C16.75 22 16.8 21.99 16.86 21.99C16.86 21.98 16.85 21.98 16.84 21.97Z" fill="#171717"/>
<path d="M14.28 5.3C13.96 5.05 13.38 4.81001 12.46 5.06001L9.48003 5.88002C8.59003 6.11002 8.01003 6.86 8.01003 7.8V9.55V11.71C7.78003 11.63 7.53003 11.57 7.27003 11.57C6.03003 11.57 5.03003 12.58 5.03003 13.81C5.03003 15.04 6.04003 16.05 7.27003 16.05C8.49003 16.05 9.49003 15.06 9.51003 13.85C9.51003 13.84 9.52003 13.83 9.52003 13.82V10.12L13.49 9.03999V10.72C13.26 10.64 13.01 10.58 12.74 10.58C11.5 10.58 10.5 11.59 10.5 12.82C10.5 14.06 11.51 15.06 12.74 15.06C13.96 15.06 14.96 14.07 14.98 12.85C14.98 12.84 14.99 12.83 14.99 12.81V8.05V6.97999C14.98 6.21999 14.74 5.65 14.28 5.3ZM7.26003 14.55C6.85003 14.55 6.52003 14.22 6.52003 13.81C6.52003 13.4 6.85003 13.07 7.26003 13.07C7.67003 13.07 8.00003 13.4 8.00003 13.81C8.00003 14.22 7.67003 14.55 7.26003 14.55ZM12.73 13.55C12.32 13.55 11.99 13.22 11.99 12.81C11.99 12.4 12.32 12.07 12.73 12.07C13.14 12.07 13.47 12.4 13.47 12.81C13.47 13.22 13.14 13.55 12.73 13.55Z" fill="#171717"/>
</svg>
