<svg width="25" height="24" viewBox="0 0 25 24" fill="none" xmlns="http://www.w3.org/2000/svg">
<path d="M22.5 15V9C22.5 4 20.5 2 15.5 2H9.5C4.5 2 2.5 4 2.5 9V15C2.5 20 4.5 22 9.5 22H15.5C20.5 22 22.5 20 22.5 15Z" stroke="#171717" stroke-width="1.5" stroke-linecap="round" stroke-linejoin="round"/>
<g opacity="0.4">
<path d="M8.9201 17.11C9.78719 17.11 10.4901 16.4071 10.4901 15.54C10.4901 14.6729 9.78719 13.97 8.9201 13.97C8.05302 13.97 7.3501 14.6729 7.3501 15.54C7.3501 16.4071 8.05302 17.11 8.9201 17.11Z" stroke="#171717" stroke-width="1.5" stroke-linecap="round" stroke-linejoin="round"/>
<path d="M16.25 14.49V8.34997C16.25 7.03997 15.43 6.86002 14.6 7.09002L11.46 7.95001C10.89 8.11001 10.5 8.56002 10.5 9.21002V10.31V11.05V15.55" stroke="#171717" stroke-width="1.5" stroke-linecap="round" stroke-linejoin="round"/>
<path d="M14.6799 16.0599C15.547 16.0599 16.2499 15.357 16.2499 14.4899C16.2499 13.6228 15.547 12.9199 14.6799 12.9199C13.8128 12.9199 13.1099 13.6228 13.1099 14.4899C13.1099 15.357 13.8128 16.0599 14.6799 16.0599Z" stroke="#171717" stroke-width="1.5" stroke-linecap="round" stroke-linejoin="round"/>
<path d="M10.4902 11.04L16.2502 9.46997" stroke="#171717" stroke-width="1.5" stroke-linecap="round" stroke-linejoin="round"/>
</g>
</svg>
