<svg width="25" height="24" viewBox="0 0 25 24" fill="none" xmlns="http://www.w3.org/2000/svg">
<path d="M22.5 3.75H2.5C2.09 3.75 1.75 3.41 1.75 3C1.75 2.59 2.09 2.25 2.5 2.25H22.5C22.91 2.25 23.25 2.59 23.25 3C23.25 3.41 22.91 3.75 22.5 3.75Z" fill="#171717"/>
<path d="M11.5 9.75H2.5C2.09 9.75 1.75 9.41 1.75 9C1.75 8.59 2.09 8.25 2.5 8.25H11.5C11.91 8.25 12.25 8.59 12.25 9C12.25 9.41 11.91 9.75 11.5 9.75Z" fill="#171717"/>
<path d="M8.5 15.75H2.5C2.09 15.75 1.75 15.41 1.75 15C1.75 14.59 2.09 14.25 2.5 14.25H8.5C8.91 14.25 9.25 14.59 9.25 15C9.25 15.41 8.91 15.75 8.5 15.75Z" fill="#171717"/>
<path d="M6.5 21.75H2.5C2.09 21.75 1.75 21.41 1.75 21C1.75 20.59 2.09 20.25 2.5 20.25H6.5C6.91 20.25 7.25 20.59 7.25 21C7.25 21.41 6.91 21.75 6.5 21.75Z" fill="#171717"/>
<path d="M12.3402 22.7501C10.7302 22.7501 9.41016 21.4401 9.41016 19.8201C9.41016 18.2101 10.7202 16.8901 12.3402 16.8901C13.9602 16.8901 15.2702 18.2001 15.2702 19.8201C15.2702 21.4401 13.9602 22.7501 12.3402 22.7501ZM12.3402 18.4001C11.5502 18.4001 10.9102 19.0401 10.9102 19.8301C10.9102 20.6201 11.5502 21.2601 12.3402 21.2601C13.1302 21.2601 13.7702 20.6201 13.7702 19.8301C13.7702 19.0401 13.1302 18.4001 12.3402 18.4001Z" fill="#171717"/>
<path d="M14.52 20.5701C14.11 20.5701 13.77 20.2301 13.77 19.8201V11.0501C13.77 9.84007 14.49 8.8901 15.66 8.5801L20.01 7.39009C20.96 7.13009 21.78 7.23007 22.36 7.68007C22.94 8.13007 23.24 8.86007 23.24 9.87007V18.3801C23.24 18.7901 22.9 19.1301 22.49 19.1301C22.08 19.1301 21.74 18.7901 21.74 18.3801V9.87007C21.74 9.37007 21.64 9.02008 21.45 8.88008C21.26 8.73008 20.87 8.72005 20.4 8.85005L16.05 10.0401C15.76 10.1201 15.27 10.3601 15.27 11.0701V19.8401C15.27 20.2401 14.93 20.5701 14.52 20.5701Z" fill="#171717"/>
<path d="M20.3201 21.2999C18.7101 21.2999 17.3901 19.9899 17.3901 18.3699C17.3901 16.7599 18.7001 15.4399 20.3201 15.4399C21.9401 15.4399 23.2501 16.7499 23.2501 18.3699C23.2501 19.9899 21.9401 21.2999 20.3201 21.2999ZM20.3201 16.95C19.5301 16.95 18.8901 17.5899 18.8901 18.3799C18.8901 19.1699 19.5301 19.8099 20.3201 19.8099C21.1101 19.8099 21.7501 19.1699 21.7501 18.3799C21.7501 17.5899 21.1101 16.95 20.3201 16.95Z" fill="#171717"/>
<path d="M14.5202 14.35C14.1902 14.35 13.8902 14.13 13.8002 13.8C13.6902 13.4 13.9302 12.9901 14.3302 12.8801L22.3102 10.7001C22.7102 10.5901 23.1202 10.83 23.2302 11.23C23.3402 11.63 23.1002 12.0401 22.7002 12.1501L14.7202 14.3301C14.6502 14.3401 14.5802 14.35 14.5202 14.35Z" fill="#171717"/>
</svg>
