<svg width="25" height="24" viewBox="0 0 25 24" fill="none" xmlns="http://www.w3.org/2000/svg">
<path d="M17.5 22.75H7.5C3.85 22.75 1.75 20.65 1.75 17V13C1.75 9.4 3.67003 8.06 5.28003 7.56C5.93003 7.35 6.68 7.25 7.5 7.25H17.5C18.32 7.25 19.07 7.36001 19.73 7.57001C21.33 8.06001 23.25 9.41 23.25 13V17C23.25 20.65 21.15 22.75 17.5 22.75ZM7.5 8.75C6.84 8.75 6.23998 8.83 5.72998 9C4.05998 9.51 3.25 10.82 3.25 13V17C3.25 19.86 4.64 21.25 7.5 21.25H17.5C20.36 21.25 21.75 19.86 21.75 17V13C21.75 10.82 20.94 9.51 19.28 9C18.76 8.83 18.16 8.75 17.5 8.75H7.5Z" fill="#171717"/>
<path d="M19.5 9.03003C19.42 9.03003 19.35 9.01999 19.27 8.98999C18.76 8.82999 18.16 8.73999 17.5 8.73999H7.5C6.84 8.73999 6.23998 8.81999 5.72998 8.98999C5.49998 9.05999 5.25 9.02 5.06 8.88C4.87 8.74001 4.75 8.51002 4.75 8.27002V7C4.75 5.48 5.98 4.25 7.5 4.25H17.5C19.02 4.25 20.25 5.48 20.25 7V8.28003C20.25 8.52003 20.14 8.74001 19.94 8.89001C19.81 8.98001 19.66 9.03003 19.5 9.03003ZM7.5 5.75C6.81 5.75 6.25 6.31 6.25 7V7.34003C6.64 7.28003 7.06 7.25 7.5 7.25H17.5C17.94 7.25 18.36 7.28003 18.75 7.34003V7C18.75 6.31 18.19 5.75 17.5 5.75H7.5Z" fill="#171717"/>
<path d="M16.5 5.75H8.5C8.09 5.75 7.75 5.41 7.75 5V3.51001C7.75 2.26001 8.76001 1.25 10.01 1.25H14.99C16.24 1.25 17.25 2.26001 17.25 3.51001V5C17.25 5.41 16.91 5.75 16.5 5.75ZM9.25 4.25H15.75V3.51001C15.75 3.09001 15.41 2.75 14.99 2.75H10.01C9.59001 2.75 9.25 3.09001 9.25 3.51001V4.25Z" fill="#171717"/>
<path d="M9.57001 20.2101C8.43001 20.2101 7.5 19.2801 7.5 18.1401C7.5 17.0001 8.43001 16.0701 9.57001 16.0701C10.71 16.0701 11.64 17.0001 11.64 18.1401C11.64 19.2801 10.72 20.2101 9.57001 20.2101ZM9.57001 17.5601C9.25001 17.5601 9 17.8201 9 18.1301C9 18.4401 9.26001 18.7001 9.57001 18.7001C9.88001 18.7001 10.14 18.4401 10.14 18.1301C10.14 17.8201 9.89001 17.5601 9.57001 17.5601Z" fill="#171717"/>
<path d="M10.8999 18.88C10.4899 18.88 10.1499 18.54 10.1499 18.13V12.8C10.1499 11.94 10.6899 11.24 11.5199 11.01L14.1699 10.29C15.0199 10.06 15.5599 10.28 15.8599 10.51C16.1599 10.74 16.5099 11.19 16.5099 12.07V17.24C16.5099 17.65 16.1699 17.99 15.7599 17.99C15.3499 17.99 15.0099 17.65 15.0099 17.24V12.07C15.0099 11.82 14.9599 11.72 14.9399 11.7C14.9199 11.69 14.7999 11.67 14.5599 11.73L11.9099 12.45C11.6799 12.51 11.6499 12.66 11.6499 12.79V18.12C11.6499 18.55 11.3099 18.88 10.8999 18.88Z" fill="#171717"/>
<path d="M14.4299 19.3199C13.2899 19.3199 12.3599 18.3899 12.3599 17.2499C12.3599 16.1099 13.2899 15.1799 14.4299 15.1799C15.5699 15.1799 16.4999 16.1099 16.4999 17.2499C16.4999 18.3899 15.5699 19.3199 14.4299 19.3199ZM14.4299 16.6799C14.1099 16.6799 13.8599 16.9399 13.8599 17.2499C13.8599 17.5599 14.1199 17.8199 14.4299 17.8199C14.7399 17.8199 14.9999 17.5599 14.9999 17.2499C14.9999 16.9399 14.7399 16.6799 14.4299 16.6799Z" fill="#171717"/>
<path d="M10.9001 15.0999C10.5701 15.0999 10.27 14.8799 10.18 14.5499C10.07 14.1499 10.3101 13.7399 10.7101 13.6299L15.56 12.3099C15.96 12.1999 16.37 12.4399 16.48 12.8399C16.59 13.2399 16.3501 13.6499 15.9501 13.7599L11.1 15.0799C11.03 15.0899 10.9601 15.0999 10.9001 15.0999Z" fill="#171717"/>
</svg>
