<svg width="25" height="24" viewBox="0 0 25 24" fill="none" xmlns="http://www.w3.org/2000/svg">
<path d="M8.46997 22.75C5.84997 22.75 3.71997 20.62 3.71997 18C3.71997 15.38 5.84997 13.25 8.46997 13.25C11.09 13.25 13.22 15.38 13.22 18C13.22 20.62 11.09 22.75 8.46997 22.75ZM8.46997 14.75C6.67997 14.75 5.21997 16.21 5.21997 18C5.21997 19.79 6.67997 21.25 8.46997 21.25C10.26 21.25 11.72 19.79 11.72 18C11.72 16.21 10.27 14.75 8.46997 14.75Z" fill="#171717"/>
<path d="M12.47 18.75C12.06 18.75 11.72 18.41 11.72 18V4C11.72 3.59 12.06 3.25 12.47 3.25C12.88 3.25 13.22 3.59 13.22 4V18C13.22 18.41 12.89 18.75 12.47 18.75Z" fill="#171717"/>
<path d="M19.63 10.2299C19.3 10.2299 18.95 10.1699 18.61 10.0599L14.19 8.58994C12.81 8.12994 11.73 6.62994 11.73 5.17994V3.99994C11.73 3.02994 12.13 2.18994 12.81 1.68994C13.5 1.18994 14.42 1.08994 15.34 1.38994L19.76 2.85994C21.14 3.31994 22.22 4.81994 22.22 6.26994V7.43994C22.22 8.40994 21.82 9.24994 21.14 9.74994C20.71 10.0799 20.18 10.2299 19.63 10.2299ZM14.32 2.71994C14.08 2.71994 13.86 2.77994 13.69 2.90994C13.39 3.11994 13.23 3.50994 13.23 3.99994V5.16994C13.23 5.96994 13.9 6.89994 14.66 7.15994L19.08 8.62994C19.54 8.78994 19.97 8.74994 20.26 8.53994C20.56 8.32994 20.72 7.93994 20.72 7.44994V6.27994C20.72 5.47994 20.05 4.54994 19.29 4.28994L14.87 2.81994C14.68 2.74994 14.49 2.71994 14.32 2.71994Z" fill="#171717"/>
</svg>
