<svg width="25" height="24" viewBox="0 0 25 24" fill="none" xmlns="http://www.w3.org/2000/svg">
<path d="M18.5 5.25H6.5C6.09 5.25 5.75 4.91 5.75 4.5C5.75 4.09 6.09 3.75 6.5 3.75H18.5C18.91 3.75 19.25 4.09 19.25 4.5C19.25 4.91 18.91 5.25 18.5 5.25Z" fill="#171717"/>
<path d="M15.5 2.75H9.5C9.09 2.75 8.75 2.41 8.75 2C8.75 1.59 9.09 1.25 9.5 1.25H15.5C15.91 1.25 16.25 1.59 16.25 2C16.25 2.41 15.91 2.75 15.5 2.75Z" fill="#171717"/>
<path opacity="0.4" d="M18.5 7H6.5C4.3 7 2.5 8.8 2.5 11V18C2.5 20.2 4.3 22 6.5 22H18.5C20.7 22 22.5 20.2 22.5 18V11C22.5 8.8 20.7 7 18.5 7Z" fill="#171717"/>
<path d="M15.87 9.88994C15.57 9.64994 15.02 9.41995 14.14 9.64995L11.41 10.4C10.56 10.62 10.01 11.3399 10.01 12.2299V13.8299V15.7299C9.81001 15.6699 9.61001 15.6299 9.39001 15.6299C8.22001 15.6299 7.27002 16.5799 7.27002 17.7499C7.27002 18.9199 8.22001 19.8699 9.39001 19.8699C10.56 19.8699 11.51 18.9199 11.51 17.7499V17.7399V14.4099L15.03 13.4499V14.8199C14.83 14.7599 14.63 14.7199 14.41 14.7199C13.24 14.7199 12.29 15.67 12.29 16.84C12.29 18.01 13.24 18.96 14.41 18.96C15.56 18.96 16.5 18.0399 16.52 16.8899C16.52 16.8699 16.53 16.86 16.53 16.84V12.4699V11.4899C16.53 10.5899 16.17 10.1199 15.87 9.88994ZM9.39001 18.3599C9.05001 18.3599 8.77002 18.0799 8.77002 17.7399C8.77002 17.3999 9.05001 17.1199 9.39001 17.1199C9.73001 17.1199 10 17.3899 10.01 17.7299C10.01 18.0799 9.73001 18.3599 9.39001 18.3599ZM14.41 17.4499C14.07 17.4499 13.79 17.1699 13.79 16.8299C13.79 16.4899 14.07 16.21 14.41 16.21C14.75 16.21 15.03 16.4899 15.03 16.8299C15.03 17.1699 14.75 17.4499 14.41 17.4499Z" fill="#171717"/>
</svg>
