<svg width="25" height="24" viewBox="0 0 25 24" fill="none" xmlns="http://www.w3.org/2000/svg">
<path d="M4.60997 16.98C4.51997 17.3 4.46997 17.65 4.46997 18C4.46997 20.21 6.25997 22 8.46997 22C10.68 22 12.47 20.21 12.47 18C12.47 15.79 10.68 14 8.46997 14C8.11997 14 7.76997 14.05 7.44997 14.13" stroke="#171717" stroke-width="1.5" stroke-linecap="round" stroke-linejoin="round"/>
<path d="M12.47 18V4" stroke="#171717" stroke-width="1.5" stroke-linecap="round" stroke-linejoin="round"/>
<path d="M15.11 2.11L19.53 3.58C20.6 3.94 21.48 5.15 21.48 6.28V7.45C21.48 8.98 20.3 9.83 18.85 9.35L14.43 7.88C13.36 7.52 12.48 6.31 12.48 5.18V4C12.47 2.48 13.66 1.62 15.11 2.11Z" stroke="#171717" stroke-width="1.5" stroke-linecap="round" stroke-linejoin="round"/>
</svg>
