<svg width="25" height="24" viewBox="0 0 25 24" fill="none" xmlns="http://www.w3.org/2000/svg">
<path d="M19.5 7V8.13C19.18 8.04 18.85 8 18.5 8H6.5C6.15 8 5.82 8.04 5.5 8.13V7C5.5 5.9 6.4 5 7.5 5H17.5C18.6 5 19.5 5.9 19.5 7Z" fill="#171717"/>
<path opacity="0.4" d="M16.5 3.51001V5H8.5V3.51001C8.5 2.68001 9.18001 2 10.01 2H14.99C15.82 2 16.5 2.68001 16.5 3.51001Z" fill="#171717"/>
<path opacity="0.4" d="M22.5 12V18C22.5 20.2 20.7 22 18.5 22H6.5C4.3 22 2.5 20.2 2.5 18V12C2.5 10.15 3.78 8.58 5.5 8.13C5.82 8.04 6.15 8 6.5 8H18.5C18.85 8 19.18 8.04 19.5 8.13C21.22 8.58 22.5 10.15 22.5 12Z" fill="#171717"/>
<path d="M15.85 10.51C15.55 10.28 15.01 10.06 14.16 10.29L11.51 11.02C10.68 11.24 10.15 11.94 10.15 12.8V14.35V16.15C9.97002 16.1 9.77001 16.06 9.57001 16.06C8.43001 16.06 7.5 16.99 7.5 18.13C7.5 19.27 8.43001 20.2 9.57001 20.2C10.71 20.2 11.63 19.28 11.64 18.15C11.64 18.14 11.65 18.13 11.65 18.12V14.91L15 14V15.26C14.82 15.21 14.63 15.17 14.43 15.17C13.29 15.17 12.36 16.1 12.36 17.24C12.36 18.38 13.29 19.31 14.43 19.31C15.57 19.31 16.5 18.38 16.5 17.24V13.02V12.07C16.5 11.2 16.14 10.74 15.85 10.51ZM9.57001 18.71C9.25001 18.71 9 18.45 9 18.14C9 17.83 9.26001 17.57 9.57001 17.57C9.88001 17.57 10.14 17.83 10.14 18.14C10.14 18.45 9.89001 18.71 9.57001 18.71ZM14.43 17.82C14.11 17.82 13.86 17.56 13.86 17.25C13.86 16.94 14.12 16.68 14.43 16.68C14.74 16.68 15 16.94 15 17.25C15 17.56 14.74 17.82 14.43 17.82Z" fill="#171717"/>
</svg>
