<svg width="25" height="24" viewBox="0 0 25 24" fill="none" xmlns="http://www.w3.org/2000/svg">
<path d="M6.80975 20.0899C6.23975 20.0899 5.67976 19.9399 5.15976 19.6399C4.11976 19.0399 3.50977 17.9799 3.50977 16.7799V7.20989C3.50977 6.01989 4.12976 4.9499 5.15976 4.3499C6.19976 3.7499 7.42975 3.7499 8.45975 4.3499L16.7498 9.1299C17.7798 9.7299 18.3997 10.7999 18.3997 11.9899C18.3997 13.1799 17.7798 14.2499 16.7498 14.8499L8.45975 19.6299C7.93975 19.9399 7.37975 20.0899 6.80975 20.0899ZM6.80975 5.4099C6.49975 5.4099 6.18976 5.48989 5.90976 5.64989C5.34976 5.97989 5.00977 6.55989 5.00977 7.20989V16.7799C5.00977 17.4299 5.34976 18.0099 5.90976 18.3399C6.46976 18.6599 7.14975 18.6699 7.70975 18.3399L15.9998 13.5599C16.5598 13.2299 16.8997 12.6499 16.8997 11.9999C16.8997 11.3499 16.5598 10.7699 15.9998 10.4399L7.70975 5.6599C7.42975 5.4999 7.11975 5.4099 6.80975 5.4099Z" fill="#171717"/>
<path d="M20.7402 18.9301C20.3302 18.9301 19.9902 18.5901 19.9902 18.1801V5.82007C19.9902 5.41007 20.3302 5.07007 20.7402 5.07007C21.1502 5.07007 21.4902 5.41007 21.4902 5.82007V18.1801C21.4902 18.5901 21.1602 18.9301 20.7402 18.9301Z" fill="#171717"/>
</svg>
