<svg width="25" height="24" viewBox="0 0 25 24" fill="none" xmlns="http://www.w3.org/2000/svg">
<path d="M22.5 10V9C22.5 4 20.5 2 15.5 2H9.5C4.5 2 2.5 4 2.5 9V15C2.5 20 4.5 22 9.5 22H11.5" stroke="#171717" stroke-width="1.5" stroke-linecap="round" stroke-linejoin="round"/>
<g opacity="0.4">
<path d="M16.0098 22C17.1143 22 18.0098 21.1046 18.0098 20C18.0098 18.8954 17.1143 18 16.0098 18C14.9052 18 14.0098 18.8954 14.0098 20C14.0098 21.1046 14.9052 22 16.0098 22Z" stroke="#171717" stroke-width="1.5" stroke-linecap="round" stroke-linejoin="round"/>
<path d="M18.0098 19.9998V13.0098" stroke="#171717" stroke-width="1.5" stroke-linecap="round" stroke-linejoin="round"/>
<path d="M19.3198 12.0699L21.5298 12.8099C22.0598 12.9899 22.4998 13.5899 22.4998 14.1599V14.7499C22.4998 15.5099 21.9098 15.9399 21.1898 15.6999L18.9797 14.9599C18.4497 14.7799 18.0098 14.1799 18.0098 13.6099V13.0199C18.0098 12.2499 18.5998 11.8299 19.3198 12.0699Z" stroke="#171717" stroke-width="1.5" stroke-linecap="round" stroke-linejoin="round"/>
</g>
</svg>
