<svg width="25" height="24" viewBox="0 0 25 24" fill="none" xmlns="http://www.w3.org/2000/svg">
<path opacity="0.4" d="M21.5 7.52002V15.48C21.5 15.84 21.48 16.19 21.43 16.51C21.39 16.51 21.34 16.49 21.3 16.48L19.02 15.72C19 15.71 18.99 15.7 18.97 15.7V20.31C18.49 20.58 17.95 20.77 17.35 20.87C17.45 20.69 17.51 20.48 17.51 20.25C17.51 19.52 16.91 18.92 16.17 18.92C15.44 18.92 14.84 19.52 14.84 20.25C14.84 20.53 14.92 20.79 15.07 21H8.02002C4.57002 21 2.5 18.94 2.5 15.48V7.52002C2.5 4.06002 4.57002 2 8.02002 2H15.98C19.43 2 21.5 4.06002 21.5 7.52002Z" fill="#171717"/>
<path d="M22.12 12.0999L21.5 11.89L19.83 11.34C19.25 11.15 18.66 11.2199 18.21 11.5399C17.77 11.8699 17.51 12.4 17.51 13.02V17.81C17.11 17.59 16.66 17.45 16.17 17.45C14.63 17.45 13.38 18.71 13.38 20.25C13.38 20.51 13.42 20.76 13.48 21C13.81 22.19 14.89 23.05 16.17 23.05C17.7 23.05 18.94 21.83 18.97 20.31V15.7C18.99 15.7 19 15.7099 19.02 15.7199L21.3 16.4799C21.34 16.4899 21.39 16.51 21.43 16.51C21.61 16.56 21.77 16.58 21.94 16.58C22.3 16.58 22.64 16.48 22.92 16.27C23.37 15.95 23.62 15.42 23.62 14.8V14.2C23.62 13.29 22.98 12.3899 22.12 12.0999ZM16.17 21.59C15.71 21.59 15.31 21.36 15.07 21C14.92 20.79 14.84 20.53 14.84 20.25C14.84 19.52 15.44 18.92 16.17 18.92C16.91 18.92 17.51 19.52 17.51 20.25C17.51 20.48 17.45 20.69 17.35 20.87C17.13 21.3 16.68 21.59 16.17 21.59Z" fill="#171717"/>
</svg>
