<svg width="25" height="24" viewBox="0 0 25 24" fill="none" xmlns="http://www.w3.org/2000/svg">
<path d="M11.5 22.75H9.5C4.07 22.75 1.75 20.43 1.75 15V9C1.75 3.57 4.07 1.25 9.5 1.25H15.5C20.93 1.25 23.25 3.57 23.25 9V10C23.25 10.41 22.91 10.75 22.5 10.75C22.09 10.75 21.75 10.41 21.75 10V9C21.75 4.39 20.11 2.75 15.5 2.75H9.5C4.89 2.75 3.25 4.39 3.25 9V15C3.25 19.61 4.89 21.25 9.5 21.25H11.5C11.91 21.25 12.25 21.59 12.25 22C12.25 22.41 11.91 22.75 11.5 22.75Z" fill="#171717"/>
<path d="M16.0098 22.75C14.4998 22.75 13.2598 21.52 13.2598 20C13.2598 18.48 14.4898 17.25 16.0098 17.25C17.5298 17.25 18.7598 18.48 18.7598 20C18.7598 21.52 17.5198 22.75 16.0098 22.75ZM16.0098 18.76C15.3198 18.76 14.7598 19.32 14.7598 20.01C14.7598 20.7 15.3198 21.26 16.0098 21.26C16.6998 21.26 17.2598 20.7 17.2598 20.01C17.2598 19.32 16.6998 18.76 16.0098 18.76Z" fill="#171717"/>
<path d="M18.0098 20.75C17.5998 20.75 17.2598 20.41 17.2598 20V13.01C17.2598 12.6 17.5998 12.26 18.0098 12.26C18.4198 12.26 18.7598 12.6 18.7598 13.01V20C18.7598 20.42 18.4198 20.75 18.0098 20.75Z" fill="#171717"/>
<path d="M21.5798 16.5C21.3698 16.5 21.1598 16.47 20.9498 16.39L18.7397 15.66C17.8897 15.38 17.2598 14.49 17.2598 13.6V13.01C17.2598 12.4 17.5098 11.87 17.9598 11.55C18.4098 11.23 18.9898 11.16 19.5598 11.35L21.7698 12.09C22.6198 12.37 23.2498 13.26 23.2498 14.15V14.74C23.2498 15.35 22.9997 15.88 22.5497 16.2C22.2697 16.4 21.9298 16.5 21.5798 16.5ZM18.9297 12.75C18.8897 12.75 18.8498 12.76 18.8298 12.77C18.7898 12.8 18.7598 12.87 18.7598 13.01V13.6C18.7598 13.84 18.9897 14.16 19.2197 14.24L21.4297 14.97C21.5597 15.01 21.6497 15 21.6797 14.98C21.7197 14.95 21.7598 14.88 21.7598 14.74V14.15C21.7598 13.91 21.5297 13.59 21.2997 13.51L19.0898 12.78C19.0198 12.76 18.9697 12.75 18.9297 12.75Z" fill="#171717"/>
</svg>
