<svg width="25" height="24" viewBox="0 0 25 24" fill="none" xmlns="http://www.w3.org/2000/svg">
<path d="M4.5 6C3.25 7.67 2.5 9.75 2.5 12C2.5 17.52 6.98 22 12.5 22C18.02 22 22.5 17.52 22.5 12C22.5 6.48 18.02 2 12.5 2C11.07 2 9.7 2.3 8.47 2.85" stroke="#171717" stroke-width="1.5" stroke-linecap="round" stroke-linejoin="round"/>
<path d="M11.25 14.43V9.36995C11.25 8.88995 11.05 8.69995 10.54 8.69995H9.24998C8.73998 8.69995 8.53998 8.88995 8.53998 9.36995V14.43C8.53998 14.91 8.73998 15.1 9.24998 15.1H10.54C11.05 15.1 11.25 14.91 11.25 14.43Z" stroke="#171717" stroke-width="1.5" stroke-linecap="round" stroke-linejoin="round"/>
<path d="M16.53 14.43V9.36995C16.53 8.88995 16.33 8.69995 15.82 8.69995H14.53C14.02 8.69995 13.82 8.88995 13.82 9.36995V14.43C13.82 14.91 14.02 15.1 14.53 15.1" stroke="#171717" stroke-width="1.5" stroke-linecap="round" stroke-linejoin="round"/>
</svg>
