<svg width="25" height="24" viewBox="0 0 25 24" fill="none" xmlns="http://www.w3.org/2000/svg">
<path d="M12.47 22.75C6.54997 22.75 1.71997 17.93 1.71997 12C1.71997 6.07 6.54997 1.25 12.47 1.25C18.39 1.25 23.22 6.07 23.22 12C23.22 17.93 18.4 22.75 12.47 22.75ZM12.47 2.75C7.36997 2.75 3.21997 6.9 3.21997 12C3.21997 17.1 7.36997 21.25 12.47 21.25C17.57 21.25 21.72 17.1 21.72 12C21.72 6.9 17.57 2.75 12.47 2.75Z" fill="#171717"/>
<path d="M10.51 15.95H9.21C8.29 15.95 7.75 15.42 7.75 14.53V9.47005C7.75 8.58005 8.3 8.05005 9.21 8.05005H10.5C11.42 8.05005 11.96 8.58005 11.96 9.47005V14.53C11.97 15.42 11.42 15.95 10.51 15.95ZM9.25 14.45H10.47V9.55005H9.26L9.25 14.45Z" fill="#171717"/>
<path d="M15.79 15.95H14.5C13.58 15.95 13.04 15.42 13.04 14.53V9.47005C13.04 8.58005 13.59 8.05005 14.5 8.05005H15.79C16.71 8.05005 17.25 8.58005 17.25 9.47005V14.53C17.25 15.42 16.7 15.95 15.79 15.95ZM14.53 14.45H15.75V9.55005H14.54L14.53 14.45Z" fill="#171717"/>
</svg>
