<svg width="25" height="24" viewBox="0 0 25 24" fill="none" xmlns="http://www.w3.org/2000/svg">
<path d="M9.14 21.75H5.51C3.65 21.75 2.75 20.89 2.75 19.11V4.89C2.75 3.11 3.65 2.25 5.51 2.25H9.14C11 2.25 11.9 3.11 11.9 4.89V19.11C11.9 20.89 11 21.75 9.14 21.75ZM5.51 3.75C4.43 3.75 4.25 4.02 4.25 4.89V19.11C4.25 19.98 4.42 20.25 5.51 20.25H9.14C10.22 20.25 10.4 19.98 10.4 19.11V4.89C10.4 4.02 10.23 3.75 9.14 3.75H5.51Z" fill="#171717"/>
<path d="M19.49 21.75H15.86C14 21.75 13.1 20.89 13.1 19.11V4.89C13.1 3.11 14 2.25 15.86 2.25H19.49C21.35 2.25 22.25 3.11 22.25 4.89V19.11C22.25 20.89 21.35 21.75 19.49 21.75ZM15.86 3.75C14.78 3.75 14.6 4.02 14.6 4.89V19.11C14.6 19.98 14.77 20.25 15.86 20.25H19.49C20.57 20.25 20.75 19.98 20.75 19.11V4.89C20.75 4.02 20.58 3.75 19.49 3.75H15.86Z" fill="#171717"/>
</svg>
