<svg width="25" height="24" viewBox="0 0 25 24" fill="none" xmlns="http://www.w3.org/2000/svg">
<path opacity="0.4" d="M12.47 22C17.9928 22 22.47 17.5228 22.47 12C22.47 6.47715 17.9928 2 12.47 2C6.94712 2 2.46997 6.47715 2.46997 12C2.46997 17.5228 6.94712 22 12.47 22Z" fill="#171717"/>
<path d="M11.22 15.03V8.97005C11.22 8.49005 11.02 8.30005 10.51 8.30005H9.21C8.7 8.30005 8.5 8.49005 8.5 8.97005V15.03C8.5 15.51 8.7 15.7 9.21 15.7H10.5C11.02 15.7 11.22 15.51 11.22 15.03Z" fill="#171717"/>
<path d="M16.5 15.03V8.97005C16.5 8.49005 16.3 8.30005 15.79 8.30005H14.5C13.99 8.30005 13.79 8.49005 13.79 8.97005V15.03C13.79 15.51 13.99 15.7 14.5 15.7H15.79C16.3 15.7 16.5 15.51 16.5 15.03Z" fill="#171717"/>
</svg>
