<svg width="25" height="24" viewBox="0 0 25 24" fill="none" xmlns="http://www.w3.org/2000/svg">
<path d="M8.37 21.28C7.58 21.28 6.83 21.09 6.17 20.71C4.61 19.81 3.75 17.98 3.75 15.57V8.43999C3.75 6.01999 4.61 4.19999 6.17 3.29999C7.73 2.39999 9.74 2.56999 11.84 3.77999L18.01 7.33999C20.1 8.54999 21.26 10.21 21.26 12.01C21.26 13.81 20.11 15.47 18.01 16.68L11.84 20.24C10.63 20.93 9.45 21.28 8.37 21.28ZM8.37 4.21999C7.83 4.21999 7.35 4.33999 6.92 4.58999C5.84 5.20999 5.25 6.57999 5.25 8.43999V15.56C5.25 17.42 5.84 18.78 6.92 19.41C8 20.04 9.48 19.86 11.09 18.93L17.26 15.37C18.87 14.44 19.76 13.25 19.76 12C19.76 10.75 18.87 9.55999 17.26 8.62999L11.09 5.06999C10.11 4.50999 9.19 4.21999 8.37 4.21999Z" fill="#171717"/>
</svg>
