<svg width="25" height="24" viewBox="0 0 25 24" fill="none" xmlns="http://www.w3.org/2000/svg">
<path d="M15.41 14.1201C17.21 13.0801 17.21 11.3801 15.41 10.3401L13.96 9.50011L12.51 8.66011C10.71 7.62011 9.23999 8.47011 9.23999 10.5501V12.2201V13.8901C9.23999 15.5501 10.18 16.4301 11.48 16.1801" stroke="#171717" stroke-width="1.5" stroke-miterlimit="10" stroke-linecap="round" stroke-linejoin="round"/>
<path d="M4.5 6C3.25 7.67 2.5 9.75 2.5 12C2.5 17.52 6.98 22 12.5 22C18.02 22 22.5 17.52 22.5 12C22.5 6.48 18.02 2 12.5 2C11.07 2 9.7 2.3 8.47 2.85" stroke="#171717" stroke-width="1.5" stroke-linecap="round" stroke-linejoin="round"/>
</svg>
