<svg width="25" height="24" viewBox="0 0 25 24" fill="none" xmlns="http://www.w3.org/2000/svg">
<path opacity="0.4" d="M22.5 12C22.5 13.31 22.25 14.57 21.78 15.72C21.13 15.27 20.34 15 19.5 15C18.56 15 17.69 15.33 17 15.88C16.08 16.61 15.5 17.74 15.5 19C15.5 19.75 15.71 20.46 16.08 21.06C16.12 21.13 16.17 21.2 16.23 21.27C15.08 21.74 13.82 22 12.5 22C6.98 22 2.5 17.52 2.5 12C2.5 6.48 6.98 2 12.5 2C18.02 2 22.5 6.48 22.5 12Z" fill="#171717"/>
<path d="M9.88 12.0001V10.6101C9.88 8.89008 11.1 8.18007 12.59 9.04007L13.79 9.73007L14.99 10.4201C16.48 11.2801 16.48 12.6901 14.99 13.5501L13.79 14.2401L12.59 14.9301C11.1 15.7901 9.88 15.0901 9.88 13.3601V12.0001Z" fill="#171717"/>
<path d="M19.5 15C18.56 15 17.69 15.33 17 15.88C16.08 16.61 15.5 17.74 15.5 19C15.5 19.75 15.71 20.46 16.08 21.06C16.77 22.22 18.04 23 19.5 23C20.51 23 21.43 22.63 22.13 22C22.44 21.74 22.71 21.42 22.92 21.06C23.29 20.46 23.5 19.75 23.5 19C23.5 16.79 21.71 15 19.5 15ZM21 19.73H20.25V20.51C20.25 20.92 19.91 21.26 19.5 21.26C19.09 21.26 18.75 20.92 18.75 20.51V19.73H18C17.59 19.73 17.25 19.39 17.25 18.98C17.25 18.57 17.59 18.23 18 18.23H18.75V17.52C18.75 17.11 19.09 16.77 19.5 16.77C19.91 16.77 20.25 17.11 20.25 17.52V18.23H21C21.41 18.23 21.75 18.57 21.75 18.98C21.75 19.39 21.41 19.73 21 19.73Z" fill="#171717"/>
</svg>
