<svg width="25" height="24" viewBox="0 0 25 24" fill="none" xmlns="http://www.w3.org/2000/svg">
<path d="M9.88 12.0001V10.6101C9.88 8.89008 11.1 8.18007 12.59 9.04007L13.79 9.73007L14.99 10.4201C16.48 11.2801 16.48 12.6901 14.99 13.5501L13.79 14.2401L12.59 14.9301C11.1 15.7901 9.88 15.0901 9.88 13.3601V12.0001Z" stroke="#171717" stroke-width="1.5" stroke-miterlimit="10" stroke-linecap="round" stroke-linejoin="round"/>
<path d="M20.5699 20.0399L18.45 17.9299" stroke="#171717" stroke-width="1.5" stroke-miterlimit="10" stroke-linecap="round" stroke-linejoin="round"/>
<path d="M20.5499 17.96L18.4299 20.0699" stroke="#171717" stroke-width="1.5" stroke-miterlimit="10" stroke-linecap="round" stroke-linejoin="round"/>
<path d="M23.5 19C23.5 19.75 23.29 20.46 22.92 21.06C22.71 21.42 22.44 21.74 22.13 22C21.43 22.63 20.51 23 19.5 23C18.13 23 16.93 22.31 16.23 21.27C16.17 21.2 16.12 21.13 16.08 21.06C15.71 20.46 15.5 19.75 15.5 19C15.5 17.74 16.08 16.61 17 15.88C17.69 15.33 18.56 15 19.5 15C20.34 15 21.13 15.27 21.78 15.72C22.82 16.44 23.5 17.64 23.5 19Z" stroke="#171717" stroke-width="1.5" stroke-linecap="round" stroke-linejoin="round"/>
<path d="M8.46997 2.84998C9.69997 2.29998 11.07 2 12.5 2C18.02 2 22.5 6.48 22.5 12C22.5 13.31 22.25 14.57 21.78 15.72" stroke="#171717" stroke-width="1.5" stroke-linecap="round" stroke-linejoin="round"/>
<path d="M4.5 6C3.25 7.67 2.5 9.75 2.5 12C2.5 17.52 6.98 22 12.5 22C13.82 22 15.08 21.74 16.23 21.27" stroke="#171717" stroke-width="1.5" stroke-linecap="round" stroke-linejoin="round"/>
</svg>
