<svg width="25" height="24" viewBox="0 0 25 24" fill="none" xmlns="http://www.w3.org/2000/svg">
<path opacity="0.4" d="M12.47 22C17.9928 22 22.47 17.5228 22.47 12C22.47 6.47715 17.9928 2 12.47 2C6.94712 2 2.46997 6.47715 2.46997 12C2.46997 17.5228 6.94712 22 12.47 22Z" fill="#171717"/>
<path d="M15.47 10.2301L12.57 8.56012C11.85 8.14012 10.98 8.14012 10.26 8.56012C9.53999 8.98012 9.10999 9.72012 9.10999 10.5601V13.9101C9.10999 14.7401 9.53999 15.4901 10.26 15.9101C10.62 16.1201 11.02 16.2201 11.41 16.2201C11.81 16.2201 12.2 16.1201 12.56 15.9101L15.46 14.2401C16.18 13.8201 16.61 13.0801 16.61 12.2401C16.63 11.4001 16.2 10.6501 15.47 10.2301Z" fill="#171717"/>
</svg>
