<svg width="25" height="24" viewBox="0 0 25 24" fill="none" xmlns="http://www.w3.org/2000/svg">
<path opacity="0.4" d="M19.57 19.8201C19.38 19.8201 19.19 19.7501 19.04 19.6001C18.75 19.3101 18.75 18.8301 19.04 18.5401C22.65 14.9301 22.65 9.06011 19.04 5.46011C18.75 5.17011 18.75 4.69012 19.04 4.40012C19.33 4.11012 19.81 4.11012 20.1 4.40012C24.29 8.59012 24.29 15.4101 20.1 19.6001C19.95 19.7501 19.76 19.8201 19.57 19.8201Z" fill="#171717"/>
<path opacity="0.4" d="M5.43007 19.8201C5.24007 19.8201 5.05007 19.7501 4.90007 19.6001C0.710068 15.4101 0.710068 8.59012 4.90007 4.40012C5.19007 4.11012 5.67007 4.11012 5.96007 4.40012C6.25007 4.69012 6.25007 5.17011 5.96007 5.46011C2.35007 9.07011 2.35007 14.9401 5.96007 18.5401C6.25007 18.8301 6.25007 19.3101 5.96007 19.6001C5.81007 19.7501 5.62007 19.8201 5.43007 19.8201Z" fill="#171717"/>
<path opacity="0.4" d="M12.5 22.71C11.25 22.7 10.06 22.4999 8.95002 22.1099C8.56002 21.9699 8.35 21.54 8.49 21.15C8.63 20.76 9.05002 20.55 9.45002 20.69C10.41 21.02 11.43 21.2 12.51 21.2C13.58 21.2 14.61 21.02 15.56 20.69C15.95 20.56 16.38 20.76 16.52 21.15C16.66 21.54 16.45 21.9699 16.06 22.1099C14.94 22.4999 13.75 22.71 12.5 22.71Z" fill="#171717"/>
<path opacity="0.4" d="M15.8 3.34009C15.72 3.34009 15.63 3.33005 15.55 3.30005C14.59 2.97005 13.56 2.79004 12.49 2.79004C11.42 2.79004 10.4 2.97005 9.43999 3.30005C9.04999 3.43005 8.61999 3.23009 8.47999 2.84009C8.33999 2.45009 8.54999 2.02007 8.93999 1.88007C10.05 1.49007 11.25 1.29004 12.49 1.29004C13.73 1.29004 14.93 1.49007 16.04 1.88007C16.43 2.02007 16.64 2.45009 16.5 2.84009C16.4 3.15009 16.11 3.34009 15.8 3.34009Z" fill="#171717"/>
<path d="M9.23999 12.0001V10.3302C9.23999 8.25016 10.71 7.40014 12.51 8.44014L13.96 9.28017L15.41 10.1201C17.21 11.1601 17.21 12.8602 15.41 13.9002L13.96 14.7401L12.51 15.5802C10.71 16.6202 9.23999 15.7701 9.23999 13.6901V12.0001Z" fill="#171717"/>
</svg>
