<svg width="25" height="24" viewBox="0 0 25 24" fill="none" xmlns="http://www.w3.org/2000/svg">
<path d="M21.78 15.72C21.13 15.27 20.34 15 19.5 15C18.56 15 17.69 15.33 17 15.88C16.08 16.61 15.5 17.74 15.5 19C15.5 19.75 15.71 20.46 16.08 21.06C16.12 21.13 16.17 21.2 16.23 21.27C16.93 22.31 18.13 23 19.5 23C20.51 23 21.43 22.63 22.13 22C22.44 21.74 22.71 21.42 22.92 21.06C23.29 20.46 23.5 19.75 23.5 19C23.5 17.64 22.82 16.44 21.78 15.72ZM21.1 20.58C20.95 20.73 20.76 20.8 20.57 20.8C20.38 20.8 20.19 20.73 20.04 20.58L19.51 20.05L18.96 20.6C18.81 20.75 18.62 20.82 18.43 20.82C18.24 20.82 18.05 20.75 17.9 20.6C17.61 20.31 17.61 19.83 17.9 19.54L18.45 18.99L17.92 18.46C17.63 18.17 17.63 17.69 17.92 17.4C18.21 17.11 18.69 17.11 18.98 17.4L19.51 17.93L20.01 17.43C20.3 17.14 20.78 17.14 21.07 17.43C21.36 17.72 21.36 18.2 21.07 18.49L20.57 18.99L21.1 19.52C21.39 19.81 21.39 20.28 21.1 20.58Z" fill="#171717"/>
<path opacity="0.4" d="M22.5 12C22.5 13.31 22.25 14.57 21.78 15.72C21.13 15.27 20.34 15 19.5 15C18.56 15 17.69 15.33 17 15.88C16.08 16.61 15.5 17.74 15.5 19C15.5 19.75 15.71 20.46 16.08 21.06C16.12 21.13 16.17 21.2 16.23 21.27C15.08 21.74 13.82 22 12.5 22C6.98 22 2.5 17.52 2.5 12C2.5 6.48 6.98 2 12.5 2C18.02 2 22.5 6.48 22.5 12Z" fill="#171717"/>
<path d="M9.88 12.0001V10.6101C9.88 8.89008 11.1 8.18007 12.59 9.04007L13.79 9.73007L14.99 10.4201C16.48 11.2801 16.48 12.6901 14.99 13.5501L13.79 14.2401L12.59 14.9301C11.1 15.7901 9.88 15.0901 9.88 13.3601V12.0001Z" fill="#171717"/>
</svg>
