<svg width="25" height="24" viewBox="0 0 25 24" fill="none" xmlns="http://www.w3.org/2000/svg">
<path d="M12.5 22.75C6.57 22.75 1.75 17.93 1.75 12C1.75 6.07 6.57 1.25 12.5 1.25C18.43 1.25 23.25 6.07 23.25 12C23.25 13.4 22.99 14.74 22.47 16C22.38 16.21 22.21 16.37 21.99 16.43C21.77 16.5 21.54 16.46 21.35 16.33C20.17 15.52 18.58 15.58 17.46 16.46C16.69 17.07 16.24 18 16.24 18.99C16.24 19.58 16.4 20.16 16.71 20.66C16.74 20.71 16.76 20.74 16.79 20.77C16.95 20.95 17.01 21.2 16.96 21.44C16.91 21.68 16.74 21.87 16.51 21.96C15.24 22.49 13.89 22.75 12.5 22.75ZM12.5 2.75C7.4 2.75 3.25 6.9 3.25 12C3.25 17.1 7.4 21.25 12.5 21.25C13.4 21.25 14.28 21.12 15.13 20.86C14.88 20.28 14.75 19.65 14.75 19C14.75 17.54 15.4 16.19 16.53 15.29C17.89 14.21 19.8 13.96 21.36 14.63C21.61 13.79 21.74 12.9 21.74 11.99C21.75 6.89999 17.6 2.75 12.5 2.75Z" fill="#171717"/>
<path d="M11.3799 16.0701C10.9899 16.0701 10.6199 15.9801 10.2999 15.7901C9.55987 15.3601 9.12988 14.4901 9.12988 13.3901V10.6101C9.12988 9.51008 9.55987 8.64011 10.2999 8.21011C11.0499 7.78011 12.0199 7.85011 12.9699 8.40011L15.3699 9.79007C16.3199 10.3401 16.8599 11.1501 16.8599 12.0001C16.8599 12.8501 16.3199 13.6701 15.3699 14.2101L12.9699 15.6001C12.4299 15.9101 11.8899 16.0701 11.3799 16.0701ZM11.3899 9.43008C11.2599 9.43008 11.1499 9.4601 11.0499 9.5101C10.7799 9.6701 10.6299 10.0701 10.6299 10.6101V13.3901C10.6299 13.9301 10.7799 14.3401 11.0499 14.4901C11.3199 14.6401 11.7399 14.5801 12.2199 14.3001L14.6199 12.9101C15.0899 12.6401 15.3599 12.3001 15.3599 11.9901C15.3599 11.6801 15.0899 11.3501 14.6199 11.0701L12.2199 9.68008C11.9099 9.52008 11.6299 9.43008 11.3899 9.43008Z" fill="#171717"/>
<path d="M19.5 23.75C17.84 23.75 16.28 22.87 15.44 21.44C14.99 20.72 14.75 19.87 14.75 19C14.75 17.54 15.4 16.19 16.53 15.29C17.37 14.62 18.43 14.25 19.5 14.25C22.12 14.25 24.25 16.38 24.25 19C24.25 19.87 24.01 20.72 23.56 21.45C23.31 21.87 22.99 22.25 22.61 22.57C21.78 23.33 20.67 23.75 19.5 23.75ZM19.5 15.75C18.76 15.75 18.06 16 17.47 16.47C16.7 17.08 16.25 18.01 16.25 19C16.25 19.59 16.41 20.17 16.72 20.67C17.3 21.65 18.37 22.25 19.5 22.25C20.29 22.25 21.05 21.96 21.63 21.44C21.89 21.22 22.11 20.96 22.27 20.68C22.59 20.17 22.75 19.59 22.75 19C22.75 17.21 21.29 15.75 19.5 15.75Z" fill="#171717"/>
<path d="M20.9998 19.73H18.0098C17.5998 19.73 17.2598 19.39 17.2598 18.98C17.2598 18.57 17.5998 18.23 18.0098 18.23H20.9998C21.4098 18.23 21.7498 18.57 21.7498 18.98C21.7498 19.39 21.4098 19.73 20.9998 19.73Z" fill="#171717"/>
<path d="M19.5 21.26C19.09 21.26 18.75 20.92 18.75 20.51V17.52C18.75 17.11 19.09 16.77 19.5 16.77C19.91 16.77 20.25 17.11 20.25 17.52V20.51C20.25 20.93 19.91 21.26 19.5 21.26Z" fill="#171717"/>
</svg>
