<svg width="25" height="24" viewBox="0 0 25 24" fill="none" xmlns="http://www.w3.org/2000/svg">
<path d="M19.5698 19.8201C19.3798 19.8201 19.1898 19.7501 19.0398 19.6001C18.7498 19.3101 18.7498 18.8301 19.0398 18.5401C22.6498 14.9301 22.6498 9.06011 19.0398 5.46011C18.7498 5.17011 18.7498 4.69012 19.0398 4.40012C19.3298 4.11012 19.8098 4.11012 20.0998 4.40012C24.2898 8.59012 24.2898 15.4101 20.0998 19.6001C19.9498 19.7501 19.7598 19.8201 19.5698 19.8201Z" fill="#171717"/>
<path d="M5.42982 19.8201C5.23982 19.8201 5.04982 19.7501 4.89982 19.6001C0.709824 15.4101 0.709824 8.59012 4.89982 4.40012C5.18982 4.11012 5.66982 4.11012 5.95982 4.40012C6.24982 4.69012 6.24982 5.17011 5.95982 5.46011C2.34982 9.07011 2.34982 14.9401 5.95982 18.5401C6.24982 18.8301 6.24982 19.3101 5.95982 19.6001C5.80982 19.7501 5.61982 19.8201 5.42982 19.8201Z" fill="#171717"/>
<path d="M12.4998 22.71C11.2498 22.7 10.0598 22.4999 8.94978 22.1099C8.55978 21.9699 8.34976 21.54 8.48976 21.15C8.62976 20.76 9.04978 20.55 9.44978 20.69C10.4098 21.02 11.4298 21.2 12.5098 21.2C13.5798 21.2 14.6098 21.02 15.5598 20.69C15.9498 20.56 16.3798 20.76 16.5198 21.15C16.6598 21.54 16.4498 21.9699 16.0598 22.1099C14.9398 22.4999 13.7498 22.71 12.4998 22.71Z" fill="#171717"/>
<path d="M15.8 3.34009C15.72 3.34009 15.63 3.33005 15.55 3.30005C14.59 2.97005 13.56 2.79004 12.49 2.79004C11.42 2.79004 10.4 2.97005 9.43999 3.30005C9.04999 3.43005 8.61999 3.23009 8.47999 2.84009C8.33999 2.45009 8.54999 2.02007 8.93999 1.88007C10.05 1.49007 11.25 1.29004 12.49 1.29004C13.73 1.29004 14.93 1.49007 16.04 1.88007C16.43 2.02007 16.64 2.45009 16.5 2.84009C16.4 3.15009 16.11 3.34009 15.8 3.34009Z" fill="#171717"/>
<path d="M11.0602 16.76C10.6202 16.76 10.2002 16.65 9.83023 16.44C8.97023 15.94 8.49023 14.96 8.49023 13.68V10.33C8.49023 9.05003 8.96023 8.07002 9.83023 7.57002C10.6902 7.07002 11.7803 7.15 12.8903 7.79L15.7903 9.46004C16.9003 10.1 17.5103 11 17.5103 12C17.5103 13 16.9003 13.9 15.7903 14.54L12.8903 16.21C12.2603 16.58 11.6302 16.76 11.0602 16.76ZM11.0602 8.74001C10.8802 8.74001 10.7102 8.78 10.5802 8.86C10.2102 9.08 9.99023 9.61002 9.99023 10.32V13.67C9.99023 14.38 10.2002 14.92 10.5802 15.13C10.9502 15.34 11.5203 15.26 12.1403 14.91L15.0403 13.24C15.6603 12.88 16.0103 12.43 16.0103 12C16.0103 11.57 15.6603 11.12 15.0403 10.76L12.1403 9.09004C11.7403 8.86004 11.3702 8.74001 11.0602 8.74001Z" fill="#171717"/>
</svg>
