<svg width="25" height="24" viewBox="0 0 25 24" fill="none" xmlns="http://www.w3.org/2000/svg">
<path d="M12.5 22.75C6.57 22.75 1.75 17.93 1.75 12C1.75 6.07 6.57 1.25 12.5 1.25C18.43 1.25 23.25 6.07 23.25 12C23.25 13.4 22.99 14.74 22.47 16C22.38 16.21 22.21 16.37 21.99 16.43C21.77 16.5 21.54 16.46 21.35 16.33C20.17 15.52 18.57 15.58 17.46 16.46C16.69 17.07 16.24 18 16.24 18.99C16.24 19.58 16.4 20.16 16.71 20.66C16.74 20.71 16.76 20.74 16.79 20.77C16.95 20.95 17.01 21.2 16.96 21.44C16.91 21.68 16.74 21.87 16.51 21.96C15.24 22.49 13.89 22.75 12.5 22.75ZM12.5 2.75C7.4 2.75 3.25 6.9 3.25 12C3.25 17.1 7.4 21.25 12.5 21.25C13.4 21.25 14.28 21.12 15.13 20.86C14.88 20.28 14.75 19.65 14.75 19C14.75 17.54 15.4 16.19 16.53 15.29C17.88 14.21 19.8 13.96 21.36 14.63C21.61 13.79 21.74 12.9 21.74 11.99C21.75 6.89999 17.6 2.75 12.5 2.75Z" fill="#171717"/>
<path d="M11.3799 16.0701C10.9899 16.0701 10.6199 15.9801 10.2999 15.7901C9.55987 15.3601 9.12988 14.4901 9.12988 13.3901V10.6101C9.12988 9.51008 9.55987 8.64011 10.2999 8.21011C11.0499 7.78011 12.0199 7.85011 12.9699 8.40011L15.3699 9.79007C16.3199 10.3401 16.8599 11.1501 16.8599 12.0001C16.8599 12.8501 16.3199 13.6701 15.3699 14.2101L12.9699 15.6001C12.4299 15.9101 11.8899 16.0701 11.3799 16.0701ZM11.3899 9.43008C11.2599 9.43008 11.1499 9.4601 11.0499 9.5101C10.7799 9.6701 10.6299 10.0701 10.6299 10.6101V13.3901C10.6299 13.9301 10.7799 14.3401 11.0499 14.4901C11.3199 14.6401 11.7399 14.5801 12.2199 14.3001L14.6199 12.9101C15.0899 12.6401 15.3599 12.3001 15.3599 11.9901C15.3599 11.6801 15.0899 11.3501 14.6199 11.0701L12.2199 9.68008C11.9099 9.52008 11.6299 9.43008 11.3899 9.43008Z" fill="#171717"/>
<path d="M19.5 23.75C17.93 23.75 16.48 22.98 15.61 21.69C15.57 21.66 15.49 21.54 15.43 21.43C14.99 20.72 14.75 19.87 14.75 19C14.75 17.54 15.4 16.19 16.53 15.29C18.14 14.01 20.51 13.92 22.2 15.1C23.48 15.99 24.24 17.44 24.24 19C24.24 19.87 24 20.7201 23.55 21.4501C23.3 21.8701 22.98 22.25 22.6 22.57C21.78 23.33 20.67 23.75 19.5 23.75ZM19.5 15.75C18.76 15.75 18.06 16 17.47 16.47C16.7 17.08 16.25 18.01 16.25 19C16.25 19.59 16.41 20.17 16.72 20.67C16.75 20.72 16.77 20.7501 16.8 20.7801C17.45 21.7301 18.44 22.25 19.51 22.25C20.3 22.25 21.06 21.96 21.64 21.44C21.9 21.22 22.12 20.96 22.28 20.68C22.6 20.17 22.76 19.59 22.76 19C22.76 17.94 22.24 16.9401 21.36 16.3401C20.8 15.9501 20.16 15.75 19.5 15.75Z" fill="#171717"/>
<path d="M20.5699 20.7901C20.3799 20.7901 20.1899 20.7201 20.0399 20.5701L17.9299 18.4601C17.6399 18.1701 17.6399 17.6901 17.9299 17.4001C18.2199 17.1101 18.6999 17.1101 18.9899 17.4001L21.0999 19.5101C21.3899 19.8001 21.3899 20.2801 21.0999 20.5701C20.9499 20.7201 20.7599 20.7901 20.5699 20.7901Z" fill="#171717"/>
<path d="M18.4301 20.8199C18.2401 20.8199 18.0501 20.7499 17.9001 20.5999C17.6101 20.3099 17.6101 19.8299 17.9001 19.5399L20.0101 17.4299C20.3001 17.1399 20.7801 17.1399 21.0701 17.4299C21.3601 17.7199 21.3601 18.1999 21.0701 18.4899L18.9601 20.5999C18.8101 20.7499 18.6201 20.8199 18.4301 20.8199Z" fill="#171717"/>
</svg>
