<svg width="25" height="24" viewBox="0 0 25 24" fill="none" xmlns="http://www.w3.org/2000/svg">
<path d="M23.5 19C23.5 19.75 23.29 20.46 22.92 21.06C22.71 21.42 22.44 21.74 22.13 22C21.43 22.63 20.51 23 19.5 23C18.04 23 16.77 22.22 16.08 21.06C15.71 20.46 15.5 19.75 15.5 19C15.5 17.74 16.08 16.61 17 15.88C17.69 15.33 18.56 15 19.5 15C21.71 15 23.5 16.79 23.5 19Z" stroke="#171717" stroke-width="1.5" stroke-miterlimit="10" stroke-linecap="round" stroke-linejoin="round"/>
<path d="M20.99 18.98H18.01" stroke="#171717" stroke-width="1.5" stroke-miterlimit="10" stroke-linecap="round" stroke-linejoin="round"/>
<path d="M19.5 17.52V20.51" stroke="#171717" stroke-width="1.5" stroke-miterlimit="10" stroke-linecap="round" stroke-linejoin="round"/>
<path d="M8.46997 2.84998C9.69997 2.29998 11.07 2 12.5 2C18.02 2 22.5 6.48 22.5 12C22.5 13.31 22.25 14.57 21.78 15.72" stroke="#171717" stroke-width="1.5" stroke-linecap="round" stroke-linejoin="round"/>
<path d="M9.80005 11.9996V10.6096C9.80005 8.88959 11.02 8.17958 12.51 9.03958L13.7101 9.72958L14.91 10.4196C16.4 11.2796 16.4 12.6896 14.91 13.5496L13.7101 14.2396L12.51 14.9296C11.02 15.7896 9.80005 15.0896 9.80005 13.3596V11.9996Z" stroke="#171717" stroke-width="1.5" stroke-miterlimit="10" stroke-linecap="round" stroke-linejoin="round"/>
<path d="M4.5 6C3.25 7.67 2.5 9.75 2.5 12C2.5 17.52 6.98 22 12.5 22C13.82 22 15.08 21.74 16.23 21.27" stroke="#171717" stroke-width="1.5" stroke-linecap="round" stroke-linejoin="round"/>
</svg>
