<svg width="25" height="24" viewBox="0 0 25 24" fill="none" xmlns="http://www.w3.org/2000/svg">
<path d="M18.1901 20.0899C17.6201 20.0899 17.0601 19.9399 16.5401 19.6399L8.25009 14.8599C7.22009 14.2599 6.6001 13.1899 6.6001 11.9999C6.6001 10.8099 7.22009 9.73994 8.25009 9.13994L16.5401 4.35991C17.5701 3.75991 18.8001 3.75991 19.8401 4.35991C20.8801 4.95991 21.4901 6.01993 21.4901 7.21993V16.7899C21.4901 17.9799 20.8701 19.0499 19.8401 19.6499C19.3201 19.9399 18.7601 20.0899 18.1901 20.0899ZM18.1901 5.40993C17.8801 5.40993 17.5701 5.48992 17.2901 5.64992L9.00009 10.4299C8.44009 10.7599 8.1001 11.3399 8.1001 11.9899C8.1001 12.6399 8.44009 13.2199 9.00009 13.5499L17.2901 18.3299C17.8501 18.6599 18.5301 18.6599 19.0901 18.3299C19.6501 17.9999 19.9901 17.4199 19.9901 16.7699V7.19994C19.9901 6.54994 19.6501 5.96994 19.0901 5.63994C18.8101 5.49994 18.5001 5.40993 18.1901 5.40993Z" fill="#171717"/>
<path d="M4.25977 18.9301C3.84977 18.9301 3.50977 18.5901 3.50977 18.1801V5.82007C3.50977 5.41007 3.84977 5.07007 4.25977 5.07007C4.66977 5.07007 5.00977 5.41007 5.00977 5.82007V18.1801C5.00977 18.5901 4.66977 18.9301 4.25977 18.9301Z" fill="#171717"/>
</svg>
