<svg width="25" height="24" viewBox="0 0 25 24" fill="none" xmlns="http://www.w3.org/2000/svg">
<path d="M17.5 22.75H7.5C4.06 22.75 1.75 20.44 1.75 17V10C1.75 6.56 4.06 4.25 7.5 4.25H17.5C20.94 4.25 23.25 6.56 23.25 10V17C23.25 20.44 20.94 22.75 17.5 22.75ZM7.5 5.75C4.92 5.75 3.25 7.42 3.25 10V17C3.25 19.58 4.92 21.25 7.5 21.25H17.5C20.08 21.25 21.75 19.58 21.75 17V10C21.75 7.42 20.08 5.75 17.5 5.75H7.5Z" fill="#171717"/>
<path d="M7.5 5.75C7.09 5.75 6.75 5.41 6.75 5V2C6.75 1.59 7.09 1.25 7.5 1.25C7.91 1.25 8.25 1.59 8.25 2V5C8.25 5.41 7.91 5.75 7.5 5.75Z" fill="#171717"/>
<path d="M9 16.75C7.21 16.75 5.75 15.29 5.75 13.5C5.75 11.71 7.21 10.25 9 10.25C10.79 10.25 12.25 11.71 12.25 13.5C12.25 15.29 10.79 16.75 9 16.75ZM9 11.75C8.04 11.75 7.25 12.54 7.25 13.5C7.25 14.46 8.04 15.25 9 15.25C9.96 15.25 10.75 14.46 10.75 13.5C10.75 12.54 9.96 11.75 9 11.75Z" fill="#171717"/>
<path d="M19 11.75H15C14.59 11.75 14.25 11.41 14.25 11C14.25 10.59 14.59 10.25 15 10.25H19C19.41 10.25 19.75 10.59 19.75 11C19.75 11.41 19.41 11.75 19 11.75Z" fill="#171717"/>
<path d="M15.5 15.75H15C14.59 15.75 14.25 15.41 14.25 15C14.25 14.59 14.59 14.25 15 14.25H15.5C15.91 14.25 16.25 14.59 16.25 15C16.25 15.41 15.91 15.75 15.5 15.75Z" fill="#171717"/>
<path d="M19 15.75H18.5C18.09 15.75 17.75 15.41 17.75 15C17.75 14.59 18.09 14.25 18.5 14.25H19C19.41 14.25 19.75 14.59 19.75 15C19.75 15.41 19.41 15.75 19 15.75Z" fill="#171717"/>
</svg>
