<svg width="25" height="24" viewBox="0 0 25 24" fill="none" xmlns="http://www.w3.org/2000/svg">
<path opacity="0.4" d="M22.5 10V17C22.5 20 20.5 22 17.5 22H7.5C4.5 22 2.5 20 2.5 17V10C2.5 7.26 4.17 5.34999 6.75 5.04999C6.99 5.00999 7.24 5 7.5 5H17.5C20.5 5 22.5 7 22.5 10Z" fill="#171717"/>
<path d="M8.25 2V5H7.5C7.24 5 6.99 5.00999 6.75 5.04999V2C6.75 1.59 7.09 1.25 7.5 1.25C7.91 1.25 8.25 1.59 8.25 2Z" fill="#171717"/>
<path d="M8.38 16C9.76072 16 10.88 14.8807 10.88 13.5C10.88 12.1193 9.76072 11 8.38 11C6.99929 11 5.88 12.1193 5.88 13.5C5.88 14.8807 6.99929 16 8.38 16Z" fill="#171717"/>
<path d="M18.38 12.25H14.38C13.97 12.25 13.63 11.91 13.63 11.5C13.63 11.09 13.97 10.75 14.38 10.75H18.38C18.79 10.75 19.13 11.09 19.13 11.5C19.13 11.91 18.79 12.25 18.38 12.25Z" fill="#171717"/>
<path d="M14.88 16.25H14.38C13.97 16.25 13.63 15.91 13.63 15.5C13.63 15.09 13.97 14.75 14.38 14.75H14.88C15.29 14.75 15.63 15.09 15.63 15.5C15.63 15.91 15.29 16.25 14.88 16.25Z" fill="#171717"/>
<path d="M18.38 16.25H17.88C17.47 16.25 17.13 15.91 17.13 15.5C17.13 15.09 17.47 14.75 17.88 14.75H18.38C18.79 14.75 19.13 15.09 19.13 15.5C19.13 15.91 18.79 16.25 18.38 16.25Z" fill="#171717"/>
</svg>
