<svg width="25" height="24" viewBox="0 0 25 24" fill="none" xmlns="http://www.w3.org/2000/svg">
<path d="M16.73 12C16.73 9.66002 14.84 7.77002 12.5 7.77002C10.16 7.77002 8.27002 9.66002 8.27002 12C8.27002 14.34 10.16 16.23 12.5 16.23C13.07 16.23 13.61 16.12 14.1 15.92" stroke="#171717" stroke-width="1.5" stroke-miterlimit="10" stroke-linecap="round" stroke-linejoin="round"/>
<path d="M4.5 6C3.25 7.67 2.5 9.75 2.5 12C2.5 17.52 6.98 22 12.5 22C18.02 22 22.5 17.52 22.5 12C22.5 6.48 18.02 2 12.5 2C11.07 2 9.7 2.3 8.47 2.85" stroke="#171717" stroke-width="1.5" stroke-linecap="round" stroke-linejoin="round"/>
</svg>
