<svg width="25" height="24" viewBox="0 0 25 24" fill="none" xmlns="http://www.w3.org/2000/svg">
<path d="M12.47 22.75C6.54997 22.75 1.71997 17.93 1.71997 12C1.71997 6.07 6.54997 1.25 12.47 1.25C18.39 1.25 23.22 6.07 23.22 12C23.22 17.93 18.4 22.75 12.47 22.75ZM12.47 2.75C7.36997 2.75 3.21997 6.9 3.21997 12C3.21997 17.1 7.36997 21.25 12.47 21.25C17.57 21.25 21.72 17.1 21.72 12C21.72 6.9 17.57 2.75 12.47 2.75Z" fill="#171717"/>
<path d="M12.5 16.98C9.75002 16.98 7.52002 14.75 7.52002 12C7.52002 9.25002 9.75002 7.02002 12.5 7.02002C15.25 7.02002 17.48 9.25002 17.48 12C17.48 14.75 15.25 16.98 12.5 16.98ZM12.5 8.52002C10.58 8.52002 9.02002 10.08 9.02002 12C9.02002 13.92 10.58 15.48 12.5 15.48C14.42 15.48 15.98 13.92 15.98 12C15.98 10.08 14.42 8.52002 12.5 8.52002Z" fill="#171717"/>
</svg>
