<svg width="25" height="24" viewBox="0 0 25 24" fill="none" xmlns="http://www.w3.org/2000/svg">
<path opacity="0.4" d="M4.41 17.1799C4.22 17.1799 4.03 17.1099 3.88 16.9599C2.51 15.5799 1.75 13.7599 1.75 11.8299C1.75 7.81994 5 4.55992 9 4.55992L15.07 4.57994L13.98 3.5399C13.68 3.2499 13.67 2.77991 13.96 2.47991C14.25 2.17991 14.72 2.16995 15.02 2.45995L17.46 4.79991C17.68 5.00991 17.75 5.33992 17.64 5.61992C17.53 5.89992 17.25 6.08995 16.94 6.08995L8.98999 6.06993C5.81999 6.06993 3.23999 8.65995 3.23999 11.84C3.23999 13.37 3.83999 14.8199 4.92999 15.9099C5.21999 16.1999 5.21999 16.6799 4.92999 16.9699C4.78999 17.1099 4.6 17.1799 4.41 17.1799Z" fill="#171717"/>
<path opacity="0.4" d="M10.5 21.75C10.31 21.75 10.13 21.6799 9.98004 21.5399L7.54004 19.2C7.32004 18.99 7.25002 18.66 7.36002 18.38C7.48002 18.1 7.76003 17.9499 8.06003 17.9099L16.01 17.93C19.18 17.93 21.76 15.3399 21.76 12.1599C21.76 10.6299 21.16 9.18 20.07 8.09C19.78 7.8 19.78 7.32 20.07 7.03C20.36 6.74 20.84 6.74 21.13 7.03C22.5 8.41 23.26 10.2299 23.26 12.1599C23.26 16.1699 20.01 19.43 16.01 19.43L9.94003 19.4099L11.03 20.45C11.33 20.74 11.34 21.21 11.05 21.51C10.89 21.67 10.7 21.75 10.5 21.75Z" fill="#171717"/>
<path d="M12.75 15.4201C12.34 15.4201 12 15.0801 12 14.6701V11.2801L11.81 11.4901C11.53 11.8001 11.06 11.8201 10.75 11.5501C10.44 11.2801 10.42 10.8001 10.69 10.4901L12.19 8.82008C12.4 8.59008 12.73 8.51007 13.02 8.62007C13.31 8.73007 13.5 9.01008 13.5 9.32008V14.6701C13.5 15.0901 13.16 15.4201 12.75 15.4201Z" fill="#171717"/>
</svg>
