<svg width="25" height="24" viewBox="0 0 25 24" fill="none" xmlns="http://www.w3.org/2000/svg">
<path opacity="0.4" d="M4.16 16.9314C3.97 16.9314 3.78 16.8614 3.63 16.7114C2.26 15.3314 1.5 13.5114 1.5 11.5814C1.5 7.57141 4.75 4.31139 8.75 4.31139L14.82 4.33141L13.73 3.29137C13.43 3.00137 13.42 2.53137 13.71 2.23137C14 1.93137 14.47 1.92141 14.77 2.21141L17.21 4.55138C17.43 4.76138 17.5 5.09139 17.39 5.37139C17.28 5.65139 17 5.84142 16.69 5.84142L8.74001 5.8214C5.57001 5.8214 2.99001 8.41142 2.99001 11.5914C2.99001 13.1214 3.58999 14.5714 4.67999 15.6614C4.96999 15.9514 4.96999 16.4314 4.67999 16.7214C4.53999 16.8614 4.35 16.9314 4.16 16.9314Z" fill="#171717"/>
<path opacity="0.4" d="M10.2499 21.5014C10.0599 21.5014 9.8799 21.4314 9.7299 21.2914L7.2899 18.9514C7.0699 18.7414 6.9999 18.4114 7.1099 18.1314C7.2199 17.8514 7.4999 17.6614 7.8099 17.6614L15.7599 17.6814C18.9299 17.6814 21.5099 15.0914 21.5099 11.9114C21.5099 10.3814 20.9099 8.93146 19.8199 7.84146C19.5299 7.55146 19.5299 7.07146 19.8199 6.78146C20.1099 6.49146 20.5899 6.49146 20.8799 6.78146C22.2499 8.16146 23.0099 9.98141 23.0099 11.9114C23.0099 15.9214 19.7599 19.1814 15.7599 19.1814L9.6899 19.1614L10.7799 20.2014C11.0799 20.4914 11.0899 20.9614 10.7999 21.2614C10.6399 21.4214 10.4499 21.5014 10.2499 21.5014Z" fill="#171717"/>
<path d="M9.5 15.5H15.5C17.43 15.5 19 13.92 19 12C19 10.08 17.43 8.5 15.5 8.5H9.5C7.57 8.5 6 10.08 6 12C6 13.92 7.57 15.5 9.5 15.5Z" fill="#171717"/>
</svg>
