<svg width="25" height="24" viewBox="0 0 25 24" fill="none" xmlns="http://www.w3.org/2000/svg">
<path d="M4.41 17.1799C4.22 17.1799 4.03 17.1099 3.88 16.9599C2.51 15.5799 1.75 13.7599 1.75 11.8299C1.75 7.81994 5 4.55992 9 4.55992L15.07 4.57994L13.98 3.5399C13.68 3.2499 13.67 2.77991 13.96 2.47991C14.25 2.17991 14.72 2.16995 15.02 2.45995L17.46 4.79991C17.68 5.00991 17.75 5.33992 17.64 5.61992C17.53 5.89992 17.25 6.08995 16.94 6.08995L8.99001 6.06993C5.82001 6.06993 3.24001 8.65995 3.24001 11.84C3.24001 13.37 3.83999 14.8199 4.92999 15.9099C5.21999 16.1999 5.21999 16.6799 4.92999 16.9699C4.78999 17.1099 4.6 17.1799 4.41 17.1799Z" fill="#171717"/>
<path d="M10.4999 21.75C10.3099 21.75 10.1299 21.6799 9.9799 21.5399L7.5399 19.2C7.3199 18.99 7.2499 18.66 7.3599 18.38C7.4699 18.1 7.7499 17.9099 8.0599 17.9099L16.0099 17.93C19.1799 17.93 21.7599 15.3399 21.7599 12.1599C21.7599 10.6299 21.1599 9.18 20.0699 8.09C19.7799 7.8 19.7799 7.32 20.0699 7.03C20.3599 6.74 20.8399 6.74 21.1299 7.03C22.4999 8.41 23.2599 10.2299 23.2599 12.1599C23.2599 16.1699 20.0099 19.43 16.0099 19.43L9.9399 19.4099L11.0299 20.45C11.3299 20.74 11.3399 21.21 11.0499 21.51C10.8899 21.67 10.6999 21.75 10.4999 21.75Z" fill="#171717"/>
<path d="M15.5 12.75H9.5C9.09 12.75 8.75 12.41 8.75 12C8.75 11.59 9.09 11.25 9.5 11.25H15.5C15.91 11.25 16.25 11.59 16.25 12C16.25 12.41 15.91 12.75 15.5 12.75Z" fill="#171717"/>
</svg>
