<svg width="25" height="24" viewBox="0 0 25 24" fill="none" xmlns="http://www.w3.org/2000/svg">
<path d="M15.5 22.75H9.5C4.07 22.75 1.75 20.43 1.75 15V9C1.75 3.57 4.07 1.25 9.5 1.25H15.5C20.93 1.25 23.25 3.57 23.25 9V15C23.25 20.43 20.93 22.75 15.5 22.75ZM9.5 2.75C4.89 2.75 3.25 4.39 3.25 9V15C3.25 19.61 4.89 21.25 9.5 21.25H15.5C20.11 21.25 21.75 19.61 21.75 15V9C21.75 4.39 20.11 2.75 15.5 2.75H9.5Z" fill="#171717"/>
<path d="M8.91998 11.65C7.44998 11.65 6.25 10.45 6.25 8.98004C6.25 7.51004 7.44998 6.30005 8.91998 6.30005C10.39 6.30005 11.59 7.50004 11.59 8.98004C11.59 10.46 10.4 11.65 8.91998 11.65ZM8.91998 7.80005C8.26998 7.80005 7.75 8.33004 7.75 8.98004C7.75 9.63004 8.27998 10.15 8.91998 10.15C9.55998 10.15 10.09 9.62004 10.09 8.98004C10.09 8.34004 9.56998 7.80005 8.91998 7.80005Z" fill="#171717"/>
<path d="M8.91998 17.7001C7.44998 17.7001 6.25 16.5001 6.25 15.0201C6.25 13.5401 7.44998 12.3501 8.91998 12.3501C10.39 12.3501 11.59 13.5501 11.59 15.0201C11.59 16.4901 10.4 17.7001 8.91998 17.7001ZM8.91998 13.8501C8.26998 13.8501 7.75 14.3801 7.75 15.0201C7.75 15.6601 8.27998 16.2001 8.91998 16.2001C9.55998 16.2001 10.09 15.6701 10.09 15.0201C10.09 14.3701 9.56998 13.8501 8.91998 13.8501Z" fill="#171717"/>
<path d="M10.6599 14.94C10.4299 14.94 10.2099 14.84 10.0599 14.64C9.80993 14.31 9.87996 13.84 10.21 13.59L17.5499 8.09998C17.8799 7.84998 18.3499 7.91998 18.5999 8.24998C18.8499 8.57998 18.7799 9.04998 18.4499 9.29998L11.1099 14.79C10.9699 14.89 10.8199 14.94 10.6599 14.94Z" fill="#171717"/>
<path d="M17.9999 16.0301C17.8399 16.0301 17.6899 15.9801 17.5499 15.8801L10.21 10.3901C9.87996 10.1401 9.80993 9.67006 10.0599 9.34006C10.3099 9.01006 10.7799 8.94007 11.1099 9.19007L18.4499 14.6801C18.7799 14.9301 18.8499 15.4001 18.5999 15.7301C18.4499 15.9301 18.2299 16.0301 17.9999 16.0301Z" fill="#171717"/>
</svg>
