<svg width="25" height="24" viewBox="0 0 25 24" fill="none" xmlns="http://www.w3.org/2000/svg">
<path opacity="0.4" d="M16.69 2H8.32001C4.68001 2 2.51001 4.17 2.51001 7.81V16.18C2.51001 19.82 4.68001 21.99 8.32001 21.99H16.69C20.33 21.99 22.5 19.82 22.5 16.18V7.81C22.5 4.17 20.33 2 16.69 2Z" fill="#171717"/>
<path d="M14.67 11.9899L18.27 9.29992C18.6 9.04992 18.67 8.57992 18.42 8.24992C18.17 7.91992 17.7 7.84992 17.37 8.09992L13.42 11.0499L11.02 9.24992C11.03 9.15992 11.05 9.06992 11.05 8.96992C11.05 7.69992 10.02 6.66992 8.75 6.66992C7.48 6.66992 6.45001 7.69992 6.45001 8.96992C6.45001 10.2399 7.48 11.2699 8.75 11.2699C9.37 11.2699 9.92998 11.0199 10.35 10.6199L12.18 11.9899L10.34 13.3699C9.93003 12.9799 9.37001 12.7299 8.76001 12.7299C7.49001 12.7299 6.46002 13.7599 6.46002 15.0299C6.46002 16.2999 7.49001 17.3299 8.76001 17.3299C10.03 17.3299 11.06 16.2999 11.06 15.0299C11.06 14.9299 11.04 14.8299 11.03 14.7299L13.44 12.9299L17.39 15.8799C17.52 15.9799 17.68 16.0299 17.84 16.0299C18.07 16.0299 18.29 15.9299 18.44 15.7299C18.69 15.3999 18.62 14.9299 18.29 14.6799L14.67 11.9899Z" fill="#171717"/>
</svg>
