<svg width="25" height="24" viewBox="0 0 25 24" fill="none" xmlns="http://www.w3.org/2000/svg">
<path d="M15.5 22.75H9.5C4.07 22.75 1.75 20.43 1.75 15V9C1.75 3.57 4.07 1.25 9.5 1.25H15.5C20.93 1.25 23.25 3.57 23.25 9V15C23.25 20.43 20.93 22.75 15.5 22.75ZM9.5 2.75C4.89 2.75 3.25 4.39 3.25 9V15C3.25 19.61 4.89 21.25 9.5 21.25H15.5C20.11 21.25 21.75 19.61 21.75 15V9C21.75 4.39 20.11 2.75 15.5 2.75H9.5Z" fill="#171717"/>
<path d="M16.9 19.25H13.1C11.18 19.25 10.25 18.32 10.25 16.4V14.6C10.25 12.68 11.18 11.75 13.1 11.75H16.9C18.82 11.75 19.75 12.68 19.75 14.6V16.4C19.75 18.32 18.82 19.25 16.9 19.25ZM13.1 13.25C12.02 13.25 11.75 13.52 11.75 14.6V16.4C11.75 17.48 12.02 17.75 13.1 17.75H16.9C17.98 17.75 18.25 17.48 18.25 16.4V14.6C18.25 13.52 17.98 13.25 16.9 13.25H13.1Z" fill="#171717"/>
</svg>
