<svg width="25" height="24" viewBox="0 0 25 24" fill="none" xmlns="http://www.w3.org/2000/svg">
<path opacity="0.4" d="M22.25 17.9799C22.25 17.9599 22.24 17.9399 22.24 17.9199C22.23 17.8399 22.22 17.7599 22.19 17.6899C22.15 17.5999 22.1 17.5299 22.04 17.4599C22.04 17.4599 22.04 17.4499 22.03 17.4499C21.96 17.3799 21.88 17.3299 21.79 17.2899C21.7 17.2499 21.6 17.2299 21.5 17.2299L16.83 17.2499C16.83 17.2499 16.83 17.2499 16.82 17.2499C16.22 17.2499 15.64 16.9699 15.28 16.4899L14.06 14.9199C13.81 14.5899 13.34 14.5299 13.01 14.7899C12.68 15.0499 12.62 15.5099 12.88 15.8399L14.1 17.4099C14.75 18.2499 15.77 18.7499 16.83 18.7499H16.84L19.69 18.7399L18.98 19.4499C18.69 19.7399 18.69 20.2199 18.98 20.5099C19.13 20.6599 19.32 20.7299 19.51 20.7299C19.7 20.7299 19.89 20.6599 20.04 20.5099L22.04 18.5099C22.11 18.4399 22.16 18.3599 22.2 18.2699C22.23 18.1699 22.25 18.0699 22.25 17.9799Z" fill="#171717"/>
<path opacity="0.4" d="M8.92001 6.69C8.27001 5.79 7.23 5.26001 6.12 5.26001C6.11 5.26001 6.11001 5.26001 6.10001 5.26001L3.48999 5.27002C3.07999 5.27002 2.73999 5.61002 2.73999 6.02002C2.73999 6.43002 3.07999 6.77002 3.48999 6.77002L6.10001 6.76001H6.10999C6.73999 6.76001 7.33 7.06001 7.69 7.57001L8.76999 9.07001C8.91999 9.27001 9.15 9.38 9.38 9.38C9.53 9.38 9.69001 9.32999 9.82001 9.23999C10.16 8.99999 10.23 8.53 9.98999 8.19L8.92001 6.69Z" fill="#171717"/>
<path d="M22.24 6.07999C22.24 6.05999 22.25 6.04 22.25 6.03C22.25 5.93 22.23 5.82996 22.19 5.73996C22.15 5.64996 22.1 5.56997 22.03 5.49997L20.03 3.49997C19.74 3.20997 19.26 3.20997 18.97 3.49997C18.68 3.78997 18.68 4.26997 18.97 4.55997L19.68 5.26999L16.95 5.25998C16.94 5.25998 16.94 5.25998 16.93 5.25998C15.78 5.25998 14.7 5.82996 14.06 6.79996L7.67001 16.38C7.31001 16.92 6.69999 17.25 6.04999 17.25H6.04001L3.48999 17.24C3.07999 17.24 2.73999 17.57 2.73999 17.99C2.73999 18.4 3.06999 18.74 3.48999 18.74L6.04001 18.75C6.05001 18.75 6.05 18.75 6.06 18.75C7.22 18.75 8.28999 18.18 8.92999 17.21L15.32 7.62998C15.68 7.08998 16.29 6.75998 16.94 6.75998H16.95L21.5 6.78C21.6 6.78 21.69 6.75994 21.79 6.71994C21.88 6.67994 21.96 6.62997 22.03 6.55997C22.03 6.55997 22.03 6.54996 22.04 6.54996C22.1 6.47996 22.16 6.40998 22.19 6.31998C22.22 6.23998 22.23 6.15999 22.24 6.07999Z" fill="#171717"/>
</svg>
