<svg width="25" height="24" viewBox="0 0 25 24" fill="none" xmlns="http://www.w3.org/2000/svg">
<path d="M6.06024 18.74C6.06024 18.74 6.05025 18.74 6.04025 18.74L3.49023 18.73C3.08023 18.73 2.74023 18.39 2.74023 17.98C2.74023 17.57 3.08023 17.23 3.49023 17.23L6.04025 17.24H6.05023C6.70023 17.24 7.31026 16.92 7.67026 16.37L14.0602 6.78998C14.7002 5.82998 15.7702 5.25 16.9302 5.25C16.9302 5.25 16.9403 5.25 16.9503 5.25L21.5002 5.27002C21.9102 5.27002 22.2502 5.61002 22.2502 6.02002C22.2502 6.43002 21.9102 6.77002 21.5002 6.77002L16.9503 6.75H16.9402C16.2902 6.75 15.6803 7.07 15.3203 7.62L8.93024 17.2C8.29024 18.17 7.22024 18.74 6.06024 18.74Z" fill="#171717"/>
<path d="M19.4999 20.7299C19.3099 20.7299 19.1199 20.6599 18.9699 20.5099C18.6799 20.2199 18.6799 19.7399 18.9699 19.4499L20.9699 17.4499C21.2599 17.1599 21.7399 17.1599 22.0299 17.4499C22.3199 17.7399 22.3199 18.2199 22.0299 18.5099L20.0299 20.5099C19.8799 20.6599 19.6899 20.7299 19.4999 20.7299Z" fill="#171717"/>
<path d="M9.39001 9.38C9.16001 9.38 8.93 9.27001 8.78 9.07001L7.70001 7.57001C7.33001 7.06001 6.71999 6.76001 6.10999 6.76001L3.5 6.77002C3.04 6.76002 2.75 6.44002 2.75 6.02002C2.75 5.61002 3.08 5.27002 3.5 5.27002L6.10999 5.26001C6.11999 5.26001 6.12 5.26001 6.13 5.26001C7.24001 5.26001 8.27999 5.8 8.92999 6.69L10.01 8.19C10.25 8.53 10.18 8.98999 9.84 9.23999C9.7 9.32999 9.55001 9.38 9.39001 9.38Z" fill="#171717"/>
<path d="M16.82 18.7499C15.76 18.7499 14.74 18.2499 14.09 17.4099L12.87 15.84C12.62 15.51 12.68 15.0399 13 14.7899C13.33 14.5399 13.8 14.5999 14.05 14.9199L15.27 16.4899C15.64 16.9699 16.23 17.2099 16.82 17.2499L21.49 17.2299C21.9 17.2299 22.24 17.5599 22.24 17.9799C22.24 18.3899 21.91 18.7299 21.49 18.7299L16.82 18.7499C16.83 18.7499 16.82 18.7499 16.82 18.7499Z" fill="#171717"/>
<path d="M21.4999 6.76999C21.3099 6.76999 21.1199 6.69996 20.9699 6.54996L18.9699 4.54996C18.6799 4.25996 18.6799 3.77996 18.9699 3.48996C19.2599 3.19996 19.7399 3.19996 20.0299 3.48996L22.0299 5.48996C22.3199 5.77996 22.3199 6.25996 22.0299 6.54996C21.8799 6.69996 21.6899 6.76999 21.4999 6.76999Z" fill="#171717"/>
</svg>
