<svg width="25" height="24" viewBox="0 0 25 24" fill="none" xmlns="http://www.w3.org/2000/svg">
<path d="M12.47 22.75C6.54997 22.75 1.71997 17.93 1.71997 12C1.71997 6.07 6.54997 1.25 12.47 1.25C18.39 1.25 23.22 6.07 23.22 12C23.22 17.93 18.4 22.75 12.47 22.75ZM12.47 2.75C7.36997 2.75 3.21997 6.9 3.21997 12C3.21997 17.1 7.36997 21.25 12.47 21.25C17.57 21.25 21.72 17.1 21.72 12C21.72 6.9 17.57 2.75 12.47 2.75Z" fill="#171717"/>
<path d="M13.77 16.98H11.23C8.70002 16.98 7.52002 15.8 7.52002 13.27V10.73C7.52002 8.20002 8.70002 7.02002 11.23 7.02002H13.77C16.3 7.02002 17.48 8.20002 17.48 10.73V13.27C17.48 15.8 16.3 16.98 13.77 16.98ZM11.23 8.52002C9.54002 8.52002 9.02002 9.04002 9.02002 10.73V13.27C9.02002 14.96 9.54002 15.48 11.23 15.48H13.77C15.46 15.48 15.98 14.96 15.98 13.27V10.73C15.98 9.04002 15.46 8.52002 13.77 8.52002H11.23Z" fill="#171717"/>
</svg>
