<svg width="25" height="24" viewBox="0 0 25 24" fill="none" xmlns="http://www.w3.org/2000/svg">
<path d="M21.4 7.66L20.62 8.13L20.13 8.43L19.2 8.98L5.26 17.34L5.17 17.39L4.64 17.71L4.03 18.08C3.67 17.19 3.5 16.07 3.5 14.7V9.3C3.5 4.8 5.3 3 9.8 3H15.2C19.11 3 20.98 4.36 21.4 7.66Z" fill="#171717"/>
<path opacity="0.4" d="M21.5 9.19995V14.7C21.5 19.2 19.7 21 15.2 21H9.79998C7.35998 21 5.70998 20.47 4.72998 19.26L5.02998 19.08L5.63998 18.71L6.16998 18.39L6.25998 18.34L20.2 9.97995L21.13 9.42995L21.5 9.19995Z" fill="#171717"/>
</svg>
