<svg width="25" height="24" viewBox="0 0 25 24" fill="none" xmlns="http://www.w3.org/2000/svg">
<path d="M18 17.8301H16.15C15.74 17.8301 15.4 17.4901 15.4 17.0801C15.4 16.6701 15.74 16.3301 16.15 16.3301H18C18.41 16.3301 18.75 16.6701 18.75 17.0801C18.75 17.4901 18.41 17.8301 18 17.8301Z" fill="#171717"/>
<path d="M13.47 17.8301H7C6.59 17.8301 6.25 17.4901 6.25 17.0801C6.25 16.6701 6.59 16.3301 7 16.3301H13.47C13.88 16.3301 14.22 16.6701 14.22 17.0801C14.22 17.4901 13.89 17.8301 13.47 17.8301Z" fill="#171717"/>
<path d="M18 14.0701H12.47C12.06 14.0701 11.72 13.7301 11.72 13.3201C11.72 12.9101 12.06 12.5701 12.47 12.5701H18C18.41 12.5701 18.75 12.9101 18.75 13.3201C18.75 13.7301 18.41 14.0701 18 14.0701Z" fill="#171717"/>
<path d="M9.77 14.0701H7C6.59 14.0701 6.25 13.7301 6.25 13.3201C6.25 12.9101 6.59 12.5701 7 12.5701H9.77C10.18 12.5701 10.52 12.9101 10.52 13.3201C10.52 13.7301 10.18 14.0701 9.77 14.0701Z" fill="#171717"/>
<path opacity="0.4" d="M16.69 2H8.31C4.67 2 2.5 4.17 2.5 7.81V16.18C2.5 19.83 4.67 22 8.31 22H16.68C20.32 22 22.49 19.83 22.49 16.19V7.81C22.5 4.17 20.33 2 16.69 2Z" fill="#171717"/>
</svg>
