<svg width="25" height="24" viewBox="0 0 25 24" fill="none" xmlns="http://www.w3.org/2000/svg">
<path d="M15.5 22.75H9.5C4.07 22.75 1.75 20.43 1.75 15V9C1.75 3.57 4.07 1.25 9.5 1.25H15.5C20.93 1.25 23.25 3.57 23.25 9V15C23.25 20.43 20.93 22.75 15.5 22.75ZM9.5 2.75C4.89 2.75 3.25 4.39 3.25 9V15C3.25 19.61 4.89 21.25 9.5 21.25H15.5C20.11 21.25 21.75 19.61 21.75 15V9C21.75 4.39 20.11 2.75 15.5 2.75H9.5Z" fill="#171717"/>
<path d="M21.98 17.8601H3.01999C2.60999 17.8601 2.26999 17.5201 2.26999 17.1101C2.26999 16.7001 2.60999 16.3601 3.01999 16.3601H21.98C22.39 16.3601 22.73 16.7001 22.73 17.1101C22.73 17.5201 22.4 17.8601 21.98 17.8601Z" fill="#171717"/>
<path d="M21.98 7.86011H3.01999C2.60999 7.86011 2.26999 7.52011 2.26999 7.11011C2.26999 6.70011 2.59999 6.36011 3.01999 6.36011H21.98C22.39 6.36011 22.73 6.70011 22.73 7.11011C22.73 7.52011 22.4 7.86011 21.98 7.86011Z" fill="#171717"/>
<path d="M7.47 22.2101C7.06 22.2101 6.72 21.8701 6.72 21.4601V17.1101C6.72 16.7001 7.06 16.3601 7.47 16.3601C7.88 16.3601 8.22 16.7001 8.22 17.1101V21.4601C8.22 21.8801 7.88 22.2101 7.47 22.2101Z" fill="#171717"/>
<path d="M12.5 22.7201C12.09 22.7201 11.75 22.3801 11.75 21.9701V17.1101C11.75 16.7001 12.09 16.3601 12.5 16.3601C12.91 16.3601 13.25 16.7001 13.25 17.1101V21.9701C13.25 22.3801 12.91 22.7201 12.5 22.7201Z" fill="#171717"/>
<path d="M17.47 22.2701C17.06 22.2701 16.72 21.9301 16.72 21.5201V17.1101C16.72 16.7001 17.06 16.3601 17.47 16.3601C17.88 16.3601 18.22 16.7001 18.22 17.1101V21.5201C18.22 21.9401 17.88 22.2701 17.47 22.2701Z" fill="#171717"/>
<path d="M7.47 7.21011C7.06 7.21011 6.72 6.87011 6.72 6.46011V2.11011C6.72 1.70011 7.06 1.36011 7.47 1.36011C7.88 1.36011 8.22 1.70011 8.22 2.11011V6.46011C8.22 6.88011 7.88 7.21011 7.47 7.21011Z" fill="#171717"/>
<path d="M12.5 7.72011C12.09 7.72011 11.75 7.38011 11.75 6.97011V2.11011C11.75 1.70011 12.09 1.36011 12.5 1.36011C12.91 1.36011 13.25 1.70011 13.25 2.11011V6.97011C13.25 7.38011 12.91 7.72011 12.5 7.72011Z" fill="#171717"/>
<path d="M12.5 18.78C12.09 18.78 11.75 18.44 11.75 18.03V7.03003C11.75 6.62003 12.09 6.28003 12.5 6.28003C12.91 6.28003 13.25 6.62003 13.25 7.03003V18.03C13.25 18.44 12.91 18.78 12.5 18.78Z" fill="#171717"/>
<path d="M17.47 7.27011C17.06 7.27011 16.72 6.93011 16.72 6.52011V2.11011C16.72 1.70011 17.06 1.36011 17.47 1.36011C17.88 1.36011 18.22 1.70011 18.22 2.11011V6.52011C18.22 6.94011 17.88 7.27011 17.47 7.27011Z" fill="#171717"/>
</svg>
