<svg width="25" height="24" viewBox="0 0 25 24" fill="none" xmlns="http://www.w3.org/2000/svg">
<path opacity="0.4" d="M8.31 2H16.69C16.75 2 16.81 2 16.86 2.01C17.4 2.01 17.9 2.07 18.36 2.18C20.52 2.65 21.92 4.09 22.35 6.28C22.45 6.75 22.5 7.25 22.5 7.78V16.28C22.49 16.81 22.44 17.31 22.34 17.78C21.9 19.93 20.5 21.35 18.36 21.82C17.9 21.93 17.4 21.99 16.86 21.99C16.81 22 16.75 22 16.69 22H8.31C7.8 22 7.31 21.96 6.86 21.87C4.6 21.45 3.12 20 2.66 17.78C2.55 17.31 2.5 16.81 2.5 16.28V7.77C2.5 7.24 2.55 6.74 2.65 6.28C3.09 4.02 4.58 2.55 6.86 2.13C7.31 2.04 7.8 2 8.31 2Z" fill="#171717"/>
<path d="M8.36 11.25H16.86V2.01C17.4 2.01 17.9 2.07 18.36 2.18V6.28H22.35C22.45 6.75 22.5 7.25 22.5 7.78H18.36V11.25H22.5V12.75H18.36V16.28H22.5C22.49 16.81 22.44 17.31 22.34 17.78H18.36V21.82C17.9 21.93 17.4 21.99 16.86 21.99V12.75H8.36V22H8.31C7.8 22 7.31 21.96 6.86 21.87V17.76C6.82 17.77 6.78 17.78 6.74 17.78H2.66C2.55 17.31 2.5 16.81 2.5 16.28H6.74C6.78 16.28 6.82 16.3 6.86 16.31V12.75H2.5V11.25H6.86V7.78H2.5V7.77C2.5 7.24 2.55 6.74 2.65 6.28H6.83C6.84 6.28 6.85 6.29 6.86 6.29V2.13C7.31 2.04 7.8 2 8.31 2H8.36V11.25Z" fill="#171717"/>
</svg>
