<svg width="25" height="24" viewBox="0 0 25 24" fill="none" xmlns="http://www.w3.org/2000/svg">
<path d="M15.5 22.75H9.5C4.07 22.75 1.75 20.43 1.75 15V9C1.75 3.57 4.07 1.25 9.5 1.25H15.5C20.93 1.25 23.25 3.57 23.25 9V15C23.25 20.43 20.93 22.75 15.5 22.75ZM9.5 2.75C4.89 2.75 3.25 4.39 3.25 9V15C3.25 19.61 4.89 21.25 9.5 21.25H15.5C20.11 21.25 21.75 19.61 21.75 15V9C21.75 4.39 20.11 2.75 15.5 2.75H9.5Z" fill="#171717"/>
<path d="M7.39 22.23C6.98 22.23 6.64 21.89 6.64 21.48V2.52002C6.64 2.11002 6.98 1.77002 7.39 1.77002C7.8 1.77002 8.14 2.10002 8.14 2.52002V21.48C8.14 21.9 7.8 22.23 7.39 22.23Z" fill="#171717"/>
<path d="M17.39 22.23C16.98 22.23 16.64 21.89 16.64 21.48V2.52002C16.64 2.11002 16.98 1.77002 17.39 1.77002C17.8 1.77002 18.14 2.11002 18.14 2.52002V21.48C18.14 21.9 17.8 22.23 17.39 22.23Z" fill="#171717"/>
<path d="M7.38999 7.71997H3.03999C2.62999 7.71997 2.28999 7.37997 2.28999 6.96997C2.28999 6.55997 2.62999 6.21997 3.03999 6.21997H7.38999C7.79999 6.21997 8.13999 6.55997 8.13999 6.96997C8.13999 7.37997 7.79999 7.71997 7.38999 7.71997Z" fill="#171717"/>
<path d="M7.39 12.75H2.53C2.12 12.75 1.78 12.41 1.78 12C1.78 11.59 2.12 11.25 2.53 11.25H7.39C7.8 11.25 8.14 11.59 8.14 12C8.14 12.41 7.8 12.75 7.39 12.75Z" fill="#171717"/>
<path d="M7.39 17.72H2.98C2.57 17.72 2.23 17.38 2.23 16.97C2.23 16.56 2.57 16.22 2.98 16.22H7.39C7.8 16.22 8.14 16.56 8.14 16.97C8.14 17.38 7.8 17.72 7.39 17.72Z" fill="#171717"/>
<path d="M22.39 7.71997H18.04C17.63 7.71997 17.29 7.37997 17.29 6.96997C17.29 6.55997 17.63 6.21997 18.04 6.21997H22.39C22.8 6.21997 23.14 6.55997 23.14 6.96997C23.14 7.37997 22.8 7.71997 22.39 7.71997Z" fill="#171717"/>
<path d="M22.39 12.75H17.53C17.12 12.75 16.78 12.41 16.78 12C16.78 11.59 17.12 11.25 17.53 11.25H22.39C22.8 11.25 23.14 11.59 23.14 12C23.14 12.41 22.8 12.75 22.39 12.75Z" fill="#171717"/>
<path d="M17.47 12.75H6.47C6.06 12.75 5.72 12.41 5.72 12C5.72 11.59 6.06 11.25 6.47 11.25H17.47C17.88 11.25 18.22 11.59 18.22 12C18.22 12.41 17.89 12.75 17.47 12.75Z" fill="#171717"/>
<path d="M22.39 17.72H17.98C17.57 17.72 17.23 17.38 17.23 16.97C17.23 16.56 17.57 16.22 17.98 16.22H22.39C22.8 16.22 23.14 16.56 23.14 16.97C23.14 17.38 22.8 17.72 22.39 17.72Z" fill="#171717"/>
</svg>
