<svg width="25" height="24" viewBox="0 0 25 24" fill="none" xmlns="http://www.w3.org/2000/svg">
<path opacity="0.4" d="M22.5 7.81V15.7C22.5 15.69 22.49 15.68 22.48 15.67C22.44 15.61 22.39 15.55 22.34 15.5C22.33 15.49 22.32 15.47 22.31 15.46C21.5 14.56 20.31 14 19 14C17.74 14 16.59 14.52 15.77 15.36C14.98 16.17 14.5 17.28 14.5 18.5C14.5 19.34 14.74 20.14 15.15 20.82C15.37 21.19 15.65 21.53 15.97 21.81C15.99 21.82 16 21.83 16.01 21.84C16.06 21.89 16.11 21.93 16.17 21.98C16.17 21.98 16.17 21.98 16.18 21.98C16.19 21.99 16.2 22 16.21 22H8.31C4.67 22 2.5 19.83 2.5 16.19V7.81C2.5 7.3 2.54 6.80999 2.63 6.35999C3.14 3.60999 5.17 2.01 8.27 2H16.73C19.83 2.01 21.86 3.60999 22.37 6.35999C22.46 6.80999 22.5 7.3 22.5 7.81Z" fill="#171717"/>
<path d="M22.5 7.81V7.85999H2.5V7.81C2.5 7.3 2.54 6.80999 2.63 6.35999H8.27V2H9.77V6.35999H15.23V2H16.73V6.35999H22.37C22.46 6.80999 22.5 7.3 22.5 7.81Z" fill="#171717"/>
<path d="M22.5 15.7C22.5 15.69 22.49 15.68 22.48 15.67C22.44 15.61 22.39 15.55 22.34 15.5C22.33 15.49 22.32 15.47 22.31 15.46C21.5 14.56 20.31 14 19 14C17.74 14 16.59 14.52 15.77 15.36C14.98 16.17 14.5 17.28 14.5 18.5C14.5 19.34 14.74 20.14 15.15 20.82C15.37 21.19 15.65 21.53 15.97 21.81C15.99 21.82 16 21.83 16.01 21.84C16.06 21.89 16.11 21.93 16.17 21.98C16.17 21.98 16.17 21.98 16.18 21.98C16.19 21.99 16.2 22 16.21 22C16.96 22.63 17.93 23 19 23C20.64 23 22.07 22.12 22.85 20.82C23.08 20.43 23.26 20 23.37 19.55C23.46 19.21 23.5 18.86 23.5 18.5C23.5 17.44 23.13 16.46 22.5 15.7ZM20.68 19.23H19.75V20.2C19.75 20.61 19.41 20.95 19 20.95C18.59 20.95 18.25 20.61 18.25 20.2V19.23H17.32C16.91 19.23 16.57 18.89 16.57 18.48C16.57 18.07 16.91 17.73 17.32 17.73H18.25V16.84C18.25 16.43 18.59 16.09 19 16.09C19.41 16.09 19.75 16.43 19.75 16.84V17.73H20.68C21.09 17.73 21.43 18.07 21.43 18.48C21.43 18.89 21.1 19.23 20.68 19.23Z" fill="#171717"/>
</svg>
