<svg width="25" height="24" viewBox="0 0 25 24" fill="none" xmlns="http://www.w3.org/2000/svg">
<path d="M15.5 22.75H9.5C4.07 22.75 1.75 20.43 1.75 15V9C1.75 3.57 4.07 1.25 9.5 1.25H15.5C20.93 1.25 23.25 3.57 23.25 9V15C23.25 20.43 20.93 22.75 15.5 22.75ZM9.5 2.75C4.89 2.75 3.25 4.39 3.25 9V15C3.25 19.61 4.89 21.25 9.5 21.25H15.5C20.11 21.25 21.75 19.61 21.75 15V9C21.75 4.39 20.11 2.75 15.5 2.75H9.5Z" fill="#171717"/>
<path d="M11.26 16.3701C10.84 16.3701 10.45 16.27 10.1 16.07C9.30003 15.61 8.84003 14.67 8.84003 13.48V10.52C8.84003 9.34005 9.30003 8.39005 10.1 7.93005C10.9 7.47005 11.94 7.54005 12.97 8.14005L15.54 9.62005C16.56 10.21 17.15 11.08 17.15 12C17.15 12.92 16.56 13.79 15.54 14.38L12.97 15.86C12.39 16.2 11.8 16.3701 11.26 16.3701ZM11.27 9.13005C11.11 9.13005 10.97 9.16005 10.86 9.23005C10.54 9.42005 10.35 9.89005 10.35 10.52V13.48C10.35 14.11 10.53 14.58 10.86 14.77C11.18 14.96 11.68 14.88 12.23 14.56L14.8 13.08C15.35 12.76 15.66 12.37 15.66 12C15.66 11.63 15.35 11.23 14.8 10.92L12.23 9.44005C11.87 9.23005 11.54 9.13005 11.27 9.13005Z" fill="#171717"/>
</svg>
