<svg width="25" height="24" viewBox="0 0 25 24" fill="none" xmlns="http://www.w3.org/2000/svg">
<path d="M12.5002 22.7501C11.8302 22.7501 11.1501 22.5801 10.5501 22.2301L4.61014 18.8001C3.41014 18.1001 2.66016 16.8101 2.66016 15.4201V8.58011C2.66016 7.19011 3.41014 5.90011 4.61014 5.20011L10.5501 1.77012C11.7501 1.07012 13.2402 1.07012 14.4502 1.77012L20.3902 5.20011C21.5902 5.90011 22.3401 7.19011 22.3401 8.58011V15.4201C22.3401 16.8101 21.5902 18.1001 20.3902 18.8001L14.4502 22.2301C13.8502 22.5801 13.1702 22.7501 12.5002 22.7501ZM12.5002 2.7501C12.0902 2.7501 11.6701 2.8601 11.3001 3.0701L5.36014 6.5001C4.62014 6.9301 4.16016 7.72011 4.16016 8.58011V15.4201C4.16016 16.2701 4.62014 17.0701 5.36014 17.5001L11.3001 20.9301C12.0401 21.3601 12.9602 21.3601 13.7002 20.9301L19.6402 17.5001C20.3802 17.0701 20.8401 16.2801 20.8401 15.4201V8.58011C20.8401 7.73011 20.3802 6.9301 19.6402 6.5001L13.7002 3.0701C13.3302 2.8601 12.9102 2.7501 12.5002 2.7501Z" fill="#171717"/>
<path d="M11.5902 15.67C11.2302 15.67 10.8902 15.58 10.5802 15.41C9.89023 15.01 9.49023 14.2 9.49023 13.19V10.79C9.49023 9.78002 9.89023 8.97005 10.5802 8.57005C11.2702 8.17005 12.1703 8.23004 13.0403 8.74004L15.1202 9.94005C15.9902 10.44 16.5002 11.19 16.5002 11.99C16.5002 12.79 16.0002 13.53 15.1202 14.04L13.0403 15.24C12.5603 15.53 12.0602 15.67 11.5902 15.67ZM11.6003 9.82005C11.5003 9.82005 11.4102 9.84005 11.3402 9.88005C11.1302 10.0001 11.0002 10.34 11.0002 10.8V13.2001C11.0002 13.6501 11.1302 13.99 11.3402 14.12C11.5502 14.24 11.9102 14.1801 12.3002 13.9501L14.3802 12.75C14.7702 12.52 15.0002 12.24 15.0002 12C15.0002 11.76 14.7702 11.48 14.3802 11.25L12.3002 10.05C12.0402 9.90003 11.7903 9.82005 11.6003 9.82005Z" fill="#171717"/>
</svg>
