<svg width="25" height="24" viewBox="0 0 25 24" fill="none" xmlns="http://www.w3.org/2000/svg">
<path opacity="0.4" d="M22.5 7.81V16.19C22.5 16.25 22.5 16.31 22.49 16.36C22.49 16.9 22.43 17.4 22.32 17.86C21.85 20.02 20.41 21.42 18.22 21.85C17.75 21.95 17.25 22 16.72 22H8.22C7.69 21.99 7.19 21.94 6.72 21.84C4.57 21.4 3.15 20 2.68 17.86C2.57 17.4 2.51 16.9 2.51 16.36C2.5 16.31 2.5 16.25 2.5 16.19V7.81C2.5 7.3 2.54 6.81 2.63 6.36C3.05 4.1 4.5 2.62 6.72 2.16C7.19 2.05 7.69 2 8.22 2H16.73C17.26 2 17.76 2.05 18.22 2.15C20.48 2.59 21.95 4.08 22.37 6.36C22.46 6.81 22.5 7.3 22.5 7.81Z" fill="#171717"/>
<path d="M13.25 7.86V16.36H22.49C22.49 16.9 22.43 17.4 22.32 17.86H18.22V21.85C17.75 21.95 17.25 22 16.72 22V17.86H13.25V22H11.75V17.86H8.22V22C7.69 21.99 7.19 21.94 6.72 21.84V17.86H2.68C2.57 17.4 2.51 16.9 2.51 16.36H11.75V7.86H2.5V7.81C2.5 7.3 2.54 6.81 2.63 6.36H6.74C6.73 6.32 6.72 6.28 6.72 6.24V2.16C7.19 2.05 7.69 2 8.22 2V6.24C8.22 6.28 8.2 6.32 8.19 6.36H11.75V2H13.25V6.36H16.72V2H16.73C17.26 2 17.76 2.05 18.22 2.15V6.33C18.22 6.34 18.21 6.35 18.21 6.36H22.37C22.46 6.81 22.5 7.3 22.5 7.81V7.86H13.25Z" fill="#171717"/>
</svg>
