<svg width="25" height="24" viewBox="0 0 25 24" fill="none" xmlns="http://www.w3.org/2000/svg">
<path d="M4.8 19.92C4.63 19.92 4.46 19.86 4.32 19.75C3.31 18.92 2.75 17.59 2.75 16V8C2.75 4.58 4.08 3.25 7.5 3.25H13.5C15.54 3.25 17.68 3.63 18.14 6.48C18.21 6.89 17.93 7.27 17.52 7.34C17.11 7.41 16.73 7.13 16.66 6.72C16.45 5.42 15.9 4.75 13.5 4.75H7.5C4.92 4.75 4.25 5.42 4.25 8V16C4.25 16.65 4.38 17.86 5.27 18.59C5.59 18.85 5.64 19.33 5.37 19.65C5.23 19.83 5.01 19.92 4.8 19.92Z" fill="#171717"/>
<path d="M13.5 20.75H8.5C8.09 20.75 7.75 20.41 7.75 20C7.75 19.59 8.09 19.25 8.5 19.25H13.5C16.08 19.25 16.75 18.58 16.75 16V11C16.75 10.59 17.09 10.25 17.5 10.25C17.91 10.25 18.25 10.59 18.25 11V16C18.25 19.42 16.92 20.75 13.5 20.75Z" fill="#171717"/>
<path d="M21.3 18.04C20.87 18.04 20.34 17.9 19.71 17.46L17.07 15.61C16.73 15.37 16.65 14.9 16.89 14.57C17.13 14.23 17.59 14.15 17.93 14.39L20.57 16.24C21.01 16.55 21.33 16.58 21.46 16.51C21.59 16.44 21.75 16.17 21.75 15.63V7C21.75 6.59 22.09 6.25 22.5 6.25C22.91 6.25 23.25 6.59 23.25 7V15.62C23.25 17.05 22.56 17.62 22.15 17.83C21.96 17.93 21.67 18.04 21.3 18.04Z" fill="#171717"/>
<path d="M2.52002 22.9399C2.33002 22.9399 2.14002 22.8699 1.99002 22.7199C1.70002 22.4299 1.70002 21.9499 1.99002 21.6599L21.99 1.65988C22.28 1.36988 22.76 1.36988 23.05 1.65988C23.34 1.94988 23.34 2.42988 23.05 2.71988L3.05002 22.7199C2.91002 22.8699 2.71002 22.9399 2.52002 22.9399Z" fill="#171717"/>
</svg>
