<svg width="25" height="24" viewBox="0 0 25 24" fill="none" xmlns="http://www.w3.org/2000/svg">
<path d="M12.6 15.21C10.95 16.16 9.59998 15.38 9.59998 13.48V12V10.52C9.59998 8.60999 10.95 7.83999 12.6 8.78999L13.88 9.52999L15.16 10.27C16.81 11.22 16.81 12.78 15.16 13.73" stroke="#171717" stroke-width="1.5" stroke-miterlimit="10" stroke-linecap="round" stroke-linejoin="round"/>
<path d="M4.5 6C3.25 7.67 2.5 9.75 2.5 12C2.5 17.52 6.98 22 12.5 22C18.02 22 22.5 17.52 22.5 12C22.5 6.48 18.02 2 12.5 2C11.07 2 9.7 2.3 8.47 2.85" stroke="#171717" stroke-width="1.5" stroke-linecap="round" stroke-linejoin="round"/>
</svg>
