<svg width="25" height="24" viewBox="0 0 25 24" fill="none" xmlns="http://www.w3.org/2000/svg">
<path d="M15.5 22.75H9.5C4.07 22.75 1.75 20.43 1.75 15V9C1.75 3.57 4.07 1.25 9.5 1.25H15.5C20.93 1.25 23.25 3.57 23.25 9V15C23.25 15.25 23.25 15.5 23.23 15.74C23.2 16.06 22.98 16.32 22.67 16.4C22.36 16.48 22.04 16.36 21.86 16.09C21.85 16.08 21.79 16.01 21.78 15.99C21.09 15.2 20.08 14.75 19.01 14.75C17.99 14.75 17.03 15.15 16.32 15.88C15.64 16.58 15.26 17.51 15.26 18.5C15.26 19.17 15.45 19.84 15.8 20.43C15.99 20.75 16.23 21.03 16.5 21.27L16.62 21.38C16.85 21.57 16.96 21.9 16.87 22.19C16.78 22.48 16.54 22.7 16.24 22.73C16.01 22.75 15.75 22.75 15.5 22.75ZM9.5 2.75C4.89 2.75 3.25 4.39 3.25 9V15C3.25 19.61 4.89 21.25 9.5 21.25H14.53C14.52 21.24 14.51 21.22 14.5 21.21C14 20.38 13.74 19.45 13.74 18.5C13.74 17.12 14.27 15.82 15.22 14.84C16.2 13.83 17.58 13.25 18.99 13.25C19.98 13.25 20.93 13.52 21.74 14.03V9C21.74 4.39 20.1 2.75 15.49 2.75H9.5Z" fill="#171717"/>
<path d="M21.98 7.85986H3.02002C2.61002 7.85986 2.27002 7.51986 2.27002 7.10986C2.27002 6.69986 2.61002 6.35986 3.02002 6.35986H21.98C22.39 6.35986 22.73 6.69986 22.73 7.10986C22.73 7.51986 22.4 7.85986 21.98 7.85986Z" fill="#171717"/>
<path d="M9.02002 7.71985C8.61002 7.71985 8.27002 7.37985 8.27002 6.96985V2.10986C8.27002 1.69986 8.61002 1.35986 9.02002 1.35986C9.43002 1.35986 9.77002 1.69986 9.77002 2.10986V6.96985C9.77002 7.37985 9.43002 7.71985 9.02002 7.71985Z" fill="#171717"/>
<path d="M15.98 7.2699C15.57 7.2699 15.23 6.9299 15.23 6.5199V2.10986C15.23 1.69986 15.57 1.35986 15.98 1.35986C16.39 1.35986 16.73 1.69986 16.73 2.10986V6.5199C16.73 6.9399 16.4 7.2699 15.98 7.2699Z" fill="#171717"/>
<path d="M18.9998 23.75C17.8198 23.75 16.6698 23.35 15.7698 22.61C15.7398 22.59 15.7098 22.57 15.6898 22.55C15.5998 22.47 15.5398 22.43 15.4898 22.37C15.1398 22.07 14.7998 21.67 14.5198 21.21C14.0198 20.38 13.7598 19.45 13.7598 18.5C13.7598 17.12 14.2898 15.82 15.2398 14.84C16.2198 13.83 17.5998 13.25 19.0098 13.25C20.5198 13.25 21.9398 13.89 22.9198 15.01C22.9698 15.05 23.0498 15.15 23.1198 15.25C23.8398 16.12 24.2698 17.29 24.2698 18.5C24.2698 18.94 24.2198 19.35 24.1198 19.74C23.9998 20.24 23.7998 20.73 23.5198 21.2C22.5498 22.78 20.8298 23.75 18.9998 23.75ZM16.5898 21.35C16.6098 21.37 16.6398 21.38 16.6598 21.4C17.3198 21.95 18.1198 22.24 18.9998 22.24C20.3098 22.24 21.5298 21.54 22.2098 20.42C22.4098 20.09 22.5498 19.73 22.6398 19.36C22.7098 19.08 22.7498 18.8 22.7498 18.49C22.7498 17.63 22.4498 16.8 21.8998 16.14C21.8898 16.13 21.7798 16 21.7698 15.98C21.0798 15.19 20.0698 14.74 18.9998 14.74C17.9798 14.74 17.0198 15.14 16.3098 15.87C15.6298 16.57 15.2498 17.5 15.2498 18.49C15.2498 19.16 15.4398 19.83 15.7898 20.42C15.9798 20.74 16.2198 21.02 16.4898 21.26L16.5898 21.35Z" fill="#171717"/>
<path d="M20.1998 20.43C20.0098 20.43 19.8198 20.36 19.6698 20.21L17.2898 17.83C16.9998 17.54 16.9998 17.06 17.2898 16.77C17.5798 16.48 18.0598 16.48 18.3498 16.77L20.7298 19.15C21.0198 19.44 21.0198 19.92 20.7298 20.21C20.5898 20.35 20.3898 20.43 20.1998 20.43Z" fill="#171717"/>
<path d="M17.8002 20.45C17.6102 20.45 17.4202 20.38 17.2702 20.23C16.9802 19.94 16.9802 19.46 17.2702 19.17L19.6502 16.79C19.9402 16.5 20.4202 16.5 20.7102 16.79C21.0002 17.08 21.0002 17.56 20.7102 17.85L18.3302 20.23C18.1802 20.38 17.9902 20.45 17.8002 20.45Z" fill="#171717"/>
</svg>
