<svg width="25" height="24" viewBox="0 0 25 24" fill="none" xmlns="http://www.w3.org/2000/svg">
<path opacity="0.4" d="M18.15 6.56L4.7 20.01C3.3 19.12 2.75 17.53 2.75 16V8C2.75 4.58 4.08 3.25 7.5 3.25H13.5C16.39 3.25 17.79 4.2 18.15 6.56Z" fill="#171717"/>
<path opacity="0.4" d="M18.25 9.25V16C18.25 16.08 18.24 16.14 18.24 16.21C18.24 16.28 18.23 16.35 18.23 16.42H18.24C18.13 19.53 16.78 20.75 13.5 20.75H7.49998C7.24998 20.75 7.01998 20.74 6.78998 20.71L18.25 9.25Z" fill="#171717"/>
<path opacity="0.4" d="M18.23 16.42C18.23 16.35 18.24 16.28 18.24 16.21C18.25 16.28 18.25 16.35 18.24 16.42H18.23Z" fill="#171717"/>
<path opacity="0.4" d="M18.24 7.57007C18.25 7.64007 18.25 7.72007 18.24 7.79007C18.24 7.72007 18.23 7.65007 18.23 7.58007L18.24 7.57007Z" fill="#171717"/>
<path d="M23.25 8.37998V15.62C23.25 17.05 22.56 17.62 22.15 17.83C21.96 17.93 21.67 18.04 21.3 18.04C20.87 18.04 20.33 17.9 19.71 17.46L18.24 16.42H18.23C18.23 16.35 18.24 16.28 18.24 16.21C18.24 16.14 18.25 16.08 18.25 16V9.24998L21.52 5.97998C21.79 5.99998 22 6.07998 22.15 6.16998C22.56 6.37998 23.25 6.94998 23.25 8.37998Z" fill="#171717"/>
<path d="M22.27 2.22988C21.97 1.92988 21.48 1.92988 21.18 2.22988L2.73 20.6899C2.43 20.9899 2.43 21.4799 2.73 21.7799C2.88 21.9199 3.07 21.9999 3.27 21.9999C3.47 21.9999 3.66 21.9199 3.81 21.7699L22.27 3.30988C22.58 3.00988 22.58 2.52988 22.27 2.22988Z" fill="#171717"/>
</svg>
