<svg width="25" height="24" viewBox="0 0 25 24" fill="none" xmlns="http://www.w3.org/2000/svg">
<path d="M15.5 22.75H9.5C4.07 22.75 1.75 20.43 1.75 15V9C1.75 3.57 4.07 1.25 9.5 1.25H15.5C20.93 1.25 23.25 3.57 23.25 9V15C23.25 15.25 23.25 15.5 23.23 15.74C23.2 16.06 22.98 16.32 22.67 16.4C22.36 16.48 22.04 16.36 21.86 16.09C21.83 16.06 21.77 15.99 21.73 15.94C21.01 15.17 20.03 14.75 19 14.75C17.98 14.75 17.02 15.15 16.31 15.88C15.63 16.58 15.25 17.51 15.25 18.5C15.25 19.17 15.44 19.84 15.79 20.43C15.97 20.73 16.19 21.01 16.44 21.23C16.48 21.26 16.51 21.29 16.53 21.31L16.61 21.38C16.84 21.57 16.95 21.9 16.86 22.19C16.77 22.48 16.53 22.7 16.23 22.73C16.01 22.75 15.75 22.75 15.5 22.75ZM9.5 2.75C4.89 2.75 3.25 4.39 3.25 9V15C3.25 19.61 4.89 21.25 9.5 21.25H14.53C14.52 21.23 14.51 21.22 14.5 21.2C14.01 20.38 13.74 19.44 13.74 18.5C13.74 17.12 14.27 15.82 15.22 14.84C16.2 13.83 17.58 13.25 18.99 13.25C19.97 13.25 20.93 13.52 21.74 14.03V9C21.74 4.39 20.1 2.75 15.49 2.75H9.5Z" fill="#171717"/>
<path d="M21.98 7.85986H3.02002C2.61002 7.85986 2.27002 7.51986 2.27002 7.10986C2.27002 6.69986 2.61002 6.35986 3.02002 6.35986H21.98C22.39 6.35986 22.73 6.69986 22.73 7.10986C22.73 7.51986 22.4 7.85986 21.98 7.85986Z" fill="#171717"/>
<path d="M9.02002 7.71985C8.61002 7.71985 8.27002 7.37985 8.27002 6.96985V2.10986C8.27002 1.69986 8.61002 1.35986 9.02002 1.35986C9.43002 1.35986 9.77002 1.69986 9.77002 2.10986V6.96985C9.77002 7.37985 9.43002 7.71985 9.02002 7.71985Z" fill="#171717"/>
<path d="M15.98 7.2699C15.57 7.2699 15.23 6.9299 15.23 6.5199V2.10986C15.23 1.69986 15.57 1.35986 15.98 1.35986C16.39 1.35986 16.73 1.69986 16.73 2.10986V6.5199C16.73 6.9399 16.4 7.2699 15.98 7.2699Z" fill="#171717"/>
<path d="M18.9998 23.75C17.8198 23.75 16.6698 23.35 15.7698 22.61C15.7398 22.59 15.7098 22.57 15.6898 22.55C15.6198 22.49 15.5698 22.45 15.5298 22.41C15.5098 22.4 15.4998 22.39 15.4898 22.37C15.1198 22.04 14.7798 21.64 14.5198 21.2C14.0298 20.38 13.7598 19.44 13.7598 18.5C13.7598 17.12 14.2898 15.82 15.2398 14.84C16.2198 13.83 17.5998 13.25 19.0098 13.25C20.4898 13.25 21.8998 13.87 22.8798 14.96C22.8898 14.97 22.9098 14.99 22.9198 15.01C22.9898 15.08 23.0598 15.17 23.1098 15.25C23.8298 16.12 24.2598 17.29 24.2598 18.5C24.2598 18.94 24.2098 19.35 24.1098 19.74C23.9898 20.24 23.7898 20.73 23.5098 21.2C22.5498 22.78 20.8298 23.75 18.9998 23.75ZM16.5898 21.35C16.6198 21.37 16.6398 21.38 16.6598 21.4C17.3198 21.95 18.1198 22.24 18.9998 22.24C20.3098 22.24 21.5298 21.54 22.2098 20.42C22.4098 20.09 22.5498 19.73 22.6398 19.36C22.7098 19.08 22.7498 18.8 22.7498 18.49C22.7498 17.63 22.4498 16.8 21.8998 16.14L21.8098 16.02C21.7798 15.99 21.7498 15.96 21.7298 15.92C21.0098 15.16 20.0298 14.74 18.9998 14.74C17.9798 14.74 17.0198 15.14 16.3098 15.87C15.6298 16.57 15.2498 17.5 15.2498 18.49C15.2498 19.16 15.4398 19.83 15.7898 20.42C15.9698 20.72 16.1898 21 16.4398 21.22C16.4798 21.25 16.5098 21.28 16.5298 21.3L16.5898 21.35Z" fill="#171717"/>
<path d="M20.6798 19.23H17.3198C16.9098 19.23 16.5698 18.89 16.5698 18.48C16.5698 18.07 16.9098 17.73 17.3198 17.73H20.6798C21.0898 17.73 21.4298 18.07 21.4298 18.48C21.4298 18.89 21.0998 19.23 20.6798 19.23Z" fill="#171717"/>
<path d="M19 20.9501C18.59 20.9501 18.25 20.6101 18.25 20.2001V16.8401C18.25 16.4301 18.59 16.0901 19 16.0901C19.41 16.0901 19.75 16.4301 19.75 16.8401V20.2001C19.75 20.6201 19.41 20.9501 19 20.9501Z" fill="#171717"/>
</svg>
