<svg width="25" height="24" viewBox="0 0 25 24" fill="none" xmlns="http://www.w3.org/2000/svg">
<path opacity="0.4" d="M22.5 7.81V16.19C22.5 19.83 20.33 22 16.69 22H8.31C4.67 22 2.5 19.83 2.5 16.19V7.81C2.5 7.3 2.54 6.81 2.63 6.36C3.14 3.61 5.17 2.01 8.27 2H16.73C19.83 2.01 21.86 3.61 22.37 6.36C22.46 6.81 22.5 7.3 22.5 7.81Z" fill="#171717"/>
<path d="M22.5 7.81V7.86H2.5V7.81C2.5 7.3 2.54 6.81 2.63 6.36H8.27V2H9.77V6.36H15.23V2H16.73V6.36H22.37C22.46 6.81 22.5 7.3 22.5 7.81Z" fill="#171717"/>
<path d="M14.94 12.7201L12.86 11.5201C12.09 11.0801 11.35 11.0201 10.77 11.3501C10.19 11.6801 9.87 12.3601 9.87 13.2401V15.6401C9.87 16.5201 10.19 17.2001 10.77 17.5301C11.02 17.6701 11.3 17.7401 11.59 17.7401C11.99 17.7401 12.42 17.6101 12.86 17.3601L14.94 16.1601C15.71 15.7201 16.13 15.1001 16.13 14.4301C16.13 13.7601 15.7 13.1701 14.94 12.7201Z" fill="#171717"/>
</svg>
