<svg width="25" height="24" viewBox="0 0 25 24" fill="none" xmlns="http://www.w3.org/2000/svg">
<path d="M15.5 22.75H9.5C4.07 22.75 1.75 20.43 1.75 15V9C1.75 3.57 4.07 1.25 9.5 1.25H15.5C20.93 1.25 23.25 3.57 23.25 9V15C23.25 20.43 20.93 22.75 15.5 22.75ZM9.5 2.75C4.89 2.75 3.25 4.39 3.25 9V15C3.25 19.61 4.89 21.25 9.5 21.25H15.5C20.11 21.25 21.75 19.61 21.75 15V9C21.75 4.39 20.11 2.75 15.5 2.75H9.5Z" fill="#171717"/>
<path d="M21.98 7.86011H3.01999C2.60999 7.86011 2.26999 7.52011 2.26999 7.11011C2.26999 6.70011 2.59999 6.36011 3.01999 6.36011H21.98C22.39 6.36011 22.73 6.70011 22.73 7.11011C22.73 7.52011 22.4 7.86011 21.98 7.86011Z" fill="#171717"/>
<path d="M9.01999 7.72011C8.60999 7.72011 8.26999 7.38011 8.26999 6.97011V2.11011C8.26999 1.70011 8.60999 1.36011 9.01999 1.36011C9.42999 1.36011 9.76999 1.70011 9.76999 2.11011V6.97011C9.76999 7.38011 9.42999 7.72011 9.01999 7.72011Z" fill="#171717"/>
<path d="M15.98 7.27011C15.57 7.27011 15.23 6.93011 15.23 6.52011V2.11011C15.23 1.70011 15.57 1.36011 15.98 1.36011C16.39 1.36011 16.73 1.70011 16.73 2.11011V6.52011C16.73 6.94011 16.4 7.27011 15.98 7.27011Z" fill="#171717"/>
<path d="M11.59 18.12C11.23 18.12 10.89 18.03 10.58 17.86C9.9 17.46 9.5 16.66 9.5 15.65V13.25C9.5 12.24 9.9 11.43 10.59 11.03C11.28 10.63 12.18 10.69 13.05 11.2L15.13 12.4C16 12.9 16.51 13.65 16.51 14.45C16.51 15.25 16 16 15.12 16.5L13.04 17.7C12.56 17.98 12.06 18.12 11.59 18.12ZM11.6 12.27C11.5 12.27 11.41 12.29 11.34 12.33C11.13 12.45 11 12.79 11 13.25V15.65C11 16.1 11.13 16.44 11.34 16.57C11.55 16.69 11.91 16.63 12.3 16.4L14.38 15.2C14.77 14.97 15.01 14.69 15.01 14.45C15.01 14.21 14.78 13.93 14.38 13.7L12.3 12.5C12.04 12.35 11.79 12.27 11.6 12.27Z" fill="#171717"/>
</svg>
