<svg width="25" height="24" viewBox="0 0 25 24" fill="none" xmlns="http://www.w3.org/2000/svg">
<path d="M15.5 22.75H9.5C4.07 22.75 1.75 20.43 1.75 15V9C1.75 3.57 4.07 1.25 9.5 1.25H15.5C20.93 1.25 23.25 3.57 23.25 9V15C23.25 15.24 23.25 15.49 23.23 15.72C23.2 16.02 22.99 16.28 22.7 16.37C22.41 16.46 22.09 16.36 21.9 16.12C21.19 15.25 20.14 14.75 19 14.75C18.15 14.75 17.32 15.04 16.66 15.57C15.76 16.28 15.25 17.34 15.25 18.5C15.25 19.63 15.75 20.69 16.62 21.4C16.86 21.59 16.95 21.91 16.87 22.2C16.78 22.49 16.53 22.7 16.22 22.73C15.99 22.75 15.74 22.75 15.5 22.75ZM9.5 2.75C4.89 2.75 3.25 4.39 3.25 9V15C3.25 19.61 4.89 21.25 9.5 21.25H14.52C14.02 20.44 13.75 19.49 13.75 18.5C13.75 16.88 14.47 15.39 15.73 14.4C17.41 13.04 19.96 12.92 21.75 14.02V9C21.75 4.39 20.11 2.75 15.5 2.75H9.5Z" fill="#171717"/>
<path d="M21.98 7.85986H3.02002C2.61002 7.85986 2.27002 7.51986 2.27002 7.10986C2.27002 6.69986 2.61002 6.35986 3.02002 6.35986H21.98C22.39 6.35986 22.73 6.69986 22.73 7.10986C22.73 7.51986 22.4 7.85986 21.98 7.85986Z" fill="#171717"/>
<path d="M9.02002 7.71985C8.61002 7.71985 8.27002 7.37985 8.27002 6.96985V2.10986C8.27002 1.69986 8.61002 1.35986 9.02002 1.35986C9.43002 1.35986 9.77002 1.69986 9.77002 2.10986V6.96985C9.77002 7.37985 9.43002 7.71985 9.02002 7.71985Z" fill="#171717"/>
<path d="M15.98 7.2699C15.57 7.2699 15.23 6.9299 15.23 6.5199V2.10986C15.23 1.69986 15.57 1.35986 15.98 1.35986C16.39 1.35986 16.73 1.69986 16.73 2.10986V6.5199C16.73 6.9399 16.4 7.2699 15.98 7.2699Z" fill="#171717"/>
<path d="M19 23.75C17.78 23.75 16.6 23.33 15.67 22.56C14.45 21.57 13.75 20.09 13.75 18.5C13.75 16.88 14.47 15.39 15.73 14.4C16.65 13.66 17.81 13.25 19 13.25C20.59 13.25 22.07 13.95 23.06 15.18C23.82 16.1 24.25 17.28 24.25 18.5C24.25 19.99 23.6 21.43 22.47 22.44C21.49 23.29 20.26 23.75 19 23.75ZM19 14.75C18.15 14.75 17.32 15.04 16.66 15.57C15.76 16.28 15.25 17.34 15.25 18.5C15.25 19.63 15.75 20.69 16.62 21.4C17.98 22.53 20.09 22.52 21.48 21.31C22.28 20.59 22.75 19.56 22.75 18.5C22.75 17.63 22.45 16.79 21.9 16.13C21.19 15.25 20.13 14.75 19 14.75Z" fill="#171717"/>
<path d="M17.8798 20.3799C17.6298 20.3799 17.3798 20.2499 17.2398 20.0199C17.0298 19.6599 17.1398 19.1999 17.4998 18.9899L18.5398 18.3699V17.1099C18.5398 16.6999 18.8798 16.3599 19.2898 16.3599C19.6998 16.3599 20.0398 16.6999 20.0398 17.1099V18.7999C20.0398 19.0599 19.8998 19.3099 19.6798 19.4399L18.2698 20.2799C18.1398 20.3399 18.0098 20.3799 17.8798 20.3799Z" fill="#171717"/>
</svg>
