<svg width="25" height="24" viewBox="0 0 25 24" fill="none" xmlns="http://www.w3.org/2000/svg">
<path opacity="0.4" d="M13.5 3.25H7.5C4.08 3.25 2.75 4.58 2.75 8V16C2.75 18.3 4 20.75 7.5 20.75H13.5C16.92 20.75 18.25 19.42 18.25 16V8C18.25 4.58 16.92 3.25 13.5 3.25Z" fill="#171717"/>
<path d="M12 11.3801C13.0383 11.3801 13.88 10.5384 13.88 9.50012C13.88 8.46182 13.0383 7.62012 12 7.62012C10.9617 7.62012 10.12 8.46182 10.12 9.50012C10.12 10.5384 10.9617 11.3801 12 11.3801Z" fill="#171717"/>
<path d="M22.15 6.17011C21.74 5.96011 20.88 5.72011 19.71 6.54011L18.23 7.58011C18.24 7.72011 18.25 7.85011 18.25 8.00011V16.0001C18.25 16.1501 18.23 16.2801 18.23 16.4201L19.71 17.4601C20.33 17.9001 20.87 18.0401 21.3 18.0401C21.67 18.0401 21.96 17.9401 22.15 17.8401C22.56 17.6301 23.25 17.0601 23.25 15.6301V8.38011C23.25 6.95011 22.56 6.38011 22.15 6.17011Z" fill="#171717"/>
</svg>
