<svg width="25" height="24" viewBox="0 0 25 24" fill="none" xmlns="http://www.w3.org/2000/svg">
<path d="M22.48 15.65C21.66 14.64 20.41 14 19 14C17.94 14 16.96 14.37 16.19 14.99C15.15 15.81 14.5 17.08 14.5 18.5C14.5 19.34 14.74 20.14 15.15 20.82C15.42 21.27 15.76 21.66 16.16 21.98H16.17C16.94 22.62 17.93 23 19 23C20.14 23 21.17 22.58 21.96 21.88C22.31 21.58 22.61 21.22 22.85 20.82C23.26 20.14 23.5 19.34 23.5 18.5C23.5 17.42 23.12 16.42 22.48 15.65ZM21.26 17.94L18.86 20.16C18.72 20.29 18.53 20.36 18.35 20.36C18.16 20.36 17.97 20.29 17.82 20.14L16.71 19.03C16.42 18.74 16.42 18.26 16.71 17.97C17 17.68 17.48 17.68 17.77 17.97L18.37 18.57L20.24 16.84C20.54 16.56 21.02 16.58 21.3 16.88C21.59 17.19 21.57 17.66 21.26 17.94Z" fill="#171717"/>
<path opacity="0.4" d="M22.5 7.81V15.7C22.5 15.69 22.49 15.68 22.48 15.67C22.44 15.61 22.39 15.55 22.34 15.5C22.33 15.49 22.32 15.47 22.31 15.46C21.5 14.56 20.31 14 19 14C17.74 14 16.59 14.52 15.77 15.36C14.98 16.17 14.5 17.28 14.5 18.5C14.5 19.34 14.74 20.14 15.15 20.82C15.37 21.19 15.65 21.53 15.97 21.81C15.99 21.82 16 21.83 16.01 21.84C16.06 21.89 16.11 21.93 16.17 21.98C16.17 21.98 16.17 21.98 16.18 21.98C16.19 21.99 16.2 22 16.21 22H8.31C4.67 22 2.5 19.83 2.5 16.19V7.81C2.5 7.3 2.54 6.80999 2.63 6.35999C3.14 3.60999 5.17 2.01 8.27 2H16.73C19.83 2.01 21.86 3.60999 22.37 6.35999C22.46 6.80999 22.5 7.3 22.5 7.81Z" fill="#171717"/>
<path d="M22.5 7.81V7.85999H2.5V7.81C2.5 7.3 2.54 6.80999 2.63 6.35999H8.27V2H9.77V6.35999H15.23V2H16.73V6.35999H22.37C22.46 6.80999 22.5 7.3 22.5 7.81Z" fill="#171717"/>
</svg>
