<svg width="25" height="24" viewBox="0 0 25 24" fill="none" xmlns="http://www.w3.org/2000/svg">
<path d="M15.5 22.75H9.5C4.07 22.75 1.75 20.43 1.75 15V9C1.75 3.57 4.07 1.25 9.5 1.25H15.5C20.93 1.25 23.25 3.57 23.25 9V15C23.25 15.24 23.25 15.49 23.23 15.72C23.2 16.02 22.99 16.28 22.7 16.37C22.41 16.46 22.09 16.36 21.9 16.12C21.19 15.25 20.14 14.75 19 14.75C18.15 14.75 17.32 15.04 16.66 15.57C15.76 16.28 15.25 17.34 15.25 18.5C15.25 19.17 15.44 19.84 15.79 20.43C16.01 20.8 16.3 21.13 16.63 21.39C16.87 21.58 16.97 21.9 16.88 22.19C16.79 22.48 16.54 22.69 16.23 22.72C16 22.75 15.75 22.75 15.5 22.75ZM9.5 2.75C4.89 2.75 3.25 4.39 3.25 9V15C3.25 19.61 4.89 21.25 9.5 21.25H14.53C14.52 21.24 14.51 21.22 14.5 21.21C14 20.39 13.74 19.45 13.74 18.5C13.74 16.88 14.46 15.39 15.72 14.4C17.4 13.04 19.95 12.92 21.74 14.02V9C21.74 4.39 20.1 2.75 15.49 2.75H9.5Z" fill="#171717"/>
<path d="M21.98 7.85986H3.02002C2.61002 7.85986 2.27002 7.51986 2.27002 7.10986C2.27002 6.69986 2.61002 6.35986 3.02002 6.35986H21.98C22.39 6.35986 22.73 6.69986 22.73 7.10986C22.73 7.51986 22.4 7.85986 21.98 7.85986Z" fill="#171717"/>
<path d="M9.02002 7.71985C8.61002 7.71985 8.27002 7.37985 8.27002 6.96985V2.10986C8.27002 1.69986 8.61002 1.35986 9.02002 1.35986C9.43002 1.35986 9.77002 1.69986 9.77002 2.10986V6.96985C9.77002 7.37985 9.43002 7.71985 9.02002 7.71985Z" fill="#171717"/>
<path d="M15.98 7.2699C15.57 7.2699 15.23 6.9299 15.23 6.5199V2.10986C15.23 1.69986 15.57 1.35986 15.98 1.35986C16.39 1.35986 16.73 1.69986 16.73 2.10986V6.5199C16.73 6.9399 16.4 7.2699 15.98 7.2699Z" fill="#171717"/>
<path d="M19 23.75C17.82 23.75 16.68 23.35 15.76 22.62C15.74 22.6 15.71 22.59 15.69 22.57C15.22 22.19 14.82 21.74 14.51 21.21C14.01 20.39 13.75 19.45 13.75 18.5C13.75 16.88 14.47 15.39 15.73 14.4C16.65 13.66 17.81 13.25 19 13.25C20.59 13.25 22.07 13.95 23.06 15.18C23.82 16.1 24.25 17.28 24.25 18.5C24.25 19.45 23.99 20.38 23.49 21.21C23.2 21.69 22.85 22.1 22.45 22.45C21.5 23.29 20.28 23.75 19 23.75ZM16.57 21.35C16.6 21.37 16.62 21.39 16.65 21.41C17.31 21.96 18.14 22.26 19 22.26C19.92 22.26 20.77 21.94 21.46 21.33C21.75 21.08 22 20.78 22.21 20.45C22.56 19.86 22.75 19.19 22.75 18.52C22.75 17.65 22.45 16.81 21.9 16.15C21.19 15.27 20.13 14.77 19 14.77C18.15 14.77 17.32 15.06 16.66 15.59C15.76 16.3 15.25 17.36 15.25 18.52C15.25 19.19 15.44 19.86 15.79 20.45C16 20.78 16.26 21.09 16.57 21.35Z" fill="#171717"/>
<path d="M18.3502 20.3599C18.1602 20.3599 17.9702 20.2899 17.8202 20.1399L16.7102 19.0299C16.4202 18.7399 16.4202 18.2599 16.7102 17.9699C17.0002 17.6799 17.4802 17.6799 17.7702 17.9699L18.3702 18.5699L20.2402 16.8399C20.5402 16.5599 21.0202 16.5799 21.3002 16.8799C21.5802 17.1799 21.5602 17.6599 21.2602 17.9399L18.8602 20.1599C18.7202 20.2899 18.5402 20.3599 18.3502 20.3599Z" fill="#171717"/>
</svg>
