<svg width="25" height="24" viewBox="0 0 25 24" fill="none" xmlns="http://www.w3.org/2000/svg">
<path d="M3.42001 8.58003C3.42001 7.46003 4.01999 6.41999 4.98999 5.84999L10.93 2.42C11.9 1.86 13.1 1.86 14.08 2.42L20.02 5.84999C20.99 6.40999 21.59 7.45003 21.59 8.58003V15.42C21.59 16.54 20.99 17.58 20.02 18.15L14.08 21.58C13.11 22.14 11.91 22.14 10.93 21.58L4.98999 18.15C4.01999 17.59 3.42001 16.55 3.42001 15.42V12.66" stroke="#171717" stroke-width="1.5" stroke-linecap="round" stroke-linejoin="round"/>
<path d="M10.25 11.9999V10.7999C10.25 9.25989 11.34 8.62993 12.67 9.39993L13.71 9.9999L14.75 10.5999C16.08 11.3699 16.08 12.6299 14.75 13.3999L13.71 13.9999L12.67 14.5999C11.34 15.3699 10.25 14.7399 10.25 13.1999V11.9999Z" stroke="#171717" stroke-width="1.5" stroke-miterlimit="10" stroke-linecap="round" stroke-linejoin="round"/>
</svg>
