<svg width="25" height="24" viewBox="0 0 25 24" fill="none" xmlns="http://www.w3.org/2000/svg">
<path d="M22.48 15.67C22.44 15.61 22.39 15.55 22.34 15.5C21.53 14.57 20.33 14 19 14C17.74 14 16.59 14.52 15.77 15.36C14.98 16.17 14.5 17.28 14.5 18.5C14.5 19.34 14.74 20.14 15.15 20.82C15.38 21.2 15.67 21.55 16.01 21.84C16.06 21.89 16.11 21.93 16.17 21.98C16.17 21.98 16.17 21.98 16.18 21.98C16.94 22.62 17.92 23 19 23C20.64 23 22.07 22.12 22.85 20.82C23.08 20.43 23.26 20 23.37 19.55C23.46 19.21 23.5 18.86 23.5 18.5C23.5 17.43 23.12 16.44 22.48 15.67ZM20.73 20.21C20.58 20.36 20.39 20.43 20.2 20.43C20.01 20.43 19.82 20.36 19.67 20.21L19.01 19.55L18.32 20.24C18.17 20.39 17.98 20.46 17.79 20.46C17.6 20.46 17.41 20.39 17.26 20.24C16.97 19.95 16.97 19.47 17.26 19.18L17.95 18.49L17.29 17.83C17 17.54 17 17.06 17.29 16.77C17.58 16.48 18.06 16.48 18.35 16.77L19.01 17.43L19.64 16.8C19.93 16.51 20.41 16.51 20.7 16.8C20.99 17.09 20.99 17.57 20.7 17.86L20.07 18.49L20.73 19.15C21.03 19.44 21.03 19.91 20.73 20.21Z" fill="#171717"/>
<path opacity="0.4" d="M22.5 7.81V15.7C22.5 15.69 22.49 15.68 22.48 15.67C22.44 15.61 22.39 15.55 22.34 15.5C22.33 15.49 22.32 15.47 22.31 15.46C21.5 14.56 20.31 14 19 14C17.74 14 16.59 14.52 15.77 15.36C14.98 16.17 14.5 17.28 14.5 18.5C14.5 19.34 14.74 20.14 15.15 20.82C15.37 21.19 15.65 21.53 15.97 21.81C15.99 21.82 16 21.83 16.01 21.84C16.06 21.89 16.11 21.93 16.17 21.98C16.17 21.98 16.17 21.98 16.18 21.98C16.19 21.99 16.2 22 16.21 22H8.31C4.67 22 2.5 19.83 2.5 16.19V7.81C2.5 7.3 2.54 6.80999 2.63 6.35999C3.14 3.60999 5.17 2.01 8.27 2H16.73C19.83 2.01 21.86 3.60999 22.37 6.35999C22.46 6.80999 22.5 7.3 22.5 7.81Z" fill="#171717"/>
<path d="M22.5 7.81V7.85999H2.5V7.81C2.5 7.3 2.54 6.80999 2.63 6.35999H8.27V2H9.77V6.35999H15.23V2H16.73V6.35999H22.37C22.46 6.80999 22.5 7.3 22.5 7.81Z" fill="#171717"/>
</svg>
