<svg width="25" height="24" viewBox="0 0 25 24" fill="none" xmlns="http://www.w3.org/2000/svg">
<path d="M6.5 14.8901C6.09 14.8901 5.75 14.5501 5.75 14.1401V9.8501C5.75 9.4401 6.09 9.1001 6.5 9.1001C6.91 9.1001 7.25 9.4401 7.25 9.8501V14.1401C7.25 14.5601 6.91 14.8901 6.5 14.8901Z" fill="#171717"/>
<path d="M9.5 16.3199C9.09 16.3199 8.75 15.9799 8.75 15.5699V8.42993C8.75 8.01993 9.09 7.67993 9.5 7.67993C9.91 7.67993 10.25 8.01993 10.25 8.42993V15.5699C10.25 15.9899 9.91 16.3199 9.5 16.3199Z" fill="#171717"/>
<path d="M12.5 17.75C12.09 17.75 11.75 17.41 11.75 17V7C11.75 6.59 12.09 6.25 12.5 6.25C12.91 6.25 13.25 6.59 13.25 7V17C13.25 17.41 12.91 17.75 12.5 17.75Z" fill="#171717"/>
<path d="M15.5 16.3199C15.09 16.3199 14.75 15.9799 14.75 15.5699V8.42993C14.75 8.01993 15.09 7.67993 15.5 7.67993C15.91 7.67993 16.25 8.01993 16.25 8.42993V15.5699C16.25 15.9899 15.91 16.3199 15.5 16.3199Z" fill="#171717"/>
<path d="M18.5 14.8901C18.09 14.8901 17.75 14.5501 17.75 14.1401V9.8501C17.75 9.4401 18.09 9.1001 18.5 9.1001C18.91 9.1001 19.25 9.4401 19.25 9.8501V14.1401C19.25 14.5601 18.91 14.8901 18.5 14.8901Z" fill="#171717"/>
<path d="M15.5 22.75H9.5C4.07 22.75 1.75 20.43 1.75 15V9C1.75 3.57 4.07 1.25 9.5 1.25H15.5C20.93 1.25 23.25 3.57 23.25 9V15C23.25 20.43 20.93 22.75 15.5 22.75ZM9.5 2.75C4.89 2.75 3.25 4.39 3.25 9V15C3.25 19.61 4.89 21.25 9.5 21.25H15.5C20.11 21.25 21.75 19.61 21.75 15V9C21.75 4.39 20.11 2.75 15.5 2.75H9.5Z" fill="#171717"/>
</svg>
