<svg width="25" height="24" viewBox="0 0 25 24" fill="none" xmlns="http://www.w3.org/2000/svg">
<path opacity="0.4" d="M12.5 22C18.0228 22 22.5 17.5228 22.5 12C22.5 6.47715 18.0228 2 12.5 2C6.97715 2 2.5 6.47715 2.5 12C2.5 17.5228 6.97715 22 12.5 22Z" fill="#171717"/>
<path d="M6.5 14.8901C6.09 14.8901 5.75 14.5501 5.75 14.1401V9.8501C5.75 9.4401 6.09 9.1001 6.5 9.1001C6.91 9.1001 7.25 9.4401 7.25 9.8501V14.1401C7.25 14.5601 6.91 14.8901 6.5 14.8901Z" fill="#171717"/>
<path d="M9.5 16.3199C9.09 16.3199 8.75 15.9799 8.75 15.5699V8.42993C8.75 8.01993 9.09 7.67993 9.5 7.67993C9.91 7.67993 10.25 8.01993 10.25 8.42993V15.5699C10.25 15.9899 9.91 16.3199 9.5 16.3199Z" fill="#171717"/>
<path d="M12.5 17.75C12.09 17.75 11.75 17.41 11.75 17V7C11.75 6.59 12.09 6.25 12.5 6.25C12.91 6.25 13.25 6.59 13.25 7V17C13.25 17.41 12.91 17.75 12.5 17.75Z" fill="#171717"/>
<path d="M15.5 16.3199C15.09 16.3199 14.75 15.9799 14.75 15.5699V8.42993C14.75 8.01993 15.09 7.67993 15.5 7.67993C15.91 7.67993 16.25 8.01993 16.25 8.42993V15.5699C16.25 15.9899 15.91 16.3199 15.5 16.3199Z" fill="#171717"/>
<path d="M18.5 14.8901C18.09 14.8901 17.75 14.5501 17.75 14.1401V9.8501C17.75 9.4401 18.09 9.1001 18.5 9.1001C18.91 9.1001 19.25 9.4401 19.25 9.8501V14.1401C19.25 14.5601 18.91 14.8901 18.5 14.8901Z" fill="#171717"/>
</svg>
