<svg width="25" height="24" viewBox="0 0 25 24" fill="none" xmlns="http://www.w3.org/2000/svg">
<path d="M14.38 20.5901C13.59 20.5901 12.72 20.3101 11.85 19.7601L8.92996 17.9301C8.72996 17.8101 8.49996 17.7401 8.26996 17.7401H6.82996C4.40996 17.7401 3.07996 16.4101 3.07996 13.9901V9.99011C3.07996 7.57011 4.40996 6.24011 6.82996 6.24011H8.25996C8.48996 6.24011 8.71996 6.17011 8.91996 6.05011L11.84 4.22011C13.3 3.31011 14.72 3.14011 15.84 3.76011C16.96 4.38011 17.57 5.67011 17.57 7.40011V16.5701C17.57 18.2901 16.95 19.5901 15.84 20.2101C15.4 20.4701 14.91 20.5901 14.38 20.5901ZM6.82996 7.75011C5.24996 7.75011 4.57996 8.42011 4.57996 10.0001V14.0001C4.57996 15.5801 5.24996 16.2501 6.82996 16.2501H8.25996C8.77996 16.2501 9.27996 16.3901 9.71996 16.6701L12.64 18.5001C13.61 19.1001 14.51 19.2601 15.12 18.9201C15.73 18.5801 16.08 17.7301 16.08 16.6001V7.41011C16.08 6.27011 15.73 5.42011 15.12 5.09011C14.51 4.75011 13.61 4.90011 12.64 5.51011L9.71996 7.33011C9.27996 7.61011 8.77996 7.75011 8.25996 7.75011H6.82996Z" fill="#171717"/>
<path d="M19.83 16.75C19.67 16.75 19.52 16.7 19.38 16.6C19.05 16.35 18.98 15.88 19.23 15.55C20.8 13.46 20.8 10.54 19.23 8.45003C18.98 8.12003 19.05 7.65003 19.38 7.40003C19.71 7.15003 20.18 7.22003 20.43 7.55003C22.4 10.17 22.4 13.83 20.43 16.45C20.29 16.65 20.06 16.75 19.83 16.75Z" fill="#171717"/>
</svg>
