<svg width="25" height="24" viewBox="0 0 25 24" fill="none" xmlns="http://www.w3.org/2000/svg">
<path d="M16.55 20.5901C15.76 20.5901 14.89 20.3101 14.02 19.7601L11.1 17.9301C10.9 17.8101 10.67 17.7401 10.44 17.7401H9C6.58 17.7401 5.25 16.4101 5.25 13.9901V9.99011C5.25 7.57011 6.58 6.24011 9 6.24011H10.43C10.66 6.24011 10.89 6.17011 11.09 6.05011L14.01 4.22011C15.47 3.31011 16.89 3.14011 18.01 3.76011C19.13 4.38011 19.74 5.67011 19.74 7.40011V16.5701C19.74 18.2901 19.12 19.5901 18.01 20.2101C17.57 20.4701 17.07 20.5901 16.55 20.5901ZM9 7.75011C7.42 7.75011 6.75 8.42011 6.75 10.0001V14.0001C6.75 15.5801 7.42 16.2501 9 16.2501H10.43C10.95 16.2501 11.45 16.3901 11.89 16.6701L14.81 18.5001C15.78 19.1001 16.68 19.2601 17.29 18.9201C17.9 18.5801 18.25 17.7301 18.25 16.6001V7.41011C18.25 6.27011 17.9 5.42011 17.29 5.09011C16.68 4.75011 15.78 4.90011 14.81 5.51011L11.89 7.34011C11.45 7.61011 10.95 7.76011 10.43 7.76011H9V7.75011Z" fill="#171717"/>
</svg>
