<svg width="25" height="24" viewBox="0 0 25 24" fill="none" xmlns="http://www.w3.org/2000/svg">
<path d="M22.5 11.25H21.25V10C21.25 9.59 20.91 9.25 20.5 9.25C20.09 9.25 19.75 9.59 19.75 10V11.25H18.5C18.09 11.25 17.75 11.59 17.75 12C17.75 12.41 18.09 12.75 18.5 12.75H19.75V14C19.75 14.41 20.09 14.75 20.5 14.75C20.91 14.75 21.25 14.41 21.25 14V12.75H22.5C22.91 12.75 23.25 12.41 23.25 12C23.25 11.59 22.91 11.25 22.5 11.25Z" fill="#171717"/>
<path opacity="0.4" d="M16.25 7.40997V16.59C16.25 18.31 15.63 19.6 14.52 20.22C14.07 20.47 13.57 20.59 13.05 20.59C12.25 20.59 11.39 20.32 10.51 19.77L7.59 17.94C7.39 17.82 7.16 17.75 6.93 17.75H6V6.24997H6.93C7.16 6.24997 7.39 6.17997 7.59 6.05997L10.51 4.22997C11.97 3.31997 13.4 3.15997 14.52 3.77997C15.63 4.39997 16.25 5.68997 16.25 7.40997Z" fill="#171717"/>
<path d="M6 6.25V17.75H5.5C3.08 17.75 1.75 16.42 1.75 14V10C1.75 7.58 3.08 6.25 5.5 6.25H6Z" fill="#171717"/>
</svg>
