<svg width="25" height="24" viewBox="0 0 25 24" fill="none" xmlns="http://www.w3.org/2000/svg">
<path d="M7.5 17.7501H5.5C3.08 17.7501 1.75 16.4201 1.75 14.0001V10.0001C1.75 7.58012 3.08 6.25012 5.5 6.25012H6.93C7.16 6.25012 7.39 6.18011 7.59 6.06012L10.51 4.23012C11.97 3.32012 13.39 3.15012 14.51 3.77012C15.63 4.39012 16.24 5.68012 16.24 7.41012V8.37012C16.24 8.78012 15.9 9.12012 15.49 9.12012C15.08 9.12012 14.74 8.78012 14.74 8.37012V7.41012C14.74 6.27012 14.39 5.42012 13.78 5.09012C13.17 4.75012 12.27 4.90012 11.3 5.51012L8.38 7.33012C7.95 7.61012 7.44 7.75012 6.93 7.75012H5.5C3.92 7.75012 3.25 8.42012 3.25 10.0001V14.0001C3.25 15.5801 3.92 16.2501 5.5 16.2501H7.5C7.91 16.2501 8.25 16.5901 8.25 17.0001C8.25 17.4101 7.91 17.7501 7.5 17.7501Z" fill="#171717"/>
<path d="M13.05 20.59C12.26 20.59 11.39 20.31 10.52 19.76C10.17 19.54 10.06 19.08 10.28 18.73C10.5 18.38 10.96 18.27 11.31 18.49C12.28 19.09 13.18 19.25 13.79 18.91C14.4 18.57 14.75 17.72 14.75 16.59V12.95C14.75 12.54 15.09 12.2 15.5 12.2C15.91 12.2 16.25 12.54 16.25 12.95V16.59C16.25 18.31 15.63 19.61 14.52 20.23C14.07 20.47 13.57 20.59 13.05 20.59Z" fill="#171717"/>
<path d="M18.5 16.7501C18.34 16.7501 18.19 16.7001 18.05 16.6001C17.72 16.3501 17.65 15.8801 17.9 15.5501C19.16 13.8701 19.43 11.6401 18.62 9.71007C18.46 9.33007 18.64 8.89007 19.02 8.73007C19.4 8.57007 19.84 8.75007 20 9.13007C21.02 11.5501 20.67 14.3601 19.1 16.4601C18.95 16.6501 18.73 16.7501 18.5 16.7501Z" fill="#171717"/>
<path d="M20.33 19.25C20.17 19.25 20.02 19.2 19.88 19.1C19.55 18.85 19.48 18.38 19.73 18.05C21.87 15.2 22.34 11.38 20.96 8.08995C20.8 7.70995 20.98 7.26995 21.36 7.10995C21.75 6.94996 22.18 7.12996 22.34 7.50996C23.93 11.29 23.39 15.67 20.93 18.95C20.79 19.15 20.56 19.25 20.33 19.25Z" fill="#171717"/>
<path d="M2.49994 22.7499C2.30994 22.7499 2.11994 22.6799 1.96994 22.5299C1.67994 22.2399 1.67994 21.7599 1.96994 21.4699L21.9699 1.46994C22.2599 1.17994 22.7399 1.17994 23.0299 1.46994C23.3199 1.75994 23.3199 2.23994 23.0299 2.52994L3.02994 22.5299C2.87994 22.6799 2.68994 22.7499 2.49994 22.7499Z" fill="#171717"/>
</svg>
