<svg width="25" height="24" viewBox="0 0 25 24" fill="none" xmlns="http://www.w3.org/2000/svg">
<path d="M19.83 16.75C19.67 16.75 19.52 16.7 19.38 16.6C19.05 16.35 18.98 15.88 19.23 15.55C20.8 13.46 20.8 10.54 19.23 8.45003C18.98 8.12003 19.05 7.65003 19.38 7.40003C19.71 7.15003 20.18 7.22003 20.43 7.55003C22.4 10.17 22.4 13.83 20.43 16.45C20.29 16.65 20.06 16.75 19.83 16.75Z" fill="#171717"/>
<path opacity="0.4" d="M17.58 7.40997V16.59C17.58 18.31 16.96 19.6 15.85 20.22C15.4 20.47 14.9 20.59 14.38 20.59C13.58 20.59 12.72 20.32 11.84 19.77L8.91996 17.94C8.71996 17.82 8.48996 17.75 8.25996 17.75H7.32996V6.24997H8.25996C8.48996 6.24997 8.71996 6.17997 8.91996 6.05997L11.84 4.22997C13.3 3.31997 14.73 3.15997 15.85 3.77997C16.96 4.39997 17.58 5.68997 17.58 7.40997Z" fill="#171717"/>
<path d="M7.32996 6.25V17.75H6.82996C4.40996 17.75 3.07996 16.42 3.07996 14V10C3.07996 7.58 4.40996 6.25 6.82996 6.25H7.32996Z" fill="#171717"/>
</svg>
