<svg width="25" height="24" viewBox="0 0 25 24" fill="none" xmlns="http://www.w3.org/2000/svg">
<path d="M13.05 20.5901C12.26 20.5901 11.39 20.3101 10.52 19.7601L7.6 17.9301C7.4 17.8101 7.17 17.7401 6.94 17.7401H5.5C3.08 17.7401 1.75 16.4101 1.75 13.9901V9.99011C1.75 7.57011 3.08 6.24011 5.5 6.24011H6.93C7.16 6.24011 7.39 6.17011 7.59 6.05011L10.51 4.22011C11.97 3.31011 13.39 3.14011 14.51 3.76011C15.63 4.38011 16.24 5.67011 16.24 7.40011V16.5701C16.24 18.2901 15.62 19.5901 14.51 20.2101C14.07 20.4701 13.57 20.5901 13.05 20.5901ZM5.5 7.75011C3.92 7.75011 3.25 8.42011 3.25 10.0001V14.0001C3.25 15.5801 3.92 16.2501 5.5 16.2501H6.93C7.45 16.2501 7.95 16.3901 8.39 16.6701L11.31 18.5001C12.27 19.1001 13.18 19.2601 13.79 18.9201C14.4 18.5801 14.75 17.7301 14.75 16.6001V7.41011C14.75 6.27011 14.4 5.42011 13.79 5.09011C13.18 4.75011 12.27 4.90011 11.31 5.51011L8.38 7.33011C7.95 7.61011 7.44 7.75011 6.93 7.75011H5.5Z" fill="#171717"/>
<path d="M18.5 16.75C18.34 16.75 18.19 16.7 18.05 16.6C17.72 16.35 17.65 15.88 17.9 15.55C19.47 13.46 19.47 10.54 17.9 8.45003C17.65 8.12003 17.72 7.65003 18.05 7.40003C18.38 7.15003 18.85 7.22003 19.1 7.55003C21.06 10.17 21.06 13.83 19.1 16.45C18.95 16.65 18.73 16.75 18.5 16.75Z" fill="#171717"/>
<path d="M20.33 19.25C20.17 19.25 20.02 19.2 19.88 19.1C19.55 18.85 19.48 18.38 19.73 18.05C22.4 14.49 22.4 9.51003 19.73 5.95003C19.48 5.62003 19.55 5.15003 19.88 4.90003C20.21 4.65003 20.68 4.72003 20.93 5.05003C24 9.14003 24 14.86 20.93 18.95C20.79 19.15 20.56 19.25 20.33 19.25Z" fill="#171717"/>
</svg>
