<svg width="25" height="24" viewBox="0 0 25 24" fill="none" xmlns="http://www.w3.org/2000/svg">
<path d="M16.22 9.69002C14.17 7.63002 10.83 7.63002 8.77999 9.69002C6.71999 11.75 6.71999 15.08 8.77999 17.13C10.84 19.19 14.17 19.19 16.22 17.13C18.28 15.07 18.28 11.74 16.22 9.69002ZM13.03 13.94L11.44 15.53C11.29 15.68 11.1 15.75 10.91 15.75C10.72 15.75 10.52 15.68 10.38 15.53C10.09 15.24 10.09 14.76 10.38 14.46L11.97 12.87C12.26 12.58 12.74 12.58 13.04 12.87C13.33 13.17 13.33 13.65 13.03 13.94Z" fill="#171717"/>
<path opacity="0.4" d="M20.1001 5.81C19.8801 5.59 19.6001 5.46997 19.2901 5.46997C18.9801 5.46997 18.7001 5.58999 18.4801 5.79999C18.0301 6.24999 18.0301 6.96998 18.4801 7.41998C18.7001 7.63998 18.9801 7.76001 19.2901 7.76001C19.6001 7.76001 19.8801 7.63999 20.1001 7.42999C20.3201 7.20999 20.4401 6.93 20.4401 6.62C20.4401 6.31 20.3201 6.02 20.1001 5.81Z" fill="#171717"/>
<path opacity="0.4" d="M6.52005 19.3901C6.30005 19.1701 6.02005 19.05 5.71005 19.05C5.40005 19.05 5.12005 19.1701 4.90005 19.3801C4.68005 19.6001 4.56006 19.8801 4.56006 20.1901C4.56006 20.5001 4.68005 20.7801 4.90005 21.0001C5.12005 21.2201 5.42005 21.3301 5.71005 21.3301C6.00005 21.3301 6.30005 21.2201 6.52005 20.9901C6.96005 20.5601 6.96005 19.8301 6.52005 19.3901Z" fill="#171717"/>
<path opacity="0.4" d="M22.91 12.6C22.7 12.38 22.41 12.27 22.1 12.26C21.79 12.26 21.51 12.38 21.29 12.6C20.84 13.05 20.84 13.77 21.29 14.22C21.51 14.44 21.81 14.55 22.1 14.55C22.39 14.55 22.69 14.44 22.91 14.22C23.36 13.77 23.36 13.04 22.91 12.6Z" fill="#171717"/>
<path opacity="0.4" d="M3.70994 12.5999C3.26994 12.1599 2.53994 12.1499 2.08994 12.5999C1.63994 13.0499 1.63994 13.7699 2.08994 14.2199C2.30994 14.4399 2.60994 14.5499 2.89994 14.5499C3.18994 14.5499 3.48994 14.4399 3.70994 14.2199C4.14994 13.7699 4.14994 13.0399 3.70994 12.5999Z" fill="#171717"/>
<path opacity="0.4" d="M20.1001 19.39C19.6501 18.94 18.9301 18.94 18.4801 19.39C18.0301 19.84 18.0301 20.56 18.4801 21.01C18.7001 21.23 19.0001 21.34 19.2901 21.34C19.5801 21.34 19.8801 21.23 20.1001 21.01C20.3201 20.79 20.4401 20.5 20.4401 20.2C20.4401 19.89 20.3201 19.6 20.1001 19.39Z" fill="#171717"/>
<path opacity="0.4" d="M6.52005 5.81C6.30005 5.59 6.02005 5.46997 5.71005 5.46997C5.40005 5.46997 5.12005 5.58999 4.90005 5.79999C4.68005 6.01999 4.56006 6.29999 4.56006 6.60999C4.56006 6.91999 4.68008 7.19998 4.89008 7.41998C5.11008 7.63998 5.39007 7.76001 5.70007 7.76001C6.01007 7.76001 6.29007 7.63998 6.51007 7.41998C6.96007 6.97998 6.96005 6.25 6.52005 5.81Z" fill="#171717"/>
<path opacity="0.4" d="M13.31 3.0001C13.31 2.9901 13.31 2.9901 13.31 3.0001C12.86 2.5501 12.14 2.5501 11.69 3.0001C11.47 3.2201 11.35 3.5101 11.35 3.8101C11.35 4.1201 11.47 4.40009 11.68 4.62009C11.9 4.84009 12.18 4.96012 12.49 4.96012C12.8 4.96012 13.08 4.84009 13.3 4.62009C13.76 4.17009 13.76 3.4401 13.31 3.0001Z" fill="#171717"/>
</svg>
