<svg width="25" height="24" viewBox="0 0 25 24" fill="none" xmlns="http://www.w3.org/2000/svg">
<path opacity="0.4" d="M19.75 7.40997V16.59C19.75 18.31 19.13 19.6 18.02 20.22C17.57 20.47 17.07 20.59 16.55 20.59C15.75 20.59 14.89 20.32 14.01 19.77L11.09 17.94C10.89 17.82 10.66 17.75 10.43 17.75H9.5V6.24997H10.43C10.66 6.24997 10.89 6.17997 11.09 6.05997L14.01 4.22997C15.47 3.31997 16.9 3.15997 18.02 3.77997C19.13 4.39997 19.75 5.68997 19.75 7.40997Z" fill="#171717"/>
<path d="M9.5 6.25V17.75H9C6.58 17.75 5.25 16.42 5.25 14V10C5.25 7.58 6.58 6.25 9 6.25H9.5Z" fill="#171717"/>
</svg>
