<svg width="25" height="24" viewBox="0 0 25 24" fill="none" xmlns="http://www.w3.org/2000/svg">
<path d="M13.26 20.75C12.45 20.75 11.58 20.47 10.68 19.91L7.7 18.05C7.49 17.92 7.26 17.85 7.02 17.85H5.56C3.1 17.85 1.75 16.5 1.75 14.04V9.95996C1.75 7.49996 3.1 6.14996 5.56 6.14996H7.02C7.26 6.14996 7.5 6.07996 7.7 5.94996L10.68 4.08996C12.17 3.15996 13.61 2.98996 14.75 3.62996C15.89 4.25996 16.51 5.56996 16.51 7.32996V16.69C16.51 18.44 15.88 19.76 14.75 20.39C14.3 20.63 13.8 20.75 13.26 20.75ZM5.56 7.64996C3.94 7.64996 3.25 8.33996 3.25 9.95996V14.04C3.25 15.66 3.94 16.35 5.56 16.35H7.02C7.54 16.35 8.05 16.5 8.5 16.77L11.48 18.63C12.47 19.25 13.4 19.4 14.03 19.06C14.66 18.71 15.02 17.84 15.02 16.68V7.31996C15.02 6.14996 14.66 5.27996 14.03 4.93996C13.4 4.58996 12.47 4.74996 11.48 5.36996L8.5 7.21996C8.05 7.49996 7.54 7.64996 7.02 7.64996H5.56Z" fill="#171717"/>
<path d="M22.5 12.75H18.5C18.09 12.75 17.75 12.41 17.75 12C17.75 11.59 18.09 11.25 18.5 11.25H22.5C22.91 11.25 23.25 11.59 23.25 12C23.25 12.41 22.91 12.75 22.5 12.75Z" fill="#171717"/>
<path d="M20.5 14.75C20.09 14.75 19.75 14.41 19.75 14V10C19.75 9.59 20.09 9.25 20.5 9.25C20.91 9.25 21.25 9.59 21.25 10V14C21.25 14.41 20.91 14.75 20.5 14.75Z" fill="#171717"/>
</svg>
