<svg width="25" height="24" viewBox="0 0 25 24" fill="none" xmlns="http://www.w3.org/2000/svg">
<path d="M12.4998 19.4201C10.9598 19.4201 9.4198 18.8301 8.2498 17.6601C5.8998 15.3101 5.8998 11.5001 8.2498 9.15015C9.3898 8.01015 10.8998 7.39014 12.4998 7.39014C14.0998 7.39014 15.6198 8.02015 16.7498 9.15015C19.0998 11.5001 19.0998 15.3101 16.7498 17.6601C15.5798 18.8301 14.0398 19.4201 12.4998 19.4201ZM12.4998 8.90015C11.2998 8.90015 10.1598 9.37009 9.3098 10.2201C7.5498 11.9801 7.5498 14.8401 9.3098 16.6001C11.0698 18.3601 13.9298 18.3501 15.6898 16.6001C17.4498 14.8401 17.4498 11.9801 15.6898 10.2201C14.8398 9.37009 13.6998 8.90015 12.4998 8.90015Z" fill="#171717"/>
<path d="M10.9101 15.7498C10.7201 15.7498 10.5201 15.6799 10.3801 15.5299C10.0901 15.2399 10.0901 14.7599 10.3801 14.4599L11.9701 12.8698C12.2601 12.5798 12.7401 12.5798 13.0401 12.8698C13.3301 13.1598 13.3301 13.6399 13.0401 13.9399L11.4501 15.5299C11.2901 15.6799 11.1001 15.7498 10.9101 15.7498Z" fill="#171717"/>
<path d="M19.29 7.51001C19.05 7.51001 18.83 7.42 18.66 7.25C18.31 6.9 18.31 6.32999 18.66 5.98999C18.83 5.81999 19.05 5.72998 19.29 5.72998C19.53 5.72998 19.75 5.81999 19.92 5.98999C20.09 6.15999 20.1799 6.38 20.1799 6.62C20.1799 6.86 20.09 7.08 19.92 7.25C19.76 7.42 19.53 7.51001 19.29 7.51001ZM19.22 6.53998V6.69C19.24 6.71 19.2699 6.71997 19.2999 6.71997C19.4199 6.64997 19.42 6.57998 19.37 6.53998H19.22Z" fill="#171717"/>
<path d="M19.2899 7.76001C18.9799 7.76001 18.6999 7.63998 18.4799 7.41998C18.0399 6.97998 18.0399 6.24999 18.4799 5.79999C18.6999 5.57999 18.9799 5.46997 19.2899 5.46997C19.5999 5.46997 19.8799 5.59 20.0999 5.81C20.3199 6.03 20.4299 6.31 20.4299 6.62C20.4299 6.93 20.3099 7.20999 20.0899 7.42999C19.8899 7.63999 19.5999 7.76001 19.2899 7.76001ZM19.0399 6.87C19.1099 6.94 19.1999 6.96997 19.2899 6.96997C19.3799 6.96997 19.4699 6.93 19.5399 6.87C19.6799 6.73 19.6799 6.51 19.5399 6.37C19.4099 6.24 19.1699 6.24 19.0399 6.37C18.9799 6.43 18.9399 6.52 18.9399 6.62C18.9399 6.71 18.9699 6.8 19.0399 6.87Z" fill="#171717"/>
<path d="M5.70981 21.0901C5.47981 21.0901 5.2498 21.0001 5.0798 20.8301C4.9098 20.6601 4.81982 20.4301 4.81982 20.2001C4.81982 19.9601 4.9098 19.7401 5.0798 19.5701C5.2498 19.4001 5.46981 19.3101 5.70981 19.3101C5.94981 19.3101 6.16981 19.4001 6.33981 19.5701C6.68981 19.9201 6.68981 20.4901 6.33981 20.8301C6.16981 21.0001 5.93981 21.0901 5.70981 21.0901ZM5.68982 20.1C5.66982 20.1 5.64982 20.1101 5.62982 20.1301C5.58982 20.1701 5.58982 20.2401 5.62982 20.2801C5.64982 20.3001 5.67983 20.3101 5.69983 20.3101L5.7998 20.2101C5.7698 20.1201 5.72982 20.1 5.68982 20.1Z" fill="#171717"/>
<path d="M5.71005 21.3401C5.42005 21.3401 5.12005 21.2301 4.90005 21.0101C4.68005 20.7901 4.56006 20.5001 4.56006 20.2001C4.56006 19.8901 4.68005 19.6101 4.90005 19.3901C5.11005 19.1801 5.40005 19.0601 5.71005 19.0601C6.02005 19.0601 6.30005 19.1801 6.52005 19.4001C6.97005 19.8501 6.97005 20.5701 6.52005 21.0201C6.30005 21.2301 6.00005 21.3401 5.71005 21.3401ZM5.71005 19.8401C5.62005 19.8401 5.53005 19.8701 5.46005 19.9401C5.32005 20.0801 5.32005 20.3001 5.46005 20.4401C5.53005 20.5101 5.62005 20.54 5.71005 20.54C5.80005 20.54 5.90005 20.5001 5.96005 20.4301C6.02005 20.3701 6.06006 20.2801 6.06006 20.1801C6.06006 20.0901 6.02005 19.9901 5.96005 19.9301C5.89005 19.8801 5.80005 19.8401 5.71005 19.8401Z" fill="#171717"/>
<path d="M22.1 14.3C21.87 14.3 21.64 14.21 21.47 14.04C21.12 13.69 21.12 13.12 21.47 12.77C21.64 12.6 21.87 12.56 22.1 12.51C22.34 12.51 22.56 12.6 22.73 12.77C23.08 13.12 23.08 13.69 22.73 14.04C22.56 14.21 22.33 14.3 22.1 14.3ZM22.03 13.48C22.05 13.5 22.08 13.51 22.11 13.51C22.22 13.44 22.22 13.37 22.18 13.33C22.14 13.29 22.07 13.29 22.03 13.33C21.99 13.37 21.99 13.44 22.03 13.48Z" fill="#171717"/>
<path d="M22.1001 14.55C21.8101 14.55 21.5101 14.44 21.2901 14.22C20.8401 13.77 20.8401 13.05 21.2901 12.6C21.5101 12.38 21.7901 12.26 22.1001 12.26C22.4101 12.26 22.6901 12.38 22.9101 12.6C23.3601 13.05 23.3601 13.77 22.9101 14.22C22.6901 14.44 22.4001 14.55 22.1001 14.55ZM21.8501 13.66C21.9201 13.73 22.0101 13.76 22.1001 13.76C22.1901 13.76 22.2801 13.72 22.3501 13.66C22.4901 13.52 22.4901 13.3 22.3501 13.16C22.2101 13.02 21.9901 13.02 21.8501 13.16C21.7201 13.29 21.7101 13.52 21.8501 13.66Z" fill="#171717"/>
<path d="M2.89983 14.3C2.66983 14.3 2.43982 14.21 2.26982 14.04C1.91982 13.69 1.91982 13.1201 2.26982 12.7701C2.61982 12.4201 3.18984 12.4201 3.53984 12.7701C3.88984 13.1201 3.88984 13.69 3.53984 14.04C3.34984 14.21 3.11983 14.3 2.89983 14.3ZM2.81984 13.48C2.85984 13.52 2.92984 13.52 2.96984 13.48C3.00984 13.44 3.00984 13.3701 2.96984 13.3301C2.92984 13.2901 2.85984 13.2901 2.81984 13.3301C2.77984 13.3701 2.77984 13.44 2.81984 13.48Z" fill="#171717"/>
<path d="M2.89994 14.5499C2.60994 14.5499 2.30994 14.4399 2.08994 14.2199C1.63994 13.7699 1.63994 13.0499 2.08994 12.5999C2.53994 12.1499 3.26994 12.1599 3.70994 12.5999C4.15994 13.0499 4.15994 13.7699 3.70994 14.2199C3.47994 14.4399 3.18994 14.5499 2.89994 14.5499ZM2.63996 13.6599C2.77996 13.7999 2.99996 13.7999 3.13996 13.6599C3.27996 13.5199 3.27996 13.2899 3.13996 13.1599C2.99996 13.0199 2.77996 13.0199 2.63996 13.1599C2.50996 13.2899 2.50996 13.5199 2.63996 13.6599Z" fill="#171717"/>
<path d="M19.29 21.0899C19.06 21.0899 18.83 20.9999 18.66 20.8299C18.31 20.4799 18.31 19.9099 18.66 19.5599C19.01 19.2099 19.5799 19.2099 19.9299 19.5599C20.0999 19.7299 20.19 19.9499 20.19 20.1899C20.19 20.4299 20.0999 20.6499 19.9299 20.8199C19.7499 20.9999 19.52 21.0899 19.29 21.0899ZM19.29 20.0899C19.26 20.0899 19.24 20.0999 19.22 20.1199V20.2699C19.26 20.3099 19.33 20.3099 19.37 20.2699C19.41 20.2299 19.41 20.1599 19.37 20.1199C19.34 20.0999 19.32 20.0899 19.29 20.0899Z" fill="#171717"/>
<path d="M19.2901 21.34C19.0001 21.34 18.7001 21.23 18.4801 21.01C18.0301 20.56 18.0301 19.84 18.4801 19.39C18.9301 18.94 19.6501 18.94 20.1001 19.39C20.3201 19.61 20.4401 19.89 20.4401 20.2C20.4401 20.51 20.3201 20.79 20.1001 21.01C19.8801 21.23 19.5801 21.34 19.2901 21.34ZM19.0401 20.45C19.1801 20.59 19.4001 20.59 19.5401 20.45C19.6801 20.31 19.6801 20.09 19.5401 19.95C19.4001 19.81 19.1801 19.81 19.0401 19.95C18.9701 20.02 18.9401 20.11 18.9401 20.2C18.9401 20.29 18.9701 20.38 19.0401 20.45Z" fill="#171717"/>
<path d="M5.70981 7.51001C5.46981 7.51001 5.2498 7.42 5.0798 7.25C4.9098 7.08 4.81982 6.86 4.81982 6.62C4.81982 6.38 4.9098 6.15999 5.0798 5.98999C5.2498 5.81999 5.46981 5.72998 5.70981 5.72998C5.94981 5.72998 6.16981 5.81999 6.33981 5.98999C6.68981 6.33999 6.68981 6.91001 6.33981 7.26001C6.16981 7.42001 5.94981 7.51001 5.70981 7.51001ZM5.62982 6.69C5.64982 6.71 5.67983 6.71997 5.69983 6.71997L5.7998 6.62L5.69983 6.52002C5.58983 6.58002 5.58982 6.65 5.62982 6.69Z" fill="#171717"/>
<path d="M5.70981 7.76001C5.39981 7.76001 5.11981 7.63998 4.89981 7.41998C4.68981 7.20998 4.56982 6.91999 4.56982 6.60999C4.56982 6.29999 4.68982 6.01999 4.90982 5.79999C5.11982 5.58999 5.40982 5.46997 5.71982 5.46997C6.02982 5.46997 6.30982 5.59 6.52982 5.81C6.96982 6.26 6.96982 6.97999 6.52982 7.42999C6.29982 7.63999 6.01981 7.76001 5.70981 7.76001ZM5.45981 6.87C5.52981 6.94 5.61981 6.97998 5.70981 6.97998C5.79981 6.97998 5.88981 6.94 5.95981 6.88C6.02981 6.82 6.05981 6.72 6.05981 6.63C6.05981 6.54 6.01983 6.44 5.94983 6.38C5.82983 6.25 5.57983 6.25 5.44983 6.38C5.31983 6.5 5.31981 6.73 5.45981 6.87Z" fill="#171717"/>
<path d="M12.4999 4.7C12.2599 4.7 12.0399 4.60999 11.8699 4.43999C11.6999 4.26999 11.6099 4.04999 11.6099 3.80999C11.6099 3.56999 11.6999 3.34998 11.8699 3.17998C12.2199 2.82998 12.7899 2.82998 13.1399 3.17998C13.4899 3.52998 13.4899 4.09999 13.1399 4.43999C12.9699 4.59999 12.7399 4.7 12.4999 4.7ZM12.5699 3.72997L12.4199 3.87999C12.4599 3.91999 12.5299 3.91999 12.5699 3.87999V3.72997ZM12.4299 3.72997C12.3899 3.76997 12.3899 3.83999 12.4299 3.87999L12.5799 3.72997H12.4299Z" fill="#171717"/>
<path d="M12.4999 4.94987C12.1899 4.94987 11.9099 4.82984 11.6899 4.60984C11.4799 4.39984 11.3599 4.10984 11.3599 3.79984C11.3599 3.48984 11.4799 3.20984 11.6999 2.98984C12.1499 2.53984 12.8699 2.53984 13.3199 2.98984C13.7599 3.43984 13.7599 4.15984 13.3199 4.60984C13.0999 4.82984 12.8099 4.94987 12.4999 4.94987ZM12.7499 3.54984L12.2499 4.04984C12.3899 4.18984 12.6099 4.18984 12.7499 4.04984C12.8199 3.97984 12.8499 3.88984 12.8499 3.79984C12.8499 3.70984 12.8199 3.61984 12.7499 3.54984ZM12.4999 3.44987C12.4099 3.44987 12.3099 3.48985 12.2499 3.55985C12.1099 3.69985 12.1099 3.91985 12.2499 4.05985L12.7499 3.55985C12.6899 3.48985 12.5999 3.44987 12.4999 3.44987Z" fill="#171717"/>
</svg>
