<svg width="25" height="24" viewBox="0 0 25 24" fill="none" xmlns="http://www.w3.org/2000/svg">
<path d="M13.05 20.5901C12.26 20.5901 11.39 20.3101 10.52 19.7601L7.6 17.9301C7.4 17.8101 7.17 17.7401 6.94 17.7401H5.5C3.08 17.7401 1.75 16.4101 1.75 13.9901V9.99011C1.75 7.57011 3.08 6.24011 5.5 6.24011H6.93C7.16 6.24011 7.39 6.17011 7.59 6.05011L10.51 4.22011C11.97 3.31011 13.39 3.14011 14.51 3.76011C15.63 4.38011 16.24 5.67011 16.24 7.40011V16.5701C16.24 18.2901 15.62 19.5901 14.51 20.2101C14.07 20.4701 13.57 20.5901 13.05 20.5901ZM5.5 7.75011C3.92 7.75011 3.25 8.42011 3.25 10.0001V14.0001C3.25 15.5801 3.92 16.2501 5.5 16.2501H6.93C7.45 16.2501 7.95 16.3901 8.39 16.6701L11.31 18.5001C12.28 19.1001 13.18 19.2601 13.79 18.9201C14.4 18.5801 14.75 17.7301 14.75 16.6001V7.41011C14.75 6.27011 14.4 5.42011 13.79 5.09011C13.18 4.75011 12.27 4.90011 11.31 5.51011L8.38 7.33011C7.95 7.61011 7.44 7.75011 6.93 7.75011H5.5Z" fill="#171717"/>
<path d="M22.5 14.7099C22.31 14.7099 22.12 14.6399 21.97 14.4899L18.01 10.5299C17.72 10.2399 17.72 9.75994 18.01 9.46994C18.3 9.17994 18.78 9.17994 19.07 9.46994L23.03 13.4299C23.32 13.7199 23.32 14.1999 23.03 14.4899C22.88 14.6299 22.69 14.7099 22.5 14.7099Z" fill="#171717"/>
<path d="M18.4999 14.75C18.3099 14.75 18.1199 14.68 17.9699 14.53C17.6799 14.24 17.6799 13.76 17.9699 13.47L21.9299 9.50998C22.2199 9.21998 22.6999 9.21998 22.9899 9.50998C23.2799 9.79998 23.2799 10.28 22.9899 10.57L19.0299 14.53C18.8799 14.68 18.6899 14.75 18.4999 14.75Z" fill="#171717"/>
</svg>
