<svg width="25" height="24" viewBox="0 0 25 24" fill="none" xmlns="http://www.w3.org/2000/svg">
<path d="M16.5 22.75H8.5C4.85 22.75 2.75 20.65 2.75 17V7C2.75 3.35 4.85 1.25 8.5 1.25H16.5C20.15 1.25 22.25 3.35 22.25 7V17C22.25 20.65 20.15 22.75 16.5 22.75ZM8.5 2.75C5.64 2.75 4.25 4.14 4.25 7V17C4.25 19.86 5.64 21.25 8.5 21.25H16.5C19.36 21.25 20.75 19.86 20.75 17V7C20.75 4.14 19.36 2.75 16.5 2.75H8.5Z" fill="#171717"/>
<path d="M9.5 11.11C9.33 11.11 9.16 11.08 9 11.01C8.54 10.81 8.25 10.36 8.25 9.87V2C8.25 1.59 8.59 1.25 9 1.25H16C16.41 1.25 16.75 1.59 16.75 2V9.85999C16.75 10.36 16.46 10.81 16 11C15.55 11.2 15.02 11.11 14.65 10.77L12.5 8.79999L10.35 10.78C10.11 11 9.81 11.11 9.5 11.11ZM12.5 7.21002C12.8 7.21002 13.11 7.31998 13.35 7.53998L15.25 9.28998V2.75H9.75V9.28998L11.65 7.53998C11.89 7.31998 12.2 7.21002 12.5 7.21002Z" fill="#171717"/>
<path d="M18 14.75H13.75C13.34 14.75 13 14.41 13 14C13 13.59 13.34 13.25 13.75 13.25H18C18.41 13.25 18.75 13.59 18.75 14C18.75 14.41 18.41 14.75 18 14.75Z" fill="#171717"/>
<path d="M18 18.75H9.5C9.09 18.75 8.75 18.41 8.75 18C8.75 17.59 9.09 17.25 9.5 17.25H18C18.41 17.25 18.75 17.59 18.75 18C18.75 18.41 18.41 18.75 18 18.75Z" fill="#171717"/>
</svg>
