<svg width="25" height="24" viewBox="0 0 25 24" fill="none" xmlns="http://www.w3.org/2000/svg">
<path d="M12.4999 22.25C11.6799 22.25 10.8599 21.99 10.1799 21.48L4.96991 17.58C3.99991 16.85 3.41992 15.69 3.41992 14.48V1.76001H21.5799V14.48C21.5799 15.69 20.9999 16.85 20.0299 17.58L14.8199 21.48C14.1399 21.99 13.3199 22.25 12.4999 22.25ZM4.91992 3.25002V14.47C4.91992 15.21 5.2799 15.92 5.8699 16.37L11.0799 20.27C11.9199 20.9 13.0899 20.9 13.9299 20.27L19.1399 16.37C19.7299 15.92 20.0899 15.21 20.0899 14.47V3.25002H4.91992Z" fill="#171717"/>
<path d="M22.5 3.25H2.5C2.09 3.25 1.75 2.91 1.75 2.5C1.75 2.09 2.09 1.75 2.5 1.75H22.5C22.91 1.75 23.25 2.09 23.25 2.5C23.25 2.91 22.91 3.25 22.5 3.25Z" fill="#171717"/>
<path d="M16.5 8.75H8.5C8.09 8.75 7.75 8.41 7.75 8C7.75 7.59 8.09 7.25 8.5 7.25H16.5C16.91 7.25 17.25 7.59 17.25 8C17.25 8.41 16.91 8.75 16.5 8.75Z" fill="#171717"/>
<path d="M16.5 13.75H8.5C8.09 13.75 7.75 13.41 7.75 13C7.75 12.59 8.09 12.25 8.5 12.25H16.5C16.91 12.25 17.25 12.59 17.25 13C17.25 13.41 16.91 13.75 16.5 13.75Z" fill="#171717"/>
</svg>
