<svg width="25" height="24" viewBox="0 0 25 24" fill="none" xmlns="http://www.w3.org/2000/svg">
<path d="M14.5 6.75H10.5C9.54 6.75 7.75 6.75 7.75 4C7.75 1.25 9.54 1.25 10.5 1.25H14.5C15.46 1.25 17.25 1.25 17.25 4C17.25 4.96 17.25 6.75 14.5 6.75ZM10.5 2.75C9.51 2.75 9.25 2.75 9.25 4C9.25 5.25 9.51 5.25 10.5 5.25H14.5C15.75 5.25 15.75 4.99 15.75 4C15.75 2.75 15.49 2.75 14.5 2.75H10.5Z" fill="#171717"/>
<path d="M14.5 22.75H9.5C3.88 22.75 2.75 20.17 2.75 16V9.99997C2.75 5.43997 4.4 3.48997 8.46 3.27997C8.85 3.25997 9.23 3.56997 9.25 3.98997C9.27 4.40997 8.95 4.74997 8.54 4.76997C5.7 4.92997 4.25 5.77997 4.25 9.99997V16C4.25 19.7 4.98 21.25 9.5 21.25H14.5C14.91 21.25 15.25 21.59 15.25 22C15.25 22.41 14.91 22.75 14.5 22.75Z" fill="#171717"/>
<path d="M21.4999 15.7501C21.0899 15.7501 20.7499 15.4101 20.7499 15.0001V10.0001C20.7499 5.78005 19.2999 4.93005 16.4599 4.77005C16.0499 4.75005 15.7299 4.39005 15.7499 3.98005C15.7699 3.57005 16.1299 3.25005 16.5399 3.27005C20.5999 3.49005 22.2499 5.44005 22.2499 9.99005V14.9901C22.2499 15.4101 21.9099 15.7501 21.4999 15.7501Z" fill="#171717"/>
<path d="M15.5 19.75C15.09 19.75 14.75 19.41 14.75 19V16C14.75 15.59 15.09 15.25 15.5 15.25H18.5C18.91 15.25 19.25 15.59 19.25 16C19.25 16.41 18.91 16.75 18.5 16.75H16.25V19C16.25 19.41 15.91 19.75 15.5 19.75Z" fill="#171717"/>
<path d="M21.5 22.75C21.31 22.75 21.12 22.68 20.97 22.53L15.01 16.57C14.72 16.28 14.72 15.8 15.01 15.51C15.3 15.22 15.78 15.22 16.07 15.51L22.03 21.47C22.32 21.76 22.32 22.24 22.03 22.53C21.88 22.68 21.69 22.75 21.5 22.75Z" fill="#171717"/>
</svg>
