<svg width="25" height="24" viewBox="0 0 25 24" fill="none" xmlns="http://www.w3.org/2000/svg">
<path d="M14.5 6.75H10.5C9.54 6.75 7.75 6.75 7.75 4C7.75 1.25 9.54 1.25 10.5 1.25H14.5C15.46 1.25 17.25 1.25 17.25 4C17.25 4.96 17.25 6.75 14.5 6.75ZM10.5 2.75C9.51 2.75 9.25 2.75 9.25 4C9.25 5.25 9.51 5.25 10.5 5.25H14.5C15.75 5.25 15.75 4.99 15.75 4C15.75 2.75 15.49 2.75 14.5 2.75H10.5Z" fill="#171717"/>
<path d="M14.5 22.75H9.5C3.88 22.75 2.75 20.17 2.75 16V9.99997C2.75 5.43997 4.4 3.48997 8.46 3.27997C8.86 3.25997 9.23 3.56997 9.25 3.98997C9.27 4.40997 8.95 4.74997 8.54 4.76997C5.7 4.92997 4.25 5.77997 4.25 9.99997V16C4.25 19.7 4.98 21.25 9.5 21.25H14.5C14.91 21.25 15.25 21.59 15.25 22C15.25 22.41 14.91 22.75 14.5 22.75Z" fill="#171717"/>
<path d="M21.4999 15.7501C21.0899 15.7501 20.7499 15.4101 20.7499 15.0001V10.0001C20.7499 5.78005 19.2999 4.93005 16.4599 4.77005C16.0499 4.75005 15.7299 4.39005 15.7499 3.98005C15.7699 3.57005 16.1399 3.25005 16.5399 3.27005C20.5999 3.49005 22.2499 5.44005 22.2499 9.99005V14.9901C22.2499 15.4101 21.9099 15.7501 21.4999 15.7501Z" fill="#171717"/>
<path d="M21.5 22.75H18.5C18.09 22.75 17.75 22.41 17.75 22C17.75 21.59 18.09 21.25 18.5 21.25H20.75V19C20.75 18.59 21.09 18.25 21.5 18.25C21.91 18.25 22.25 18.59 22.25 19V22C22.25 22.41 21.91 22.75 21.5 22.75Z" fill="#171717"/>
<path d="M21.4599 22.7099C21.2699 22.7099 21.0799 22.6399 20.9299 22.4899L14.9699 16.5299C14.6799 16.2399 14.6799 15.7599 14.9699 15.4699C15.2599 15.1799 15.7399 15.1799 16.0299 15.4699L21.9899 21.4299C22.2799 21.7199 22.2799 22.1999 21.9899 22.4899C21.8399 22.6299 21.6499 22.7099 21.4599 22.7099Z" fill="#171717"/>
</svg>
