<svg width="25" height="24" viewBox="0 0 25 24" fill="none" xmlns="http://www.w3.org/2000/svg">
<path opacity="0.4" d="M16.74 3.65002H8.26004C5.79004 3.65002 3.79004 5.66002 3.79004 8.12002V17.53C3.79004 19.99 5.80004 22 8.26004 22H16.73C19.2 22 21.2 19.99 21.2 17.53V8.12002C21.21 5.65002 19.2 3.65002 16.74 3.65002Z" fill="#171717"/>
<path d="M14.85 2H10.15C9.11001 2 8.26001 2.84 8.26001 3.88V4.82C8.26001 5.86 9.10001 6.7 10.14 6.7H14.85C15.89 6.7 16.73 5.86 16.73 4.82V3.88C16.74 2.84 15.89 2 14.85 2Z" fill="#171717"/>
<path d="M16.03 16.47L11.31 11.75H12.5C12.91 11.75 13.25 11.41 13.25 11C13.25 10.59 12.91 10.25 12.5 10.25H9.5C9.09 10.25 8.75 10.59 8.75 11V14C8.75 14.41 9.09 14.75 9.5 14.75C9.91 14.75 10.25 14.41 10.25 14V12.81L14.97 17.53C15.12 17.68 15.31 17.75 15.5 17.75C15.69 17.75 15.88 17.68 16.03 17.53C16.32 17.24 16.32 16.76 16.03 16.47Z" fill="#171717"/>
</svg>
