<svg width="25" height="24" viewBox="0 0 25 24" fill="none" xmlns="http://www.w3.org/2000/svg">
<path opacity="0.4" d="M16.74 3.65002H8.26004C5.79004 3.65002 3.79004 5.66002 3.79004 8.12002V17.53C3.79004 19.99 5.80004 22 8.26004 22H16.73C19.2 22 21.2 19.99 21.2 17.53V8.12002C21.21 5.65002 19.2 3.65002 16.74 3.65002Z" fill="#171717"/>
<path d="M14.85 2H10.15C9.11001 2 8.26001 2.84 8.26001 3.88V4.82C8.26001 5.86 9.10001 6.7 10.14 6.7H14.85C15.89 6.7 16.73 5.86 16.73 4.82V3.88C16.74 2.84 15.89 2 14.85 2Z" fill="#171717"/>
<path d="M15.4999 13.2499C15.0899 13.2499 14.7499 13.5899 14.7499 13.9999V15.1899L10.0299 10.4699C9.73994 10.1799 9.25994 10.1799 8.96994 10.4699C8.67994 10.7599 8.67994 11.2399 8.96994 11.5299L13.6899 16.2499H12.4999C12.0899 16.2499 11.7499 16.5899 11.7499 16.9999C11.7499 17.4099 12.0899 17.7499 12.4999 17.7499H15.4999C15.9099 17.7499 16.2499 17.4099 16.2499 16.9999V13.9999C16.2499 13.5899 15.9099 13.2499 15.4999 13.2499Z" fill="#171717"/>
</svg>
