<svg width="25" height="24" viewBox="0 0 25 24" fill="none" xmlns="http://www.w3.org/2000/svg">
<path opacity="0.4" d="M16.74 3.65002H8.26004C5.79004 3.65002 3.79004 5.66002 3.79004 8.12002V17.53C3.79004 19.99 5.80004 22 8.26004 22H16.73C19.2 22 21.2 19.99 21.2 17.53V8.12002C21.21 5.65002 19.2 3.65002 16.74 3.65002Z" fill="#171717"/>
<path d="M14.85 2H10.15C9.11001 2 8.26001 2.84 8.26001 3.88V4.82C8.26001 5.86 9.10001 6.7 10.14 6.7H14.85C15.89 6.7 16.73 5.86 16.73 4.82V3.88C16.74 2.84 15.89 2 14.85 2Z" fill="#171717"/>
<path d="M15.5 12.95H8.5C8.09 12.95 7.75 12.61 7.75 12.2C7.75 11.79 8.09 11.45 8.5 11.45H15.5C15.91 11.45 16.25 11.79 16.25 12.2C16.25 12.61 15.91 12.95 15.5 12.95Z" fill="#171717"/>
<path d="M12.88 16.95H8.5C8.09 16.95 7.75 16.61 7.75 16.2C7.75 15.79 8.09 15.45 8.5 15.45H12.88C13.29 15.45 13.63 15.79 13.63 16.2C13.63 16.61 13.29 16.95 12.88 16.95Z" fill="#171717"/>
</svg>
