<svg width="25" height="24" viewBox="0 0 25 24" fill="none" xmlns="http://www.w3.org/2000/svg">
<path opacity="0.4" d="M16.74 3.65002H8.26004C5.79004 3.65002 3.79004 5.66002 3.79004 8.12002V17.53C3.79004 19.99 5.80004 22 8.26004 22H16.73C19.2 22 21.2 19.99 21.2 17.53V8.12002C21.21 5.65002 19.2 3.65002 16.74 3.65002Z" fill="#171717"/>
<path d="M14.85 2H10.15C9.11001 2 8.26001 2.84 8.26001 3.88V4.82C8.26001 5.86 9.10001 6.7 10.14 6.7H14.85C15.89 6.7 16.73 5.86 16.73 4.82V3.88C16.74 2.84 15.89 2 14.85 2Z" fill="#171717"/>
<path d="M15.0299 15.62L13.5799 14.17L14.9799 12.77C15.2699 12.48 15.2699 12 14.9799 11.71C14.6899 11.42 14.2099 11.42 13.9199 11.71L12.5199 13.11L11.0699 11.66C10.7799 11.37 10.2999 11.37 10.0099 11.66C9.71994 11.95 9.71994 12.43 10.0099 12.72L11.4599 14.17L9.96994 15.66C9.67994 15.95 9.67994 16.43 9.96994 16.72C10.1199 16.87 10.3099 16.94 10.4999 16.94C10.6899 16.94 10.8799 16.87 11.0299 16.72L12.5199 15.23L13.9699 16.68C14.1199 16.83 14.3099 16.9 14.4999 16.9C14.6899 16.9 14.8799 16.83 15.0299 16.68C15.3199 16.39 15.3199 15.92 15.0299 15.62Z" fill="#171717"/>
</svg>
