<svg width="25" height="24" viewBox="0 0 25 24" fill="none" xmlns="http://www.w3.org/2000/svg">
<path d="M15.38 15C14.67 15.62 13.75 16 12.74 16C10.53 16 8.73999 14.21 8.73999 12C8.73999 9.79 10.53 8 12.74 8C13.75 8 14.67 8.38 15.38 9" stroke="#171717" stroke-width="1.5" stroke-linecap="round" stroke-linejoin="round"/>
<path d="M4.5 6C3.25 7.67 2.5 9.75 2.5 12C2.5 17.52 6.98 22 12.5 22C18.02 22 22.5 17.52 22.5 12C22.5 6.48 18.02 2 12.5 2C11.07 2 9.69997 2.29998 8.46997 2.84998" stroke="#171717" stroke-width="1.5" stroke-linecap="round" stroke-linejoin="round"/>
</svg>
