<svg width="25" height="24" viewBox="0 0 25 24" fill="none" xmlns="http://www.w3.org/2000/svg">
<path d="M12.5 22.75C6.57 22.75 1.75 17.93 1.75 12C1.75 6.07 6.57 1.25 12.5 1.25C18.43 1.25 23.25 6.07 23.25 12C23.25 17.93 18.43 22.75 12.5 22.75ZM12.5 2.75C7.4 2.75 3.25 6.9 3.25 12C3.25 17.1 7.4 21.25 12.5 21.25C17.6 21.25 21.75 17.1 21.75 12C21.75 6.9 17.6 2.75 12.5 2.75Z" fill="#171717"/>
<path d="M12.7402 16.75C10.1202 16.75 7.99023 14.62 7.99023 12C7.99023 9.38 10.1202 7.25 12.7402 7.25C13.8902 7.25 15.0102 7.67 15.8702 8.44C16.1802 8.71 16.2102 9.19 15.9402 9.5C15.6702 9.81 15.1902 9.84001 14.8802 9.57001C14.2902 9.05001 13.5302 8.76001 12.7402 8.76001C10.9502 8.76001 9.49023 10.22 9.49023 12.01C9.49023 13.8 10.9502 15.26 12.7402 15.26C13.5202 15.26 14.2902 14.97 14.8802 14.45C15.1902 14.18 15.6702 14.21 15.9402 14.52C16.2102 14.83 16.1802 15.31 15.8702 15.58C15.0002 16.33 13.8902 16.75 12.7402 16.75Z" fill="#171717"/>
</svg>
