<svg width="25" height="24" viewBox="0 0 25 24" fill="none" xmlns="http://www.w3.org/2000/svg">
<path opacity="0.4" d="M12.5 22C6.98 22 2.5 17.52 2.5 12C2.5 6.48 6.98 2 12.5 2C18.02 2 22.5 6.48 22.5 12C22.5 17.52 18.02 22 12.5 22Z" fill="#171717"/>
<path d="M12.74 16.75C10.12 16.75 7.98999 14.62 7.98999 12C7.98999 9.38 10.12 7.25 12.74 7.25C13.89 7.25 15.01 7.67 15.87 8.44C16.18 8.71 16.21 9.19 15.94 9.5C15.66 9.81 15.19 9.84001 14.88 9.57001C14.29 9.05001 13.53 8.76001 12.74 8.76001C10.95 8.76001 9.48999 10.22 9.48999 12.01C9.48999 13.8 10.95 15.26 12.74 15.26C13.52 15.26 14.29 14.97 14.88 14.45C15.19 14.18 15.67 14.21 15.94 14.52C16.21 14.83 16.18 15.31 15.87 15.58C15 16.33 13.89 16.75 12.74 16.75Z" fill="#171717"/>
</svg>
