<svg width="25" height="24" viewBox="0 0 25 24" fill="none" xmlns="http://www.w3.org/2000/svg">
<path opacity="0.4" d="M12.5 22C6.98 22 2.5 17.52 2.5 12C2.5 6.48 6.98 2 12.5 2C18.02 2 22.5 6.48 22.5 12C22.5 17.52 18.02 22 12.5 22Z" fill="#171717"/>
<path d="M9.49011 15.62C7.49011 15.62 5.87012 14 5.87012 12C5.87012 10 7.49011 8.38 9.49011 8.38C10.3701 8.38 11.2101 8.70003 11.8801 9.28003C12.1901 9.55003 12.2201 10.03 11.9501 10.34C11.6801 10.65 11.2001 10.68 10.8901 10.41C10.5001 10.07 10.0101 9.88 9.49011 9.88C8.32011 9.88 7.37012 10.83 7.37012 12C7.37012 13.17 8.32011 14.12 9.49011 14.12C10.0001 14.12 10.5001 13.93 10.8901 13.59C11.2001 13.32 11.6801 13.35 11.9501 13.66C12.2201 13.97 12.1901 14.45 11.8801 14.72C11.2101 15.3 10.3601 15.62 9.49011 15.62Z" fill="#171717"/>
<path d="M16.4901 15.62C14.4901 15.62 12.8701 14 12.8701 12C12.8701 10 14.4901 8.38 16.4901 8.38C17.3701 8.38 18.2101 8.70003 18.8801 9.28003C19.1901 9.55003 19.2201 10.03 18.9501 10.34C18.6801 10.65 18.2001 10.68 17.8901 10.41C17.5001 10.07 17.0101 9.88 16.4901 9.88C15.3201 9.88 14.3701 10.83 14.3701 12C14.3701 13.17 15.3201 14.12 16.4901 14.12C17.0001 14.12 17.5001 13.93 17.8901 13.59C18.2001 13.32 18.6801 13.35 18.9501 13.66C19.2201 13.97 19.1901 14.45 18.8801 14.72C18.2101 15.3 17.3601 15.62 16.4901 15.62Z" fill="#171717"/>
</svg>
