<svg width="25" height="24" viewBox="0 0 25 24" fill="none" xmlns="http://www.w3.org/2000/svg">
<path opacity="0.4" d="M21 10.19H18.11C15.74 10.19 13.81 8.26 13.81 5.89V3C13.81 2.45 13.36 2 12.81 2H8.57C5.49 2 3 4 3 7.57V16.43C3 20 5.49 22 8.57 22H16.43C19.51 22 22 20 22 16.43V11.19C22 10.64 21.55 10.19 21 10.19Z" fill="#171717"/>
<path d="M16.2999 2.20999C15.8899 1.79999 15.1799 2.07999 15.1799 2.64999V6.13999C15.1799 7.59999 16.4199 8.80999 17.9299 8.80999C18.8799 8.81999 20.1999 8.81999 21.3299 8.81999C21.8999 8.81999 22.1999 8.14999 21.7999 7.74999C20.3599 6.29999 17.7799 3.68999 16.2999 2.20999Z" fill="#171717"/>
<path d="M13.0501 14L12.2001 12.72C11.9901 12.39 11.5501 12.16 11.1601 12.16H9.14011C8.75011 12.16 8.32011 12.39 8.10011 12.72L7.25011 14C6.92011 14.48 6.99011 15.17 7.40011 15.58L9.26011 17.44C9.50011 17.67 9.82011 17.8 10.1501 17.8C10.4801 17.8 10.8001 17.67 11.0401 17.44L12.9001 15.58C13.3001 15.17 13.3601 14.48 13.0501 14Z" fill="#171717"/>
</svg>
