<svg width="25" height="24" viewBox="0 0 25 24" fill="none" xmlns="http://www.w3.org/2000/svg">
<path opacity="0.4" d="M21 10.19H18.11C15.74 10.19 13.81 8.26 13.81 5.89V3C13.81 2.45 13.36 2 12.81 2H8.57C5.49 2 3 4 3 7.57V16.43C3 20 5.49 22 8.57 22H16.43C19.51 22 22 20 22 16.43V11.19C22 10.64 21.55 10.19 21 10.19Z" fill="#171717"/>
<path d="M16.2999 2.20999C15.8899 1.79999 15.1799 2.07999 15.1799 2.64999V6.13999C15.1799 7.59999 16.4199 8.80999 17.9299 8.80999C18.8799 8.81999 20.1999 8.81999 21.3299 8.81999C21.8999 8.81999 22.1999 8.14999 21.7999 7.74999C20.3599 6.29999 17.7799 3.68999 16.2999 2.20999Z" fill="#171717"/>
<path d="M13.5 14.2499H9.30999L10.03 13.5299C10.32 13.2399 10.32 12.7599 10.03 12.4699C9.73999 12.1799 9.25999 12.1799 8.96999 12.4699L6.96999 14.4699C6.95999 14.4799 6.95999 14.4899 6.94999 14.4899C6.88999 14.5499 6.83999 14.6299 6.79999 14.7099C6.79999 14.7199 6.79999 14.7199 6.78999 14.7299C6.75999 14.8099 6.74999 14.8899 6.73999 14.9699C6.73999 14.9999 6.73999 15.0199 6.73999 15.0499C6.73999 15.1099 6.75999 15.1699 6.77999 15.2299C6.78999 15.2599 6.79999 15.2799 6.80999 15.2999C6.84999 15.3799 6.88999 15.4599 6.95999 15.5199L8.95999 17.5199C9.10999 17.6699 9.29999 17.7399 9.48999 17.7399C9.67999 17.7399 9.86999 17.6699 10.02 17.5199C10.31 17.2299 10.31 16.7499 10.02 16.4599L9.29999 15.7399H13.5C13.91 15.7399 14.25 15.3999 14.25 14.9899C14.25 14.5799 13.91 14.2499 13.5 14.2499Z" fill="#171717"/>
</svg>
