<svg width="25" height="24" viewBox="0 0 25 24" fill="none" xmlns="http://www.w3.org/2000/svg">
<path d="M9.5 22.75C4.07 22.75 1.75 20.43 1.75 15V9C1.75 3.57 4.07 1.25 9.5 1.25H14.5C14.91 1.25 15.25 1.59 15.25 2C15.25 2.41 14.91 2.75 14.5 2.75H9.5C4.89 2.75 3.25 4.39 3.25 9V15C3.25 19.61 4.89 21.25 9.5 21.25C9.91 21.25 10.25 21.59 10.25 22C10.25 22.41 9.91 22.75 9.5 22.75Z" fill="#171717"/>
<path d="M22.5 13.75C22.09 13.75 21.75 13.41 21.75 13V10C21.75 9.59 22.09 9.25 22.5 9.25C22.91 9.25 23.25 9.59 23.25 10V13C23.25 13.41 22.91 13.75 22.5 13.75Z" fill="#171717"/>
<path d="M22.5 10.75H18.5C15.08 10.75 13.75 9.41999 13.75 5.99999V1.99999C13.75 1.69999 13.93 1.41999 14.21 1.30999C14.49 1.18999 14.81 1.25999 15.03 1.46999L23.03 9.46999C23.24 9.67999 23.31 10.01 23.19 10.29C23.07 10.57 22.8 10.75 22.5 10.75ZM15.25 3.80999V5.99999C15.25 8.57999 15.92 9.24999 18.5 9.24999H20.69L15.25 3.80999Z" fill="#171717"/>
<path d="M19.84 22.75C19.83 22.75 19.82 22.75 19.82 22.75H14.26C12.59 22.63 11.75 21.35 11.75 20.13C11.75 19.15 12.3 18.12 13.36 17.7C13.14 16.45 13.46 15.29 14.29 14.42C15.31 13.35 16.95 12.92 18.37 13.36C19.61 13.74 20.5 14.72 20.87 16.08C21.92 16.4 22.75 17.23 23.09 18.36C23.49 19.67 23.12 21.01 22.13 21.87C21.52 22.43 20.7 22.75 19.84 22.75ZM14.29 19.01C13.53 19.08 13.25 19.65 13.25 20.13C13.25 20.61 13.53 21.19 14.31 21.25H19.82C20.33 21.22 20.78 21.07 21.14 20.75C21.79 20.18 21.84 19.37 21.66 18.79C21.48 18.21 20.99 17.56 20.15 17.45C19.82 17.41 19.56 17.16 19.5 16.83C19.28 15.48 18.52 14.98 17.93 14.8C17.06 14.53 16.01 14.8 15.38 15.47C14.95 15.92 14.53 16.73 15 18.02C15.14 18.41 14.94 18.84 14.55 18.98C14.46 19 14.37 19.01 14.29 19.01Z" fill="#171717"/>
</svg>
