<svg width="25" height="24" viewBox="0 0 25 24" fill="none" xmlns="http://www.w3.org/2000/svg">
<path opacity="0.4" d="M21 10.19H18.11C15.74 10.19 13.81 8.26 13.81 5.89V3C13.81 2.45 13.36 2 12.81 2H8.57C5.49 2 3 4 3 7.57V16.43C3 20 5.49 22 8.57 22H16.43C19.51 22 22 20 22 16.43V11.19C22 10.64 21.55 10.19 21 10.19Z" fill="#171717"/>
<path d="M16.2999 2.20999C15.8899 1.79999 15.1799 2.07999 15.1799 2.64999V6.13999C15.1799 7.59999 16.4199 8.80999 17.9299 8.80999C18.8799 8.81999 20.1999 8.81999 21.3299 8.81999C21.8999 8.81999 22.1999 8.14999 21.7999 7.74999C20.3599 6.29999 17.7799 3.68999 16.2999 2.20999Z" fill="#171717"/>
<path d="M12.0299 12.47L10.0299 10.47C10.0199 10.46 10.0099 10.46 10.0099 10.45C9.94994 10.39 9.86994 10.34 9.78994 10.3C9.77994 10.3 9.77994 10.3 9.76994 10.3C9.68994 10.27 9.60994 10.26 9.52994 10.25C9.49994 10.25 9.47994 10.25 9.44994 10.25C9.38994 10.25 9.31994 10.27 9.25994 10.29C9.22994 10.3 9.20994 10.31 9.18994 10.32C9.10994 10.36 9.02994 10.4 8.96994 10.47L6.96994 12.47C6.67994 12.76 6.67994 13.24 6.96994 13.53C7.25994 13.82 7.73994 13.82 8.02994 13.53L8.74994 12.81V17C8.74994 17.41 9.08994 17.75 9.49994 17.75C9.90994 17.75 10.2499 17.41 10.2499 17V12.81L10.9699 13.53C11.1199 13.68 11.3099 13.75 11.4999 13.75C11.6899 13.75 11.8799 13.68 12.0299 13.53C12.3199 13.24 12.3199 12.76 12.0299 12.47Z" fill="#171717"/>
</svg>
