<svg width="25" height="24" viewBox="0 0 25 24" fill="none" xmlns="http://www.w3.org/2000/svg">
<path d="M16.5 22.75H8.5C4.85 22.75 2.75 20.65 2.75 17V7C2.75 3.35 4.85 1.25 8.5 1.25H16.5C20.15 1.25 22.25 3.35 22.25 7V17C22.25 20.65 20.15 22.75 16.5 22.75ZM8.5 2.75C5.64 2.75 4.25 4.14 4.25 7V17C4.25 19.86 5.64 21.25 8.5 21.25H16.5C19.36 21.25 20.75 19.86 20.75 17V7C20.75 4.14 19.36 2.75 16.5 2.75H8.5Z" fill="#171717"/>
<path d="M19 9.25H17C15.48 9.25 14.25 8.02 14.25 6.5V4.5C14.25 4.09 14.59 3.75 15 3.75C15.41 3.75 15.75 4.09 15.75 4.5V6.5C15.75 7.19 16.31 7.75 17 7.75H19C19.41 7.75 19.75 8.09 19.75 8.5C19.75 8.91 19.41 9.25 19 9.25Z" fill="#171717"/>
<path d="M10.7698 18.72C9.88985 18.7 7.87985 17.63 7.26985 15.72C6.83985 14.39 7.33987 12.6301 8.87987 12.1301C9.53987 11.9201 10.2199 12.0101 10.7599 12.3501C11.2999 12.0101 11.9899 11.9201 12.6599 12.1301C14.1999 12.6301 14.6999 14.38 14.2899 15.72C13.6699 17.7 11.5398 18.72 10.7698 18.72ZM8.69987 15.2601C9.11987 16.5501 10.5499 17.19 10.8099 17.22C11.0799 17.19 12.4798 16.5001 12.8598 15.2601C13.0598 14.6001 12.8499 13.7601 12.1999 13.5501C11.9399 13.4701 11.5699 13.5101 11.3999 13.7701C11.2699 13.9801 11.0299 14.1101 10.7899 14.1101C10.4999 14.1101 10.3099 14.0001 10.1599 13.7901C9.95986 13.5101 9.59986 13.4701 9.33986 13.5501C8.69986 13.7601 8.48987 14.6101 8.69987 15.2601Z" fill="#171717"/>
</svg>
