<svg width="25" height="24" viewBox="0 0 25 24" fill="none" xmlns="http://www.w3.org/2000/svg">
<path d="M10.79 17.7C10.44 18.05 9.86001 18.05 9.51001 17.7L7.05001 15.24C6.76001 14.95 6.71001 14.44 6.94001 14.1L8.07001 12.4C8.22001 12.18 8.56001 12 8.82001 12H11.47C11.74 12 12.08 12.18 12.22 12.4L13.35 14.1C13.58 14.44 13.53 14.95 13.24 15.24" stroke="#171717" stroke-width="1.5" stroke-miterlimit="10" stroke-linecap="round" stroke-linejoin="round"/>
<path d="M2.5 9C2.5 4 4.5 2 9.5 2H14.5" stroke="#171717" stroke-width="1.5" stroke-linecap="round" stroke-linejoin="round"/>
<path d="M22.5 10V15C22.5 20 20.5 22 15.5 22H9.5C4.5 22 2.5 20 2.5 15V12.98" stroke="#171717" stroke-width="1.5" stroke-linecap="round" stroke-linejoin="round"/>
<path d="M18.5 10C15.5 10 14.5 9 14.5 6V2L22.5 10" stroke="#171717" stroke-width="1.5" stroke-linecap="round" stroke-linejoin="round"/>
</svg>
