<svg width="25" height="24" viewBox="0 0 25 24" fill="none" xmlns="http://www.w3.org/2000/svg">
<path d="M11.5 17.7499C11.31 17.7499 11.12 17.6799 10.97 17.5299C10.68 17.2399 10.68 16.7599 10.97 16.4699L11.69 15.7499H7.5C7.09 15.7499 6.75 15.4099 6.75 14.9999C6.75 14.5899 7.09 14.2499 7.5 14.2499H11.69L10.97 13.5299C10.82 13.3799 10.75 13.1899 10.75 12.9999C10.75 12.8099 10.82 12.6199 10.97 12.4699C11.26 12.1799 11.74 12.1799 12.03 12.4699L14.03 14.4699C14.16 14.5999 14.23 14.7699 14.24 14.9299C14.24 14.9799 14.24 15.0399 14.24 15.0899C14.22 15.2299 14.16 15.3599 14.06 15.4799C14.05 15.4899 14.03 15.5099 14.02 15.5199L12.02 17.5199C11.88 17.6799 11.69 17.7499 11.5 17.7499Z" fill="#171717"/>
<path d="M15.5 22.75H9.5C4.07 22.75 1.75 20.43 1.75 15V9C1.75 3.57 4.07 1.25 9.5 1.25H14.5C14.91 1.25 15.25 1.59 15.25 2C15.25 2.41 14.91 2.75 14.5 2.75H9.5C4.89 2.75 3.25 4.39 3.25 9V15C3.25 19.61 4.89 21.25 9.5 21.25H15.5C20.11 21.25 21.75 19.61 21.75 15V10C21.75 9.59 22.09 9.25 22.5 9.25C22.91 9.25 23.25 9.59 23.25 10V15C23.25 20.43 20.93 22.75 15.5 22.75Z" fill="#171717"/>
<path d="M22.5 10.75H18.5C15.08 10.75 13.75 9.41999 13.75 5.99999V1.99999C13.75 1.69999 13.93 1.41999 14.21 1.30999C14.49 1.18999 14.81 1.25999 15.03 1.46999L23.03 9.46999C23.24 9.67999 23.31 10.01 23.19 10.29C23.07 10.57 22.8 10.75 22.5 10.75ZM15.25 3.80999V5.99999C15.25 8.57999 15.92 9.24999 18.5 9.24999H20.69L15.25 3.80999Z" fill="#171717"/>
</svg>
