<svg width="25" height="24" viewBox="0 0 25 24" fill="none" xmlns="http://www.w3.org/2000/svg">
<path opacity="0.4" d="M21 10.19H18.11C15.74 10.19 13.81 8.26 13.81 5.89V3C13.81 2.45 13.36 2 12.81 2H8.57C5.49 2 3 4 3 7.57V16.43C3 20 5.49 22 8.57 22H16.43C19.51 22 22 20 22 16.43V11.19C22 10.64 21.55 10.19 21 10.19Z" fill="#171717"/>
<path d="M16.2999 2.20999C15.8899 1.79999 15.1799 2.07999 15.1799 2.64999V6.13999C15.1799 7.59999 16.4199 8.80999 17.9299 8.80999C18.8799 8.81999 20.1999 8.81999 21.3299 8.81999C21.8999 8.81999 22.1999 8.14999 21.7999 7.74999C20.3599 6.29999 17.7799 3.68999 16.2999 2.20999Z" fill="#171717"/>
<path d="M12.7799 14.72C12.4899 14.43 12.0099 14.43 11.7199 14.72L10.9999 15.44V11.25C10.9999 10.84 10.6599 10.5 10.2499 10.5C9.83994 10.5 9.49994 10.84 9.49994 11.25V15.44L8.77994 14.72C8.48994 14.43 8.00994 14.43 7.71994 14.72C7.42994 15.01 7.42994 15.49 7.71994 15.78L9.71994 17.78C9.72994 17.79 9.73994 17.79 9.73994 17.8C9.79994 17.86 9.87994 17.91 9.95994 17.95C10.0599 17.98 10.1499 18 10.2499 18C10.3499 18 10.4399 17.98 10.5299 17.94C10.6199 17.9 10.6999 17.85 10.7799 17.78L12.7799 15.78C13.0699 15.49 13.0699 15.01 12.7799 14.72Z" fill="#171717"/>
</svg>
