<svg width="25" height="24" viewBox="0 0 25 24" fill="none" xmlns="http://www.w3.org/2000/svg">
<path d="M7.58002 16.1C7.22002 16.1 6.86003 16.01 6.53003 15.82C5.86003 15.44 5.46002 14.76 5.46002 14V10.43C5.46002 10.17 5.29002 9.73001 5.08002 9.48001L2.56 6.82999C2.09 6.36999 1.75 5.56999 1.75 4.95999V3.41C1.75 2.2 2.66998 1.23999 3.84998 1.23999H12.75C13.91 1.23999 14.85 2.18 14.85 3.34V4.82001C14.85 5.60001 14.4 6.45999 13.96 6.89999L11.03 9.48999C10.8 9.67999 10.61 10.14 10.61 10.48V13.38C10.61 14.07 10.19 14.84 9.64001 15.17L8.71997 15.77C8.35997 15.99 7.97002 16.1 7.58002 16.1ZM3.84998 2.75C3.50998 2.75 3.25 3.04001 3.25 3.42001V4.97C3.25 5.14 3.42001 5.57001 3.64001 5.79001L6.21997 8.5C6.59997 8.97 6.96997 9.73999 6.96997 10.43V14C6.96997 14.3 7.16003 14.45 7.28003 14.51C7.44003 14.6 7.69998 14.65 7.91998 14.51L8.84998 13.91C8.96998 13.84 9.10999 13.56 9.10999 13.39V10.49C9.10999 9.69999 9.49999 8.82999 10.05 8.35999L12.93 5.81C13.11 5.63 13.35 5.14001 13.35 4.82001V3.34C13.35 3.01 13.08 2.73999 12.75 2.73999H3.84998V2.75Z" fill="#171717"/>
<path d="M15.5 22.75H9.5C4.07 22.75 1.75 20.43 1.75 15V12C1.75 11.59 2.09 11.25 2.5 11.25C2.91 11.25 3.25 11.59 3.25 12V15C3.25 19.61 4.89 21.25 9.5 21.25H15.5C20.11 21.25 21.75 19.61 21.75 15V8.99999C21.75 6.09999 21.07 4.41998 19.54 3.54998C19.38 3.45998 18.85 3.22 17.33 2.98C16.92 2.92 16.64 2.52998 16.71 2.11998C16.78 1.70998 17.17 1.42999 17.57 1.49999C18.88 1.70999 19.77 1.94998 20.28 2.23998C22.3 3.38998 23.25 5.53999 23.25 8.99999V15C23.25 20.43 20.93 22.75 15.5 22.75Z" fill="#171717"/>
<path d="M18.5 13.75H13.5C13.09 13.75 12.75 13.41 12.75 13C12.75 12.59 13.09 12.25 13.5 12.25H18.5C18.91 12.25 19.25 12.59 19.25 13C19.25 13.41 18.91 13.75 18.5 13.75Z" fill="#171717"/>
<path d="M18.5 17.75H11.5C11.09 17.75 10.75 17.41 10.75 17C10.75 16.59 11.09 16.25 11.5 16.25H18.5C18.91 16.25 19.25 16.59 19.25 17C19.25 17.41 18.91 17.75 18.5 17.75Z" fill="#171717"/>
</svg>
