<svg width="25" height="24" viewBox="0 0 25 24" fill="none" xmlns="http://www.w3.org/2000/svg">
<path d="M3.72998 1H11.86C12.54 1 13.09 1.56 13.09 2.25V3.62C13.09 4.12 12.78 4.73999 12.47 5.04999L9.82001 7.42001C9.45001 7.73001 9.20001 8.36001 9.20001 8.85001V11.53C9.20001 11.9 8.95002 12.4 8.65002 12.59L7.78998 13.15C6.98998 13.65 5.88 13.09 5.88 12.09V8.78C5.88 8.34 5.63001 7.78 5.39001 7.47L3.04999 4.97C2.73999 4.66 2.5 4.1 2.5 3.72V2.29001C2.5 1.56001 3.04998 1 3.72998 1Z" fill="#171717"/>
<path opacity="0.4" d="M17.5 2H15.1C14.82 2 14.6 2.22 14.6 2.5C14.6 2.98 14.6 3.62 14.6 3.62C14.6 4.61 14.07 5.57999 13.55 6.10999L10.83 8.54001C10.8 8.61001 10.75 8.71001 10.72 8.79001V11.54C10.72 12.45 10.18 13.44 9.44 13.89L8.62 14.42C8.16 14.71 7.65001 14.85 7.14001 14.85C6.68001 14.85 6.21999 14.73 5.79999 14.5C5.14999 14.14 4.7 13.55 4.5 12.87V10.21C4.5 10.08 4.44998 9.94999 4.34998 9.85999L3.34998 8.85999C3.02998 8.54999 2.5 8.76999 2.5 9.20999V17C2.5 19.76 4.74 22 7.5 22H17.5C20.26 22 22.5 19.76 22.5 17V7C22.5 4.24 20.26 2 17.5 2Z" fill="#171717"/>
<path d="M18.5 13.75H13.5C13.09 13.75 12.75 13.41 12.75 13C12.75 12.59 13.09 12.25 13.5 12.25H18.5C18.91 12.25 19.25 12.59 19.25 13C19.25 13.41 18.91 13.75 18.5 13.75Z" fill="#171717"/>
<path d="M18.5 17.75H11.5C11.09 17.75 10.75 17.41 10.75 17C10.75 16.59 11.09 16.25 11.5 16.25H18.5C18.91 16.25 19.25 16.59 19.25 17C19.25 17.41 18.91 17.75 18.5 17.75Z" fill="#171717"/>
</svg>
