<svg width="25" height="24" viewBox="0 0 25 24" fill="none" xmlns="http://www.w3.org/2000/svg">
<path opacity="0.4" d="M21 10.19H18.11C15.74 10.19 13.81 8.26 13.81 5.89V3C13.81 2.45 13.36 2 12.81 2H8.57C5.49 2 3 4.00001 3 7.57001V16.43C3 20 5.49 22 8.57 22H16.43C19.51 22 22 20 22 16.43V11.19C22 10.64 21.55 10.19 21 10.19Z" fill="#171717"/>
<path d="M16.2999 2.21C15.8899 1.8 15.1799 2.07998 15.1799 2.64998V6.13999C15.1799 7.59999 16.4199 8.80999 17.9299 8.80999C18.8799 8.81999 20.1999 8.82 21.3299 8.82C21.8999 8.82 22.1999 8.14999 21.7999 7.74999C20.3599 6.29999 17.7799 3.69 16.2999 2.21Z" fill="#171717"/>
<path d="M15.2601 19.2601C12.9101 19.4301 12.9101 22.8301 15.2601 23.0001H20.8201C21.4901 23.0001 22.1501 22.7501 22.6401 22.3001C24.2901 20.8601 23.4101 17.9801 21.2401 17.7101C20.4601 13.0201 13.6801 14.8001 15.2801 19.2701" fill="#171717"/>
</svg>
