<svg width="25" height="24" viewBox="0 0 25 24" fill="none" xmlns="http://www.w3.org/2000/svg">
<path opacity="0.4" d="M21 10.19H18.11C15.74 10.19 13.81 8.26 13.81 5.89V3C13.81 2.45 13.36 2 12.81 2H8.57C5.49 2 3 4 3 7.57V16.43C3 20 5.49 22 8.57 22H16.43C19.51 22 22 20 22 16.43V11.19C22 10.64 21.55 10.19 21 10.19Z" fill="#171717"/>
<path d="M16.2999 2.20999C15.8899 1.79999 15.1799 2.07999 15.1799 2.64999V6.13999C15.1799 7.59999 16.4199 8.80999 17.9299 8.80999C18.8799 8.81999 20.1999 8.81999 21.3299 8.81999C21.8999 8.81999 22.1999 8.14999 21.7999 7.74999C20.3599 6.29999 17.7799 3.68999 16.2999 2.20999Z" fill="#171717"/>
<path d="M11.5 17.7499C11.31 17.7499 11.12 17.6799 10.97 17.5299C10.68 17.2399 10.68 16.7599 10.97 16.4699L11.69 15.7499H7.5C7.09 15.7499 6.75 15.4099 6.75 14.9999C6.75 14.5899 7.09 14.2499 7.5 14.2499H11.69L10.97 13.5299C10.82 13.3799 10.75 13.1899 10.75 12.9999C10.75 12.8099 10.82 12.6199 10.97 12.4699C11.26 12.1799 11.74 12.1799 12.03 12.4699L14.03 14.4699C14.16 14.5999 14.23 14.7699 14.24 14.9299C14.24 14.9799 14.24 15.0399 14.24 15.0899C14.22 15.2299 14.16 15.3599 14.06 15.4799C14.05 15.4899 14.03 15.5099 14.02 15.5199L12.02 17.5199C11.88 17.6799 11.69 17.7499 11.5 17.7499Z" fill="#171717"/>
</svg>
