<svg width="25" height="24" viewBox="0 0 25 24" fill="none" xmlns="http://www.w3.org/2000/svg">
<path d="M9.92003 18.2C9.42003 18.2 7.65003 17.37 7.12003 15.72C6.79003 14.69 7.18003 13.42 8.25003 13.07C8.82003 12.89 9.52003 13.04 9.91003 13.59C10.28 13.02 11.01 12.89 11.57 13.07C12.65 13.42 13.03 14.69 12.71 15.72" stroke="#171717" stroke-width="1.5" stroke-linecap="round" stroke-linejoin="round"/>
<path d="M2.5 9C2.5 4 4.5 2 9.5 2H14.5" stroke="#171717" stroke-width="1.5" stroke-linecap="round" stroke-linejoin="round"/>
<path d="M22.5 10V15C22.5 20 20.5 22 15.5 22H9.5C4.5 22 2.5 20 2.5 15V12.98" stroke="#171717" stroke-width="1.5" stroke-linecap="round" stroke-linejoin="round"/>
<path d="M18.5 10C15.5 10 14.5 9 14.5 6V2L22.5 10" stroke="#171717" stroke-width="1.5" stroke-linecap="round" stroke-linejoin="round"/>
</svg>
