<svg width="25" height="24" viewBox="0 0 25 24" fill="none" xmlns="http://www.w3.org/2000/svg">
<path d="M9.49999 17.75C9.30999 17.75 9.11999 17.68 8.96999 17.53L6.96999 15.53C6.75999 15.32 6.68999 14.99 6.80999 14.71C6.92999 14.43 7.19999 14.25 7.49999 14.25H13.5C13.91 14.25 14.25 14.59 14.25 15C14.25 15.41 13.91 15.75 13.5 15.75H9.30999L10.03 16.47C10.32 16.76 10.32 17.24 10.03 17.53C9.87999 17.68 9.68999 17.75 9.49999 17.75Z" fill="#171717"/>
<path d="M7.49994 15.7499C7.30994 15.7499 7.11994 15.6799 6.96994 15.5299C6.67994 15.2399 6.67994 14.7599 6.96994 14.4699L8.96994 12.4699C9.25994 12.1799 9.73994 12.1799 10.0299 12.4699C10.3199 12.7599 10.3199 13.2399 10.0299 13.5299L8.02994 15.5299C7.87994 15.6799 7.68994 15.7499 7.49994 15.7499Z" fill="#171717"/>
<path d="M15.5 22.75H9.5C4.07 22.75 1.75 20.43 1.75 15V9C1.75 3.57 4.07 1.25 9.5 1.25H14.5C14.91 1.25 15.25 1.59 15.25 2C15.25 2.41 14.91 2.75 14.5 2.75H9.5C4.89 2.75 3.25 4.39 3.25 9V15C3.25 19.61 4.89 21.25 9.5 21.25H15.5C20.11 21.25 21.75 19.61 21.75 15V10C21.75 9.59 22.09 9.25 22.5 9.25C22.91 9.25 23.25 9.59 23.25 10V15C23.25 20.43 20.93 22.75 15.5 22.75Z" fill="#171717"/>
<path d="M22.5 10.75H18.5C15.08 10.75 13.75 9.41999 13.75 5.99999V1.99999C13.75 1.69999 13.93 1.41999 14.21 1.30999C14.49 1.18999 14.81 1.25999 15.03 1.46999L23.03 9.46999C23.24 9.67999 23.31 10.01 23.19 10.29C23.07 10.57 22.8 10.75 22.5 10.75ZM15.25 3.80999V5.99999C15.25 8.57999 15.92 9.24999 18.5 9.24999H20.69L15.25 3.80999Z" fill="#171717"/>
</svg>
