<svg width="25" height="24" viewBox="0 0 25 24" fill="none" xmlns="http://www.w3.org/2000/svg">
<path d="M15.5 22.75H9.5C4.07 22.75 1.75 20.43 1.75 15V9C1.75 3.57 4.07 1.25 9.5 1.25H14.5C14.91 1.25 15.25 1.59 15.25 2C15.25 2.41 14.91 2.75 14.5 2.75H9.5C4.89 2.75 3.25 4.39 3.25 9V15C3.25 19.61 4.89 21.25 9.5 21.25H15.5C20.11 21.25 21.75 19.61 21.75 15V10C21.75 9.59 22.09 9.25 22.5 9.25C22.91 9.25 23.25 9.59 23.25 10V15C23.25 20.43 20.93 22.75 15.5 22.75Z" fill="#171717"/>
<path d="M22.5 10.75H18.5C15.08 10.75 13.75 9.41999 13.75 5.99999V1.99999C13.75 1.69999 13.93 1.41999 14.21 1.30999C14.49 1.18999 14.81 1.25999 15.03 1.46999L23.03 9.46999C23.24 9.67999 23.31 10.01 23.19 10.29C23.08 10.57 22.8 10.75 22.5 10.75ZM15.25 3.80999V5.99999C15.25 8.57999 15.92 9.24999 18.5 9.24999H20.69L15.25 3.80999Z" fill="#171717"/>
<path d="M10.1499 18.71C9.7099 18.71 9.2899 18.54 8.9799 18.23L6.5199 15.77C5.9799 15.23 5.8899 14.32 6.3099 13.68L7.4399 11.98C7.7199 11.55 8.2999 11.24 8.8199 11.24H11.4699C11.9799 11.24 12.5599 11.55 12.8499 11.98L13.9799 13.67C14.3999 14.3 14.3099 15.22 13.7699 15.76L11.3099 18.22C11.0099 18.54 10.5899 18.71 10.1499 18.71ZM8.8299 12.75C8.7899 12.76 8.7099 12.8 8.6899 12.83L7.5699 14.52C7.5399 14.56 7.5499 14.68 7.5899 14.72L10.0499 17.18C10.0999 17.23 10.2199 17.23 10.2699 17.18L12.7299 14.72C12.7699 14.68 12.7799 14.57 12.7499 14.52L11.6199 12.83C11.5999 12.81 11.5199 12.77 11.4799 12.76L8.8299 12.75Z" fill="#171717"/>
</svg>
