<svg width="25" height="24" viewBox="0 0 25 24" fill="none" xmlns="http://www.w3.org/2000/svg">
<path opacity="0.4" d="M21 10.19H18.11C15.74 10.19 13.81 8.26 13.81 5.89V3C13.81 2.45 13.36 2 12.81 2H8.57C5.49 2 3 4 3 7.57V16.43C3 20 5.49 22 8.57 22H16.43C19.51 22 22 20 22 16.43V11.19C22 10.64 21.55 10.19 21 10.19Z" fill="#171717"/>
<path d="M16.2999 2.20999C15.8899 1.79999 15.1799 2.07999 15.1799 2.64999V6.13999C15.1799 7.59999 16.4199 8.80999 17.9299 8.80999C18.8799 8.81999 20.1999 8.81999 21.3299 8.81999C21.8999 8.81999 22.1999 8.14999 21.7999 7.74999C20.3599 6.29999 17.7799 3.68999 16.2999 2.20999Z" fill="#171717"/>
<path d="M11.66 12.7299C11.07 12.5399 10.44 12.6499 9.99995 12.9999C9.53995 12.6499 8.92995 12.5399 8.34995 12.7299C7.07995 13.1399 6.67995 14.5899 7.02995 15.6999C7.56995 17.3999 9.35995 18.2699 10.01 18.2699C10.64 18.2699 12.46 17.3699 12.99 15.6999C13.33 14.5899 12.93 13.1399 11.66 12.7299Z" fill="#171717"/>
</svg>
