<svg width="25" height="24" viewBox="0 0 25 24" fill="none" xmlns="http://www.w3.org/2000/svg">
<path d="M15.5 22.75H9.5C4.07 22.75 1.75 20.43 1.75 15V9C1.75 3.57 4.07 1.25 9.5 1.25H14.5C14.91 1.25 15.25 1.59 15.25 2C15.25 2.41 14.91 2.75 14.5 2.75H9.5C4.89 2.75 3.25 4.39 3.25 9V15C3.25 19.61 4.89 21.25 9.5 21.25H15.5C20.11 21.25 21.75 19.61 21.75 15V10C21.75 9.59 22.09 9.25 22.5 9.25C22.91 9.25 23.25 9.59 23.25 10V15C23.25 20.43 20.93 22.75 15.5 22.75Z" fill="#171717"/>
<path d="M22.5 10.75H18.5C15.08 10.75 13.75 9.41999 13.75 5.99999V1.99999C13.75 1.69999 13.93 1.41999 14.21 1.30999C14.49 1.18999 14.81 1.25999 15.03 1.46999L23.03 9.46999C23.24 9.67999 23.31 10.01 23.19 10.29C23.07 10.57 22.8 10.75 22.5 10.75ZM15.25 3.80999V5.99999C15.25 8.57999 15.92 9.24999 18.5 9.24999H20.69L15.25 3.80999Z" fill="#171717"/>
<path d="M9.92011 18.9501C9.05011 18.9501 7.03011 17.8901 6.41011 15.9501C5.98011 14.6101 6.48011 12.8601 8.03011 12.3601C8.68011 12.1501 9.37011 12.2401 9.92011 12.5801C10.4601 12.2401 11.1601 12.1501 11.8201 12.3601C13.3701 12.8601 13.8701 14.6101 13.4401 15.9501C12.8101 17.9301 10.6901 18.9501 9.92011 18.9501ZM7.83011 15.5001C8.25011 16.8101 9.67011 17.4301 9.93011 17.4501C10.2101 17.4201 11.6101 16.7301 12.0001 15.5001C12.2101 14.8401 12.0001 14.0001 11.3501 13.7901C11.0801 13.7001 10.7101 13.7501 10.5401 14.0101C10.4001 14.2201 10.1801 14.3401 9.93011 14.3501C9.66011 14.3501 9.45011 14.2401 9.31011 14.0401C9.10011 13.7501 8.74011 13.7101 8.48011 13.8001C7.84011 14.0001 7.62011 14.8401 7.83011 15.5001Z" fill="#171717"/>
</svg>
