<svg width="25" height="24" viewBox="0 0 25 24" fill="none" xmlns="http://www.w3.org/2000/svg">
<path d="M1.6 19.0699C1.16 20.5299 2.22998 22 3.73998 22H16.88C17.92 22 18.81 21.3 19.06 20.29L22.43 6.76001C22.55 6.26001 22.51 5.76997 22.32 5.33997C21.99 4.53997 21.2 3.95996 20.25 3.95996H7.95001C6.97001 3.95996 6.08999 4.60005 5.80999 5.55005L3.17999 14.01" stroke="#171717" stroke-width="1.5" stroke-miterlimit="10" stroke-linecap="round" stroke-linejoin="round"/>
<path d="M16.5 22H21.28C22.57 22 23.58 20.91 23.49 19.62L22.5 6" stroke="#171717" stroke-width="1.5" stroke-miterlimit="10" stroke-linecap="round" stroke-linejoin="round"/>
<path d="M10.1799 6.38L11.2199 2.06006" stroke="#171717" stroke-width="1.5" stroke-miterlimit="10" stroke-linecap="round" stroke-linejoin="round"/>
<path d="M16.8799 6.39001L17.8199 2.05005" stroke="#171717" stroke-width="1.5" stroke-miterlimit="10" stroke-linecap="round" stroke-linejoin="round"/>
<path d="M8.19995 12H16.2" stroke="#171717" stroke-width="1.5" stroke-miterlimit="10" stroke-linecap="round" stroke-linejoin="round"/>
<path d="M15.2 16H14.5" stroke="#171717" stroke-width="1.5" stroke-miterlimit="10" stroke-linecap="round" stroke-linejoin="round"/>
<path d="M7.19995 16H11.4999" stroke="#171717" stroke-width="1.5" stroke-miterlimit="10" stroke-linecap="round" stroke-linejoin="round"/>
</svg>
