<svg width="25" height="24" viewBox="0 0 25 24" fill="none" xmlns="http://www.w3.org/2000/svg">
<path opacity="0.4" d="M22.49 6.01996C22.51 6.25996 22.49 6.50995 22.43 6.75995L19.06 20.2899C18.82 21.2999 17.92 21.9999 16.88 21.9999H3.73998C2.22998 21.9999 1.16 20.5199 1.6 19.0699L5.80999 5.53992C6.09999 4.59992 6.97001 3.95996 7.95001 3.95996H20.25C21.21 3.95996 21.99 4.52996 22.32 5.32996C22.42 5.53996 22.47 5.77996 22.49 6.01996Z" fill="#171717"/>
<path d="M23.4899 19.62C23.5899 20.91 22.5699 22 21.2799 22H16.8799C17.9199 22 18.8199 21.3 19.0599 20.29L22.4299 6.76001C22.4899 6.51001 22.5099 6.26002 22.4899 6.02002L22.4999 6L23.4899 19.62Z" fill="#171717"/>
<path d="M10.18 7.13001C10.12 7.13001 10.06 7.11999 10 7.10999C9.60002 7.00999 9.35003 6.61002 9.45003 6.20002L10.49 1.88001C10.59 1.48001 10.99 1.24002 11.4 1.33002C11.8 1.43002 12.05 1.83 11.95 2.24L10.91 6.56C10.83 6.9 10.52 7.13001 10.18 7.13001Z" fill="#171717"/>
<path d="M16.8799 7.14005C16.8299 7.14005 16.7699 7.14003 16.7199 7.12003C16.3199 7.03003 16.06 6.63001 16.14 6.23001L17.0799 1.89005C17.1699 1.48005 17.5699 1.23003 17.9699 1.31003C18.3699 1.40003 18.6299 1.80004 18.5499 2.20004L17.6099 6.54001C17.5399 6.90001 17.2299 7.14005 16.8799 7.14005Z" fill="#171717"/>
<path d="M16.2 12.75H8.19995C7.78995 12.75 7.44995 12.41 7.44995 12C7.44995 11.59 7.78995 11.25 8.19995 11.25H16.2C16.61 11.25 16.95 11.59 16.95 12C16.95 12.41 16.61 12.75 16.2 12.75Z" fill="#171717"/>
<path d="M15.2 16.75H7.19995C6.78995 16.75 6.44995 16.41 6.44995 16C6.44995 15.59 6.78995 15.25 7.19995 15.25H15.2C15.61 15.25 15.95 15.59 15.95 16C15.95 16.41 15.61 16.75 15.2 16.75Z" fill="#171717"/>
</svg>
