<svg width="25" height="24" viewBox="0 0 25 24" fill="none" xmlns="http://www.w3.org/2000/svg">
<path d="M8.5 5.75C8.09 5.75 7.75 5.41 7.75 5V2C7.75 1.59 8.09 1.25 8.5 1.25C8.91 1.25 9.25 1.59 9.25 2V5C9.25 5.41 8.91 5.75 8.5 5.75Z" fill="#171717"/>
<path d="M16.5 5.75C16.09 5.75 15.75 5.41 15.75 5V2C15.75 1.59 16.09 1.25 16.5 1.25C16.91 1.25 17.25 1.59 17.25 2V5C17.25 5.41 16.91 5.75 16.5 5.75Z" fill="#171717"/>
<path d="M15.18 22.75H8.5C4.85 22.75 2.75 20.65 2.75 17V8.5C2.75 4.85 4.85 2.75 8.5 2.75H16.5C20.15 2.75 22.25 4.85 22.25 8.5V13.63C22.25 13.92 22.08 14.18 21.83 14.31C21.57 14.43 21.26 14.4 21.04 14.22C19.46 12.96 17.03 12.96 15.45 14.25C14.37 15.1 13.76 16.37 13.76 17.76C13.76 18.58 13.98 19.38 14.41 20.07C14.74 20.61 15.15 21.06 15.63 21.4C15.89 21.59 16.01 21.93 15.91 22.24C15.79 22.54 15.51 22.75 15.18 22.75ZM8.5 4.25C5.64 4.25 4.25 5.64 4.25 8.5V17C4.25 19.86 5.64 21.25 8.5 21.25H13.39C13.29 21.12 13.2 20.98 13.12 20.84C12.55 19.92 12.25 18.85 12.25 17.75C12.25 15.9 13.07 14.2 14.51 13.07C16.22 11.68 18.75 11.38 20.75 12.3V8.5C20.75 5.64 19.36 4.25 16.5 4.25H8.5Z" fill="#171717"/>
<path d="M13.5 11.75H7.5C7.09 11.75 6.75 11.41 6.75 11C6.75 10.59 7.09 10.25 7.5 10.25H13.5C13.91 10.25 14.25 10.59 14.25 11C14.25 11.41 13.91 11.75 13.5 11.75Z" fill="#171717"/>
<path d="M10.12 16.75H7.5C7.09 16.75 6.75 16.41 6.75 16C6.75 15.59 7.09 15.25 7.5 15.25H10.12C10.53 15.25 10.87 15.59 10.87 16C10.87 16.41 10.54 16.75 10.12 16.75Z" fill="#171717"/>
<path d="M18.25 23.75C16.97 23.75 15.76 23.35 14.74 22.61C14.1 22.15 13.55 21.55 13.12 20.84C12.55 19.92 12.25 18.85 12.25 17.75C12.25 15.9 13.07 14.2 14.51 13.07C16.59 11.38 19.87 11.37 21.97 13.04C23.42 14.18 24.25 15.9 24.25 17.75C24.25 18.85 23.95 19.92 23.38 20.84C23.06 21.39 22.65 21.87 22.18 22.26C21.11 23.22 19.71 23.75 18.25 23.75ZM18.25 13.25C17.23 13.25 16.23 13.6 15.44 14.24C14.36 15.09 13.75 16.36 13.75 17.75C13.75 18.57 13.97 19.37 14.4 20.06C14.73 20.6 15.14 21.05 15.62 21.39C16.39 21.95 17.3 22.25 18.25 22.25C19.36 22.25 20.38 21.86 21.2 21.13C21.56 20.83 21.85 20.48 22.09 20.07C22.52 19.37 22.75 18.57 22.75 17.75C22.75 16.36 22.13 15.0799 21.04 14.2199C20.24 13.5799 19.28 13.25 18.25 13.25Z" fill="#171717"/>
<path d="M18.25 21C17.84 21 17.5 20.66 17.5 20.25C17.5 19.29 16.71 18.5 15.75 18.5C15.34 18.5 15 18.16 15 17.75C15 17.34 15.34 17 15.75 17C16.71 17 17.5 16.21 17.5 15.25C17.5 14.84 17.84 14.5 18.25 14.5C18.66 14.5 19 14.84 19 15.25C19 16.21 19.79 17 20.75 17C21.16 17 21.5 17.34 21.5 17.75C21.5 18.16 21.16 18.5 20.75 18.5C19.79 18.5 19 19.29 19 20.25C19 20.66 18.66 21 18.25 21ZM17.82 17.75C17.97 17.88 18.12 18.02 18.25 18.18C18.38 18.03 18.52 17.88 18.68 17.75C18.53 17.62 18.38 17.48 18.25 17.32C18.12 17.48 17.98 17.62 17.82 17.75Z" fill="#171717"/>
</svg>
