<svg width="25" height="24" viewBox="0 0 25 24" fill="none" xmlns="http://www.w3.org/2000/svg">
<path d="M8.5 5.75C8.09 5.75 7.75 5.41 7.75 5V2C7.75 1.59 8.09 1.25 8.5 1.25C8.91 1.25 9.25 1.59 9.25 2V5C9.25 5.41 8.91 5.75 8.5 5.75Z" fill="#171717"/>
<path d="M16.5 5.75C16.09 5.75 15.75 5.41 15.75 5V2C15.75 1.59 16.09 1.25 16.5 1.25C16.91 1.25 17.25 1.59 17.25 2V5C17.25 5.41 16.91 5.75 16.5 5.75Z" fill="#171717"/>
<path opacity="0.4" d="M21.5 8.5V17C21.5 20 20 22 16.5 22H8.5C5 22 3.5 20 3.5 17V8.5C3.5 5.5 5 3.5 8.5 3.5H16.5C20 3.5 21.5 5.5 21.5 8.5Z" fill="#171717"/>
<path d="M16.5 11.75H8.5C8.09 11.75 7.75 11.41 7.75 11C7.75 10.59 8.09 10.25 8.5 10.25H16.5C16.91 10.25 17.25 10.59 17.25 11C17.25 11.41 16.91 11.75 16.5 11.75Z" fill="#171717"/>
<path d="M12.5 16.75H8.5C8.09 16.75 7.75 16.41 7.75 16C7.75 15.59 8.09 15.25 8.5 15.25H12.5C12.91 15.25 13.25 15.59 13.25 16C13.25 16.41 12.91 16.75 12.5 16.75Z" fill="#171717"/>
</svg>
