<svg width="25" height="24" viewBox="0 0 25 24" fill="none" xmlns="http://www.w3.org/2000/svg">
<path d="M10.0601 18.75C9.65006 18.75 9.31006 18.41 9.31006 18V13C9.31006 12.59 9.65006 12.25 10.0601 12.25C10.4701 12.25 10.8101 12.59 10.8101 13V18C10.8101 18.41 10.4701 18.75 10.0601 18.75Z" fill="#171717"/>
<path d="M12.5 16.25H7.5C7.09 16.25 6.75 15.91 6.75 15.5C6.75 15.09 7.09 14.75 7.5 14.75H12.5C12.91 14.75 13.25 15.09 13.25 15.5C13.25 15.91 12.91 16.25 12.5 16.25Z" fill="#171717"/>
<path d="M8.5 5.75C8.09 5.75 7.75 5.41 7.75 5V2C7.75 1.59 8.09 1.25 8.5 1.25C8.91 1.25 9.25 1.59 9.25 2V5C9.25 5.41 8.91 5.75 8.5 5.75Z" fill="#171717"/>
<path d="M16.5 5.75C16.09 5.75 15.75 5.41 15.75 5V2C15.75 1.59 16.09 1.25 16.5 1.25C16.91 1.25 17.25 1.59 17.25 2V5C17.25 5.41 16.91 5.75 16.5 5.75Z" fill="#171717"/>
<path d="M9.35002 22.8101C6.88002 22.8101 5.25002 22.2701 4.23002 21.1101C3.05002 19.7801 2.86001 17.7901 2.82001 16.0201L2.69002 9.85005C2.59002 5.12005 4.16002 3.15005 8.26002 2.84005L16.3 2.68005C16.32 2.68005 16.33 2.68005 16.34 2.68005C20.45 2.82005 22.09 4.72005 22.19 9.46005L22.31 15.6301C22.35 17.4001 22.23 19.4001 21.11 20.7701C20.09 22.0201 18.37 22.6301 15.7 22.6901L9.70001 22.8101C9.58001 22.8101 9.46002 22.8101 9.35002 22.8101ZM16.3 4.17005L8.33001 4.33005C5.53001 4.55005 4.10002 5.45005 4.19002 9.82005L4.32001 15.9901C4.36001 18.1101 4.67001 19.3501 5.35001 20.1201C6.11001 20.9801 7.48001 21.3601 9.68002 21.3101L15.68 21.1901C17.87 21.1501 19.23 20.7101 19.96 19.8201C20.61 19.0301 20.87 17.7801 20.82 15.6601L20.7 9.49005C20.6 5.13005 19.14 4.27005 16.3 4.17005Z" fill="#171717"/>
</svg>
