<svg width="25" height="24" viewBox="0 0 25 24" fill="none" xmlns="http://www.w3.org/2000/svg">
<path d="M12.5 14.75H7.5C7.09 14.75 6.75 14.41 6.75 14C6.75 13.59 7.09 13.25 7.5 13.25H12.5C12.91 13.25 13.25 13.59 13.25 14C13.25 14.41 12.91 14.75 12.5 14.75Z" fill="#171717"/>
<path d="M7.49994 6.71002C7.30994 6.71002 7.11994 6.64002 6.96994 6.49002L3.21994 2.74002C2.92994 2.45002 2.92994 1.97002 3.21994 1.68002C3.50994 1.39002 3.98994 1.39002 4.27994 1.68002L8.02994 5.43002C8.31994 5.72002 8.31994 6.20002 8.02994 6.49002C7.87994 6.63002 7.68994 6.71002 7.49994 6.71002Z" fill="#171717"/>
<path d="M3.7099 6.74994C3.5199 6.74994 3.3299 6.67994 3.1799 6.52994C2.8899 6.23994 2.8899 5.75994 3.1799 5.46994L6.9299 1.71994C7.2199 1.42994 7.6999 1.42994 7.9899 1.71994C8.2799 2.00994 8.2799 2.48994 7.9899 2.77994L4.2399 6.52994C4.0999 6.67994 3.8999 6.74994 3.7099 6.74994Z" fill="#171717"/>
<path d="M15.5 10.75H7.5C7.09 10.75 6.75 10.41 6.75 10C6.75 9.59 7.09 9.25 7.5 9.25H15.5C15.91 9.25 16.25 9.59 16.25 10C16.25 10.41 15.91 10.75 15.5 10.75Z" fill="#171717"/>
<path d="M21.5 16.75C21.09 16.75 20.75 16.41 20.75 16V7.99C20.75 3.76 19.31 2.9 16.46 2.75H10.5C10.09 2.75 9.75 2.41 9.75 2C9.75 1.59 10.09 1.25 10.5 1.25H16.5C20.6 1.47 22.25 3.42 22.25 7.99V16C22.25 16.41 21.91 16.75 21.5 16.75Z" fill="#171717"/>
<path d="M15.5 22.75H9.5C3.88 22.75 2.75 20.16 2.75 15.98V9.01001C2.75 8.60001 3.09 8.26001 3.5 8.26001C3.91 8.26001 4.25 8.60001 4.25 9.01001V15.98C4.25 19.7 4.98 21.25 9.5 21.25H15.5C15.91 21.25 16.25 21.59 16.25 22C16.25 22.41 15.91 22.75 15.5 22.75Z" fill="#171717"/>
<path d="M15.5 22.75C15.4 22.75 15.31 22.73 15.21 22.69C14.93 22.57 14.75 22.3 14.75 22V19C14.75 16.58 16.08 15.25 18.5 15.25H21.5C21.8 15.25 22.08 15.43 22.19 15.71C22.3 15.99 22.24 16.31 22.03 16.53L16.03 22.53C15.89 22.67 15.69 22.75 15.5 22.75ZM18.5 16.75C16.92 16.75 16.25 17.42 16.25 19V20.19L19.69 16.75H18.5Z" fill="#171717"/>
</svg>
