<svg width="25" height="24" viewBox="0 0 25 24" fill="none" xmlns="http://www.w3.org/2000/svg">
<path opacity="0.4" d="M7.87 22H17.12C19.81 22 21.99 19.82 21.99 17.13V8.37C21.99 5.68 19.81 3.5 17.12 3.5H7.87C5.18 3.5 3 5.68 3 8.37V17.12C3 19.82 5.18 22 7.87 22Z" fill="#171717"/>
<path d="M8.79004 6.29C8.37004 6.29 8.04004 5.95 8.04004 5.54V2.75C8.04004 2.34 8.37004 2 8.79004 2C9.21004 2 9.54004 2.34 9.54004 2.75V5.53C9.54004 5.95 9.21004 6.29 8.79004 6.29Z" fill="#171717"/>
<path d="M16.21 6.29C15.79 6.29 15.46 5.95 15.46 5.54V2.75C15.46 2.33 15.8 2 16.21 2C16.63 2 16.96 2.34 16.96 2.75V5.53C16.96 5.95 16.63 6.29 16.21 6.29Z" fill="#171717"/>
<path d="M12.5 14.75H10.81V13C10.81 12.59 10.47 12.25 10.06 12.25C9.65 12.25 9.31 12.59 9.31 13V14.75H7.5C7.09 14.75 6.75 15.09 6.75 15.5C6.75 15.91 7.09 16.25 7.5 16.25H9.31V18C9.31 18.41 9.65 18.75 10.06 18.75C10.47 18.75 10.81 18.41 10.81 18V16.25H12.5C12.91 16.25 13.25 15.91 13.25 15.5C13.25 15.09 12.91 14.75 12.5 14.75Z" fill="#171717"/>
</svg>
