<svg width="25" height="24" viewBox="0 0 25 24" fill="none" xmlns="http://www.w3.org/2000/svg">
<path opacity="0.4" d="M7.87 22H17.12C19.81 22 21.99 19.82 21.99 17.13V8.37C21.99 5.68 19.81 3.5 17.12 3.5H7.87C5.18 3.5 3 5.68 3 8.37V17.12C3 19.82 5.18 22 7.87 22Z" fill="#171717"/>
<path d="M8.79004 6.29C8.37004 6.29 8.04004 5.95 8.04004 5.54V2.75C8.04004 2.34 8.37004 2 8.79004 2C9.21004 2 9.54004 2.34 9.54004 2.75V5.53C9.54004 5.95 9.21004 6.29 8.79004 6.29Z" fill="#171717"/>
<path d="M16.21 6.29C15.79 6.29 15.46 5.95 15.46 5.54V2.75C15.46 2.33 15.8 2 16.21 2C16.63 2 16.96 2.34 16.96 2.75V5.53C16.96 5.95 16.63 6.29 16.21 6.29Z" fill="#171717"/>
<path d="M15.2801 13.71H7.86011C7.44011 13.71 7.11011 13.37 7.11011 12.96C7.11011 12.55 7.45011 12.21 7.86011 12.21H15.2801C15.7001 12.21 16.0301 12.55 16.0301 12.96C16.0301 13.37 15.7001 13.71 15.2801 13.71Z" fill="#171717"/>
<path d="M12.5001 17.42H7.86011C7.44011 17.42 7.11011 17.08 7.11011 16.67C7.11011 16.25 7.45011 15.92 7.86011 15.92H12.5001C12.9201 15.92 13.2501 16.26 13.2501 16.67C13.2501 17.08 12.9201 17.42 12.5001 17.42Z" fill="#171717"/>
</svg>
