<svg width="25" height="24" viewBox="0 0 25 24" fill="none" xmlns="http://www.w3.org/2000/svg">
<path d="M8.5 5.75C8.09 5.75 7.75 5.41 7.75 5V2C7.75 1.59 8.09 1.25 8.5 1.25C8.91 1.25 9.25 1.59 9.25 2V5C9.25 5.41 8.91 5.75 8.5 5.75Z" fill="#171717"/>
<path d="M16.5 5.75C16.09 5.75 15.75 5.41 15.75 5V2C15.75 1.59 16.09 1.25 16.5 1.25C16.91 1.25 17.25 1.59 17.25 2V5C17.25 5.41 16.91 5.75 16.5 5.75Z" fill="#171717"/>
<path d="M15.5 11.75H7.5C7.09 11.75 6.75 11.41 6.75 11C6.75 10.59 7.09 10.25 7.5 10.25H15.5C15.91 10.25 16.25 10.59 16.25 11C16.25 11.41 15.91 11.75 15.5 11.75Z" fill="#171717"/>
<path d="M12.5 15.75H7.5C7.09 15.75 6.75 15.41 6.75 15C6.75 14.59 7.09 14.25 7.5 14.25H12.5C12.91 14.25 13.25 14.59 13.25 15C13.25 15.41 12.91 15.75 12.5 15.75Z" fill="#171717"/>
<path d="M15.5 22.75H9.5C3.88 22.75 2.75 20.1 2.75 15.82V9.65C2.75 4.91 4.35 2.98 8.46 2.75H16.5C20.65 2.98 22.25 4.91 22.25 9.65V16C22.25 16.41 21.91 16.75 21.5 16.75C21.09 16.75 20.75 16.41 20.75 16V9.65C20.75 5.29 19.3 4.41 16.46 4.25H8.5C5.7 4.41 4.25 5.29 4.25 9.65V15.82C4.25 19.65 4.98 21.25 9.5 21.25H15.5C15.91 21.25 16.25 21.59 16.25 22C16.25 22.41 15.91 22.75 15.5 22.75Z" fill="#171717"/>
<path d="M15.5 22.75C15.4 22.75 15.31 22.73 15.21 22.69C14.93 22.57 14.75 22.3 14.75 22V19C14.75 16.58 16.08 15.25 18.5 15.25H21.5C21.8 15.25 22.08 15.43 22.19 15.71C22.31 15.99 22.24 16.31 22.03 16.53L16.03 22.53C15.89 22.67 15.7 22.75 15.5 22.75ZM18.5 16.75C16.92 16.75 16.25 17.42 16.25 19V20.19L19.69 16.75H18.5Z" fill="#171717"/>
</svg>
