<svg width="25" height="24" viewBox="0 0 25 24" fill="none" xmlns="http://www.w3.org/2000/svg">
<path opacity="0.4" d="M22 8.37V15.82C22 15.97 21.95 16.12 21.82 16.25C20.37 17.71 17.79 20.31 16.31 21.8C16.18 21.94 16.01 22 15.84 22H7.87C5.18 22 3 19.82 3 17.13V8.37C3 5.68 5.18 3.5 7.87 3.5H17.13C19.82 3.5 22 5.68 22 8.37Z" fill="#171717"/>
<path d="M8.79004 6.29C8.37004 6.29 8.04004 5.95 8.04004 5.54V2.75C8.04004 2.34 8.37004 2 8.79004 2C9.21004 2 9.54004 2.34 9.54004 2.75V5.53C9.54004 5.95 9.21004 6.29 8.79004 6.29Z" fill="#171717"/>
<path d="M16.21 6.29C15.79 6.29 15.46 5.95 15.46 5.54V2.75C15.46 2.33 15.8 2 16.21 2C16.63 2 16.96 2.34 16.96 2.75V5.53C16.96 5.95 16.63 6.29 16.21 6.29Z" fill="#171717"/>
<path d="M15.2801 12.71H7.86011C7.44011 12.71 7.11011 12.37 7.11011 11.96C7.11011 11.55 7.45011 11.21 7.86011 11.21H15.2801C15.7001 11.21 16.0301 11.55 16.0301 11.96C16.0301 12.37 15.7001 12.71 15.2801 12.71Z" fill="#171717"/>
<path d="M12.5001 16.42H7.86011C7.44011 16.42 7.11011 16.08 7.11011 15.67C7.11011 15.25 7.45011 14.92 7.86011 14.92H12.5001C12.9201 14.92 13.2501 15.26 13.2501 15.67C13.2501 16.08 12.9201 16.42 12.5001 16.42Z" fill="#171717"/>
<path d="M21.9999 15.82C21.9999 15.97 21.9499 16.12 21.8199 16.25C20.3699 17.71 17.7899 20.31 16.3099 21.8C16.1799 21.94 16.0099 22 15.8399 22C15.5099 22 15.1899 21.74 15.1899 21.36V17.86C15.1899 16.4 16.4299 15.19 17.9499 15.19C18.8999 15.18 20.2199 15.18 21.3499 15.18C21.7399 15.18 21.9999 15.49 21.9999 15.82Z" fill="#171717"/>
</svg>
