<svg width="25" height="24" viewBox="0 0 25 24" fill="none" xmlns="http://www.w3.org/2000/svg">
<path d="M18.1201 9.62H12.8701C12.4601 9.62 12.1201 9.28 12.1201 8.87C12.1201 8.46 12.4601 8.12 12.8701 8.12H18.1201C18.5301 8.12 18.8701 8.46 18.8701 8.87C18.8701 9.28 18.5401 9.62 18.1201 9.62Z" fill="#171717"/>
<path d="M7.62006 10.3799C7.43006 10.3799 7.24006 10.3099 7.09006 10.1599L6.34006 9.40995C6.05006 9.11995 6.05006 8.63995 6.34006 8.34995C6.63006 8.05995 7.11006 8.05995 7.40006 8.34995L7.62006 8.56995L9.34006 6.84995C9.63006 6.55995 10.1101 6.55995 10.4001 6.84995C10.6901 7.13995 10.6901 7.61995 10.4001 7.90995L8.15006 10.1599C8.01006 10.2999 7.82006 10.3799 7.62006 10.3799Z" fill="#171717"/>
<path d="M18.1201 16.62H12.8701C12.4601 16.62 12.1201 16.28 12.1201 15.87C12.1201 15.46 12.4601 15.12 12.8701 15.12H18.1201C18.5301 15.12 18.8701 15.46 18.8701 15.87C18.8701 16.28 18.5401 16.62 18.1201 16.62Z" fill="#171717"/>
<path d="M7.62006 17.3799C7.43006 17.3799 7.24006 17.3099 7.09006 17.1599L6.34006 16.4099C6.05006 16.1199 6.05006 15.6399 6.34006 15.3499C6.63006 15.0599 7.11006 15.0599 7.40006 15.3499L7.62006 15.5699L9.34006 13.8499C9.63006 13.5599 10.1101 13.5599 10.4001 13.8499C10.6901 14.1399 10.6901 14.6199 10.4001 14.9099L8.15006 17.1599C8.01006 17.2999 7.82006 17.3799 7.62006 17.3799Z" fill="#171717"/>
<path d="M15.5 22.75H9.5C4.07 22.75 1.75 20.43 1.75 15V9C1.75 3.57 4.07 1.25 9.5 1.25H15.5C20.93 1.25 23.25 3.57 23.25 9V15C23.25 20.43 20.93 22.75 15.5 22.75ZM9.5 2.75C4.89 2.75 3.25 4.39 3.25 9V15C3.25 19.61 4.89 21.25 9.5 21.25H15.5C20.11 21.25 21.75 19.61 21.75 15V9C21.75 4.39 20.11 2.75 15.5 2.75H9.5Z" fill="#171717"/>
</svg>
