<svg width="25" height="24" viewBox="0 0 25 24" fill="none" xmlns="http://www.w3.org/2000/svg">
<path opacity="0.4" d="M16.69 2H8.31C4.67 2 2.5 4.17 2.5 7.81V16.19C2.5 19.83 4.67 22 8.31 22H16.69C20.33 22 22.5 19.83 22.5 16.19V7.81C22.5 4.17 20.33 2 16.69 2Z" fill="#171717"/>
<path d="M18.8101 8.87C18.8101 9.28 18.4801 9.62 18.0601 9.62H12.8101C12.4001 9.62 12.0601 9.28 12.0601 8.87C12.0601 8.46 12.4001 8.12 12.8101 8.12H18.0601C18.4801 8.12 18.8101 8.46 18.8101 8.87Z" fill="#171717"/>
<path d="M10.4701 7.90006L8.22006 10.1501C8.07006 10.3001 7.88006 10.3701 7.69006 10.3701C7.50006 10.3701 7.30006 10.3001 7.16006 10.1501L6.41006 9.40006C6.11006 9.11006 6.11006 8.63006 6.41006 8.34006C6.70006 8.05006 7.17006 8.05006 7.47006 8.34006L7.69006 8.56006L9.41006 6.84006C9.70006 6.55006 10.1701 6.55006 10.4701 6.84006C10.7601 7.13006 10.7601 7.61006 10.4701 7.90006Z" fill="#171717"/>
<path d="M18.8101 15.87C18.8101 16.28 18.4801 16.62 18.0601 16.62H12.8101C12.4001 16.62 12.0601 16.28 12.0601 15.87C12.0601 15.46 12.4001 15.12 12.8101 15.12H18.0601C18.4801 15.12 18.8101 15.46 18.8101 15.87Z" fill="#171717"/>
<path d="M10.4701 14.9L8.22006 17.15C8.07006 17.3 7.88006 17.37 7.69006 17.37C7.50006 17.37 7.30006 17.3 7.16006 17.15L6.41006 16.4C6.11006 16.11 6.11006 15.63 6.41006 15.34C6.70006 15.05 7.17006 15.05 7.47006 15.34L7.69006 15.56L9.41006 13.84C9.70006 13.55 10.1701 13.55 10.4701 13.84C10.7601 14.13 10.7601 14.61 10.4701 14.9Z" fill="#171717"/>
</svg>
