<svg width="25" height="24" viewBox="0 0 25 24" fill="none" xmlns="http://www.w3.org/2000/svg">
<path d="M21.5 20.25H11.5C11.09 20.25 10.75 19.91 10.75 19.5C10.75 19.09 11.09 18.75 11.5 18.75H21.5C21.91 18.75 22.25 19.09 22.25 19.5C22.25 19.91 21.91 20.25 21.5 20.25Z" fill="#171717"/>
<path d="M21.5 13.25H11.5C11.09 13.25 10.75 12.91 10.75 12.5C10.75 12.09 11.09 11.75 11.5 11.75H21.5C21.91 11.75 22.25 12.09 22.25 12.5C22.25 12.91 21.91 13.25 21.5 13.25Z" fill="#171717"/>
<path d="M21.5 6.25H11.5C11.09 6.25 10.75 5.91 10.75 5.5C10.75 5.09 11.09 4.75 11.5 4.75H21.5C21.91 4.75 22.25 5.09 22.25 5.5C22.25 5.91 21.91 6.25 21.5 6.25Z" fill="#171717"/>
<path d="M4.49994 7.24994C4.30994 7.24994 4.11994 7.17994 3.96994 7.02994L2.96994 6.02994C2.67994 5.73994 2.67994 5.25994 2.96994 4.96994C3.25994 4.67994 3.73994 4.67994 4.02994 4.96994L4.49994 5.43994L6.96994 2.96994C7.25994 2.67994 7.73994 2.67994 8.02994 2.96994C8.31994 3.25994 8.31994 3.73994 8.02994 4.02994L5.02994 7.02994C4.87994 7.17994 4.68994 7.24994 4.49994 7.24994Z" fill="#171717"/>
<path d="M4.49994 14.2499C4.30994 14.2499 4.11994 14.1799 3.96994 14.0299L2.96994 13.0299C2.67994 12.7399 2.67994 12.2599 2.96994 11.9699C3.25994 11.6799 3.73994 11.6799 4.02994 11.9699L4.49994 12.4399L6.96994 9.96994C7.25994 9.67994 7.73994 9.67994 8.02994 9.96994C8.31994 10.2599 8.31994 10.7399 8.02994 11.0299L5.02994 14.0299C4.87994 14.1799 4.68994 14.2499 4.49994 14.2499Z" fill="#171717"/>
<path d="M4.49994 21.2499C4.30994 21.2499 4.11994 21.1799 3.96994 21.0299L2.96994 20.0299C2.67994 19.7399 2.67994 19.2599 2.96994 18.9699C3.25994 18.6799 3.73994 18.6799 4.02994 18.9699L4.49994 19.4399L6.96994 16.9699C7.25994 16.6799 7.73994 16.6799 8.02994 16.9699C8.31994 17.2599 8.31994 17.7399 8.02994 18.0299L5.02994 21.0299C4.87994 21.1799 4.68994 21.2499 4.49994 21.2499Z" fill="#171717"/>
</svg>
