<svg width="24" height="24" viewBox="0 0 24 24" fill="none" xmlns="http://www.w3.org/2000/svg">
<path d="M9.96104 14.04V12.93C9.96104 12.5 9.64104 12.29 9.25104 12.46L4.24103 14.62C3.45103 14.96 2.81104 14.54 2.81104 13.69V12.37C2.81104 11.69 3.32104 10.9 3.95104 10.64L9.65103 8.19C9.81103 8.11 9.95104 7.9 9.95104 7.72V4.66C9.95104 3.7 10.661 2.55 11.511 2.11C11.811 1.96 12.171 1.96 12.471 2.11C13.331 2.55 14.041 3.69 14.041 4.65V7.71C14.041 7.89 14.181 8.1 14.341 8.18L15.381 8.62L9.96104 14.04Z" fill="#171717"/>
<path opacity="0.4" d="M21.1909 12.37V13.69C21.1909 14.54 20.5509 14.96 19.7609 14.62L14.7509 12.46C14.3509 12.3 14.0409 12.5 14.0409 12.93V15.84C14.0409 16.07 14.1709 16.4 14.3409 16.56L16.6609 18.89C16.9009 19.13 17.0109 19.61 16.9009 19.94L16.4509 21.3C16.2509 21.89 15.5809 22.16 15.0309 21.89L12.6509 19.89C12.2909 19.58 11.7009 19.58 11.3409 19.89L8.96089 21.89C8.41089 22.17 7.74089 21.89 7.56089 21.3L7.11089 19.94C7.00089 19.6 7.11089 19.13 7.35089 18.89L9.67089 16.56C9.83089 16.4 9.96089 16.07 9.96089 15.84V14.04L15.3809 8.62L20.0509 10.63C20.6809 10.9 21.1909 11.69 21.1909 12.37Z" fill="#171717"/>
</svg>
