<svg width="24" height="24" viewBox="0 0 24 24" fill="none" xmlns="http://www.w3.org/2000/svg">
<path opacity="0.4" d="M16.191 2H7.81098C4.17098 2 2.00098 4.17 2.00098 7.81V16.18C2.00098 19.83 4.17098 22 7.81098 22H16.181C19.821 22 21.991 19.83 21.991 16.19V7.81C22.001 4.17 19.831 2 16.191 2Z" fill="#171717"/>
<path d="M9.861 19L11.541 17.58C11.791 17.37 12.211 17.37 12.471 17.58L14.141 19C14.531 19.2 15.011 19 15.151 18.58L15.471 17.62C15.551 17.39 15.471 17.05 15.301 16.88L13.661 15.23C13.541 15.11 13.451 14.88 13.451 14.72V12.87C13.451 12.45 13.761 12.25 14.151 12.41L17.501 13.85C18.051 14.09 18.511 13.79 18.511 13.19V12.26C18.511 11.78 18.151 11.22 17.701 11.03L13.761 9.33001C13.591 9.26 13.461 9.05 13.461 8.87001V6.80001C13.461 6.12001 12.961 5.32001 12.361 5.01001C12.141 4.90001 11.891 4.90001 11.671 5.01001C11.061 5.31001 10.571 6.12001 10.571 6.80001V8.87001C10.571 9.05 10.431 9.26 10.271 9.33001L6.331 11.03C5.891 11.22 5.521 11.78 5.521 12.26V13.19C5.521 13.79 5.971 14.09 6.531 13.85L9.881 12.41C10.261 12.24 10.581 12.45 10.581 12.87V14.72C10.581 14.89 10.481 15.12 10.371 15.23L8.701 16.87C8.531 17.04 8.451 17.38 8.531 17.61L8.851 18.57C8.991 19 9.461 19.2 9.861 19Z" fill="#171717"/>
</svg>
