<svg width="24" height="24" viewBox="0 0 24 24" fill="none" xmlns="http://www.w3.org/2000/svg">
<path d="M16.271 9.1L14.301 8.24999C14.141 8.17999 14.001 7.96999 14.001 7.78999V4.78999C14.001 3.84999 13.311 2.73999 12.471 2.30999C12.171 2.15999 11.821 2.15999 11.521 2.30999C10.681 2.73999 9.99097 3.85999 9.99097 4.79999V7.79999C9.99097 7.97999 9.85097 8.18999 9.69097 8.25999L4.11097 10.67C3.49097 10.92 2.99097 11.69 2.99097 12.36V13.65C2.99097 14.49 3.62097 14.9 4.39097 14.57L9.30097 12.45C9.68097 12.28 10.001 12.49 10.001 12.91V15.76C10.001 15.99 9.87097 16.31 9.71097 16.47L7.44097 18.75C7.20097 18.99 7.09097 19.45 7.20097 19.78L7.64097 21.11C7.82097 21.69 8.48097 21.97 9.02097 21.69L11.351 19.73C11.701 19.43 12.281 19.43 12.631 19.73L14.961 21.69C15.501 21.96 16.161 21.69 16.361 21.11L16.801 19.78C16.911 19.46 16.801 18.99 16.561 18.75L14.291 16.47C14.121 16.31 13.991 15.99 13.991 15.76V12.91C13.991 12.49 14.301 12.29 14.691 12.45L19.601 14.57C20.371 14.9 21.001 14.49 21.001 13.65V12.36C21.001 11.69 20.501 10.92 19.881 10.66" stroke="#171717" stroke-width="1.5" stroke-linecap="round" stroke-linejoin="round"/>
</svg>
