<svg width="24" height="24" viewBox="0 0 24 24" fill="none" xmlns="http://www.w3.org/2000/svg">
<path d="M14.461 19.83C14.231 19.83 14.001 19.78 13.791 19.67C13.741 19.64 13.691 19.61 13.651 19.57L11.981 18.15L10.341 19.57C10.291 19.61 10.241 19.64 10.191 19.67C9.801 19.86 9.361 19.88 8.971 19.71C8.571 19.54 8.271 19.21 8.131 18.8L7.811 17.84C7.641 17.34 7.791 16.71 8.161 16.33L9.831 14.69L9.821 13.24L6.811 14.53C6.311 14.74 5.791 14.72 5.391 14.45C5.001 14.2 4.771 13.73 4.771 13.19V12.26C4.771 11.48 5.311 10.65 6.031 10.34L9.821 8.71V6.8C9.821 5.82 10.471 4.76 11.341 4.34C11.771 4.13 12.261 4.13 12.691 4.34C13.561 4.79 14.211 5.85 14.211 6.8V8.71L18.001 10.34C18.721 10.64 19.261 11.47 19.261 12.26V13.19C19.261 13.73 19.031 14.2 18.621 14.46C18.211 14.72 17.701 14.75 17.201 14.54L14.201 13.25V14.72L15.831 16.35C16.201 16.72 16.351 17.36 16.181 17.86L15.861 18.81C15.721 19.22 15.421 19.55 15.021 19.71C14.841 19.79 14.651 19.83 14.461 19.83ZM12.001 16.67C12.341 16.67 12.671 16.78 12.941 16.99L14.491 18.31L14.761 17.38L13.131 15.76C12.871 15.51 12.701 15.09 12.701 14.72V12.87C12.701 12.42 12.891 12.03 13.231 11.8C13.571 11.57 14.011 11.54 14.431 11.72L17.751 13.14L17.761 12.26C17.761 12.07 17.581 11.79 17.411 11.72L13.461 10.02C13.031 9.84 12.711 9.36 12.711 8.87V6.8C12.711 6.41 12.371 5.86 12.021 5.68C11.661 5.86 11.321 6.4 11.321 6.8V8.87C11.321 9.34 11.011 9.83 10.571 10.02L6.631 11.72C6.461 11.79 6.271 12.08 6.271 12.26V13.14L9.581 11.73C9.991 11.55 10.421 11.57 10.771 11.8C11.121 12.03 11.321 12.42 11.321 12.88V14.73C11.321 15.09 11.151 15.51 10.891 15.77L9.211 17.42L9.531 18.3L11.041 17.02C11.321 16.79 11.661 16.67 12.001 16.67ZM14.051 8.64L14.061 8.65C14.061 8.64 14.051 8.64 14.051 8.64Z" fill="#171717"/>
<path d="M15.001 22.75H9.00098C3.57098 22.75 1.25098 20.43 1.25098 15V9C1.25098 3.57 3.57098 1.25 9.00098 1.25H15.001C20.431 1.25 22.751 3.57 22.751 9V15C22.751 20.43 20.431 22.75 15.001 22.75ZM9.00098 2.75C4.39098 2.75 2.75098 4.39 2.75098 9V15C2.75098 19.61 4.39098 21.25 9.00098 21.25H15.001C19.611 21.25 21.251 19.61 21.251 15V9C21.251 4.39 19.611 2.75 15.001 2.75H9.00098Z" fill="#171717"/>
</svg>
