<svg width="24" height="24" viewBox="0 0 24 24" fill="none" xmlns="http://www.w3.org/2000/svg">
<path d="M8.58121 22.5501C8.36121 22.5501 8.13121 22.5101 7.92121 22.4201C7.45121 22.2201 7.09121 21.8301 6.93121 21.3401L6.49121 20.0201C6.29121 19.4201 6.47121 18.6701 6.91121 18.2201L9.18121 15.9401C9.21121 15.9101 9.25121 15.8001 9.25121 15.7501V13.2801L4.69121 15.2501C4.08121 15.5101 3.46121 15.4801 2.99121 15.1701C2.52121 14.8601 2.24121 14.3001 2.24121 13.6501V12.3601C2.24121 11.3801 2.94121 10.3301 3.83121 9.98007L9.24121 7.64007V4.80007C9.24121 3.59007 10.0912 2.20007 11.1712 1.64007C11.6912 1.38007 12.2912 1.38007 12.8012 1.64007C13.8912 2.20007 14.7412 3.58007 14.7412 4.79007V7.63007L20.1812 9.97007C21.0712 10.3501 21.7512 11.3701 21.7512 12.3601V13.6501C21.7512 14.3101 21.4812 14.8601 21.0012 15.1701C20.5212 15.4801 19.9112 15.5101 19.3012 15.2601L14.7412 13.2901V15.7601C14.7412 15.8001 14.7812 15.9001 14.8112 15.9301L17.0912 18.2201C17.5312 18.6601 17.7112 19.4301 17.5112 20.0201L17.0712 21.3401C16.9012 21.8301 16.5412 22.2201 16.0612 22.4101C15.5912 22.6001 15.0712 22.5801 14.6212 22.3601C14.5712 22.3301 14.5212 22.3001 14.4712 22.2601L12.1412 20.3001C12.0612 20.2301 11.9012 20.2401 11.8312 20.3001L9.50121 22.2601C9.46121 22.3001 9.41121 22.3301 9.36121 22.3501C9.12121 22.4901 8.85121 22.5501 8.58121 22.5501ZM9.56121 11.6401C9.79121 11.6401 10.0112 11.7001 10.2012 11.8301C10.5512 12.0601 10.7512 12.4501 10.7512 12.9101V15.7601C10.7512 16.1901 10.5412 16.7001 10.2412 17.0001L7.97121 19.2801C7.93121 19.3301 7.89121 19.4801 7.91121 19.5401L8.35121 20.8701C8.38121 20.9701 8.45121 21.0101 8.49121 21.0301C8.52121 21.0401 8.57121 21.0601 8.63121 21.0401L10.8712 19.1501C11.5012 18.6101 12.4912 18.6101 13.1212 19.1501L15.3512 21.0301C15.4212 21.0401 15.4712 21.0301 15.5012 21.0201C15.5412 21.0001 15.6212 20.9601 15.6512 20.8601L16.0912 19.5401C16.1112 19.4701 16.0712 19.3201 16.0312 19.2801L13.7612 17.0001C13.4612 16.7201 13.2412 16.2001 13.2412 15.7601V12.9101C13.2412 12.4601 13.4312 12.0701 13.7712 11.8401C14.1112 11.6101 14.5512 11.5801 14.9712 11.7601L19.8912 13.8801C20.0412 13.9401 20.1412 13.9401 20.1712 13.9201C20.2012 13.9001 20.2412 13.8101 20.2412 13.6501V12.3601C20.2412 11.9801 19.9212 11.4901 19.5812 11.3501L14.0012 8.94007C13.5612 8.75007 13.2512 8.27007 13.2512 7.79007V4.79007C13.2512 4.13007 12.7312 3.28007 12.1312 2.98007C12.0512 2.94007 11.9512 2.94007 11.8612 2.98007C11.2812 3.28007 10.7512 4.15007 10.7512 4.80007V7.80007C10.7512 8.27007 10.4412 8.76007 10.0012 8.95007L4.42121 11.3601C4.07121 11.5001 3.75121 11.9901 3.75121 12.3601V13.6501C3.75121 13.8101 3.79121 13.9001 3.82121 13.9201C3.85121 13.9401 3.95121 13.9401 4.10121 13.8801L9.01121 11.7601C9.19121 11.6801 9.38121 11.6401 9.56121 11.6401Z" fill="#171717"/>
</svg>
