<svg width="24" height="24" viewBox="0 0 24 24" fill="none" xmlns="http://www.w3.org/2000/svg">
<path d="M16.901 22.75H7.10098C4.98098 22.75 3.25098 21.02 3.25098 18.9V5.10001C3.25098 2.98001 4.98098 1.25 7.10098 1.25H16.901C19.021 1.25 20.751 2.98001 20.751 5.10001V18.9C20.751 21.02 19.021 22.75 16.901 22.75ZM7.10098 2.75C5.81098 2.75 4.75098 3.80001 4.75098 5.10001V18.9C4.75098 20.19 5.80098 21.25 7.10098 21.25H16.901C18.191 21.25 19.251 20.2 19.251 18.9V5.10001C19.251 3.81001 18.201 2.75 16.901 2.75H7.10098Z" fill="#171717"/>
<path d="M18.501 13.75H5.50098C4.26098 13.75 3.25098 12.74 3.25098 11.5V9.5C3.25098 8.26 4.26098 7.25 5.50098 7.25H18.501C19.741 7.25 20.751 8.26 20.751 9.5V11.5C20.751 12.74 19.741 13.75 18.501 13.75ZM5.50098 8.75C5.09098 8.75 4.75098 9.09 4.75098 9.5V11.5C4.75098 11.91 5.09098 12.25 5.50098 12.25H18.501C18.911 12.25 19.251 11.91 19.251 11.5V9.5C19.251 9.09 18.911 8.75 18.501 8.75H5.50098Z" fill="#171717"/>
<path d="M8.00098 18.75C7.67098 18.75 7.35097 18.62 7.12097 18.38C7.06097 18.33 7.01098 18.26 6.96098 18.19C6.92098 18.13 6.88098 18.05 6.85098 17.98C6.81098 17.9 6.79098 17.82 6.77098 17.74C6.76098 17.66 6.75098 17.58 6.75098 17.5C6.75098 17.42 6.76098 17.34 6.77098 17.26C6.79098 17.18 6.81098 17.0999 6.85098 17.0199C6.88098 16.9499 6.92098 16.87 6.96098 16.81C7.01098 16.74 7.06097 16.67 7.12097 16.62C7.58097 16.15 8.41098 16.15 8.88098 16.62C8.94098 16.67 8.99097 16.74 9.04097 16.81C9.08097 16.87 9.12097 16.9499 9.15097 17.0199C9.19097 17.0999 9.21097 17.18 9.23097 17.26C9.24097 17.34 9.25098 17.42 9.25098 17.5C9.25098 17.58 9.24097 17.66 9.23097 17.74C9.21097 17.82 9.19097 17.9 9.15097 17.98C9.12097 18.05 9.08097 18.13 9.04097 18.19C8.99097 18.26 8.94098 18.33 8.88098 18.38C8.65098 18.62 8.33098 18.75 8.00098 18.75Z" fill="#171717"/>
<path d="M16.001 18.75C15.671 18.75 15.351 18.62 15.121 18.38C14.881 18.15 14.751 17.83 14.751 17.5C14.751 17.17 14.881 16.85 15.121 16.62C15.581 16.15 16.421 16.15 16.881 16.62C17.121 16.85 17.251 17.17 17.251 17.5C17.251 17.83 17.121 18.15 16.881 18.38C16.651 18.62 16.331 18.75 16.001 18.75Z" fill="#171717"/>
<path d="M14.501 5.75H9.50098C9.09098 5.75 8.75098 5.41 8.75098 5C8.75098 4.59 9.09098 4.25 9.50098 4.25H14.501C14.911 4.25 15.251 4.59 15.251 5C15.251 5.41 14.911 5.75 14.501 5.75Z" fill="#171717"/>
</svg>
