<svg width="24" height="24" viewBox="0 0 24 24" fill="none" xmlns="http://www.w3.org/2000/svg">
<path opacity="0.4" d="M16.901 22H7.10098C5.40098 22 4.00098 20.61 4.00098 18.9V5.10001C4.00098 3.40001 5.39098 2 7.10098 2H16.901C18.601 2 20.001 3.39001 20.001 5.10001V18.9C20.001 20.61 18.611 22 16.901 22Z" fill="#171717"/>
<path d="M20.001 8H4.00098V13H20.001V8Z" fill="#171717"/>
<path d="M8.00098 18.75C7.92098 18.75 7.84097 18.74 7.76097 18.73C7.68097 18.71 7.60098 18.69 7.52098 18.65C7.45098 18.62 7.37097 18.58 7.31097 18.54C7.24097 18.49 7.17097 18.44 7.12097 18.38C6.88097 18.15 6.75098 17.83 6.75098 17.5C6.75098 17.17 6.88097 16.85 7.12097 16.62C7.17097 16.56 7.24097 16.51 7.31097 16.46C7.37097 16.42 7.45098 16.38 7.52098 16.35C7.60098 16.31 7.68097 16.29 7.76097 16.27C8.16097 16.19 8.59098 16.33 8.88098 16.62C9.12098 16.85 9.25098 17.17 9.25098 17.5C9.25098 17.83 9.12098 18.15 8.88098 18.38C8.65098 18.62 8.33098 18.75 8.00098 18.75Z" fill="#171717"/>
<path d="M16.001 18.75C15.921 18.75 15.841 18.74 15.761 18.73C15.681 18.71 15.601 18.69 15.521 18.65C15.451 18.62 15.371 18.58 15.311 18.54C15.241 18.49 15.171 18.44 15.121 18.38C14.881 18.15 14.751 17.83 14.751 17.5C14.751 17.17 14.881 16.85 15.121 16.62C15.171 16.56 15.241 16.51 15.311 16.46C15.371 16.42 15.451 16.38 15.521 16.35C15.601 16.31 15.681 16.29 15.761 16.27C15.921 16.24 16.081 16.24 16.251 16.27C16.321 16.29 16.401 16.31 16.481 16.35C16.551 16.38 16.631 16.42 16.691 16.46C16.761 16.51 16.831 16.56 16.881 16.62C17.121 16.85 17.251 17.17 17.251 17.5C17.251 17.83 17.121 18.15 16.881 18.38C16.831 18.44 16.761 18.49 16.691 18.54C16.631 18.58 16.551 18.62 16.481 18.65C16.401 18.69 16.321 18.71 16.251 18.73C16.161 18.74 16.081 18.75 16.001 18.75Z" fill="#171717"/>
<path d="M14.501 5.75H9.50098C9.09098 5.75 8.75098 5.41 8.75098 5C8.75098 4.59 9.09098 4.25 9.50098 4.25H14.501C14.911 4.25 15.251 4.59 15.251 5C15.251 5.41 14.911 5.75 14.501 5.75Z" fill="#171717"/>
</svg>
