<svg width="24" height="24" viewBox="0 0 24 24" fill="none" xmlns="http://www.w3.org/2000/svg">
<path d="M20.0006 11.7501H4.00059C3.77059 11.7501 3.56059 11.6501 3.42059 11.4701C3.28059 11.3001 3.22059 11.0601 3.27059 10.8401L4.40059 5.44008C4.77059 3.69008 5.52059 2.08008 8.49059 2.08008H15.5206C18.4906 2.08008 19.2406 3.70008 19.6106 5.44008L20.7406 10.8501C20.7906 11.0701 20.7306 11.3001 20.5906 11.4801C20.4406 11.6501 20.2306 11.7501 20.0006 11.7501ZM4.92059 10.2501H19.0706L18.1306 5.75008C17.8506 4.44008 17.5206 3.58008 15.5106 3.58008H8.49059C6.48059 3.58008 6.15059 4.44008 5.87059 5.75008L4.92059 10.2501Z" fill="#171717"/>
<path d="M19.9606 22.7501H18.0806C16.4606 22.7501 16.1506 21.8201 15.9506 21.2101L15.7506 20.6101C15.4906 19.8501 15.4606 19.7501 14.5606 19.7501H9.44057C8.54057 19.7501 8.48057 19.9201 8.25057 20.6101L8.05057 21.2101C7.84057 21.8301 7.54057 22.7501 5.92057 22.7501H4.04057C3.25057 22.7501 2.49057 22.4201 1.96057 21.8401C1.44057 21.2701 1.19057 20.5101 1.26057 19.7501L1.82057 13.6601C1.97057 12.0101 2.41057 10.2501 5.62057 10.2501H18.3806C21.5906 10.2501 22.0206 12.0101 22.1806 13.6601L22.7406 19.7501C22.8106 20.5101 22.5606 21.2701 22.0406 21.8401C21.5106 22.4201 20.7506 22.7501 19.9606 22.7501ZM9.44057 18.2501H14.5606C16.3806 18.2501 16.8106 19.0601 17.1706 20.1201L17.3806 20.7401C17.5506 21.2501 17.5506 21.2601 18.0906 21.2601H19.9706C20.3406 21.2601 20.6906 21.1101 20.9406 20.8401C21.1806 20.5801 21.2906 20.2501 21.2606 19.9001L20.7006 13.8101C20.5706 12.4601 20.4106 11.7601 18.4006 11.7601H5.62057C3.60057 11.7601 3.44057 12.4601 3.32057 13.8101L2.76057 19.9001C2.73057 20.2501 2.84057 20.5801 3.08057 20.8401C3.32057 21.1101 3.68057 21.2601 4.05057 21.2601H5.93057C6.47057 21.2601 6.47057 21.2501 6.64057 20.7501L6.84057 20.1401C7.09057 19.3401 7.46057 18.2501 9.44057 18.2501Z" fill="#171717"/>
<path d="M4.00049 8.75008H3.00049C2.59049 8.75008 2.25049 8.41008 2.25049 8.00008C2.25049 7.59008 2.59049 7.25008 3.00049 7.25008H4.00049C4.41049 7.25008 4.75049 7.59008 4.75049 8.00008C4.75049 8.41008 4.41049 8.75008 4.00049 8.75008Z" fill="#171717"/>
<path d="M21.0005 8.75008H20.0005C19.5905 8.75008 19.2505 8.41008 19.2505 8.00008C19.2505 7.59008 19.5905 7.25008 20.0005 7.25008H21.0005C21.4105 7.25008 21.7505 7.59008 21.7505 8.00008C21.7505 8.41008 21.4105 8.75008 21.0005 8.75008Z" fill="#171717"/>
<path d="M12.0005 5.75008C11.5905 5.75008 11.2505 5.41008 11.2505 5.00008V3.00008C11.2505 2.59008 11.5905 2.25008 12.0005 2.25008C12.4105 2.25008 12.7505 2.59008 12.7505 3.00008V5.00008C12.7505 5.41008 12.4105 5.75008 12.0005 5.75008Z" fill="#171717"/>
<path d="M13.5005 5.75008H10.5005C10.0905 5.75008 9.75049 5.41008 9.75049 5.00008C9.75049 4.59008 10.0905 4.25008 10.5005 4.25008H13.5005C13.9105 4.25008 14.2505 4.59008 14.2505 5.00008C14.2505 5.41008 13.9105 5.75008 13.5005 5.75008Z" fill="#171717"/>
<path d="M9.00049 15.7501H6.00049C5.59049 15.7501 5.25049 15.4101 5.25049 15.0001C5.25049 14.5901 5.59049 14.2501 6.00049 14.2501H9.00049C9.41049 14.2501 9.75049 14.5901 9.75049 15.0001C9.75049 15.4101 9.41049 15.7501 9.00049 15.7501Z" fill="#171717"/>
<path d="M18.0005 15.7501H15.0005C14.5905 15.7501 14.2505 15.4101 14.2505 15.0001C14.2505 14.5901 14.5905 14.2501 15.0005 14.2501H18.0005C18.4105 14.2501 18.7505 14.5901 18.7505 15.0001C18.7505 15.4101 18.4105 15.7501 18.0005 15.7501Z" fill="#171717"/>
</svg>
