<svg width="24" height="24" viewBox="0 0 24 24" fill="none" xmlns="http://www.w3.org/2000/svg">
<path d="M17.801 8.67999H6.20102C5.97102 8.67999 5.76102 8.58002 5.62102 8.40002C5.48102 8.22002 5.42103 7.99002 5.47103 7.77002L6.29102 3.84998C6.56102 2.55998 7.15103 1.25 9.45103 1.25H14.551C16.861 1.25 17.451 2.56998 17.711 3.84998L18.531 7.77002C18.581 7.99002 18.521 8.22002 18.381 8.40002C18.241 8.58002 18.031 8.67999 17.801 8.67999ZM7.12102 7.17999H16.871L16.241 4.16998C16.041 3.20998 15.811 2.76001 14.541 2.76001H9.44103C8.18103 2.76001 7.94103 3.20998 7.74103 4.16998L7.12102 7.17999Z" fill="#171717"/>
<path d="M17.7708 16.65H16.4108C15.0908 16.65 14.8208 15.83 14.6708 15.39L14.5208 14.95C14.3608 14.47 14.3608 14.4699 13.8508 14.4699H10.1408C9.63082 14.4699 9.63082 14.48 9.47082 14.95L9.32083 15.39C9.17083 15.83 8.90082 16.65 7.58082 16.65H6.22082C5.59082 16.65 4.98082 16.3799 4.56082 15.9199C4.15082 15.4699 3.94082 14.8599 4.00082 14.2499L4.41082 9.83997C4.54082 8.45997 4.99082 7.17993 7.37082 7.17993H16.6208C19.0008 7.17993 19.4508 8.45997 19.5808 9.83997L19.9908 14.2599C20.0508 14.8699 19.8408 15.4799 19.4308 15.9299C19.0108 16.3899 18.4008 16.65 17.7708 16.65ZM16.1808 15.14C16.2008 15.14 16.2808 15.15 16.4108 15.15H17.7708C17.9808 15.15 18.1808 15.0699 18.3208 14.9099C18.4508 14.7699 18.5108 14.58 18.5008 14.39L18.0908 9.96991C18.0108 9.07991 17.9708 8.66992 16.6308 8.66992H7.38083C6.04083 8.66992 6.00082 9.07991 5.92082 9.96991L5.51082 14.39C5.49082 14.58 5.55082 14.7699 5.69082 14.9099C5.83082 15.0599 6.03083 15.15 6.24083 15.15H7.60083C7.80083 15.15 7.86082 15.1199 7.87082 15.1199C7.86082 15.1199 7.89082 14.9999 7.92082 14.9199L8.07083 14.4799C8.26083 13.9199 8.57082 12.9699 10.1608 12.9699H13.8708C15.3208 12.9699 15.6908 13.68 15.9508 14.46L16.1008 14.9099C16.1208 14.9999 16.1508 15.1 16.1808 15.14C16.1808 15.14 16.1708 15.14 16.1808 15.14Z" fill="#171717"/>
<path d="M6.20119 6.5H5.47119C5.06119 6.5 4.72119 6.16 4.72119 5.75C4.72119 5.34 5.06119 5 5.47119 5H6.20119C6.61119 5 6.95119 5.34 6.95119 5.75C6.95119 6.16 6.61119 6.5 6.20119 6.5Z" fill="#171717"/>
<path d="M18.5308 6.5H17.8008C17.3908 6.5 17.0508 6.16 17.0508 5.75C17.0508 5.34 17.3908 5 17.8008 5H18.5308C18.9408 5 19.2808 5.34 19.2808 5.75C19.2808 6.16 18.9408 6.5 18.5308 6.5Z" fill="#171717"/>
<path d="M9.82112 11.5801H7.64111C7.23111 11.5801 6.89111 11.2401 6.89111 10.8301C6.89111 10.4201 7.23111 10.0801 7.64111 10.0801H9.82112C10.2311 10.0801 10.5711 10.4201 10.5711 10.8301C10.5711 11.2401 10.2411 11.5801 9.82112 11.5801Z" fill="#171717"/>
<path d="M16.3509 11.5801H14.1709C13.7609 11.5801 13.4209 11.2401 13.4209 10.8301C13.4209 10.4201 13.7609 10.0801 14.1709 10.0801H16.3509C16.7609 10.0801 17.1009 10.4201 17.1009 10.8301C17.1009 11.2401 16.7609 11.5801 16.3509 11.5801Z" fill="#171717"/>
<path d="M12.001 18.75C11.591 18.75 11.251 18.41 11.251 18V17C11.251 16.59 11.591 16.25 12.001 16.25C12.411 16.25 12.751 16.59 12.751 17V18C12.751 18.41 12.411 18.75 12.001 18.75Z" fill="#171717"/>
<path d="M12.001 22.75C11.591 22.75 11.251 22.41 11.251 22V21C11.251 20.59 11.591 20.25 12.001 20.25C12.411 20.25 12.751 20.59 12.751 21V22C12.751 22.41 12.411 22.75 12.001 22.75Z" fill="#171717"/>
<path d="M2.00107 22.7501C1.94107 22.7501 1.88108 22.7401 1.82108 22.7301C1.42108 22.6301 1.17107 22.2201 1.27107 21.8201L2.27107 17.8201C2.37107 17.4201 2.77106 17.1701 3.18106 17.2701C3.58106 17.3701 3.83107 17.7801 3.73107 18.1801L2.73107 22.1801C2.64107 22.5201 2.34107 22.7501 2.00107 22.7501Z" fill="#171717"/>
<path d="M22.0012 22.7499C21.6612 22.7499 21.3612 22.5199 21.2712 22.1799L20.2712 18.1799C20.1712 17.7799 20.4112 17.3699 20.8212 17.2699C21.2212 17.1699 21.6312 17.4099 21.7312 17.8199L22.7312 21.8199C22.8312 22.2199 22.5912 22.6299 22.1812 22.7299C22.1212 22.7399 22.0612 22.7499 22.0012 22.7499Z" fill="#171717"/>
</svg>
