<svg width="24" height="24" viewBox="0 0 24 24" fill="none" xmlns="http://www.w3.org/2000/svg">
<path d="M12.001 18.75C11.591 18.75 11.251 18.41 11.251 18V17C11.251 16.59 11.591 16.25 12.001 16.25C12.411 16.25 12.751 16.59 12.751 17V18C12.751 18.41 12.411 18.75 12.001 18.75Z" fill="#171717"/>
<path d="M12.001 22.75C11.591 22.75 11.251 22.41 11.251 22V21C11.251 20.59 11.591 20.25 12.001 20.25C12.411 20.25 12.751 20.59 12.751 21V22C12.751 22.41 12.411 22.75 12.001 22.75Z" fill="#171717"/>
<path d="M2.00107 22.75C1.94107 22.75 1.88108 22.74 1.82108 22.73C1.42108 22.63 1.17107 22.22 1.27107 21.82L2.27107 17.82C2.37107 17.42 2.77106 17.17 3.18106 17.27C3.58106 17.37 3.83107 17.78 3.73107 18.18L2.73107 22.18C2.64107 22.52 2.34107 22.75 2.00107 22.75Z" fill="#171717"/>
<path d="M22.0009 22.75C21.6609 22.75 21.3609 22.52 21.2709 22.18L20.2709 18.18C20.1709 17.78 20.4109 17.37 20.8209 17.27C21.2209 17.17 21.6309 17.41 21.7309 17.82L22.7309 21.82C22.8309 22.22 22.5909 22.63 22.1809 22.73C22.1209 22.74 22.0609 22.75 22.0009 22.75Z" fill="#171717"/>
<path opacity="0.4" d="M19.261 9.52002C19.151 8.34002 18.841 7.09003 16.551 7.09003H7.45097C5.16097 7.09003 4.85098 8.35002 4.74098 9.52002L4.34097 13.86C4.29097 14.4 4.47097 14.94 4.84097 15.35C5.22097 15.76 5.76098 16 6.32098 16H7.66098C8.81098 16 9.03096 15.34 9.18096 14.9L9.32098 14.47C9.48098 13.98 9.52097 13.86 10.171 13.86H13.821C14.461 13.86 14.481 13.93 14.671 14.47L14.811 14.9C14.961 15.34 15.181 16 16.331 16H17.671C18.231 16 18.771 15.76 19.151 15.35C19.521 14.95 19.701 14.4 19.651 13.86L19.261 9.52002Z" fill="#171717"/>
<path d="M18.421 4.94H17.711C17.701 4.94 17.701 4.94 17.701 4.94L17.431 3.65002C17.171 2.40002 16.641 1.25 14.511 1.25H12.541H11.471H9.50102C7.37102 1.25 6.84102 2.40002 6.58102 3.65002L6.31102 4.94C6.30102 4.94 6.30103 4.94 6.30103 4.94H5.59102C5.29102 4.94 5.05103 5.17998 5.05103 5.47998C5.05103 5.77998 5.29102 6.02002 5.59102 6.02002H6.10103L5.80103 7.45001C6.19103 7.23001 6.72103 7.09003 7.46103 7.09003H16.561C17.301 7.09003 17.841 7.23001 18.221 7.45001L17.921 6.02002H18.431C18.731 6.02002 18.971 5.77998 18.971 5.47998C18.961 5.17998 18.721 4.94 18.421 4.94Z" fill="#171717"/>
<path d="M9.86092 11.01H7.72092C7.42092 11.01 7.18091 10.77 7.18091 10.47C7.18091 10.17 7.42092 9.92999 7.72092 9.92999H9.86092C10.1609 9.92999 10.4009 10.17 10.4009 10.47C10.3909 10.77 10.1509 11.01 9.86092 11.01Z" fill="#171717"/>
<path d="M16.2811 11.01H14.1411C13.8411 11.01 13.6011 10.77 13.6011 10.47C13.6011 10.17 13.8411 9.92999 14.1411 9.92999H16.2811C16.5811 9.92999 16.8211 10.17 16.8211 10.47C16.8211 10.77 16.5811 11.01 16.2811 11.01Z" fill="#171717"/>
</svg>
