<svg width="24" height="24" viewBox="0 0 24 24" fill="none" xmlns="http://www.w3.org/2000/svg">
<path opacity="0.4" d="M3.50098 22V5C3.50098 3 4.84098 2 6.50098 2H14.501C16.161 2 17.501 3 17.501 5V22H3.50098Z" fill="#171717"/>
<path d="M19.001 22.75H2.00098C1.59098 22.75 1.25098 22.41 1.25098 22C1.25098 21.59 1.59098 21.25 2.00098 21.25H19.001C19.411 21.25 19.751 21.59 19.751 22C19.751 22.41 19.411 22.75 19.001 22.75Z" fill="#171717"/>
<path d="M7.89098 10H13.121C14.161 10 15.011 9.5 15.011 8.11V6.88C15.001 5.5 14.151 5 13.111 5H7.88098C6.85098 5 6.00098 5.5 6.00098 6.89V8.12C6.00098 9.5 6.85098 10 7.89098 10Z" fill="#171717"/>
<path d="M9.50098 13.75H6.50098C6.09098 13.75 5.75098 13.41 5.75098 13C5.75098 12.59 6.09098 12.25 6.50098 12.25H9.50098C9.91098 12.25 10.251 12.59 10.251 13C10.251 13.41 9.91098 13.75 9.50098 13.75Z" fill="#171717"/>
<path d="M22.751 10V16C22.751 16.41 22.421 16.75 22.001 16.75L17.501 16.76V15.26L21.251 15.25V10.46L19.661 9.67C19.291 9.49 19.141 9.04001 19.331 8.66001C19.511 8.29001 19.971 8.15001 20.341 8.33001L22.341 9.33001C22.591 9.46001 22.751 9.72001 22.751 10Z" fill="#171717"/>
</svg>
