<svg width="24" height="24" viewBox="0 0 24 24" fill="none" xmlns="http://www.w3.org/2000/svg">
<path d="M17.501 22.75H3.50098C3.09098 22.75 2.75098 22.41 2.75098 22V5C2.75098 2.76 4.26098 1.25 6.50098 1.25H14.501C16.741 1.25 18.251 2.76 18.251 5V22C18.251 22.41 17.911 22.75 17.501 22.75ZM4.25098 21.25H16.751V5C16.751 3.59 15.911 2.75 14.501 2.75H6.50098C5.09098 2.75 4.25098 3.59 4.25098 5V21.25Z" fill="#171717"/>
<path d="M19.001 22.75H2.00098C1.59098 22.75 1.25098 22.41 1.25098 22C1.25098 21.59 1.59098 21.25 2.00098 21.25H19.001C19.411 21.25 19.751 21.59 19.751 22C19.751 22.41 19.411 22.75 19.001 22.75Z" fill="#171717"/>
<path opacity="0.34" d="M12.6112 10.75H8.38121C6.75121 10.75 5.74121 9.73999 5.74121 8.10999V6.87999C5.74121 5.24999 6.75121 4.23999 8.38121 4.23999H12.6112C14.2412 4.23999 15.2512 5.24999 15.2512 6.87999V8.10999C15.2512 9.73999 14.2412 10.75 12.6112 10.75ZM8.39121 5.74998C7.58121 5.74998 7.25121 6.07998 7.25121 6.88998V8.11998C7.25121 8.92998 7.58121 9.25998 8.39121 9.25998H12.6212C13.4312 9.25998 13.7612 8.92998 13.7612 8.11998V6.88998C13.7612 6.07998 13.4312 5.74998 12.6212 5.74998H8.39121Z" fill="#171717"/>
<path d="M9.50098 13.75H6.50098C6.09098 13.75 5.75098 13.41 5.75098 13C5.75098 12.59 6.09098 12.25 6.50098 12.25H9.50098C9.91098 12.25 10.251 12.59 10.251 13C10.251 13.41 9.91098 13.75 9.50098 13.75Z" fill="#171717"/>
<path opacity="0.34" d="M17.501 16.76C17.091 16.76 16.751 16.43 16.751 16.01C16.751 15.6 17.081 15.26 17.501 15.26L21.251 15.25V10.46L19.661 9.66998C19.291 9.47998 19.141 9.02999 19.321 8.65999C19.511 8.28999 19.961 8.13999 20.331 8.31999L22.331 9.31999C22.581 9.44999 22.741 9.70999 22.741 9.98999V15.99C22.741 16.4 22.411 16.74 21.991 16.74L17.501 16.76Z" fill="#171717"/>
</svg>
