<svg width="24" height="24" viewBox="0 0 24 24" fill="none" xmlns="http://www.w3.org/2000/svg">
<path d="M14.3808 22.75H9.62075C5.84075 22.75 2.87074 20.37 2.05074 16.68L1.64077 14.82C1.36077 13.54 2.09074 12.16 3.30074 11.67L10.2308 8.88999C11.3708 8.43999 12.6307 8.43999 13.7707 8.88999L20.7008 11.67C21.9208 12.16 22.6507 13.54 22.3607 14.82L21.9508 16.68C21.1308 20.37 18.1608 22.75 14.3808 22.75ZM12.0008 10.05C11.5908 10.05 11.1808 10.13 10.7808 10.28L3.85076 13.06C3.32076 13.27 2.97075 13.94 3.09075 14.49L3.50075 16.35C4.17075 19.37 6.51074 21.24 9.61074 21.24H14.3707C17.4707 21.24 19.8108 19.37 20.4808 16.35L20.8908 14.49C21.0108 13.94 20.6608 13.27 20.1308 13.06L13.2008 10.28C12.8208 10.13 12.4108 10.05 12.0008 10.05Z" fill="#171717"/>
<path d="M12.001 22.75C11.591 22.75 11.251 22.41 11.251 22V10C11.251 9.59 11.591 9.25 12.001 9.25C12.411 9.25 12.751 9.59 12.751 10V22C12.751 22.41 12.411 22.75 12.001 22.75Z" fill="#171717"/>
<path d="M19.0012 12.55C18.9112 12.55 18.8112 12.53 18.7212 12.5L13.2112 10.29C12.4312 9.98001 11.5712 9.98001 10.7812 10.29L5.27121 12.5C5.04121 12.59 4.78123 12.56 4.57123 12.42C4.36123 12.28 4.24121 12.05 4.24121 11.8V8C4.24121 5.93 5.92121 4.25 7.99121 4.25H15.9912C18.0612 4.25 19.7412 5.93 19.7412 8V11.8C19.7412 12.05 19.6212 12.28 19.4112 12.42C19.2912 12.51 19.1512 12.55 19.0012 12.55ZM12.0012 8.54999C12.6012 8.54999 13.2012 8.66001 13.7712 8.89001L18.2512 10.69V8C18.2512 6.76 17.2412 5.75 16.0012 5.75H8.00122C6.76122 5.75 5.75122 6.76 5.75122 8V10.69L10.2312 8.89001C10.8012 8.67001 11.4012 8.54999 12.0012 8.54999Z" fill="#171717"/>
<path d="M14.501 5.75H9.50098C9.09098 5.75 8.75098 5.41 8.75098 5V3C8.75098 2.04 9.54098 1.25 10.501 1.25H13.501C14.461 1.25 15.251 2.04 15.251 3V5C15.251 5.41 14.911 5.75 14.501 5.75ZM10.251 4.25H13.751V3C13.751 2.86 13.641 2.75 13.501 2.75H10.501C10.361 2.75 10.251 2.86 10.251 3V4.25Z" fill="#171717"/>
</svg>
