<svg width="24" height="24" viewBox="0 0 24 24" fill="none" xmlns="http://www.w3.org/2000/svg">
<path d="M18.7111 9.49C18.6111 9.49 18.5111 9.47 18.4111 9.43C18.0311 9.26 17.8611 8.82001 18.0211 8.44001C18.2111 8.01001 18.1011 7.37999 17.7511 6.85999C17.4011 6.32999 16.8711 5.98 16.3811 6C15.9411 6 15.6311 5.67001 15.6211 5.26001C15.6211 4.84001 15.9511 4.51 16.3611 4.5C17.3911 4.48 18.3611 5.07002 18.9911 6.02002C19.6311 6.98002 19.7811 8.13003 19.3911 9.03003C19.2811 9.32003 19.0011 9.49 18.7111 9.49Z" fill="#171717"/>
<path d="M21.8209 10.48C21.7509 10.48 21.6909 10.47 21.6209 10.45C21.2209 10.34 20.9909 9.93005 21.1009 9.53005C21.4809 8.17005 21.1609 6.55002 20.2509 5.19003C19.3409 3.83003 17.9609 2.92002 16.5509 2.75002C16.1409 2.70002 15.8509 2.33001 15.9009 1.92001C15.9509 1.51001 16.3309 1.21004 16.7309 1.27004C18.5609 1.49004 20.3409 2.65002 21.4909 4.37002C22.6409 6.09002 23.0309 8.17004 22.5409 9.95004C22.4509 10.26 22.1509 10.48 21.8209 10.48Z" fill="#171717"/>
<path opacity="0.4" d="M17.521 15.84C17.411 14.62 17.081 13.31 14.701 13.31H5.23101C2.85101 13.31 2.53102 14.62 2.41102 15.84L1.99102 20.36C1.94102 20.92 2.13101 21.49 2.51101 21.91C2.90101 22.34 3.46102 22.59 4.05102 22.59H5.44102C6.64102 22.59 6.87102 21.9 7.02102 21.45L7.17102 21.01C7.34102 20.5 7.38102 20.37 8.05102 20.37H11.851C12.511 20.37 12.541 20.44 12.731 21.01L12.881 21.46C13.031 21.91 13.261 22.6 14.461 22.6H15.851C16.441 22.6 17.001 22.35 17.391 21.92C17.771 21.5 17.961 20.93 17.911 20.37L17.521 15.84Z" fill="#171717"/>
<path d="M16.651 11.09H15.911C15.901 11.09 15.901 11.09 15.891 11.09L15.611 9.73999C15.341 8.43999 14.791 7.25 12.581 7.25H10.531H9.42096H7.37096C5.16096 7.25 4.60096 8.43999 4.34096 9.73999L4.06096 11.09C4.05096 11.09 4.05095 11.09 4.04095 11.09H3.30096C2.99096 11.09 2.74097 11.34 2.74097 11.65C2.74097 11.96 2.99096 12.21 3.30096 12.21H3.83096L3.52097 13.69C3.92097 13.46 4.48096 13.32 5.25096 13.32H14.721C15.491 13.32 16.051 13.46 16.451 13.69L16.141 12.21H16.671C16.981 12.21 17.231 11.96 17.231 11.65C17.211 11.34 16.961 11.09 16.651 11.09Z" fill="#171717"/>
<path d="M7.75093 17.39H5.52094C5.21094 17.39 4.96094 17.14 4.96094 16.83C4.96094 16.52 5.21094 16.27 5.52094 16.27H7.75093C8.06093 16.27 8.31093 16.52 8.31093 16.83C8.30093 17.14 8.06093 17.39 7.75093 17.39Z" fill="#171717"/>
<path d="M14.4311 17.39H12.2011C11.8911 17.39 11.6411 17.14 11.6411 16.83C11.6411 16.52 11.8911 16.27 12.2011 16.27H14.4311C14.7411 16.27 14.9911 16.52 14.9911 16.83C14.9811 17.14 14.7311 17.39 14.4311 17.39Z" fill="#171717"/>
</svg>
