<svg width="24" height="24" viewBox="0 0 24 24" fill="none" xmlns="http://www.w3.org/2000/svg">
<path d="M8.39075 7.62H6.87074C5.01074 7.62 4.59075 8.55001 4.36075 9.70001L3.51074 13.75H15.5107L14.6608 9.70001C14.4208 8.56001 14.0107 7.62 12.1507 7.62" stroke="#171717" stroke-width="1.5" stroke-linecap="round" stroke-linejoin="round"/>
<path d="M16.8909 19.19L17.0009 20.36C17.0809 21.24 16.3809 22 15.4809 22H14.0709C13.2609 22 13.1509 21.65 13.0009 21.23L12.8509 20.78C12.6409 20.17 12.5009 19.75 11.4209 19.75H7.58087C6.50087 19.75 6.34086 20.22 6.15086 20.78L6.00087 21.23C5.86087 21.66 5.75086 22 4.93086 22H3.52087C2.62087 22 1.91087 21.24 2.00087 20.36L2.42087 15.79C2.53087 14.66 2.74088 13.74 4.71088 13.74H14.2809C16.2509 13.74 16.4609 14.66 16.5709 15.79" stroke="#171717" stroke-width="1.5" stroke-linecap="round" stroke-linejoin="round"/>
<path d="M3.50098 11.5H2.75098" stroke="#171717" stroke-width="1.5" stroke-linecap="round" stroke-linejoin="round"/>
<path d="M16.251 11.5H15.501" stroke="#171717" stroke-width="1.5" stroke-linecap="round" stroke-linejoin="round"/>
<path d="M5.00098 16.75H7.25098" stroke="#171717" stroke-width="1.5" stroke-linecap="round" stroke-linejoin="round"/>
<path d="M11.751 16.75H14.001" stroke="#171717" stroke-width="1.5" stroke-linecap="round" stroke-linejoin="round"/>
<path d="M18.7111 8.73998C18.9911 8.08998 18.8911 7.20999 18.3711 6.43999C17.8611 5.66999 17.0811 5.23999 16.3711 5.24999" stroke="#171717" stroke-width="1.5" stroke-linecap="round" stroke-linejoin="round"/>
<path d="M18.3809 2.53998C17.8109 2.25998 17.2209 2.07 16.6409 2" stroke="#171717" stroke-width="1.5" stroke-linecap="round" stroke-linejoin="round"/>
<path d="M21.8211 9.72998C22.2411 8.21998 21.9411 6.37002 20.8711 4.77002" stroke="#171717" stroke-width="1.5" stroke-linecap="round" stroke-linejoin="round"/>
</svg>
