<svg width="24" height="24" viewBox="0 0 24 24" fill="none" xmlns="http://www.w3.org/2000/svg">
<path d="M15.5008 14.5H3.50083C3.27083 14.5 3.06083 14.4 2.92083 14.22C2.78083 14.05 2.72083 13.81 2.77083 13.59L3.62082 9.53998C3.90082 8.21998 4.50082 6.87 6.87082 6.87H12.1408C14.5108 6.87 15.1108 8.21998 15.3908 9.53998L16.2408 13.59C16.2908 13.81 16.2308 14.04 16.0908 14.22C15.9408 14.4 15.7308 14.5 15.5008 14.5ZM4.42083 13H14.5708L13.9108 9.84998C13.7008 8.83998 13.4508 8.37 12.1308 8.37H6.86083C5.54083 8.37 5.29083 8.83998 5.08083 9.84998L4.42083 13Z" fill="#171717"/>
<path d="M15.4708 22.75H14.0608C12.7108 22.75 12.4308 21.92 12.2908 21.47L12.1408 21.02C11.9608 20.51 11.9608 20.51 11.4308 20.51H7.59082C7.05082 20.51 7.04083 20.53 6.88083 21.02L6.73082 21.47C6.58082 21.92 6.30082 22.76 4.95082 22.76H3.54082C2.89082 22.76 2.28082 22.49 1.84082 22.01C1.42082 21.55 1.21083 20.92 1.27083 20.3L1.69082 15.73C1.82082 14.31 2.28082 13 4.72082 13H14.2908C16.7308 13 17.1908 14.31 17.3208 15.73L17.7408 20.3C17.8008 20.92 17.5908 21.54 17.1708 22.01C16.7308 22.48 16.1208 22.75 15.4708 22.75ZM13.8008 21.23C13.8208 21.23 13.9008 21.25 14.0608 21.25H15.4708C15.7008 21.25 15.9108 21.16 16.0608 20.99C16.2008 20.83 16.2708 20.64 16.2508 20.43L15.8308 15.86C15.7408 14.92 15.7008 14.49 14.2908 14.49H4.72082C3.31082 14.49 3.27081 14.92 3.18081 15.86L2.76082 20.43C2.74082 20.64 2.81082 20.84 2.95082 20.99C3.10082 21.16 3.31082 21.25 3.54082 21.25H4.95082C5.17082 21.25 5.23083 21.22 5.24083 21.22C5.24083 21.21 5.28082 21.09 5.31082 21L5.46083 20.55C5.66083 19.94 5.97083 19.01 7.60083 19.01H11.4408C13.0508 19.01 13.3508 19.89 13.5708 20.54L13.7308 21C13.7408 21.08 13.7708 21.19 13.8008 21.23Z" fill="#171717"/>
<path d="M3.50098 12.25H2.75098C2.34098 12.25 2.00098 11.91 2.00098 11.5C2.00098 11.09 2.34098 10.75 2.75098 10.75H3.50098C3.91098 10.75 4.25098 11.09 4.25098 11.5C4.25098 11.91 3.91098 12.25 3.50098 12.25Z" fill="#171717"/>
<path d="M16.251 12.25H15.501C15.091 12.25 14.751 11.91 14.751 11.5C14.751 11.09 15.091 10.75 15.501 10.75H16.251C16.661 10.75 17.001 11.09 17.001 11.5C17.001 11.91 16.661 12.25 16.251 12.25Z" fill="#171717"/>
<path d="M7.25098 17.5H5.00098C4.59098 17.5 4.25098 17.16 4.25098 16.75C4.25098 16.34 4.59098 16 5.00098 16H7.25098C7.66098 16 8.00098 16.34 8.00098 16.75C8.00098 17.16 7.66098 17.5 7.25098 17.5Z" fill="#171717"/>
<path d="M14.001 17.5H11.751C11.341 17.5 11.001 17.16 11.001 16.75C11.001 16.34 11.341 16 11.751 16H14.001C14.411 16 14.751 16.34 14.751 16.75C14.751 17.16 14.411 17.5 14.001 17.5Z" fill="#171717"/>
<path d="M18.7111 9.49C18.6111 9.49 18.5111 9.47 18.4111 9.43C18.0311 9.26 17.8611 8.82001 18.0211 8.44001C18.2111 8.01001 18.1011 7.37999 17.7511 6.85999C17.4011 6.32999 16.8711 5.98 16.3811 6H16.3711C15.9611 6 15.6311 5.67001 15.6211 5.26001C15.6211 4.84001 15.9511 4.51 16.3611 4.5C17.3911 4.48 18.3611 5.07002 18.9911 6.02002C19.6311 6.98002 19.7811 8.13003 19.3911 9.03003C19.2811 9.32003 19.0011 9.49 18.7111 9.49Z" fill="#171717"/>
<path d="M21.8211 10.4801C21.7511 10.4801 21.6911 10.4701 21.6211 10.4501C21.2211 10.3401 20.9911 9.93011 21.1011 9.53011C21.4811 8.17011 21.1611 6.55009 20.2511 5.19009C19.3411 3.83009 17.9611 2.92008 16.5511 2.75008C16.1411 2.70008 15.8511 2.33007 15.9011 1.92007C15.9511 1.51007 16.3311 1.2101 16.7311 1.2701C18.5611 1.4901 20.3411 2.65008 21.4911 4.37008C22.6411 6.09008 23.0311 8.1701 22.5411 9.9501C22.4511 10.2601 22.1511 10.4801 21.8211 10.4801Z" fill="#171717"/>
</svg>
