<svg width="24" height="24" viewBox="0 0 24 24" fill="none" xmlns="http://www.w3.org/2000/svg">
<path d="M8.39001 2.16998V8.62H1.92999V7.94C1.92999 4.33 4.08 2.17999 7.69 2.17999H8.39001V2.16998Z" fill="#171717"/>
<path d="M21.77 7.92999C21.77 8.30999 21.46 8.60999 21.09 8.60999H15.34V2.15997H16.01C19.19 2.16997 21.77 4.74999 21.77 7.92999Z" fill="#171717"/>
<path d="M8.39001 15.55V21.31C8.39001 21.69 8.07999 21.99 7.70999 21.99H7.70001C4.52001 21.99 1.94 19.41 1.94 16.23V15.55H8.39001Z" fill="#171717"/>
<path opacity="0.4" d="M8.39999 8.60999H1.94V15.55H8.39999V8.60999Z" fill="#171717"/>
<path d="M15.33 8.60999V14.87C15.33 15.25 15.02 15.55 14.65 15.55H8.39001V8.60999H15.33Z" fill="#171717"/>
<path opacity="0.4" d="M15.33 2.16998H8.39001V8.62H15.33V2.16998Z" fill="#171717"/>
<path opacity="0.4" d="M19.8 20.7L17.9 22.61C17.38 23.13 16.52 23.13 15.98 22.61L14.4 21.02C13.88 20.49 13.88 19.64 14.4 19.1L16.31 17.21L19.8 20.7Z" fill="#171717"/>
<path d="M22.61 17.9L19.8 20.7L16.31 17.21L19.11 14.39C19.64 13.87 20.5 13.87 21.03 14.39L22.61 15.98C23.13 16.51 23.13 17.38 22.61 17.9Z" fill="#171717"/>
</svg>
