<svg width="24" height="24" viewBox="0 0 24 24" fill="none" xmlns="http://www.w3.org/2000/svg">
<path d="M21.53 17.31V17.15C21.53 15.22 20.55 14.25 18.63 14.25C16.71 14.25 15.73 15.23 15.73 17.15V17.31C14.68 17.57 14.26 18.29 14.26 19.73V20.47C14.26 22.32 14.95 23 16.79 23H20.47C22.32 23 23 22.31 23 20.47V19.73C23 18.3 22.58 17.57 21.53 17.31ZM18.62 15.63C19.91 15.63 20.14 16.12 20.14 17.15V17.2H17.1V17.15C17.1 16.12 17.33 15.63 18.62 15.63Z" fill="#171717"/>
<path d="M8.39001 2.16998V8.62H1.92999V7.94C1.92999 4.33 4.08 2.17999 7.69 2.17999H8.39001V2.16998Z" fill="#171717"/>
<path d="M21.77 7.92999C21.77 8.30999 21.46 8.60999 21.09 8.60999H15.34V2.15997H16.01C19.19 2.16997 21.77 4.74999 21.77 7.92999Z" fill="#171717"/>
<path d="M8.39001 15.55V21.31C8.39001 21.69 8.07999 21.99 7.70999 21.99H7.70001C4.52001 21.99 1.94 19.41 1.94 16.23V15.55H8.39001Z" fill="#171717"/>
<path opacity="0.4" d="M8.39999 8.60999H1.94V15.55H8.39999V8.60999Z" fill="#171717"/>
<path d="M15.33 8.60999V14.55C15.33 15.1 14.88 15.55 14.33 15.55H8.39001V8.60999H15.33Z" fill="#171717"/>
<path opacity="0.4" d="M15.33 2.16998H8.39001V8.62H15.33V2.16998Z" fill="#171717"/>
</svg>
