<svg width="24" height="24" viewBox="0 0 24 24" fill="none" xmlns="http://www.w3.org/2000/svg">
<path d="M21.33 14.67C20.28 13.62 19.45 13.96 18.73 14.67L14.58 18.82C14.42 18.98 14.27 19.29 14.23 19.51L14 21.0999C13.92 21.6699 14.32 22.08 14.89 21.99L16.48 21.76C16.7 21.73 17.01 21.5699 17.17 21.4099L21.32 17.26C22.05 16.55 22.38 15.72 21.33 14.67Z" fill="#171717"/>
<path d="M8.39001 2.16998V8.62H1.92999V7.94C1.92999 4.33 4.08 2.17999 7.69 2.17999H8.39001V2.16998Z" fill="#171717"/>
<path d="M21.77 7.92999C21.77 8.30999 21.46 8.60999 21.09 8.60999H15.34V2.15997H16.01C19.19 2.16997 21.77 4.74999 21.77 7.92999Z" fill="#171717"/>
<path d="M8.39001 15.55V21.31C8.39001 21.69 8.08002 21.99 7.71002 21.99H7.70001C4.52001 21.99 1.94 19.41 1.94 16.23V15.55H8.39001Z" fill="#171717"/>
<path opacity="0.4" d="M8.40002 8.60999H1.94V15.55H8.40002V8.60999Z" fill="#171717"/>
<path d="M15.33 8.60999V14.55C15.33 15.1 14.88 15.55 14.33 15.55H8.39001V8.60999H15.33Z" fill="#171717"/>
<path opacity="0.4" d="M15.33 2.16998H8.39001V8.62H15.33V2.16998Z" fill="#171717"/>
</svg>
