<svg width="24" height="24" viewBox="0 0 24 24" fill="none" xmlns="http://www.w3.org/2000/svg">
<path d="M3.5 5.06V18.94C3.5 19.35 3.16 19.69 2.75 19.69C2.34 19.69 2 19.35 2 18.94V5.06C2 4.65 2.34 4.31 2.75 4.31C3.16 4.31 3.5 4.65 3.5 5.06Z" fill="#171717"/>
<path d="M22 5.06V18.94C22 19.35 21.66 19.69 21.25 19.69C20.84 19.69 20.5 19.35 20.5 18.94V5.06C20.5 4.65 20.84 4.31 21.25 4.31C21.66 4.31 22 4.65 22 5.06Z" fill="#171717"/>
<path opacity="0.4" d="M7.59998 21.25H16.4C18.06 21.25 19.4 19.91 19.4 18.25V5.75C19.4 4.09 18.06 2.75 16.4 2.75H7.59998C5.93998 2.75 4.59998 4.09 4.59998 5.75V18.25C4.59998 19.91 5.93998 21.25 7.59998 21.25Z" fill="#171717"/>
</svg>
