<svg width="24" height="24" viewBox="0 0 24 24" fill="none" xmlns="http://www.w3.org/2000/svg">
<path opacity="0.4" d="M16.19 2H7.81C4.17 2 2 4.17 2 7.81V16.18C2 19.83 4.17 22 7.81 22H16.18C19.82 22 21.99 19.83 21.99 16.19V7.81C22 4.17 19.83 2 16.19 2Z" fill="#171717"/>
<path d="M17.85 13.5299C17.77 13.3499 17.63 13.1999 17.44 13.1199C17.35 13.0799 17.25 13.0599 17.15 13.0599H6.84998C6.43998 13.0599 6.09998 13.3999 6.09998 13.8099C6.09998 14.2199 6.43998 14.5599 6.84998 14.5599H15.35L13.59 16.3199C13.3 16.6099 13.3 17.0899 13.59 17.3799C13.74 17.5299 13.93 17.5999 14.12 17.5999C14.31 17.5999 14.5 17.5299 14.65 17.3799L17.69 14.3399C17.76 14.2699 17.81 14.1899 17.85 14.0999C17.92 13.9199 17.92 13.7099 17.85 13.5299Z" fill="#171717"/>
<path d="M6.14997 10.47C6.22997 10.65 6.36997 10.8 6.55997 10.88C6.64997 10.92 6.74997 10.94 6.84997 10.94H17.16C17.57 10.94 17.91 10.6 17.91 10.19C17.91 9.77997 17.57 9.43997 17.16 9.43997H8.65997L10.42 7.67997C10.71 7.38997 10.71 6.90997 10.42 6.61997C10.13 6.32997 9.64997 6.32997 9.35997 6.61997L6.31997 9.64997C6.24997 9.71997 6.18997 9.80997 6.14997 9.89997C6.07997 10.08 6.07997 10.29 6.14997 10.47Z" fill="#171717"/>
</svg>
