<svg width="24" height="24" viewBox="0 0 24 24" fill="none" xmlns="http://www.w3.org/2000/svg">
<path opacity="0.4" d="M12 22C17.5228 22 22 17.5228 22 12C22 6.47715 17.5228 2 12 2C6.47715 2 2 6.47715 2 12C2 17.5228 6.47715 22 12 22Z" fill="#171717"/>
<path d="M17.85 13.53C17.77 13.35 17.63 13.2 17.44 13.12C17.35 13.08 17.25 13.06 17.15 13.06H6.83997C6.42997 13.06 6.08997 13.4 6.08997 13.81C6.08997 14.22 6.42997 14.56 6.83997 14.56H15.34L13.58 16.32C13.29 16.61 13.29 17.09 13.58 17.38C13.73 17.53 13.92 17.6 14.11 17.6C14.3 17.6 14.49 17.53 14.64 17.38L17.68 14.34C17.75 14.27 17.8 14.19 17.84 14.1C17.92 13.92 17.92 13.71 17.85 13.53Z" fill="#171717"/>
<path d="M17.15 9.42996H8.64997L10.41 7.66998C10.7 7.37998 10.7 6.89996 10.41 6.60996C10.12 6.31996 9.63998 6.31996 9.34998 6.60996L6.30997 9.64996C6.23997 9.71996 6.18997 9.79999 6.14997 9.88999C6.06997 10.07 6.06997 10.28 6.14997 10.46C6.22997 10.64 6.36997 10.79 6.55997 10.87C6.64997 10.91 6.74998 10.93 6.84998 10.93H17.16C17.57 10.93 17.91 10.59 17.91 10.18C17.91 9.76996 17.57 9.42996 17.15 9.42996Z" fill="#171717"/>
</svg>
