<svg width="24" height="24" viewBox="0 0 24 24" fill="none" xmlns="http://www.w3.org/2000/svg">
<path opacity="0.4" d="M12 22C17.5228 22 22 17.5228 22 12C22 6.47715 17.5228 2 12 2C6.47715 2 2 6.47715 2 12C2 17.5228 6.47715 22 12 22Z" fill="#171717"/>
<path d="M15.5 11.25H10.31L12.03 9.53C12.32 9.24 12.32 8.76 12.03 8.47C11.74 8.18 11.26 8.18 10.97 8.47L7.97 11.47C7.68 11.76 7.68 12.24 7.97 12.53L10.97 15.53C11.12 15.68 11.31 15.75 11.5 15.75C11.69 15.75 11.88 15.68 12.03 15.53C12.32 15.24 12.32 14.76 12.03 14.47L10.31 12.75H15.5C15.91 12.75 16.25 12.41 16.25 12C16.25 11.59 15.91 11.25 15.5 11.25Z" fill="#171717"/>
</svg>
