<svg width="24" height="25" viewBox="0 0 24 25" fill="none" xmlns="http://www.w3.org/2000/svg">
<path d="M12 23.25C6.07 23.25 1.25 18.43 1.25 12.5C1.25 6.57 6.07 1.75 12 1.75C17.93 1.75 22.75 6.57 22.75 12.5C22.75 18.43 17.93 23.25 12 23.25ZM12 3.25C6.9 3.25 2.75 7.4 2.75 12.5C2.75 17.6 6.9 21.75 12 21.75C17.1 21.75 21.25 17.6 21.25 12.5C21.25 7.4 17.1 3.25 12 3.25Z" fill="#171717"/>
<path d="M14.5 13.25H8.5C8.09 13.25 7.75 12.91 7.75 12.5C7.75 12.09 8.09 11.75 8.5 11.75H14.5C14.91 11.75 15.25 12.09 15.25 12.5C15.25 12.91 14.91 13.25 14.5 13.25Z" fill="#171717"/>
<path d="M12.4999 16.2499C12.3099 16.2499 12.1199 16.1799 11.9699 16.0299C11.6799 15.7399 11.6799 15.2599 11.9699 14.9699L14.4399 12.4999L11.9699 10.0299C11.6799 9.73994 11.6799 9.25994 11.9699 8.96994C12.2599 8.67994 12.7399 8.67994 13.0299 8.96994L16.0299 11.9699C16.3199 12.2599 16.3199 12.7399 16.0299 13.0299L13.0299 16.0299C12.8799 16.1799 12.6899 16.2499 12.4999 16.2499Z" fill="#171717"/>
</svg>
