<svg width="24" height="25" viewBox="0 0 24 25" fill="none" xmlns="http://www.w3.org/2000/svg">
<path opacity="0.4" d="M12 22.5C17.5228 22.5 22 18.0228 22 12.5C22 6.97715 17.5228 2.5 12 2.5C6.47715 2.5 2 6.97715 2 12.5C2 18.0228 6.47715 22.5 12 22.5Z" fill="#171717"/>
<path d="M12 15.51C11.81 15.51 11.62 15.44 11.47 15.29L7.93997 11.76C7.64997 11.47 7.64997 10.99 7.93997 10.7C8.22997 10.41 8.70997 10.41 8.99997 10.7L12 13.7L15 10.7C15.29 10.41 15.77 10.41 16.06 10.7C16.35 10.99 16.35 11.47 16.06 11.76L12.53 15.29C12.38 15.44 12.19 15.51 12 15.51Z" fill="#171717"/>
</svg>
