<svg width="24" height="25" viewBox="0 0 24 25" fill="none" xmlns="http://www.w3.org/2000/svg">
<path opacity="0.4" d="M12 22.5C17.5228 22.5 22 18.0228 22 12.5C22 6.97715 17.5228 2.5 12 2.5C6.47715 2.5 2 6.97715 2 12.5C2 18.0228 6.47715 22.5 12 22.5Z" fill="#171717"/>
<path d="M13.26 16.78C13.07 16.78 12.88 16.71 12.73 16.56L9.20001 13.03C8.91001 12.74 8.91001 12.26 9.20001 11.97L12.73 8.44003C13.02 8.15003 13.5 8.15003 13.79 8.44003C14.08 8.73003 14.08 9.21003 13.79 9.50003L10.79 12.5L13.79 15.5C14.08 15.79 14.08 16.27 13.79 16.56C13.65 16.71 13.46 16.78 13.26 16.78Z" fill="#171717"/>
</svg>
