<svg width="24" height="25" viewBox="0 0 24 25" fill="none" xmlns="http://www.w3.org/2000/svg">
<path d="M12 23.25C6.07 23.25 1.25 18.43 1.25 12.5C1.25 6.57 6.07 1.75 12 1.75C17.93 1.75 22.75 6.57 22.75 12.5C22.75 18.43 17.93 23.25 12 23.25ZM12 3.25C6.9 3.25 2.75 7.4 2.75 12.5C2.75 17.6 6.9 21.75 12 21.75C17.1 21.75 21.25 17.6 21.25 12.5C21.25 7.4 17.1 3.25 12 3.25Z" fill="#171717"/>
<path d="M15.53 14.51C15.34 14.51 15.15 14.44 15 14.29L12 11.29L8.99997 14.29C8.70997 14.58 8.22997 14.58 7.93997 14.29C7.64997 14 7.64997 13.52 7.93997 13.23L11.47 9.70004C11.76 9.41004 12.24 9.41004 12.53 9.70004L16.06 13.23C16.35 13.52 16.35 14 16.06 14.29C15.91 14.44 15.72 14.51 15.53 14.51Z" fill="#171717"/>
</svg>
