<svg width="24" height="25" viewBox="0 0 24 25" fill="none" xmlns="http://www.w3.org/2000/svg">
<path d="M12 2.5C6.48 2.5 2 6.98 2 12.5C2 18.02 6.48 22.5 12 22.5C17.52 22.5 22 18.02 22 12.5C22 6.98 17.52 2.5 12 2.5ZM15.53 12.53C15.38 12.68 15.19 12.75 15 12.75C14.81 12.75 14.62 12.68 14.47 12.53L12.75 10.81V16C12.75 16.41 12.41 16.75 12 16.75C11.59 16.75 11.25 16.41 11.25 16V10.81L9.53 12.53C9.24 12.82 8.76 12.82 8.47 12.53C8.18 12.24 8.18 11.76 8.47 11.47L11.47 8.47C11.76 8.18 12.24 8.18 12.53 8.47L15.53 11.47C15.82 11.76 15.82 12.24 15.53 12.53Z" fill="#171717"/>
</svg>
