<svg width="24" height="25" viewBox="0 0 24 25" fill="none" xmlns="http://www.w3.org/2000/svg">
<path d="M12 19.25C10.58 19.25 9.28 18.35 8.34 16.72L5.67 12.09C4.72 10.46 4.6 8.89 5.31 7.66C6.02 6.43 7.45 5.75 9.33 5.75H14.67C16.55 5.75 17.98 6.43 18.69 7.66C19.4 8.89 19.27 10.47 18.33 12.1L15.66 16.73C14.72 18.35 13.42 19.25 12 19.25ZM9.33 7.25C8 7.25 7.04 7.66 6.61 8.41C6.17 9.16 6.3 10.2 6.96 11.34L9.63 15.97C10.29 17.12 11.13 17.75 11.99 17.75C12.85 17.75 13.69 17.12 14.35 15.97L17.02 11.34C17.68 10.19 17.81 9.15 17.38 8.4C16.95 7.65 15.98 7.24 14.66 7.24H9.33V7.25Z" fill="#171717"/>
</svg>
