<svg width="24" height="25" viewBox="0 0 24 25" fill="none" xmlns="http://www.w3.org/2000/svg">
<path d="M16.19 2.5H7.81C4.17 2.5 2 4.67 2 8.31V16.68C2 20.33 4.17 22.5 7.81 22.5H16.18C19.82 22.5 21.99 20.33 21.99 16.69V8.31C22 4.67 19.83 2.5 16.19 2.5ZM14.79 13.03L11.26 16.56C11.11 16.71 10.92 16.78 10.73 16.78C10.54 16.78 10.35 16.71 10.2 16.56C9.91 16.27 9.91 15.79 10.2 15.5L13.2 12.5L10.2 9.5C9.91 9.21 9.91 8.73 10.2 8.44C10.49 8.15 10.97 8.15 11.26 8.44L14.79 11.97C15.09 12.26 15.09 12.74 14.79 13.03Z" fill="#171717"/>
</svg>
