<svg width="24" height="25" viewBox="0 0 24 25" fill="none" xmlns="http://www.w3.org/2000/svg">
<path opacity="0.4" d="M7.81 2.5H16.18C19.83 2.5 22 4.67 22 8.31V16.68C22 20.32 19.83 22.49 16.19 22.49H7.81C4.17 22.5 2 20.33 2 16.69V8.31C2 4.67 4.17 2.5 7.81 2.5Z" fill="#171717"/>
<path d="M10.24 6.75C9.81998 6.75 9.48998 7.09 9.48998 7.5V15.69L7.81998 14.02C7.52998 13.73 7.04998 13.73 6.75998 14.02C6.46998 14.31 6.46998 14.79 6.75998 15.08L9.70998 18.03C9.77998 18.1 9.85998 18.15 9.94998 18.19C10.04 18.23 10.14 18.25 10.24 18.25C10.34 18.25 10.43 18.23 10.53 18.19C10.71 18.11 10.86 17.97 10.94 17.78C10.98 17.69 11 17.59 11 17.49V7.5C10.99 7.09 10.65 6.75 10.24 6.75Z" fill="#171717"/>
<path d="M17.24 9.92L14.29 6.97C14.22 6.9 14.14 6.85 14.05 6.81C13.87 6.73 13.66 6.73 13.48 6.81C13.3 6.89 13.15 7.03 13.07 7.22C13.03 7.31 13.01 7.4 13.01 7.5V17.5C13.01 17.91 13.35 18.25 13.76 18.25C14.17 18.25 14.51 17.91 14.51 17.5V9.31L16.18 10.98C16.33 11.13 16.52 11.2 16.71 11.2C16.9 11.2 17.09 11.13 17.24 10.98C17.53 10.69 17.53 10.21 17.24 9.92Z" fill="#171717"/>
</svg>
