<svg width="24" height="25" viewBox="0 0 24 25" fill="none" xmlns="http://www.w3.org/2000/svg">
<path opacity="0.4" d="M12 22.5C17.5228 22.5 22 18.0228 22 12.5C22 6.97715 17.5228 2.5 12 2.5C6.47715 2.5 2 6.97715 2 12.5C2 18.0228 6.47715 22.5 12 22.5Z" fill="#171717"/>
<path d="M10.74 16.78C10.55 16.78 10.36 16.71 10.21 16.56C9.91999 16.27 9.91999 15.79 10.21 15.5L13.21 12.5L10.21 9.50003C9.91999 9.21003 9.91999 8.73003 10.21 8.44003C10.5 8.15003 10.98 8.15003 11.27 8.44003L14.8 11.97C15.09 12.26 15.09 12.74 14.8 13.03L11.27 16.56C11.12 16.71 10.93 16.78 10.74 16.78Z" fill="#171717"/>
</svg>
