<svg width="24" height="25" viewBox="0 0 24 25" fill="none" xmlns="http://www.w3.org/2000/svg">
<path d="M12 23.25C6.07 23.25 1.25 18.43 1.25 12.5C1.25 6.57 6.07 1.75 12 1.75C17.93 1.75 22.75 6.57 22.75 12.5C22.75 18.43 17.93 23.25 12 23.25ZM12 3.25C6.9 3.25 2.75 7.4 2.75 12.5C2.75 17.6 6.9 21.75 12 21.75C17.1 21.75 21.25 17.6 21.25 12.5C21.25 7.4 17.1 3.25 12 3.25Z" fill="#171717"/>
<path d="M12 15.51C11.81 15.51 11.62 15.44 11.47 15.29L7.93997 11.76C7.64997 11.47 7.64997 10.99 7.93997 10.7C8.22997 10.41 8.70997 10.41 8.99997 10.7L12 13.7L15 10.7C15.29 10.41 15.77 10.41 16.06 10.7C16.35 10.99 16.35 11.47 16.06 11.76L12.53 15.29C12.38 15.44 12.19 15.51 12 15.51Z" fill="#171717"/>
</svg>
