<svg width="24" height="25" viewBox="0 0 24 25" fill="none" xmlns="http://www.w3.org/2000/svg">
<path d="M16.19 2.5H7.81C4.17 2.5 2 4.67 2 8.31V16.68C2 20.33 4.17 22.5 7.81 22.5H16.18C19.82 22.5 21.99 20.33 21.99 16.69V8.31C22 4.67 19.83 2.5 16.19 2.5ZM17.69 14.55C17.65 14.64 17.6 14.72 17.53 14.79L14.58 17.74C14.43 17.89 14.24 17.96 14.05 17.96C13.86 17.96 13.67 17.89 13.52 17.74C13.23 17.45 13.23 16.97 13.52 16.68L15.19 15.01H7C6.59 15.01 6.25 14.67 6.25 14.26C6.25 13.85 6.59 13.51 7 13.51H17C17.1 13.51 17.19 13.53 17.29 13.57C17.47 13.65 17.62 13.79 17.7 13.98C17.77 14.16 17.77 14.36 17.69 14.55ZM17 11.49H7C6.9 11.49 6.81 11.47 6.71 11.43C6.53 11.35 6.38 11.21 6.3 11.02C6.22 10.84 6.22 10.63 6.3 10.45C6.35 10.36 6.4 10.28 6.47 10.21L9.42 7.26C9.71 6.97 10.19 6.97 10.48 7.26C10.77 7.55 10.77 8.03 10.48 8.32L8.81 9.99H17C17.41 9.99 17.75 10.33 17.75 10.74C17.75 11.15 17.41 11.49 17 11.49Z" fill="#171717"/>
</svg>
