<svg width="24" height="25" viewBox="0 0 24 25" fill="none" xmlns="http://www.w3.org/2000/svg">
<path d="M12 23.25C6.07 23.25 1.25 18.43 1.25 12.5C1.25 6.57 6.07 1.75 12 1.75C17.93 1.75 22.75 6.57 22.75 12.5C22.75 18.43 17.93 23.25 12 23.25ZM12 3.25C6.9 3.25 2.75 7.4 2.75 12.5C2.75 17.6 6.9 21.75 12 21.75C17.1 21.75 21.25 17.6 21.25 12.5C21.25 7.4 17.1 3.25 12 3.25Z" fill="#171717"/>
<path d="M13.26 16.78C13.07 16.78 12.88 16.71 12.73 16.56L9.20001 13.03C8.91001 12.74 8.91001 12.26 9.20001 11.97L12.73 8.44003C13.02 8.15003 13.5 8.15003 13.79 8.44003C14.08 8.73003 14.08 9.21003 13.79 9.50003L10.79 12.5L13.79 15.5C14.08 15.79 14.08 16.27 13.79 16.56C13.65 16.71 13.46 16.78 13.26 16.78Z" fill="#171717"/>
</svg>
