<svg width="24" height="25" viewBox="0 0 24 25" fill="none" xmlns="http://www.w3.org/2000/svg">
<path d="M16.19 2.5H7.81C4.17 2.5 2 4.67 2 8.31V16.68C2 20.33 4.17 22.5 7.81 22.5H16.18C19.82 22.5 21.99 20.33 21.99 16.69V8.31C22 4.67 19.83 2.5 16.19 2.5ZM10.99 17.5C10.99 17.6 10.97 17.69 10.93 17.79C10.85 17.97 10.71 18.12 10.52 18.2C10.43 18.24 10.33 18.26 10.23 18.26C10.13 18.26 10.04 18.24 9.94 18.2C9.85 18.16 9.77 18.11 9.7 18.04L6.75 15.09C6.46 14.8 6.46 14.32 6.75 14.03C7.04 13.74 7.52 13.74 7.81 14.03L9.48 15.7V7.5C9.48 7.09 9.82 6.75 10.23 6.75C10.64 6.75 10.99 7.09 10.99 7.5V17.5ZM17.24 10.98C17.09 11.13 16.9 11.2 16.71 11.2C16.52 11.2 16.33 11.13 16.18 10.98L14.51 9.31V17.5C14.51 17.91 14.17 18.25 13.76 18.25C13.35 18.25 13.01 17.91 13.01 17.5V7.5C13.01 7.4 13.03 7.31 13.07 7.21C13.15 7.03 13.29 6.88 13.48 6.8C13.66 6.72 13.87 6.72 14.05 6.8C14.14 6.84 14.22 6.89 14.29 6.96L17.24 9.91C17.53 10.21 17.53 10.69 17.24 10.98Z" fill="#171717"/>
</svg>
