<svg width="24" height="25" viewBox="0 0 24 25" fill="none" xmlns="http://www.w3.org/2000/svg">
<path opacity="0.4" d="M12 22.5C17.5228 22.5 22 18.0228 22 12.5C22 6.97715 17.5228 2.5 12 2.5C6.47715 2.5 2 6.97715 2 12.5C2 18.0228 6.47715 22.5 12 22.5Z" fill="#171717"/>
<path d="M15.5299 11.4699L12.5299 8.46994C12.2399 8.17994 11.7599 8.17994 11.4699 8.46994L8.46994 11.4699C8.17994 11.7599 8.17994 12.2399 8.46994 12.5299C8.75994 12.8199 9.23994 12.8199 9.52994 12.5299L11.2499 10.8099V15.9999C11.2499 16.4099 11.5899 16.7499 11.9999 16.7499C12.4099 16.7499 12.7499 16.4099 12.7499 15.9999V10.8099L14.4699 12.5299C14.6199 12.6799 14.8099 12.7499 14.9999 12.7499C15.1899 12.7499 15.3799 12.6799 15.5299 12.5299C15.8199 12.2399 15.8199 11.7599 15.5299 11.4699Z" fill="#171717"/>
</svg>
