<svg width="24" height="25" viewBox="0 0 24 25" fill="none" xmlns="http://www.w3.org/2000/svg">
<path d="M12 2.5C6.49 2.5 2 6.99 2 12.5C2 18.01 6.49 22.5 12 22.5C17.51 22.5 22 18.01 22 12.5C22 6.99 17.51 2.5 12 2.5ZM13.79 15.5C14.08 15.79 14.08 16.27 13.79 16.56C13.64 16.71 13.45 16.78 13.26 16.78C13.07 16.78 12.88 16.71 12.73 16.56L9.2 13.03C8.91 12.74 8.91 12.26 9.2 11.97L12.73 8.44C13.02 8.15 13.5 8.15 13.79 8.44C14.08 8.73 14.08 9.21 13.79 9.5L10.79 12.5L13.79 15.5Z" fill="#171717"/>
</svg>
