<svg width="24" height="25" viewBox="0 0 24 25" fill="none" xmlns="http://www.w3.org/2000/svg">
<path d="M12 23.25C6.07 23.25 1.25 18.43 1.25 12.5C1.25 6.57 6.07 1.75 12 1.75C17.93 1.75 22.75 6.57 22.75 12.5C22.75 18.43 17.93 23.25 12 23.25ZM12 3.25C6.9 3.25 2.75 7.4 2.75 12.5C2.75 17.6 6.9 21.75 12 21.75C17.1 21.75 21.25 17.6 21.25 12.5C21.25 7.4 17.1 3.25 12 3.25Z" fill="#171717"/>
<path d="M10.74 16.78C10.55 16.78 10.36 16.71 10.21 16.56C9.91999 16.27 9.91999 15.79 10.21 15.5L13.21 12.5L10.21 9.50003C9.91999 9.21003 9.91999 8.73003 10.21 8.44003C10.5 8.15003 10.98 8.15003 11.27 8.44003L14.8 11.97C15.09 12.26 15.09 12.74 14.8 13.03L11.27 16.56C11.12 16.71 10.93 16.78 10.74 16.78Z" fill="#171717"/>
</svg>
