<svg width="24" height="25" viewBox="0 0 24 25" fill="none" xmlns="http://www.w3.org/2000/svg">
<path opacity="0.4" d="M12 22.5C17.5228 22.5 22 18.0228 22 12.5C22 6.97715 17.5228 2.5 12 2.5C6.47715 2.5 2 6.97715 2 12.5C2 18.0228 6.47715 22.5 12 22.5Z" fill="#171717"/>
<path d="M15.53 14.51C15.34 14.51 15.15 14.44 15 14.29L12 11.29L8.99997 14.29C8.70997 14.58 8.22997 14.58 7.93997 14.29C7.64997 14 7.64997 13.52 7.93997 13.23L11.47 9.70004C11.76 9.41004 12.24 9.41004 12.53 9.70004L16.06 13.23C16.35 13.52 16.35 14 16.06 14.29C15.91 14.44 15.72 14.51 15.53 14.51Z" fill="#171717"/>
</svg>
