<svg width="24" height="25" viewBox="0 0 24 25" fill="none" xmlns="http://www.w3.org/2000/svg">
<path d="M9.01 21.7501C8.82 21.7501 8.63 21.6801 8.48 21.5301L3.47 16.5201C3.18 16.2301 3.18 15.7501 3.47 15.4601C3.76 15.1701 4.24 15.1701 4.53 15.4601L9.54 20.4701C9.83 20.7601 9.83 21.2401 9.54 21.5301C9.39 21.6701 9.2 21.7501 9.01 21.7501Z" fill="#171717"/>
<path d="M9.01001 21.75C8.60001 21.75 8.26001 21.41 8.26001 21V4C8.26001 3.59 8.60001 3.25 9.01001 3.25C9.42001 3.25 9.76001 3.59 9.76001 4V21C9.76001 21.41 9.42001 21.75 9.01001 21.75Z" fill="#171717"/>
<path d="M20.01 9.75994C19.82 9.75994 19.63 9.68994 19.48 9.53994L14.47 4.52994C14.18 4.23994 14.18 3.75994 14.47 3.46994C14.76 3.17994 15.24 3.17994 15.53 3.46994L20.54 8.47994C20.83 8.76994 20.83 9.24994 20.54 9.53994C20.39 9.68994 20.2 9.75994 20.01 9.75994Z" fill="#171717"/>
<path d="M14.99 21.75C14.58 21.75 14.24 21.41 14.24 21V4C14.24 3.59 14.58 3.25 14.99 3.25C15.4 3.25 15.74 3.59 15.74 4V21C15.74 21.41 15.41 21.75 14.99 21.75Z" fill="#171717"/>
</svg>
