<svg width="24" height="25" viewBox="0 0 24 25" fill="none" xmlns="http://www.w3.org/2000/svg">
<path d="M15.49 21.2599C15.3 21.2599 15.11 21.1899 14.96 21.0399C14.67 20.7499 14.67 20.2699 14.96 19.9799L19.97 14.9699C20.26 14.6799 20.74 14.6799 21.03 14.9699C21.32 15.2599 21.32 15.7399 21.03 16.0299L16.02 21.0399C15.87 21.1799 15.68 21.2599 15.49 21.2599Z" fill="#171717"/>
<path d="M20.5 16.24H3.5C3.09 16.24 2.75 15.9 2.75 15.49C2.75 15.08 3.09 14.74 3.5 14.74H20.5C20.91 14.74 21.25 15.08 21.25 15.49C21.25 15.9 20.91 16.24 20.5 16.24Z" fill="#171717"/>
<path d="M3.5 10.2599C3.31 10.2599 3.12 10.1899 2.97 10.0399C2.68 9.74994 2.68 9.26994 2.97 8.97994L7.98 3.96994C8.27 3.67994 8.75 3.67994 9.04 3.96994C9.33 4.25994 9.33 4.73994 9.04 5.02994L4.03 10.0399C3.89 10.1799 3.69 10.2599 3.5 10.2599Z" fill="#171717"/>
<path d="M20.5 10.26H3.5C3.09 10.26 2.75 9.92001 2.75 9.51001C2.75 9.10001 3.09 8.76001 3.5 8.76001H20.5C20.91 8.76001 21.25 9.10001 21.25 9.51001C21.25 9.92001 20.91 10.26 20.5 10.26Z" fill="#171717"/>
</svg>
