<svg width="24" height="25" viewBox="0 0 24 25" fill="none" xmlns="http://www.w3.org/2000/svg">
<path opacity="0.4" d="M16.19 2.5H7.81C4.17 2.5 2 4.67 2 8.31V16.68C2 20.33 4.17 22.5 7.81 22.5H16.18C19.82 22.5 21.99 20.33 21.99 16.69V8.31C22 4.67 19.83 2.5 16.19 2.5Z" fill="#171717"/>
<path d="M10.74 16.78C10.55 16.78 10.36 16.71 10.21 16.56C9.91999 16.27 9.91999 15.79 10.21 15.5L13.21 12.5L10.21 9.50003C9.91999 9.21003 9.91999 8.73003 10.21 8.44003C10.5 8.15003 10.98 8.15003 11.27 8.44003L14.8 11.97C15.09 12.26 15.09 12.74 14.8 13.03L11.27 16.56C11.12 16.71 10.93 16.78 10.74 16.78Z" fill="#171717"/>
</svg>
