<svg width="24" height="25" viewBox="0 0 24 25" fill="none" xmlns="http://www.w3.org/2000/svg">
<path opacity="0.4" d="M7.81 2.5H16.18C19.83 2.5 22 4.67 22 8.31V16.68C22 20.32 19.83 22.49 16.19 22.49H7.81C4.17 22.5 2 20.33 2 16.69V8.31C2 4.67 4.17 2.5 7.81 2.5Z" fill="#171717"/>
<path d="M17.69 13.98C17.61 13.8 17.47 13.65 17.28 13.57C17.19 13.53 17.09 13.51 16.99 13.51H7C6.59 13.51 6.25 13.85 6.25 14.26C6.25 14.67 6.59 15.01 7 15.01H15.19L13.52 16.68C13.23 16.97 13.23 17.45 13.52 17.74C13.67 17.89 13.86 17.96 14.05 17.96C14.24 17.96 14.43 17.89 14.58 17.74L17.53 14.79C17.6 14.72 17.65 14.64 17.69 14.55C17.77 14.36 17.77 14.16 17.69 13.98Z" fill="#171717"/>
<path d="M6.31 11.02C6.39 11.2 6.53 11.35 6.72 11.43C6.81 11.47 6.9 11.49 7 11.49H17C17.41 11.49 17.75 11.15 17.75 10.74C17.75 10.33 17.41 9.98998 17 9.98998H8.81L10.48 8.31998C10.77 8.02998 10.77 7.54998 10.48 7.25998C10.19 6.96998 9.71 6.96998 9.42 7.25998L6.47 10.21C6.4 10.28 6.35 10.36 6.31 10.45C6.23 10.64 6.23 10.84 6.31 11.02Z" fill="#171717"/>
</svg>
