<svg width="24" height="25" viewBox="0 0 24 25" fill="none" xmlns="http://www.w3.org/2000/svg">
<path d="M15 23.25H9C3.57 23.25 1.25 20.93 1.25 15.5V9.5C1.25 4.07 3.57 1.75 9 1.75H15C20.43 1.75 22.75 4.07 22.75 9.5V15.5C22.75 20.93 20.43 23.25 15 23.25ZM9 3.25C4.39 3.25 2.75 4.89 2.75 9.5V15.5C2.75 20.11 4.39 21.75 9 21.75H15C19.61 21.75 21.25 20.11 21.25 15.5V9.5C21.25 4.89 19.61 3.25 15 3.25H9Z" fill="#171717"/>
<path d="M10.74 16.78C10.55 16.78 10.36 16.71 10.21 16.56C9.91999 16.27 9.91999 15.79 10.21 15.5L13.21 12.5L10.21 9.50003C9.91999 9.21003 9.91999 8.73003 10.21 8.44003C10.5 8.15003 10.98 8.15003 11.27 8.44003L14.8 11.97C15.09 12.26 15.09 12.74 14.8 13.03L11.27 16.56C11.12 16.71 10.93 16.78 10.74 16.78Z" fill="#171717"/>
</svg>
