<svg width="24" height="25" viewBox="0 0 24 25" fill="none" xmlns="http://www.w3.org/2000/svg">
<path opacity="0.4" d="M7.81 2.5H16.18C19.83 2.5 22 4.67 22 8.31V16.68C22 20.32 19.83 22.49 16.19 22.49H7.81C4.17 22.5 2 20.33 2 16.69V8.31C2 4.67 4.17 2.5 7.81 2.5Z" fill="#171717"/>
<path d="M5.47 11.97L9.76 7.68002C10.05 7.39002 10.53 7.39002 10.82 7.68002C11.11 7.97002 11.11 8.45002 10.82 8.74002L7.81 11.75H18C18.41 11.75 18.75 12.09 18.75 12.5C18.75 12.91 18.41 13.25 18 13.25H7.81L10.82 16.26C11.11 16.55 11.11 17.03 10.82 17.32C10.67 17.47 10.48 17.54 10.29 17.54C10.1 17.54 9.91 17.47 9.76 17.32L5.47 13.03C5.33 12.89 5.25 12.7 5.25 12.5C5.25 12.3 5.33 12.11 5.47 11.97Z" fill="#171717"/>
</svg>
