<svg width="24" height="25" viewBox="0 0 24 25" fill="none" xmlns="http://www.w3.org/2000/svg">
<path d="M16.19 2.5H7.81C4.17 2.5 2 4.67 2 8.31V16.68C2 20.33 4.17 22.5 7.81 22.5H16.18C19.82 22.5 21.99 20.33 21.99 16.69V8.31C22 4.67 19.83 2.5 16.19 2.5ZM18.53 13.03L14.24 17.32C14.09 17.47 13.9 17.54 13.71 17.54C13.52 17.54 13.33 17.47 13.18 17.32C12.89 17.03 12.89 16.55 13.18 16.26L16.19 13.25H6C5.59 13.25 5.25 12.91 5.25 12.5C5.25 12.09 5.59 11.75 6 11.75H16.19L13.18 8.74C12.89 8.45 12.89 7.97 13.18 7.68C13.47 7.39 13.95 7.39 14.24 7.68L18.53 11.97C18.67 12.11 18.75 12.3 18.75 12.5C18.75 12.7 18.67 12.89 18.53 13.03Z" fill="#171717"/>
</svg>
