<svg width="24" height="25" viewBox="0 0 24 25" fill="none" xmlns="http://www.w3.org/2000/svg">
<path opacity="0.4" d="M16.19 2.5H7.81C4.17 2.5 2 4.67 2 8.31V16.68C2 20.33 4.17 22.5 7.81 22.5H16.18C19.82 22.5 21.99 20.33 21.99 16.69V8.31C22 4.67 19.83 2.5 16.19 2.5Z" fill="#171717"/>
<path d="M18.53 11.97L14.24 7.68002C13.95 7.39002 13.47 7.39002 13.18 7.68002C12.89 7.97002 12.89 8.45002 13.18 8.74002L16.19 11.75H6C5.59 11.75 5.25 12.09 5.25 12.5C5.25 12.91 5.59 13.25 6 13.25H16.19L13.18 16.26C12.89 16.55 12.89 17.03 13.18 17.32C13.33 17.47 13.52 17.54 13.71 17.54C13.9 17.54 14.09 17.47 14.24 17.32L18.53 13.03C18.67 12.89 18.75 12.7 18.75 12.5C18.75 12.3 18.67 12.11 18.53 11.97Z" fill="#171717"/>
</svg>
