<svg width="24" height="25" viewBox="0 0 24 25" fill="none" xmlns="http://www.w3.org/2000/svg">
<path opacity="0.4" d="M2 16.69V8.31C2 4.67 4.17 2.5 7.81 2.5H16.18C19.83 2.5 22 4.67 22 8.31V16.68C22 20.32 19.83 22.49 16.19 22.49H7.81C4.17 22.5 2 20.33 2 16.69Z" fill="#171717"/>
<path d="M11.47 19.03L7.18 14.74C6.89 14.45 6.89 13.97 7.18 13.68C7.47 13.39 7.95 13.39 8.24 13.68L11.25 16.69V6.5C11.25 6.09 11.59 5.75 12 5.75C12.41 5.75 12.75 6.09 12.75 6.5V16.69L15.76 13.68C16.05 13.39 16.53 13.39 16.82 13.68C16.97 13.83 17.04 14.02 17.04 14.21C17.04 14.4 16.97 14.59 16.82 14.74L12.53 19.03C12.39 19.17 12.2 19.25 12 19.25C11.8 19.25 11.61 19.17 11.47 19.03Z" fill="#171717"/>
</svg>
