<svg width="24" height="25" viewBox="0 0 24 25" fill="none" xmlns="http://www.w3.org/2000/svg">
<path d="M16.19 2.5H7.81C4.17 2.5 2 4.67 2 8.31V16.68C2 20.33 4.17 22.5 7.81 22.5H16.18C19.82 22.5 21.99 20.33 21.99 16.69V8.31C22 4.67 19.83 2.5 16.19 2.5ZM16.82 14.74L12.53 19.03C12.39 19.17 12.2 19.25 12 19.25C11.8 19.25 11.61 19.17 11.47 19.03L7.18 14.74C6.89 14.45 6.89 13.97 7.18 13.68C7.47 13.39 7.95 13.39 8.24 13.68L11.25 16.69V6.5C11.25 6.09 11.59 5.75 12 5.75C12.41 5.75 12.75 6.09 12.75 6.5V16.69L15.76 13.68C16.05 13.39 16.53 13.39 16.82 13.68C16.97 13.83 17.04 14.02 17.04 14.21C17.04 14.4 16.96 14.6 16.82 14.74Z" fill="#171717"/>
</svg>
