<svg width="24" height="25" viewBox="0 0 24 25" fill="none" xmlns="http://www.w3.org/2000/svg">
<path d="M14.43 19.32C14.24 19.32 14.05 19.25 13.9 19.1C13.61 18.81 13.61 18.33 13.9 18.04L19.44 12.5L13.9 6.96C13.61 6.67 13.61 6.19 13.9 5.9C14.19 5.61 14.67 5.61 14.96 5.9L21.03 11.97C21.32 12.26 21.32 12.74 21.03 13.03L14.96 19.1C14.81 19.25 14.62 19.32 14.43 19.32Z" fill="#171717"/>
<path d="M20.33 13.25H3.5C3.09 13.25 2.75 12.91 2.75 12.5C2.75 12.09 3.09 11.75 3.5 11.75H20.33C20.74 11.75 21.08 12.09 21.08 12.5C21.08 12.91 20.74 13.25 20.33 13.25Z" fill="#171717"/>
</svg>
