<svg width="24" height="25" viewBox="0 0 24 25" fill="none" xmlns="http://www.w3.org/2000/svg">
<path opacity="0.4" d="M22 8.31V16.68C22 20.32 19.83 22.49 16.19 22.49H7.81C4.17 22.5 2 20.33 2 16.69V8.31C2 4.67 4.17 2.5 7.81 2.5H16.18C19.83 2.5 22 4.67 22 8.31Z" fill="#171717"/>
<path d="M12.53 5.97L16.82 10.26C17.11 10.55 17.11 11.03 16.82 11.32C16.53 11.61 16.05 11.61 15.76 11.32L12.75 8.31V18.5C12.75 18.91 12.41 19.25 12 19.25C11.59 19.25 11.25 18.91 11.25 18.5V8.31L8.24 11.32C7.95 11.61 7.47 11.61 7.18 11.32C7.03 11.17 6.96 10.98 6.96 10.79C6.96 10.6 7.04 10.4 7.18 10.26L11.47 5.97C11.61 5.83 11.8 5.75 12 5.75C12.2 5.75 12.39 5.83 12.53 5.97Z" fill="#171717"/>
</svg>
