<svg width="24" height="25" viewBox="0 0 24 25" fill="none" xmlns="http://www.w3.org/2000/svg">
<path d="M12 21.75C11.81 21.75 11.62 21.68 11.47 21.53L5.4 15.46C5.11 15.17 5.11 14.69 5.4 14.4C5.69 14.11 6.17 14.11 6.46 14.4L12 19.94L17.54 14.4C17.83 14.11 18.31 14.11 18.6 14.4C18.89 14.69 18.89 15.17 18.6 15.46L12.53 21.53C12.38 21.68 12.19 21.75 12 21.75Z" fill="#171717"/>
<path d="M12 21.58C11.59 21.58 11.25 21.24 11.25 20.83V4C11.25 3.59 11.59 3.25 12 3.25C12.41 3.25 12.75 3.59 12.75 4V20.83C12.75 21.24 12.41 21.58 12 21.58Z" fill="#171717"/>
</svg>
