<svg width="24" height="24" viewBox="0 0 24 24" fill="none" xmlns="http://www.w3.org/2000/svg">
<path opacity="0.4" d="M16.19 2H7.82002C4.18002 2 2.01001 4.17 2.01001 7.81V16.18C2.01001 19.82 4.18002 21.99 7.82002 21.99H16.19C19.83 21.99 22 19.82 22 16.18V7.81C22 4.17 19.83 2 16.19 2Z" fill="#171717"/>
<path d="M13.02 12.59H10.59C10.18 12.59 9.84 12.93 9.84 13.34C9.84 13.75 10.18 14.09 10.59 14.09H14.83C14.93 14.09 15.02 14.07 15.12 14.03C15.3 13.95 15.45 13.81 15.53 13.62C15.57 13.53 15.59 13.43 15.59 13.33V9.09999C15.59 8.68999 15.25 8.34999 14.84 8.34999C14.43 8.34999 14.09 8.68999 14.09 9.09999V11.53L9.71001 7.15C9.42001 6.86 8.94 6.86 8.65 7.15C8.36 7.44 8.36 7.91999 8.65 8.20999L13.02 12.59Z" fill="#171717"/>
<path d="M18.71 16.28C18.58 15.89 18.16 15.68 17.76 15.81C14.04 17.05 9.94999 17.05 6.22999 15.81C5.83999 15.68 5.41 15.89 5.28 16.28C5.15 16.67 5.36 17.1 5.75 17.23C7.76 17.9 9.87 18.24 11.99 18.24C14.11 18.24 16.22 17.9 18.23 17.23C18.63 17.09 18.84 16.67 18.71 16.28Z" fill="#171717"/>
</svg>
