<svg width="24" height="25" viewBox="0 0 24 25" fill="none" xmlns="http://www.w3.org/2000/svg">
<path d="M16.87 19.5601H8.87C5.7 19.5601 3.12 16.9801 3.12 13.8101C3.12 10.6401 5.7 8.06006 8.87 8.06006H19.87C20.28 8.06006 20.62 8.40006 20.62 8.81006C20.62 9.22006 20.28 9.56006 19.87 9.56006H8.87C6.53 9.56006 4.62 11.4701 4.62 13.8101C4.62 16.1501 6.53 18.0601 8.87 18.0601H16.87C17.28 18.0601 17.62 18.4001 17.62 18.8101C17.62 19.2201 17.29 19.5601 16.87 19.5601Z" fill="#171717"/>
<path d="M17.57 12.06C17.38 12.06 17.19 11.99 17.04 11.84C16.75 11.55 16.75 11.07 17.04 10.78L19.07 8.75001L17.04 6.72C16.75 6.43 16.75 5.95 17.04 5.66C17.33 5.37 17.81 5.37 18.1 5.66L20.66 8.22C20.95 8.51 20.95 8.99 20.66 9.28L18.1 11.84C17.95 11.99 17.76 12.06 17.57 12.06Z" fill="#171717"/>
</svg>
