<svg width="24" height="25" viewBox="0 0 24 25" fill="none" xmlns="http://www.w3.org/2000/svg">
<path opacity="0.4" d="M7.81 2.5H16.18C19.83 2.5 22 4.67 22 8.31V16.68C22 20.32 19.83 22.49 16.19 22.49H7.81C4.17 22.5 2 20.33 2 16.69V8.31C2 4.67 4.17 2.5 7.81 2.5Z" fill="#171717"/>
<path d="M17.53 9.66006L15.96 8.09006C15.67 7.80006 15.19 7.80006 14.9 8.09006C14.61 8.38006 14.61 8.86006 14.9 9.15006L15.23 9.48006H10.08C7.97 9.48006 6.25 11.2001 6.25 13.3101C6.25 15.4201 7.97 17.1401 10.08 17.1401H15C15.41 17.1401 15.75 16.8001 15.75 16.3901C15.75 15.9801 15.41 15.6401 15 15.6401H10.08C8.8 15.6401 7.75 14.6001 7.75 13.3101C7.75 12.0201 8.79 10.9801 10.08 10.9801H15.16L14.9 11.2401C14.61 11.5301 14.61 12.0101 14.9 12.3001C15.05 12.4501 15.24 12.5201 15.43 12.5201C15.62 12.5201 15.81 12.4501 15.96 12.3001L17.53 10.7301C17.82 10.4301 17.82 9.96006 17.53 9.66006Z" fill="#171717"/>
</svg>
