<svg width="24" height="25" viewBox="0 0 24 25" fill="none" xmlns="http://www.w3.org/2000/svg">
<path d="M16.19 2.5H7.81C4.17 2.5 2 4.67 2 8.31V16.68C2 20.33 4.17 22.5 7.81 22.5H16.18C19.82 22.5 21.99 20.33 21.99 16.69V8.31C22 4.67 19.83 2.5 16.19 2.5ZM17.53 10.72L15.96 12.29C15.81 12.44 15.62 12.51 15.43 12.51C15.24 12.51 15.05 12.44 14.9 12.29C14.61 12 14.61 11.52 14.9 11.23L15.16 10.97H10.08C8.8 10.97 7.75 12.01 7.75 13.3C7.75 14.59 8.79 15.63 10.08 15.63H15C15.41 15.63 15.75 15.97 15.75 16.38C15.75 16.79 15.41 17.13 15 17.13H10.08C7.97 17.13 6.25 15.41 6.25 13.3C6.25 11.19 7.97 9.47 10.08 9.47H15.23L14.9 9.15C14.61 8.86 14.61 8.38 14.9 8.09C15.19 7.8 15.67 7.8 15.96 8.09L17.53 9.66C17.82 9.96 17.82 10.43 17.53 10.72Z" fill="#171717"/>
</svg>
