<svg width="24" height="25" viewBox="0 0 24 25" fill="none" xmlns="http://www.w3.org/2000/svg">
<path opacity="0.4" d="M22 8.31V16.68C22 20.32 19.83 22.49 16.19 22.49H7.81C4.17 22.5 2 20.33 2 16.69V8.31C2 4.67 4.17 2.5 7.81 2.5H16.18C19.83 2.5 22 4.67 22 8.31Z" fill="#171717"/>
<path d="M12 18.75C10.21 18.75 8.81 17.86 7.86 16.98V17.69C7.86 18.1 7.52 18.44 7.11 18.44C6.7 18.44 6.36 18.1 6.36 17.69V14.94C6.36 14.53 6.7 14.19 7.11 14.19H9.59C10 14.19 10.34 14.53 10.34 14.94C10.34 15.35 10 15.69 9.59 15.69H8.69C9.43 16.43 10.58 17.25 12 17.25C14.62 17.25 16.75 15.12 16.75 12.5C16.75 12.09 17.09 11.75 17.5 11.75C17.91 11.75 18.25 12.09 18.25 12.5C18.25 15.95 15.45 18.75 12 18.75ZM6.5 13.25C6.09 13.25 5.75 12.91 5.75 12.5C5.75 9.05 8.55 6.25 12 6.25C14.15 6.25 15.73 7.18 16.75 8.07V7.31C16.75 6.9 17.09 6.56 17.5 6.56C17.91 6.56 18.25 6.9 18.25 7.31V10.05C18.25 10.08 18.25 10.11 18.25 10.13C18.24 10.24 18.21 10.34 18.16 10.43C18.11 10.52 18.04 10.6 17.95 10.67C17.88 10.72 17.8 10.76 17.71 10.79C17.64 10.81 17.57 10.82 17.5 10.82H15.07C14.66 10.82 14.32 10.48 14.32 10.07C14.32 9.66 14.66 9.32 15.07 9.32H15.9C15.1 8.58 13.81 7.76 12.02 7.76C9.4 7.76 7.27 9.89 7.27 12.51C7.25 12.91 6.91 13.25 6.5 13.25Z" fill="#171717"/>
</svg>
