<svg width="24" height="25" viewBox="0 0 24 25" fill="none" xmlns="http://www.w3.org/2000/svg">
<path d="M12 23.25C6.79996 23.25 2.57996 19.02 2.57996 13.83C2.57996 8.64002 6.79996 4.40002 12 4.40002C13.07 4.40002 14.11 4.55002 15.11 4.86002C15.51 4.98002 15.73 5.40002 15.61 5.80002C15.49 6.20002 15.07 6.42002 14.67 6.30002C13.82 6.04002 12.92 5.90002 12 5.90002C7.62996 5.90002 4.07996 9.45002 4.07996 13.82C4.07996 18.19 7.62996 21.74 12 21.74C16.37 21.74 19.92 18.19 19.92 13.82C19.92 12.24 19.46 10.72 18.59 9.42002C18.36 9.08002 18.45 8.61002 18.8 8.38002C19.14 8.15002 19.61 8.24002 19.84 8.59002C20.88 10.14 21.43 11.95 21.43 13.83C21.42 19.02 17.2 23.25 12 23.25Z" fill="#171717"/>
<path d="M16.13 6.56996C15.92 6.56996 15.71 6.47996 15.56 6.30996L12.67 2.98996C12.4 2.67996 12.43 2.19996 12.74 1.92996C13.05 1.65996 13.53 1.68996 13.8 1.99996L16.69 5.31996C16.96 5.62996 16.93 6.10996 16.62 6.37996C16.49 6.50996 16.31 6.56996 16.13 6.56996Z" fill="#171717"/>
<path d="M12.76 9.02996C12.53 9.02996 12.3 8.91996 12.15 8.71996C11.91 8.38996 11.98 7.91996 12.31 7.66996L15.68 5.20996C16.01 4.95996 16.48 5.03996 16.73 5.36996C16.98 5.69996 16.9 6.16996 16.57 6.41996L13.2 8.88996C13.07 8.98996 12.92 9.02996 12.76 9.02996Z" fill="#171717"/>
</svg>
