<svg width="24" height="25" viewBox="0 0 24 25" fill="none" xmlns="http://www.w3.org/2000/svg">
<path opacity="0.4" d="M7.81 2.5H16.18C19.83 2.5 22 4.67 22 8.31V16.68C22 20.32 19.83 22.49 16.19 22.49H7.81C4.17 22.5 2 20.33 2 16.69V8.31C2 4.67 4.17 2.5 7.81 2.5Z" fill="#171717"/>
<path d="M12 19.08C8.83 19.08 6.25 16.5 6.25 13.33C6.25 12.19 6.58 11.08 7.22 10.14C7.45 9.80002 7.92 9.70002 8.26 9.93002C8.6 10.16 8.7 10.63 8.47 10.97C8 11.67 7.76 12.49 7.76 13.33C7.76 15.67 9.67 17.58 12.01 17.58C14.35 17.58 16.26 15.67 16.26 13.33C16.26 11.09 14.52 9.25002 12.32 9.09002L12.73 9.39002C13.06 9.63002 13.14 10.1 12.89 10.44C12.65 10.77 12.18 10.85 11.84 10.6L9.9 9.19002C9.83 9.14002 9.77 9.08002 9.72 9.01002C9.71 9.00002 9.7 8.99002 9.69 8.97002C9.65 8.90002 9.62 8.82002 9.6 8.74002C9.58 8.64002 9.58 8.55002 9.59 8.45002C9.6 8.41002 9.61 8.37002 9.62 8.33002C9.64 8.26002 9.68 8.20002 9.72 8.13002C9.74 8.12002 9.76 8.10002 9.78 8.08002L11.44 6.18002C11.71 5.87002 12.19 5.84002 12.5 6.11002C12.81 6.38002 12.84 6.86002 12.57 7.17002L12.2 7.60002C15.28 7.70002 17.76 10.24 17.76 13.35C17.75 16.5 15.17 19.08 12 19.08Z" fill="#171717"/>
</svg>
