<svg width="24" height="25" viewBox="0 0 24 25" fill="none" xmlns="http://www.w3.org/2000/svg">
<path d="M16.19 2.5H7.81C4.17 2.5 2 4.67 2 8.31V16.68C2 20.33 4.17 22.5 7.81 22.5H16.18C19.82 22.5 21.99 20.33 21.99 16.69V8.31C22 4.67 19.83 2.5 16.19 2.5ZM12 19.08C8.83 19.08 6.25 16.5 6.25 13.33C6.25 10.22 8.73 7.69 11.81 7.58L11.44 7.15C11.17 6.84 11.2 6.36 11.51 6.09C11.82 5.82 12.3 5.85 12.57 6.16L14.23 8.06C14.25 8.08 14.26 8.1 14.28 8.12C14.32 8.18 14.36 8.25 14.38 8.32C14.39 8.36 14.4 8.4 14.41 8.44C14.43 8.53 14.42 8.63 14.4 8.72C14.38 8.8 14.35 8.88 14.31 8.96C14.3 8.98 14.28 9 14.27 9.02C14.23 9.08 14.17 9.13 14.11 9.17C14.11 9.17 14.1 9.17 14.1 9.18L12.16 10.6C11.82 10.84 11.36 10.77 11.11 10.44C10.87 10.11 10.94 9.64 11.27 9.39L11.68 9.09C9.48 9.25 7.74 11.09 7.74 13.33C7.74 15.67 9.65 17.58 11.99 17.58C14.33 17.58 16.24 15.67 16.24 13.33C16.24 12.49 15.99 11.67 15.53 10.97C15.3 10.63 15.39 10.16 15.74 9.93C16.09 9.7 16.55 9.79 16.78 10.14C17.41 11.09 17.75 12.19 17.75 13.33C17.75 16.5 15.17 19.08 12 19.08Z" fill="#171717"/>
</svg>
