<svg width="24" height="25" viewBox="0 0 24 25" fill="none" xmlns="http://www.w3.org/2000/svg">
<path d="M12 23.25C6.79996 23.25 2.57996 19.02 2.57996 13.83C2.57996 11.96 3.12996 10.15 4.16996 8.59001C4.39996 8.25001 4.86996 8.15001 5.20996 8.38001C5.54996 8.61001 5.64996 9.08001 5.41996 9.42001C4.54996 10.72 4.08996 12.25 4.08996 13.82C4.08996 18.19 7.63996 21.74 12.01 21.74C16.38 21.74 19.93 18.19 19.93 13.82C19.93 9.45001 16.37 5.90001 12 5.90001C11.08 5.90001 10.18 6.03001 9.32996 6.29001C8.92996 6.41001 8.50996 6.19001 8.38996 5.79001C8.26996 5.39001 8.48996 4.97001 8.88996 4.85001C9.88996 4.55001 10.93 4.39001 12 4.39001C17.2 4.39001 21.42 8.62001 21.42 13.81C21.42 19 17.2 23.25 12 23.25Z" fill="#171717"/>
<path d="M7.86999 6.57C7.69999 6.57 7.51999 6.51 7.37999 6.39C7.05999 6.11 7.02999 5.64 7.29999 5.33L10.19 2.01C10.46 1.7 10.94 1.66 11.25 1.94C11.56 2.21 11.59 2.69 11.32 3L8.42999 6.31C8.27999 6.48 8.06999 6.57 7.86999 6.57Z" fill="#171717"/>
<path d="M11.24 9.03C11.09 9.03 10.93 8.98 10.8 8.89L7.41995 6.42C7.08995 6.18 7.01995 5.71 7.25995 5.38C7.49995 5.04 7.96995 4.97 8.30995 5.21L11.68 7.67C12.01 7.91 12.09 8.38 11.84 8.72C11.7 8.93 11.47 9.03 11.24 9.03Z" fill="#171717"/>
</svg>
