<svg width="24" height="25" viewBox="0 0 24 25" fill="none" xmlns="http://www.w3.org/2000/svg">
<path d="M16.19 2.5H7.81C4.17 2.5 2 4.67 2 8.31V16.68C2 20.33 4.17 22.5 7.81 22.5H16.18C19.82 22.5 21.99 20.33 21.99 16.69V8.31C22 4.67 19.83 2.5 16.19 2.5ZM12 19.08C8.83 19.08 6.25 16.5 6.25 13.33C6.25 12.19 6.58 11.08 7.22 10.14C7.45 9.8 7.92 9.7 8.26 9.93C8.6 10.16 8.7 10.63 8.47 10.97C8 11.67 7.76 12.49 7.76 13.33C7.76 15.67 9.67 17.58 12.01 17.58C14.35 17.58 16.26 15.67 16.26 13.33C16.26 11.09 14.52 9.25 12.32 9.09L12.73 9.39C13.06 9.63 13.14 10.1 12.89 10.44C12.65 10.77 12.18 10.85 11.84 10.6L9.9 9.19C9.83 9.14 9.77 9.08 9.72 9.01C9.71 9 9.7 8.99 9.69 8.97C9.65 8.9 9.62 8.82 9.6 8.74C9.58 8.64 9.58 8.55 9.59 8.45C9.6 8.41 9.61 8.37 9.62 8.33C9.64 8.26 9.68 8.2 9.72 8.13C9.74 8.12 9.76 8.1 9.78 8.08L11.44 6.18C11.71 5.87 12.19 5.84 12.5 6.11C12.81 6.38 12.84 6.86 12.57 7.17L12.2 7.6C15.28 7.7 17.76 10.24 17.76 13.35C17.75 16.5 15.17 19.08 12 19.08Z" fill="#171717"/>
</svg>
