<svg width="24" height="25" viewBox="0 0 24 25" fill="none" xmlns="http://www.w3.org/2000/svg">
<path d="M15.13 19.5601H7.13C6.72 19.5601 6.38 19.2201 6.38 18.8101C6.38 18.4001 6.72 18.0601 7.13 18.0601H15.13C17.47 18.0601 19.38 16.1501 19.38 13.8101C19.38 11.4701 17.47 9.56006 15.13 9.56006H4.13C3.72 9.56006 3.38 9.22006 3.38 8.81006C3.38 8.40006 3.72 8.06006 4.13 8.06006H15.13C18.3 8.06006 20.88 10.6401 20.88 13.8101C20.88 16.9801 18.3 19.5601 15.13 19.5601Z" fill="#171717"/>
<path d="M6.43 12.06C6.24 12.06 6.05 11.99 5.9 11.84L3.34 9.28C3.05 8.99 3.05 8.51 3.34 8.22L5.9 5.66C6.19 5.37 6.67 5.37 6.96 5.66C7.25 5.95 7.25 6.43 6.96 6.72L4.93 8.75001L6.96 10.78C7.25 11.07 7.25 11.55 6.96 11.84C6.82 11.99 6.62 12.06 6.43 12.06Z" fill="#171717"/>
</svg>
