<svg width="24" height="25" viewBox="0 0 24 25" fill="none" xmlns="http://www.w3.org/2000/svg">
<path opacity="0.4" d="M7.81 2.5H16.18C19.83 2.5 22 4.67 22 8.31V16.68C22 20.32 19.83 22.49 16.19 22.49H7.81C4.17 22.5 2 20.33 2 16.69V8.31C2 4.67 4.17 2.5 7.81 2.5Z" fill="#171717"/>
<path d="M13.92 9.48006H8.77L9.1 9.15006C9.39 8.86006 9.39 8.38006 9.1 8.09006C8.81 7.80006 8.33 7.80006 8.04 8.09006L6.47 9.66006C6.18 9.95006 6.18 10.4301 6.47 10.7201L8.04 12.2901C8.19 12.4401 8.38 12.5101 8.57 12.5101C8.76 12.5101 8.95 12.4401 9.1 12.2901C9.39 12.0001 9.39 11.5201 9.1 11.2301L8.84 10.9701H13.92C15.2 10.9701 16.25 12.0101 16.25 13.3001C16.25 14.5901 15.21 15.6301 13.92 15.6301H9C8.59 15.6301 8.25 15.9701 8.25 16.3801C8.25 16.7901 8.59 17.1301 9 17.1301H13.92C16.03 17.1301 17.75 15.4101 17.75 13.3001C17.75 11.1901 16.03 9.48006 13.92 9.48006Z" fill="#171717"/>
</svg>
