<svg width="24" height="25" viewBox="0 0 24 25" fill="none" xmlns="http://www.w3.org/2000/svg">
<path d="M16.19 2.5H7.81C4.17 2.5 2 4.67 2 8.31V16.68C2 20.33 4.17 22.5 7.81 22.5H16.18C19.82 22.5 21.99 20.33 21.99 16.69V8.31C22 4.67 19.83 2.5 16.19 2.5ZM13.92 17.13H9C8.59 17.13 8.25 16.79 8.25 16.38C8.25 15.97 8.59 15.63 9 15.63H13.92C15.2 15.63 16.25 14.59 16.25 13.3C16.25 12.01 15.21 10.97 13.92 10.97H8.85L9.11 11.23C9.4 11.52 9.4 12 9.11 12.29C8.96 12.44 8.77 12.51 8.58 12.51C8.39 12.51 8.2 12.44 8.05 12.29L6.48 10.72C6.19 10.43 6.19 9.95 6.48 9.66L8.05 8.09C8.34 7.8 8.82 7.8 9.11 8.09C9.4 8.38 9.4 8.86 9.11 9.15L8.77 9.48H13.92C16.03 9.48 17.75 11.2 17.75 13.31C17.75 15.42 16.03 17.13 13.92 17.13Z" fill="#171717"/>
</svg>
