<svg width="25" height="24" viewBox="0 0 25 24" fill="none" xmlns="http://www.w3.org/2000/svg">
<path opacity="0.4" d="M16.8357 2H7.19569C5.06569 2 3.33569 3.74 3.33569 5.86V19.95C3.33569 21.75 4.62569 22.51 6.20569 21.64L11.0857 18.93C11.6057 18.64 12.4457 18.64 12.9557 18.93L17.8357 21.64C19.4157 22.52 20.7057 21.76 20.7057 19.95V5.86C20.6957 3.74 18.9657 2 16.8357 2Z" fill="#171717"/>
<path d="M12.0156 10.2801C10.9956 10.2801 9.97563 10.1001 9.00563 9.75005C8.61563 9.61005 8.41563 9.18005 8.55563 8.79005C8.70563 8.40005 9.13563 8.20005 9.52563 8.34005C11.1356 8.92005 12.9056 8.92005 14.5156 8.34005C14.9056 8.20005 15.3356 8.40005 15.4756 8.79005C15.6156 9.18005 15.4156 9.61005 15.0256 9.75005C14.0556 10.1001 13.0356 10.2801 12.0156 10.2801Z" fill="#171717"/>
</svg>
