<svg width="25" height="24" viewBox="0 0 25 24" fill="none" xmlns="http://www.w3.org/2000/svg">
<path d="M16.8357 2H7.19569C5.06569 2 3.33569 3.74 3.33569 5.86V19.95C3.33569 21.75 4.62569 22.51 6.20569 21.64L11.0857 18.93C11.6057 18.64 12.4457 18.64 12.9557 18.93L17.8357 21.64C19.4157 22.52 20.7057 21.76 20.7057 19.95V5.86C20.6957 3.74 18.9657 2 16.8357 2ZM15.0257 9.75C14.0557 10.1 13.0357 10.28 12.0157 10.28C10.9957 10.28 9.97569 10.1 9.00569 9.75C8.61569 9.61 8.41569 9.18 8.55569 8.79C8.70569 8.4 9.13569 8.2 9.52569 8.34C11.1357 8.92 12.9057 8.92 14.5157 8.34C14.9057 8.2 15.3357 8.4 15.4757 8.79C15.6157 9.18 15.4157 9.61 15.0257 9.75Z" fill="#171717"/>
</svg>
