<svg width="25" height="24" viewBox="0 0 25 24" fill="none" xmlns="http://www.w3.org/2000/svg">
<path opacity="0.4" d="M16.8357 2H7.19569C5.06569 2 3.33569 3.74 3.33569 5.86V19.95C3.33569 21.75 4.62569 22.51 6.20569 21.64L11.0857 18.93C11.6057 18.64 12.4457 18.64 12.9557 18.93L17.8357 21.64C19.4157 22.52 20.7057 21.76 20.7057 19.95V5.86C20.6957 3.74 18.9657 2 16.8357 2Z" fill="#171717"/>
<path d="M14.5156 11.4H9.51562C9.10563 11.4 8.76562 11.06 8.76562 10.65C8.76562 10.24 9.10563 9.90002 9.51562 9.90002H14.5156C14.9256 9.90002 15.2656 10.24 15.2656 10.65C15.2656 11.06 14.9256 11.4 14.5156 11.4Z" fill="#171717"/>
</svg>
