<svg width="25" height="24" viewBox="0 0 25 24" fill="none" xmlns="http://www.w3.org/2000/svg">
<path d="M2.01557 22.7499C1.82557 22.7499 1.63557 22.6799 1.48557 22.5299C1.19557 22.2399 1.19557 21.7599 1.48557 21.4699L21.4856 1.46994C21.7756 1.17994 22.2556 1.17994 22.5456 1.46994C22.8356 1.75994 22.8356 2.23994 22.5456 2.52994L2.54557 22.5299C2.39557 22.6799 2.20557 22.7499 2.01557 22.7499Z" fill="#171717"/>
<path d="M18.8955 22.75C18.3355 22.75 17.7355 22.58 17.1355 22.25L10.6155 18.18C10.2655 17.96 10.1555 17.5 10.3755 17.15C10.5955 16.8 11.0555 16.69 11.4055 16.91L17.8955 20.96C18.4555 21.27 19.0155 21.34 19.3755 21.13C19.7355 20.92 19.9455 20.4 19.9455 19.71V8.70996C19.9455 8.29996 20.2855 7.95996 20.6955 7.95996C21.1055 7.95996 21.4455 8.29996 21.4455 8.70996V19.71C21.4455 20.94 20.9655 21.93 20.1355 22.42C19.7655 22.64 19.3455 22.75 18.8955 22.75Z" fill="#171717"/>
<path d="M3.33569 20.7C2.92569 20.7 2.58569 20.36 2.58569 19.95V5.86C2.58569 3.32 4.65569 1.25 7.19569 1.25H16.8457C18.2357 1.25 19.5457 1.87 20.4257 2.96C20.6857 3.28 20.6357 3.75 20.3157 4.02C19.9957 4.28 19.5257 4.23 19.2657 3.91C18.6657 3.17 17.7857 2.75 16.8457 2.75H7.19569C5.48569 2.75 4.08569 4.15 4.08569 5.86V19.95C4.08569 20.36 3.74569 20.7 3.33569 20.7Z" fill="#171717"/>
</svg>
