<svg width="25" height="24" viewBox="0 0 25 24" fill="none" xmlns="http://www.w3.org/2000/svg">
<path d="M14.5156 11.4H9.51562C9.10563 11.4 8.76562 11.06 8.76562 10.65C8.76562 10.24 9.10563 9.90002 9.51562 9.90002H14.5156C14.9256 9.90002 15.2656 10.24 15.2656 10.65C15.2656 11.06 14.9256 11.4 14.5156 11.4Z" fill="#171717"/>
<path d="M12.0156 13.96C11.6056 13.96 11.2656 13.62 11.2656 13.21V8.20996C11.2656 7.79996 11.6056 7.45996 12.0156 7.45996C12.4256 7.45996 12.7656 7.79996 12.7656 8.20996V13.21C12.7656 13.62 12.4256 13.96 12.0156 13.96Z" fill="#171717"/>
<path d="M19.0857 22.75C18.5757 22.75 18.0157 22.6 17.4757 22.29L12.5957 19.58C12.3057 19.42 11.7357 19.42 11.4457 19.58L6.56569 22.29C5.57569 22.84 4.56569 22.9 3.79569 22.44C3.02569 21.99 2.58569 21.08 2.58569 19.95V5.86C2.58569 3.32 4.65569 1.25 7.19569 1.25H16.8457C19.3857 1.25 21.4557 3.32 21.4557 5.86V19.95C21.4557 21.08 21.0157 21.99 20.2457 22.44C19.8957 22.65 19.4957 22.75 19.0857 22.75ZM12.0157 17.96C12.4857 17.96 12.9457 18.06 13.3157 18.27L18.1957 20.98C18.7057 21.27 19.1757 21.33 19.4757 21.15C19.7757 20.97 19.9457 20.54 19.9457 19.95V5.86C19.9457 4.15 18.5457 2.75 16.8357 2.75H7.19569C5.48569 2.75 4.08569 4.15 4.08569 5.86V19.95C4.08569 20.54 4.25569 20.98 4.55569 21.15C4.85569 21.32 5.32569 21.27 5.83569 20.98L10.7157 18.27C11.0857 18.06 11.5457 17.96 12.0157 17.96Z" fill="#171717"/>
</svg>
