<svg width="25" height="24" viewBox="0 0 25 24" fill="none" xmlns="http://www.w3.org/2000/svg">
<path opacity="0.4" d="M16.8357 1.91003H7.19569C5.07569 1.91003 3.33569 3.65003 3.33569 5.77003V19.86C3.33569 21.66 4.62569 22.42 6.20569 21.55L11.0857 18.84C11.6057 18.55 12.4457 18.55 12.9557 18.84L17.8357 21.55C19.4157 22.43 20.7057 21.67 20.7057 19.86V5.77003C20.6957 3.65003 18.9657 1.91003 16.8357 1.91003Z" fill="#171717"/>
<path d="M11.1057 13.2499C10.9157 13.2499 10.7257 13.1799 10.5757 13.0299L9.07565 11.5299C8.78565 11.2399 8.78565 10.7599 9.07565 10.4699C9.36565 10.1799 9.84565 10.1799 10.1357 10.4699L11.1057 11.4399L14.5757 7.96994C14.8657 7.67994 15.3457 7.67994 15.6357 7.96994C15.9257 8.25994 15.9257 8.73994 15.6357 9.02994L11.6357 13.0299C11.4857 13.1799 11.2957 13.2499 11.1057 13.2499Z" fill="#171717"/>
</svg>
