<svg width="25" height="24" viewBox="0 0 25 24" fill="none" xmlns="http://www.w3.org/2000/svg">
<path opacity="0.4" d="M16.8357 2H7.19569C5.06569 2 3.33569 3.74 3.33569 5.86V19.95C3.33569 21.75 4.62569 22.51 6.20569 21.64L11.0857 18.93C11.6057 18.64 12.4457 18.64 12.9557 18.93L17.8357 21.64C19.4157 22.52 20.7057 21.76 20.7057 19.95V5.86C20.6957 3.74 18.9657 2 16.8357 2Z" fill="#171717"/>
<path d="M14.5156 9.89996H12.7656V8.20996C12.7656 7.79996 12.4256 7.45996 12.0156 7.45996C11.6056 7.45996 11.2656 7.79996 11.2656 8.20996V9.89996H9.51562C9.10563 9.89996 8.76562 10.24 8.76562 10.65C8.76562 11.06 9.10563 11.4 9.51562 11.4H11.2656V13.21C11.2656 13.62 11.6056 13.96 12.0156 13.96C12.4256 13.96 12.7656 13.62 12.7656 13.21V11.4H14.5156C14.9256 11.4 15.2656 11.06 15.2656 10.65C15.2656 10.24 14.9256 9.89996 14.5156 9.89996Z" fill="#171717"/>
</svg>
