<svg width="25" height="24" viewBox="0 0 25 24" fill="none" xmlns="http://www.w3.org/2000/svg">
<path d="M14.5156 11.4H9.51562C9.10563 11.4 8.76562 11.06 8.76562 10.65C8.76562 10.24 9.10563 9.90002 9.51562 9.90002H14.5156C14.9256 9.90002 15.2656 10.24 15.2656 10.65C15.2656 11.06 14.9256 11.4 14.5156 11.4Z" fill="#171717"/>
<path d="M4.94568 22.75C4.52568 22.75 4.13568 22.65 3.78568 22.45C3.01568 22 2.57568 21.09 2.57568 19.96V5.86C2.57568 3.32 4.64568 1.25 7.18568 1.25H16.8357C19.3757 1.25 21.4457 3.32 21.4457 5.86V19.95C21.4457 21.08 21.0057 21.99 20.2357 22.44C19.4657 22.89 18.4557 22.84 17.4657 22.29L12.5857 19.58C12.2957 19.42 11.7257 19.42 11.4357 19.58L6.55568 22.29C6.01568 22.59 5.46568 22.75 4.94568 22.75ZM7.19568 2.75C5.48568 2.75 4.08568 4.15 4.08568 5.86V19.95C4.08568 20.54 4.25568 20.98 4.55568 21.15C4.85568 21.33 5.32568 21.27 5.83568 20.98L10.7157 18.27C11.4557 17.86 12.5757 17.86 13.3157 18.27L18.1957 20.98C18.7057 21.27 19.1757 21.33 19.4757 21.15C19.7757 20.97 19.9457 20.53 19.9457 19.95V5.86C19.9457 4.15 18.5457 2.75 16.8357 2.75H7.19568Z" fill="#171717"/>
</svg>
