<svg width="25" height="24" viewBox="0 0 25 24" fill="none" xmlns="http://www.w3.org/2000/svg">
<path d="M12.0154 22.08C11.7154 22.08 11.4154 22.01 11.1654 21.87C9.29541 20.85 6.01538 19.77 3.95538 19.5L3.66541 19.46C2.35541 19.3 1.27539 18.07 1.27539 16.74V4.65999C1.27539 3.86999 1.5854 3.15002 2.1554 2.63002C2.7254 2.11002 3.46536 1.86001 4.24536 1.93001C6.43536 2.11001 9.75538 3.21002 11.6354 4.38002L11.8754 4.52003C11.9454 4.55003 12.0954 4.56003 12.1554 4.52003L12.3154 4.42C12.9854 4 13.8254 3.58999 14.7454 3.21999C14.9754 3.12999 15.2354 3.16 15.4454 3.3C15.6554 3.44 15.7754 3.67 15.7754 3.92V6.59999L16.6054 6.05C16.8554 5.88 17.1854 5.88 17.4354 6.05L18.2654 6.59999V2.78004C18.2654 2.42004 18.5254 2.10999 18.8754 2.03999C19.1654 1.98999 19.4554 1.95001 19.7154 1.93001C19.7354 1.93001 19.8154 1.93001 19.8354 1.93001C20.5654 1.87001 21.3154 2.12003 21.8754 2.64003C22.4454 3.16003 22.7554 3.88 22.7554 4.67V16.74C22.7554 18.08 21.6754 19.3 20.3554 19.46L20.0254 19.5C17.9654 19.77 14.6654 20.86 12.8354 21.87C12.6154 22.01 12.3154 22.08 12.0154 22.08ZM3.99536 3.40999C3.67536 3.40999 3.3854 3.51999 3.1554 3.73C2.9054 3.96 2.76538 4.28999 2.76538 4.65999V16.74C2.76538 17.33 3.2754 17.9 3.8454 17.98L4.14539 18.02C6.39539 18.32 9.8454 19.45 11.8454 20.55C11.9354 20.59 12.0654 20.6 12.1154 20.58C14.1254 19.47 17.5854 18.33 19.8454 18.03L20.1854 17.99C20.7554 17.92 21.2654 17.34 21.2654 16.75V4.68001C21.2654 4.31001 21.1254 3.99001 20.8754 3.75001C20.6254 3.52001 20.2754 3.41001 19.9154 3.43001C19.8854 3.43001 19.7954 3.43001 19.7754 3.43001V8.00001C19.7754 8.28001 19.6254 8.52999 19.3754 8.65999C19.1254 8.78999 18.8354 8.78001 18.6054 8.62001L17.0254 7.57002L15.4454 8.62001C15.2154 8.77001 14.9254 8.78999 14.6754 8.65999C14.4354 8.52999 14.2754 8.28001 14.2754 8.00001V5.07002C13.8454 5.28002 13.4554 5.49002 13.1154 5.69002L12.9554 5.78999C12.4054 6.12999 11.6254 6.13 11.0954 5.8L10.8554 5.65004C9.16541 4.59004 6.08537 3.56999 4.12537 3.40999C4.07537 3.40999 4.03536 3.40999 3.99536 3.40999Z" fill="#171717"/>
<path d="M12.0156 21.24C11.6056 21.24 11.2656 20.9 11.2656 20.49V5.48999C11.2656 5.07999 11.6056 4.73999 12.0156 4.73999C12.4256 4.73999 12.7656 5.07999 12.7656 5.48999V20.49C12.7656 20.91 12.4256 21.24 12.0156 21.24Z" fill="#171717"/>
<path d="M19.0156 8.74999C18.8656 8.74999 18.7256 8.70998 18.5956 8.61998L17.0156 7.57L15.4356 8.61998C15.2056 8.76998 14.9156 8.78996 14.6656 8.65996C14.4256 8.52996 14.2656 8.27999 14.2656 7.99999V3.91997C14.2656 3.60997 14.4556 3.33996 14.7356 3.21996C16.1156 2.66996 17.6256 2.23997 18.8956 2.03997C19.1156 1.99997 19.3356 2.07001 19.5056 2.21001C19.6756 2.35001 19.7656 2.56002 19.7656 2.78002V7.99999C19.7656 8.27999 19.6156 8.52996 19.3656 8.65996C19.2556 8.71996 19.1356 8.74999 19.0156 8.74999ZM17.0156 5.91997C17.1556 5.91997 17.3056 5.95998 17.4356 6.04998L18.2656 6.59996V3.68999C17.4656 3.86999 16.5956 4.12999 15.7656 4.43999V6.59996L16.5956 6.04998C16.7256 5.95998 16.8756 5.91997 17.0156 5.91997Z" fill="#171717"/>
</svg>
