<svg width="25" height="24" viewBox="0 0 25 24" fill="none" xmlns="http://www.w3.org/2000/svg">
<path opacity="0.4" d="M12.0156 5.29995V21.33C12.1856 21.33 12.3656 21.2999 12.5056 21.2199L12.5457 21.2C14.4657 20.15 17.8156 19.05 19.9856 18.76L20.2756 18.7199C21.2356 18.5999 22.0156 17.7 22.0156 16.74V4.65993C22.0156 3.46993 21.0457 2.56994 19.8557 2.66994C17.7557 2.83994 14.5757 3.89997 12.7957 5.00997L12.5457 5.15993C12.3957 5.24993 12.2056 5.29995 12.0156 5.29995Z" fill="#171717"/>
<path d="M2.01562 4.67002V16.74C2.01562 17.7 2.79562 18.6 3.75562 18.72L4.08563 18.76C6.26563 19.05 9.62565 20.16 11.5457 21.22C11.6757 21.3 11.8356 21.3301 12.0156 21.3301V5.30002C11.8256 5.30002 11.6356 5.25001 11.4856 5.16001L11.3156 5.05002C9.53561 3.93002 6.34561 2.86003 4.24561 2.68003H4.18561C2.99561 2.58003 2.01562 3.47002 2.01562 4.67002Z" fill="#171717"/>
<path d="M19.0156 2.78003V7.07001C19.0156 7.47001 18.5756 7.70999 18.2356 7.48999L17.0156 6.67999L15.7957 7.48999C15.4657 7.70999 15.0156 7.47001 15.0156 7.07001V3.91998C16.3256 3.39998 17.7856 2.98003 19.0156 2.78003Z" fill="#171717"/>
</svg>
