<svg width="25" height="24" viewBox="0 0 25 24" fill="none" xmlns="http://www.w3.org/2000/svg">
<path opacity="0.4" d="M16.2056 2H7.83563C4.19563 2 2.02563 4.17 2.02563 7.81V16.18C2.02563 19.82 4.19563 21.99 7.83563 21.99H16.2056C19.8456 21.99 22.0156 19.82 22.0156 16.18V7.81C22.0156 4.17 19.8456 2 16.2056 2Z" fill="#171717"/>
<path d="M11.5157 8.09V17.25C11.5157 17.61 11.1557 17.85 10.8257 17.71C9.61574 17.19 8.03573 16.71 6.93573 16.57L6.74573 16.55C6.13573 16.47 5.63574 15.9 5.63574 15.28V7.57999C5.63574 6.81999 6.25575 6.25 7.01575 6.31C8.26575 6.41 10.1158 7.01001 11.2758 7.67001C11.4258 7.74001 11.5157 7.91 11.5157 8.09Z" fill="#171717"/>
<path d="M18.3956 7.70007V15.2701C18.3956 15.89 17.8956 16.4601 17.2856 16.5401L17.0756 16.5601C15.9856 16.7101 14.4156 17.1801 13.2056 17.6901C12.8756 17.8301 12.5156 17.5901 12.5156 17.2301V8.08005C12.5156 7.90005 12.6056 7.73008 12.7656 7.64008C13.9256 6.99008 15.7356 6.41005 16.9656 6.30005H17.0056C17.7756 6.31005 18.3956 6.93007 18.3956 7.70007Z" fill="#171717"/>
</svg>
