<svg width="25" height="24" viewBox="0 0 25 24" fill="none" xmlns="http://www.w3.org/2000/svg">
<path d="M15.0156 22.75H9.01562C3.58563 22.75 1.26562 20.43 1.26562 15V9C1.26562 3.57 3.58563 1.25 9.01562 1.25H15.0156C20.4456 1.25 22.7656 3.57 22.7656 9V15C22.7656 20.43 20.4456 22.75 15.0156 22.75ZM9.01562 2.75C4.40562 2.75 2.76562 4.39 2.76562 9V15C2.76562 19.61 4.40562 21.25 9.01562 21.25H15.0156C19.6256 21.25 21.2656 19.61 21.2656 15V9C21.2656 4.39 19.6256 2.75 15.0156 2.75H9.01562Z" fill="#171717"/>
<path d="M12.0157 18.95C11.7757 18.95 11.5358 18.89 11.3358 18.78C10.1758 18.15 8.12575 17.47 6.83575 17.3L6.64575 17.27C5.66575 17.15 4.88574 16.27 4.88574 15.26V7.55996C4.88574 6.98996 5.12577 6.43996 5.53577 6.05996C5.95577 5.67996 6.49574 5.48997 7.07574 5.53997C8.53574 5.65997 10.6558 6.35998 11.9058 7.13998L12.0057 7.19998L12.0458 7.16998C13.3058 6.37998 15.4258 5.66997 16.8958 5.53997C16.9158 5.53997 16.9757 5.53997 16.9957 5.53997C17.5157 5.48997 18.0757 5.68996 18.4857 6.05996C18.9057 6.43996 19.1357 6.96995 19.1357 7.54995V15.24C19.1357 16.24 18.3557 17.12 17.3657 17.25L17.1558 17.28C15.8758 17.45 13.8157 18.13 12.6757 18.76C12.4857 18.9 12.2557 18.95 12.0157 18.95ZM6.90576 7.04995C6.76576 7.04995 6.64573 7.09996 6.55573 7.17996C6.44573 7.27996 6.39575 7.41997 6.39575 7.56997V15.27C6.39575 15.51 6.61576 15.76 6.84576 15.79L7.03577 15.82C8.49577 16.02 10.7358 16.75 12.0358 17.46C13.2458 16.76 15.4958 16.01 16.9658 15.82L17.1857 15.79C17.4157 15.76 17.6357 15.51 17.6357 15.27V7.57995C17.6357 7.41995 17.5758 7.28997 17.4758 7.18997C17.3658 7.08997 17.2257 7.04996 17.0657 7.05996C17.0457 7.05996 16.9858 7.05996 16.9658 7.05996C15.8058 7.15996 13.8958 7.79996 12.8558 8.45996L12.7557 8.51996C12.3157 8.78996 11.6958 8.78996 11.2758 8.52996L11.1257 8.43997C10.0757 7.77997 8.16575 7.14995 6.95575 7.04995C6.93575 7.04995 6.92576 7.04995 6.90576 7.04995Z" fill="#171717"/>
<path d="M12.0156 18.41C11.6056 18.41 11.2656 18.07 11.2656 17.66V8.09998C11.2656 7.68998 11.6056 7.34998 12.0156 7.34998C12.4256 7.34998 12.7656 7.68998 12.7656 8.09998V17.66C12.7656 18.08 12.4256 18.41 12.0156 18.41Z" fill="#171717"/>
</svg>
