<svg width="25" height="24" viewBox="0 0 25 24" fill="none" xmlns="http://www.w3.org/2000/svg">
<path d="M2.01562 12.94V15C2.01562 20 4.01562 22 9.01562 22H15.0156C20.0156 22 22.0156 20 22.0156 15V9C22.0156 4 20.0156 2 15.0156 2H9.01562C4.01562 2 2.01562 4 2.01562 9" stroke="#171717" stroke-width="1.5" stroke-linecap="round" stroke-linejoin="round"/>
<path d="M17.0156 13.04V15.7C17.0156 17.27 16.1556 17.64 15.1156 16.52C14.6356 16.01 13.8956 16.05 13.4756 16.61L12.8756 17.41C12.4056 18.04 11.6256 18.04 11.1556 17.41L10.5656 16.62C10.1456 16.06 9.40563 16.02 8.92563 16.53C7.87563 17.65 7.02563 17.28 7.02563 15.71V9.08C7.02563 6.71 7.58563 6.12 9.80563 6.12H14.2456C16.4656 6.12 17.0256 6.71 17.0256 9.08" stroke="#171717" stroke-width="1.5" stroke-linecap="round" stroke-linejoin="round"/>
</svg>
