<svg width="25" height="24" viewBox="0 0 25 24" fill="none" xmlns="http://www.w3.org/2000/svg">
<path d="M15.0156 22.75H9.01562C3.58563 22.75 1.26562 20.43 1.26562 15V9C1.26562 3.57 3.58563 1.25 9.01562 1.25H15.0156C20.4456 1.25 22.7656 3.57 22.7656 9V15C22.7656 20.43 20.4456 22.75 15.0156 22.75ZM9.01562 2.75C4.40562 2.75 2.76562 4.39 2.76562 9V15C2.76562 19.61 4.40562 21.25 9.01562 21.25H15.0156C19.6256 21.25 21.2656 19.61 21.2656 15V9C21.2656 4.39 19.6256 2.75 15.0156 2.75H9.01562Z" fill="#171717"/>
<path d="M12.0156 18.63C11.4556 18.63 10.9256 18.35 10.5556 17.86L9.95563 17.06C9.88563 16.97 9.80564 16.92 9.71564 16.91C9.62564 16.91 9.54564 16.95 9.46564 17.03L8.91562 16.52L9.46564 17.03C8.49564 18.07 7.70561 17.97 7.31561 17.82C6.92561 17.66 6.26562 17.18 6.26562 15.7V9.06999C6.26562 6.28999 7.15562 5.35999 9.79562 5.35999H14.2456C16.8856 5.35999 17.7756 6.29999 17.7756 9.06999V15.7C17.7756 17.18 17.1156 17.67 16.7256 17.82C16.3456 17.97 15.5556 18.07 14.5756 17.03C14.4956 16.95 14.4056 16.91 14.3156 16.91C14.2256 16.91 14.1456 16.97 14.0756 17.06L13.4856 17.85C13.1056 18.35 12.5756 18.63 12.0156 18.63ZM9.70563 15.41C9.73563 15.41 9.76562 15.41 9.79562 15.41C10.3256 15.44 10.8156 15.71 11.1456 16.16L11.7456 16.96C11.9156 17.18 12.1056 17.18 12.2656 16.96L12.8556 16.17C13.1856 15.72 13.6856 15.45 14.2156 15.42C14.7356 15.38 15.2656 15.61 15.6456 16.02C15.9256 16.32 16.1056 16.4 16.1756 16.42C16.1656 16.37 16.2556 16.17 16.2556 15.71V9.07999C16.2556 7.02999 15.9456 6.86998 14.2256 6.86998H9.77563C8.05563 6.86998 7.74564 7.02999 7.74564 9.07999V15.71C7.74564 16.17 7.83563 16.37 7.86563 16.43C7.89563 16.39 8.07561 16.31 8.34561 16.01C8.34561 16 8.35563 16 8.36563 15.99C8.73563 15.63 9.21563 15.41 9.70563 15.41Z" fill="#171717"/>
</svg>
