<svg width="25" height="24" viewBox="0 0 25 24" fill="none" xmlns="http://www.w3.org/2000/svg">
<path opacity="0.4" d="M16.0156 8.98999V20.35C16.0156 21.8 14.9756 22.41 13.7056 21.71L9.77563 19.52C9.35563 19.29 8.67562 19.29 8.25562 19.52L4.32562 21.71C3.05562 22.41 2.01562 21.8 2.01562 20.35V8.98999C2.01562 7.27999 3.41563 5.88 5.12563 5.88H12.9056C14.6156 5.88 16.0156 7.27999 16.0156 8.98999Z" fill="#171717"/>
<path d="M10.0757 12L10.9557 11.12C11.2457 10.83 11.2457 10.35 10.9557 10.06C10.6657 9.77003 10.1857 9.77003 9.89565 10.06L9.01565 10.94L8.13565 10.06C7.84565 9.77003 7.36565 9.77003 7.07565 10.06C6.78565 10.35 6.78565 10.83 7.07565 11.12L7.95565 12L7.07565 12.88C6.78565 13.17 6.78565 13.65 7.07565 13.94C7.22565 14.09 7.41565 14.16 7.60565 14.16C7.79565 14.16 7.98565 14.09 8.13565 13.94L9.01565 13.06L9.89565 13.94C10.0457 14.09 10.2357 14.16 10.4257 14.16C10.6157 14.16 10.8057 14.09 10.9557 13.94C11.2457 13.65 11.2457 13.17 10.9557 12.88L10.0757 12Z" fill="#171717"/>
<path d="M22.0156 5.10999V16.47C22.0156 17.92 20.9756 18.53 19.7056 17.83L16.0156 15.77V8.98999C16.0156 7.27999 14.6156 5.88 12.9056 5.88H8.01562V5.10999C8.01562 3.39999 9.41562 2 11.1256 2H18.9056C20.6156 2 22.0156 3.39999 22.0156 5.10999Z" fill="#171717"/>
</svg>
