<svg width="25" height="24" viewBox="0 0 25 24" fill="none" xmlns="http://www.w3.org/2000/svg">
<path d="M14.7059 22.75C14.2659 22.75 13.8059 22.62 13.3359 22.37L9.40586 20.18C9.21586 20.08 8.80586 20.08 8.61586 20.18L4.68586 22.37C3.83586 22.84 2.97586 22.88 2.30586 22.49C1.64586 22.1 1.25586 21.32 1.25586 20.36V9C1.25586 6.87 2.98586 5.14001 5.11586 5.14001H12.8959C15.0259 5.14001 16.7559 6.87 16.7559 9V20.36C16.7559 21.32 16.3759 22.1 15.7059 22.49C15.4159 22.66 15.0759 22.75 14.7059 22.75ZM9.01586 18.6C9.41586 18.6 9.80586 18.69 10.1359 18.87L14.0759 21.06C14.4359 21.26 14.7659 21.31 14.9659 21.19C15.1559 21.08 15.2759 20.76 15.2759 20.35V8.98999C15.2759 7.68999 14.2159 6.63 12.9159 6.63H5.12586C3.82586 6.63 2.76586 7.68999 2.76586 8.98999V20.35C2.76586 20.76 2.88586 21.08 3.07586 21.19C3.26586 21.3 3.60586 21.25 3.96586 21.05L7.89586 18.86C8.21586 18.69 8.61586 18.6 9.01586 18.6Z" fill="#171717"/>
<path d="M7.60541 14.16C7.41541 14.16 7.22541 14.09 7.07541 13.94C6.78541 13.65 6.78541 13.17 7.07541 12.88L9.90541 10.05C10.1954 9.76002 10.6754 9.76002 10.9654 10.05C11.2554 10.34 11.2554 10.82 10.9654 11.11L8.13541 13.94C7.98541 14.09 7.79541 14.16 7.60541 14.16Z" fill="#171717"/>
<path d="M10.4256 14.16C10.2356 14.16 10.0456 14.09 9.89564 13.94L7.06564 11.11C6.77564 10.82 6.77564 10.34 7.06564 10.05C7.35564 9.76002 7.83564 9.76002 8.12564 10.05L10.9556 12.88C11.2456 13.17 11.2456 13.65 10.9556 13.94C10.8156 14.09 10.6256 14.16 10.4256 14.16Z" fill="#171717"/>
<path d="M20.7056 18.87C20.2656 18.87 19.8056 18.74 19.3356 18.49L15.6456 16.43C15.4056 16.3 15.2656 16.05 15.2656 15.78V9C15.2656 7.7 14.2056 6.64001 12.9056 6.64001H8.01562C7.60563 6.64001 7.26562 6.30001 7.26562 5.89001V5.12C7.26562 2.99 8.99562 1.26001 11.1256 1.26001H18.9056C21.0356 1.26001 22.7656 2.99 22.7656 5.12V16.48C22.7656 17.44 22.3856 18.22 21.7156 18.61C21.4156 18.78 21.0756 18.87 20.7056 18.87ZM16.7656 15.33L20.0756 17.18C20.4356 17.38 20.7656 17.43 20.9656 17.31C21.1556 17.2 21.2756 16.88 21.2756 16.47V5.10999C21.2756 3.80999 20.2156 2.75 18.9156 2.75H11.1356C9.83562 2.75 8.77563 3.80999 8.77563 5.10999V5.13H12.9156C15.0456 5.13 16.7756 6.85999 16.7756 8.98999V15.33H16.7656Z" fill="#171717"/>
</svg>
