<svg width="25" height="24" viewBox="0 0 25 24" fill="none" xmlns="http://www.w3.org/2000/svg">
<path d="M14.7056 22.75C14.2656 22.75 13.8056 22.62 13.3356 22.37L9.40564 20.18C9.21564 20.08 8.8056 20.08 8.6156 20.18L4.69562 22.37C3.84562 22.84 2.97561 22.88 2.31561 22.49C1.64561 22.1 1.26562 21.32 1.26562 20.36V9C1.26562 6.87 2.99561 5.14001 5.12561 5.14001H12.9056C15.0356 5.14001 16.7656 6.87 16.7656 9V20.36C16.7656 21.32 16.3856 22.1 15.7156 22.49C15.4156 22.66 15.0756 22.75 14.7056 22.75ZM9.01562 18.6C9.41562 18.6 9.80562 18.69 10.1356 18.87L14.0656 21.06C14.4256 21.26 14.7556 21.31 14.9556 21.19C15.1456 21.08 15.2656 20.76 15.2656 20.35V8.98999C15.2656 7.68999 14.2056 6.63 12.9056 6.63H5.12561C3.82561 6.63 2.76562 7.68999 2.76562 8.98999V20.35C2.76562 20.76 2.88562 21.08 3.07562 21.19C3.26562 21.3 3.60564 21.25 3.96564 21.05L7.89563 18.86C8.21563 18.69 8.61562 18.6 9.01562 18.6Z" fill="#171717"/>
<path d="M20.7056 18.87C20.2656 18.87 19.8056 18.74 19.3356 18.49L15.6456 16.43C15.4056 16.3 15.2656 16.05 15.2656 15.78V9C15.2656 7.7 14.2056 6.64001 12.9056 6.64001H8.01562C7.60563 6.64001 7.26562 6.30001 7.26562 5.89001V5.12C7.26562 2.99 8.99561 1.26001 11.1256 1.26001H18.9056C21.0356 1.26001 22.7656 2.99 22.7656 5.12V16.48C22.7656 17.44 22.3856 18.22 21.7156 18.61C21.4156 18.78 21.0756 18.87 20.7056 18.87ZM16.7656 15.33L20.0656 17.18C20.4256 17.38 20.7556 17.43 20.9556 17.31C21.1456 17.2 21.2656 16.88 21.2656 16.47V5.10999C21.2656 3.80999 20.2056 2.75 18.9056 2.75H11.1256C9.82561 2.75 8.76562 3.80999 8.76562 5.10999V5.13H12.9056C15.0356 5.13 16.7656 6.85999 16.7656 8.98999V15.33Z" fill="#171717"/>
<path d="M11.0156 12.75H7.01562C6.60563 12.75 6.26562 12.41 6.26562 12C6.26562 11.59 6.60563 11.25 7.01562 11.25H11.0156C11.4256 11.25 11.7656 11.59 11.7656 12C11.7656 12.41 11.4256 12.75 11.0156 12.75Z" fill="#171717"/>
</svg>
