<svg width="25" height="24" viewBox="0 0 25 24" fill="none" xmlns="http://www.w3.org/2000/svg">
<path d="M3.31586 22.75C2.95586 22.75 2.60585 22.66 2.30585 22.48C1.63585 22.09 1.25586 21.31 1.25586 20.34V8.98001C1.25586 6.85001 2.98584 5.12 5.11584 5.12H12.8959C15.0259 5.12 16.7559 6.85001 16.7559 8.98001V20.34C16.7559 21.31 16.3759 22.08 15.7059 22.48C15.0359 22.87 14.1759 22.83 13.3259 22.36L9.39587 20.17C9.20587 20.06 8.80584 20.06 8.61584 20.17L4.68585 22.36C4.22585 22.62 3.75586 22.75 3.31586 22.75ZM5.12585 6.63C3.82585 6.63 2.76587 7.68999 2.76587 8.98999V20.35C2.76587 20.76 2.88587 21.08 3.07587 21.19C3.26587 21.3 3.60588 21.25 3.96588 21.05L7.89587 18.86C8.53587 18.51 9.49586 18.51 10.1359 18.86L14.0659 21.05C14.4259 21.25 14.7559 21.3 14.9559 21.19C15.1459 21.08 15.2659 20.76 15.2659 20.35V8.98999C15.2659 7.68999 14.2059 6.63 12.9059 6.63H5.12585Z" fill="#171717"/>
<path d="M14.7056 22.75C14.2656 22.75 13.8056 22.62 13.3356 22.37L9.40564 20.18C9.21564 20.08 8.8056 20.08 8.6156 20.18L4.69562 22.37C3.84562 22.84 2.97561 22.88 2.31561 22.49C1.64561 22.1 1.26562 21.32 1.26562 20.36V9C1.26562 6.87 2.99561 5.14001 5.12561 5.14001H12.9056C15.0356 5.14001 16.7656 6.87 16.7656 9V20.36C16.7656 21.32 16.3856 22.1 15.7156 22.49C15.4156 22.66 15.0756 22.75 14.7056 22.75ZM9.01562 18.6C9.41562 18.6 9.80562 18.69 10.1356 18.87L14.0656 21.06C14.4256 21.26 14.7656 21.31 14.9556 21.19C15.1456 21.08 15.2656 20.76 15.2656 20.35V8.98999C15.2656 7.68999 14.2056 6.63 12.9056 6.63H5.12561C3.82561 6.63 2.76562 7.68999 2.76562 8.98999V20.35C2.76562 20.76 2.88562 21.08 3.07562 21.19C3.26562 21.3 3.60564 21.25 3.96564 21.05L7.89563 18.86C8.21563 18.69 8.61562 18.6 9.01562 18.6Z" fill="#171717"/>
<path d="M20.7056 18.87C20.2656 18.87 19.8056 18.74 19.3356 18.49L15.6456 16.43C15.4056 16.3 15.2656 16.05 15.2656 15.78V9C15.2656 7.7 14.2056 6.64001 12.9056 6.64001H8.01562C7.60563 6.64001 7.26562 6.30001 7.26562 5.89001V5.12C7.26562 2.99 8.99561 1.26001 11.1256 1.26001H18.9056C21.0356 1.26001 22.7656 2.99 22.7656 5.12V16.48C22.7656 17.44 22.3856 18.22 21.7156 18.61C21.4156 18.78 21.0756 18.87 20.7056 18.87ZM16.7656 15.33L20.0656 17.18C20.4256 17.38 20.7556 17.43 20.9556 17.31C21.1556 17.19 21.2656 16.88 21.2656 16.47V5.10999C21.2656 3.80999 20.2056 2.75 18.9056 2.75H11.1256C9.82561 2.75 8.76562 3.80999 8.76562 5.10999V5.13H12.9056C15.0356 5.13 16.7656 6.85999 16.7656 8.98999V15.33Z" fill="#171717"/>
</svg>
