<svg width="25" height="24" viewBox="0 0 25 24" fill="none" xmlns="http://www.w3.org/2000/svg">
<path opacity="0.4" d="M12.9056 5.88H5.12561C3.41561 5.88 2.01562 7.27999 2.01562 8.98999V20.35C2.01562 21.8 3.05562 22.42 4.32562 21.71L8.25562 19.52C8.67562 19.29 9.35563 19.29 9.76562 19.52L13.6956 21.71C14.9656 22.42 16.0056 21.8 16.0056 20.35V8.98999C16.0156 7.27999 14.6156 5.88 12.9056 5.88Z" fill="#171717"/>
<path d="M22.0156 5.10999V16.47C22.0156 17.92 20.9756 18.53 19.7056 17.83L16.0156 15.77V8.98999C16.0156 7.27999 14.6156 5.88 12.9056 5.88H8.01562V5.10999C8.01562 3.39999 9.41561 2 11.1256 2H18.9056C20.6156 2 22.0156 3.39999 22.0156 5.10999Z" fill="#171717"/>
</svg>
